<?xml version="1.0" encoding="UTF-8" standalone="no"?>
<!-- Creator: CorelDRAW -->
<svg xmlns:dc="http://purl.org/dc/elements/1.1/" xmlns:cc="http://web.resource.org/cc/"
    xmlns:rdf="http://www.w3.org/1999/02/22-rdf-syntax-ns#" xmlns:svg="http://www.w3.org/2000/svg"
    xmlns="http://www.w3.org/2000/svg" xmlns:sodipodi="http://inkscape.sourceforge.net/DTD/sodipodi-0.dtd"
    xmlns:inkscape="http://www.inkscape.org/namespaces/inkscape" xml:space="preserve" width="250" height="366"
    style="shape-rendering:geometricPrecision; text-rendering:geometricPrecision; image-rendering:optimizeQuality; fill-rule:evenodd; clip-rule:evenodd"
    viewBox="0 0 200 200" id="svg1627" sodipodi:version="0.32" inkscape:version="0.43"
    sodipodi:docname="Mapa_de_Portugal.svg" sodipodi:docbase="C:\Documents and Settings\Márcio Silva\Os meus documentos"
    version="1.0">
    <metadata id="metadata1927">
        <rdf:RDF>
            <cc:Work rdf:about="">
                <dc:format>image/svg+xml</dc:format>
                <dc:type rdf:resource="http://purl.org/dc/dcmitype/StillImage" />
                <dc:title>Munícipios de Portugal</dc:title>
                <cc:license rdf:resource="http://creativecommons.org/licenses/GPL/2.0/" />
                <dc:creator>
                    <cc:Agent>
                        <dc:title>Rei-artur (rei.artur@gmail.com)</dc:title>
                    </cc:Agent>
                </dc:creator>
            </cc:Work>
            <cc:License rdf:about="http://creativecommons.org/licenses/GPL/2.0/">
                <cc:permits rdf:resource="http://web.resource.org/cc/Reproduction" />
                <cc:permits rdf:resource="http://web.resource.org/cc/Distribution" />
                <cc:requires rdf:resource="http://web.resource.org/cc/Notice" />
                <cc:permits rdf:resource="http://web.resource.org/cc/DerivativeWorks" />
                <cc:requires rdf:resource="http://web.resource.org/cc/ShareAlike" />
                <cc:requires rdf:resource="http://web.resource.org/cc/SourceCode" />
            </cc:License>
        </rdf:RDF>
    </metadata>

    <sodipodi:namedview inkscape:window-height="582" inkscape:window-width="866" inkscape:pageshadow="2"
        inkscape:pageopacity="0.0" borderopacity="1.0" bordercolor="#666666" pagecolor="#ffffff" id="base"
        fill="#ffff00" inkscape:zoom="1.1338798" inkscape:cx="125" inkscape:cy="211.12313" inkscape:window-x="28"
        inkscape:window-y="117" inkscape:current-layer="layer7" showguides="true" inkscape:guide-bbox="true">
        <sodipodi:guide orientation="horizontal" position="329.9602" id="guide2648" />
        <sodipodi:guide orientation="horizontal" position="307.74672" id="guide2650" />
    </sodipodi:namedview>

    <defs id="defs1629">
        <metadata id="CorelCorpID_0Corel-Layer" />
        <sodipodi:namedview inkscape:guide-bbox="true" showguides="true" inkscape:current-layer="layer1"
            inkscape:window-y="-4" inkscape:window-x="-4" inkscape:cy="327.60442" inkscape:cx="146.08303"
            inkscape:zoom="17.548964" fill="#fa8072" id="namedview5974" pagecolor="#ffffff" bordercolor="#666666"
            borderopacity="1.0" inkscape:pageopacity="0.0" inkscape:pageshadow="2" inkscape:window-width="1024"
            inkscape:window-height="712" />
    </defs>

    <!-- <g inkscape:groupmode="layer" id="layer3" inkscape:label="fundo" style="display:inline" sodipodi:insensitive="true">
        <rect style="fill:#4169e1;fill-opacity:1;fill-rule:evenodd;stroke:none;display:inline" id="rect2247" width="200" height="200"/>
    </g> -->

    <g inkscape:groupmode="layer" id="layer10" inkscape:label="----detalhes----" style="display:inline" />

    <!-- MUNICIPIOS -->
    <g inkscape:groupmode="layer" id="layer4" inkscape:label="Municipios" style="display:inline"
        sodipodi:insensitive="true" transform="translate(-290, -220) scale(3)">
        <path style="fill:#ffefd5;fill-rule:evenodd;stroke:#b22222;stroke-width:0.25400001;stroke-opacity:1"
            d="M 125.35849,95.823387 C 125.63726,95.756251 126.18674,95.887745 125.75481,96.182805 C 125.411,96.409886 125.98143,96.864847 125.5066,97.064365 C 125.23248,97.239091 124.58163,97.351243 124.85504,97.821661 C 125.15964,98.213307 124.75482,98.866174 125.12542,99.159072 C 125.56885,99.245089 126.03934,99.357131 126.39594,99.648095 C 126.77343,100.18546 126.04252,100.43816 125.80777,100.80971 C 125.56158,101.25903 126.07504,101.69238 126.07452,102.10738 C 125.83452,102.6017 126.20936,102.94616 126.58847,103.18263 C 126.67791,103.41499 126.54219,103.57806 126.79535,103.77614 C 126.90877,104.2598 126.12525,104.53234 125.9625,104.99998 C 125.84658,105.51616 125.28491,105.64858 124.82743,105.70746 C 124.4596,105.81693 123.76441,105.71901 123.95049,105.21587 C 123.8331,104.73414 123.19728,104.85257 122.92601,104.48509 C 122.61924,104.00664 122.10351,104.38297 121.73682,104.08039 C 121.8404,103.79658 122.21856,103.53631 121.82278,103.26931 C 121.79689,102.97806 121.65757,102.81389 121.33849,102.84939 C 121.21787,102.50232 121.29369,102.09721 120.87707,101.98817 C 120.48067,101.66378 120.60085,101.20476 120.72266,100.77481 C 120.92242,100.33772 121.65109,100.72711 121.69185,100.17552 C 121.87588,99.847304 122.67321,100.23319 122.26182,99.716716 C 121.77161,99.729419 121.27226,99.491112 120.86851,99.256386 C 120.51275,98.941343 120.09633,98.624002 119.60016,98.612049 C 119.44718,98.487829 119.29496,98.982526 119.11269,98.646823 C 118.56174,98.393078 119.31388,98.114154 119.55316,97.924049 C 119.91137,97.672801 119.99038,96.970379 120.48218,96.991357 C 120.90305,97.121756 121.24574,97.46525 121.69697,97.161198 C 122.05579,96.918978 122.52474,97.074602 122.89582,96.855715 C 123.27185,96.724664 123.56564,96.432135 124.00015,96.584048 C 124.26484,96.147212 124.95588,96.392535 125.16661,96.005731 C 125.16254,95.909003 125.30167,95.881595 125.35849,95.823387 z "
            id="Estarreja" />
        <path style="fill:#ffefd5;fill-rule:evenodd;stroke:#b22222;stroke-width:0.25400001;stroke-opacity:1"
            d="M 140.73248,98.032684 C 141.0385,97.681853 140.91824,97.192521 141.20662,96.801811 C 141.29505,96.234722 140.92823,95.765566 140.68695,95.287163 C 140.58779,94.882687 140.25842,94.024675 139.74484,94.429883 C 139.40624,94.740116 138.73483,95.207695 138.6477,94.441656 C 138.5088,94.006604 138.42469,93.520607 137.99812,93.258602 C 137.57745,92.950318 137.11001,92.722418 136.75148,92.333972 C 136.33705,91.871733 135.60983,92.067556 135.17603,91.70291 C 134.92594,91.355406 134.47237,91.4479 134.14514,91.287388 C 133.85113,91.050332 133.40758,90.805207 133.20683,91.278347 C 132.81086,91.430428 132.27964,92.043312 132.71084,92.389308 C 133.07306,92.664963 132.65284,93.507251 132.17208,93.16663 C 131.73046,92.895422 131.30357,93.619914 131.502,94.013581 C 131.76847,94.409865 131.26126,94.974265 131.67883,95.275364 C 132.17981,95.593046 132.03961,96.174648 132.05699,96.666061 C 132.14576,97.010705 132.93952,96.993959 132.49349,97.417014 C 132.70513,97.802465 132.31144,98.032302 132.04501,97.705677 C 131.68614,97.637367 130.89177,97.828853 130.8264,98.157694 C 131.15614,98.540729 131.52056,98.984327 132.08241,98.947515 C 132.5508,99.071054 133.06864,98.927694 132.83749,98.358681 C 132.84393,97.908862 133.33279,98.638852 133.55819,98.208543 C 134.14037,98.061822 134.27942,98.633658 134.71548,98.862093 C 134.96585,99.151372 135.39391,99.337613 135.73725,99.57544 C 136.00553,99.396687 136.33572,99.024274 136.76008,99.277431 C 137.13355,99.248317 137.456,99.680502 137.85893,99.453327 C 138.28805,99.56446 139.0154,99.440201 139.07709,100.03347 C 139.05249,100.4417 139.70541,100.84942 139.6773,100.22959 C 139.98592,99.953758 139.45628,99.373311 140.04295,99.386183 C 140.2514,99.366419 140.10561,99.018413 140.35216,98.901682 C 140.28908,98.500903 140.29538,98.19845 140.73248,98.032684 z "
            id="Vale_de_Cambra" />
        <path style="fill:#ffefd5;fill-rule:evenodd;stroke:#b22222;stroke-width:0.25400001;stroke-opacity:1"
            d="M 131.82349,105.78269 C 131.80944,105.28346 131.87887,104.79169 131.78037,104.29682 C 131.79919,103.80608 131.93815,103.32225 131.96571,102.82775 C 132.0187,102.25516 132.12944,101.71014 132.18549,101.14703 C 132.097,100.87566 132.37722,100.39639 131.87781,100.52756 C 131.61619,100.53647 131.87996,99.95253 132.03705,99.95697 C 132.28893,99.760588 132.65277,99.718967 132.73132,99.411978 C 132.8652,99.045964 132.86142,98.573753 132.85549,98.177354 C 133.0826,98.250024 133.3324,98.48388 133.55819,98.208549 C 134.13842,98.063247 134.28212,98.632082 134.71547,98.862099 C 134.95797,99.16779 135.39709,99.330387 135.73725,99.575446 C 136.0023,99.44068 136.25944,99.034668 136.67454,99.24677 C 137.08239,99.244097 137.42736,99.666766 137.85892,99.453332 C 138.28805,99.564463 139.01539,99.440209 139.07709,100.03347 C 138.98763,100.41282 139.64022,100.58756 139.53716,100.58569 C 139.50107,100.74961 138.96293,100.6865 139.28469,100.91707 C 139.69018,101.20058 138.91978,101.18021 138.75986,101.39592 C 138.38021,101.5882 138.11046,101.93202 137.68622,102.05018 C 137.34208,102.27147 136.91101,102.23074 136.51821,102.31859 C 136.21272,102.34269 136.0285,102.73153 136.36078,102.89944 C 136.69323,103.33771 136.42141,103.89285 136.5521,104.37857 C 136.54872,104.90625 137.23214,104.69694 137.29474,105.19365 C 137.39376,105.70804 138.20754,105.35166 138.02695,105.98033 C 138.08521,106.41447 138.02596,106.94489 138.43282,107.23136 C 138.30751,107.54353 138.34598,108.07989 138.2283,108.25045 C 137.69769,108.17651 137.70594,109.16849 137.11677,108.8795 C 136.94292,108.80297 136.61937,108.96151 136.47829,109.03327 C 136.51576,109.64861 135.87239,108.88159 135.54949,108.92088 C 135.12658,108.69806 134.5021,108.47447 134.5531,107.93547 C 134.24666,107.61103 133.77822,107.25543 134.00418,106.75309 C 133.9503,106.35774 134.21064,105.59671 133.65216,105.52902 C 133.34198,105.89605 132.83211,105.59134 132.48983,105.90824 C 132.23791,106.10436 132.04918,105.83944 131.82349,105.78269 z "
            id="Sever_do_Vouga" />
        <path style="fill:#ffefd5;fill-rule:evenodd;stroke:#b22222;stroke-width:0.25400001;stroke-opacity:1"
            d="M 128.5815,90.771385 C 128.68377,91.029049 128.72193,91.30833 128.74623,91.583058 C 128.76032,91.702318 128.7432,91.823893 128.70627,91.933077 C 128.67624,92.154427 128.55933,92.352808 128.43682,92.535388 C 128.29592,92.545276 128.15253,92.669742 128.01533,92.57927 C 127.92641,92.488372 127.78981,92.544565 127.67588,92.515504 C 127.43549,92.492927 127.27656,92.292561 127.10382,92.147722 C 126.97791,91.995267 126.83732,91.853666 126.72315,91.692193 C 126.76949,91.590074 126.94456,91.560828 127.00952,91.452744 C 127.21811,91.168905 127.35063,90.830503 127.60382,90.579722 C 127.64632,90.44423 127.83543,90.395263 127.84161,90.255928 C 127.85411,90.147853 127.91416,89.997105 128.04706,90.056899 C 128.26251,90.085007 128.41424,90.269281 128.48375,90.463298 C 128.52372,90.563486 128.55254,90.66764 128.5815,90.771385 z "
            id="São_João_da_Madeira" />
        <path style="fill:#ffefd5;fill-rule:evenodd;stroke:#b22222;stroke-width:0.25400001;stroke-opacity:1"
            d="M 129.79549,80.377686 C 130.25005,80.836013 130.78074,81.432935 131.15136,81.906402 C 130.75195,82.332345 131.22449,82.801755 131.70498,82.676089 C 131.97388,83.001945 132.42238,83.366392 132.56131,83.752964 C 131.94795,84.359707 133.84137,83.867736 133.05466,84.559356 C 132.84941,85.037975 132.42651,85.40818 132.0174,85.56975 C 132.02626,86.085516 131.68286,86.269627 131.23549,86.278808 C 131.33318,86.791483 130.56877,87.282476 131.16749,87.752978 C 131.12596,88.027431 130.85957,88.134276 131.01803,88.43602 C 130.91111,89.064548 129.44075,88.529288 129.74796,89.458286 C 129.95052,89.936883 129.52851,90.228952 129.22474,90.462628 C 129.14163,91.171723 128.40003,90.79917 128.38804,90.27773 C 127.85064,89.638638 127.65193,90.724789 127.27753,91.025563 C 127.05367,91.7354 126.30084,91.795778 125.69003,91.872021 C 125.29941,92.437799 124.73559,93.012306 124.07349,93.089356 C 123.4943,92.851809 123.12942,92.047888 123.18048,91.444436 C 123.43026,90.758995 122.94163,90.257577 122.53368,89.76956 C 122.48649,89.126893 122.08464,88.639426 121.89042,88.046934 C 121.59077,87.407414 122.36437,86.78998 122.00145,86.233273 C 121.51855,86.025143 121.09695,85.199066 121.83731,85.093302 C 122.13302,84.651951 122.2009,84.117066 122.11782,83.582685 C 122.62552,83.327187 123.25592,83.315654 123.7658,83.261726 C 124.21354,83.386585 124.67046,83.333617 124.59801,82.774341 C 124.69608,82.249214 125.15326,81.711172 125.65704,81.725593 C 126.07642,81.220739 125.98408,82.331269 126.34888,82.526618 C 126.58383,83.048295 127.07545,83.348348 127.40314,83.797993 C 127.87029,83.669114 128.648,83.344829 128.64456,82.771129 C 128.83084,82.394885 128.13165,82.07943 128.65449,81.808352 C 128.8817,81.405671 128.7006,81.00667 128.20182,81.084018 C 127.59152,80.801189 128.70344,80.661632 128.91549,80.703685 C 129.25856,81.083592 129.64629,80.749559 129.79549,80.377686 z "
            id="Santa_Maria_da_Feira" />
        <path style="fill:#ffefd5;fill-rule:evenodd;stroke:#b22222;stroke-width:0.25400001;stroke-opacity:1"
            d="M 124.32649,114.49268 C 124.53929,114.8693 124.99567,114.88262 125.35882,115.05402 C 125.72457,114.99252 125.98578,115.42911 126.3288,115.30273 C 126.72279,115.20095 126.82975,114.33927 127.26433,114.80057 C 127.59568,115.00562 127.53811,115.32481 127.25924,115.53779 C 127.01592,115.87537 127.53557,116.11711 127.73278,116.33736 C 128.00709,116.51156 128.22137,116.81354 128.54022,116.89297 C 129.01268,116.78864 129.2711,117.20994 129.1907,117.62936 C 129.13103,117.86889 129.16487,118.06634 129.43282,118.13236 C 129.3356,118.72583 128.57185,118.04681 128.31539,118.54968 C 127.81941,118.88942 127.16767,119.02876 126.80715,119.54469 C 126.49932,119.49013 126.06027,119.74646 125.85674,119.4559 C 125.50687,119.01501 125.16334,119.79414 124.91315,120.01536 C 124.6467,120.11048 124.09016,119.97537 124.3224,120.44824 C 124.36805,120.7573 123.93921,120.86605 123.80148,121.12003 C 123.46522,121.15228 123.19529,121.22474 123.04327,120.88022 C 122.92737,120.50153 122.79565,120.01212 122.26643,120.03552 C 121.97424,119.90689 121.62136,120.18831 121.46548,119.83436 C 121.15911,119.8429 120.94294,119.85284 120.8162,119.5649 C 120.4538,119.41759 120.82867,119.03291 120.49519,118.86053 C 120.36915,118.54075 120.75746,118.30519 120.73994,117.96749 C 121.15327,117.59459 120.86033,117.07934 120.7476,116.63016 C 120.56359,116.14221 121.14759,115.87415 121.39877,115.53628 C 121.6043,115.32576 121.79843,115.93762 121.77652,116.13323 C 121.79526,116.53042 122.18037,117.00259 122.58257,116.70741 C 122.82638,116.46631 123.07598,116.30446 123.40315,116.21303 C 123.50387,115.81461 123.71199,115.4442 123.68342,115.02627 C 123.72307,114.72311 123.94082,114.07976 124.32649,114.49268 z "
            id="Oliveira_do_Bairro" />
        <path style="fill:#ffefd5;fill-rule:evenodd;stroke:#b22222;stroke-width:0.25400001;stroke-opacity:1"
            d="M 133.38049,91.006683 C 132.59657,90.929848 132.78197,89.842157 132.22349,89.417367 C 131.77931,89.154846 131.37163,88.702835 130.82615,88.697579 C 130.44186,88.879467 129.70505,88.701633 129.71711,89.278165 C 129.83713,89.718017 129.81792,90.255461 129.23382,90.373014 C 129.24715,90.766941 128.90896,91.018982 128.58182,90.771348 C 128.79877,91.34375 128.83484,92.030941 128.43682,92.535018 C 127.94703,92.676645 127.36755,92.493608 127.03913,92.072453 C 126.87046,91.752013 126.51335,91.547911 126.27945,91.867367 C 126.19143,92.425113 125.89306,92.951359 125.97744,93.525716 C 125.97223,94.221482 124.84997,94.126664 124.83318,94.763061 C 124.98894,95.159528 125.52405,95.275545 125.35882,95.823348 C 125.71,95.729622 126.18032,95.947127 125.70134,96.231217 C 125.47823,96.47417 125.96437,96.879817 125.50693,97.064327 C 125.12224,97.231112 124.50121,97.478141 124.93638,97.999185 C 125.0712,98.45761 124.70795,99.300513 125.49892,99.238497 C 126.00578,99.310919 126.90668,99.769275 126.29917,100.33108 C 126.18731,100.71264 126.65596,101.06957 126.88606,101.28156 C 127.57739,101.30807 127.38873,100.52423 127.44012,100.1024 C 127.65085,99.53355 128.31128,99.946988 128.74039,99.784419 C 129.25948,99.6696 129.81143,100.02088 130.31734,99.627506 C 130.73971,99.43754 130.95949,99.723732 130.77282,100.11501 C 131.13757,100.38832 131.89592,100.7 131.91348,99.970013 C 132.39257,99.825603 132.90894,99.535015 132.80082,98.956013 C 132.23521,98.951218 131.52905,99.040849 131.15604,98.512454 C 130.85201,98.293632 130.63675,97.940129 131.15555,97.865644 C 131.58327,97.657619 132.00425,97.611935 132.38927,97.871768 C 132.67287,97.755856 132.41995,97.3322 132.63782,97.091013 C 131.92208,96.975934 132.05224,96.292914 132.04012,95.775948 C 131.86755,95.336116 131.27184,95.099422 131.57428,94.555894 C 131.49017,94.055322 131.31585,93.371145 131.87194,93.093435 C 132.24839,93.223486 132.77152,93.365725 132.81025,92.811849 C 132.87146,92.392141 132.21994,91.924023 132.85143,91.514711 C 133.03354,91.353304 133.3286,91.27634 133.38049,91.006683 z "
            id="Oliveira_de_Azeméis" />
        <path style="fill:#ffefd5;fill-rule:evenodd;stroke:#b22222;stroke-width:0.25400001;stroke-opacity:1"
            d="M 133.95949,129.8297 C 134.18886,129.37267 134.90189,129.56695 134.9241,128.98449 C 135.13727,128.5506 134.89264,128.17879 134.81007,127.75605 C 134.88218,127.34282 135.06677,126.99022 134.95751,126.55798 C 135.05599,126.15675 134.6947,125.74062 134.36081,125.65947 C 133.99233,125.81626 133.64245,126.01133 133.22826,125.90983 C 132.75924,125.88315 132.28217,125.88206 131.8131,125.96958 C 131.3581,126.19812 130.80976,126.26967 130.48725,125.79626 C 130.08773,125.56364 129.6732,126.34641 129.44128,125.65602 C 129.25356,125.33702 128.86414,125.2153 128.59418,125.03073 C 128.01918,125.09799 127.54895,124.7192 127.00616,124.65102 C 126.83259,124.99737 126.6841,125.62561 127.11953,125.78888 C 127.4801,125.75296 127.58469,126.28765 127.93947,126.40214 C 128.30553,126.69564 128.37952,127.19818 128.25549,127.58436 C 127.96398,127.95455 128.17717,128.45266 127.98314,128.89496 C 127.8409,129.33283 127.88561,129.69755 128.05615,130.12309 C 128.10757,130.5754 128.14406,131.05511 127.99727,131.49285 C 127.62147,131.59179 127.17212,131.65051 126.76696,131.67714 C 126.45996,131.67672 125.93043,131.08031 125.78105,131.44885 C 125.87649,131.96707 126.10752,132.48174 125.97415,133.01669 C 125.97282,133.37965 126.64183,133.1196 126.86115,133.34268 C 127.3892,133.42679 127.95185,132.84504 128.40049,133.37868 C 128.78144,133.27807 129.09026,133.36652 129.1181,133.80703 C 129.39371,134.1881 129.83756,133.899 129.884,133.52458 C 130.12604,133.20422 130.03858,132.82167 130.17884,132.46382 C 130.0805,132.11896 129.7926,131.50093 130.21539,131.30191 C 130.65034,131.23513 131.01301,130.76061 131.42539,131.07624 C 131.73016,130.84968 132.43566,131.14573 132.1569,130.56714 C 132.24218,130.2242 132.80841,129.83183 132.44872,129.493 C 132.1608,129.29275 132.28653,128.77919 132.61811,129.12372 C 133.05162,129.34913 133.50977,129.4878 133.88791,129.74423 L 133.92168,129.78429 L 133.95948,129.82969 L 133.95949,129.8297 z "
            id="Mealhada" />
        <path style="fill:#ffefd5;fill-rule:evenodd;stroke:#b22222;stroke-width:0.25400001;stroke-opacity:1"
            d="M 119.51249,86.477982 C 119.6315,85.710773 119.75684,84.944373 119.8719,84.176659 C 119.89876,83.904435 119.92563,83.63221 119.95249,83.359985 C 120.0886,83.283318 120.22471,83.20665 120.36082,83.129982 C 120.58763,83.068157 120.70039,82.784608 120.96416,82.792734 C 121.12978,82.766295 121.29762,82.754749 121.46516,82.749985 C 121.59926,82.68713 121.71584,82.516167 121.87484,82.56611 C 122.13854,82.668328 122.22691,82.976781 122.27685,83.22895 C 122.34287,83.397179 122.27099,83.511821 122.11716,83.582652 C 122.11352,83.960328 122.22979,84.37063 122.0242,84.716704 C 121.88048,84.831328 121.94132,85.04128 121.77974,85.145115 C 121.63904,85.257281 121.42918,85.166116 121.41243,85.380141 C 121.38164,85.600473 121.53814,85.785643 121.62816,85.972988 C 121.48442,86.216968 121.22452,86.383455 120.93995,86.397021 C 120.73566,86.420979 120.57099,86.423796 120.37473,86.407255 C 120.16916,86.424972 119.97489,86.547397 119.76587,86.50373 C 119.68141,86.495145 119.59694,86.486578 119.51249,86.477982 z "
            id="Espinho" />
        <path style="fill:#ffefd5;fill-rule:evenodd;stroke:#b22222;stroke-width:0.25400001;stroke-opacity:1"
            d="M 133.54349,84.053383 C 133.96307,84.034831 134.44721,83.939204 134.84607,84.115635 C 134.88447,84.309806 135.32671,84.307304 134.93782,84.441052 C 134.76716,84.541383 134.58496,85.09277 134.84852,84.970212 C 134.95286,84.917966 135.17231,85.204221 135.13716,84.886385 C 135.41946,84.707707 135.70093,85.068943 135.81015,85.275002 C 135.62862,85.430149 135.68803,85.58751 135.89228,85.5643 C 136.17941,85.710515 136.50244,85.295154 136.83916,85.574718 C 136.80492,85.702098 136.36542,85.856551 136.67108,86.039402 C 136.71537,86.462831 136.91148,86.830372 137.37337,86.876786 C 137.83671,86.76096 138.29212,86.879747 138.74618,86.813897 C 139.16844,86.729736 139.60387,86.654089 139.9521,86.509741 C 140.28153,86.586921 140.61964,86.597494 140.91403,86.767639 C 141.17814,86.718038 140.71935,86.230996 140.91349,85.998801 C 140.94791,85.614348 140.86675,85.219683 140.92549,84.826465 C 140.89752,84.520996 140.91272,84.332721 141.24068,84.283196 C 141.39133,84.139798 141.24831,83.910382 141.42137,83.724912 C 141.46796,83.431718 141.49677,83.13556 141.16682,83.003384 C 141.3223,82.767722 140.8908,82.421762 141.30567,82.43589 C 141.61967,82.389981 141.30238,81.977444 141.53065,81.794104 C 141.57529,81.414817 141.63558,80.906479 141.18091,80.813961 C 141.11899,80.410189 140.96944,79.973639 140.46592,80.125374 C 140.11419,80.198834 140.15254,79.618528 139.84433,79.904945 C 139.40176,80.185206 139.03798,79.687361 138.88948,79.315279 C 138.7218,78.79319 138.19332,78.958943 138.11042,79.435442 C 137.90841,79.866545 137.66671,80.435839 137.11441,80.465276 C 136.64376,80.476539 136.26895,80.752194 136.05405,81.166311 C 135.85295,81.489237 135.49851,81.9068 135.07322,81.698436 C 134.71555,81.49632 134.4377,80.890664 133.95479,81.075795 C 133.58763,81.188155 132.9856,80.784108 132.7733,80.98892 C 132.76168,81.376474 132.57707,81.801942 132.75048,82.174435 C 132.92748,82.559583 133.55626,82.47542 133.49843,83.028347 C 133.45663,83.373866 133.47596,83.704914 133.54349,84.053383 z "
            id="Castelo_de_Paiva" />
        <path style="fill:#ffefd5;fill-rule:evenodd;stroke:#b22222;stroke-width:0.25400001;stroke-opacity:1"
            d="M 130.95349,88.688988 C 130.92204,88.26782 131.12645,88.034918 131.13004,87.67032 C 130.59941,87.239218 131.32238,86.659307 131.30481,86.242546 C 132.12986,86.408504 131.77588,85.2884 132.52919,85.305904 C 132.98894,84.817008 133.18811,83.947168 133.99566,84.002885 C 134.58621,83.938411 135.52544,84.239743 134.7277,84.738901 C 134.64451,85.138733 135.13969,85.026503 135.25591,84.873278 C 135.58387,84.763208 135.94858,85.294661 135.71582,85.556318 C 136.01968,85.761558 136.66769,85.21452 136.82049,85.683318 C 136.25554,85.944136 137.02202,87.179079 137.70883,86.839117 C 138.5788,86.972387 139.4215,86.539487 140.21016,86.561317 C 140.79417,86.71604 141.17432,86.906167 140.8766,86.162815 C 141.0756,85.613618 140.63994,84.617643 141.14774,84.334568 C 141.47135,84.135886 141.25253,83.216179 141.89685,83.630198 C 142.90006,83.354078 143.06752,84.467111 143.74061,84.881067 C 144.41489,85.404224 145.24797,85.564547 145.95449,86.005416 C 146.82488,86.624787 147.20464,85.25799 147.5603,84.698679 C 147.78679,84.223764 148.56514,83.960339 148.51783,83.292984 C 149.05472,83.384007 149.18728,83.882361 148.83342,84.260723 C 148.74534,84.797401 149.15811,85.24883 148.53512,85.590942 C 148.20715,85.785766 148.64121,86.475098 148.08316,86.190318 C 147.55507,86.713218 147.3731,87.56744 146.61649,87.892322 C 146.71028,88.545763 147.00311,89.224652 147.22438,89.834016 C 147.21585,90.587353 146.55647,91.415518 147.44766,91.819176 C 147.46981,92.554013 148.05522,93.127957 148.15582,93.795321 C 148.10296,94.184915 148.24765,94.586086 147.68036,94.422941 C 146.99139,94.744516 146.27334,95.02784 145.66501,94.366307 C 145.17039,94.108031 144.56224,93.274368 144.2683,94.172754 C 143.9687,94.87389 142.99256,95.171777 142.48205,94.533352 C 142.0231,94.169761 141.34503,93.482191 140.78745,94.048821 C 140.16277,94.308751 139.55604,94.504277 138.97516,94.881654 C 138.42165,94.482672 138.58089,93.350256 137.73488,93.069987 C 137.06697,92.781926 136.6665,91.99625 135.88277,91.964278 C 135.21284,91.867745 134.84459,91.366265 134.19482,91.260321 C 133.75425,90.91013 132.83615,91.156485 132.71447,90.332855 C 132.56044,89.458134 131.71112,88.978547 130.95349,88.688984 L 130.95349,88.688988 z "
            id="Arouca" />
        <path style="fill:#ffefd5;fill-rule:evenodd;stroke:#b22222;stroke-width:0.25400001;stroke-opacity:1"
            d="M 123.22249,121.15569 C 123.7118,121.24164 124.12797,120.9118 124.33138,120.53108 C 124.02486,119.81259 125.0304,120.28342 125.1736,119.69806 C 125.35569,119.38256 125.78225,119.1185 125.95649,119.58736 C 126.55326,119.68955 126.94044,119.42987 127.35938,119.06373 C 127.77001,118.82592 128.2406,118.67363 128.58216,118.33069 C 129.10302,118.354 129.58635,118.49062 130.08883,118.60832 C 130.6331,118.63741 131.16613,118.23868 131.72221,118.43585 C 132.33521,118.43228 132.89548,118.88812 133.51399,118.68472 C 133.97484,118.6097 134.31935,118.12623 134.78949,118.06365 C 135.30916,118.10695 136.07118,117.77717 136.29243,118.45183 C 136.39661,118.86915 137.53444,119.03049 136.73279,119.30794 C 136.24292,119.41381 135.80739,119.77184 135.97835,120.32162 C 135.94873,120.85333 136.47243,121.17047 136.72646,121.59622 C 137.09811,121.97451 136.60729,122.56197 136.87688,122.974 C 136.65795,123.16143 136.31606,123.01832 136.12367,123.34755 C 135.97738,123.68047 135.25024,124.03536 135.69849,124.39669 C 135.85304,125.12105 134.66258,124.99494 135.07476,125.72418 C 135.16616,126.36397 134.6604,125.94535 134.48516,125.64636 C 133.85294,125.96104 133.18364,125.93118 132.48843,125.89486 C 131.91074,125.8137 131.3317,126.33611 130.80806,126.07617 C 130.55716,125.65917 130.07091,125.7032 129.7767,125.98284 C 129.39709,125.64122 129.08011,125.20419 128.59485,125.03006 C 128.01985,125.09731 127.54962,124.71852 127.00683,124.65036 C 127.12311,123.86208 126.02114,124.45864 125.70899,124.71414 C 125.2155,124.84072 124.95139,125.49086 124.36985,125.48627 C 123.82868,125.63719 123.02445,125.70287 123.15373,124.89436 C 123.09084,124.28424 122.93628,123.68584 123.09852,123.09084 C 122.97765,122.61975 123.62955,122.3435 123.40349,121.82569 C 123.40944,121.57183 123.21367,121.37276 123.22249,121.15569 z "
            id="Anadia" />
        <path style="fill:#ffefd5;fill-rule:evenodd;stroke:#b22222;stroke-width:0.25400001;stroke-opacity:1"
            d="M 121.33849,102.84969 C 121.83576,102.764 121.82726,103.3359 122.01404,103.63297 C 121.58255,103.91986 121.82523,104.38484 122.31008,104.19219 C 122.86463,104.26789 123.25618,104.84575 123.80858,104.96693 C 123.98292,105.32503 123.95407,105.91008 124.59938,105.72985 C 125.12183,105.68487 125.80872,105.59157 125.96249,105.00028 C 126.13486,104.4845 127.18817,104.13344 126.65809,103.57954 C 126.68807,103.27599 126.46112,102.97221 126.10083,102.83136 C 125.92661,102.33533 126.21068,101.86707 125.81803,101.42564 C 125.46576,101.04546 126.21715,100.00247 126.37712,100.76662 C 126.61138,101.06578 126.96617,101.56652 127.34768,101.06207 C 127.49847,100.61275 127.22832,99.612107 128.05269,99.806588 C 128.6117,99.822228 129.12832,99.687875 129.64597,99.833104 C 130.03106,99.81051 131.01335,99.209098 130.78379,99.991789 C 130.95982,100.52597 131.90228,100.372 132.20386,100.63677 C 132.16201,101.1262 132.14944,101.63724 132.05356,102.13883 C 131.97643,102.80028 131.89235,103.44249 131.79652,104.09643 C 131.80307,104.61864 131.85436,105.16074 131.82283,105.6963 C 131.55116,105.77179 131.00963,106.02154 130.60184,106.05412 C 130.13387,106.36546 129.62686,106.71027 129.0402,106.52977 C 128.47987,106.82103 128.80528,107.72582 128.48813,108.22408 C 128.22995,108.7185 128.51727,109.22305 128.61338,109.7166 C 128.58269,110.31751 128.19976,110.81652 127.71361,111.15812 C 127.52345,111.45407 127.31227,111.69678 127.0259,111.32611 C 126.45533,111.33816 125.71466,111.36736 125.62809,110.59999 C 125.35926,109.96438 124.43993,109.78521 124.56616,108.95194 C 124.30517,108.56442 124.006,108.2051 124.29209,107.6968 C 124.67575,106.97511 123.70232,106.85616 123.33234,106.45 C 123.12458,105.98895 122.89197,105.53549 122.36929,105.4316 C 121.98283,104.81308 121.41223,104.40896 120.79515,104.11701 C 120.56565,103.79525 120.45539,103.35337 120.9505,103.28386 C 121.09578,103.16237 121.27944,103.03739 121.33849,102.84969 z "
            id="Albergaria-a-Velha" />
        <path style="fill:#ffefd5;fill-rule:evenodd;stroke:#b22222;stroke-width:0.25400001;stroke-opacity:1"
            d="M 126.22749,111.34169 C 126.85691,111.04869 127.47825,111.90006 127.81043,111.07326 C 128.58915,110.60851 128.68893,109.68939 128.43755,108.89034 C 128.47172,108.12443 128.57559,107.33036 128.91628,106.64135 C 129.62794,106.5341 130.32177,106.27651 131.0245,105.93239 C 131.5901,105.47641 132.25269,106.20985 132.77321,105.77847 C 133.24664,105.71272 134.22867,105.28297 133.99193,106.20446 C 133.75462,107.11476 134.38329,107.7728 134.75419,108.45304 C 135.24462,108.77669 135.92721,109.17375 136.4407,109.21825 C 136.65813,108.5525 137.77452,109.20826 137.89358,108.35456 C 138.56136,108.06525 137.83435,108.8871 138.11874,109.21066 C 138.09902,109.78345 138.62818,109.87647 138.99588,109.76518 C 139.49569,110.12928 140.61025,110.36854 140.57849,111.02551 C 140.09358,111.2496 139.37981,111.46315 139.03592,111.63927 C 138.56349,111.43512 138.01114,111.9398 137.62592,111.99159 C 137.25463,112.67275 137.82292,113.32901 138.19036,113.85564 C 138.47081,114.51837 138.38729,115.25242 138.58007,115.93803 C 138.76098,116.46698 139.49919,116.02654 139.58001,116.72669 C 139.72733,117.25126 140.20741,117.67368 140.44566,118.05513 C 139.90252,118.2021 139.51472,118.82372 139.04861,118.17501 C 138.30101,118.09687 137.82528,119.12081 137.0185,119.01101 C 136.28827,118.80261 136.08046,117.67121 135.1493,118.01142 C 134.30358,118.04041 133.67185,118.96838 132.77877,118.67763 C 131.99492,118.38963 131.17354,118.31407 130.36699,118.56367 C 129.94482,118.61129 129.15456,118.628 129.35863,118.09994 C 128.99744,117.69691 129.38721,116.86666 128.54975,116.84296 C 127.98899,116.64314 126.9968,116.06814 127.3498,115.36676 C 127.92685,114.9474 126.64153,114.31465 126.59833,115.09619 C 125.91628,115.53743 125.00052,114.90137 124.4265,114.57319 C 124.82332,114.06782 125.36916,113.60275 125.93841,113.28832 C 126.48369,112.88557 125.95036,112.31584 126.21746,111.77456 C 126.21915,111.63026 126.21501,111.48567 126.22749,111.34169 z "
            id="Águeda" />
        <path style="fill:#ffefd5;fill-rule:evenodd;stroke:#b22222;stroke-width:0.25400001;stroke-opacity:1"
            d="M 117.29749,96.980988 C 117.06448,98.075782 116.76806,99.155978 116.4908,100.24001 C 116.28558,100.87268 116.04649,101.49542 115.86351,102.13461 C 115.6715,102.90951 115.4795,103.68442 115.28749,104.45932 C 115.44957,104.56138 115.57246,104.75411 115.77851,104.75084 C 116.0726,104.85428 116.44727,105.04111 116.56808,104.61964 C 116.92105,104.10708 117.40211,103.53999 118.07949,103.53733 C 118.45938,103.40384 118.84629,103.28504 119.23849,103.19333 C 119.55709,102.98615 119.9587,103.16629 120.27694,103.29253 C 120.62547,103.65107 121.05022,103.24915 121.29065,102.95651 C 121.29333,102.71465 121.28218,102.36039 121.14791,102.12997 C 120.70892,102.0068 120.49079,101.50209 120.64595,101.0832 C 120.62379,100.67742 121.02108,100.45214 121.38141,100.51553 C 121.71278,100.4752 121.68102,99.874829 122.15383,100.00632 C 122.60562,100.16379 122.27718,99.538747 121.97302,99.721619 C 121.66796,99.628941 121.3783,99.489606 121.07131,99.393297 C 120.79565,99.251026 120.57652,98.954306 120.27652,98.81522 C 120.02047,98.714927 119.56748,98.434935 119.41041,98.70432 C 119.16003,98.878039 118.93522,98.409998 118.67571,98.363376 C 118.49122,98.031753 118.8312,97.737941 118.76895,97.39544 C 118.83207,97.12208 119.07395,96.688271 118.58948,96.711768 C 118.42429,96.876838 118.30692,97.399687 117.93154,97.107819 C 117.71529,97.085297 117.50713,97.038597 117.29749,96.980988 z "
            id="Murtosa" />
        <path style="fill:#ffefd5;fill-rule:evenodd;stroke:#b22222;stroke-width:0.25400001;stroke-opacity:1"
            d="M 126.28249,91.803688 C 125.5934,91.602637 125.45758,92.36134 124.99955,92.645317 C 124.62789,92.920847 124.18009,93.261266 123.76923,92.935106 C 123.43012,92.469247 123.04457,91.916641 123.18616,91.314682 C 123.36396,90.774374 123.03814,90.299785 122.64242,89.938506 C 122.37079,89.431211 122.38577,88.830852 122.00916,88.363348 C 121.74892,87.870745 121.8228,87.261085 122.07435,86.782565 C 122.28311,86.414148 121.87111,85.926643 121.47187,85.977162 C 121.15341,86.001323 120.82051,85.962527 120.51126,86.026881 C 120.17856,86.177261 119.84586,86.32764 119.51316,86.47802 C 119.30444,87.618646 119.05539,88.75281 118.93339,89.907275 C 118.85733,90.499052 118.79869,91.094237 118.61552,91.665066 C 118.18986,93.331726 117.71337,94.986108 117.36646,96.671788 C 117.29007,96.878436 117.2639,97.054092 117.54144,97.042305 C 117.96463,97.152941 118.45869,97.308795 118.5325,96.710679 C 119.2335,96.678305 118.66258,97.466463 118.69585,97.83527 C 118.436,98.173801 118.81157,98.710662 119.08575,98.228437 C 119.60845,98.009722 119.86307,97.511098 120.18469,97.08466 C 120.63192,96.698197 121.07081,97.579948 121.55925,97.206886 C 121.99863,96.953091 122.51949,97.043215 122.97667,96.846313 C 123.30229,96.553206 123.69699,96.575746 124.06565,96.523036 C 124.46065,96.134058 125.12537,96.354817 125.35917,95.823346 C 125.61227,95.19255 124.67079,95.101373 124.86446,94.550735 C 125.2836,94.13606 126.18275,93.983282 125.97484,93.198013 C 125.96846,92.72464 126.25878,92.28232 126.28249,91.803688 z "
            id="Ovar" />
        <path
            style="fill:#ffefd5;fill-opacity:1;fill-rule:evenodd;stroke:#b22222;stroke-width:0.25446281;stroke-opacity:1;display:inline"
            d="M 113.32246,113.20589 C 113.17093,114.09537 112.94246,114.97761 112.7663,115.8654 C 112.64094,116.45083 112.51462,117.03605 112.38325,117.62016 C 112.9308,117.87438 113.40507,118.24404 113.82564,118.6744 C 114.55179,119.23881 114.99345,120.07945 115.66843,120.69293 C 116.28387,121.19275 116.85836,121.76819 117.23583,122.47274 C 117.59956,122.60649 117.13484,123.23102 117.5802,123.25541 C 118.20047,123.57416 118.82857,123.9095 119.52123,124.03809 C 119.96145,124.16155 120.32309,123.604 120.24129,123.1928 C 120.14594,122.6591 120.0855,122.08171 120.2726,121.56484 C 120.25977,121.00834 120.70569,120.5175 120.83613,120.0308 C 121.1783,119.73246 120.49789,119.44782 120.64828,119.1229 C 120.30984,118.79003 120.59896,118.34964 120.77351,117.99585 C 121.19118,117.49826 120.73044,116.91935 120.7109,116.36789 C 120.81116,115.88249 121.55431,115.73144 121.473,115.22489 C 121.31936,114.77332 121.70208,114.35728 121.58749,113.95725 C 121.29969,113.52805 120.76925,113.74198 120.41045,113.95908 C 120.0196,114.26702 119.4993,114.01182 119.14555,114.14509 C 117.30418,113.93029 116.46904,114.38834 116.45592,114.99215 C 116.29978,115.33668 116.18881,115.97016 115.75465,115.98501 C 115.34517,115.76329 115.35664,115.21259 115.2657,114.80606 C 115.16209,114.45137 115.64163,113.22809 115.0958,113.39733 C 114.35085,113.38168 115.08557,113.29526 114.34104,113.39467 C 113.97182,113.45217 113.65963,113.25335 113.32246,113.20589 z "
            id="Vagos" sodipodi:nodetypes="csccccccscccccccccccscsc" />
        <path
            style="fill:#ffefd5;fill-opacity:1;fill-rule:evenodd;stroke:#b22222;stroke-width:0.25446281;stroke-opacity:1;display:inline"
            d="M 114.78121,110.68437 C 114.48758,110.92897 114.10204,111.06497 113.83746,111.303 C 113.63564,111.72166 113.6369,112.20395 113.48992,112.64228 C 113.27853,112.9748 113.44631,113.35349 113.85499,113.36113 C 114.16998,113.41334 114.48758,113.40655 114.80161,113.35597 C 115.10594,113.47198 115.5131,113.46617 115.50962,113.04862 C 115.59366,112.65375 115.67934,112.24759 115.62166,111.84366 C 115.60784,111.26102 115.84364,110.64878 115.5679,110.09268 C 115.30885,110.07322 115.1684,110.46026 114.94243,110.58354 C 114.89229,110.62246 114.83913,110.65794 114.78121,110.68437 z M 117.6735,110.48088 C 117.62266,111.80515 117.15665,113.0629 116.83835,114.33696 C 117.12026,114.37978 117.40744,114.20253 117.69086,114.15795 C 118.02621,114.12596 118.3665,114.06597 118.71096,114.06423 C 119.09158,114.04464 119.48198,114.0814 119.84701,114.15944 C 120.213,114.03792 120.59585,113.89757 120.92059,113.70095 C 121.12669,113.39874 121.2874,112.86759 120.80975,112.75755 C 120.33906,112.45822 119.90214,112.10301 119.51689,111.69893 C 118.89347,111.43629 118.29528,111.08757 117.79434,110.63007 C 117.74975,110.58415 117.7068,110.53582 117.6735,110.48088 z "
            id="Ílhavo" />
        <path
            style="fill:#ffefd5;fill-opacity:1;fill-rule:evenodd;stroke:#b22222;stroke-width:0.25446281;stroke-opacity:1;display:inline"
            d="M 119.39601,103.12505 C 118.82033,103.32894 118.22348,103.44031 117.64547,103.61835 C 117.074,103.9016 116.70983,104.44655 116.29662,104.90955 C 115.94536,104.92828 115.42169,104.50713 115.27684,104.56708 C 115.0723,105.62618 114.95417,106.71001 114.51958,107.70887 C 114.34273,108.3031 114.2692,109.25333 114.17041,109.86236 C 114.45783,109.3413 115.37242,109.21748 115.69906,108.77295 C 116.55596,107.81826 116.42394,106.49274 117.10152,105.38068 C 117.70472,105.06454 117.65087,106.23687 117.74555,106.60687 C 117.92459,107.90025 117.70933,109.06551 117.6735,110.37065 C 118.02774,111.05028 119.77068,111.74705 120.23234,112.3552 C 120.72266,112.64767 121.4957,112.96849 120.99266,113.64418 C 121.62443,113.68745 121.74491,114.3672 121.4469,114.89603 C 121.50973,115.47875 121.76502,116.12052 122.02923,116.66204 C 122.51644,116.98717 123.09095,116.34003 123.46591,116.02351 C 123.75859,115.5199 123.54822,114.83874 123.96682,114.39555 C 124.84627,114.66154 125.03552,113.64412 125.70357,113.41811 C 126.50117,113.18799 125.97701,112.37871 126.21301,111.80366 C 126.29439,111.21495 125.58557,110.95408 125.50086,110.35695 C 125.11183,109.93061 124.48838,109.68258 124.54263,108.95995 C 124.1827,108.51675 124.06682,108.05194 124.35884,107.51699 C 124.47567,106.95922 123.67511,106.88438 123.4204,106.49313 C 123.08048,105.97325 122.76438,105.53336 122.1936,105.22792 C 121.82092,104.52941 120.86753,104.41695 120.58312,103.67256 C 120.5269,103.2118 119.79894,103.07627 119.39601,103.12505 z "
            id="Aveiro" sodipodi:nodetypes="cccccccccccccccccccccsccc" />
    </g>
    <!-- EO MUNICIPIOS -->
</svg>