<?xml version="1.0" encoding="UTF-8" standalone="no"?>
<!-- Creator: CorelDRAW -->
<svg xmlns:dc="http://purl.org/dc/elements/1.1/" xmlns:cc="http://web.resource.org/cc/"
    xmlns:rdf="http://www.w3.org/1999/02/22-rdf-syntax-ns#" xmlns:svg="http://www.w3.org/2000/svg"
    xmlns="http://www.w3.org/2000/svg" xmlns:sodipodi="http://inkscape.sourceforge.net/DTD/sodipodi-0.dtd"
    xmlns:inkscape="http://www.inkscape.org/namespaces/inkscape" xml:space="preserve" width="250" height="366"
    style="shape-rendering:geometricPrecision; text-rendering:geometricPrecision; image-rendering:optimizeQuality; fill-rule:evenodd; clip-rule:evenodd"
    viewBox="0 0 200 200" id="svg1627" sodipodi:version="0.32" inkscape:version="0.43"
    sodipodi:docname="Mapa_de_Portugal.svg" sodipodi:docbase="C:\Documents and Settings\Márcio Silva\Os meus documentos"
    version="1.0">
    <metadata id="metadata1927">
        <rdf:RDF>
            <cc:Work rdf:about="">
                <dc:format>image/svg+xml</dc:format>
                <dc:type rdf:resource="http://purl.org/dc/dcmitype/StillImage" />
                <dc:title>Munícipios de Portugal</dc:title>
                <cc:license rdf:resource="http://creativecommons.org/licenses/GPL/2.0/" />
                <dc:creator>
                    <cc:Agent>
                        <dc:title>Rei-artur (rei.artur@gmail.com)</dc:title>
                    </cc:Agent>
                </dc:creator>
            </cc:Work>
            <cc:License rdf:about="http://creativecommons.org/licenses/GPL/2.0/">
                <cc:permits rdf:resource="http://web.resource.org/cc/Reproduction" />
                <cc:permits rdf:resource="http://web.resource.org/cc/Distribution" />
                <cc:requires rdf:resource="http://web.resource.org/cc/Notice" />
                <cc:permits rdf:resource="http://web.resource.org/cc/DerivativeWorks" />
                <cc:requires rdf:resource="http://web.resource.org/cc/ShareAlike" />
                <cc:requires rdf:resource="http://web.resource.org/cc/SourceCode" />
            </cc:License>
        </rdf:RDF>
    </metadata>

    <sodipodi:namedview inkscape:window-height="582" inkscape:window-width="866" inkscape:pageshadow="2"
        inkscape:pageopacity="0.0" borderopacity="1.0" bordercolor="#666666" pagecolor="#ffffff" id="base"
        fill="#ffff00" inkscape:zoom="1.1338798" inkscape:cx="125" inkscape:cy="211.12313" inkscape:window-x="28"
        inkscape:window-y="117" inkscape:current-layer="layer7" showguides="true" inkscape:guide-bbox="true">
        <sodipodi:guide orientation="horizontal" position="329.9602" id="guide2648" />
        <sodipodi:guide orientation="horizontal" position="307.74672" id="guide2650" />
    </sodipodi:namedview>

    <defs id="defs1629">
        <metadata id="CorelCorpID_0Corel-Layer" />
        <sodipodi:namedview inkscape:guide-bbox="true" showguides="true" inkscape:current-layer="layer1"
            inkscape:window-y="-4" inkscape:window-x="-4" inkscape:cy="327.60442" inkscape:cx="146.08303"
            inkscape:zoom="17.548964" fill="#fa8072" id="namedview5974" pagecolor="#ffffff" bordercolor="#666666"
            borderopacity="1.0" inkscape:pageopacity="0.0" inkscape:pageshadow="2" inkscape:window-width="1024"
            inkscape:window-height="712" />
    </defs>

    <!-- <g inkscape:groupmode="layer" id="layer3" inkscape:label="fundo" style="display:inline" sodipodi:insensitive="true">
        <rect style="fill:#4169e1;fill-opacity:1;fill-rule:evenodd;stroke:none;display:inline" id="rect2247" width="200" height="200" />
    </g> -->

    <g inkscape:groupmode="layer" id="layer10" inkscape:label="----detalhes----" style="display:inline" />

    <!-- MUNICIPIOS -->
    <g inkscape:groupmode="layer" id="layer4" inkscape:label="Municipios" style="display:inline"
        sodipodi:insensitive="true" transform="translate(-188,-440) scale(1.8)">
        <path style="fill:#ffefd5;fill-rule:evenodd;stroke:#b22222;stroke-width:0.25400001;stroke-opacity:1"
            d="M 146.29149,276.0477 C 147.11188,275.80129 146.94033,274.78778 146.99969,274.12258 C 147.09659,273.53812 146.8494,272.97047 146.63739,272.45742 C 146.51558,271.91268 146.5508,271.30543 146.1972,270.84137 C 145.82949,270.30681 145.33452,269.78936 145.27749,269.11269 C 145.31629,268.44945 146.11676,268.34923 146.24762,269.03414 C 146.27146,269.69681 147.01122,270.00698 147.51938,269.58091 C 147.91728,269.21144 148.37629,268.46563 148.9505,269.00947 C 149.4851,269.2059 150.02445,269.59764 150.53403,269.0881 C 151.00015,268.82079 151.51846,269.17923 151.89976,269.34749 C 152.13472,269.79424 152.51885,270.00309 152.95176,270.03707 C 153.48558,270.63232 154.3025,270.0835 154.78744,269.71432 C 155.31835,268.98839 156.00016,269.9173 156.63162,270.03363 C 156.91825,270.30893 158.22479,270.54393 157.42748,270.99568 C 156.89097,271.37673 157.82432,272.19984 157.24896,272.67942 C 157.27629,273.29894 156.62844,273.45114 156.21415,273.80235 C 156.43581,274.33414 157.12103,274.63116 156.97088,275.32246 C 156.87732,276.02681 158.10709,276.28744 157.59965,276.91548 C 158.05463,277.46668 157.16109,277.80434 156.9525,278.27565 C 156.82953,278.74723 156.42191,278.70584 156.23248,278.29302 C 155.66492,278.31727 155.54728,279.1102 154.90537,279.12124 C 154.39022,279.13064 153.97305,280.27235 153.60682,279.56802 C 152.98141,279.12078 152.92311,280.45196 152.32115,279.99534 C 152.06351,280.59333 151.22797,280.00937 150.80895,280.45232 C 150.25641,280.6821 149.66945,280.9262 149.0604,280.81318 C 148.32964,280.85069 148.61174,279.81512 148.48498,279.32239 C 148.49555,278.7461 148.28771,278.19053 148.19357,277.6532 C 148.26895,277.22374 147.98637,276.38694 147.57375,277.05683 C 147.03546,277.50958 146.76316,276.49759 146.41579,276.21159 L 146.35563,276.13225 L 146.29148,276.04766 L 146.29149,276.0477 z "
            id="Alvito" />
        <path style="fill:#ffefd5;fill-rule:evenodd;stroke:#b22222;stroke-width:0.25400001;stroke-opacity:1"
            d="M 138.01549,290.98169 C 138.72894,290.83323 139.46439,291.04123 139.91694,291.67826 C 140.41702,292.17214 141.16746,291.99018 141.77011,292.27141 C 142.3448,292.48216 142.94361,292.66116 143.54721,292.71962 C 144.25362,292.90524 144.9216,293.24345 145.65606,293.11346 C 146.18343,293.34097 146.79758,294.28698 147.26993,293.51935 C 147.59854,292.85899 148.23585,293.82469 148.37605,293.61132 C 148.01692,293.29835 148.38803,292.78052 147.83698,292.83862 C 148.30917,292.60776 147.57059,292.4185 148.11729,292.29898 C 148.85965,292.25833 148.8974,290.65471 149.7665,291.38924 C 150.38892,291.03084 151.54107,291.60227 151.15277,292.38045 C 151.1236,293.11822 151.64184,293.86666 151.41701,294.68235 C 151.5615,295.65913 150.53337,295.7523 150.27017,296.47944 C 149.95524,297.02973 151.64356,297.39102 150.50121,297.7757 C 149.88317,298.08524 149.52149,299.01384 150.05546,299.57108 C 150.24907,300.40648 151.42285,301.09842 150.58128,301.88362 C 150.2924,302.6308 151.30005,303.05575 151.37883,303.75169 C 150.69708,303.99286 149.93836,304.17058 149.44323,304.73237 C 148.97663,305.30077 148.27074,305.57628 147.68483,305.99701 C 147.14344,305.89823 146.4961,306.84991 146.47861,305.90381 C 145.92626,305.60553 145.48577,304.42339 144.80416,304.91444 C 144.18825,305.03947 144.32947,305.37801 144.57475,305.82702 C 144.23467,306.36177 143.97754,305.04127 143.43624,305.0273 C 142.87232,304.46253 142.51085,305.37813 141.93517,304.83965 C 141.58572,305.11882 141.27309,304.86468 140.89449,304.72935 C 141.11301,305.47806 139.7905,305.93612 139.48874,305.2351 C 139.18135,304.68967 139.08908,305.5157 138.62229,305.3619 C 138.51136,305.54254 138.34217,306.07582 138.12389,305.69529 C 138.10034,304.93242 137.1645,305.33071 136.78517,304.71864 C 136.16877,304.28237 136.67485,303.54798 136.21805,302.9764 C 135.937,302.29686 136.00403,301.62954 135.92265,300.91769 C 135.51895,299.97929 136.91448,299.71971 137.13911,298.99703 C 137.20559,298.24238 137.00982,297.48834 137.1365,296.76268 C 137.31405,295.79582 138.10244,294.99763 138.09171,293.98514 C 137.78975,293.25978 138.05128,292.44201 138.05644,291.67827 C 138.05384,291.44881 138.09198,291.20293 138.01549,290.98169 z "
            id="Aljustrel" />
        <path style="fill:#ffefd5;fill-rule:evenodd;stroke:#b22222;stroke-width:0.25400001;stroke-opacity:1"
            d="M 160.14349,330.27969 C 159.53719,329.83772 159.88312,328.96223 159.02082,328.74068 C 158.76327,328.18287 158.13483,327.61568 159.07571,327.32291 C 159.74001,327.17573 159.61566,326.27028 159.04163,326.40549 C 158.85847,325.73429 158.45216,326.00676 158.09356,326.04755 C 158.01076,325.43211 158.59996,324.52175 159.16143,325.10515 C 159.80515,324.94974 158.36675,324.29409 159.43749,324.39468 C 158.9564,323.84418 158.04559,323.56684 158.16982,322.62734 C 157.75001,322.15415 159.20664,322.0071 159.65674,321.76154 C 160.3754,321.65686 160.60395,321.22155 159.97175,320.72258 C 159.81673,319.62533 158.37325,319.2766 158.192,320.37475 C 157.7358,319.87448 157.05779,320.061 156.74463,320.77226 C 156.50057,321.06088 156.7435,319.90716 156.40716,320.65573 C 156.06127,320.96835 155.96421,321.49207 155.76149,320.84569 C 155.40298,321.13534 154.39332,321.916 154.67516,320.97235 C 154.37744,320.77714 153.87597,320.39381 154.54849,320.46535 C 154.60209,319.53483 153.2804,319.10238 154.10651,318.31524 C 153.87445,317.97484 152.995,317.48312 152.5947,317.64285 C 152.2041,318.57652 151.47447,318.00316 150.91343,317.8109 C 149.93785,318.52008 149.11112,316.92877 148.49111,317.00577 C 147.81276,317.68858 147.21499,317.32204 146.61874,316.77752 C 146.15672,317.21993 147.03494,318.32884 146.41625,318.95408 C 146.27483,319.46719 146.0438,321.0601 145.67244,319.75358 C 145.4005,319.16905 144.95349,318.24528 144.67937,319.31427 C 144.39569,320.00337 143.75756,320.15632 143.14452,320.31619 C 142.88487,321.00295 141.70078,321.74185 141.21941,320.79893 C 140.65573,320.73006 140.58551,321.76556 139.83804,321.39359 C 138.77781,321.92284 140.44126,322.5355 140.52704,322.90738 C 139.84062,323.8469 141.58904,324.50907 140.80187,325.47789 C 140.41468,326.62034 141.52348,327.49577 141.98182,328.39668 C 141.69649,328.97115 142.67413,330.03784 141.49572,329.76385 C 140.72484,329.64009 140.60319,331.0716 140.21991,331.62505 C 140.13294,332.16594 139.3926,331.30707 139.53487,332.13011 C 139.11879,332.51986 138.80463,333.12221 138.95112,333.59747 C 139.44098,333.53722 139.52475,333.9787 139.97563,333.59318 C 140.6453,334.08276 141.07639,334.81411 141.86958,335.16161 C 142.1176,335.76777 143.5234,335.51639 143.03215,336.23701 C 143.74689,336.82428 144.68869,336.73896 145.47648,337.23302 C 146.50855,337.27986 147.59207,337.5832 148.57823,337.69882 C 149.34411,337.37682 149.96257,338.06619 150.61915,338.19268 C 150.69551,337.70016 151.30156,337.87985 151.57882,337.30534 C 151.15269,336.73298 152.38794,337.21403 152.03149,336.63535 C 152.48976,336.73289 151.86558,336.00519 152.52049,336.20101 C 152.44978,335.7755 153.45078,336.01521 153.15415,335.44034 C 153.62753,335.23282 153.85949,335.43108 154.03254,335.34769 C 154.3093,335.10218 154.89935,335.11518 154.40247,334.87754 C 154.68386,334.32828 153.89875,334.99975 154.02315,334.29967 C 153.31595,334.34965 154.62953,333.68516 153.89649,333.75635 C 153.99319,333.09652 154.12002,332.6728 154.8047,332.9488 C 155.32634,332.77862 154.62788,332.02271 155.34108,332.26766 C 155.65007,333.03749 156.24662,331.57797 156.70392,332.37573 C 156.91213,332.12086 157.5231,331.78323 157.32615,332.39835 C 158.06599,332.59716 158.14089,331.4534 158.59285,332.07538 C 159.17568,331.45002 159.02861,332.85264 159.32526,331.9512 C 159.34472,331.47291 159.62868,331.21335 160.03482,331.67402 C 160.48784,331.55914 159.96532,330.84597 159.82281,330.80462 C 159.86367,330.59405 160.0293,330.44931 160.14349,330.27969 z "
            id="Almodôvar" />
        <path style="fill:#ffefd5;fill-rule:evenodd;stroke:#b22222;stroke-width:0.25400001;stroke-opacity:1"
            d="M 158.36848,305.38168 C 158.79915,304.51141 159.50193,303.7054 160.39649,303.37169 C 160.72953,302.58863 161.64339,303.46973 161.83772,302.57381 C 162.44552,302.98109 163.19006,303.37578 163.86502,302.60257 C 164.5736,302.45913 164.95673,302.01187 165.50072,301.74652 C 165.68079,302.4729 167.0078,301.68433 166.48841,302.68357 C 166.21428,303.05205 167.10665,303.35487 166.73205,303.86223 C 166.66478,304.52131 167.09993,304.53348 167.49449,304.87469 C 168.06775,303.90355 167.49886,306.09396 168.21178,305.00948 C 168.83143,304.39132 169.93818,302.96945 170.67589,303.46213 C 170.82019,302.68791 171.15943,303.06284 171.55559,303.00486 C 171.81996,302.57008 172.10996,303.47653 172.58282,303.00936 C 173.79172,304.17924 173.15436,301.65442 173.20452,300.95461 C 173.19924,299.88061 172.4895,298.60478 173.62227,297.91307 C 172.87558,296.86441 170.47993,295.94701 172.05782,294.4447 C 172.2771,293.30535 173.36624,292.7091 173.71925,291.69 C 173.67716,290.26434 173.16493,288.91311 173.01748,287.49136 C 173.64315,287.3861 174.37858,287.29277 173.83048,286.40604 C 172.98852,285.60372 172.38684,284.95514 171.36243,284.31972 C 170.47296,284.15275 170.11647,283.00068 169.19716,283.01473 C 168.63753,282.86522 166.968,283.38896 167.82328,284.27736 C 167.81948,285.06264 166.46159,285.79222 166.39749,284.63036 C 165.91898,284.80867 164.59246,285.00794 165.70916,285.31836 C 166.9245,285.21621 166.08262,287.24728 165.10716,286.68961 C 164.05641,286.42962 165.38618,285.697 164.42899,285.29361 C 164.83929,284.6527 164.43817,284.48418 163.85678,284.29139 C 163.61055,283.79187 165.51229,284.24022 164.43946,283.40727 C 164.16579,282.91017 163.53167,282.67556 163.92749,282.02301 C 162.80372,281.65473 164.55879,280.27521 163.0422,280.20188 C 162.36852,279.91106 163.01721,281.92596 162.24349,280.99068 C 161.152,280.86744 161.68064,282.24667 160.83651,282.18337 C 160.31476,283.34636 159.34385,281.13612 158.91266,282.53031 C 158.1399,282.72583 157.43736,282.94565 156.97416,283.58002 C 156.32936,283.29451 156.01971,284.40538 155.4192,283.49869 C 154.77575,282.86595 153.60514,282.61553 153.92147,283.88585 C 153.90091,285.23419 153.25316,286.43484 152.54516,287.54568 C 151.40693,287.86199 152.27511,288.69471 152.42462,289.22473 C 152.22013,289.75314 151.72309,289.01401 151.55983,289.75468 C 150.29735,289.62485 152.7295,290.92053 151.44278,290.63976 C 150.69376,290.07447 150.09127,291.51355 151.04388,291.63949 C 151.4304,292.23795 150.93096,292.97266 151.42787,293.60522 C 151.6782,294.78826 151.11255,295.70447 150.3071,296.39322 C 149.81312,297.06714 151.78136,297.40669 150.41054,297.82432 C 149.18565,298.6044 150.20831,299.89023 150.70134,300.80367 C 151.2767,301.44848 149.88085,302.40089 151.01477,303.05125 C 151.32017,303.6738 151.7481,304.48804 152.37483,303.50568 C 153.28604,302.71464 153.3266,305.57706 154.62016,305.291 C 154.95719,304.88597 155.91792,303.50245 156.16608,304.45539 C 155.56883,305.56776 157.51141,305.20282 157.65321,306.19888 C 158.80601,306.9936 157.83743,305.75978 158.36848,305.38168 z "
            id="Beja" />
        <path style="fill:#ffefd5;fill-rule:evenodd;stroke:#b22222;stroke-width:0.25400001;stroke-opacity:1"
            d="M 201.35649,283.39868 C 201.15371,283.92716 202.00149,283.86479 202.26182,283.59801 C 202.03249,283.90785 202.23915,284.06535 202.35914,284.14714 C 202.02311,284.76301 203.16675,283.96312 202.71227,284.5557 C 202.42654,284.98703 202.93962,284.5202 203.05191,284.74857 C 203.57251,284.82519 203.96271,284.45944 204.39588,284.2527 C 204.63501,284.16999 204.65922,284.73139 204.91283,284.32236 C 205.3565,284.32604 205.9901,284.56361 206.48522,284.20708 C 206.69438,283.71912 207.31152,283.83624 207.58549,283.43502 C 207.82225,283.71622 208.24306,283.07874 208.57515,283.45435 C 209.11209,283.32455 209.1568,283.89109 209.385,284.22565 C 209.5368,284.19853 209.72988,283.95875 209.89765,283.84939 C 210.10209,283.72389 210.0617,283.42923 210.16504,283.2347 C 210.35996,282.64123 210.55016,282.04651 210.63174,281.42492 C 210.68376,281.07117 210.7865,280.71494 210.81316,280.3627 C 210.75593,280.26734 210.62039,280.44298 210.54075,280.43599 C 210.38958,280.46393 210.02747,280.73229 210.01615,280.60083 C 210.18627,279.99756 210.35638,279.39429 210.52649,278.79102 C 210.83118,278.53258 211.19135,278.32723 211.46525,278.03951 C 211.69658,277.69086 211.9738,277.35866 212.18082,277.00134 C 212.04723,276.72827 211.90863,276.44003 211.75316,276.18369 C 210.43297,276.50173 209.11061,276.82653 207.78082,277.0947 C 207.6554,277.39445 207.5508,277.70494 207.43317,278.0087 C 206.78694,278.2577 206.14072,278.5067 205.49449,278.75571 C 205.34328,278.59854 205.21112,278.39908 205.05116,278.26071 C 204.70759,278.53553 204.36767,278.8153 204.0255,279.09201 C 203.69909,278.95319 203.30453,278.92557 203.07971,278.621 C 202.85386,278.40467 202.62801,278.18834 202.40216,277.97202 C 202.09538,277.9942 201.65037,277.96164 201.59929,278.37045 C 201.4987,279.11846 200.76519,278.86321 200.26983,278.83569 C 200.16005,279.0691 200.10787,279.25119 199.95846,279.30855 C 199.80064,279.76661 200.63727,279.86607 200.10683,280.30235 C 200.0217,280.63821 199.964,281.14836 199.69732,281.31231 C 199.19487,281.3355 199.22816,280.57275 198.65438,280.86192 C 198.13596,281.12022 197.75151,280.5386 197.67302,280.22943 C 197.43014,280.49106 197.04327,281.17459 197.05299,281.30224 C 197.39617,281.06207 197.35538,281.66308 197.6625,281.29836 C 197.89478,281.75345 199.11606,281.06374 198.71315,281.87224 C 198.59703,282.36082 199.4546,281.54249 199.46729,282.12906 C 199.7641,282.19775 199.80379,282.52527 200.20065,282.29582 C 200.67727,282.30881 199.78403,282.72869 200.33675,282.93189 C 200.57955,283.18447 200.98146,282.94132 200.92993,283.41404 C 200.97276,283.63253 201.21408,283.32866 201.35649,283.39868 z "
            id="Barrancos" />
        <path style="fill:#ffefd5;fill-rule:evenodd;stroke:#b22222;stroke-width:0.25400001;stroke-opacity:1"
            d="M 140.82149,309.25967 C 140.84271,309.83227 141.18618,309.96959 141.52882,309.60069 C 142.16186,309.48914 143.90806,309.71794 143.16933,310.68469 C 143.5442,311.25046 144.27828,311.74892 144.67403,312.3896 C 145.1101,313.07724 145.53351,313.87634 145.3213,314.66237 C 144.99264,315.5265 145.52487,316.62203 146.47216,316.75302 C 147.12784,316.93622 147.54832,317.88609 148.23193,317.14062 C 148.97451,316.37927 149.35578,318.1283 150.30282,317.95189 C 150.84535,317.82904 151.34414,317.72247 151.74301,318.21949 C 152.4629,318.2301 152.66849,317.02138 153.35282,317.83968 C 154.09264,317.79336 154.35482,318.56258 153.71516,318.95135 C 154.2038,319.39526 154.92826,320.43078 154.16782,320.62802 C 154.96127,320.63338 154.36361,321.93086 155.07316,321.26202 C 155.57567,321.10755 155.85257,320.63751 155.99894,321.21511 C 156.13506,320.89237 156.83551,319.90732 156.59416,320.86336 C 157.05444,320.13167 157.69089,319.9012 158.23803,320.31986 C 158.30016,319.79222 158.68951,319.71676 159.12916,319.65035 C 158.68468,319.02154 158.80743,318.38529 159.37608,317.92119 C 159.10519,317.42038 158.50979,317.51513 158.26952,317.4887 C 157.84679,316.87803 157.55347,315.77232 158.48099,315.83512 C 158.97916,316.4098 159.30615,317.31781 160.32704,317.20567 C 161.69605,317.31005 160.96393,315.16642 160.00319,316.11995 C 159.61275,316.20926 159.98132,315.31689 159.62193,315.03552 C 160.0402,314.47524 161.33368,314.28322 162.02691,314.85082 C 162.81914,315.0938 162.28791,314.39037 161.84549,314.39902 C 161.87995,313.84232 162.52111,313.72652 161.93453,313.14778 C 161.26796,312.46769 160.50634,311.84434 160.45116,310.8137 C 161.18833,310.85742 161.86018,310.00346 161.3565,309.31103 C 160.7605,309.21243 159.76681,308.25204 160.91833,308.05058 C 161.86292,307.78517 161.11539,307.45409 160.54358,307.70349 C 159.59618,307.6436 160.05413,306.25202 159.34649,305.79803 C 158.87628,305.51918 158.13418,305.05983 158.13349,305.97902 C 158.65975,306.87093 157.1937,306.12112 157.1882,305.56577 C 156.57739,305.41327 155.61387,305.05873 156.18716,304.22399 C 155.13124,303.67641 155.06296,305.86247 153.95049,305.12802 C 153.32893,304.70287 153.20724,303.23785 152.50829,303.30332 C 152.19109,303.92977 151.62128,304.07445 151.15392,303.80822 C 149.87348,304.06502 149.17489,305.19232 148.05558,305.75769 C 147.66308,305.86045 146.72333,306.53214 146.58477,306.19899 C 146.16023,305.50593 145.29562,304.24807 144.4495,305.10434 C 144.11216,305.16788 144.97709,306.37207 144.23445,305.85998 C 143.81544,305.68638 144.1588,307.09977 143.47903,307.15736 C 143.22456,307.87821 142.48097,308.07666 141.83649,308.2427 C 141.74199,308.81116 141.0629,308.34664 140.8993,309.02272 C 140.71448,309.05694 140.80791,309.16977 140.82149,309.25967 z "
            id="Castro_Verde" />
        <path style="fill:#ffefd5;fill-rule:evenodd;stroke:#b22222;stroke-width:0.25400001;stroke-opacity:1"
            d="M 157.7345,270.7417 C 158.14081,271.00893 158.69551,271.28495 159.20291,271.39715 C 159.68928,271.5411 159.99894,272.13055 160.3106,272.51839 C 160.71063,272.60099 161.00074,272.70807 161.30481,272.9767 C 162.03956,272.81342 162.02358,273.76401 162.06426,274.20847 C 161.85859,274.77408 162.51951,275.23134 162.2007,275.74986 C 161.76098,276.24369 161.0288,276.00694 160.50378,276.12227 C 160.55608,276.425 160.4081,276.92831 160.8774,276.91868 C 161.28928,277.25548 162.1525,277.34714 162.24295,277.87647 C 161.99698,278.59996 163.30689,278.73062 162.87522,279.54035 C 162.72954,280.11443 162.72057,280.61918 162.67816,281.20769 C 162.35118,281.37541 162.20489,280.75631 161.81216,281.03529 C 161.31905,281.20212 161.45282,281.83574 161.32243,282.06156 C 160.75126,281.82774 160.67632,282.90415 160.11741,282.46169 C 159.84079,282.28921 159.35941,281.68734 159.12936,282.26236 C 158.79191,282.80878 157.97173,282.69999 157.48485,283.0056 C 157.32586,283.49254 156.95751,283.64166 156.50349,283.48935 C 156.17007,284.3469 155.48025,283.51395 155.02188,283.20572 C 154.55724,282.96216 153.87833,283.01073 153.8002,282.38476 C 153.80679,281.70589 154.31776,281.22679 154.86436,280.88865 C 155.25031,280.77143 155.42868,280.46233 154.99991,280.23391 C 154.67184,279.95461 153.96513,279.41365 154.725,279.19932 C 155.28864,279.07578 155.67005,278.68961 156.02445,278.30919 C 156.37102,278.22017 156.67125,279.03388 156.89326,278.37156 C 157.02474,277.88546 157.93072,277.58714 157.65857,277.08446 C 157.50255,276.78842 158.01825,276.43553 157.50602,276.24902 C 156.92613,275.86222 157.01197,275.14285 156.83831,274.57429 C 156.53213,274.27855 155.85182,273.76777 156.58958,273.52532 C 157.04037,273.39001 157.19081,273.01574 157.28422,272.61882 C 157.76385,272.13167 156.96928,271.4637 157.36515,271.00272 C 157.53021,271.00231 157.63591,270.82011 157.7345,270.7417 z "
            id="Cuba" />
        <path style="fill:#ffefd5;fill-rule:evenodd;stroke:#b22222;stroke-width:0.25400001;stroke-opacity:1"
            d="M 139.98949,277.55069 C 140.84994,277.66716 141.70965,277.43859 142.50937,277.28068 C 143.72681,277.7062 144.20837,276.29596 145.27716,276.13835 C 145.8039,276.40673 146.45473,275.70529 146.70187,276.58891 C 146.99632,277.31433 147.51496,277.27102 147.97516,276.77202 C 148.27751,277.64869 148.4228,278.59133 148.49644,279.54107 C 148.42736,280.38081 148.76185,281.13613 149.73474,280.81186 C 150.5884,280.50626 151.42941,280.25228 152.28277,280.12894 C 152.49113,279.97917 152.92567,280.12366 153.0737,279.61865 C 153.57413,279.15592 153.88873,280.33868 154.31283,279.50637 C 154.6638,280.06839 155.85449,280.61897 154.70905,281.00971 C 153.82619,281.41368 153.69889,282.36582 154.01258,283.09703 C 153.83707,284.08509 153.91485,285.18829 153.36213,286.08954 C 153.05401,286.94158 152.39762,287.54461 151.89941,288.20016 C 152.10031,288.55152 152.87825,289.59046 152.01857,289.36624 C 151.69833,289.36475 151.6134,289.91117 151.14382,289.77337 C 151.17858,290.22302 152.44339,290.78469 151.44311,290.64012 C 150.5419,290.05364 150.54694,291.97582 149.52218,291.27234 C 148.72738,291.00294 148.71646,292.4731 147.84815,292.46037 C 148.29439,292.63123 147.46701,293.00997 148.20044,292.93126 C 148.03742,293.31197 148.7196,294.05108 148.00174,293.44774 C 147.30996,292.92692 147.00875,294.3671 146.26215,293.63002 C 145.65594,292.72954 144.35532,293.30952 143.48448,292.6887 C 142.32032,292.51419 141.15416,292.12603 140.05336,291.78864 C 139.45619,290.79208 138.40279,291.13237 137.54072,290.80746 C 136.73297,290.02604 135.89964,289.26636 135.32582,288.28902 C 134.24045,288.74139 133.17676,288.5907 132.43693,287.60644 C 131.46514,286.99273 131.84796,286.11152 132.34955,285.35724 C 132.76768,284.83308 132.41503,282.9252 133.44261,283.60253 C 134.34561,284.84802 134.74037,282.90346 134.81561,282.18474 C 134.26304,281.38138 135.17767,281.54036 135.60125,281.32322 C 135.70066,280.58732 136.3933,280.10709 136.38548,279.36955 C 136.99887,278.58863 138.52871,279.18994 138.57068,277.94394 C 139.22487,278.15984 139.47127,276.60286 139.98949,277.55069 z "
            id="Ferreira_do_Alentejo" />
        <path style="fill:#ffefd5;fill-rule:evenodd;stroke:#b22222;stroke-width:0.25400001;stroke-opacity:1"
            d="M 173.27148,303.42569 C 174.15317,304.20353 174.21974,305.12585 173.53992,306.11273 C 173.83948,306.90065 172.69302,308.8796 174.04203,308.76076 C 175.04171,308.21906 176.32293,307.74278 177.24814,306.80636 C 178.08159,306.72224 178.7786,307.6487 179.63265,307.46855 C 180.07363,306.35297 181.27321,306.99351 182.0295,307.31347 C 182.47495,308.11829 183.87829,308.09278 184.38949,309.05735 C 185.03508,308.70162 185.68541,308.49861 185.25516,309.40369 C 185.35211,309.76876 185.4985,310.14087 185.22402,310.4741 C 184.80293,311.47999 184.34292,312.47415 184.22032,313.56996 C 184.05347,314.26535 183.97901,315.0028 183.73579,315.6698 C 183.16438,316.56813 182.64395,317.53769 182.04349,318.39569 C 181.29318,318.36533 181.4636,318.87995 181.65047,319.40431 C 181.87107,319.81391 181.32688,320.09995 181.21728,320.45584 C 180.93967,320.98043 180.47559,321.48602 180.31498,322.02252 C 180.57844,322.64023 180.66554,323.37053 181.25616,323.77936 C 180.41934,323.79572 179.57596,324.28491 178.96678,323.99562 C 178.36532,324.66932 177.42051,323.01485 177.26099,324.36666 C 177.06529,325.05869 176.25291,324.45029 176.12735,325.41256 C 175.6111,325.67078 175.15357,325.7311 174.99366,326.33182 C 174.36282,326.44091 173.9853,325.2094 173.39816,326.11437 C 173.09967,325.18052 171.79919,325.38151 170.89949,325.75237 C 170.19124,326.16432 169.83033,325.35743 169.35294,326.2108 C 168.77285,325.72806 168.84702,326.81251 168.09283,326.42237 C 168.31781,327.09223 167.36655,327.38381 166.97016,326.6757 C 167.36073,327.44039 166.42954,327.10211 166.09931,327.8239 C 165.18417,327.69989 164.88069,328.96826 163.83749,328.8487 C 163.93106,327.52898 163.45411,329.87161 162.57016,329.26536 C 161.7118,329.13062 162.1787,330.66025 161.28162,329.99853 C 160.38706,330.90526 159.72098,329.7887 159.4687,329.05065 C 158.80546,328.64825 157.94164,327.40743 159.31049,327.27337 C 159.94779,326.4376 159.02627,326.51292 158.7362,326.00761 C 158.48175,325.78762 157.8327,326.42269 158.15986,325.53544 C 158.34671,324.74511 158.81421,325.00399 159.30195,325.04657 C 159.44667,324.82944 158.55838,324.28244 159.43749,324.39436 C 158.72956,323.92439 157.88003,323.02484 158.13907,322.2969 C 158.96919,321.85094 161.27451,321.77209 159.87341,320.52549 C 159.27463,319.69535 158.28565,318.7464 159.35926,317.8631 C 158.66535,317.29996 157.91353,317.76827 157.91649,316.49935 C 157.51815,315.62609 159.07611,315.62467 158.98755,316.61542 C 159.75322,318.12679 162.30184,316.38846 160.41833,315.88312 C 159.55593,316.65656 159.92131,315.40003 159.60049,314.86969 C 160.51177,314.20528 161.65245,314.77481 162.46935,314.79539 C 161.72722,314.49458 161.86541,314.07218 162.18299,313.63303 C 161.837,312.68109 159.83824,311.58353 160.77737,310.67287 C 161.69507,310.77766 161.78207,309.13563 160.86445,309.05701 C 159.70169,308.48314 160.93702,308.08978 161.45449,307.68102 C 160.65085,307.69942 159.9306,307.82018 159.84837,306.84449 C 160.06845,305.59301 157.51733,305.63714 158.88189,304.58362 C 159.55388,303.88339 160.40106,302.84262 161.45612,303.06711 C 161.9846,301.82678 162.88848,303.86595 163.69827,302.71252 C 164.39839,302.42709 164.96159,302.10341 165.50139,301.74625 C 165.71291,302.38753 167.19063,301.79884 166.37249,302.79203 C 167.08181,303.43726 166.38091,304.63697 167.49516,304.87435 C 168.09,303.87291 167.46893,306.13578 168.21232,305.00919 C 168.87538,304.32982 169.98277,303.00744 170.75485,303.40225 C 170.80966,302.39497 171.42054,303.45767 171.73799,302.83274 C 172.15558,303.29394 172.70735,302.93424 173.27148,303.42569 z "
            id="Mértola" />
        <path style="fill:#ffefd5;fill-rule:evenodd;stroke:#b22222;stroke-width:0.25400001;stroke-opacity:1"
            d="M 194.92749,293.52469 C 194.83468,293.26326 194.50543,293.10172 194.34583,292.86969 C 194.78848,292.52012 195.18858,292.07239 195.80247,292.11781 C 196.2484,292.0759 196.69473,292.03926 197.02437,291.6941 C 197.4232,291.42139 197.80966,291.01478 198.27127,291.42175 C 198.71011,291.5735 199.11981,291.94709 199.60523,291.70621 C 200.29026,291.68232 200.88728,291.38773 201.47511,291.06359 C 201.70621,291.00021 201.90813,290.88835 201.77364,290.61385 C 201.82207,290.17384 201.51234,289.58293 201.78768,289.23851 C 202.17628,288.91878 202.56488,288.59905 202.95348,288.27933 C 203.6283,288.64563 204.35001,288.95003 204.81947,289.58747 C 205.04485,289.78492 205.1909,290.16155 205.56244,290.00615 C 206.5318,290.01789 207.52129,289.89911 208.46448,289.75467 C 208.519,289.16518 208.37569,288.49202 208.52385,287.9508 C 208.77183,287.65322 209.37767,287.53831 209.23151,287.03801 C 209.24251,286.08916 209.37845,285.11481 209.36252,284.18487 C 209.15007,283.19372 207.86457,283.24979 207.40202,283.62336 C 206.60826,283.99666 205.82691,284.69945 204.91281,284.32236 C 204.34163,284.21902 203.26606,284.90145 202.60581,284.72069 C 203.35564,283.88028 201.95977,284.83729 202.37048,284.05068 C 201.93854,284.05653 202.4876,283.26394 201.82283,283.824 C 201.20179,283.71157 201.37048,283.37477 200.89781,283.32857 C 200.78287,282.94079 199.79175,282.85736 200.32414,282.27603 C 199.54785,282.66986 199.48029,281.54821 198.65848,282.04069 C 199.16474,280.99437 197.42226,281.64142 197.14406,281.27119 C 196.89874,281.38422 197.80931,279.47697 197.90921,280.69846 C 198.47141,281.12012 199.19955,280.59967 199.59556,281.29893 C 200.50377,280.6227 200.27292,279.3179 199.34362,278.60343 C 198.89263,277.44271 198.17587,276.27201 197.63266,275.33782 C 198.04912,274.45375 197.65166,273.48039 196.54713,273.53003 C 195.30241,273.04154 194.09825,272.00676 194.1858,270.52436 C 193.56919,270.25153 192.96594,269.98532 193.5338,269.20236 C 193.18618,268.73972 193.12393,267.69751 192.28447,268.51436 C 191.34765,268.18569 190.7648,269.74745 190.03914,268.85836 C 189.62345,269.86611 188.80293,271.17776 187.65916,270.24596 C 187.25115,270.97191 186.55717,270.17723 186.30914,270.70536 C 187.33125,271.14735 186.1319,271.74452 186.13006,272.41915 C 184.59012,272.32026 185.08577,274.11856 183.91281,274.59545 C 183.48073,275.74522 183.06677,277.02058 181.61672,277.13515 C 180.55985,278.02268 182.93224,279.1334 181.44226,280.09942 C 180.97257,280.99093 179.76912,280.29837 179.90797,281.52868 C 179.37049,282.37487 180.52658,282.79835 179.89676,283.46622 C 180.28401,284.09529 178.87402,284.8276 180.08543,285.00773 C 180.68835,284.74061 180.85024,285.89274 181.65547,285.49935 C 182.30705,286.05688 182.63423,285.02493 183.50247,285.17781 C 184.42406,284.55098 184.54534,285.58407 183.88998,286.10345 C 184.602,287.46332 185.96643,285.83917 186.74779,286.91289 C 187.56674,287.87299 188.94565,288.37818 189.01881,289.80176 C 189.17152,290.90866 190.1721,291.12704 190.89292,290.85027 C 192.16795,290.88609 192.16921,292.71192 193.11035,293.44983 C 193.59652,293.98002 194.81794,293.8259 194.89267,293.59497 L 194.92747,293.52469 L 194.92749,293.52469 z "
            id="Moura" />
        <path style="fill:#ffefd5;fill-rule:evenodd;stroke:#b22222;stroke-width:0.25400001;stroke-opacity:1"
            d="M 110.79249,303.51068 C 110.50311,304.35281 110.10618,305.17211 110.14984,306.08574 C 110.13886,307.02563 109.90125,307.94453 109.72216,308.85135 C 110.38053,309.40199 110.68793,310.19718 111.06849,310.94168 C 110.82955,311.41411 110.35762,311.8259 110.54995,312.40953 C 110.58312,313.15934 110.66861,313.9169 110.30952,314.60858 C 109.98218,315.41632 109.77224,316.24932 109.74921,317.12363 C 109.62682,317.80471 109.28847,318.46572 109.17349,319.13669 C 109.76978,320.17669 110.21953,321.30732 110.5968,322.43707 C 110.73372,323.35915 110.95118,324.28103 110.69955,325.20408 C 110.43859,326.77844 110.39179,328.38317 109.95916,329.9267 C 110.75085,330.15578 111.93757,329.71638 112.28549,330.38803 C 112.97619,330.29648 113.27277,330.87962 112.97882,331.33604 C 113.85352,331.67004 113.42235,333.2476 114.34982,332.70569 C 114.8536,332.68895 115.63586,332.74933 116.31178,332.91348 C 116.89927,332.74537 117.62325,332.13234 118.16866,333.13108 C 118.46611,333.92647 119.075,334.75334 119.39082,333.44804 C 119.91312,331.86492 121.69494,332.85078 122.80582,331.92703 C 124.05178,332.29301 124.89142,334.16168 126.10224,333.86552 C 127.11769,333.15634 128.27921,334.36384 129.32449,334.46204 C 129.3198,333.08162 131.15125,334.15046 130.81623,332.66292 C 130.5121,331.67792 131.9233,330.80104 132.92783,330.75004 C 133.59567,330.88935 133.27044,329.53732 133.48483,328.99542 C 133.37062,328.09546 131.06528,327.97667 132.52275,327.00698 C 133.55756,326.48944 133.5011,325.18691 132.5115,324.60071 C 133.51656,324.15689 135.02059,323.54374 134.06883,322.20337 C 134.57239,321.69435 134.70544,323.29139 135.04058,322.02734 C 135.44644,321.01322 137.35823,321.41886 136.60765,319.97275 C 136.34691,318.62055 135.16063,317.98784 135.43582,316.58174 C 135.60921,315.69531 135.15312,314.47187 135.92287,314.26157 C 135.5189,313.79048 135.50731,312.70665 134.77483,313.45736 C 133.88172,312.95524 132.82147,313.58208 132.37213,312.54379 C 131.21984,311.85229 130.09466,311.07827 128.65449,311.5197 C 128.73399,310.9461 129.80122,310.74757 130.06635,310.02686 C 130.71034,309.12049 131.90918,309.37925 132.17357,308.34335 C 132.10274,307.55039 134.44367,307.22347 133.23583,306.0877 C 131.80895,306.73653 133.26755,304.44979 132.62031,303.66552 C 132.04602,302.47225 132.99885,300.40697 131.12371,300.43194 C 130.17916,300.00822 129.81352,301.3735 128.95249,300.49304 C 128.02785,301.62245 126.43469,301.08324 125.22216,301.07236 C 123.43811,300.94073 124.01982,303.00458 123.44333,303.66416 C 122.05425,304.29002 121.70367,306.58928 122.2596,307.7568 C 121.58834,308.09333 120.70275,307.35505 120.40582,308.42404 C 119.15564,307.8248 117.85705,306.57703 116.49449,307.80838 C 115.94249,306.62321 114.72833,305.7943 114.00061,304.51386 C 113.94719,303.45687 112.40084,304.6526 111.70315,303.70538 C 111.40098,303.70342 111.10215,303.53849 110.79249,303.51068 z "
            id="Odemira" />
        <path style="fill:#ffefd5;fill-rule:evenodd;stroke:#b22222;stroke-width:0.25400001;stroke-opacity:1"
            d="M 135.98749,301.85068 C 136.38881,302.97703 136.06589,304.51705 137.30949,305.07401 C 137.86922,305.1702 138.06634,305.44318 138.30257,305.81268 C 138.62456,305.43133 139.35278,304.59318 139.7498,305.54081 C 140.42767,305.82045 140.93247,305.05097 141.05695,304.75305 C 141.54878,305.21142 142.04416,304.71504 142.59073,305.01728 C 143.64457,304.24658 144.79709,306.41945 143.56758,307.04138 C 143.22466,308.01573 141.9988,308.11566 141.45851,308.50518 C 140.49386,308.768 140.78588,310.28001 141.70442,309.64583 C 142.47223,309.38807 143.855,309.93087 143.2099,310.84403 C 144.24028,311.74156 145.53351,313.06653 145.33083,314.48969 C 144.82147,315.58702 145.77912,316.53692 146.48083,316.95698 C 146.74342,318.02781 146.54053,318.95939 146.11718,319.96687 C 145.87636,321.17694 145.13235,317.47838 144.6787,319.3141 C 144.44502,320.12992 143.54808,320.01833 143.10783,320.4363 C 142.66206,321.14183 141.65574,321.64035 141.07583,320.73701 C 140.68524,321.40666 140.10143,321.31141 139.5304,321.61272 C 139.23573,322.5755 141.19144,322.43349 140.29716,323.39868 C 140.69067,324.20771 141.30109,324.75191 140.7667,325.66536 C 140.505,327.07573 142.25606,327.948 142.06341,329.29968 C 142.46186,330.33222 140.81039,329.15349 140.88903,330.20031 C 140.35401,330.64322 140.5179,332.20249 139.60916,331.69202 C 139.4262,332.83488 138.07859,331.08203 137.51308,330.74454 C 136.7321,330.04294 135.60739,330.40816 134.65116,330.08476 C 134.29929,330.87664 132.70099,331.09675 133.38345,329.77802 C 134.11302,328.44003 132.31759,328.39718 131.98583,327.53434 C 133.09288,326.85776 133.93498,325.46869 132.51083,324.60102 C 133.28557,324.15922 135.10257,323.69324 134.08118,322.45833 C 134.19367,321.25817 134.66743,323.23304 134.93691,322.2588 C 134.95155,320.93642 137.54673,321.59471 136.53082,320.12135 C 136.82354,318.97239 135.3665,318.47389 135.56966,317.44659 C 135.25346,316.5614 135.59035,315.53964 135.44772,314.60692 C 135.86087,314.45307 136.18366,314.41505 135.65786,313.8518 C 135.59075,313.33427 135.24061,312.91689 134.77416,313.45767 C 134.19368,313.15959 133.48113,313.14709 132.92233,313.20821 C 132.4329,312.4357 131.32315,311.97498 130.44869,311.44646 C 129.71761,311.53285 127.72881,311.49676 129.26963,310.96434 C 129.96685,310.30423 130.44824,309.18953 131.47882,309.23868 C 131.5515,308.75868 132.55981,308.85225 132.09449,308.07968 C 132.80792,307.71263 134.27661,306.74389 133.10068,306.11564 C 131.96225,306.68407 133.08608,304.89749 132.72535,304.30886 C 132.60041,303.25421 132.03601,301.49664 132.39772,300.79137 C 133.59307,300.62416 134.58634,301.19812 135.62985,301.74885 C 135.71626,301.85295 135.94958,301.69192 135.98749,301.85068 z "
            id="Ourique" />
        <path style="fill:#ffefd5;fill-rule:evenodd;stroke:#b22222;stroke-width:0.25400001;stroke-opacity:1"
            d="M 185.42049,308.68369 C 185.40348,308.12306 185.95025,307.91323 186.30249,307.58237 C 186.56031,307.55909 186.93399,307.85021 187.05875,307.47598 C 187.75289,306.71373 188.28354,305.77054 189.22256,305.2793 C 189.78884,304.82591 190.56234,304.5822 190.88213,303.88125 C 191.63566,302.76518 192.46765,301.69487 192.98472,300.4406 C 193.16919,300.08195 193.41381,299.73703 193.28839,299.31097 C 193.24493,298.82236 193.21719,298.33767 193.56526,297.94692 C 194.10772,297.07736 194.55744,296.1519 194.94415,295.20703 C 194.86627,294.6698 194.78838,294.13257 194.71049,293.59534 C 193.54961,294.35439 192.57194,293.09344 192.28766,292.08368 C 191.76525,291.47104 191.34295,290.36588 190.44797,290.94941 C 188.58868,291.32417 189.43091,288.3524 187.85432,288.05855 C 187.19187,287.19617 186.13945,286.03062 185.07749,286.69435 C 184.00826,286.90594 183.57075,285.81938 184.44382,285.20968 C 183.824,284.76964 182.86719,285.26018 182.35612,285.58439 C 181.99017,285.88421 181.4103,285.22531 180.80783,285.45569 C 180.73926,284.53311 179.17154,285.36264 179.6702,284.32781 C 180.18408,284.02486 179.74043,283.14293 180.14734,282.83829 C 179.00375,282.25762 181.01242,280.39229 179.30658,280.60436 C 178.24894,279.96379 176.62377,278.4911 175.67664,280.16385 C 175.04746,281.389 175.50867,282.69777 174.42733,283.67052 C 174.04503,284.56905 172.57652,283.79131 172.91715,285.16832 C 172.67396,285.88403 174.96448,286.91135 173.5795,287.36435 C 172.45705,287.33177 173.46738,289.06109 173.43571,289.75923 C 173.95242,291.05189 173.76869,292.41048 172.58839,293.23179 C 172.13329,294.44177 170.63873,296.0193 172.51833,296.8423 C 173.41435,297.35036 173.9499,298.07289 172.97874,298.69575 C 172.98461,299.99522 173.4038,301.25197 173.27554,302.57557 C 172.97875,303.87994 174.8406,304.58102 173.63009,305.84269 C 173.73851,306.83294 172.94667,308.08303 173.7337,308.86726 C 174.75541,308.30622 175.93185,307.98315 176.88457,307.12225 C 177.5652,306.31215 178.41968,307.33705 179.1565,307.48201 C 179.92161,307.77363 180.06627,306.25442 180.79583,306.9018 C 181.44179,307.12881 182.07876,306.93908 182.27084,307.77168 C 183.57025,307.7184 184.09185,309.62083 185.35055,308.70596 L 185.4205,308.68369 L 185.42049,308.68369 z "
            id="Serpa" />
        <path style="fill:#ffefd5;fill-rule:evenodd;stroke:#b22222;stroke-width:0.25400001;stroke-opacity:1"
            d="M 162.06248,273.8017 C 162.55218,273.98958 162.74503,274.03104 162.99125,273.76907 C 163.79558,273.74421 164.34525,274.65628 165.29374,274.3024 C 166.02743,274.10697 167.02632,273.97769 167.57416,274.68903 C 168.54212,274.96663 168.70752,275.7751 169.51206,276.30915 C 170.16883,276.6724 170.97521,276.73889 171.59412,277.18976 C 172.40504,277.49519 173.31212,276.86725 174.07541,276.69913 C 174.94734,276.55185 175.24282,277.94311 175.97968,277.03194 C 176.65698,277.16137 176.9887,278.32428 177.82821,278.03572 C 178.51407,277.72357 179.44342,277.75736 180.17883,278.02336 C 181.03427,277.89435 182.33265,278.39938 181.85259,279.48844 C 181.46305,280.45042 180.52978,280.94559 179.53762,280.65064 C 178.65293,280.60141 178.25143,279.60677 177.3995,279.48769 C 176.58729,279.02766 175.60647,279.86588 175.48919,280.67306 C 174.88538,281.43431 175.72331,282.49521 174.81046,283.01165 C 174.53218,283.71149 173.9748,284.47569 173.13591,284.19822 C 172.9581,284.76379 172.86541,285.78614 172.18222,284.88782 C 171.40425,284.3751 170.6548,283.98407 169.98135,283.38955 C 169.47928,282.73757 168.7167,283.0058 168.08841,283.21468 C 166.92223,283.45428 168.42189,284.40989 167.47607,284.92923 C 167.01556,285.49299 166.49971,285.29261 166.3975,284.63002 C 166.04001,284.82962 164.60888,284.91905 165.59408,285.26405 C 165.88866,285.56382 166.72321,285.31098 166.27064,285.95872 C 166.21572,286.92893 164.96859,287.002 164.56117,286.21269 C 165.51062,285.79908 163.87787,285.30419 164.6335,284.81102 C 164.78227,284.37757 163.33427,284.40546 163.93819,284.05822 C 164.75695,284.14234 164.89679,283.77626 164.36016,283.21966 C 163.94791,282.87986 163.61806,282.57961 163.9275,282.02269 C 162.73066,281.76118 164.50863,280.48407 163.32584,280.30994 C 162.1766,280.29402 163.51742,278.7817 162.40825,278.49086 C 162.01939,278.09203 162.45677,277.44948 161.6863,277.34885 C 161.10526,276.98714 160.25644,276.90649 160.52317,276.08335 C 161.2413,276.15556 162.54689,276.1083 162.25983,275.08647 C 161.94364,274.73616 162.02488,274.21954 162.06248,273.8017 z "
            id="Vidigueira" />
    </g>
    <!-- EO MUNICIPIOS -->
</svg>