<?xml version="1.0" encoding="UTF-8" standalone="no"?>
<!-- Creator: CorelDRAW -->
<svg xmlns:dc="http://purl.org/dc/elements/1.1/" xmlns:cc="http://web.resource.org/cc/"
    xmlns:rdf="http://www.w3.org/1999/02/22-rdf-syntax-ns#" xmlns:svg="http://www.w3.org/2000/svg"
    xmlns="http://www.w3.org/2000/svg" xmlns:sodipodi="http://inkscape.sourceforge.net/DTD/sodipodi-0.dtd"
    xmlns:inkscape="http://www.inkscape.org/namespaces/inkscape" xml:space="preserve" width="250" height="366"
    style="shape-rendering:geometricPrecision; text-rendering:geometricPrecision; image-rendering:optimizeQuality; fill-rule:evenodd; clip-rule:evenodd"
    viewBox="0 0 200 200" id="svg1627" sodipodi:version="0.32" inkscape:version="0.43"
    sodipodi:docname="Mapa_de_Portugal.svg" sodipodi:docbase="C:\Documents and Settings\Márcio Silva\Os meus documentos"
    version="1.0">
    <metadata id="metadata1927">
        <rdf:RDF>
            <cc:Work rdf:about="">
                <dc:format>image/svg+xml</dc:format>
                <dc:type rdf:resource="http://purl.org/dc/dcmitype/StillImage" />
                <dc:title>Munícipios de Portugal</dc:title>
                <cc:license rdf:resource="http://creativecommons.org/licenses/GPL/2.0/" />
                <dc:creator>
                    <cc:Agent>
                        <dc:title>Rei-artur (rei.artur@gmail.com)</dc:title>
                    </cc:Agent>
                </dc:creator>
            </cc:Work>
            <cc:License rdf:about="http://creativecommons.org/licenses/GPL/2.0/">
                <cc:permits rdf:resource="http://web.resource.org/cc/Reproduction" />
                <cc:permits rdf:resource="http://web.resource.org/cc/Distribution" />
                <cc:requires rdf:resource="http://web.resource.org/cc/Notice" />
                <cc:permits rdf:resource="http://web.resource.org/cc/DerivativeWorks" />
                <cc:requires rdf:resource="http://web.resource.org/cc/ShareAlike" />
                <cc:requires rdf:resource="http://web.resource.org/cc/SourceCode" />
            </cc:License>
        </rdf:RDF>
    </metadata>

    <sodipodi:namedview inkscape:window-height="582" inkscape:window-width="866" inkscape:pageshadow="2"
        inkscape:pageopacity="0.0" borderopacity="1.0" bordercolor="#666666" pagecolor="#ffffff" id="base"
        fill="#ffff00" inkscape:zoom="1.1338798" inkscape:cx="125" inkscape:cy="211.12313" inkscape:window-x="28"
        inkscape:window-y="117" inkscape:current-layer="layer7" showguides="true" inkscape:guide-bbox="true">
        <sodipodi:guide orientation="horizontal" position="329.9602" id="guide2648" />
        <sodipodi:guide orientation="horizontal" position="307.74672" id="guide2650" />
    </sodipodi:namedview>

    <defs id="defs1629">
        <metadata id="CorelCorpID_0Corel-Layer" />
        <sodipodi:namedview inkscape:guide-bbox="true" showguides="true" inkscape:current-layer="layer1"
            inkscape:window-y="-4" inkscape:window-x="-4" inkscape:cy="327.60442" inkscape:cx="146.08303"
            inkscape:zoom="17.548964" fill="#fa8072" id="namedview5974" pagecolor="#ffffff" bordercolor="#666666"
            borderopacity="1.0" inkscape:pageopacity="0.0" inkscape:pageshadow="2" inkscape:window-width="1024"
            inkscape:window-height="712" />
    </defs>

    <!-- <g inkscape:groupmode="layer" id="layer3" inkscape:label="fundo" style="display:inline" sodipodi:insensitive="true">
        <rect style="fill:#4169e1;fill-opacity:1;fill-rule:evenodd;stroke:none;display:inline" id="rect2247" width="200" height="200" />
    </g> -->

    <g inkscape:groupmode="layer" id="layer10" inkscape:label="----detalhes----" style="display:inline" />

    <!-- MUNICIPIOS -->
    <g inkscape:groupmode="layer" id="layer4" inkscape:label="Municipios" style="display:inline"
        sodipodi:insensitive="true" transform="translate(-440, -20) scale(2.5)">
        <path style="fill:#ffefd5;fill-rule:evenodd;stroke:#b22222;stroke-width:0.25400001;stroke-opacity:1"
            d="M 202.1525,55.570385 C 202.74001,55.136235 203.39528,55.812285 203.9892,55.284238 C 204.46844,55.222542 205.20768,55.06615 205.02107,54.385219 C 205.21499,53.555959 206.24718,53.321719 206.68469,52.616223 C 207.06593,52.168199 207.62568,51.559693 208.1526,51.519375 C 208.71948,51.812668 209.41463,51.947293 209.80115,52.56472 C 210.34105,52.77454 210.87247,53.021799 210.81996,53.660384 C 210.87808,54.319592 211.18898,55.013548 211.91124,55.152418 C 212.38048,55.371358 213.39163,55.83733 212.97293,56.48506 C 212.66429,57.036411 211.94898,57.159077 212.01235,57.874218 C 211.74613,58.179276 211.30502,58.709689 212.0249,58.77534 C 212.51563,59.225062 212.9067,60.32639 213.74832,59.887764 C 214.16655,59.48038 215.28871,59.761737 214.8091,60.482637 C 214.50944,61.118309 214.7159,61.775663 214.08366,62.251679 C 213.66297,62.643369 212.94169,62.176929 212.87905,63.024228 C 212.65586,63.732582 211.92811,64.133396 211.76865,64.906793 C 211.60682,65.328818 212.18913,66.37144 211.33281,66.163381 C 211.14357,66.925176 210.60101,66.363772 210.19215,66.163381 C 210.4269,66.743043 209.81202,67.725296 209.25609,67.104131 C 208.56914,66.604255 207.72779,66.414911 206.92737,66.628798 C 206.3434,66.423781 205.87659,65.837978 205.29869,65.531014 C 204.75021,65.255068 204.30908,64.927866 204.10781,64.323715 C 203.51397,63.845163 203.18525,63.202041 202.49231,62.951923 C 201.98053,62.875883 201.7612,62.40873 202.39315,62.255919 C 203.03656,61.804306 202.16128,61.378735 202.46685,60.799223 C 202.61963,60.060973 202.97929,59.589376 203.40056,58.979157 C 203.90666,58.553372 203.46602,58.209132 202.94914,58.395048 C 203.00895,57.835713 203.05344,57.117949 202.93046,56.592612 C 202.51019,56.32973 202.18098,56.118961 202.1525,55.570385 z "
            id="Alfândega_da_Fé" />
        <path style="fill:#ffefd5;fill-rule:evenodd;stroke:#b22222;stroke-width:0.25400001;stroke-opacity:1"
            d="M 228.46948,36.062683 C 228.01468,35.492338 228.68635,35.426978 228.72898,35.003647 C 228.30626,34.065994 227.88355,33.128342 227.46083,32.190689 C 227.8791,31.337155 228.37027,30.4966 228.74982,29.636353 C 228.64877,29.141352 228.38775,28.629241 228.76209,28.185085 C 229.37352,27.218942 229.27104,26.034573 229.60753,24.974292 C 229.72215,24.370436 229.99727,23.746922 230.01674,23.154721 C 229.61457,22.889172 229.00637,22.890814 228.52697,22.72541 C 228.19429,22.540631 227.34515,22.652683 227.34111,22.279019 C 227.67852,21.086722 228.09475,19.891148 228.38815,18.700674 C 227.69694,18.077592 227.0009,17.459263 226.30783,16.838005 C 225.84958,17.03327 225.54785,17.578613 225.15027,17.909583 C 224.83464,18.300138 224.49613,18.638206 223.95432,18.509624 C 222.86795,18.425193 221.84042,18.811188 220.79115,19.023342 C 219.83037,18.852898 218.86959,18.682453 217.90881,18.512009 C 217.60007,17.572763 217.33118,16.600215 217.00049,15.679339 C 216.22232,15.604044 215.4438,15.531555 214.6655,15.457339 C 214.37732,15.909028 214.43895,16.560843 214.28905,17.091643 C 214.20842,17.554987 214.12779,18.018332 214.04716,18.481676 C 213.28622,18.428269 212.51458,18.343349 211.75983,18.307676 C 211.27224,18.671649 210.75205,19.054176 210.53989,19.63524 C 209.58929,20.665513 209.70071,22.286262 210.89558,23.098342 C 210.98681,24.25335 210.39838,25.475149 209.8015,26.236342 C 209.24836,26.743894 207.49013,25.801891 207.39996,27.095217 C 207.90439,27.4617 208.98129,27.270319 209.20668,28.199832 C 210.61591,28.62388 209.00695,29.435108 208.5085,29.749343 C 208.50179,30.706605 207.4746,31.433061 208.38747,32.269837 C 207.88107,33.627041 209.43024,33.570002 210.26042,33.484052 C 210.87795,33.294391 212.56719,33.760857 212.09747,34.500219 C 210.99398,35.198679 211.35253,36.534796 210.93212,37.61546 C 209.79501,38.296669 210.02695,39.863679 209.79417,40.903342 C 209.96642,41.636642 210.72488,42.353381 210.27443,43.239716 C 211.085,44.282816 212.39119,42.657996 213.42639,43.526536 C 214.06959,43.3869 215.80463,42.048052 215.66118,43.384008 C 215.64707,44.544217 217.52684,44.126152 217.91472,45.318794 C 218.35842,45.903121 218.94886,47.362834 219.98208,46.856643 C 220.81192,47.022661 222.78953,47.019542 222.02652,45.550444 C 221.1298,44.439721 222.30173,43.496852 222.90417,42.768341 C 222.9539,41.736213 223.67522,40.876724 223.98646,39.865008 C 223.48424,39.230794 224.10506,38.172804 223.70084,37.698344 C 224.76261,37.694447 225.78905,37.232131 226.61617,38.15101 C 227.81945,38.558769 227.25261,36.967356 227.87825,36.544995 C 227.88359,36.213451 228.23639,36.165196 228.46948,36.062683 z "
            id="Bragança" />
        <path style="fill:#ffefd5;fill-rule:evenodd;stroke:#b22222;stroke-width:0.25400001;stroke-opacity:1"
            d="M 189.85748,74.293686 C 189.52015,73.520287 188.72215,73.973166 188.09637,73.923056 C 187.42433,74.246673 186.93945,73.638937 186.71025,73.072977 C 185.98161,72.898368 186.47034,72.023565 185.86816,71.665398 C 185.54356,71.155581 185.48913,70.397926 184.85833,70.161161 C 184.45746,69.886865 183.50383,69.76208 183.42739,69.380892 C 184.03019,68.857469 183.4818,67.833383 184.03319,67.311103 C 184.43516,67.00479 185.01024,67.466883 185.47548,67.52868 C 185.75167,67.026816 184.91361,66.823392 185.18173,66.275555 C 185.34415,65.868846 185.67379,65.355907 185.24824,64.905888 C 185.26006,64.437175 185.3707,64.075333 185.91127,64.077386 C 186.14209,63.750402 186.39667,63.482297 186.65267,63.181768 C 186.60492,62.737827 185.41382,62.729051 186.16883,62.299439 C 186.68454,61.976401 186.76592,61.126936 187.47994,61.277471 C 188.00449,61.048445 188.49628,60.666117 189.11515,60.731011 C 189.29313,60.809601 190.06824,61.025878 190.49077,61.041822 C 190.87792,61.108587 191.7682,60.885037 191.33534,61.54352 C 191.2455,62.009286 191.32746,62.633973 190.69595,62.617007 C 190.37234,62.864491 190.46091,63.332039 190.03849,63.483341 C 190.44698,63.647192 190.78534,64.287043 191.231,63.768316 C 191.71991,63.697421 192.09825,63.244611 192.57261,63.596633 C 193.35524,63.441583 193.38317,64.483944 193.02687,64.941137 C 192.73012,65.339717 192.88066,65.722504 193.11682,65.982338 C 192.65547,66.666865 193.8046,67.094796 193.5066,67.80748 C 193.6233,68.479413 194.67402,68.422994 194.92224,67.85288 C 195.79817,67.674276 195.3519,68.68902 195.20675,69.129458 C 194.71838,69.86747 196.15872,69.826658 196.03233,70.413936 C 196.03435,71.203054 195.36329,71.490493 194.79597,71.79605 C 194.56125,72.405454 194.56932,73.111679 194.49282,73.768675 C 194.65488,74.475337 193.76368,74.542131 193.31009,74.179218 C 192.7814,73.780634 192.02496,73.776438 191.51862,74.221873 C 190.99507,74.43673 190.38762,74.54426 189.85748,74.293686 z "
            id="Carrazeda_de_Ansiães" />
        <path style="fill:#ffefd5;fill-rule:evenodd;stroke:#b22222;stroke-width:0.25400001;stroke-opacity:1"
            d="M 206.10049,81.572685 C 206.6734,81.108698 206.72337,80.364539 207.33555,79.923886 C 207.36397,79.236864 207.09517,78.54344 207.1898,77.90484 C 207.39049,77.213247 205.7065,77.069715 206.46793,76.453355 C 206.99762,75.953586 207.57052,76.8963 208.18659,76.517464 C 208.72105,76.928627 209.23161,76.841629 209.77883,76.588818 C 210.37216,76.904564 211.02625,76.458173 211.55082,76.231016 C 211.66455,75.719807 212.46619,76.098373 212.51254,75.431413 C 212.96422,74.975239 213.71114,74.999062 214.10012,74.372221 C 214.47534,73.686668 215.56628,74.414807 215.62516,73.56935 C 215.76436,73.157186 216.55376,73.24397 216.04149,72.700017 C 215.89226,72.237286 215.79558,71.812525 215.42694,71.649122 C 215.41322,71.216923 215.57791,70.55249 215.62599,70.294057 C 216.33735,70.095763 216.86887,69.736101 216.86131,68.916352 C 217.06246,68.204996 217.7188,67.733947 218.22435,67.22993 C 218.73305,66.937364 219.36064,66.176241 219.52708,67.152757 C 220.35733,67.641364 220.2087,68.840735 221.18282,69.199219 C 221.42835,69.411238 222.1717,69.044434 221.84802,69.567008 C 221.66727,70.078204 221.53438,70.619876 221.32716,71.114349 C 220.40641,71.957773 219.5054,72.821085 218.66421,73.744663 C 218.40142,74.021115 218.13862,74.297568 217.87582,74.57402 C 218.22218,75.326102 218.6212,76.066728 218.93617,76.825691 C 218.29335,77.92963 217.66478,79.045025 217.01617,80.144691 C 216.74727,80.344238 216.39731,80.499551 216.18344,80.736051 C 216.12879,80.991056 216.14543,81.28242 216.05717,81.521019 C 215.51843,81.719587 214.98837,81.982731 214.44817,82.154686 C 213.10994,81.946798 211.77172,81.738909 210.4335,81.531021 C 210.25228,81.732765 210.15619,82.106938 209.82028,81.995351 C 209.21325,82.043657 208.62377,82.01386 208.04217,81.787927 C 207.6251,81.58518 207.18835,81.531767 206.86867,81.831243 C 206.61261,81.745057 206.35655,81.658871 206.10049,81.572685 z "
            id="Freixo_de_Espada_à_Cinta" />
        <path style="fill:#ffefd5;fill-rule:evenodd;stroke:#b22222;stroke-width:0.25400001;stroke-opacity:1"
            d="M 213.10748,56.004986 C 213.8316,55.465138 214.33701,54.404701 215.31649,54.302984 C 215.36144,55.077623 215.3986,56.345771 216.49349,55.678983 C 217.0172,55.052983 218.04438,55.2451 218.42859,54.466249 C 219.04137,54.332328 219.47771,54.206184 219.77849,53.632983 C 220.61724,54.448869 221.05077,53.410213 221.79099,53.039566 C 222.50025,52.39068 222.54284,51.613284 223.05683,50.756299 C 223.54195,49.63258 222.06774,49.163059 222.23526,48.0937 C 222.98637,47.395524 222.29887,46.172948 221.41882,46.951325 C 220.71248,46.938047 220.14706,46.629195 219.58306,46.994512 C 218.22655,46.632501 218.29206,45.230397 217.17095,44.553761 C 216.51389,44.099967 215.20359,44.118637 215.73646,42.971756 C 214.99876,42.43562 214.21513,43.351437 213.4971,43.515612 C 212.64396,42.88092 211.83539,43.655319 211.02841,43.519117 C 209.54824,43.849145 211.00988,41.794832 209.83016,41.337993 C 210.0043,40.333941 209.7134,39.27062 210.37316,38.313996 C 210.55915,37.65909 211.39935,37.39781 211.16419,36.526855 C 211.65153,35.143056 209.80231,35.777823 209.08903,35.908652 C 208.96054,36.545349 208.91577,37.123903 208.07349,36.829329 C 207.88181,35.860508 206.56398,36.178792 205.92701,35.50621 C 204.59449,35.359879 205.00971,37.714326 203.60298,37.653314 C 202.46792,37.577541 202.94484,35.479037 201.55323,36.133627 C 200.75896,35.816608 199.80883,35.466428 199.25762,35.16208 C 198.55573,35.735742 198.72685,36.823782 198.66834,37.446522 C 199.53115,37.849838 200.64228,38.75583 199.62529,39.569971 C 200.18119,40.208712 198.99152,41.193399 200.27832,41.393938 C 201.89549,41.487206 199.58425,43.417654 201.28976,43.891924 C 201.77132,44.477545 203.09397,43.357147 203.26887,44.209873 C 202.94413,45.130144 202.91207,46.228766 203.32743,46.955305 C 202.76031,47.849396 201.56376,48.615774 201.78945,49.681376 C 201.98307,50.727187 203.65041,49.999066 203.60999,51.33746 C 204.18732,52.0406 203.01099,52.411634 203.45616,53.108 C 204.41905,53.934828 201.887,55.076731 203.19451,55.548656 C 204.0108,55.231404 205.27478,55.307899 205.0855,54.08837 C 205.83504,53.390336 206.66381,52.733775 207.31908,51.919167 C 208.36965,50.878282 209.36968,52.416513 210.39495,52.836792 C 211.15733,53.39289 210.63151,55.140269 212.05716,55.172 C 212.451,55.38819 212.78894,55.691672 213.10748,56.004986 z "
            id="Macedo_de_Cavaleiros" />
        <path style="fill:#ffefd5;fill-rule:evenodd;stroke:#b22222;stroke-width:0.25400001;stroke-opacity:1"
            d="M 235.72049,59.634686 C 235.87793,59.256604 236.15446,59.120478 236.5501,59.226372 C 236.82491,59.183256 237.20242,59.407327 237.36101,59.072049 C 237.50423,58.854558 237.8289,58.709 237.90016,58.461353 C 237.63923,58.101745 237.36361,57.751455 237.09715,57.395355 C 237.4116,57.060912 237.72605,56.726468 238.0405,56.392025 C 238.52206,56.715571 239.00183,57.070069 239.48416,57.377026 C 240.01373,56.976757 240.59273,56.615753 241.09416,56.192024 C 240.83189,55.724739 240.48116,55.289504 240.1875,54.833691 C 240.51835,54.684259 240.8882,54.58238 241.20151,54.412357 C 241.46097,53.916678 241.78304,53.43495 242.01115,52.932362 C 241.89495,52.660147 241.59727,52.397881 241.57668,52.127201 C 242.19715,51.10213 242.76333,50.024058 243.4176,49.031976 C 243.64792,48.816797 244.10754,48.768109 244.16217,48.425362 C 243.8753,48.068633 243.86988,47.789797 244.34386,47.643641 C 244.64156,47.443379 244.98821,47.286461 245.26483,47.068363 C 245.58368,46.316654 245.82725,45.522836 246.19216,44.796894 C 246.54886,44.283611 246.99898,43.802507 247.29857,43.269556 C 247.17642,42.844974 246.79378,42.499001 246.56918,42.105338 C 246.38792,41.728671 245.88532,41.730958 245.5691,41.51399 C 245.17619,41.290419 244.63241,41.237793 244.4643,40.759538 C 244.15323,40.263641 243.85498,39.755241 243.53719,39.266041 C 242.54552,38.582672 241.55787,37.887117 240.56384,37.211037 C 239.50762,37.047592 238.45141,36.884148 237.39519,36.720703 C 237.16722,37.378714 236.5913,38.083766 237.01018,38.764618 C 237.2146,39.701822 237.39806,40.679275 237.75656,41.517611 C 236.55835,42.040964 236.94846,43.451936 236.36421,44.337968 C 236.00756,44.882915 235.52907,45.669104 236.41617,45.925436 C 236.41049,46.932095 237.29861,46.559754 237.91551,46.788368 C 238.36585,47.813439 237.85233,49.012209 237.0033,49.48874 C 236.34291,49.255423 235.07819,49.495226 235.47084,48.436031 C 235.23696,47.777143 234.3481,47.341271 234.72851,46.498694 C 234.08697,46.055819 233.17565,46.254226 232.73684,45.629361 C 232.30373,46.276157 232.04023,46.954382 232.15718,47.737361 C 231.72012,47.92405 230.90119,47.969698 231.6372,48.483043 C 232.41321,49.154428 232.52419,50.454605 231.91011,51.052979 C 232.08816,52.081296 230.89065,51.67912 230.51818,52.026947 C 230.334,52.689058 229.70254,51.290827 229.67926,52.242404 C 229.68284,53.211075 230.92533,53.796239 231.32451,54.629029 C 231.06266,55.929287 233.41224,55.372938 232.955,56.794173 C 232.64049,58.007931 234.44136,57.629621 234.62346,58.596294 C 234.5407,59.258528 235.30351,59.158571 235.7205,59.634701 L 235.72049,59.634686 z "
            id="Miranda_do_Douro" />
        <path style="fill:#ffefd5;fill-rule:evenodd;stroke:#b22222;stroke-width:0.25400001;stroke-opacity:1"
            d="M 190.21948,60.966686 C 189.23653,60.967097 188.47715,60.312945 187.6014,59.892177 C 186.77838,59.512635 186.63358,58.657846 187.13648,58.101518 C 186.51062,57.26262 186.31655,56.133276 186.63925,55.103127 C 186.9628,54.496994 186.06284,53.662542 187.13815,53.461437 C 188.03784,52.918967 188.66509,52.359168 189.77449,52.235361 C 189.54768,51.510967 189.73232,50.029977 190.34052,49.163867 C 190.63532,48.053278 192.20734,48.835042 193.01941,48.274984 C 193.91825,47.955865 192.74536,47.079381 192.63061,46.552138 C 192.05727,45.893787 191.64387,44.803272 192.08405,43.890394 C 191.45902,42.712139 192.90199,41.641594 192.44682,40.559354 C 192.66892,39.468595 193.45572,38.616773 193.76693,37.571378 C 194.57006,36.694381 193.68595,34.990521 194.89377,34.467933 C 195.03609,33.91096 195.53905,32.771144 195.86059,33.956767 C 196.49349,34.794223 197.63225,34.04619 198.11164,35.125968 C 199.08674,35.56102 198.62045,36.835112 198.66834,37.446549 C 199.53115,37.849866 200.64227,38.755859 199.62529,39.569998 C 200.18117,40.208742 198.99152,41.193427 200.27831,41.393965 C 201.89547,41.487238 199.58424,43.417678 201.28975,43.891951 C 201.77131,44.477573 203.09395,43.357174 203.26887,44.2099 C 202.94412,45.130168 202.91207,46.228793 203.32741,46.955332 C 202.7603,47.849426 201.56375,48.615802 201.78945,49.681403 C 201.98306,50.727213 203.65039,49.999095 203.60998,51.337487 C 204.18731,52.040629 203.01098,52.41166 203.45615,53.108027 C 204.07151,53.909493 202.86815,54.722326 202.59199,55.389235 C 201.6993,55.666239 200.7551,56.229871 199.87171,55.608661 C 198.78856,55.385902 199.11606,56.215016 199.26959,56.846812 C 199.20576,57.495398 198.1331,57.266375 198.12009,58.098557 C 197.45902,58.645685 196.85952,58.22061 196.50282,57.598692 C 195.85143,57.447837 194.90411,57.185661 194.25749,57.906359 C 193.44642,57.81711 194.07202,59.12755 193.15315,58.540025 C 192.7382,58.921472 192.56105,59.46758 192.3105,59.767509 C 191.31838,59.528411 190.69938,60.274433 190.21948,60.966686 z "
            id="Mirandela" />
        <path style="fill:#ffefd5;fill-rule:evenodd;stroke:#b22222;stroke-width:0.25400001;stroke-opacity:1"
            d="M 221.9455,69.266685 C 222.53993,68.627842 223.16365,68.004811 223.74184,67.357346 C 223.87559,67.024619 223.80419,66.302527 224.31344,66.682456 C 225.06411,66.968444 225.8982,66.90342 226.68325,67.044619 C 227.08228,67.089039 227.48957,67.216212 227.85194,66.965185 C 228.27317,66.776101 228.7973,66.739956 229.03851,66.287319 C 229.53051,65.739774 230.0225,65.192229 230.5145,64.644684 C 230.68546,64.858687 230.82219,65.142739 231.00684,65.329353 C 231.60026,65.031345 232.24004,64.783789 232.8085,64.457016 C 232.68788,64.132263 232.43408,63.84252 232.27083,63.529354 C 232.68262,63.257054 233.00473,62.765312 233.55254,62.825857 C 233.83782,62.771606 234.1675,62.798451 234.43517,62.714352 C 234.81442,62.148758 235.26033,61.603457 235.60616,61.028015 C 235.5843,60.628756 235.20707,60.162064 235.57607,59.838971 C 235.9875,59.26569 234.4966,59.29517 234.69595,58.816723 C 234.56592,57.897754 233.50647,57.914686 232.93583,57.345016 C 233.3079,56.147607 232.48387,55.619109 231.47956,55.316627 C 231.36185,54.263469 230.36728,53.60851 229.76466,52.724718 C 229.28322,51.87822 228.69191,52.697809 228.31621,52.744346 C 227.93195,52.518134 227.30166,52.577087 227.02099,52.170066 C 226.66506,52.53215 226.01434,52.141055 225.76516,52.528347 C 225.78449,51.778177 224.99087,51.215077 224.36333,51.635942 C 223.27167,51.498195 222.30419,52.380051 221.61626,53.225412 C 220.89819,53.491726 220.56913,54.427839 219.77883,53.63301 C 219.42666,54.535023 218.31784,54.155572 217.88026,55.020433 C 217.29236,55.215517 216.68344,55.396346 216.20446,55.778677 C 214.84481,56.445014 215.9682,53.918984 214.85221,54.404073 C 214.0423,55.027297 213.17585,55.750604 212.79345,56.732927 C 212.07648,57.137876 211.93567,57.991079 211.64636,58.615511 C 212.50512,58.8913 212.99878,60.7368 214.10416,59.662677 C 215.47058,59.5825 214.54234,60.935376 214.53633,61.655513 C 214.11284,62.743252 212.72494,62.125521 212.69149,63.508671 C 211.68117,64.115381 211.8648,65.359095 211.64149,66.217671 C 211.15428,66.246672 210.85477,66.930348 210.33238,66.191956 C 210.06704,66.371013 210.36155,67.246056 209.63149,67.376338 C 209.91991,68.507058 211.08566,68.336133 211.99231,68.369427 C 212.77091,68.047331 213.83118,68.519052 213.68116,69.297755 C 213.74272,69.453171 214.56371,69.526224 214.28516,70.147004 C 215.1595,70.062323 216.4487,70.601896 216.74714,69.396013 C 216.91923,68.061165 218.18407,67.29025 219.18149,66.561678 C 219.88563,67.288409 220.17967,68.277693 220.88624,69.005677 C 221.18047,69.30375 221.5658,69.288351 221.9455,69.266685 z "
            id="Mogadouro" />
        <path style="fill:#ffefd5;fill-rule:evenodd;stroke:#b22222;stroke-width:0.25400001;stroke-opacity:1"
            d="M 194.23949,74.420387 C 194.90432,73.680154 194.19383,72.316687 195.00537,71.617383 C 196.02924,71.487504 196.51568,69.878638 195.24377,69.68224 C 194.8954,68.824083 195.78165,68.016827 196.17682,67.394715 C 196.38528,66.873791 196.80219,66.206565 197.51682,66.561715 C 198.32651,66.299887 198.73016,67.360877 199.60295,67.313297 C 200.27776,67.414704 200.81948,67.986663 200.94102,66.943985 C 201.117,65.991448 200.60073,65.02128 201.43097,64.217438 C 201.68543,63.565094 201.65382,62.069743 202.58657,63.026531 C 203.61613,63.354495 204.03471,64.660331 204.8701,65.263564 C 205.81777,65.599994 206.48115,66.985133 207.5626,66.530114 C 208.48289,66.545247 209.52401,67.028559 209.91979,67.892751 C 210.53475,68.642844 211.70489,68.268958 212.58205,68.329766 C 213.43931,67.906729 213.70871,69.309723 213.78958,69.41958 C 214.57389,69.325632 213.9556,70.590552 214.93416,70.093667 C 216.15705,70.015134 215.04029,71.301498 215.62324,71.813042 C 215.79176,72.155783 216.68779,73.303595 215.71167,73.375 C 215.59706,74.445173 214.2086,73.719093 213.7547,74.684249 C 213.29118,75.215232 212.39087,75.051716 212.22234,75.896587 C 211.53441,75.841202 211.42869,76.605286 210.68849,76.539041 C 210.17849,76.926653 209.50074,76.385408 208.97882,76.846708 C 208.20579,76.468995 207.39934,76.524803 206.62958,76.322167 C 205.40641,77.012083 207.68884,77.243858 207.09582,78.078042 C 207.25439,78.901734 207.65097,79.999847 206.79587,80.542397 C 206.54377,81.157882 206.16683,81.923506 205.40082,81.265042 C 204.66534,81.197808 203.43357,81.408893 203.24346,80.283569 C 202.80833,79.125014 201.3874,78.899921 200.4505,78.277374 C 200.54924,77.307773 200.26302,76.322451 201.12752,75.605005 C 201.84289,74.491056 199.89001,74.116607 199.17604,74.501811 C 198.39208,73.782675 200.19693,73.579715 199.67345,72.738638 C 199.79522,72.158139 199.39667,70.907956 198.98985,72.006277 C 198.92614,72.960418 197.58084,72.940131 197.48769,73.932595 C 197.65104,75.221007 195.98253,75.319215 195.20867,74.709123 C 194.91405,74.539901 194.58369,74.416492 194.23949,74.420387 z "
            id="Torre_de_Moncorvo" />
        <path style="fill:#ffefd5;fill-rule:evenodd;stroke:#b22222;stroke-width:0.25400001;stroke-opacity:1"
            d="M 195.50749,68.191383 C 196.12811,67.878921 196.1149,67.282557 196.51678,66.832298 C 196.66141,66.206803 197.36677,66.675988 197.76341,66.442301 C 198.15879,66.474897 198.31121,66.941395 198.68791,66.896886 C 199.04297,67.47482 199.96068,67.123098 200.45388,67.623937 C 200.89689,67.685843 201.06652,66.595264 201.0129,66.148192 C 200.76357,65.572265 200.92853,64.834727 201.37191,64.332761 C 201.67317,63.701029 201.62895,62.994868 202.04051,62.464696 C 202.56969,62.318174 202.8907,61.689862 202.39941,61.357716 C 202.49479,60.644684 202.63117,59.904925 203.1339,59.418994 C 203.46181,58.98487 203.979,58.161276 203.02869,58.392656 C 203.0149,58.028308 202.94005,57.229343 203.02347,56.72326 C 202.69765,56.352015 202.1171,56.176191 202.15316,55.570385 C 201.50119,55.6251 200.88241,56.167733 200.23333,55.762401 C 199.88492,55.338757 198.58698,55.66438 199.16036,56.220716 C 199.50304,56.784705 199.1911,57.406469 198.50334,57.408939 C 198.36052,58.103517 197.73768,58.437117 197.02882,58.34105 C 196.9085,57.945252 196.56338,57.547272 196.22637,57.642765 C 195.68127,57.152845 194.89384,57.384145 194.3882,57.829508 C 194.01895,57.967812 193.59636,58.05701 193.77065,58.537369 C 193.55654,58.877956 193.09709,58.293831 192.96289,58.836268 C 192.55609,59.037772 192.54535,59.454751 192.4425,59.730607 C 191.89768,59.856058 191.30283,59.51813 191.01906,60.181722 C 190.5179,60.068447 190.4447,60.838945 190.27449,60.966717 C 190.65234,61.228706 191.78991,60.764719 191.33601,61.543559 C 191.24617,62.009326 191.32813,62.634013 190.69662,62.617047 C 190.37301,62.86453 190.46158,63.332078 190.03916,63.48338 C 190.44764,63.647242 190.78601,64.287073 191.23167,63.768355 C 191.72058,63.697456 192.09891,63.244652 192.57328,63.596671 C 193.3559,63.441628 193.38383,64.483983 193.02754,64.941176 C 192.73079,65.339756 192.88133,65.722544 193.11749,65.982377 C 192.65614,66.666904 193.80527,67.094835 193.50727,67.807519 C 193.62397,68.479452 194.67469,68.423033 194.92291,67.852919 C 195.20563,67.701569 195.44115,67.92989 195.50749,68.191383 z "
            id="Vila_Flor" />
        <path style="fill:#ffefd5;fill-rule:evenodd;stroke:#b22222;stroke-width:0.25400001;stroke-opacity:1"
            d="M 222.50549,52.329384 C 222.33887,51.349672 223.83011,50.39101 222.8181,49.498703 C 222.09561,48.836248 222.20128,47.903953 222.56148,47.145532 C 222.28993,46.734375 221.84907,46.342242 222.14949,45.834649 C 221.74761,45.137936 221.50239,44.324905 222.05903,43.692497 C 222.62737,43.194479 223.1576,42.72082 223.10528,41.906808 C 223.10297,41.310459 223.61058,41.100026 223.73551,40.512347 C 224.29558,39.836406 223.56073,39.154219 223.85199,38.36751 C 223.86976,37.945796 223.51201,37.561916 224.15609,37.728586 C 225.00919,37.429193 225.84901,37.480169 226.5075,38.116402 C 227.55147,38.571715 227.44486,37.376071 227.66788,36.798266 C 227.87831,36.483903 228.41706,35.682885 228.70674,36.475131 C 229.38052,36.76044 230.13236,36.982593 230.44204,37.717406 C 231.2328,38.077943 232.31056,37.326995 233.21649,37.238064 C 233.37066,36.5275 233.6432,35.943347 234.44602,36.306428 C 235.42945,36.440943 236.41363,36.570591 237.39484,36.72073 C 237.18074,37.352096 236.66074,38.013524 236.97974,38.690833 C 237.27321,39.565176 237.25002,40.518905 237.73531,41.273396 C 237.59881,42.028317 236.55666,42.264409 236.74339,43.202836 C 236.83774,44.11326 235.81054,44.67023 235.93122,45.559619 C 236.30646,45.881843 236.5185,46.182446 236.74782,46.64197 C 237.36661,46.600472 238.15908,46.674696 238.06609,47.554808 C 238.15035,48.29607 237.60215,49.275764 236.87662,49.482641 C 236.19378,49.381367 235.11329,49.273536 235.41632,48.316819 C 234.95743,47.768589 234.55981,47.032021 234.60489,46.422886 C 233.97706,46.232729 233.03641,45.925068 232.65733,45.751049 C 232.11784,46.31439 232.26338,47.306868 231.98656,47.808363 C 231.4371,47.837302 231.08592,48.291528 231.74783,48.575964 C 232.21874,49.125787 232.64579,50.266397 232.00967,50.74926 C 231.98263,51.471324 231.59921,51.980448 230.81355,51.890119 C 230.41794,52.065581 230.27904,52.327026 229.94377,51.944745 C 229.52606,52.015513 229.7276,52.790066 229.12111,52.363096 C 228.6398,52.183609 228.53094,53.156102 228.04048,52.599532 C 227.49043,52.621399 227.07306,52.014265 226.54133,52.31752 C 226.09063,52.25611 225.64064,52.730304 225.64278,52.021472 C 225.16159,51.150827 224.24679,51.672924 223.47017,51.734304 C 223.11224,51.862355 222.77635,52.061245 222.50549,52.329384 z "
            id="Vimioso" />
        <path style="fill:#ffefd5;fill-rule:evenodd;stroke:#b22222;stroke-width:0.25400001;stroke-opacity:1"
            d="M 198.74849,35.815384 C 199.0828,35.454465 199.38863,34.670601 199.76982,35.453052 C 200.62006,35.689183 201.41973,36.312714 202.38058,36.049495 C 202.76359,36.724306 203.07869,38.199329 204.22527,37.464892 C 204.91983,36.955309 204.84067,35.362507 205.92734,35.506266 C 206.56431,36.178846 207.88213,35.86057 208.07382,36.829385 C 208.76584,37.049977 209.0489,36.714787 209.00846,36.060235 C 209.6395,35.336946 211.04308,36.115279 211.59044,35.215511 C 211.56022,34.548887 212.74776,34.494024 212.00584,33.954553 C 211.33529,33.161548 210.3017,33.697128 209.46358,33.435369 C 208.33519,33.905893 208.28192,32.679908 208.31381,31.965718 C 207.31683,31.271546 208.76678,30.472097 208.55516,29.599228 C 209.30866,29.537422 210.43871,28.478589 209.20666,28.199873 C 208.97565,27.267612 207.92335,27.428643 207.39993,27.095257 C 207.49637,26.017569 208.82279,26.458925 209.57648,26.406633 C 210.32699,26.340858 210.10778,25.260028 210.58309,24.875425 C 211.03854,23.960195 211.1141,22.996517 210.23455,22.331373 C 209.50875,21.548334 209.99764,20.368814 210.53986,19.63528 C 210.46696,19.30655 211.48721,18.730395 210.84111,18.780512 C 209.89868,18.716358 208.95624,18.652204 208.01381,18.588051 C 207.79211,18.153515 207.60255,17.687899 207.36548,17.268713 C 206.81953,17.026524 206.26974,16.736007 205.72581,16.520046 C 205.38591,17.053777 205.05279,17.592428 204.71548,18.128042 C 204.02606,18.12314 203.32788,17.964275 202.64389,18.054057 C 202.17653,18.137275 201.70917,18.220493 201.24181,18.303711 C 200.9935,17.805393 200.76934,17.286313 200.5088,16.79871 C 200.02645,16.484342 199.54707,16.158906 199.06316,15.85071 C 198.53405,15.783962 197.98931,15.6745 197.46848,15.629377 C 197.26975,15.899808 197.07356,16.172195 196.87581,16.443377 C 196.57829,16.386758 196.27434,16.290097 195.98013,16.251375 C 195.76087,16.416693 195.43101,16.49512 195.25414,16.693043 C 195.25669,17.459651 195.23601,18.231257 195.25414,18.995045 C 195.48059,19.508488 195.70704,20.021931 195.93349,20.535374 C 195.6187,21.39104 195.30392,22.246707 194.98914,23.102373 C 194.57914,23.181511 194.37727,23.352978 194.65614,23.737707 C 195.49736,24.412041 194.22693,25.298592 194.49112,26.192392 C 194.15135,26.833428 194.66805,27.494962 194.40281,28.155706 C 194.82679,28.720596 195.15724,29.173212 195.13748,29.861165 C 195.25392,30.61834 196.81206,30.579551 196.21348,31.614373 C 195.87376,32.045091 196.69575,33.131177 195.66711,33.300049 C 195.36992,33.595425 196.51166,34.859812 197.25158,34.404881 C 197.77158,34.769136 198.38146,35.266064 198.74849,35.815384 z "
            id="Vinhais" />        
    </g>
    <!-- EO MUNICIPIOS -->
</svg>