<?xml version="1.0" encoding="UTF-8" standalone="no"?>
<!-- Creator: CorelDRAW -->
<svg xmlns:dc="http://purl.org/dc/elements/1.1/" xmlns:cc="http://web.resource.org/cc/"
    xmlns:rdf="http://www.w3.org/1999/02/22-rdf-syntax-ns#" xmlns:svg="http://www.w3.org/2000/svg"
    xmlns="http://www.w3.org/2000/svg" xmlns:sodipodi="http://inkscape.sourceforge.net/DTD/sodipodi-0.dtd"
    xmlns:inkscape="http://www.inkscape.org/namespaces/inkscape" xml:space="preserve" width="250" height="366"
    style="shape-rendering:geometricPrecision; text-rendering:geometricPrecision; image-rendering:optimizeQuality; fill-rule:evenodd; clip-rule:evenodd"
    viewBox="0 0 200 200" id="svg1627" sodipodi:version="0.32" inkscape:version="0.43"
    sodipodi:docname="Mapa_de_Portugal.svg" sodipodi:docbase="C:\Documents and Settings\Márcio Silva\Os meus documentos"
    version="1.0">
    <metadata id="metadata1927">
        <rdf:RDF>
            <cc:Work rdf:about="">
                <dc:format>image/svg+xml</dc:format>
                <dc:type rdf:resource="http://purl.org/dc/dcmitype/StillImage" />
                <dc:title>Munícipios de Portugal</dc:title>
                <cc:license rdf:resource="http://creativecommons.org/licenses/GPL/2.0/" />
                <dc:creator>
                    <cc:Agent>
                        <dc:title>Rei-artur (rei.artur@gmail.com)</dc:title>
                    </cc:Agent>
                </dc:creator>
            </cc:Work>
            <cc:License rdf:about="http://creativecommons.org/licenses/GPL/2.0/">
                <cc:permits rdf:resource="http://web.resource.org/cc/Reproduction" />
                <cc:permits rdf:resource="http://web.resource.org/cc/Distribution" />
                <cc:requires rdf:resource="http://web.resource.org/cc/Notice" />
                <cc:permits rdf:resource="http://web.resource.org/cc/DerivativeWorks" />
                <cc:requires rdf:resource="http://web.resource.org/cc/ShareAlike" />
                <cc:requires rdf:resource="http://web.resource.org/cc/SourceCode" />
            </cc:License>
        </rdf:RDF>
    </metadata>

    <sodipodi:namedview inkscape:window-height="582" inkscape:window-width="866" inkscape:pageshadow="2"
        inkscape:pageopacity="0.0" borderopacity="1.0" bordercolor="#666666" pagecolor="#ffffff" id="base"
        fill="#ffff00" inkscape:zoom="1.1338798" inkscape:cx="125" inkscape:cy="211.12313" inkscape:window-x="28"
        inkscape:window-y="117" inkscape:current-layer="layer7" showguides="true" inkscape:guide-bbox="true">
        <sodipodi:guide orientation="horizontal" position="329.9602" id="guide2648" />
        <sodipodi:guide orientation="horizontal" position="307.74672" id="guide2650" />
    </sodipodi:namedview>

    <defs id="defs1629">
        <metadata id="CorelCorpID_0Corel-Layer" />
        <sodipodi:namedview inkscape:guide-bbox="true" showguides="true" inkscape:current-layer="layer1"
            inkscape:window-y="-4" inkscape:window-x="-4" inkscape:cy="327.60442" inkscape:cx="146.08303"
            inkscape:zoom="17.548964" fill="#fa8072" id="namedview5974" pagecolor="#ffffff" bordercolor="#666666"
            borderopacity="1.0" inkscape:pageopacity="0.0" inkscape:pageshadow="2" inkscape:window-width="1024"
            inkscape:window-height="712" />
    </defs>

    <!-- <g inkscape:groupmode="layer" id="layer3" inkscape:label="fundo" style="display:inline" sodipodi:insensitive="true">
        <rect style="fill:#4169e1;fill-opacity:1;fill-rule:evenodd;stroke:none;display:inline" id="rect2247" width="200" height="200" />
    </g> -->

    <g inkscape:groupmode="layer" id="layer10" inkscape:label="----detalhes----" style="display:inline" />

    <!-- MUNICIPIOS -->
    <g inkscape:groupmode="layer" id="layer4" inkscape:label="Municipios" style="display:inline"
        sodipodi:insensitive="true" transform="translate(-352, -47) scale(3.3)">
        <path style="fill:#ffefd5;fill-rule:evenodd;stroke:#b22222;stroke-width:0.25400001;stroke-opacity:1"
            d="M 134.81049,36.593685 C 134.44283,36.772255 134.03548,36.975647 134.02244,37.425503 C 133.85634,37.826371 133.51521,38.12051 133.16611,38.356767 C 132.97458,38.765901 132.62979,38.167996 132.46854,38.61728 C 132.13869,38.904808 132.94613,39.592233 132.26322,39.62847 C 131.79963,39.443815 131.74753,39.966126 131.78724,40.25793 C 131.65547,40.592786 131.74428,40.987435 131.47516,41.265181 C 131.54306,41.649165 131.35607,42.041297 131.09849,42.334015 C 131.13793,42.55181 131.62043,42.402531 131.77582,42.660015 C 132.07494,42.445611 132.44021,41.943777 132.77746,42.413493 C 133.23953,42.77207 133.23859,41.785331 133.67773,41.866395 C 134.09289,42.069181 134.52948,41.748268 134.93914,41.65095 C 135.25276,41.972674 135.74008,41.917087 135.99591,41.548839 C 136.35671,41.340823 136.84029,41.297331 136.95087,40.806452 C 136.95589,40.465007 137.02508,39.857637 137.46193,39.768618 C 137.72767,39.636614 137.98657,39.429882 138.30994,39.424753 C 138.77849,39.246074 139.25366,39.320021 139.71807,39.143164 C 140.09463,38.918387 140.47405,39.276216 140.87649,39.219348 C 141.0943,38.723891 140.39502,38.483039 140.44441,37.969502 C 140.28436,37.764177 140.37446,37.265467 140.07982,37.209348 C 140.09489,37.794229 139.44841,37.370455 139.24484,37.141343 C 138.90924,36.794602 139.38525,36.526371 139.64365,36.469537 C 139.68895,36.093911 139.24399,35.836083 139.05787,36.248494 C 138.82559,36.590681 138.44922,36.864443 138.04971,36.828263 C 137.74303,37.067979 137.24255,36.542307 137.07382,37.090016 C 136.81469,37.508998 136.35404,37.544563 135.95526,37.351162 C 135.625,37.296392 135.51051,36.909337 135.12977,36.93834 C 134.96559,36.88598 134.83963,36.758821 134.81049,36.593685 z "
            id="Amares" />
        <path style="fill:#ffefd5;fill-rule:evenodd;stroke:#b22222;stroke-width:0.25400001;stroke-opacity:1"
            d="M 125.50349,41.029984 C 125.76867,41.735329 125.60589,42.468496 125.60307,43.181166 C 125.61278,43.993568 126.38345,44.709608 127.09716,43.999655 C 127.4469,44.356717 127.91216,45.008376 127.14998,45.172228 C 126.95211,45.651269 127.91885,46.200118 127.94666,46.760234 C 128.24134,47.6465 126.60368,47.895803 127.03047,48.620409 C 127.81616,49.521199 125.97602,49.490582 126.3036,50.406099 C 126.41255,50.913908 127.09843,51.7131 126.15054,51.631876 C 125.91043,52.132367 125.65184,51.641586 125.43003,51.657056 C 125.24237,52.218983 124.06712,51.583637 124.44874,52.249537 C 124.84266,52.683004 125.75809,53.334401 124.87936,53.769307 C 124.60056,54.387944 124.23163,54.906856 123.57283,55.138239 C 123.15635,54.716263 122.51976,54.181278 121.9168,54.665249 C 121.3866,54.990744 121.14174,56.326191 120.46982,55.497989 C 119.39929,55.71506 119.74216,54.337707 119.0465,53.886977 C 118.53517,53.200077 117.75725,53.514862 117.13782,53.777989 C 116.9494,53.05744 116.24116,52.87531 115.63161,52.97853 C 115.06364,52.626566 114.51217,51.940728 115.12278,51.343709 C 115.26382,50.769767 116.00126,49.608213 116.37741,50.647616 C 117.15194,51.220945 117.32787,49.524437 116.77582,49.23299 C 116.81124,48.56304 116.61044,47.678905 115.75293,47.950274 C 115.25887,47.45975 116.28582,46.901659 115.98095,46.244237 C 116.13834,45.442081 116.30011,44.581573 115.50207,44.100976 C 115.42674,43.381925 116.12813,42.731517 116.11465,41.951936 C 116.16333,41.501381 115.41074,41.415794 115.88445,40.90795 C 116.11181,40.013812 116.97205,41.056607 117.24332,40.250309 C 117.82835,39.938134 118.53731,40.163323 119.10622,40.051678 C 119.41088,40.248019 119.5494,40.352577 119.69021,40.647127 C 120.68072,40.807501 119.59659,39.583922 120.21616,39.219325 C 120.76056,39.181999 120.91984,39.641222 121.04624,39.910194 C 121.842,39.866054 122.27669,41.023611 122.90049,40.106273 C 123.75921,39.513357 123.7774,41.06831 124.38095,41.289576 C 124.84009,41.778566 125.05183,41.039752 125.50349,41.029984 z "
            id="Barcelos" />
        <path
            style="fill:#ffefd5;fill-opacity:1;fill-rule:evenodd;stroke:#b22222;stroke-width:0.25400001;stroke-opacity:1"
            d="M 127.62249,44.923386 C 128.22111,44.912709 128.04761,44.004578 128.62732,43.801836 C 128.76863,43.221272 129.50205,43.47644 129.79269,43.0212 C 130.05349,42.391698 130.82363,42.650424 131.3023,42.446111 C 131.66349,42.592155 131.9357,42.710821 132.19907,42.313354 C 132.56777,41.933759 133.03886,42.936951 133.26017,42.204256 C 133.52034,41.590078 134.25622,42.146243 134.7278,41.715861 C 135.1291,41.618309 135.52136,42.093293 135.91582,41.700048 C 135.92908,42.16738 136.26877,42.613149 136.18552,43.06331 C 135.73476,43.346981 135.446,44.024076 136.19478,44.121916 C 136.71628,44.281501 137.31928,44.399967 137.38688,45.068021 C 137.73293,45.388222 138.4223,45.495156 138.1026,46.115084 C 137.9127,46.586343 137.66207,47.145758 137.06123,46.924101 C 136.41455,46.65034 137.07901,47.898572 136.48611,47.400348 C 136.0864,46.889114 135.38488,47.489075 134.85598,47.353049 C 134.35087,47.481447 133.75907,47.564538 133.63332,48.165339 C 133.11362,48.564847 133.31207,49.188061 133.25382,49.758045 C 133.60071,50.471201 132.62523,50.77242 132.35785,51.13239 C 132.26573,51.789765 131.53483,51.773826 131.17439,52.198221 C 130.8023,52.626232 130.22803,51.223329 129.83495,52.058838 C 129.27013,52.233776 128.85223,51.536742 128.28088,51.460877 C 127.8235,51.226124 127.08615,51.612529 126.71715,51.351379 C 126.39046,50.864928 125.96133,49.937304 126.68596,49.598328 C 127.3775,49.477918 127.26111,48.765601 126.90096,48.396587 C 127.04818,47.879596 127.7688,47.725924 127.90004,47.180176 C 128.16609,46.5217 127.50567,46.118615 127.23743,45.591779 C 126.803,45.16385 127.26705,45.11008 127.62249,44.923386 z "
            id="Braga" />
        <path
            style="fill:#ffefd5;fill-opacity:1;fill-rule:evenodd;stroke:#b22222;stroke-width:0.25400001;stroke-opacity:1"
            d="M 153.31648,42.170986 C 152.67696,42.362004 152.27731,42.839351 151.84422,43.284542 C 151.2851,43.524084 150.66454,43.814119 150.60016,44.495985 C 150.31111,44.782431 149.91203,45.37686 150.40116,45.683651 C 150.34717,46.012851 149.79465,45.84123 149.93646,46.292912 C 150.1035,46.805712 150.5766,47.180527 150.60018,47.749378 C 150.61337,48.319332 150.53437,48.888787 150.47892,49.46063 C 150.48134,50.036266 150.00956,50.25766 150.09316,50.844318 C 150.3829,51.049204 150.6508,51.152492 150.97733,51.062422 C 151.27667,51.305261 151.55836,51.523305 151.92216,51.278984 C 152.32185,51.821431 153.25141,50.773252 153.22361,51.73789 C 153.48636,52.512403 154.38475,52.538178 155.00049,52.872317 C 155.607,52.890924 155.99949,53.715895 156.58598,53.469237 C 156.2698,52.885212 156.80291,52.52823 156.7696,51.922345 C 156.75309,51.555467 156.69985,51.347391 157.07937,51.188052 C 157.28537,50.599467 157.84582,50.377941 158.38649,50.681318 C 159.06049,50.344433 158.85159,49.653447 158.93994,49.089385 C 159.23972,49.190139 159.90165,49.174042 160.38609,49.142726 C 160.97658,48.986942 160.2324,47.926397 161.02114,47.918785 C 161.32513,47.63864 161.69935,47.428317 161.95399,47.113402 C 161.66167,46.746292 162.68842,46.502153 161.97183,46.480652 C 161.78542,45.674563 163.08104,46.209523 162.88659,45.409443 C 163.5842,45.099675 163.22135,44.132127 162.85733,43.679414 C 162.43937,43.089403 162.11625,42.385937 161.48283,41.989985 C 160.95271,41.904849 161.21386,42.866701 160.63183,42.913318 C 160.34566,43.375938 159.67129,43.988251 159.1683,43.48738 C 158.8783,43.610935 158.51202,44.199512 158.1242,43.681037 C 157.58953,43.834205 157.14494,43.058594 156.6375,43.510984 C 156.29444,43.1334 155.81182,43.835089 155.58496,43.234359 C 155.43295,42.549366 154.61107,42.638526 154.18292,42.989062 C 153.64087,42.967057 153.57195,42.544828 153.31648,42.170986 z "
            id="Cabeceiras_de_Basto" />
        <path
            style="fill:#ffefd5;fill-opacity:1;fill-rule:evenodd;stroke:#b22222;stroke-width:0.25400001;stroke-opacity:1"
            d="M 154.91049,58.521984 C 155.11849,58.193351 155.2798,57.457138 154.97647,57.276974 C 154.63097,57.636182 154.4714,57.027573 154.87449,56.964652 C 154.75902,56.630988 154.90582,56.516465 155.17149,56.729318 C 155.66987,56.512556 154.98786,55.83422 155.55778,55.577334 C 155.87697,55.229899 156.34306,54.82458 156.62233,54.619246 C 156.46144,54.19748 156.92102,53.264352 156.12382,53.506319 C 155.7132,53.10666 155.18185,52.90778 154.65998,52.718283 C 154.10914,52.530899 153.43306,52.356271 153.22427,51.737891 C 153.26071,51.16864 152.75593,51.252069 152.37034,51.464815 C 152.07135,51.37188 151.79892,51.21953 151.49143,51.413564 C 151.18136,51.140316 150.85678,50.997475 150.46349,51.079653 C 150.00867,50.439649 149.30793,51.653436 149.77505,52.036534 C 150.267,52.53299 149.35956,52.873588 149.35149,53.361324 C 149.01636,53.729597 148.06113,53.852622 148.4072,54.565226 C 148.56784,55.192217 147.66417,54.814657 147.7646,55.412887 C 147.97552,55.954085 147.90271,56.467412 147.7568,57.011617 C 147.60672,57.337505 147.23279,57.739121 147.47746,58.227258 C 147.32997,58.553607 146.58145,58.434368 146.34645,58.666502 C 146.00019,58.95003 145.9126,59.659777 146.44907,59.673602 C 146.85848,59.85706 146.57557,60.528302 147.14928,60.510154 C 147.32939,60.712918 147.36104,60.769988 147.55882,60.622321 C 147.9938,61.053987 148.72803,61.048726 148.98201,61.635457 C 149.63477,61.7673 149.32482,60.859675 149.88441,60.87828 C 150.2396,60.705074 150.31594,61.490771 150.75459,61.455086 C 151.03319,61.882118 151.44702,62.399696 152.02294,62.359174 C 152.33462,62.306739 152.52916,62.081757 152.41182,61.744988 C 153.18575,61.846817 152.98569,60.750419 153.68073,60.740446 C 154.32897,60.608173 154.01478,59.76476 154.46229,59.398046 C 154.53269,59.082962 154.79317,58.757927 154.91049,58.521984 z "
            id="Celorico_de_Basto" />
        <path style="fill:#ffefd5;fill-rule:evenodd;stroke:#b22222;stroke-width:0.25400001;stroke-opacity:1"
            d="M 114.80249,52.093987 C 114.89855,51.688728 115.14328,51.318041 115.2924,50.940746 C 115.509,50.611669 115.67104,50.134451 116.1063,50.20781 C 116.21899,50.617157 116.79307,51.112771 117.02495,50.503475 C 117.10477,50.086092 117.16071,49.559608 116.81221,49.241186 C 116.67936,48.885531 116.82595,48.048917 116.30679,47.953663 C 115.94954,48.024819 115.40112,47.976146 115.66019,47.48671 C 115.69429,47.133896 116.18595,46.862992 115.9765,46.418815 C 116.03627,45.929335 116.09058,45.440306 116.11748,44.940745 C 116.19235,44.442018 115.34891,44.359355 115.43616,43.800652 C 115.67975,43.452099 115.77773,43.039943 115.95797,42.662415 C 116.0199,42.333793 116.27081,41.873943 115.9998,41.601944 C 115.7101,41.157693 115.23072,41.746536 114.93737,41.390413 C 114.59813,40.919802 114.37519,41.551441 114.33029,41.856986 C 113.96742,42.043067 113.48348,41.782257 113.14644,41.938876 C 112.75757,42.019741 112.42534,42.250761 112.03827,42.348893 C 111.93384,42.420522 111.65492,42.372816 111.70976,42.553382 C 111.75122,42.987038 111.74752,43.428315 111.81758,43.857149 C 112.0969,44.879859 112.39175,45.900181 112.66137,46.924383 C 112.68661,47.67303 112.73117,48.421657 112.68381,49.170384 C 112.6873,49.409495 112.64765,49.657058 112.67149,49.891655 C 112.93683,50.392545 113.20216,50.893435 113.46749,51.394325 C 113.44427,51.54877 113.42104,51.703214 113.39782,51.857658 C 113.70063,51.906474 114.02332,51.904395 114.2777,52.102451 C 114.45601,52.232706 114.62809,52.157119 114.80249,52.093987 z "
            id="Esposende" />
        <path
            style="fill:#ffefd5;fill-opacity:1;fill-rule:evenodd;stroke:#b22222;stroke-width:0.25400001;stroke-opacity:1"
            d="M 143.62949,46.570984 C 144.05775,46.87267 144.85222,47.328993 145.15782,46.625318 C 145.49229,46.29219 145.8378,46.716437 146.08369,46.747422 C 146.2359,46.108382 147.05389,46.41753 147.39745,46.630402 C 147.74932,46.580274 147.8073,45.931062 148.31407,46.13461 C 148.77363,46.133414 148.82525,45.430166 149.35149,45.701984 C 149.65999,45.248533 150.08493,45.462943 149.96607,45.996546 C 149.77023,46.561245 150.45661,46.882364 150.49216,47.403984 C 150.75539,47.89981 150.51412,48.452846 150.53499,48.978402 C 150.51698,49.579657 150.35277,50.08226 150.09382,50.477707 C 150.18831,51.059425 149.17144,51.549063 149.84009,52.130687 C 150.15685,52.633414 149.32033,52.927807 149.31395,53.418071 C 148.89073,53.711759 148.06431,53.937825 148.41586,54.64057 C 148.48344,55.207136 147.65851,54.814824 147.76461,55.412884 C 147.97551,55.954084 147.90271,56.467409 147.7568,57.011614 C 147.60635,57.337495 147.23113,57.739824 147.47746,58.227255 C 147.24732,58.471926 146.54846,58.686524 146.13134,58.443714 C 145.59022,58.345853 145.08487,58.009311 145.17204,57.392212 C 145.25027,56.73042 144.45761,56.775 144.18368,56.808566 C 144.11074,56.300226 143.78278,55.971188 143.2644,56.167087 C 142.61563,56.070872 142.05293,55.892936 141.4174,56.056184 C 141.08961,56.041809 140.42471,56.025011 140.66626,55.555972 C 141.09894,55.499922 142.02002,55.553351 142.0422,54.974723 C 142.03326,54.40665 141.11234,54.286581 141.18527,53.692086 C 141.35655,53.253592 141.41948,52.843153 141.36828,52.41184 C 141.72946,51.843721 142.46671,51.382452 142.14864,50.592044 C 142.08396,50.061153 141.76867,49.78214 141.30245,49.633076 C 140.89393,49.166049 141.35264,48.593049 141.52188,48.118387 C 141.69709,47.627872 141.59851,46.902196 142.32324,46.851241 C 142.73706,46.591138 143.19607,46.721861 143.62949,46.570984 z "
            id="Fafe" />
        <path
            style="fill:#ffefd5;fill-opacity:1;fill-rule:evenodd;stroke:#b22222;stroke-width:0.25446281;stroke-opacity:1"
            d="M 143.06405,45.144604 C 142.76323,45.20688 143.0986,45.798597 142.65706,45.80205 C 142.38918,45.317053 142.27662,46.136204 141.87439,46.115119 C 141.21622,46.088727 141.89822,46.765059 141.64712,46.949332 C 141.26348,47.377356 141.13184,48.123714 140.54042,48.308967 C 139.7797,48.44145 140.25933,46.844946 139.79281,47.126174 C 139.59309,47.530232 139.21036,47.347848 139.05676,47.774387 C 138.58821,48.027451 138.07014,48.146574 138.00117,47.491003 C 137.94163,46.977496 136.76811,46.52393 136.73923,47.184728 C 136.86683,47.998764 136.09377,46.841967 135.67713,47.247599 C 135.04077,47.449581 134.27482,47.254118 133.79676,47.840633 C 133.23904,48.469132 133.16053,49.280082 133.32571,50.088322 C 133.13489,50.790288 132.20073,50.962902 132.01357,51.660859 C 131.56617,51.840495 130.63828,52.353304 131.41445,52.802844 C 131.77288,53.270399 132.24755,53.785539 132.79538,53.816626 C 132.75863,54.21636 132.35496,54.834361 133.04189,54.916471 C 133.42448,55.135697 134.43066,55.32126 133.77133,55.923086 C 133.14688,56.519004 133.96171,57.164814 133.85981,57.792607 C 133.62849,58.302943 132.79846,58.82924 133.13975,59.420567 C 133.52429,59.401445 133.84241,58.940785 134.24975,59.294622 C 134.93755,59.441308 135.45175,58.818248 136.01999,58.543973 C 136.37888,58.440623 136.6939,58.5464 136.39567,58.230904 C 136.60981,57.780119 136.81099,57.26788 137.02181,56.790785 C 137.43757,56.0212 137.83316,56.979042 138.13988,57.279445 C 138.58753,57.701715 139.24746,57.908876 139.83944,58.043062 C 140.22166,57.904546 139.80759,57.136999 140.49754,57.263109 C 140.96741,57.183171 141.74781,57.490734 142.04729,57.082402 C 141.83916,56.59452 142.63835,55.832026 141.70749,55.993671 C 141.35898,56.023399 140.61692,56.191979 140.6482,55.653846 C 140.99015,55.458495 142.41102,55.532743 141.93799,54.676794 C 141.37525,54.302786 140.94852,53.722624 141.35432,53.054072 C 141.08808,52.125527 142.19605,51.834095 142.19306,51.010976 C 142.20992,50.343792 141.87556,49.824567 141.29615,49.604449 C 140.96808,49.065105 141.38543,48.456079 141.57894,47.954205 C 141.54422,47.281627 142.00142,46.845838 142.59445,46.709951 C 142.92166,46.70732 144.0213,46.671187 143.31451,46.271654 C 143.26204,45.915748 143.77994,45.427173 143.2832,45.144604 C 143.21015,45.144604 143.1371,45.144604 143.06405,45.144604 z M 136.58352,58.450052 C 136.56736,58.546202 136.67966,58.43389 136.58352,58.450052 z M 136.64613,58.512666 L 136.67744,58.543973 L 136.64613,58.512666 z "
            id="Guimarães" />
        <path
            style="fill:#ffefd5;fill-opacity:1;fill-rule:evenodd;stroke:#b22222;stroke-width:0.25400001;stroke-opacity:1"
            d="M 135.87949,41.681984 C 135.98024,42.080839 136.15678,42.546092 136.22376,42.967462 C 136.07813,43.304124 135.31496,43.722699 135.94282,44.018458 C 136.37851,44.315746 137.03699,44.164796 137.27382,44.723989 C 137.20253,45.345866 138.17388,45.254166 138.16256,45.762302 C 138.20212,46.245093 137.75607,46.588755 137.66375,46.99763 C 138.01935,47.299875 138.0133,47.662512 138.25149,48.073985 C 138.58823,47.834218 139.27164,47.896164 139.34199,47.421214 C 139.76141,47.619188 139.80753,46.641826 140.02046,47.174021 C 139.97501,47.636848 140.00946,48.370108 140.62686,48.319266 C 141.071,48.036654 141.26755,47.506001 141.55992,47.08569 C 141.82024,46.876421 141.87154,46.652815 141.51082,46.516655 C 141.48856,45.920257 142.31218,46.244585 142.30699,45.723394 C 142.46342,45.257382 142.74988,46.194816 142.83991,45.66154 C 143.06844,45.445696 142.73033,45.144233 143.16571,45.155948 C 143.73917,45.110558 143.4306,45.995133 143.24016,46.211198 C 143.60986,46.494691 143.94704,46.871353 144.46303,46.98578 C 144.99116,47.247301 145.03601,46.391162 145.55047,46.517692 C 146.20985,46.642701 145.55599,45.929886 145.37166,45.73099 C 145.32288,45.377037 145.54629,45.00906 145.34982,44.651659 C 145.66331,44.436795 145.91874,43.87795 145.61227,43.560669 C 145.17621,43.380015 144.6805,43.398364 144.21873,43.419404 C 143.78884,43.44382 143.31855,43.756007 142.93049,43.456659 C 143.00862,42.957299 142.8966,42.416149 143.288,42.024601 C 143.73632,41.521474 142.88869,41.353016 142.70309,40.970525 C 142.55414,40.352896 141.76989,40.546655 141.54908,41.017533 C 141.13605,41.399681 140.54127,40.941987 140.33605,40.531325 C 139.98583,40.150115 140.22812,39.62348 140.07141,39.1734 C 139.80656,38.899977 139.27608,39.458654 138.86716,39.255655 C 138.40669,39.472445 137.85348,39.437702 137.4626,39.768592 C 136.94196,39.887977 137.00958,40.588586 136.89067,40.959065 C 136.69686,41.448243 136.13557,41.279698 135.87949,41.681984 z "
            id="Póvoa_de_Lanhoso" />
        <path style="fill:#ffefd5;fill-rule:evenodd;stroke:#b22222;stroke-width:0.25400001;stroke-opacity:1"
            d="M 140.8765,39.219383 C 140.93617,38.588902 140.28325,38.076645 140.26168,37.381203 C 140.07038,36.879381 140.01614,37.885984 139.60311,37.414177 C 139.00765,37.231808 139.03788,36.486176 139.64366,36.469574 C 139.57747,35.613375 138.92317,36.318048 138.66066,36.671469 C 138.10283,37.108694 137.32297,36.505952 136.94718,37.216337 C 136.30109,37.886054 135.62605,36.999059 134.9794,36.860548 C 134.43692,36.154944 135.84231,36.146313 136.17628,35.787761 C 136.59943,35.417848 136.81295,35.029395 136.99278,34.562228 C 137.43997,34.515819 137.80067,34.284486 137.33928,33.897918 C 137.17337,33.293177 137.5072,32.672126 137.15114,32.063673 C 137.71886,31.94602 138.36428,31.472951 138.86128,31.011518 C 139.53941,30.762101 140.37373,30.626055 140.88845,30.0933 C 141.62377,30.12812 142.07378,29.461598 142.47016,28.916382 C 142.92255,28.807372 143.17606,28.230621 143.68232,28.490256 C 144.0369,28.398252 144.82438,29.150201 144.90055,28.275342 C 144.92367,27.940363 145.13554,27.898309 145.42467,27.976151 C 145.76762,27.99019 146.03478,28.263251 146.34785,28.381079 C 146.57386,28.496872 146.79244,28.673658 147.04966,28.533477 C 147.43751,28.448169 147.81925,28.298659 148.22221,28.376748 C 148.57468,28.383535 148.93903,28.470492 149.26323,28.286535 C 149.57048,28.185965 149.88026,28.050626 150.18616,27.969381 C 150.43785,28.080628 150.68453,28.172373 150.82974,27.870196 C 151.05901,27.642435 151.03491,28.466976 151.2025,28.582329 C 151.3646,29.148312 150.46279,29.019933 150.43416,29.650434 C 150.12582,30.022366 150.33333,30.616503 150.23662,31.102217 C 150.72601,31.87654 149.52827,32.206616 149.49071,32.910759 C 149.42569,33.597528 149.36345,34.318624 149.02483,34.964044 C 148.87307,35.773151 147.94333,35.715458 147.55858,36.336458 C 147.4618,36.962165 146.67808,36.785583 146.29302,37.202929 C 145.67055,37.093635 144.80497,37.102732 144.47545,37.721961 C 143.79541,37.90541 144.0558,39.203084 143.10595,39.188295 C 142.39214,39.462912 141.67025,39.247535 140.94103,39.221855 L 140.87649,39.219378 L 140.8765,39.219383 z "
            id="Terras_de_Bouro" />
        <path
            style="fill:#ffefd5;fill-opacity:1;fill-rule:evenodd;stroke:#b22222;stroke-width:0.25400001;stroke-opacity:1"
            d="M 146.08849,46.741684 C 145.66537,46.72728 145.93825,46.043095 145.47298,45.867538 C 145.1543,45.512075 145.6365,45.04994 145.34982,44.651688 C 145.95069,44.314245 145.82734,43.252416 145.01663,43.433844 C 144.37278,43.230862 143.68954,43.69565 143.07183,43.527646 C 142.78386,43.114854 143.00886,42.287415 143.39416,41.881354 C 143.48389,41.342156 142.63392,41.231167 142.55262,40.69675 C 141.91734,40.126289 141.6363,41.398007 141.04016,41.102687 C 140.5046,41.002902 140.10552,40.361211 140.13809,39.842487 C 140.23243,39.522579 139.79858,38.818877 140.36982,39.154213 C 140.98589,39.248581 141.62252,39.259216 142.23427,39.337762 C 142.79447,39.256988 143.51781,39.23317 143.84887,38.705737 C 143.99876,38.228624 144.14147,37.727197 144.6435,37.589683 C 144.9519,36.904457 145.94214,37.303562 146.48333,37.121349 C 146.89875,36.644214 147.51638,36.821426 148.03466,36.811034 C 148.7503,36.984832 149.37077,36.102543 149.99321,36.705479 C 150.61503,36.767073 151.14894,36.380383 151.70767,36.182029 C 152.39634,36.016174 152.31178,36.887162 152.92747,36.889224 C 153.22021,36.818073 153.46016,37.110156 153.78783,37.064683 C 154.06546,37.337747 154.9629,37.648756 154.26687,38.136769 C 153.83011,38.543046 153.44084,39.066084 153.69445,39.652196 C 153.28449,40.165575 154.01079,40.935792 153.52758,41.294974 C 153.05497,41.560751 153.59957,42.313363 152.89799,42.373421 C 152.24684,42.597093 152.07665,43.377182 151.36567,43.520231 C 150.71576,43.696141 150.69446,44.435553 150.34174,44.846805 C 150.19468,45.146321 150.01103,45.457745 150.40183,45.683681 C 150.31731,46.073424 149.80027,45.969757 149.90613,45.539145 C 149.66791,45.173031 149.33683,45.960477 148.95587,45.659473 C 148.72668,46.114915 148.23389,46.118171 147.82719,46.225782 C 147.67072,46.720309 147.23269,46.689864 146.92315,46.401124 C 146.60018,46.362135 146.13043,46.290209 146.08849,46.741684 z "
            id="Vieira_do_Minho" />
        <path
            style="fill:#ffefd5;fill-opacity:1;fill-rule:evenodd;stroke:#b22222;stroke-width:0.25400001;stroke-opacity:1"
            d="M 131.04449,52.365383 C 130.64715,52.145971 130.18937,51.419448 129.83463,52.058845 C 129.2698,52.233788 128.85191,51.536747 128.28055,51.460884 C 127.78544,51.309746 127.17818,51.442978 126.66409,51.480313 C 126.3402,51.668455 126.02968,51.63824 125.79315,51.894718 C 125.55164,51.457778 125.37788,51.715892 125.07885,51.929564 C 124.84653,51.886751 124.04704,51.832204 124.44874,52.249598 C 124.69272,52.621595 125.50501,53.02692 125.19784,53.496586 C 124.64625,53.718374 124.71732,54.430588 124.28283,54.724301 C 123.90541,54.864879 123.47077,55.461426 123.23245,54.824508 C 122.78874,54.294907 122.07424,54.424863 121.66478,54.903002 C 121.52484,55.284902 120.61787,55.859974 121.41082,56.039769 C 121.77583,56.216996 122.17196,55.811741 122.33777,56.361469 C 122.58067,56.590848 123.06475,56.97283 122.49186,57.181811 C 121.96483,57.348792 120.99045,57.509252 121.11661,58.250132 C 121.45663,58.816535 121.22651,59.532916 121.51516,60.091917 C 121.58768,60.42885 121.82659,61.309131 122.17182,60.731049 C 122.41134,60.329523 123.13637,60.479372 123.516,60.455867 C 123.82849,60.619216 124.21343,60.43626 124.51951,60.628269 C 124.89627,60.370079 125.24755,60.283705 125.57693,60.633916 C 125.93635,60.298134 126.91309,60.899318 126.80543,60.161481 C 126.70603,59.638273 127.05989,59.37571 127.47533,59.260894 C 127.52257,58.579277 128.43106,59.137247 128.79259,58.771424 C 129.11779,58.539088 129.56669,58.748863 129.94176,58.604299 C 130.37221,58.860909 130.57783,59.664359 131.19654,59.331075 C 131.54493,59.087046 132.01818,58.968357 132.20349,58.504049 C 132.64429,58.382907 132.63152,57.468043 133.19916,58.069382 C 133.68926,58.265828 134.06195,57.883976 133.84055,57.395361 C 133.82849,56.991826 133.31475,56.800773 133.57949,56.356966 C 133.57806,55.998456 134.27451,55.513164 133.80158,55.220165 C 133.31796,55.156224 132.83231,54.851265 132.57716,54.541566 C 132.8009,54.156923 133.0386,53.530168 132.36935,53.740678 C 131.9129,53.37037 131.4073,52.912146 131.07215,52.441631 L 131.04448,52.365381 L 131.04449,52.365383 z "
            id="Vila_Nova_de_Famalicão" />
        <path style="fill:#ffefd5;fill-rule:evenodd;stroke:#b22222;stroke-width:0.25400001;stroke-opacity:1"
            d="M 131.0985,42.442684 C 130.5705,42.620382 129.90924,42.530196 129.64135,43.188998 C 129.1485,43.344773 128.76769,43.467813 128.49689,43.922411 C 128.02691,44.076294 128.07501,45.221205 127.60646,44.803932 C 127.41799,44.364094 127.16713,43.744781 126.68168,44.231228 C 125.9723,44.556232 125.69127,43.722858 125.60273,43.181201 C 125.56977,42.542359 125.75458,41.932867 125.58428,41.283268 C 125.26169,40.584888 125.83533,39.908508 125.74449,39.22856 C 125.47608,38.770178 124.90427,38.114078 125.69928,37.864061 C 125.7476,37.389186 125.99958,37.481412 126.39692,37.513816 C 126.89949,36.968759 126.44306,36.17086 126.78154,35.540186 C 126.9017,35.129887 127.21204,34.571466 126.68016,34.319686 C 127.18426,34.023316 127.52015,33.369653 127.94658,33.128211 C 128.64801,33.170448 128.01583,34.368851 128.85167,34.042965 C 129.3677,33.859252 130.16124,33.780084 130.14622,33.075169 C 130.64256,32.667687 131.14797,32.139005 131.80483,32.067023 C 132.22603,31.788057 132.76752,32.282112 133.12649,31.84969 C 133.76796,32.234958 134.06187,30.699926 134.48448,31.563273 C 134.923,32.040631 135.57897,31.865315 136.07194,31.570875 C 136.74847,31.493109 137.22197,31.983173 137.31983,32.613815 C 137.46765,33.152462 136.99632,33.759914 137.55104,34.20187 C 137.56315,34.592647 136.5392,34.49484 136.77631,35.158743 C 136.35386,35.612415 135.93379,36.066617 135.28986,36.182388 C 134.80539,36.365079 134.59188,36.815599 134.10416,37.046692 C 134.07982,37.738362 133.44449,38.144667 132.96303,38.529105 C 132.48145,38.165572 132.20066,38.988956 132.56516,39.328022 C 132.57569,39.890652 131.50714,39.351626 131.80806,40.122038 C 131.64051,40.816044 131.55256,41.509659 131.22949,42.167397 C 131.20041,42.269805 131.03484,42.310752 131.0985,42.442684 z "
            id="Vila_Verde" />
        <path
            style="fill:#ffefd5;fill-opacity:1;fill-rule:evenodd;stroke:#b22222;stroke-width:0.2544629;stroke-linecap:butt;stroke-linejoin:miter;stroke-miterlimit:4;stroke-dasharray:none;stroke-opacity:1;display:inline"
            d="M 138.78994,61.708929 C 138.32279,61.493848 137.90109,61.196336 137.47473,60.91198 C 137.24029,60.858897 136.93433,60.895117 136.78393,60.66922 C 136.65814,60.366472 137.0802,60.110924 136.91783,59.808057 C 136.67104,59.667585 136.30252,59.490825 136.42113,59.146101 C 136.4113,58.896571 136.9192,58.52671 136.5032,58.419028 C 136.21774,58.247016 136.51382,58.044063 136.58532,57.852011 C 136.67925,57.625632 136.73086,57.378004 136.87505,57.17534 C 136.96882,56.918341 137.04053,56.556568 137.35888,56.499331 C 137.71431,56.490418 137.71928,56.983505 138.00701,57.099766 C 138.1242,57.236663 138.22422,57.42159 138.39398,57.519399 C 138.55366,57.651246 138.77456,57.631531 138.93652,57.75297 C 139.2169,57.902505 139.52269,58.056526 139.84673,58.049712 C 140.18569,57.970284 139.88618,57.555912 140.09544,57.386457 C 140.35001,57.258635 140.6939,57.228136 140.96297,57.262834 C 141.25358,57.572785 140.67404,57.675442 140.68405,57.975639 C 140.71671,58.327615 140.41903,58.466515 140.13565,58.555678 C 139.88926,58.743119 139.8176,59.091251 139.85872,59.386725 C 139.87695,59.654303 140.0144,59.900612 140.02781,60.165422 C 140.01503,60.456053 139.64685,60.49714 139.58382,60.752521 C 139.53427,61.008199 139.82107,61.366985 139.61604,61.590654 C 139.4391,61.809633 139.04462,61.749069 138.78994,61.708929 z "
            id="Vizela" sodipodi:nodetypes="ccccccscccsscccscssssc" inkscape:label="#Vizela" />
    </g>
    <!-- EO MUNICIPIOS -->
</svg>