<?xml version="1.0" encoding="UTF-8" standalone="no"?>
<!-- Creator: CorelDRAW -->
<svg xmlns:dc="http://purl.org/dc/elements/1.1/" xmlns:cc="http://web.resource.org/cc/"
    xmlns:rdf="http://www.w3.org/1999/02/22-rdf-syntax-ns#" xmlns:svg="http://www.w3.org/2000/svg"
    xmlns="http://www.w3.org/2000/svg" xmlns:sodipodi="http://inkscape.sourceforge.net/DTD/sodipodi-0.dtd"
    xmlns:inkscape="http://www.inkscape.org/namespaces/inkscape" xml:space="preserve" width="250" height="366"
    style="shape-rendering:geometricPrecision; text-rendering:geometricPrecision; image-rendering:optimizeQuality; fill-rule:evenodd; clip-rule:evenodd"
    viewBox="0 0 200 200" id="svg1627" sodipodi:version="0.32" inkscape:version="0.43"
    sodipodi:docname="Mapa_de_Portugal.svg" sodipodi:docbase="C:\Documents and Settings\Márcio Silva\Os meus documentos"
    version="1.0">
    <metadata id="metadata1927">
        <rdf:RDF>
            <cc:Work rdf:about="">
                <dc:format>image/svg+xml</dc:format>
                <dc:type rdf:resource="http://purl.org/dc/dcmitype/StillImage" />
                <dc:title>Munícipios de Portugal</dc:title>
                <cc:license rdf:resource="http://creativecommons.org/licenses/GPL/2.0/" />
                <dc:creator>
                    <cc:Agent>
                        <dc:title>Rei-artur (rei.artur@gmail.com)</dc:title>
                    </cc:Agent>
                </dc:creator>
            </cc:Work>
            <cc:License rdf:about="http://creativecommons.org/licenses/GPL/2.0/">
                <cc:permits rdf:resource="http://web.resource.org/cc/Reproduction" />
                <cc:permits rdf:resource="http://web.resource.org/cc/Distribution" />
                <cc:requires rdf:resource="http://web.resource.org/cc/Notice" />
                <cc:permits rdf:resource="http://web.resource.org/cc/DerivativeWorks" />
                <cc:requires rdf:resource="http://web.resource.org/cc/ShareAlike" />
                <cc:requires rdf:resource="http://web.resource.org/cc/SourceCode" />
            </cc:License>
        </rdf:RDF>
    </metadata>

    <sodipodi:namedview inkscape:window-height="582" inkscape:window-width="866" inkscape:pageshadow="2"
        inkscape:pageopacity="0.0" borderopacity="1.0" bordercolor="#666666" pagecolor="#ffffff" id="base"
        fill="#ffff00" inkscape:zoom="1.1338798" inkscape:cx="125" inkscape:cy="211.12313" inkscape:window-x="28"
        inkscape:window-y="117" inkscape:current-layer="layer7" showguides="true" inkscape:guide-bbox="true">
        <sodipodi:guide orientation="horizontal" position="329.9602" id="guide2648" />
        <sodipodi:guide orientation="horizontal" position="307.74672" id="guide2650" />
    </sodipodi:namedview>

    <defs id="defs1629">
        <metadata id="CorelCorpID_0Corel-Layer" />
        <sodipodi:namedview inkscape:guide-bbox="true" showguides="true" inkscape:current-layer="layer1"
            inkscape:window-y="-4" inkscape:window-x="-4" inkscape:cy="327.60442" inkscape:cx="146.08303"
            inkscape:zoom="17.548964" fill="#fa8072" id="namedview5974" pagecolor="#ffffff" bordercolor="#666666"
            borderopacity="1.0" inkscape:pageopacity="0.0" inkscape:pageshadow="2" inkscape:window-width="1024"
            inkscape:window-height="712" />
    </defs>

    <g inkscape:groupmode="layer" id="layer3" inkscape:label="fundo" style="display:inline" sodipodi:insensitive="true">
        <rect style="fill:#4169e1;fill-opacity:1;fill-rule:evenodd;stroke:none;display:inline" id="rect2247" width="200" height="200" />
    </g>

    <g inkscape:groupmode="layer" id="layer10" inkscape:label="----detalhes----" style="display:inline" />

    <!-- MUNICIPIOS -->
    <g inkscape:groupmode="layer" id="layer4" inkscape:label="Municipios" style="display:inline"
        sodipodi:insensitive="true" transform="translate(-305, -255) scale(2.3)">
        <path style="fill:#ffefd5;fill-rule:evenodd;stroke:#b22222;stroke-width:0.25400001;stroke-opacity:1"
            d="M 187.52148,136.18469 C 187.25596,135.79401 186.70627,135.74187 186.44324,135.43698 C 186.65481,134.99955 186.6256,134.47336 186.38082,134.03002 C 186.43806,133.61929 186.5735,133.21769 186.41381,132.80443 C 186.26939,132.37791 186.64674,132.05139 186.43516,131.63969 C 186.75431,131.18428 186.4569,130.66789 186.45531,130.19009 C 186.70402,129.75281 186.41764,129.50163 185.96974,129.50803 C 185.65317,129.41943 186.42153,129.02386 186.50248,128.77833 C 186.8017,128.57804 187.39114,128.71809 187.37962,128.15885 C 187.56729,127.74708 188.32659,127.66641 188.15978,127.14782 C 188.24964,126.87476 188.3121,126.64304 188.1645,126.40102 C 188.39801,125.94528 188.30462,125.38304 188.84805,125.15231 C 189.04748,124.8743 189.31024,124.7554 189.54949,124.57769 C 189.67199,124.97793 190.19956,125.40899 190.50276,124.90257 C 190.74022,124.58673 191.00385,124.3263 191.33751,124.64134 C 191.82819,124.60313 192.29156,124.89592 192.25933,125.42082 C 192.29617,125.86869 192.16249,126.3182 192.13271,126.77532 C 192.09761,127.3478 191.81924,127.84857 191.64972,128.38492 C 191.4381,128.81536 191.65172,129.33755 191.55857,129.76795 C 191.93664,130.20905 191.24636,130.47201 191.17966,130.91494 C 190.9659,131.37916 190.63226,131.77585 190.30107,132.1599 C 189.89371,132.26608 189.51609,132.54829 189.11482,132.67202 C 189.1826,133.16144 189.53126,133.78389 190.06988,133.81508 C 190.38821,133.91082 191.02671,134.20799 190.67664,134.56379 C 190.58161,134.95311 190.12002,135.07587 190.12221,135.50029 C 189.51881,135.53845 189.1047,136.31549 188.47167,136.13721 C 188.15622,136.08716 187.81718,136.03247 187.52148,136.18469 z "
            id="Belmonte" />
        <path style="fill:#ffefd5;fill-rule:evenodd;stroke:#b22222;stroke-width:0.25400001;stroke-opacity:1"
            d="M 161.71849,162.3147 C 161.82268,161.05562 162.67915,160.538 163.4869,161.65146 C 164.33488,162.55743 165.99063,160.47522 165.72049,162.35069 C 167.58181,162.46378 167.56028,160.04862 167.68018,158.75806 C 168.50865,158.88019 170.23928,158.56895 169.75849,157.38935 C 168.04269,157.42695 169.13512,155.35922 168.86726,154.29263 C 168.611,153.21566 170.61906,153.53093 170.17482,152.17435 C 168.67618,150.90651 171.0696,149.72048 171.63601,148.53108 C 172.69808,147.85522 174.08428,147.16723 175.31536,147.817 C 176.84886,148.69318 178.70134,146.82913 179.65381,148.60767 C 180.95335,149.38238 180.09945,151.01584 180.81985,152.08875 C 180.60035,153.11995 181.4291,154.89492 182.36115,153.31501 C 183.0385,152.43722 184.34823,152.40556 185.04115,151.70368 C 186.14226,151.72437 186.45217,153.24582 186.56524,154.239 C 187.17024,155.07475 188.83879,154.03043 188.62263,155.61538 C 188.86285,156.74548 189.93553,157.38307 189.56815,158.65668 C 189.48483,159.66026 191.00566,160.44731 189.67682,161.38035 C 189.74563,162.67716 187.62645,163.84131 188.69882,164.92935 C 190.02838,163.98477 191.49519,165.07914 192.32778,166.16514 C 193.59769,166.39652 194.7238,167.094 195.97711,167.01561 C 197.15618,166.72318 197.91538,167.42147 197.01569,168.37322 C 196.49936,169.35723 195.99782,170.30101 195.31914,171.4518 C 194.52805,172.40025 195.2905,173.76674 194.10403,174.2836 C 193.14494,174.65471 193.29021,175.72138 192.7034,176.15889 C 191.50265,176.7271 190.31367,177.3749 189.08781,177.86035 C 188.2147,177.66985 187.33595,177.33269 186.46632,177.233 C 186.0432,177.35281 185.61234,177.572 185.19249,177.64568 C 184.20593,177.20079 183.24606,176.66657 182.13943,176.6236 C 181.31085,176.49751 180.47274,176.44446 179.64017,176.34901 C 179.72292,175.35829 181.02067,175.34263 180.69549,174.15702 C 181.10702,172.94209 181.12163,170.88417 179.20432,171.17762 C 178.04433,171.04582 176.9441,170.60145 176.05312,171.23526 C 174.65283,171.22927 174.26434,170.21458 174.75616,169.14643 C 174.55644,167.98992 173.88146,166.83589 172.85483,168.01835 C 172.51209,168.81421 171.0612,169.55687 171.30471,170.42149 C 170.32895,170.85784 169.29121,172.07313 168.59133,171.75584 C 167.14607,172.06243 168.03811,170.26438 167.11695,169.61193 C 166.53807,168.46587 166.33514,167.13401 166.96363,166.00497 C 166.62864,164.79258 166.209,164.03157 165.5755,162.78535 C 164.93051,161.96742 164.03431,163.36062 163.27583,162.71301 C 162.69095,162.33279 162.1841,162.81824 161.71849,162.3147 z "
            id="Castelo_Branco" />
        <path style="fill:#ffefd5;fill-rule:evenodd;stroke:#b22222;stroke-width:0.25400001;stroke-opacity:1"
            d="M 163.90948,140.78468 C 164.46594,139.78905 165.22867,138.79624 165.15882,137.57969 C 165.64698,136.43653 166.84164,137.35913 167.76493,136.94876 C 168.38381,136.30693 168.80674,135.16189 169.7482,134.97784 C 170.72497,134.2597 171.98196,134.90285 172.62507,133.76078 C 173.31614,132.97223 174.23428,132.3502 174.18097,131.20463 C 174.61362,130.76656 175.74354,130.99418 175.91449,131.80336 C 176.22636,130.42265 177.7549,131.68359 178.39669,131.07778 C 178.55119,130.20449 179.44433,129.59509 179.3306,128.56812 C 179.17827,127.61663 180.09829,126.89062 180.5648,126.15501 C 181.31818,125.49359 182.48788,125.31954 182.72315,126.57037 C 183.4731,126.5012 184.13444,126.02583 184.85982,126.67903 C 186.0177,127.53161 186.76096,125.71474 187.77515,126.24437 C 188.09246,126.66524 188.45425,127.00999 188.07888,127.54381 C 187.37606,127.88964 187.31878,128.78076 186.50247,128.779 C 186.19434,129.16938 185.44348,129.60612 186.37766,129.59378 C 186.6515,130.42099 186.54687,131.66267 186.38482,132.60336 C 186.51101,133.44781 186.38166,134.22198 186.56349,135.04565 C 185.96192,135.83301 188.36571,135.91389 187.1366,136.73863 C 185.85742,136.78729 184.79666,137.91936 183.50082,138.09585 C 182.45073,138.49471 181.25556,138.59164 180.24248,138.46703 C 179.50084,138.0387 178.76341,139.41674 178.15796,139.79427 C 177.59414,140.12566 176.76702,139.60678 176.36714,140.35002 C 175.48411,139.96452 175.89655,141.38554 176.49415,141.48003 C 175.92086,141.87653 175.28934,143.27364 174.55629,142.42672 C 173.90111,142.39941 173.23613,141.77952 172.47415,142.2877 C 171.56108,141.41038 171.85928,143.25823 170.90621,143.16706 C 170.42384,143.33133 171.51147,143.91079 170.69948,143.71803 C 170.16638,143.85055 170.21584,142.78018 169.83048,143.62769 C 170.22996,144.60526 168.96408,143.70611 168.63589,144.12379 C 168.03241,143.77025 167.56517,144.01208 167.12569,144.22428 C 166.2189,144.08379 165.73707,143.33469 165.64544,142.56154 C 164.90194,142.42461 164.2445,142.05446 164.27636,141.17456 C 164.28436,141.0044 163.8154,140.94762 163.90948,140.78468 z "
            id="Covilhã" />
        <path style="fill:#ffefd5;fill-rule:evenodd;stroke:#b22222;stroke-width:0.25400001;stroke-opacity:1"
            d="M 167.3315,144.27869 C 167.70634,143.45051 168.59824,144.40767 169.14128,143.96837 C 170.04712,144.58579 169.74261,143.61898 170.14549,143.24669 C 170.19026,143.8941 171.48098,143.92645 170.77216,143.24669 C 171.7888,143.31162 171.57197,141.49447 172.47416,142.28702 C 173.57466,141.60941 174.41483,142.86308 175.35703,142.61515 C 175.85449,142.06864 176.97441,141.43587 175.91717,140.99683 C 175.57029,139.99269 176.521,140.41021 177.00342,139.88409 C 178.53179,140.47533 179.14516,137.86824 180.52746,138.41114 C 181.56565,138.72827 182.88419,138.32989 183.93938,137.9271 C 185.12315,137.51048 186.49848,136.95014 187.46332,136.36056 C 188.04225,135.81438 189.21995,136.4105 189.86007,135.57825 C 190.4739,135.08423 190.92441,133.57199 192.03263,134.6014 C 192.52687,135.49456 192.33874,136.70338 192.60983,137.65136 C 192.36431,138.07569 191.94744,138.82352 192.92483,138.55668 C 194.26427,139.59397 191.53492,139.8331 191.80033,140.96561 C 190.71887,141.91361 191.40166,143.06556 191.5595,144.21539 C 191.56461,145.35123 190.37212,145.79036 190.25594,146.9015 C 190.05731,147.941 190.24724,149.38566 189.06964,149.89241 C 188.27628,150.66492 187.62897,151.49838 187.97416,152.73502 C 187.62442,153.47357 188.03326,155.42372 186.73033,154.38635 C 186.03375,153.77036 186.80574,152.11174 185.47275,151.96231 C 184.79746,150.89014 184.1507,153.04428 183.06861,152.60391 C 182.63624,153.02114 181.38972,154.65807 181.18383,153.60402 C 180.45187,152.64585 181.01028,151.46204 180.37774,150.52502 C 180.85331,149.1982 179.32814,148.20144 178.51965,147.70794 C 177.17502,148.31606 175.72313,147.96607 174.39348,147.55634 C 173.14133,147.64186 171.59647,148.13699 170.94954,149.3765 C 170.48481,150.40525 169.43809,150.84564 168.81686,151.71371 C 168.27551,152.15799 167.19592,151.16589 167.16849,152.28234 C 166.2034,151.94219 165.44106,150.78202 164.26049,151.44934 C 163.4227,151.00082 164.19152,150.33669 164.16856,149.96596 C 163.11965,149.78199 165.069,149.00581 163.94549,148.53402 C 164.37317,148.23278 164.73086,147.75984 163.92612,148.04423 C 162.6652,148.29997 164.33313,147.68991 164.44182,147.24835 C 165.42752,147.08441 164.55667,148.461 165.60911,148.74006 C 165.66373,148.24142 166.92474,147.46 167.41097,146.80788 C 166.14368,146.18786 168.36781,146.41623 167.84178,145.44997 C 168.00251,144.95679 167.60272,144.62105 167.3315,144.27869 z "
            id="Fundão" />
        <path style="fill:#ffefd5;fill-rule:evenodd;stroke:#b22222;stroke-width:0.25400001;stroke-opacity:1"
            d="M 189.8035,149.36768 C 190.66893,149.22665 191.05525,148.09205 191.77716,147.52069 C 192.80174,147.10107 193.40363,148.36169 194.2723,148.86656 C 194.85183,150.49884 196.22931,148.8087 196.42114,147.78903 C 196.7929,146.95225 197.25811,146.47447 197.9096,147.24094 C 198.7163,148.25802 199.67596,146.83089 200.29053,146.36769 C 200.64378,146.62435 199.98153,147.83942 201.08448,147.97336 C 202.0813,149.27382 202.05058,146.14246 203.35606,147.18569 C 204.45026,147.98501 205.70329,147.22214 206.87881,147.66569 C 207.33582,146.94716 208.38959,146.44253 209.04248,145.97325 C 209.55892,146.54833 210.48113,145.65293 210.73217,146.57306 C 211.00015,146.87615 211.19292,147.20537 211.10646,147.62534 C 210.9597,148.21477 211.4953,148.48245 211.861,148.83025 C 212.33847,149.33922 213.06264,149.66524 213.24633,150.39203 C 213.45272,150.89277 213.76094,151.37953 213.91881,151.88736 C 213.57078,152.71725 213.09566,153.52256 212.85834,154.38288 C 212.78792,155.26223 212.7959,156.17832 212.65314,157.03636 C 212.35611,157.42005 211.88542,157.74262 211.69187,158.16272 C 211.74716,159.19474 211.87023,160.23716 211.88715,161.26335 C 211.68216,161.73925 211.55863,162.30127 211.31548,162.73802 C 210.67309,162.69064 210.522,163.20372 210.37711,163.72386 C 210.25574,164.2291 209.77387,164.54706 209.46614,164.9247 C 208.95058,165.03581 208.43502,165.14692 207.91946,165.25803 C 207.79831,165.72975 207.51487,166.20539 207.48976,166.67479 C 207.68536,167.25644 208.01757,167.83714 208.14647,168.42004 C 207.74024,168.74154 207.52803,169.16334 207.50118,169.67954 C 207.3973,170.27489 207.13858,170.88123 207.49144,171.44416 C 207.78483,171.88189 207.20003,172.24869 207.10511,172.65407 C 206.59575,173.33681 206.61882,174.20053 206.43314,174.99037 C 206.12633,175.29951 206.07514,175.97284 205.52584,175.93986 C 204.58958,176.15191 203.64354,176.42878 202.7128,176.60368 C 202.25575,176.42095 201.80109,176.04238 201.34257,175.98067 C 200.60937,176.31204 199.88345,176.71317 199.14613,177.00604 C 198.06552,176.84565 196.98675,176.53591 195.90501,176.46759 C 195.47224,176.45028 194.95849,176.83539 194.60149,176.4395 C 194.13056,176.26084 193.69833,175.60022 193.18375,175.96499 C 192.59342,175.54185 193.64658,174.63293 194.10401,174.28363 C 194.37701,173.75796 195.28153,173.553 194.83747,172.70837 C 194.85721,171.51333 196.12733,170.73395 196.18588,169.698 C 196.81389,168.94271 197.37515,168.17092 197.40847,167.09504 C 196.10416,167.09888 194.82696,167.05446 193.64214,166.47938 C 192.60172,166.59979 191.74611,165.75474 191.19697,164.932 C 190.3363,164.14319 189.02382,165.04795 188.44828,164.71758 C 188.05927,163.45433 189.62202,162.74301 189.63202,161.53219 C 190.64557,160.72949 190.02401,159.76459 189.58614,159.0285 C 189.49602,158.07537 189.81298,156.9206 188.76451,156.38976 C 188.55026,155.72163 188.7948,154.42491 187.75713,154.58271 C 187.83335,153.26284 187.7867,151.87111 188.27079,150.65632 C 188.99297,150.43353 189.04984,149.52352 189.8035,149.36768 z "
            id="Idanha-a-Nova" />
        <path style="fill:#ffefd5;fill-rule:evenodd;stroke:#b22222;stroke-width:0.25400001;stroke-opacity:1"
            d="M 169.59549,150.94269 C 169.00833,151.39106 168.52217,152.20603 167.66832,151.70781 C 167.12091,151.55985 167.36422,152.67482 166.71407,152.12869 C 166.18077,151.9689 165.96335,151.08737 165.29498,151.34867 C 164.65695,151.11567 163.98398,151.725 163.81916,150.76169 C 163.24789,150.23457 163.05043,149.53777 162.15057,149.67347 C 161.61521,149.42556 160.96559,148.87897 160.61681,149.73757 C 159.94551,150.34672 158.94196,150.0166 158.45416,150.81704 C 158.01629,151.37743 158.89707,151.71906 158.70382,152.3723 C 159.23935,153.0582 158.7831,153.23456 158.20582,152.75335 C 158.74687,153.64235 157.41002,153.42061 157.00916,153.25411 C 156.5293,153.16917 155.98556,153.01971 156.27416,153.65752 C 155.87352,153.97367 155.77781,154.35222 155.74316,154.79969 C 155.29636,154.58108 154.87058,153.43145 154.28666,154.16363 C 154.5253,155.09678 153.65307,154.62632 153.40965,154.12782 C 152.26176,153.95129 154.39585,155.44458 153.14356,155.0919 C 152.58555,155.66513 151.80985,153.47048 151.94049,154.92635 C 151.77306,155.25557 152.61894,156.20149 151.75944,155.85512 C 151.2611,155.81453 150.6517,155.05338 150.57875,155.9208 C 150.63286,156.50327 149.62906,156.40289 150.28163,157.03437 C 150.78642,157.6619 150.20863,158.48485 151.02588,158.86699 C 151.10567,159.88779 152.00145,160.20064 152.84109,159.90684 C 153.68738,160.07842 154.52598,160.80073 154.54899,161.61481 C 154.80284,162.30477 155.9974,162.05062 156.4807,162.69759 C 157.30339,162.6941 158.46375,163.16623 158.16124,164.23537 C 158.50129,164.88829 157.47407,165.81705 158.12982,166.10785 C 158.40977,166.35836 158.95246,166.22654 158.91182,165.70035 C 159.71747,166.12547 160.70509,165.75717 161.26037,165.01957 C 162.29618,164.36047 160.8781,163.52027 161.25865,162.74064 C 161.95027,162.37878 161.82132,161.01045 162.5672,160.96248 C 163.22442,161.43042 163.79415,162.19687 164.65807,161.76366 C 165.07828,161.87056 165.09793,161.31628 165.52507,161.54084 C 165.94767,161.35055 165.32045,162.79429 166.21416,162.37081 C 167.25335,162.10301 167.36791,161.02058 167.52147,160.14638 C 167.84384,159.60695 167.30507,158.1984 168.4068,158.74795 C 169.15352,158.93638 170.1723,158.08815 169.75849,157.38902 C 169.19425,157.78942 168.64679,156.66069 168.71982,156.39569 C 169.18288,155.56871 168.73592,154.6775 168.81781,153.81746 C 169.1877,153.40911 170.07032,153.59613 170.05842,152.85312 C 170.5551,152.17769 169.46813,151.69345 169.59549,150.94269 z "
            id="Oleiros" />
        <path style="fill:#ffefd5;fill-rule:evenodd;stroke:#b22222;stroke-width:0.25400001;stroke-opacity:1"
            d="M 189.8035,149.36768 C 190.37028,148.54354 189.88433,147.56391 190.30278,146.75344 C 190.46487,145.68786 191.68969,145.23269 191.55982,144.0668 C 191.56156,143.24153 190.69244,142.32345 191.423,141.58691 C 191.95095,140.89248 191.8574,139.97818 192.79524,139.73274 C 193.7003,139.38975 193.28747,138.2688 192.37482,138.5937 C 191.98194,138.14131 193.01399,137.6856 192.55582,137.10903 C 192.22723,136.3753 192.45986,135.5671 192.22982,134.77302 C 193.10615,134.16477 193.85622,135.88655 194.44126,134.64946 C 194.62412,133.59331 195.69522,132.90706 196.51873,133.62468 C 197.21599,134.05141 197.97673,134.8887 198.68226,133.92403 C 199.72607,133.55923 199.40663,132.58224 199.72649,131.78536 C 199.87371,131.07237 200.57379,130.14446 201.17379,131.07154 C 201.15512,131.84737 201.64753,132.35703 201.9409,132.96548 C 201.26337,133.5022 202.4532,133.87333 202.91795,133.78115 C 203.77334,133.74382 204.65002,133.52495 205.55716,133.5237 C 205.41045,133.0086 205.55129,132.70547 206.06551,133.09904 C 206.80625,133.68183 207.62989,134.15545 208.47216,134.59203 C 209.00176,134.608 209.30172,135.37205 208.93829,135.75413 C 208.77824,136.03288 208.64048,136.33218 208.46883,136.60036 C 207.96416,136.6047 207.45924,136.62059 206.95448,136.62936 C 206.62437,136.98402 206.19014,137.29015 205.92237,137.67387 C 205.87886,138.26792 205.84949,138.86448 205.79749,139.45702 C 205.58937,139.70851 205.08693,139.90702 205.42701,140.25723 C 205.61411,140.6396 205.85389,141.00735 205.82069,141.45271 C 205.91896,142.39081 206.01723,143.32891 206.11549,144.26701 C 207.33831,144.58566 208.59012,144.85913 209.79549,145.20503 C 209.99674,145.50521 210.2042,145.80164 210.40784,146.10037 C 209.81741,146.23659 209.30679,146.12591 208.77197,145.9772 C 208.26646,146.79831 207.16879,147.00399 206.72041,147.65654 C 205.95462,147.38252 205.10624,147.49249 204.2936,147.65223 C 203.64217,147.27871 202.46565,146.49537 202.12238,147.62459 C 201.81592,147.94076 201.69405,148.77533 201.31983,148.04603 C 200.60606,147.95946 200.00659,147.09384 200.54116,146.47037 C 199.6259,146.04614 199.40551,148.16593 198.31383,147.52069 C 198.02917,147.30199 197.48806,147.0216 197.19987,146.76605 C 196.43512,147.39263 196.20029,148.31782 195.75985,149.14469 C 195.13489,150.12538 194.3154,149.20194 194.01083,148.53073 C 193.36662,148.26872 192.81457,147.66602 192.41027,147.38316 C 191.67507,147.37946 191.39607,148.07993 190.84906,148.45587 C 190.54665,148.79572 190.41114,149.52453 189.8035,149.36768 z "
            id="Penamacor" />
        <path style="fill:#ffefd5;fill-rule:evenodd;stroke:#b22222;stroke-width:0.25400001;stroke-opacity:1"
            d="M 151.9045,170.7887 C 152.3983,170.85506 152.24265,170.63484 152.32816,170.31769 C 153.22957,170.61566 152.08576,169.54463 152.82782,169.68401 C 153.23511,169.65607 153.30894,169.1565 153.84749,169.45589 C 154.22997,169.27761 154.46033,169.25387 154.76666,169.18064 C 155.22676,168.68108 156.01778,168.24138 155.91878,167.67944 C 156.32665,167.63775 156.59469,166.47176 156.70282,167.25769 C 156.92265,167.15777 157.27224,167.51856 157.17349,167.02202 C 158.08003,166.94763 156.8395,165.85061 157.97049,166.13502 C 158.34698,166.19614 158.91553,166.38813 158.91182,165.70036 C 159.71747,166.12547 160.7051,165.75719 161.26037,165.01957 C 162.24937,164.39414 160.99356,163.57743 161.22392,162.83931 C 161.41772,162.2293 161.90349,162.31385 162.26117,162.61566 C 162.70535,162.29272 163.17156,162.8483 163.63895,162.70531 C 164.23182,163.47767 165.19116,161.70337 165.59178,162.86928 C 165.91128,163.48672 166.42654,164.00288 166.35416,164.74069 C 167.03403,164.74854 166.60983,165.606 166.96363,166.00464 C 166.89243,166.75488 166.01088,167.58922 166.73587,168.40327 C 166.93294,169.21961 167.2298,169.85219 167.69397,170.555 C 167.85317,171.34039 167.44875,171.65369 166.75533,171.57502 C 166.2625,171.75854 165.68739,172.01491 166.07828,172.55997 C 165.78487,173.16223 166.47879,173.69108 165.89278,174.27198 C 166.03512,174.91901 165.08208,175.12582 165.46682,175.84069 C 164.83703,176.5381 164.98961,177.45528 164.67365,178.24329 C 165.15183,178.93764 165.06983,180.00913 164.21227,180.36276 C 164.0019,180.71906 164.85815,181.3187 164.48916,181.83403 C 165.24393,182.12648 164.84579,182.93275 164.20893,182.9197 C 163.85165,183.35484 163.89693,182.64671 163.51116,182.66703 C 163.60244,182.32687 163.71416,181.33733 163.27582,181.9247 C 163.18278,181.41434 162.49595,181.24227 162.57833,180.80282 C 162.18409,180.67836 162.41852,180.25546 161.92438,180.08528 C 161.94587,179.57796 162.08589,178.7825 161.28416,178.8827 C 161.40527,178.18681 160.58204,178.27769 160.21523,177.90568 C 159.67191,177.98423 159.70044,177.75093 159.69671,177.41755 C 159.57707,177.06788 158.89619,177.18368 159.36482,176.87269 C 158.79822,176.90038 158.71633,176.53548 158.29616,176.32935 C 157.71703,176.36422 157.6472,177.13821 156.98624,176.69153 C 156.08205,176.77119 155.84115,175.66437 156.29911,175.25299 C 156.20747,174.39273 156.22358,173.43389 156.12349,172.58103 C 156.19302,172.05313 155.90483,170.39786 155.19942,171.08873 C 154.91895,171.71526 153.6577,171.99355 153.47817,171.06183 C 152.9869,170.67913 152.30992,171.29497 151.9045,170.7887 z "
            id="Proença-a-Nova" />
        <path style="fill:#ffefd5;fill-rule:evenodd;stroke:#b22222;stroke-width:0.25400001;stroke-opacity:1"
            d="M 157.89749,166.06268 C 157.9918,165.23494 158.38806,164.49296 158.1189,163.58391 C 157.91,162.57366 156.62868,163.00433 156.04085,162.39605 C 155.44414,161.9985 154.29372,162.17444 154.52963,161.18481 C 154.02687,160.58439 153.52402,159.87024 152.60215,159.89424 C 151.58274,160.49553 151.21899,159.27736 150.80725,158.70209 C 150.21807,158.19986 150.80992,157.33567 150.09316,156.77369 C 150.23782,156.26312 149.51847,156.03427 149.29649,155.77768 C 148.98746,156.36343 149.93558,157.18664 148.93812,157.27439 C 148.44692,157.39269 147.84569,156.89238 147.5747,156.97947 C 147.3219,157.62516 147.62376,158.35139 146.86107,158.71654 C 146.5395,159.45898 146.38501,160.2805 146.06924,161.00635 C 145.86421,161.51408 144.83425,161.10641 144.89649,161.93436 C 144.51079,161.95857 143.65514,161.11347 143.99897,161.97077 C 143.12724,162.18619 143.38393,163.56434 142.28882,163.54602 C 141.65114,162.64311 141.57751,164.46647 140.72123,163.99572 C 140.29281,164.69942 138.61253,163.63098 139.09162,164.88448 C 139.15455,165.25651 139.83333,165.73242 139.05991,165.75322 C 138.65913,165.88993 138.77138,166.46783 138.25082,166.51536 C 138.20671,167.10503 138.85811,167.31469 138.76128,167.96852 C 138.54314,168.40637 138.83218,169.27727 139.46416,168.96002 C 139.69451,170.11971 140.68898,167.78516 140.85377,168.97299 C 141.24489,169.67229 142.03085,170.41079 141.52757,171.19078 C 140.81597,171.41744 141.23467,172.5891 141.72637,172.02664 C 142.07611,172.27878 142.30243,171.57808 142.66916,171.36836 C 142.52639,170.83738 143.20689,171.20884 143.37549,170.77473 C 143.96491,170.31794 144.70031,169.69783 145.4247,170.41152 C 146.05245,170.5177 146.09514,171.21326 146.77949,170.87936 C 147.16532,171.53122 148.00845,172.32135 148.75653,171.86976 C 149.64516,171.75699 150.44996,171.71676 151.1473,171.20975 C 151.60065,171.01987 151.71606,170.51518 152.32783,170.75269 C 151.9152,170.10086 153.25406,170.55386 152.5175,169.88054 C 152.53449,169.55257 153.2371,169.905 153.23316,169.35835 C 153.87765,169.54195 154.39141,169.26234 154.84957,169.11307 C 155.25697,168.61582 156.0624,168.23432 155.91845,167.67977 C 156.32634,167.63809 156.59436,166.47211 156.7025,167.25802 C 156.92232,167.15809 157.2719,167.5189 157.17316,167.02236 C 158.29468,166.79583 156.56828,166.15504 157.89749,166.06268 z "
            id="Sertã" />
        <path id="Vila_de_Rei" class="fil5 str2"
            d="M 141.38349,172.23668 C 141.38349,172.34536 141.36549,172.36369 141.36549,172.39969 C 141.29316,172.45402 141.29316,172.45402 141.25682,172.45402 C 141.25682,172.49768 141.22782,172.56268 141.20249,172.59902 C 141.31849,172.71501 141.31116,172.96836 141.31116,173.10602 C 141.17349,173.21469 141.17349,173.21469 141.00316,173.32335 C 141.00316,173.51902 140.97082,173.55869 141.13016,173.70335 C 141.43416,173.70335 141.39816,173.39202 141.72749,173.72169 C 141.72749,174.08369 141.41982,174.30836 141.41982,174.66336 C 141.27482,174.80802 141.38716,175.24268 141.31116,175.39469 C 141.32916,175.42369 141.36549,175.54701 141.36549,175.58668 C 141.60816,176.00302 141.84716,176.30002 141.45582,176.69135 C 141.45582,177.08236 141.45249,177.38303 141.22049,177.70536 L 141.25449,177.74136 C 141.36282,177.74236 141.55416,177.74936 141.60082,177.79568 C 141.99916,177.79568 141.92316,178.03469 142.07149,178.28469 C 142.40116,178.28469 142.89382,178.52003 143.16549,178.30269 C 143.18716,178.31368 143.20882,178.32436 143.23049,178.33902 C 143.23049,178.50569 143.20882,178.48036 143.33916,178.61068 C 143.42982,178.61068 143.44782,178.59268 143.57449,178.59268 C 143.73749,178.68303 143.73749,178.68303 143.77382,178.68303 C 143.98016,178.80636 144.25182,178.85335 144.42549,179.02703 C 144.42549,179.35303 145.00149,179.00536 145.07749,179.08136 C 145.63882,179.08136 145.84182,179.48702 146.18216,179.92169 C 146.26549,179.92536 146.34883,179.92903 146.43549,179.93236 C 146.63483,180.13169 147.02216,179.76969 147.25049,179.76969 C 147.42049,179.87103 147.57283,179.91803 147.72116,179.76969 C 147.79016,179.76969 148.05083,179.82736 148.10149,179.87803 C 148.20649,179.77302 148.76416,179.76236 148.84383,179.84203 C 148.89449,179.79136 149.32916,179.82369 149.42316,179.82369 C 149.55716,179.72602 150.16583,179.19002 150.41916,179.44368 C 150.62216,179.44368 150.74883,179.53069 150.92616,179.37103 C 150.92616,179.27336 150.85382,179.16103 150.79949,179.08869 C 150.71249,179.07803 150.54582,179.08136 150.45549,179.08136 C 150.45549,178.86068 150.72716,178.63235 150.72716,178.37536 C 150.48816,178.13636 150.23816,177.89703 150.23816,177.54236 C 149.98849,177.17668 149.75649,177.02436 150.02083,176.67303 C 150.02083,176.11902 150.20916,175.96703 150.66183,175.67736 C 150.68383,175.09769 150.41916,174.53303 150.41916,173.95702 C 150.60749,173.76136 150.83583,173.58036 150.83583,173.28703 C 150.86849,173.25436 150.92616,172.8887 150.92616,172.81635 C 151.35383,172.24402 150.76316,172.05936 150.76316,171.51236 C 150.73816,171.51236 150.71249,171.51236 150.69083,171.51236 C 150.31416,171.28803 150.02449,172.02302 149.73116,171.72969 C 149.67682,171.72969 149.45583,171.73335 149.40516,171.78403 C 149.01783,171.78403 148.72083,171.8167 148.39849,172.0737 C 148.28982,171.99769 148.02549,171.94703 147.88416,171.94703 C 147.68482,171.74803 147.60882,171.63935 147.34082,171.61036 C 147.26149,171.45103 147.05116,171.43635 147.05116,171.24103 C 146.94982,171.12502 146.87016,170.99836 146.77949,170.87869 C 146.60216,170.87869 146.57682,171.0417 146.39949,170.91503 C 146.30515,170.91503 146.22182,170.96936 146.12782,170.96936 C 146.03349,170.87502 146.13149,170.78103 146.03715,170.64336 C 145.74382,170.64336 145.80549,170.57835 145.56649,170.42603 C 145.34549,170.42603 145.26949,170.34635 145.13182,170.1727 C 144.95082,170.1727 144.84949,170.04569 144.67915,170.04569 C 144.50515,170.2197 144.27715,170.15436 144.04549,170.15436 C 144.04549,170.36802 143.80649,170.60702 143.59282,170.60702 C 143.59282,170.79536 143.15815,170.73736 143.15815,170.98736 C 142.90449,171.24103 142.85015,170.9367 142.65115,171.07803 C 142.65115,171.24103 142.66915,171.25903 142.66915,171.3677 C 142.56049,171.48702 142.45182,171.6067 142.34315,171.72969 C 142.22749,171.72969 142.20215,171.75135 142.10782,171.82036 C 142.10782,171.93635 142.10782,171.97602 142.05349,172.0737 C 141.96315,172.0737 141.89049,172.14636 141.80015,172.14636 C 141.74582,172.0667 141.72415,171.96535 141.60082,171.96535 C 141.57449,171.9887 141.54182,172.0167 141.51149,172.04736 L 141.42715,172.17236 C 141.42215,172.18769 141.41982,172.20303 141.41982,172.2187 C 141.40549,172.22235 141.39449,172.22969 141.38349,172.2367 L 141.38349,172.23668 z "
            style="fill:#ffefd5;fill-rule:evenodd;stroke:#b22222;stroke-width:0.25400001;stroke-opacity:1" />
        <path style="fill:#ffefd5;fill-rule:evenodd;stroke:#b22222;stroke-width:0.25400001;stroke-opacity:1"
            d="M 163.9455,183.10168 C 163.27932,183.27571 163.06141,184.39377 163.03116,184.86627 C 163.62804,185.29424 164.77201,184.43519 165.21086,183.82071 C 165.95897,183.37495 166.18435,182.55058 166.64277,181.87686 C 167.19055,181.19264 168.50968,181.794 168.69204,180.66977 C 169.09786,179.97477 168.33745,179.09094 169.2771,178.58426 C 169.82781,178.11244 170.83631,177.06979 171.48402,177.89031 C 172.02872,178.33427 172.23472,179.46164 173.10782,179.22668 C 173.79007,178.71509 174.87174,178.3653 175.17953,177.5683 C 175.30719,176.69321 176.56298,176.39416 177.27755,176.77267 C 177.73859,176.72045 178.10374,176.10701 178.6288,176.24534 C 178.96581,176.27979 179.30281,176.31423 179.63982,176.34868 C 179.69421,175.7248 180.01653,175.42154 180.56654,175.23615 C 180.58555,174.4758 180.96348,173.85285 180.81307,173.09054 C 181.11363,172.31124 180.81196,171.18299 179.76752,171.25357 C 178.89257,171.34197 178.07886,170.75378 177.25449,170.98768 C 176.62532,170.3832 176.43427,171.68815 175.75832,171.13764 C 174.77607,171.17596 174.1026,170.22552 174.80549,169.45167 C 174.73384,168.70408 174.32273,168.01266 174.04488,167.42122 C 173.00024,167.51972 172.92418,168.39924 172.08227,168.8459 C 172.05338,169.52585 170.82913,169.64407 171.46016,170.33602 C 170.61178,170.57064 170.23493,171.2437 169.51367,171.64284 C 169.20644,171.95205 168.87497,171.88709 168.85982,171.49468 C 168.21423,172.30053 167.41754,171.0184 166.62502,171.64052 C 166.1157,171.78285 165.75506,172.08416 166.07794,172.55995 C 165.80555,173.16033 166.43809,173.69476 165.89244,174.27197 C 165.97501,174.93242 165.13455,175.20233 165.40578,175.92244 C 164.85778,176.6516 164.90041,177.54852 164.69718,178.35311 C 165.26324,179.05495 164.92593,180.13725 164.09049,180.43967 C 164.63412,181.05648 164.37849,181.82254 164.92602,182.33921 C 164.91518,183.01057 164.2742,182.67236 163.9455,183.10168 z "
            id="Vila_Velha_de_Ródão" />        
    </g>
    <!-- EO MUNICIPIOS -->
</svg>