<?xml version="1.0" encoding="UTF-8" standalone="no"?>
<!-- Creator: CorelDRAW -->
<svg xmlns:dc="http://purl.org/dc/elements/1.1/" xmlns:cc="http://web.resource.org/cc/"
    xmlns:rdf="http://www.w3.org/1999/02/22-rdf-syntax-ns#" xmlns:svg="http://www.w3.org/2000/svg"
    xmlns="http://www.w3.org/2000/svg" xmlns:sodipodi="http://inkscape.sourceforge.net/DTD/sodipodi-0.dtd"
    xmlns:inkscape="http://www.inkscape.org/namespaces/inkscape" xml:space="preserve" width="250" height="366"
    style="shape-rendering:geometricPrecision; text-rendering:geometricPrecision; image-rendering:optimizeQuality; fill-rule:evenodd; clip-rule:evenodd"
    viewBox="0 0 200 200" id="svg1627" sodipodi:version="0.32" inkscape:version="0.43"
    sodipodi:docname="Mapa_de_Portugal.svg" sodipodi:docbase="C:\Documents and Settings\Márcio Silva\Os meus documentos"
    version="1.0">
    <metadata id="metadata1927">
        <rdf:RDF>
            <cc:Work rdf:about="">
                <dc:format>image/svg+xml</dc:format>
                <dc:type rdf:resource="http://purl.org/dc/dcmitype/StillImage" />
                <dc:title>Munícipios de Portugal</dc:title>
                <cc:license rdf:resource="http://creativecommons.org/licenses/GPL/2.0/" />
                <dc:creator>
                    <cc:Agent>
                        <dc:title>Rei-artur (rei.artur@gmail.com)</dc:title>
                    </cc:Agent>
                </dc:creator>
            </cc:Work>
            <cc:License rdf:about="http://creativecommons.org/licenses/GPL/2.0/">
                <cc:permits rdf:resource="http://web.resource.org/cc/Reproduction" />
                <cc:permits rdf:resource="http://web.resource.org/cc/Distribution" />
                <cc:requires rdf:resource="http://web.resource.org/cc/Notice" />
                <cc:permits rdf:resource="http://web.resource.org/cc/DerivativeWorks" />
                <cc:requires rdf:resource="http://web.resource.org/cc/ShareAlike" />
                <cc:requires rdf:resource="http://web.resource.org/cc/SourceCode" />
            </cc:License>
        </rdf:RDF>
    </metadata>

    <sodipodi:namedview inkscape:window-height="582" inkscape:window-width="866" inkscape:pageshadow="2"
        inkscape:pageopacity="0.0" borderopacity="1.0" bordercolor="#666666" pagecolor="#ffffff" id="base"
        fill="#ffff00" inkscape:zoom="1.1338798" inkscape:cx="125" inkscape:cy="211.12313" inkscape:window-x="28"
        inkscape:window-y="117" inkscape:current-layer="layer7" showguides="true" inkscape:guide-bbox="true">
        <sodipodi:guide orientation="horizontal" position="329.9602" id="guide2648" />
        <sodipodi:guide orientation="horizontal" position="307.74672" id="guide2650" />
    </sodipodi:namedview>

    <defs id="defs1629">
        <metadata id="CorelCorpID_0Corel-Layer" />
        <sodipodi:namedview inkscape:guide-bbox="true" showguides="true" inkscape:current-layer="layer1"
            inkscape:window-y="-4" inkscape:window-x="-4" inkscape:cy="327.60442" inkscape:cx="146.08303"
            inkscape:zoom="17.548964" fill="#fa8072" id="namedview5974" pagecolor="#ffffff" bordercolor="#666666"
            borderopacity="1.0" inkscape:pageopacity="0.0" inkscape:pageshadow="2" inkscape:window-width="1024"
            inkscape:window-height="712" />
    </defs>

    <!-- <g inkscape:groupmode="layer" id="layer3" inkscape:label="fundo" style="display:inline" sodipodi:insensitive="true">
        <rect style="fill:#4169e1;fill-opacity:1;fill-rule:evenodd;stroke:none;display:inline" id="rect2247" width="200" height="200" />
    </g> -->

    <g inkscape:groupmode="layer" id="layer10" inkscape:label="----detalhes----" style="display:inline" />

    <!-- MUNICIPIOS -->
    <g inkscape:groupmode="layer" id="layer4" inkscape:label="Municipios" style="display:inline"
        sodipodi:insensitive="true" transform="translate(-240, -240) scale(2.5)">
        <path style="fill:#ffefd5;fill-rule:evenodd;stroke:#b22222;stroke-width:0.25400001;stroke-opacity:1"
            d="M 162.89549,134.93568 C 162.26765,135.60297 161.66926,134.90872 161.34704,134.37916 C 160.6859,134.27748 160.00194,133.79162 159.75014,133.4423 C 159.09079,133.82437 158.34399,133.50085 157.81818,133.28139 C 158.00139,132.41971 156.91218,133.40993 156.67566,133.64371 C 156.21167,133.45392 157.07561,132.92329 156.64032,132.5948 C 156.50914,132.06724 155.94975,133.21144 155.71074,132.48219 C 154.91112,131.85241 155.23965,134.19919 154.26646,133.53817 C 153.32848,133.41192 154.28232,134.72241 153.51422,135.11618 C 153.23166,135.76196 152.81687,134.35485 152.88441,135.30055 C 152.78767,135.78516 152.17024,135.76001 152.36416,135.29768 C 151.69835,135.45653 151.96785,137.15006 151.17966,136.5038 C 150.84189,136.60815 151.003,135.94825 150.56598,135.95476 C 150.56072,135.29957 149.71052,133.54347 149.34201,134.86868 C 148.96444,135.67237 148.7061,134.83111 148.14073,134.83397 C 148.09387,134.35249 148.28243,133.91744 147.89025,133.53206 C 148.10472,132.89098 147.87374,132.28677 147.16382,132.65056 C 146.50145,132.65389 146.45395,133.62981 145.67351,133.35257 C 145.0066,133.76862 145.25024,135.45422 144.12435,135.28536 C 143.75408,135.36121 142.41548,135.25422 142.9942,135.69635 C 143.47294,135.5214 143.57398,136.78735 143.70149,135.89534 C 143.94746,136.01994 143.98614,136.84073 144.21728,136.14576 C 144.62314,135.33619 144.24059,136.89296 144.80032,136.18047 C 145.51374,136.12034 144.33968,136.86254 144.13853,137.06015 C 143.57108,137.5674 144.71994,137.8257 144.45884,138.45323 C 144.54743,139.0337 144.78519,139.16324 145.05982,138.57535 C 145.67882,138.71257 146.5083,138.51703 146.7677,139.20014 C 147.28615,139.36528 147.22568,139.96273 147.84892,139.4538 C 148.75675,138.79235 148.57372,140.18551 149.29682,140.25935 C 149.3676,141.01046 150.16969,141.76777 150.85416,141.37013 C 151.37295,141.88301 151.74671,141.04211 152.35716,141.21902 C 153.15242,141.37607 153.67079,141.00492 153.60649,140.20502 C 154.61996,140.4645 154.69039,141.59701 154.18432,142.32905 C 154.68819,142.74559 153.47519,143.84506 154.13941,143.6078 C 154.61242,143.45863 155.64167,143.78383 155.50104,142.93559 C 155.61467,142.41545 156.70185,142.81801 156.30449,142.01567 C 156.95565,142.1383 157.1473,141.20331 157.86624,141.56301 C 158.61704,141.27291 158.8614,140.36436 159.16281,139.62957 C 159.42068,139.03852 160.3837,137.93052 160.50088,139.20676 C 160.24046,140.03737 161.16904,140.23499 161.71849,139.82467 C 162.06935,140.50036 162.532,140.32273 162.60548,139.63871 C 163.09493,138.82671 164.14461,140.13631 163.90982,140.78434 C 164.41116,140.07361 164.76668,139.26825 165.08351,138.46646 C 165.33773,137.59444 165.10444,136.82359 164.4692,136.17724 C 164.06216,135.32419 162.98427,136.02584 162.89549,134.93568 z "
            id="Arganil" />
        <path style="fill:#ffefd5;fill-rule:evenodd;stroke:#b22222;stroke-width:0.25400001;stroke-opacity:1"
            d="M 109.06249,130.63869 C 109.40849,129.34013 109.75449,128.04158 110.10049,126.74302 C 110.77489,126.64995 111.48053,126.59339 112.09723,126.943 C 112.87556,127.32098 113.72166,127.0533 114.53015,127.14902 C 115.21138,127.35824 116.42199,127.34336 116.48281,126.41609 C 116.74955,125.98627 116.7092,125.51702 117.28249,125.26602 C 117.35023,124.84216 116.72162,123.87771 117.53582,124.01669 C 117.47905,123.56233 117.40674,122.97723 117.97037,123.46374 C 118.63835,123.85669 120.21258,124.59934 120.24729,123.25627 C 120.02935,122.51715 120.22332,121.72253 120.36594,121.02028 C 120.71833,120.54983 120.89727,119.24598 121.64648,120.05102 C 122.65217,119.69057 123.05819,120.70677 123.31215,121.40902 C 123.68242,122.20056 122.99561,122.73155 123.02472,123.48174 C 123.1614,124.13664 122.81285,125.6377 123.76198,125.56279 C 124.65042,125.63251 125.25829,124.94851 125.90148,124.55969 C 126.41507,124.1475 127.43657,124.13129 126.88177,124.99785 C 126.62063,125.93651 127.85858,125.9587 128.22229,126.74994 C 128.36348,127.6097 128.01217,128.46759 127.85715,129.37635 C 127.98054,130.00124 128.52228,131.4144 127.63162,131.5654 C 126.97194,131.85884 126.37683,131.42759 125.77481,131.35002 C 126.01415,131.91421 125.90149,132.81635 126.11831,133.19674 C 126.99786,133.05586 127.11683,134.23452 127.55382,134.6687 C 127.03216,135.03525 127.62827,136.66694 126.67547,135.79385 C 125.95583,135.05063 124.78587,136.88921 124.47115,135.53298 C 124.26752,134.76504 123.6923,133.89832 123.98215,133.05202 C 123.90762,132.62609 123.72148,132.20416 123.58248,132.86072 C 123.0554,133.507 122.21138,133.76939 121.50383,134.24271 C 120.71326,134.22999 121.43607,133.46063 120.67265,133.24327 C 120.09012,133.05568 120.66247,132.17194 119.84451,132.37049 C 119.20523,132.39692 118.5538,132.70241 117.80605,132.43379 C 117.14018,132.01818 116.12118,132.8042 115.52581,132.05636 C 115.05137,131.83964 113.92374,131.55966 114.42044,132.43392 C 114.44839,133.47603 113.15358,132.65998 112.57448,132.67201 C 111.59755,132.60219 110.91984,131.80262 110.10795,131.33965 C 109.76075,131.10404 109.41677,130.86357 109.06249,130.63869 z "
            id="Cantanhede" />
        <path style="fill:#ffefd5;fill-rule:evenodd;stroke:#b22222;stroke-width:0.25400001;stroke-opacity:1"
            d="M 126.84349,133.36069 C 127.41677,133.33291 128.00951,132.94065 128.52875,133.37301 C 129.15035,133.04653 129.15534,134.5303 129.77478,133.79452 C 130.0959,133.17327 130.29232,132.49475 129.99416,131.80336 C 129.97061,131.11431 131.01119,130.91367 131.50372,131.0447 C 131.87125,130.89651 132.40885,131.09413 132.16716,130.49969 C 132.57218,130.07061 132.65826,129.59849 132.27805,129.16273 C 132.58631,128.82291 133.35714,129.62176 133.82993,129.67882 C 133.97613,130.15515 134.77597,131.03857 133.9064,131.23387 C 132.86833,131.20061 133.56456,132.22549 133.24552,132.77786 C 132.9573,133.41221 133.21927,133.80851 133.88986,133.85201 C 134.34274,134.20121 135.37306,134.57875 134.75641,135.21606 C 134.92628,135.82796 134.20395,136.36258 134.78955,136.95302 C 135.06316,137.71726 135.73705,138.12898 136.30775,138.62432 C 136.90877,138.59407 136.99808,138.97763 136.87923,139.45646 C 137.6075,140.30109 135.94334,139.87487 135.49882,139.78869 C 135.51308,140.39468 135.14454,140.77219 134.58311,140.54019 C 133.62878,140.82984 135.16978,142.05777 134.0492,142.28738 C 133.61746,142.39928 133.61925,142.49183 133.78957,142.78519 C 133.54577,143.12962 134.13269,142.95226 134.08386,143.38007 C 134.37556,143.63411 134.87831,143.9773 134.6384,144.48135 C 134.17204,144.5219 134.90894,145.17316 134.2544,145.28945 C 133.50149,145.45012 133.06674,146.27845 132.27582,146.34368 C 132.17813,145.9094 132.05132,145.2808 132.08249,144.95903 C 132.21194,144.71378 131.4822,144.58783 131.3073,144.38208 C 130.70036,144.77118 130.07474,145.24835 129.32121,145.08657 C 128.67293,145.79523 128.1831,144.31016 127.48389,144.62494 C 127.4246,144.05136 127.45996,143.19693 127.96197,142.67576 C 128.26676,142.11141 127.54347,141.40344 127.12368,142.10291 C 126.51649,141.79127 125.58587,141.5594 125.10205,140.90887 C 124.7174,140.45555 124.14716,141.63707 124.16118,140.72198 C 124.00543,140.09311 124.07976,139.42299 124.83349,139.39036 C 124.91872,138.43733 123.8289,138.50549 123.40023,137.95853 C 122.95193,137.25732 123.38773,136.43172 122.78916,135.80705 C 122.48473,135.03897 122.76192,134.2582 122.77065,133.52525 C 123.17757,133.2492 123.69975,133.06323 123.71083,132.45534 C 124.19419,132.95448 123.71216,133.79127 124.06623,134.42585 C 124.46409,135.02735 124.30587,136.1258 125.2032,136.07098 C 125.81911,135.37533 126.58434,135.61276 127.22383,136.09501 C 127.28781,135.52188 127.29503,135.00324 127.57516,134.50135 C 127.21111,134.26526 126.89656,133.79086 126.84349,133.36069 z "
            id="Coimbra" />
        <path style="fill:#ffefd5;fill-rule:evenodd;stroke:#b22222;stroke-width:0.25400001;stroke-opacity:1"
            d="M 128.45549,150.97868 C 127.86464,151.29865 127.39386,150.66545 127.30335,150.15233 C 127.22047,149.64628 126.75719,150.14305 126.47926,149.83957 C 126.0062,149.62713 125.3724,150.15563 125.00892,149.71532 C 124.69256,149.16615 124.58959,148.51888 124.27249,147.97269 C 124.21444,147.26971 123.36972,147.36863 122.93819,147.22185 C 122.45916,146.88553 122.31168,146.33299 122.34062,145.77098 C 122.22436,145.46359 122.50602,145.19565 122.61101,144.94447 C 123.18564,145.06865 123.34436,144.53855 123.07057,144.13813 C 122.94124,143.68613 123.76184,143.65567 123.72949,143.17435 C 124.04724,143.53568 124.81316,143.53839 124.6131,142.88224 C 124.48732,142.30929 124.42184,141.73001 124.29082,141.16436 C 124.58719,140.72724 125.14667,140.68135 125.35439,141.21893 C 125.65016,141.41379 126.03461,141.50881 126.31441,141.78504 C 126.63445,141.80025 126.83844,141.98635 127.04771,142.13136 C 127.35312,141.80004 127.94646,141.61786 127.99938,142.25183 C 128.16953,142.80449 127.37684,143.12055 127.51317,143.68326 C 127.5995,144.00261 127.10962,144.84731 127.80364,144.61082 C 128.1555,144.64935 128.39665,145.12407 128.79845,145.23413 C 129.08981,145.51836 129.34405,144.84201 129.6726,145.14559 C 130.04012,144.91325 130.56908,145.10743 130.81045,144.67816 C 131.1083,144.20365 131.57472,144.43606 131.86282,144.73111 C 132.11524,144.72042 132.26443,144.93748 131.96816,145.03936 C 132.32246,145.4543 132.05993,145.9588 132.27679,146.40551 C 132.1246,146.83645 132.75252,147.30109 132.4074,147.58519 C 131.97356,147.85539 131.42238,147.6962 130.98579,148.03534 C 130.73711,148.25807 130.55448,148.2034 130.49216,147.88819 C 130.20036,147.72915 129.64483,147.46886 129.45416,147.50235 C 129.3679,147.90042 129.77495,148.08523 129.722,148.43909 C 130.08693,148.67275 130.2881,149.06273 130.65516,149.29395 C 131.11525,149.5274 131.03804,150.20728 130.73682,150.54402 C 130.08458,150.56116 129.39284,150.5691 128.79949,150.25436 C 128.37447,150.24976 128.64174,150.77383 128.45549,150.97868 z "
            id="Condeixa-a-Nova" />
        <path style="fill:#ffefd5;fill-rule:evenodd;stroke:#b22222;stroke-width:0.25400001;stroke-opacity:1"
            d="M 113.76049,147.6657 C 114.0342,147.59691 113.80244,147.11253 114.27649,147.35769 C 114.19721,146.91231 113.40108,146.47468 113.44147,145.84087 C 113.24436,145.50298 113.4878,144.55067 112.79791,145.119 C 112.46824,145.14715 113.25146,144.40256 113.24401,144.06252 C 113.69534,143.449 114.37169,143.09355 115.01132,142.74214 C 115.48816,142.30092 116.10362,142.09039 116.25325,141.49228 C 117.1313,141.19384 116.00269,140.4874 116.7006,140.03186 C 116.8419,139.67032 115.96629,139.94961 116.16445,139.35462 C 115.63725,138.69205 115.47899,138.03924 115.63449,137.23568 C 115.21995,136.42329 114.39015,135.72708 114.52707,134.72781 C 114.40911,134.16226 114.74447,133.2684 114.29539,132.8963 C 113.45956,133.10637 112.75137,132.52986 111.90449,132.54568 C 110.94244,131.93244 110.02027,131.25903 109.06249,130.63934 C 108.6164,132.07762 108.23332,133.53754 107.64578,134.92722 C 107.12497,136.30401 106.54799,137.66129 106.15382,139.08202 C 106.00308,139.41464 105.79261,139.73519 105.66782,140.07269 C 105.76405,140.37613 105.80406,140.71447 105.92616,141.00203 C 106.45413,141.39291 107.02887,141.74261 107.52813,142.15876 C 107.72787,142.59773 108.08678,142.99182 108.03356,143.50212 C 108.04849,143.99001 108.17654,144.49217 107.94365,144.94881 C 107.44979,146.42043 106.99749,147.90484 106.56508,149.39526 C 106.51223,149.66319 106.28877,150.02189 106.34075,150.23404 C 107.02312,150.34917 107.54793,150.83371 107.69282,151.52236 C 108.52578,151.85753 109.21523,150.957 109.91249,151.7037 C 110.43358,151.87236 111.24078,152.65137 111.49213,151.67885 C 111.63139,150.85698 112.37049,150.28149 113.17518,150.43405 C 113.89324,150.75775 115.25308,151.41138 114.7079,150.11931 C 114.28703,149.3909 114.42412,148.49974 113.78241,147.85933 L 113.76049,147.6657 L 113.76049,147.6657 z "
            id="Figueira_da_Foz" />
        <path style="fill:#ffefd5;fill-rule:evenodd;stroke:#b22222;stroke-width:0.25400001;stroke-opacity:1"
            d="M 154.8745,143.59068 C 154.50965,143.52132 154.20797,143.49794 153.93282,143.71736 C 153.91546,143.32495 154.52163,142.81976 154.18465,142.32872 C 154.42831,141.74841 154.80176,141.08045 154.18586,140.56281 C 153.77302,140.00473 153.41823,140.29675 153.48016,140.87469 C 153.1887,141.60632 151.99391,140.91386 151.50494,141.43694 C 151.17835,141.88981 150.70448,140.95886 150.35474,141.54498 C 149.82775,141.32878 149.36457,140.83653 149.29716,140.25903 C 148.57642,140.23834 148.79646,138.87157 147.95108,139.41099 C 147.50447,139.61916 147.1912,139.83467 147.02992,139.28469 C 146.51216,139.20866 146.49344,138.44999 145.82863,138.67726 C 145.16509,138.28143 144.34391,138.99012 144.75428,139.663 C 145.12941,140.01139 144.95998,140.84913 144.7245,141.13927 C 144.98263,141.72761 145.50334,142.15191 145.68413,142.78736 C 145.6092,143.18508 145.38006,143.54516 145.38908,143.96813 C 144.59248,144.4702 145.05148,145.43605 144.39816,146.00233 C 144.06394,146.36188 144.40003,146.82008 144.20916,147.24837 C 145.01976,147.50104 145.46103,148.18691 146.19331,148.48587 C 146.26621,149.22074 145.72447,149.66385 145.68465,150.39158 C 145.54948,150.96831 145.24674,151.8271 145.95191,152.14631 C 146.52161,152.71458 146.17963,153.56107 146.99046,153.90799 C 147.22331,154.55829 147.96244,154.943 147.985,155.68905 C 148.24876,155.63155 148.67325,154.86731 149.18849,154.81735 C 148.97593,154.40699 148.93932,153.65539 149.66649,153.62236 C 149.85219,153.23899 149.63404,152.83852 150.20444,152.7968 C 150.67374,152.43128 151.13885,152.07239 151.62001,151.98787 C 151.81333,151.93936 152.29465,152.27654 152.08754,151.68814 C 152.0997,150.92797 152.12046,150.1901 151.80053,149.47662 C 151.39377,148.88539 151.6389,148.05124 151.06603,147.58513 C 150.60016,147.4056 150.20176,147.15245 150.6444,146.68189 C 150.97415,146.2385 151.5277,146.00223 151.83471,145.55305 C 152.55483,145.49947 153.30441,145.27888 154.00841,145.45132 C 154.62155,145.66061 155.19242,146.05559 155.87016,146.05337 C 156.23877,145.69234 156.89208,144.79594 155.91383,145.00304 C 155.61765,144.45657 155.04735,144.16422 154.8745,143.59068 z "
            id="Góis" />
        <path style="fill:#ffefd5;fill-rule:evenodd;stroke:#b22222;stroke-width:0.25400001;stroke-opacity:1"
            d="M 137.79849,140.67567 C 138.1637,140.78347 138.68675,140.97038 138.48739,140.37971 C 138.83013,140.0219 139.4567,140.33689 139.87858,140.41683 C 140.39641,140.44534 140.76908,141.05774 141.29347,140.78822 C 141.75336,140.95935 141.80043,140.16335 142.33171,140.2746 C 143.01224,140.28946 143.11334,139.3832 143.73091,139.2841 C 144.0356,139.22252 144.35972,139.25466 144.6515,139.14369 C 144.53021,139.63335 145.15778,139.86262 144.93658,140.33356 C 144.85015,140.57464 145.1075,141.00459 144.71583,141.03802 C 144.81676,141.65761 145.47422,141.99815 145.59788,142.61774 C 145.90128,143.06218 145.23408,143.38575 145.45816,143.88069 C 145.11305,144.27389 144.68498,144.69091 144.82253,145.24242 C 144.84627,145.7893 143.99164,146.07598 144.28519,146.63706 C 144.37798,147.19808 143.91354,147.50186 143.67571,147.9441 C 143.40254,148.46205 142.84277,148.81246 142.69614,149.39389 C 142.42965,150.04993 141.95955,149.28079 141.64899,149.06001 C 141.2806,148.66327 140.68477,148.91348 140.44642,148.39374 C 140.09127,148.18509 140.00553,147.77451 139.74132,147.49171 C 139.3506,147.27672 138.78658,147.43109 138.6025,146.9047 C 138.26352,146.76905 137.87615,146.72203 137.89627,146.30201 C 137.53252,145.99155 137.44498,145.50971 137.22949,145.08831 C 137.40865,144.81556 137.89494,144.6726 137.95173,144.22469 C 138.17188,143.79443 138.52668,143.43095 138.34103,142.94156 C 138.10875,142.49766 138.86675,142.07296 138.39894,141.69582 C 138.14278,141.41465 137.77161,141.08592 137.79849,140.67567 z "
            id="Lousã" />
        <path style="fill:#ffefd5;fill-rule:evenodd;stroke:#b22222;stroke-width:0.25400001;stroke-opacity:1"
            d="M 112.37849,117.60869 C 112.18768,118.42779 112.05737,119.2627 111.78564,120.06066 C 111.52354,120.93997 111.23631,121.81275 110.98988,122.69612 C 110.73655,123.87222 110.5071,125.05401 110.23869,126.22653 C 110.19284,126.39869 110.147,126.57086 110.10116,126.74302 C 110.53672,126.71567 110.97863,126.59735 111.41073,126.70671 C 111.82592,126.79179 112.21575,127.01752 112.63189,127.1032 C 113.07885,127.21991 113.54172,127.17572 113.98311,127.10922 C 114.39794,127.09536 114.81434,127.18305 115.20872,127.25101 C 115.66917,127.34943 116.12096,127.10755 116.42398,126.76571 C 116.40645,126.40175 116.80433,126.17024 116.66749,125.77302 C 117.01906,125.50795 117.47204,125.24609 117.20953,124.74681 C 117.08631,124.4075 116.98824,123.86066 117.53649,124.01669 C 117.5379,123.65865 117.52639,123.28138 117.34622,123.02142 C 117.54757,122.59447 117.01,122.20707 116.82975,121.83955 C 116.46379,121.33643 115.9603,120.96164 115.50353,120.55256 C 115.04982,120.05113 114.65568,119.49548 114.20175,118.99717 C 113.8019,118.67402 113.45448,118.28418 113.0522,117.96921 C 112.82763,117.84904 112.60302,117.72884 112.37849,117.60869 z "
            id="Mira" />
        <path style="fill:#ffefd5;fill-rule:evenodd;stroke:#b22222;stroke-width:0.25400001;stroke-opacity:1"
            d="M 137.79849,140.67567 C 137.53866,140.28373 137.24161,139.72964 136.68273,139.95259 C 136.19252,140.14965 135.42661,139.38547 135.39992,140.19902 C 135.41447,141.0518 134.32596,140.10752 134.25946,140.87141 C 134.13035,141.3769 134.89857,141.93425 134.18844,142.20536 C 133.94791,142.38487 133.39596,142.41934 133.81022,142.69622 C 133.69231,142.93627 133.66973,143.06783 133.96943,143.05375 C 133.93953,143.65942 134.70623,143.55294 134.68187,144.15148 C 134.69644,144.37278 134.67763,144.53483 134.39449,144.58703 C 134.91001,145.00971 134.17823,145.39971 133.78376,145.47456 C 133.30094,145.78987 132.88275,146.28838 132.27582,146.34336 C 132.14602,146.78268 132.63656,147.21591 132.46811,147.55088 C 131.98072,147.65377 132.28047,148.02504 132.62806,148.0397 C 133.04871,148.25781 133.28716,148.78884 133.75306,148.73819 C 134.131,148.93292 134.3917,149.44964 134.29945,149.73821 C 134.89471,149.56315 135.1682,150.27386 135.76159,150.14659 C 136.3168,150.12535 136.7437,150.5211 137.12849,150.87035 C 137.68717,150.84053 138.16725,151.36857 138.57034,151.50829 C 138.9116,151.23526 138.54729,150.76646 138.98046,150.53611 C 139.14018,150.05053 139.51977,149.61416 140.08241,149.74534 C 140.51213,149.70815 140.50167,149.07183 140.73764,148.83056 C 140.62358,148.36959 140.04031,148.2063 139.92537,147.72779 C 139.72492,147.16815 138.97698,147.54618 138.72602,147.07795 C 138.51733,146.68259 137.8348,146.84669 137.89626,146.30201 C 137.52096,145.97152 137.40009,145.4621 137.21916,145.00336 C 137.76423,144.83201 137.90142,144.28767 138.15875,143.83903 C 138.59075,143.4626 138.21982,142.90953 138.33928,142.47574 C 138.89574,141.98948 138.22287,141.55511 137.94394,141.15531 C 137.8566,141.01477 137.76813,140.8431 137.79849,140.67567 z "
            id="Miranda_do_Corvo" />
        <path style="fill:#ffefd5;fill-rule:evenodd;stroke:#b22222;stroke-width:0.25400001;stroke-opacity:1"
            d="M 114.65625,131.5625 C 114.63924,131.56344 114.60991,131.5914 114.59375,131.59375 C 114.55452,131.60147 114.50124,131.60732 114.46875,131.625 C 114.4378,131.64483 114.39734,131.68742 114.375,131.71875 C 114.35457,131.75253 114.32244,131.79693 114.3125,131.84375 C 114.55539,132.51318 114.45584,133.22827 114.59375,133.90625 C 114.53541,134.48198 114.4899,135.10688 114.78125,135.625 C 114.79117,135.6419 114.80183,135.6708 114.8125,135.6875 C 115.08869,136.28684 115.83757,136.76587 115.59375,137.5 C 115.58939,137.53752 115.59504,137.58773 115.59375,137.625 C 115.5856,138.17383 115.89788,138.72037 116.25,139.21875 C 116.23958,139.24252 116.22424,139.29233 116.21875,139.3125 C 116.21743,139.31885 116.21958,139.33776 116.21875,139.34375 C 116.21857,139.34657 116.21881,139.37227 116.21875,139.375 C 116.21929,139.37997 116.21779,139.40159 116.21875,139.40625 C 116.22011,139.41061 116.21701,139.43343 116.21875,139.4375 C 116.2212,139.44102 116.24722,139.46548 116.25,139.46875 C 116.25675,139.47436 116.27344,139.49523 116.28125,139.5 C 116.28539,139.50219 116.30814,139.49798 116.3125,139.5 C 116.41278,139.54067 116.56091,139.56524 116.65625,139.59375 C 116.66036,139.59516 116.68363,139.59221 116.6875,139.59375 C 116.69419,139.59742 116.71327,139.62065 116.71875,139.625 C 116.72116,139.62737 116.74794,139.62243 116.75,139.625 C 116.75169,139.62778 116.74869,139.65324 116.75,139.65625 C 116.75049,139.65975 116.74995,139.68374 116.75,139.6875 C 116.74911,139.69183 116.75138,139.71412 116.75,139.71875 C 116.74811,139.72369 116.72117,139.74473 116.71875,139.75 C 116.71578,139.7556 116.72229,139.7753 116.71875,139.78125 C 116.63317,139.84553 116.57053,139.9061 116.53125,139.96875 C 116.52476,139.98013 116.50523,140.01989 116.5,140.03125 C 116.49306,140.04828 116.47316,140.07673 116.46875,140.09375 C 116.46754,140.09942 116.4697,140.11932 116.46875,140.125 C 116.46804,140.13068 116.46922,140.15057 116.46875,140.15625 C 116.46826,140.16763 116.46838,140.20734 116.46875,140.21875 C 116.46913,140.22446 116.46818,140.24428 116.46875,140.25 C 116.49592,140.45647 116.64518,140.6892 116.6875,140.9375 C 116.60649,140.96428 116.52644,140.99114 116.46875,141.03125 C 116.42732,141.06237 116.37576,141.11989 116.34375,141.15625 C 116.33863,141.16243 116.31742,141.18121 116.3125,141.1875 C 116.18021,141.36648 116.0977,141.61059 115.96875,141.78125 C 115.96396,141.78722 115.94248,141.80666 115.9375,141.8125 C 115.93231,141.8182 115.91166,141.8382 115.90625,141.84375 C 115.9006,141.84915 115.88089,141.86977 115.875,141.875 C 115.84424,141.90031 115.78821,141.94829 115.75,141.96875 C 115.71011,141.98812 115.64302,141.98666 115.59375,142 C 115.11917,142.44558 114.57866,142.73191 114.03125,143.0625 C 113.42161,143.41556 113.18235,144.03252 112.84375,144.59375 C 112.78481,144.66383 112.74251,144.7417 112.71875,144.78125 C 112.71675,144.78536 112.68904,144.80879 112.6875,144.8125 C 112.68641,144.81582 112.68815,144.8408 112.6875,144.84375 C 112.68942,144.84687 112.71537,144.87312 112.71875,144.875 C 112.72174,144.87484 112.74672,144.8754 112.75,144.875 C 112.88745,144.84425 113.21341,144.65598 113.375,144.625 C 113.37926,144.62436 113.40223,144.62541 113.40625,144.625 C 113.55453,144.52382 113.68885,144.48671 113.8125,144.5 C 114.10414,144.54727 114.37314,144.85431 114.65625,145 C 114.82219,145.07924 115.00652,145.12536 115.21875,145.03125 C 115.71864,144.69677 116.36144,145.11879 116.84375,145.125 C 116.89986,145.12373 116.97941,145.1093 117.03125,145.09375 C 117.06529,145.08155 117.12447,145.05151 117.15625,145.03125 C 117.22571,145.04728 117.31422,145.04091 117.375,145.03125 C 117.44325,145.01666 117.53321,144.97474 117.59375,144.9375 C 117.75078,144.83422 117.91288,144.65339 118.0625,144.53125 C 118.09841,144.50306 118.14967,144.45974 118.1875,144.4375 C 118.21049,144.42505 118.25727,144.41565 118.28125,144.40625 C 118.32183,144.39247 118.39332,144.37781 118.4375,144.375 C 118.51849,144.37444 118.62178,144.38952 118.71875,144.4375 C 118.78772,144.43337 118.85181,144.41858 118.90625,144.40625 C 118.9326,144.39961 118.97705,144.38347 119,144.375 C 119.00553,144.37277 119.02593,144.37733 119.03125,144.375 C 119.03637,144.37256 119.05758,144.34629 119.0625,144.34375 C 119.06722,144.3411 119.08923,144.3465 119.09375,144.34375 C 119.09808,144.34091 119.12087,144.31544 119.125,144.3125 C 119.12875,144.30937 119.15269,144.28447 119.15625,144.28125 C 119.15945,144.27786 119.18448,144.25347 119.1875,144.25 C 119.19282,144.24273 119.21413,144.22633 119.21875,144.21875 C 119.22089,144.21488 119.21678,144.19144 119.21875,144.1875 C 119.22039,144.18342 119.24852,144.16039 119.25,144.15625 C 119.25132,144.15204 119.24884,144.12927 119.25,144.125 C 119.32443,143.73871 118.7962,143.10513 118.375,142.9375 C 118.26245,142.90901 118.16659,142.86261 118.09375,142.8125 C 118.04791,142.77771 117.99918,142.72969 117.96875,142.6875 C 117.95474,142.66586 117.91677,142.61688 117.90625,142.59375 C 117.89685,142.57016 117.88117,142.52482 117.875,142.5 C 117.86643,142.45802 117.87553,142.38826 117.875,142.34375 C 117.87656,142.2719 117.8876,142.16861 117.90625,142.09375 C 117.92933,142.0094 117.96092,141.89511 118,141.8125 C 118.06304,141.6848 118.16619,141.54332 118.25,141.4375 C 118.25003,141.41814 118.24817,141.39371 118.25,141.375 C 118.25675,141.32906 118.26449,141.26028 118.28125,141.21875 C 118.2924,141.19439 118.32951,141.14763 118.34375,141.125 C 118.36907,141.08828 118.40505,141.03152 118.4375,141 C 118.5184,140.92698 118.64376,140.85119 118.75,140.8125 C 118.81268,140.79175 118.90335,140.78868 118.96875,140.78125 C 119.04356,140.77503 119.14664,140.76834 119.21875,140.78125 C 119.29902,140.79859 119.40075,140.831 119.46875,140.875 C 119.50549,140.90117 119.5631,140.93372 119.59375,140.96875 C 120.20828,141.36435 120.90551,141.3958 121.59375,141.5625 C 122.26445,141.77526 122.78639,142.26263 123.4375,142.53125 C 123.49839,142.56748 123.55282,142.5904 123.59375,142.625 C 123.61305,142.64221 123.64142,142.67065 123.65625,142.6875 C 123.66657,142.70008 123.6795,142.7376 123.6875,142.75 C 123.68967,142.7541 123.71681,142.77717 123.71875,142.78125 C 123.72045,142.78531 123.71728,142.80846 123.71875,142.8125 C 123.71978,142.81651 123.71794,142.83976 123.71875,142.84375 C 123.71914,142.84772 123.71856,142.87105 123.71875,142.875 C 123.71874,142.87894 123.71895,142.90233 123.71875,142.90625 C 123.71818,142.91015 123.7195,142.93361 123.71875,142.9375 C 123.72128,142.94027 123.74742,142.93477 123.75,142.9375 C 123.75537,142.94278 123.77569,142.96365 123.78125,142.96875 C 123.80422,142.98842 123.84957,143.01459 123.875,143.03125 C 123.88797,143.03919 123.92409,143.05535 123.9375,143.0625 C 123.9511,143.06925 123.98608,143.08782 124,143.09375 C 124.01404,143.09926 124.04827,143.12033 124.0625,143.125 C 124.09821,143.13559 124.15184,143.1512 124.1875,143.15625 C 124.20879,143.1586 124.26047,143.156 124.28125,143.15625 C 124.2881,143.1561 124.30574,143.15664 124.3125,143.15625 C 124.32583,143.15498 124.36214,143.15851 124.375,143.15625 C 124.3876,143.1535 124.42549,143.12877 124.4375,143.125 C 124.44334,143.12286 124.46308,143.1274 124.46875,143.125 C 124.47423,143.12234 124.49472,143.09667 124.5,143.09375 C 124.51523,143.08419 124.54932,143.07448 124.5625,143.0625 C 124.57493,143.04969 124.58377,143.01531 124.59375,143 C 124.59678,142.99461 124.62227,142.97442 124.625,142.96875 C 124.62742,142.96279 124.62291,142.94375 124.625,142.9375 C 124.62851,142.92441 124.65415,142.88927 124.65625,142.875 C 124.66238,142.80807 124.65308,142.7171 124.625,142.625 C 124.50259,142.06738 124.4369,141.48866 124.3125,140.9375 C 124.30931,140.92337 124.28452,140.92037 124.28125,140.90625 C 124.2785,140.89948 124.28395,140.88179 124.28125,140.875 C 124.13962,140.51843 124.08759,140.14255 124.125,139.75 C 124.1166,139.72264 124.09774,139.68021 124.09375,139.65625 C 124.09201,139.64099 124.09373,139.60765 124.09375,139.59375 C 124.0946,139.5805 124.09132,139.54326 124.09375,139.53125 C 124.09851,139.51411 124.11715,139.48344 124.125,139.46875 C 124.13086,139.45946 124.14923,139.44585 124.15625,139.4375 C 124.16003,139.43354 124.18347,139.41 124.1875,139.40625 C 124.19605,139.39914 124.20933,139.38138 124.21875,139.375 C 124.23346,139.36593 124.26505,139.35153 124.28125,139.34375 C 124.3975,139.2919 124.55161,139.26801 124.65625,139.21875 C 124.66104,139.21629 124.68291,139.19008 124.6875,139.1875 C 124.69624,139.18208 124.71097,139.16227 124.71875,139.15625 C 124.72238,139.15308 124.74665,139.1596 124.75,139.15625 C 124.75918,139.14565 124.77497,139.10621 124.78125,139.09375 C 124.78263,139.08913 124.78025,139.06737 124.78125,139.0625 C 124.78185,139.05737 124.78106,139.03665 124.78125,139.03125 C 124.78479,138.99721 124.81256,138.93712 124.8125,138.90625 C 124.81204,138.89119 124.78255,138.85809 124.78125,138.84375 C 124.77955,138.82976 124.78374,138.79457 124.78125,138.78125 C 124.77982,138.77475 124.78287,138.75634 124.78125,138.75 C 124.77764,138.73763 124.75431,138.69929 124.75,138.6875 C 124.74767,138.68175 124.75249,138.66187 124.75,138.65625 C 124.74734,138.65076 124.72156,138.63036 124.71875,138.625 C 124.71578,138.61976 124.72187,138.59887 124.71875,138.59375 C 124.71548,138.58875 124.69091,138.56739 124.6875,138.5625 C 124.54569,138.37092 124.29238,138.25814 124.0625,138.09375 C 124.03457,138.09458 123.99516,138.09567 123.96875,138.09375 C 123.9342,138.09002 123.87568,138.07071 123.84375,138.0625 C 123.82028,138.05555 123.77205,138.04048 123.75,138.03125 C 123.73561,138.02461 123.70128,138.00757 123.6875,138 C 123.67403,137.99198 123.63788,137.97763 123.625,137.96875 C 123.61871,137.9641 123.59989,137.94235 123.59375,137.9375 C 123.58775,137.93246 123.56835,137.91148 123.5625,137.90625 C 123.53965,137.88458 123.48936,137.83687 123.46875,137.8125 C 123.46373,137.80625 123.44238,137.78765 123.4375,137.78125 C 123.428,137.76817 123.41522,137.73237 123.40625,137.71875 C 123.2713,137.50379 123.1853,137.21519 123.15625,136.96875 C 123.17128,136.91843 123.18046,136.86031 123.1875,136.8125 C 123.19642,136.73673 123.19497,136.63335 123.1875,136.5625 C 123.18174,136.51853 123.16683,136.44888 123.15625,136.40625 C 123.05811,136.04153 122.81302,135.69092 122.75,135.28125 C 122.65445,135.12369 122.62324,134.93791 122.625,134.78125 C 122.64155,134.33082 122.90432,133.85116 122.6875,133.375 L 122.65625,133.375 C 122.13837,133.45848 121.68314,134.23066 121.15625,133.90625 C 121.11053,133.87492 121.04736,133.83078 121,133.78125 C 121.00792,133.77441 121.02399,133.75676 121.03125,133.75 C 121.04447,133.73662 121.08302,133.7006 121.09375,133.6875 C 121.10327,133.67454 121.11779,133.63768 121.125,133.625 C 121.13719,133.5999 121.15234,133.55533 121.15625,133.53125 C 121.15675,133.52529 121.15622,133.5059 121.15625,133.5 C 121.15583,133.49416 121.1571,133.47453 121.15625,133.46875 C 121.15498,133.46302 121.15793,133.44317 121.15625,133.4375 C 121.15212,133.42626 121.1306,133.38603 121.125,133.375 C 121.12186,133.36954 121.09722,133.34916 121.09375,133.34375 C 120.9575,133.15061 120.6172,132.97033 120.4375,132.8125 C 120.42801,132.80374 120.41466,132.78999 120.40625,132.78125 C 120.42439,132.70841 120.40567,132.62071 120.40625,132.5625 C 120.40575,132.54643 120.40804,132.51498 120.40625,132.5 C 120.40384,132.48555 120.40987,132.45092 120.40625,132.4375 C 120.40204,132.42458 120.38034,132.38694 120.375,132.375 C 120.36617,132.3578 120.35492,132.32766 120.34375,132.3125 C 120.33978,132.30767 120.31671,132.28587 120.3125,132.28125 C 120.30805,132.27684 120.28592,132.25421 120.28125,132.25 C 120.27614,132.24618 120.25532,132.22238 120.25,132.21875 C 120.23896,132.21186 120.1993,132.19368 120.1875,132.1875 C 120.18142,132.18458 120.16251,132.19025 120.15625,132.1875 C 120.14339,132.18232 120.10724,132.16082 120.09375,132.15625 C 119.90069,132.09639 119.64203,132.09276 119.40625,132.09375 C 119.38882,132.11258 119.36292,132.14014 119.34375,132.15625 C 119.3306,132.16641 119.2951,132.17847 119.28125,132.1875 C 119.19613,132.2384 119.0733,132.29535 118.96875,132.3125 C 118.58091,132.36676 118.08187,132.22231 117.71875,132.15625 C 117.70116,132.14773 117.6741,132.13219 117.65625,132.125 C 117.58437,132.09875 117.48165,132.07151 117.40625,132.0625 C 116.91361,132.01552 116.35893,132.26087 115.84375,132.0625 C 115.62811,131.87186 115.08986,131.58336 114.71875,131.5625 C 114.70099,131.56212 114.67326,131.56156 114.65625,131.5625 z M 123.6875,143 C 123.66513,143.04585 123.63267,143.11112 123.59375,143.15625 C 123.57331,143.1788 123.55397,143.22744 123.53125,143.25 C 123.55204,143.23257 123.60668,143.23768 123.625,143.21875 C 123.64695,143.19454 123.67131,143.15246 123.6875,143.125 C 123.69343,143.11372 123.71399,143.07442 123.71875,143.0625 C 123.72082,143.05637 123.71701,143.03756 123.71875,143.03125 C 123.72015,143.02476 123.7177,143.00668 123.71875,143 C 123.71561,143.00768 123.69123,142.99236 123.6875,143 z M 123.53125,143.25 C 123.50096,143.28008 123.46974,143.31342 123.4375,143.34375 C 123.47777,143.31604 123.49486,143.2805 123.53125,143.25 z M 123.375,143.375 C 123.35238,143.39638 123.33449,143.41584 123.3125,143.4375 C 123.34032,143.41799 123.34607,143.39444 123.375,143.375 z M 123.0625,143.90625 C 123.06331,143.91088 123.06147,143.93284 123.0625,143.9375 C 123.06375,143.94219 123.06102,143.96403 123.0625,143.96875 C 123.0642,143.9735 123.09181,143.99522 123.09375,144 C 123.09593,144.00482 123.09133,144.0264 123.09375,144.03125 C 123.09642,144.03613 123.12208,144.05759 123.125,144.0625 C 123.12672,144.06499 123.15446,144.06 123.15625,144.0625 C 123.14436,144.02964 123.14214,143.96975 123.125,143.9375 C 123.12136,143.93109 123.0976,143.91261 123.09375,143.90625 C 123.09172,143.9031 123.06458,143.90939 123.0625,143.90625 z "
            transform="matrix(1.001822,0,0,1.001822,-0.227801,0)" id="Montemor-o-Velho" />
        <path style="fill:#ffefd5;fill-rule:evenodd;stroke:#b22222;stroke-width:0.25400001;stroke-opacity:1"
            d="M 156.61249,124.19769 C 157.37689,123.87566 157.7601,123.05937 158.0933,122.41314 C 158.62542,121.89985 159.2665,121.46365 159.69816,120.86569 C 160.32751,120.56477 160.68032,119.92631 161.22225,119.53525 C 161.67161,119.17564 162.25477,119.32736 162.73282,119.00069 C 162.64412,119.7018 162.71147,120.46067 163.39868,120.78279 C 163.74954,121.21862 164.50509,121.57851 164.03697,122.20917 C 163.85292,122.68161 163.6397,123.19783 163.07673,122.85487 C 162.4735,123.03228 161.84591,123.42391 161.53782,123.98035 C 161.65428,124.5563 161.85238,125.08245 162.41291,125.40869 C 162.9753,125.71242 163.70574,125.01843 164.27215,125.42902 C 164.11312,126.1822 164.40922,126.97436 164.37252,127.68558 C 164.57976,128.24231 163.93938,128.59323 164.03815,129.09845 C 164.4532,129.44309 165.1152,129.67365 165.38787,130.00022 C 165.74181,129.77057 166.197,130.17966 166.40024,130.37207 C 166.14108,130.87648 166.29271,131.82359 165.45593,131.48385 C 164.96768,131.36708 164.7639,132.14641 164.21781,132.00202 C 163.95565,132.61774 163.70083,133.23213 163.37129,133.81957 C 163.25394,134.42737 163.22043,134.91052 162.57556,135.14909 C 161.77365,135.54627 161.7038,134.38646 161.07731,134.2654 C 160.56112,134.13372 159.93073,133.94141 159.83581,133.39601 C 159.17191,133.88624 158.53473,133.41786 157.8947,133.40389 C 157.7561,133.14797 157.98369,132.72766 157.49251,132.99884 C 157.09421,133.02831 156.67726,134.05087 156.50905,133.41526 C 156.88023,133.11689 156.69136,132.66359 156.53411,132.40954 C 156.20765,132.70633 155.89896,132.89845 155.62456,132.41159 C 155.06768,132.15906 155.07346,131.51735 154.70482,131.15452 C 154.97208,130.50238 155.81616,130.7294 156.39765,130.5099 C 157.08251,130.34786 157.93188,131.5051 158.40515,130.73434 C 158.16472,129.99193 158.7953,129.64048 159.06683,129.07152 C 159.02196,128.65895 158.25078,128.62577 158.83533,128.19143 C 159.15362,127.37756 157.41947,127.84521 158.07573,127.08168 C 158.55365,126.58128 157.71416,126.20016 157.48205,125.82285 C 156.89025,125.64907 157.04405,125.06452 156.73698,124.71911 C 156.72457,124.54181 156.72436,124.34724 156.61249,124.19769 z "
            id="Oliveira_do_Hospital" />
        <path style="fill:#ffefd5;fill-rule:evenodd;stroke:#b22222;stroke-width:0.25400001;stroke-opacity:1"
            d="M 163.81949,150.76169 C 163.97831,150.33217 164.57218,149.92411 163.83173,149.88537 C 163.64865,149.2644 164.83301,149.22313 164.07067,148.68761 C 163.62854,148.36167 165.10678,147.88232 164.09065,147.98764 C 163.61074,148.36904 163.03596,147.95465 163.81152,147.79517 C 164.26893,147.66611 164.58109,146.87586 165.01449,147.42969 C 164.42701,147.9415 166.07006,149.45691 165.76773,148.28338 C 166.24607,147.77786 167.29503,147.36547 167.34958,146.7055 C 166.17018,146.25938 168.31613,146.34474 167.82451,145.5953 C 168.17599,144.37939 166.71734,144.22439 166.04272,143.63238 C 165.6886,143.10756 165.82156,142.13464 164.79716,142.35969 C 164.38619,141.78221 164.16174,141.12608 163.88615,140.57526 C 164.08543,139.64496 162.4925,138.75304 162.44316,140.09635 C 162.13389,140.72441 161.65065,139.32017 161.10726,140.04336 C 160.02675,140.30468 160.91672,138.09197 159.83767,138.71236 C 158.95759,139.37753 159.06093,140.75563 158.18783,141.29135 C 157.87119,141.88574 156.98221,141.17677 156.7395,142.01568 C 156.13465,141.97858 156.4578,142.83079 155.5625,142.72202 C 155.40418,143.18482 155.55091,143.61484 154.87416,143.59102 C 155.28232,144.12118 155.64397,145.15812 156.47262,145.04225 C 156.25585,146.73037 154.64534,145.6805 153.69716,145.36568 C 152.81319,145.52682 151.70775,145.23413 151.21933,146.18459 C 150.45099,146.47703 150.11625,147.47394 151.14257,147.63585 C 151.59933,148.39786 151.62573,149.36204 152.05141,150.19572 C 151.95904,150.7535 152.36337,151.87386 151.86849,152.07268 C 151.25064,151.76605 150.63666,152.66486 149.91282,152.89835 C 149.71657,153.20366 149.75514,153.70829 149.21982,153.84035 C 148.64281,154.22187 149.66803,154.87688 148.77628,155.03062 C 147.99622,155.3534 148.03623,156.43603 147.36126,156.64612 C 147.18208,157.24065 146.06682,157.84821 147.26091,158.0369 C 147.61556,157.99548 147.26021,156.2783 148.07286,157.14848 C 148.8862,157.49225 149.83401,157.11806 149.25891,156.22496 C 149.13785,154.98716 150.3044,157.24323 150.56136,156.04887 C 150.56463,154.79354 151.66101,156.2346 152.17159,155.83013 C 152.01656,155.42632 151.68597,154.57768 152.06883,154.38041 C 152.36622,155.03171 153.21665,155.49378 153.58029,154.96033 C 153.16589,154.74308 152.74157,153.77701 153.52399,154.22414 C 153.71873,154.78705 154.55211,154.95775 154.28695,154.16362 C 154.92092,153.25442 155.36761,155.00768 155.8273,154.66741 C 155.5734,154.05336 156.53586,153.69018 156.23662,153.17052 C 156.96203,153.01196 157.82028,153.82191 158.36916,153.15169 C 157.70027,152.22985 159.5123,153.69058 158.81945,152.63216 C 158.75138,151.95927 158.35276,151.51209 158.35855,150.92959 C 158.82593,150.05604 159.76923,150.33845 160.50583,149.83802 C 160.85821,149.16242 161.49109,149.08844 161.99541,149.66303 C 163.05043,149.58488 163.17873,150.06162 163.81949,150.76169 z "
            id="Pampilhosa_da_Serra" />
        <path style="fill:#ffefd5;fill-rule:evenodd;stroke:#b22222;stroke-width:0.25400001;stroke-opacity:1"
            d="M 134.90149,127.40269 C 135.54974,127.49852 135.98348,127.93398 136.17536,128.55647 C 136.59651,129.11092 136.51533,128.04337 136.99203,128.28128 C 137.73361,128.28636 138.42437,128.74009 138.76022,129.39936 C 139.00039,130.16529 139.90866,130.07204 140.14339,130.78693 C 140.76169,131.16968 141.35028,130.37334 141.86783,130.10523 C 142.2705,129.74743 142.6672,129.43661 143.2232,129.61368 C 143.70524,129.33675 143.97887,129.71325 144.06401,130.13242 C 144.65667,130.33577 144.44562,128.82517 145.09456,129.57884 C 145.46918,130.0168 146.03178,129.71918 146.42124,129.94616 C 146.60423,130.64482 147.58457,130.10216 147.51232,130.89153 C 147.51384,131.45703 147.50427,131.90934 147.89482,132.3174 C 147.89972,132.9117 146.6676,132.31228 146.53662,133.07422 C 146.26696,133.59291 145.14891,133.08946 145.2701,134.03107 C 145.12268,134.53658 144.84614,135.38931 144.20198,135.28092 C 143.68222,135.40887 142.86985,135.13735 142.71312,135.70068 C 142.15523,135.905 141.64024,135.75264 141.05619,135.73398 C 140.6221,135.53445 140.29475,135.59966 140.34755,136.16228 C 139.86557,136.64809 139.2946,136.39142 138.85519,136.07954 C 138.64338,136.53363 138.27699,136.53039 137.90716,136.25735 C 137.96793,136.75682 137.40788,136.36608 137.34583,136.77136 C 136.62671,136.88775 136.41899,137.74077 135.81831,138.04304 C 135.18764,138.02346 134.85629,137.08587 134.62005,136.54872 C 134.32853,136.02039 135.02035,135.62679 134.79157,135.06902 C 135.33297,134.60789 134.4647,134.34893 134.19123,134.03584 C 133.75938,133.64495 132.8477,133.84465 133.17621,133.01382 C 133.57212,132.51964 133.06961,131.76833 133.43785,131.36512 C 134.06536,131.39073 134.70083,130.79208 134.05271,130.27156 C 133.72376,129.67028 134.45897,129.48505 134.83398,129.28046 C 135.28931,128.5972 134.65431,128.0506 134.90149,127.40269 z "
            id="Penacova" />
        <path style="fill:#ffefd5;fill-rule:evenodd;stroke:#b22222;stroke-width:0.25400001;stroke-opacity:1"
            d="M 135.40849,156.75569 C 135.19243,157.09165 134.88153,157.20577 134.77598,157.61531 C 134.38879,158.05509 133.75242,158.13105 133.19916,158.14969 C 132.94791,157.97668 132.10617,158.20304 132.24558,157.92597 C 132.80306,157.89398 133.19034,157.48746 133.04845,156.93403 C 132.89479,156.45732 133.89834,156.65854 133.43258,156.18825 C 133.19264,155.72798 132.94439,155.22322 132.61106,154.81611 C 132.33084,154.61505 132.77043,154.02292 132.45639,153.70374 C 132.21355,153.30854 132.2774,152.72538 131.87749,152.58002 C 131.98826,152.33854 131.59088,152.20167 131.66319,151.97765 C 131.34379,151.86832 131.17567,151.32741 130.79083,151.73969 C 130.63678,152.08153 130.83513,152.87757 131.33416,152.77202 C 131.12641,153.22739 130.4746,152.9749 130.31177,152.58963 C 129.97154,152.39739 129.808,151.91212 129.44615,151.86428 C 129.45975,151.2546 128.83335,151.74129 128.61675,151.26999 C 128.31124,150.99113 128.51847,149.91514 129.08497,150.3831 C 129.61636,150.55959 130.18296,150.56302 130.73649,150.54469 C 131.03769,150.20794 131.11492,149.52807 130.65483,149.29462 C 130.34816,148.95472 129.79687,148.65507 129.68632,148.24378 C 129.68152,147.97213 129.28496,147.75529 129.48716,147.41203 C 129.85649,147.71958 130.52205,147.66761 130.65753,148.18615 C 131.10862,148.02638 131.7121,147.57104 132.19976,147.80301 C 132.59127,148.06353 133.09352,148.2836 133.39849,148.71569 C 133.92697,148.54643 134.42959,149.38532 134.29945,149.73854 C 134.94436,149.58934 135.26811,150.35122 135.94633,150.1552 C 136.52413,150.16965 136.82724,150.78496 137.32877,150.91063 C 137.78359,151.00303 138.79312,151.38855 138.34738,151.95308 C 137.76629,152.32477 138.12755,152.91018 138.44691,153.34452 C 138.63406,153.79967 139.05898,153.84903 139.4645,153.94903 C 139.38492,154.22094 139.1179,154.43286 139.03437,154.66198 C 139.22052,154.78731 139.59241,155.23144 139.12329,155.18294 C 138.76716,155.36592 139.26744,155.86758 138.86935,155.97667 C 138.47105,155.65056 138.14473,155.18974 137.5806,155.15989 C 137.06561,155.03618 137.53489,153.5947 136.91554,154.20432 C 136.69331,154.50831 137.17658,155.06368 136.56466,155.13076 C 136.39063,155.55273 136.3234,156.00517 135.90237,156.27848 C 135.75823,156.46016 135.56022,156.584 135.40849,156.75569 z "
            id="Penela" />
        <path style="fill:#ffefd5;fill-rule:evenodd;stroke:#b22222;stroke-width:0.25400001;stroke-opacity:1"
            d="M 113.28049,144.94868 C 114.07665,144.32603 114.75314,145.87224 115.60033,145.17511 C 116.34848,145.22586 117.14311,145.59737 117.79495,145.03664 C 118.14411,144.32423 119.39783,145.02497 119.226,144.07195 C 118.95952,143.25348 117.3055,143.07183 118.01824,142.02144 C 118.24079,141.0402 119.24484,140.7588 119.98501,141.42514 C 120.78447,141.78654 121.75584,141.68459 122.48767,142.25357 C 123.12177,142.49537 124.35503,143.29483 123.17923,143.78366 C 122.94685,144.18207 123.4658,145.14324 122.61034,144.94447 C 122.01211,145.71991 122.33281,147.20347 123.41027,147.33298 C 124.5535,147.38143 124.45005,148.74333 124.88163,149.49975 C 125.30318,150.27852 126.24659,149.55805 126.90885,149.93733 C 127.481,150.04859 127.56808,151.36286 128.48232,151.05469 C 128.79494,151.5815 129.88174,151.59202 129.45318,152.46907 C 129.09867,153.34472 127.89456,153.38641 127.42442,154.1787 C 126.74443,154.23812 125.81049,154.32002 126.02988,155.26125 C 126.02303,156.05459 124.86141,157.15406 124.53823,155.91846 C 124.23102,155.14312 124.97759,154.62828 124.64104,153.85644 C 124.59739,153.07242 124.75551,152.22946 124.41539,151.4959 C 123.95001,150.99346 122.99625,151.12166 122.40517,151.3408 C 121.89583,151.74721 121.97117,152.55226 121.41082,152.89801 C 121.43541,153.87809 120.38773,153.81023 119.7425,153.77355 C 119.23067,153.38 120.2682,152.2532 119.19323,152.1378 C 118.50165,151.94975 118.2259,151.04607 117.44903,151.18506 C 116.67506,151.20589 115.90855,151.28879 115.18044,150.93475 C 114.55715,150.80727 114.71672,149.74501 114.37757,149.21435 C 114.49908,148.52919 113.29688,147.80743 114.07825,147.31116 C 114.70107,147.22903 113.52591,146.74164 113.58661,146.33128 C 113.38345,145.89568 113.35867,145.41352 113.28049,144.94868 z "
            id="Soure" />
        <path id="Tábua" class="fil5 str2"
            d="M 155.45349,132.27369 C 155.14916,132.04201 155.07316,132.02736 155.07316,131.63969 C 154.96816,131.48068 154.83049,131.35736 154.69282,131.22336 C 154.69282,131.03135 154.96449,130.91202 154.96449,130.75269 C 155.52216,130.75269 156.07282,130.49902 156.59416,130.49902 C 156.88049,130.69101 157.28949,130.62569 157.59749,130.86102 C 157.98149,131.07136 158.15149,131.19436 158.40482,130.73435 C 158.40482,130.46635 158.40482,130.20201 158.40482,129.93768 C 158.64416,129.57935 159.40449,129.19902 158.89382,128.74268 C 158.76349,128.74268 158.58616,128.64835 158.58616,128.50735 C 158.87216,128.17769 159.03882,128.02201 158.65849,127.69236 C 158.62949,127.69236 158.19482,127.57302 158.18782,127.56569 C 158.10082,127.56569 157.99949,127.57636 157.92349,127.52936 C 157.87982,127.17802 158.26016,126.98269 158.26016,126.64202 C 158.10449,126.49002 157.69882,126.20769 157.69882,125.97202 C 157.45249,125.74036 156.97449,125.67902 156.97449,125.32036 C 157.02516,125.26969 157.01082,125.15002 157.01082,125.08502 C 156.91316,125.01236 156.81882,124.95802 156.73916,124.86768 C 156.73916,124.72269 156.73549,124.32069 156.61216,124.19769 C 155.68182,123.73402 155.38483,125.59202 154.40316,125.59202 C 153.76216,126.03002 153.15383,126.62402 152.33883,126.62402 C 152.28849,126.67469 151.90083,126.64202 151.81383,126.64202 C 151.76683,126.68902 151.54216,126.66035 151.44083,126.71469 C 151.34683,126.82702 151.16583,127.20335 151.05316,127.20335 C 151.02816,127.31202 150.39783,127.31202 150.36516,127.31202 C 150.10816,127.62368 149.93449,127.94235 149.74949,128.27901 C 149.66283,128.28268 149.57949,128.28634 149.49616,128.29001 C 149.14116,127.93502 147.78683,129.55735 147.51516,129.91234 C 147.48249,129.93034 147.44983,129.95235 147.42083,129.97402 C 147.38849,129.95235 147.33049,129.93768 147.28683,129.93768 C 147.18216,129.82535 147.08416,129.69868 146.96116,129.61167 C 146.26216,129.61167 146.96116,130.11868 146.76183,130.31802 C 146.76183,130.44467 147.28349,130.39035 147.35949,130.39035 C 147.49349,130.53902 147.62749,131.42968 147.48616,131.62902 C 147.59483,131.76302 147.53316,131.85334 147.63083,131.98369 C 147.83383,131.98369 147.97883,132.41101 147.8665,132.58135 C 148.02583,132.74069 147.8845,133.41802 147.8845,133.63168 C 147.92083,133.69334 148.17416,133.96468 148.2285,134.04801 C 148.2285,134.18568 147.88083,134.86301 148.2465,134.86301 C 148.30483,134.92102 148.50016,134.89901 148.5725,134.89901 C 148.7065,135.03302 148.78983,135.18902 148.9165,135.31568 C 148.9855,135.23602 149.4165,134.91001 149.33316,134.82667 C 149.33316,134.53335 149.5035,134.48268 149.73883,134.28335 C 149.8945,134.43902 150.08283,134.59134 150.20216,134.77235 C 150.20216,134.95002 150.36883,135.22868 150.45583,135.37002 C 150.45583,135.45702 150.4485,135.72468 150.52816,135.80435 C 150.52816,136.07602 150.75283,136.01835 150.9265,136.14868 C 150.9265,136.26434 150.97383,136.39468 150.98816,136.51067 C 151.01716,136.52867 151.0715,136.52867 151.09683,136.54701 C 151.16916,136.50335 151.1875,136.49267 151.2705,136.49267 C 151.3285,136.56501 151.39016,136.63735 151.45183,136.71002 C 151.75583,136.71002 151.77416,136.18835 151.9225,135.96734 C 151.9225,135.55102 152.03116,135.53668 152.36416,135.29735 C 152.38616,135.31568 152.40783,135.33368 152.4295,135.35168 C 152.4295,135.48935 152.4005,135.52202 152.32083,135.63068 C 152.4295,135.73935 152.57816,135.60535 152.71916,135.60535 C 152.9185,135.47502 152.90016,135.14534 152.90016,134.93535 C 152.9295,134.93535 152.95816,134.93535 152.99083,134.93535 C 153.09583,135.07667 153.11416,135.31568 153.33483,135.31568 C 153.55216,135.14167 153.89616,134.53335 153.89616,134.26535 C 153.94683,134.21469 153.7695,133.80534 153.7695,133.66769 C 154.0665,133.39635 154.1425,133.55901 154.4755,133.55901 C 154.75083,133.77302 154.7945,133.59902 154.9645,133.34202 C 154.9645,132.90002 155.22916,132.62501 155.4535,132.27369 L 155.45349,132.27369 z "
            style="fill:#ffefd5;fill-rule:evenodd;stroke:#b22222;stroke-width:0.25400001;stroke-opacity:1" />
        <path style="fill:#ffefd5;fill-rule:evenodd;stroke:#b22222;stroke-width:0.25400001;stroke-opacity:1"
            d="M 144.67949,139.00967 C 144.53907,138.67727 144.32847,138.31834 144.44071,137.94862 C 144.31441,137.70138 143.65904,137.43703 144.08797,137.12621 C 144.33425,136.74026 144.88275,136.68267 145.05683,136.21432 C 145.02165,135.86158 144.31805,136.70251 144.45737,136.16613 C 144.58609,135.9204 144.30732,135.75932 144.24451,136.075 C 144.23318,136.36747 143.8924,136.60999 143.88864,136.18115 C 143.93252,135.91046 143.57796,135.79661 143.64295,136.1286 C 143.54528,136.47702 143.42849,135.85376 143.28631,135.76604 C 142.9548,135.59314 142.44303,135.74268 142.14449,135.84102 C 141.75399,135.74373 141.3623,135.77913 140.97737,135.71435 C 140.73263,135.6743 140.38259,135.44319 140.39535,135.86754 C 140.47863,136.396 139.89803,136.30423 139.60949,136.51102 C 139.41295,136.26306 139.13023,136.35456 138.96383,136.09439 C 138.65978,136.0523 138.56924,136.77542 138.18812,136.39076 C 138.01381,136.19958 137.82665,136.25136 137.84216,136.52902 C 137.6217,136.584 137.41786,136.48611 137.34582,136.77168 C 136.90002,136.71266 136.81568,137.24603 136.47495,137.39544 C 136.21851,137.57819 136.18373,137.94687 135.81831,138.04327 C 135.81871,138.37794 136.30811,138.70789 136.68475,138.69453 C 137.24229,138.76488 136.62304,139.34339 136.97269,139.61209 C 137.18444,139.97893 137.53961,140.22206 137.75447,140.60875 C 137.95123,140.69855 138.32333,140.89282 138.52282,140.74802 C 138.28223,140.23355 138.84945,140.14433 139.22087,140.25271 C 139.62794,140.34874 140.03064,140.43111 140.41374,140.60814 C 140.71369,140.84562 141.0191,140.9056 141.37759,140.78488 C 141.75379,140.91981 141.79718,140.18141 142.26076,140.29176 C 142.61091,140.25235 142.93773,140.08645 143.11092,139.76119 C 143.28434,139.44583 143.60176,139.24964 143.95771,139.243 C 144.16881,139.34829 144.56232,139.06427 144.64437,139.2054 C 144.61903,139.4104 144.66983,138.98852 144.67949,139.00967 z "
            id="Vila_Nova_de_Poiares" />        
    </g>
    <!-- EO MUNICIPIOS -->
</svg>