<?xml version="1.0" encoding="UTF-8" standalone="no"?>
<!-- Creator: CorelDRAW -->
<svg xmlns:dc="http://purl.org/dc/elements/1.1/" xmlns:cc="http://web.resource.org/cc/"
    xmlns:rdf="http://www.w3.org/1999/02/22-rdf-syntax-ns#" xmlns:svg="http://www.w3.org/2000/svg"
    xmlns="http://www.w3.org/2000/svg" xmlns:sodipodi="http://inkscape.sourceforge.net/DTD/sodipodi-0.dtd"
    xmlns:inkscape="http://www.inkscape.org/namespaces/inkscape" xml:space="preserve" width="250" height="366"
    style="shape-rendering:geometricPrecision; text-rendering:geometricPrecision; image-rendering:optimizeQuality; fill-rule:evenodd; clip-rule:evenodd"
    viewBox="0 0 200 200" id="svg1627" sodipodi:version="0.32" inkscape:version="0.43"
    sodipodi:docname="Mapa_de_Portugal.svg" sodipodi:docbase="C:\Documents and Settings\Márcio Silva\Os meus documentos"
    version="1.0">
    <metadata id="metadata1927">
        <rdf:RDF>
            <cc:Work rdf:about="">
                <dc:format>image/svg+xml</dc:format>
                <dc:type rdf:resource="http://purl.org/dc/dcmitype/StillImage" />
                <dc:title>Munícipios de Portugal</dc:title>
                <cc:license rdf:resource="http://creativecommons.org/licenses/GPL/2.0/" />
                <dc:creator>
                    <cc:Agent>
                        <dc:title>Rei-artur (rei.artur@gmail.com)</dc:title>
                    </cc:Agent>
                </dc:creator>
            </cc:Work>
            <cc:License rdf:about="http://creativecommons.org/licenses/GPL/2.0/">
                <cc:permits rdf:resource="http://web.resource.org/cc/Reproduction" />
                <cc:permits rdf:resource="http://web.resource.org/cc/Distribution" />
                <cc:requires rdf:resource="http://web.resource.org/cc/Notice" />
                <cc:permits rdf:resource="http://web.resource.org/cc/DerivativeWorks" />
                <cc:requires rdf:resource="http://web.resource.org/cc/ShareAlike" />
                <cc:requires rdf:resource="http://web.resource.org/cc/SourceCode" />
            </cc:License>
        </rdf:RDF>
    </metadata>

    <sodipodi:namedview inkscape:window-height="582" inkscape:window-width="866" inkscape:pageshadow="2"
        inkscape:pageopacity="0.0" borderopacity="1.0" bordercolor="#666666" pagecolor="#ffffff" id="base"
        fill="#ffff00" inkscape:zoom="1.1338798" inkscape:cx="125" inkscape:cy="211.12313" inkscape:window-x="28"
        inkscape:window-y="117" inkscape:current-layer="layer7" showguides="true" inkscape:guide-bbox="true">
        <sodipodi:guide orientation="horizontal" position="329.9602" id="guide2648" />
        <sodipodi:guide orientation="horizontal" position="307.74672" id="guide2650" />
    </sodipodi:namedview>

    <defs id="defs1629">
        <metadata id="CorelCorpID_0Corel-Layer" />
        <sodipodi:namedview inkscape:guide-bbox="true" showguides="true" inkscape:current-layer="layer1"
            inkscape:window-y="-4" inkscape:window-x="-4" inkscape:cy="327.60442" inkscape:cx="146.08303"
            inkscape:zoom="17.548964" fill="#fa8072" id="namedview5974" pagecolor="#ffffff" bordercolor="#666666"
            borderopacity="1.0" inkscape:pageopacity="0.0" inkscape:pageshadow="2" inkscape:window-width="1024"
            inkscape:window-height="712" />
    </defs>

    <!-- <g inkscape:groupmode="layer" id="layer3" inkscape:label="fundo" style="display:inline" sodipodi:insensitive="true">
        <rect style="fill:#4169e1;fill-opacity:1;fill-rule:evenodd;stroke:none;display:inline" id="rect2247" width="200" height="200" />
    </g> -->

    <g inkscape:groupmode="layer" id="layer10" inkscape:label="----detalhes----" style="display:inline" />

    <!-- MUNICIPIOS -->
    <g inkscape:groupmode="layer" id="layer4" inkscape:label="Municipios" style="display:inline"
        sodipodi:insensitive="true" transform="translate(-220,-400) scale(2)">
        <path style="fill:#ffefd5;fill-rule:evenodd;stroke:#b22222;stroke-width:0.25400001;stroke-opacity:1"
            d="M 190.6785,260.55768 C 190.01799,260.56731 190.6287,260.20899 190.83317,259.96826 C 191.22688,259.56184 191.66781,259.1821 192.03848,258.76303 C 192.09644,258.32207 192.26705,257.87224 192.27615,257.43536 C 191.86886,257.51946 191.43901,257.72589 191.02449,257.85068 C 191.08871,257.07457 191.15294,256.29846 191.21716,255.52235 C 191.51316,255.25447 191.87909,255.03012 192.14381,254.74303 C 192.10627,254.21002 191.93239,253.6405 191.97082,253.13055 C 192.58538,252.44303 193.14687,251.7125 193.59949,250.90868 C 193.8365,250.14124 193.96663,249.32181 194.27181,248.58753 C 194.45011,248.27913 194.78239,248.02495 194.89749,247.69402 C 194.51828,247.52096 194.05949,247.45111 193.65416,247.31236 C 193.60694,245.71292 193.55972,244.11347 193.5125,242.51402 C 193.66847,242.23774 193.92596,241.99325 194.04115,241.70503 C 194.09436,241.38841 193.75464,240.86157 194.10076,240.70167 C 194.63,240.38854 195.24097,240.18518 195.72562,239.81227 C 195.88489,239.53804 196.44482,239.28722 196.34311,238.99774 C 195.99557,238.43642 195.5333,238.08742 195.00386,238.21303 C 194.66558,238.67595 194.46158,237.2472 193.89583,237.93103 C 193.21729,237.81265 192.91861,238.94909 192.61022,239.43142 C 192.67886,239.99436 191.591,241.05628 191.44041,240.20861 C 191.16207,239.93207 190.34785,239.79601 190.7639,240.36219 C 189.91567,241.39801 189.78012,238.75288 189.11941,239.50939 C 188.46208,239.89287 188.11515,240.45275 187.42462,240.7171 C 187.70303,241.42217 188.2163,242.39051 187.107,242.44331 C 186.3184,242.78499 185.80397,241.40946 185.04116,242.02336 C 184.34984,241.51646 183.90406,242.93508 183.2305,242.26648 C 182.32635,242.73732 183.3261,243.535 183.23269,244.24618 C 183.85032,245.38231 181.82229,244.68862 181.86332,243.97857 C 181.64358,243.38446 181.11419,243.83488 180.76382,243.52636 C 180.23068,243.74022 181.11811,244.69841 180.27488,244.97731 C 179.5271,245.75438 180.19647,246.85526 180.16109,247.79122 C 180.28158,248.68375 181.14318,249.59232 180.09783,250.26236 C 180.12777,251.24193 179.31933,251.22094 178.73983,251.54803 C 178.51938,252.19532 176.97883,253.48665 178.17858,253.76827 C 178.91156,254.10795 179.79143,254.59855 180.29272,254.98686 C 181.16114,254.93629 182.75644,254.67639 182.60635,255.95531 C 183.15647,256.22106 183.88268,255.91224 184.17959,256.6719 C 184.84156,257.2751 184.95004,255.81832 185.66191,256.53794 C 186.51647,256.70254 186.61753,255.35795 187.57968,255.80766 C 187.8378,255.73584 188.064,256.46369 188.30783,255.91203 C 188.84777,256.64691 189.89129,257.25781 189.24992,258.16486 C 189.17609,258.63691 188.99778,258.74133 189.52345,258.57962 C 189.93648,259.13948 189.57579,259.95333 189.8035,260.2577 C 189.64805,260.65552 189.52087,261.61055 190.19491,260.88618 C 190.3561,260.77668 190.51735,260.66721 190.6785,260.55768 z "
            id="Alandroal" />
        <path style="fill:#ffefd5;fill-rule:evenodd;stroke:#b22222;stroke-width:0.25400001;stroke-opacity:1"
            d="M 164.8875,238.34769 C 164.7545,237.78529 164.4097,236.36703 165.43445,236.96098 C 166.07157,237.39722 167.32033,237.51406 168.01691,236.99815 C 168.39788,236.70414 168.7166,236.77876 169.21516,236.57302 C 169.21922,237.12501 169.57895,237.54628 169.86716,236.91701 C 170.46058,236.881 171.88929,237.02387 171.26133,236.22506 C 171.29303,235.39746 171.8194,234.15277 170.61157,233.80419 C 169.46491,233.95556 171.02962,231.77424 169.84213,231.67636 C 169.2097,232.14956 168.84703,230.78124 168.27731,231.61014 C 167.73056,231.65936 168.5774,230.29294 167.53024,230.6225 C 166.66327,230.05848 165.74469,229.62454 164.76515,229.35561 C 163.71173,229.31106 162.69409,229.00378 161.61446,229.01208 C 160.81904,228.13067 159.50912,228.56894 158.56783,228.85935 C 157.55898,229.26276 157.08119,230.2213 156.10516,230.07235 C 155.70308,231.05365 157.76654,230.8611 156.61223,231.57202 C 156.34222,232.20243 155.95112,231.97716 155.47765,232.06506 C 155.48502,232.52852 154.83425,232.67612 154.92816,233.29568 C 153.79708,233.23948 152.98258,234.5368 151.87655,234.17034 C 151.37527,233.7972 150.95506,233.33635 150.36361,233.24221 C 149.73743,231.99434 148.2374,233.87694 147.90137,234.71687 C 147.42081,235.57547 146.86563,236.30064 146.26616,237.05068 C 146.24418,237.49238 146.25481,238.33577 145.56683,237.85869 C 145.55369,238.39826 146.47231,238.78323 146.09294,239.45355 C 146.96106,240.06387 147.61521,241.12542 148.31916,241.75168 C 148.14663,242.69914 149.23644,242.84608 149.85816,242.67534 C 149.23332,242.81855 150.39685,243.48208 149.42278,243.29864 C 148.56493,243.80836 150.50773,243.35829 150.67316,244.10567 C 151.53348,244.2493 152.32311,243.51486 152.89823,244.66669 C 153.50595,245.23249 153.13407,242.99825 153.76461,244.14108 C 154.3101,244.3339 155.49518,244.12141 155.54863,243.25984 C 156.58013,242.93166 156.66473,244.6674 157.62985,244.47214 C 158.24294,244.69421 157.48859,245.71028 158.30306,245.31215 C 159.34237,245.49306 157.98831,246.74955 158.76716,247.14801 C 158.91823,246.52398 160.2119,246.19947 159.56119,247.08692 C 159.18287,247.7741 160.32423,248.22362 160.07582,247.33976 C 160.77584,246.68264 162.40998,247.34008 162.30445,245.86309 C 162.47031,244.87894 163.53868,243.78814 162.19994,243.11438 C 162.27188,242.4863 163.16027,242.49759 162.46111,241.76218 C 162.69318,241.11574 162.8337,239.84233 163.76482,240.68334 C 164.86182,240.99713 165.02132,239.32262 164.57265,239.05876 C 163.697,240.03195 164.54303,238.53789 164.8875,238.34769 z "
            id="Arraiolos" />
        <path style="fill:#ffefd5;fill-rule:evenodd;stroke:#b22222;stroke-width:0.25400001;stroke-opacity:1"
            d="M 182.57849,227.26569 C 183.19889,227.67729 183.93699,227.89265 184.48458,228.45801 C 185.44322,228.90569 184.36585,229.73757 184.78294,230.40795 C 184.84504,230.69411 184.70367,231.33037 184.95036,231.4292 C 185.06857,230.91243 185.25097,231.74739 185.58919,231.68231 C 185.66753,231.93481 185.74702,232.28524 185.91016,232.55301 C 185.62249,232.50892 184.94711,232.39298 184.95782,232.75202 C 185.42548,233.01785 185.98558,233.29151 186.00358,233.89016 C 186.07787,234.35524 186.66268,234.57057 186.41952,235.13655 C 186.7587,235.61504 186.58673,236.04586 186.01967,236.18865 C 185.37595,236.44017 184.70899,236.7205 184.17694,237.14063 C 184.07145,237.75617 183.38828,237.84672 182.94924,237.92056 C 182.74285,238.23005 182.89891,238.56944 183.03115,238.81802 C 182.68397,239.2476 181.69818,239.75475 181.90849,240.26669 C 182.38066,239.75553 182.36942,240.81313 181.94786,240.96528 C 181.67751,241.26221 181.19202,241.48771 181.42661,241.91405 C 180.96873,242.30585 180.50379,241.51932 180.21818,241.18105 C 179.90692,240.70166 179.38783,240.44444 179.0192,240.02896 C 178.89621,239.73754 178.78643,238.82741 178.42126,239.41647 C 177.91123,240.08477 177.92126,239.13752 177.62436,238.87348 C 177.32861,238.47405 178.06072,238.42234 178.21112,238.08616 C 178.72256,237.77113 179.43623,237.47769 179.37057,236.77433 C 179.07274,236.38364 179.51095,235.82688 179.83428,235.79962 C 180.31513,235.93158 180.11715,234.98185 180.58644,234.8043 C 180.97058,234.101 181.74996,235.13911 182.19423,234.45294 C 182.5466,234.17664 181.91725,233.85964 182.4248,233.64938 C 182.81618,233.33974 182.0471,233.23566 182.17696,232.86611 C 182.0482,232.47166 181.74262,232.19582 181.5021,232.28773 C 181.511,232.02901 180.72363,231.52299 181.07204,231.44462 C 181.39155,231.65195 181.23072,231.05514 181.49558,230.93477 C 181.74693,230.30923 180.52259,230.12191 181.22842,229.58542 C 181.54735,229.43937 181.61661,229.23681 181.52673,228.98978 C 181.91738,228.8778 182.07004,228.62569 181.75449,228.31361 C 181.74282,227.97982 182.28438,227.52111 182.57849,227.26569 z "
            id="Borba" />
        <path style="fill:#ffefd5;fill-rule:evenodd;stroke:#b22222;stroke-width:0.25400001;stroke-opacity:1"
            d="M 165.1955,229.43867 C 165.38062,228.19569 166.55468,229.62994 167.1042,228.61379 C 167.77702,228.26908 168.04412,226.95487 168.32426,226.76599 C 168.78546,227.87945 170.22737,227.98739 170.93265,227.17447 C 171.86531,227.43332 172.73257,228.60541 173.60302,228.01483 C 173.42698,227.50554 174.3991,227.48242 174.06282,227.11519 C 173.56406,227.23871 172.90394,228.04393 173.49452,227.14588 C 174.2399,226.66424 174.5604,225.86582 175.32066,225.32248 C 175.8613,225.24169 177.04954,225.85834 177.18865,225.3524 C 177.22487,224.92955 179.20572,224.45333 178.26229,223.53556 C 178.14331,223.04474 177.64983,222.33326 178.41124,222.47332 C 178.10117,221.77481 179.20688,221.28801 179.22428,222.22619 C 179.62727,222.71639 179.81611,223.31008 180.43661,223.19732 C 180.85777,223.27827 181.80845,222.88611 181.46957,223.75347 C 181.32913,224.34581 182.66126,223.54137 182.76855,224.42502 C 183.23801,224.62767 183.55851,224.71637 183.04949,225.12936 C 182.3695,225.11228 183.07517,225.95636 182.63865,226.26545 C 183.94339,226.89598 181.83001,227.48 181.74863,228.22312 C 182.00758,228.63769 181.92033,228.84134 181.47415,229.05869 C 181.73206,229.48977 180.39996,230.01265 181.40303,230.40047 C 181.72441,230.94269 181.16104,231.52027 180.97367,231.54198 C 181.31576,232.43353 182.19267,232.15459 182.19849,233.18702 C 183.0521,233.4258 181.84715,233.86041 182.30009,234.32411 C 181.78762,235.22962 180.72065,233.95919 180.33229,235.10041 C 180.19661,235.55852 180.03661,235.92195 179.6403,235.88089 C 178.92115,236.37484 179.77441,237.55865 178.618,237.84141 C 178.05371,238.24515 177.18344,238.59948 177.84839,239.27613 C 177.99614,239.73973 179.13078,240.74407 177.93079,240.51764 C 177.26987,240.48217 176.39285,239.91295 176.11449,240.81036 C 175.63464,240.41437 175.04055,239.96525 174.63682,240.70169 C 174.06062,240.73943 173.46767,240.1422 173.38015,240.97336 C 172.54493,240.88769 172.04063,242.25016 171.41863,241.68631 C 170.99842,242.15412 170.69041,240.99726 170.41949,241.76769 C 170.11943,242.17876 170.34116,242.71386 170.66415,243.03769 C 170.22441,243.09248 169.71322,242.49319 169.68769,243.39823 C 169.14331,243.59684 169.04837,244.24063 168.49482,243.59169 C 167.97541,242.61855 167.63746,241.37987 166.57182,241.02768 C 166.3069,240.30648 166.82539,239.17722 165.68936,239.0304 C 164.90603,238.73783 164.37898,237.38392 164.94745,236.83807 C 165.52112,236.85987 165.80044,237.42 166.42833,237.242 C 167.62696,237.64401 168.26183,236.64465 169.21549,236.57303 C 169.21956,237.12471 169.57911,237.54638 169.86749,236.91736 C 170.4612,236.88091 171.88982,237.02379 171.26148,236.22506 C 171.24431,235.46109 171.81096,234.44812 170.88865,233.92315 C 170.29978,233.90804 170.02192,233.70152 170.17702,233.02043 C 170.58775,232.46885 170.17796,231.25226 169.40664,231.80135 C 169.03941,231.24495 168.65281,231.28538 168.18745,231.61939 C 167.871,231.48725 168.48463,230.33369 167.53057,230.6225 C 166.79644,230.10569 165.9826,229.81139 165.1955,229.43867 z "
            id="Estremoz" />
        <path style="fill:#ffefd5;fill-rule:evenodd;stroke:#b22222;stroke-width:0.25400001;stroke-opacity:1"
            d="M 162.73248,242.47668 C 162.28279,241.88157 162.63732,239.71747 163.76482,240.68401 C 165.05126,241.22718 165.12355,238.24898 164.16316,239.38002 C 164.45906,238.52466 164.94772,238.03993 165.52116,238.90935 C 167.15405,239.17044 165.84293,241.29818 167.41208,241.56018 C 167.78214,242.44546 168.76481,243.54216 168.79086,244.20402 C 169.38813,244.98567 170.32769,246.15922 171.29745,246.7286 C 170.96328,247.46087 172.19282,247.79412 171.64149,248.65134 C 172.76882,249.76425 169.54069,249.25997 170.89915,250.35334 C 170.92336,251.00272 170.98478,251.58299 171.53107,251.42935 C 171.64401,251.8118 172.57608,252.18661 171.46049,251.87435 C 170.25227,252.70947 172.58576,254.48128 173.10815,252.96802 C 173.6455,252.33708 174.22413,251.77743 174.57002,252.83088 C 176.11847,253.66455 174.03405,254.41695 173.26772,254.64944 C 172.22091,255.52814 174.49662,255.59061 173.4738,256.46946 C 173.3064,257.43965 174.56667,256.97247 174.95515,256.94435 C 174.89102,258.35388 177.14362,258.39945 177.81677,258.11027 C 176.74299,259.28108 177.03753,260.60467 176.2117,261.87195 C 175.26029,262.68064 175.04379,263.65255 175.20883,264.85735 C 174.0461,264.47218 172.70257,263.90114 171.8225,263.02868 C 172.02616,262.55276 171.69562,260.60154 171.32466,261.60476 C 171.51059,262.03149 170.75462,261.52407 170.86283,262.12302 C 170.17538,262.05385 169.81002,261.38857 169.21332,261.91631 C 168.31986,261.15459 167.63074,262.88471 167.0785,263.39069 C 166.93456,263.87522 165.56742,263.00098 165.52116,264.00635 C 164.4616,264.43027 163.28851,264.20206 163.19083,265.75685 C 163.7105,266.38757 163.05713,267.30009 162.60514,267.7241 C 161.23788,267.54496 162.22478,264.96245 160.39351,265.48621 C 159.16692,265.62005 158.74821,267.11724 157.40916,266.14301 C 157.65696,265.29827 156.36853,264.5154 157.30529,263.90011 C 158.52958,264.53868 157.64662,262.31764 156.57616,262.84735 C 155.37387,262.62759 155.0235,264.05046 153.83861,263.61135 C 152.827,264.51482 151.63496,265.12655 150.5825,265.85336 C 151.33679,264.46364 150.51558,263.48868 149.07989,264.11392 C 148.61146,264.65026 147.69728,264.53767 148.56988,263.86835 C 149.13619,262.99777 147.85986,262.10767 148.26483,261.07303 C 147.55243,260.09893 147.70211,259.03953 147.97517,258.06702 C 148.0208,258.88569 149.83455,258.38435 149.2605,257.61435 C 150.52264,257.00225 149.79166,255.27724 149.40509,254.39908 C 148.76403,253.73202 147.8818,254.24193 147.32523,253.85768 C 147.27703,253.10445 146.34438,253.50083 146.3995,252.49736 C 145.84531,252.06543 145.59882,252.62167 145.44998,251.77925 C 144.69728,250.92146 145.23807,250.13617 145.6755,249.42969 C 144.63303,248.96363 145.63428,247.31624 146.363,248.22519 C 147.51089,248.17871 148.72433,248.77662 148.70006,249.87912 C 149.26906,249.45927 149.87964,250.30184 150.61883,249.62902 C 151.43388,250.15151 151.30748,249.11419 152.32959,249.36548 C 151.61558,248.81494 152.32761,247.16986 151.70388,246.62181 C 150.97758,246.63424 151.58485,245.29889 150.62324,245.3853 C 150.88804,244.91882 150.10542,243.89602 151.09225,244.20677 C 151.88784,243.6181 152.52164,244.13707 153.17183,244.83036 C 153.22099,244.20397 153.4013,243.32157 153.9685,244.30535 C 154.93825,244.29114 155.29965,243.71313 155.81096,243.19185 C 156.63002,243.68984 157.07619,244.43231 157.9081,244.80665 C 157.34385,245.73263 159.38914,245.13767 158.54983,246.06169 C 158.49283,246.78373 158.59347,247.60399 159.22116,246.62544 C 160.29567,245.87022 158.99905,248.70637 160.10241,247.59908 C 160.35018,246.55666 162.76069,247.38564 162.35309,245.50916 C 162.98733,244.59807 163.03924,243.61287 162.18355,242.90466 C 162.32273,242.63528 162.51117,242.54541 162.73248,242.47668 z "
            id="Évora" />
        <path style="fill:#ffefd5;fill-rule:evenodd;stroke:#b22222;stroke-width:0.25400001;stroke-opacity:1"
            d="M 145.56648,237.85869 C 144.59039,237.80192 144.20606,236.86977 144.33272,236.14838 C 143.66514,235.75504 143.19618,237.08562 142.85374,236.08217 C 143.57595,235.34032 142.23843,234.56766 141.76382,234.18302 C 141.1179,235.57433 138.75324,234.3448 139.71975,233.28711 C 139.13458,233.29861 137.7638,232.22714 137.59915,231.37635 C 137.44958,232.11806 136.91361,233.4023 136.58515,231.97368 C 136.1173,233.04264 135.05889,233.97373 134.20261,232.6126 C 133.86406,231.90256 132.5808,232.77829 133.19882,233.41169 C 132.41045,233.8893 131.54723,235.08545 131.12576,233.71017 C 129.91343,234.01993 130.10151,235.98449 128.66357,236.30788 C 128.12657,236.44119 127.51434,235.08264 126.74453,236.01763 C 125.83224,236.72259 125.11507,237.37057 124.58006,238.44593 C 124.9221,238.67988 126.9797,238.51389 126.57675,239.71012 C 127.83355,239.25713 129.34774,239.93691 130.41078,240.05477 C 130.11781,240.68701 129.39948,241.26195 130.61509,241.41338 C 131.59667,242.0528 133.14921,242.29495 133.35397,243.62565 C 133.19112,244.50322 133.79967,245.34738 133.59463,246.26998 C 132.15049,245.36892 132.99862,248.28384 131.46057,247.6178 C 130.65468,246.81453 129.27837,246.89226 128.82203,247.94371 C 127.81607,247.92625 127.3759,245.78738 126.57148,247.20234 C 125.16317,247.60409 124.29007,248.87269 123.01116,249.58133 C 121.50998,250.42141 123.2798,251.64635 122.89582,252.92434 C 122.55403,254.2334 123.36006,254.89321 124.61582,254.64433 C 125.64703,254.67699 125.02149,256.56321 126.20949,255.66566 C 127.54539,254.9416 124.79237,253.61811 126.72382,253.48567 C 127.38442,253.96975 127.81497,254.77436 128.69016,254.10134 C 129.89178,253.78256 129.94973,255.94552 131.37649,255.18048 C 132.23351,254.79634 133.05586,253.16898 134.15289,253.72781 C 134.30918,255.03794 135.61163,255.68039 136.05781,256.77524 C 136.21744,257.96439 137.82466,259.35297 136.51265,260.16469 C 135.9354,261.5794 139.17871,261.38901 138.44649,259.98683 C 139.15588,258.99371 140.08122,257.84368 141.13015,258.89968 C 142.16288,257.92862 143.60063,258.59729 144.82381,257.99435 C 144.98402,258.65805 144.02892,259.51558 145.22934,259.00183 C 146.00617,258.57645 147.63473,257.88478 147.59448,259.42467 C 148.18368,259.1819 147.58359,257.31448 148.21014,258.54467 C 149.10271,258.40544 149.45511,258.2155 149.41868,257.37055 C 150.57329,256.90026 149.66796,255.11347 149.40472,254.39873 C 148.76366,253.73168 147.88146,254.24157 147.32487,253.85733 C 147.27666,253.10412 146.34404,253.50047 146.39914,252.49701 C 145.84494,252.06508 145.59846,252.62132 145.44962,251.7789 C 144.69692,250.92111 145.23773,250.13582 145.67514,249.42934 C 144.63267,248.96328 145.63392,247.31591 146.36265,248.22484 C 147.51524,248.17407 148.73634,248.76168 148.6997,249.87877 C 149.21342,249.2961 149.76233,250.46597 150.40132,249.65801 C 150.76432,249.56077 151.50993,250.22588 151.27014,249.42934 C 151.8601,249.45562 152.77299,249.51375 151.96331,248.93069 C 152.16544,248.15699 151.88755,247.32324 151.83584,246.60444 C 150.98204,246.74434 151.4969,245.31717 150.57972,245.27511 C 150.94783,244.28568 150.22076,243.41652 149.07914,243.51567 C 149.59701,243.16064 150.19538,243.43607 149.62247,242.78401 C 150.18171,242.37145 148.46646,243.18407 148.42781,242.29551 C 148.17204,241.20399 146.9577,240.34268 146.09259,239.45355 C 146.47478,238.70436 145.54169,238.44583 145.56648,237.85869 z "
            id="Montemor-o-Novo" />
        <path style="fill:#ffefd5;fill-rule:evenodd;stroke:#b22222;stroke-width:0.25400001;stroke-opacity:1"
            d="M 142.59749,223.22769 C 142.56896,223.67469 142.04004,223.85349 141.74636,223.56651 C 141.46047,223.89792 140.50382,223.84706 141.21103,224.33441 C 141.25852,225.17334 140.98149,225.99616 140.68841,226.78156 C 140.45187,227.58372 139.48315,227.91683 139.33319,228.70851 C 139.89835,229.32298 140.90645,229.34149 141.58975,229.87357 C 142.38164,230.3231 143.33046,230.26336 144.11531,230.64286 C 144.35725,231.22568 145.76188,231.45426 144.81424,232.04673 C 144.04119,232.27069 143.28575,233.54867 144.35131,233.85148 C 145.16784,233.91678 144.9933,235.34608 145.40808,235.54213 C 145.98809,235.48481 145.67208,234.80587 145.86277,234.76099 C 146.66966,234.59191 146.87063,236.47804 147.44983,235.48497 C 147.8951,234.66637 148.32405,233.80967 149.05322,233.19554 C 149.44955,232.72439 150.41892,232.55418 150.42758,233.36598 C 151.3285,233.24164 151.57473,234.45176 152.50959,234.27112 C 153.28283,233.83192 154.22155,233.45735 154.96763,233.17469 C 154.84088,232.6071 155.53474,232.51303 155.47798,232.06473 C 155.87424,231.89621 156.32473,232.31833 156.50627,231.66077 C 156.88251,231.44098 157.29735,230.87229 156.57424,230.9829 C 155.8976,230.73556 155.93434,229.54924 156.76122,230.08677 C 157.32666,229.6332 158.04605,229.04195 158.91164,228.75019 C 159.39991,228.29512 160.69364,229.02008 160.39495,227.87982 C 160.27872,227.30698 159.77933,226.83515 160.00109,226.35388 C 159.53048,226.10568 158.7532,225.93982 158.85782,225.21936 C 158.29641,225.11749 158.17308,223.73702 157.51815,224.16903 C 156.95263,224.50208 156.23441,223.97702 156.11424,224.88726 C 155.60618,225.55562 154.80816,225.96368 154.13413,226.31195 C 153.61968,225.70456 152.46911,226.93026 152.64049,225.8074 C 153.28754,225.20092 152.62983,224.52133 153.11241,223.7956 C 153.10962,222.88638 151.5014,223.28239 151.63399,222.19365 C 151.61437,221.4288 150.59896,221.9699 150.32164,221.32522 C 149.48609,220.89028 149.23687,222.12622 149.12398,222.70487 C 149.01791,223.35947 149.41739,224.33921 148.37137,224.3448 C 147.05075,224.962 147.98371,223.20548 147.4413,222.73901 C 147.18262,222.26217 147.96504,221.46982 147.05182,221.5797 C 146.59275,221.42414 146.02982,221.35404 145.99484,220.69389 C 145.35356,220.21844 145.28549,221.74534 144.67582,221.00799 C 143.83102,220.92684 143.14438,222.29404 142.70342,223.05228 L 142.64365,223.16502 L 142.59749,223.22769 L 142.59749,223.22769 z "
            id="Mora" />
        <path style="fill:#ffefd5;fill-rule:evenodd;stroke:#b22222;stroke-width:0.25400001;stroke-opacity:1"
            d="M 202.40149,277.97269 C 201.87774,276.60081 201.34018,275.23241 200.7591,273.88534 C 200.59577,273.20027 200.47634,272.48928 200.28949,271.81836 C 199.89495,271.48652 199.41981,271.22651 199.07514,270.85022 C 198.43809,269.79767 197.84668,268.71241 197.18266,267.67919 C 196.37803,266.71527 195.51605,265.79442 194.7475,264.80341 C 194.28905,264.10095 193.8306,263.3985 193.37215,262.69604 C 193.35965,262.39236 193.45693,262.05485 193.39848,261.76501 C 192.80275,261.43707 192.22466,261.06008 191.61812,260.76115 C 191.29332,260.71715 190.94735,260.56423 190.63552,260.58697 C 190.07792,260.9298 189.59004,261.38794 188.99981,261.65696 C 188.65868,262.68008 187.20479,262.77558 187.10898,263.94362 C 187.03844,264.57033 188.52932,265.38074 187.53506,265.73985 C 186.65963,265.44143 185.77194,266.09089 185.19452,266.69335 C 185.03791,267.45078 186.17733,267.98207 185.87503,268.76636 C 185.37053,269.32473 184.81455,270.03834 185.41958,270.75884 C 185.75882,271.29663 186.79379,272.177 186.73608,271.0456 C 186.66944,270.78479 185.88415,270.50608 186.65519,270.45526 C 187.12666,271.13157 187.62356,269.6946 188.10115,270.54302 C 188.97598,270.70584 189.46524,270.17042 189.72213,269.37311 C 189.83336,268.97763 190.21562,268.64487 190.40048,269.20301 C 191.10644,269.10321 191.47705,268.30686 192.28382,268.51502 C 192.66056,267.9834 193.54403,268.24127 193.22548,268.96769 C 193.95896,269.19683 192.75375,270.30341 193.80832,270.27593 C 194.6053,270.67084 194.01583,271.82344 194.82523,272.31539 C 195.27527,273.13466 196.23573,273.2985 197.00439,273.65811 C 198.06933,273.61266 197.80745,274.94966 197.57115,275.59503 C 198.2221,276.11673 198.63927,276.82433 198.86899,277.6046 C 199.10381,278.14203 199.56036,279.37583 200.13439,279.13576 C 200.32753,278.40151 201.62043,279.42594 201.62029,278.28912 C 201.72901,277.93145 202.11981,278.01251 202.40149,277.97269 z "
            id="Mourão" />
        <path style="fill:#ffefd5;fill-rule:evenodd;stroke:#b22222;stroke-width:0.25400001;stroke-opacity:1"
            d="M 175.2085,264.85669 C 174.08042,264.63025 173.16171,263.84556 172.08386,263.38642 C 171.4149,262.99355 172.23598,260.76081 171.2683,261.51717 C 171.64412,262.02418 170.78196,261.55592 170.86249,262.12236 C 170.1807,262.04981 169.79676,261.37532 169.21298,261.91564 C 168.37651,261.1438 167.98295,262.714 167.24091,263.00574 C 167.33752,264.27587 165.71608,262.76124 165.67316,263.96936 C 164.82972,264.55991 163.66438,263.89547 163.40216,265.12836 C 162.82493,265.807 163.89878,266.45208 163.07649,266.97535 C 163.1598,268.32803 161.26404,267.49118 161.89949,266.48636 C 161.47505,265.94903 161.38155,265.17454 160.46883,265.50869 C 159.44166,265.46917 159.01236,266.34198 158.34082,266.69039 C 158.32061,267.18649 159.2515,267.10574 158.80316,267.79003 C 158.36483,268.39601 158.04951,269.40427 158.72854,269.87823 C 158.523,270.36169 156.97906,270.73593 158.30107,271.05252 C 159.30639,271.23526 159.85872,271.97633 160.53512,272.6026 C 161.11438,272.89938 162.04472,272.90331 162.06249,273.80169 C 162.52485,273.94875 162.78081,274.08912 162.99125,273.76907 C 163.8539,273.8804 164.62422,274.66645 165.64074,274.24099 C 166.79482,273.73378 167.60015,274.87071 168.59916,275.21402 C 168.89599,276.35535 170.31836,276.59483 171.28716,276.99019 C 172.12152,277.70768 173.22781,276.87384 174.07541,276.69913 C 174.94685,276.56401 175.23082,277.92786 175.97969,277.03195 C 176.70106,277.26653 177.2701,278.55132 178.1713,277.90099 C 179.21732,277.67233 180.21235,278.0279 181.23705,278.16568 C 181.68862,278.2845 180.87057,277.317 181.61608,277.13516 C 182.57825,277.07243 184.24896,275.78046 183.10189,274.96448 C 182.51939,273.81807 181.72303,274.90549 181.00071,274.77324 C 181.11266,274.30682 181.72486,273.9217 181.0935,273.34902 C 181.03906,272.46389 180.19403,272.28556 179.66136,272.00671 C 180.00304,271.11682 178.54558,270.95692 178.91907,270.10498 C 178.47964,270.3244 178.06335,270.84948 178.21417,269.96303 C 177.79662,269.30222 178.53868,268.01575 177.40333,267.60194 C 176.90725,267.48241 177.44205,266.61754 176.73684,266.77602 C 176.65341,265.76944 174.76511,266.28188 175.2085,264.85669 z "
            id="Portel" />
        <path style="fill:#ffefd5;fill-rule:evenodd;stroke:#b22222;stroke-width:0.25400001;stroke-opacity:1"
            d="M 181.23849,242.07768 C 180.37582,241.77819 180.11758,240.74546 179.31719,240.32806 C 178.78118,240.17714 178.94866,238.65746 178.35678,239.48531 C 177.52257,239.68669 179.15498,240.42377 178.25005,240.56724 C 177.50506,240.58796 176.45686,239.82699 176.11415,240.81036 C 175.64101,240.41252 175.02497,239.96765 174.63649,240.70169 C 174.25615,240.62957 173.8677,240.62269 173.54282,240.48435 C 173.45419,241.27039 172.26849,241.15058 171.88518,241.86107 C 171.64551,241.95041 171.48592,241.4505 171.17695,241.82593 C 170.9012,241.60565 170.62766,241.21916 170.41915,241.76769 C 170.22513,242.11905 170.21845,242.69068 170.66382,242.92903 C 170.55164,243.53421 169.77753,242.29266 169.77268,243.14842 C 169.59804,243.64168 168.65301,243.8778 168.78049,244.51136 C 169.62387,244.72825 169.82578,245.64874 170.41843,246.11912 C 170.68118,246.35427 171.7067,246.55647 171.13449,247.16602 C 171.54771,247.53812 171.92824,247.88338 171.65511,248.42002 C 171.50199,248.92115 172.32492,249.31466 171.47619,249.39264 C 171.07347,249.73246 170.08618,249.57556 170.81765,250.23889 C 171.15618,250.6348 170.67922,251.7738 171.53282,251.29469 C 171.20255,251.74554 172.636,251.93583 171.76207,251.99849 C 171.00234,251.5046 170.76007,253.30326 171.71382,253.12336 C 172.1121,254.19284 172.93938,253.24106 173.37454,252.74208 C 173.60893,252.31876 174.30151,251.78188 174.35357,252.61001 C 175.08477,252.9325 175.4978,253.65541 174.65191,254.17805 C 174.05396,254.23508 172.76274,254.60914 173.07215,255.42301 C 173.71288,255.52933 173.9633,256.00705 173.4738,256.46913 C 173.22756,257.04401 174.45723,257.45689 174.68348,256.83535 C 175.37065,257.0242 174.84989,258.20482 175.83865,257.98805 C 176.4809,258.26755 177.3296,258.53895 177.82135,258.03929 C 177.71734,258.44195 177.30237,258.8557 177.74565,258.26948 C 177.72535,257.39343 179.0503,257.45276 179.15615,256.63635 C 179.47799,256.08719 180.63916,255.06227 179.67878,254.51886 C 179.00228,254.26237 178.39261,253.78354 177.73243,253.61604 C 177.6431,252.81324 178.47303,252.24099 178.73982,251.54801 C 179.18792,251.17441 179.998,251.38523 180.02336,250.53833 C 180.17169,249.9623 181.1105,249.44519 180.40549,248.85002 C 180.14797,247.8881 180.05941,246.90635 179.92628,245.93765 C 179.74427,245.02844 181.18641,244.62308 180.5415,243.67255 C 180.73647,243.45173 181.09847,243.54757 180.87648,243.09169 C 180.92265,242.70569 181.69768,242.63827 181.22823,242.22131 L 181.23848,242.07769 L 181.23849,242.07768 z "
            id="Redondo" />
        <path style="fill:#ffefd5;fill-rule:evenodd;stroke:#b22222;stroke-width:0.25400001;stroke-opacity:1"
            d="M 189.67648,261.25369 C 189.64527,260.64547 189.92991,260.17664 189.68686,259.89206 C 189.72836,259.69263 189.82468,258.84742 189.52311,258.57961 C 189.11245,258.67949 189.06171,258.72393 189.25457,258.27855 C 189.29451,257.74036 189.77427,257.05056 188.95916,256.72668 C 188.66604,256.48136 188.42811,255.63509 188.06599,256.13701 C 187.7549,255.68786 187.28801,255.85 186.76116,255.76702 C 186.47328,256.36824 185.86063,256.85995 185.1681,256.35021 C 184.88054,256.49242 184.51425,257.17715 184.08432,256.5774 C 183.83447,255.63947 182.30227,256.59503 182.52111,255.36357 C 182.27216,254.80099 181.21889,255.0014 180.62797,254.91986 C 179.75529,254.90421 179.79697,256.17048 179.15582,256.63635 C 178.97705,257.46819 177.68406,257.45646 177.66537,258.39373 C 177.07716,258.92441 177.15724,259.6705 176.72949,260.20335 C 177.00701,261.00603 176.28493,261.75187 175.81304,262.34107 C 175.29664,262.86937 174.97071,263.48915 175.25462,264.25738 C 175.07882,265.1333 175.21409,266.09756 176.27826,266.18665 C 176.80422,266.36422 176.67263,266.8618 177.16887,266.93192 C 176.94237,267.78076 178.35657,267.82227 178.12802,268.79525 C 177.80681,269.44181 178.3403,269.88585 178.27453,270.53426 C 178.60574,270.11705 179.26836,269.9099 178.89963,270.70053 C 179.15749,271.16557 180.02538,271.28271 179.66134,272.00704 C 179.98849,272.42953 180.74239,272.13193 180.91286,272.85951 C 181.19608,273.48821 181.70595,274.21386 180.95606,274.65675 C 181.49189,275.2645 182.2797,273.74005 182.87769,274.73012 C 183.26931,275.33733 183.71876,275.33416 183.91216,274.5958 C 184.60498,274.18738 184.89623,273.57742 185.01705,272.81974 C 185.53809,272.48198 186.76942,272.45811 186.18595,271.53753 C 185.64311,271.06189 184.84594,270.32867 185.26395,269.53326 C 185.95488,269.02303 186.13583,268.15327 185.46565,267.53277 C 184.58155,266.64793 185.9638,265.98097 186.68372,265.71291 C 187.16322,265.63874 188.29965,265.9183 187.75123,265.02492 C 186.92503,264.45591 186.96728,263.2046 187.91364,262.77744 C 188.72538,262.44833 188.83378,261.53438 189.67648,261.25369 z "
            id="Reguengos_de_Monsaraz" />
        <path style="fill:#ffefd5;fill-rule:evenodd;stroke:#b22222;stroke-width:0.25400001;stroke-opacity:1"
            d="M 122.85949,253.48569 C 122.91936,252.82613 122.83963,252.15771 122.7896,251.48888 C 122.58408,251.00332 121.94949,250.53465 122.53349,249.99836 C 123.07793,249.41736 123.8546,249.12702 124.38049,248.52436 C 125.03452,248.36468 125.29388,247.51386 126.00015,247.45047 C 126.48209,247.27281 126.802,246.92577 127.19729,246.629 C 127.64003,247.0231 127.86228,247.63413 128.50545,247.78693 C 129.20242,248.42785 129.18201,246.59394 129.93598,247.20841 C 130.71801,246.63391 131.16067,247.73599 131.87715,247.69135 C 132.53798,247.56009 132.68419,247.05786 132.58179,246.47369 C 132.77267,245.78526 133.26697,246.35072 133.66251,246.21378 C 133.87039,245.45832 133.08009,244.79643 133.45331,244.16111 C 133.2977,243.6204 133.34335,242.67871 132.61811,242.524 C 131.93852,242.18677 131.42217,241.72511 130.70968,241.44254 C 130.15111,241.47289 129.32945,240.77093 130.27648,240.56803 C 130.51918,240.16289 130.41704,239.7666 129.89565,240.01013 C 129.23004,239.85559 128.55888,239.55062 127.83319,239.56649 C 127.24243,239.65612 126.18088,239.42477 126.17362,240.24254 C 125.94266,240.91019 126.59091,241.45617 126.90141,242.10298 C 127.02745,242.80081 127.85567,243.18137 127.47682,243.94304 C 126.73134,244.05426 125.9393,243.75096 125.19879,244.11816 C 124.42007,244.35601 123.54536,244.18499 122.8456,244.6986 C 122.56544,245.0137 122.56152,245.54408 122.14444,245.88406 C 121.88557,246.57135 121.00716,246.36866 120.69424,246.93858 C 120.1562,247.48828 119.74145,248.05634 119.2592,248.62433 C 118.79274,248.94138 118.02539,249.42138 118.52902,250.00408 C 118.75911,250.62175 118.75496,251.48827 119.22529,252.06423 C 119.33671,252.57517 119.13546,253.45067 119.91503,253.14089 C 120.66392,252.85289 121.41952,253.24305 122.00849,253.68504 C 122.29544,253.90811 122.58096,253.53374 122.85949,253.48569 z "
            id="Vendas_Novas" />
        <path style="fill:#ffefd5;fill-rule:evenodd;stroke:#b22222;stroke-width:0.25400001;stroke-opacity:1"
            d="M 138.34149,261.01868 C 138.50836,260.37639 138.27987,259.85679 138.95471,259.43049 C 139.30763,258.68109 140.29557,257.87669 140.87055,258.91629 C 141.55691,258.87857 142.12182,257.95257 142.92848,258.3696 C 143.53543,258.58848 144.6104,257.64863 144.87483,258.24548 C 144.81146,258.73591 144.09274,259.46284 145.03536,259.05795 C 145.84351,258.90464 146.4993,258.1552 147.32571,258.56361 C 147.49706,259.2705 147.96076,259.74572 147.90214,260.47535 C 148.5685,261.34009 148.00336,262.36651 148.75885,263.23625 C 149.13949,263.68506 147.52193,264.56198 148.53752,264.45482 C 149.06445,263.9816 149.92544,264.03399 150.60968,263.92607 C 151.35539,264.41127 150.3137,265.56339 150.75873,265.84419 C 151.43023,265.45082 151.89388,264.64738 152.73446,264.54146 C 153.34214,264.13577 153.90065,263.12388 154.69678,263.67112 C 155.43032,263.50241 155.43853,262.66438 156.35032,262.80875 C 157.11535,262.75167 158.39486,263.18112 157.77081,264.15103 C 157.33682,263.88852 157.01627,263.72221 157.06481,264.42269 C 156.58716,265.05162 157.81942,265.31948 157.40305,266.02181 C 157.51423,266.47993 158.69957,266.14775 158.30314,266.88536 C 159.32444,267.1086 158.64978,267.86306 158.44446,268.48238 C 158.41364,268.9411 158.0871,269.49709 158.67711,269.71327 C 158.86875,270.08811 157.66348,270.86011 157.66366,270.61838 C 156.91558,270.13126 156.07065,269.81482 155.27464,269.39694 C 154.64343,269.70431 153.80349,270.72962 153.04251,270.10348 C 152.43372,270.06142 152.09124,269.50951 151.63692,269.18446 C 150.87383,268.53974 150.12667,269.74007 149.40313,269.17657 C 148.75496,268.76001 148.07455,268.68277 147.66305,269.45054 C 146.92644,270.23682 146.20717,269.43158 146.02339,268.65524 C 145.40501,268.06437 145.40915,269.63023 144.76117,268.94592 C 143.99652,268.40647 143.66712,267.16207 142.5274,267.33901 C 141.57802,267.37414 140.68196,267.0373 139.80553,266.84919 C 139.14526,266.92533 139.5886,265.32153 138.53918,265.49468 C 137.84565,265.43751 137.25998,265.34105 136.60315,265.63603 C 136.79018,264.81403 137.56749,264.29328 137.82512,263.50499 C 138.38627,263.11541 138.03924,262.3335 137.70781,261.96736 C 138.14341,261.79684 138.84019,262.07642 138.35948,261.36269 C 138.29309,261.27307 138.44143,261.09437 138.34149,261.01868 z "
            id="Viana_do_Alentejo" />
        <path style="fill:#ffefd5;fill-rule:evenodd;stroke:#b22222;stroke-width:0.25400001;stroke-opacity:1"
            d="M 180.94849,243.5087 C 180.67277,243.00312 181.09081,242.79724 181.41916,242.51269 C 180.86925,242.24368 181.6924,241.91517 181.34682,241.53502 C 181.67895,241.1952 182.72059,240.46709 182.05136,240.10445 C 181.52892,240.55058 182.11161,239.4814 182.39307,239.39744 C 182.72157,239.11731 183.28098,238.78793 182.84809,238.42965 C 182.64929,237.49655 184.02312,238.11024 184.12555,237.23263 C 184.60025,236.70664 185.36559,236.47378 186.01934,236.18932 C 186.67006,235.89712 187.19184,235.3814 187.86549,235.16101 C 188.06164,235.42462 187.42377,235.84114 187.95616,235.93967 C 188.20834,235.5868 189.04491,235.48525 188.77083,236.10268 C 189.35359,235.93136 189.87876,235.60624 190.42515,235.40553 C 190.61231,234.95929 189.97747,234.41872 190.57255,234.03588 C 191.23734,234.05577 191.56924,232.5246 192.18878,233.45756 C 192.45061,233.93126 192.87523,233.90897 193.03072,233.38373 C 193.31096,233.02688 194.15011,233.66749 193.82144,232.97217 C 193.84913,231.98115 195.06259,232.78837 195.29741,233.31997 C 195.47423,233.89002 195.64993,233.49249 195.96195,233.40827 C 196.22607,233.56702 196.80989,233.78068 196.15883,233.82101 C 195.69992,234.47294 196.54511,235.0575 196.06816,235.70033 C 196.15679,236.32732 195.03742,236.63433 195.32583,237.334 C 196.12354,237.12573 195.53538,238.61191 195.04303,238.21006 C 194.63083,238.73305 194.63445,237.46691 194.06699,237.80743 C 193.5764,237.82316 193.22436,238.18555 193.04449,238.71734 C 192.44658,239.14095 192.81741,239.9134 192.10283,240.25668 C 191.95767,240.79384 191.47722,240.49785 191.44008,240.20893 C 191.1532,239.92579 190.36473,239.80324 190.76356,240.36251 C 190.06025,241.07873 189.84784,239.74556 189.42226,239.3428 C 189.19683,239.32405 188.68854,239.90991 188.41575,239.98318 C 188.30014,240.64319 186.96107,240.40093 187.62424,241.20862 C 187.60726,241.65245 188.21971,242.19204 187.485,242.32984 C 187.03631,242.49487 186.56504,242.65899 186.23267,242.16763 C 185.73001,242.11956 185.56249,241.62264 185.05883,242.00568 C 184.40465,241.48663 183.94114,242.92761 183.31166,242.2624 C 182.62933,242.30177 182.79589,243.29879 183.17189,243.57974 C 182.98117,244.00921 183.84619,245.17616 182.83401,244.81323 C 182.11779,244.67451 181.95133,244.14577 181.58216,243.59902 C 181.31793,243.62937 181.09162,243.89047 180.94849,243.5087 z "
            id="Vila_Viçosa" />
    </g>
    <!-- EO MUNICIPIOS -->
</svg>