<?xml version="1.0" encoding="UTF-8" standalone="no"?>
<!-- Creator: CorelDRAW -->
<svg xmlns:dc="http://purl.org/dc/elements/1.1/" xmlns:cc="http://web.resource.org/cc/"
    xmlns:rdf="http://www.w3.org/1999/02/22-rdf-syntax-ns#" xmlns:svg="http://www.w3.org/2000/svg"
    xmlns="http://www.w3.org/2000/svg" xmlns:sodipodi="http://inkscape.sourceforge.net/DTD/sodipodi-0.dtd"
    xmlns:inkscape="http://www.inkscape.org/namespaces/inkscape" xml:space="preserve" width="250" height="366"
    style="shape-rendering:geometricPrecision; text-rendering:geometricPrecision; image-rendering:optimizeQuality; fill-rule:evenodd; clip-rule:evenodd"
    viewBox="0 0 200 200" id="svg1627" sodipodi:version="0.32" inkscape:version="0.43"
    sodipodi:docname="Mapa_de_Portugal.svg" sodipodi:docbase="C:\Documents and Settings\Márcio Silva\Os meus documentos"
    version="1.0">
    <metadata id="metadata1927">
        <rdf:RDF>
            <cc:Work rdf:about="">
                <dc:format>image/svg+xml</dc:format>
                <dc:type rdf:resource="http://purl.org/dc/dcmitype/StillImage" />
                <dc:title>Munícipios de Portugal</dc:title>
                <cc:license rdf:resource="http://creativecommons.org/licenses/GPL/2.0/" />
                <dc:creator>
                    <cc:Agent>
                        <dc:title>Rei-artur (rei.artur@gmail.com)</dc:title>
                    </cc:Agent>
                </dc:creator>
            </cc:Work>
            <cc:License rdf:about="http://creativecommons.org/licenses/GPL/2.0/">
                <cc:permits rdf:resource="http://web.resource.org/cc/Reproduction" />
                <cc:permits rdf:resource="http://web.resource.org/cc/Distribution" />
                <cc:requires rdf:resource="http://web.resource.org/cc/Notice" />
                <cc:permits rdf:resource="http://web.resource.org/cc/DerivativeWorks" />
                <cc:requires rdf:resource="http://web.resource.org/cc/ShareAlike" />
                <cc:requires rdf:resource="http://web.resource.org/cc/SourceCode" />
            </cc:License>
        </rdf:RDF>
    </metadata>

    <sodipodi:namedview inkscape:window-height="582" inkscape:window-width="866" inkscape:pageshadow="2"
        inkscape:pageopacity="0.0" borderopacity="1.0" bordercolor="#666666" pagecolor="#ffffff" id="base"
        fill="#ffff00" inkscape:zoom="1.1338798" inkscape:cx="125" inkscape:cy="211.12313" inkscape:window-x="28"
        inkscape:window-y="117" inkscape:current-layer="layer7" showguides="true" inkscape:guide-bbox="true">
        <sodipodi:guide orientation="horizontal" position="329.9602" id="guide2648" />
        <sodipodi:guide orientation="horizontal" position="307.74672" id="guide2650" />
    </sodipodi:namedview>

    <defs id="defs1629">
        <metadata id="CorelCorpID_0Corel-Layer" />
        <sodipodi:namedview inkscape:guide-bbox="true" showguides="true" inkscape:current-layer="layer1"
            inkscape:window-y="-4" inkscape:window-x="-4" inkscape:cy="327.60442" inkscape:cx="146.08303"
            inkscape:zoom="17.548964" fill="#fa8072" id="namedview5974" pagecolor="#ffffff" bordercolor="#666666"
            borderopacity="1.0" inkscape:pageopacity="0.0" inkscape:pageshadow="2" inkscape:window-width="1024"
            inkscape:window-height="712" />
    </defs>

    <!-- <g inkscape:groupmode="layer" id="layer3" inkscape:label="fundo" style="display:inline" sodipodi:insensitive="true">
        <rect style="fill:#4169e1;fill-opacity:1;fill-rule:evenodd;stroke:none;display:inline" id="rect2247" width="200" height="200" />
    </g> -->

    <g inkscape:groupmode="layer" id="layer10" inkscape:label="----detalhes----" style="display:inline" />

    <!-- MUNICIPIOS -->
    <g inkscape:groupmode="layer" id="layer4" inkscape:label="Municipios" style="display:inline"
        sodipodi:insensitive="true" transform="translate(-187, -580) scale(2)">
        <path style="fill:#ffefd5;fill-rule:evenodd;stroke:#b22222;stroke-width:0.25400001;stroke-opacity:1"
            d="M 141.31149,345.25467 C 141.73096,345.51543 142.20778,345.59382 142.67734,345.77512 C 143.18949,345.92595 143.65356,346.20933 144.14597,346.42189 C 144.64196,346.33669 145.16196,346.48262 145.24141,347.07565 C 145.75573,347.38299 145.79515,347.98768 145.36949,348.42249 C 145.12651,348.92224 144.94262,349.48445 144.89682,350.05302 C 144.67225,350.32967 143.7024,350.64553 144.21151,351.01185 C 144.68595,351.22314 143.80313,352.04123 143.51714,351.5197 C 143.20693,351.57396 143.55621,352.13083 143.54343,352.35229 C 143.89236,352.83467 144.49151,352.91605 145.05255,352.88606 C 145.43671,352.84429 145.87497,352.94654 145.46378,353.34912 C 145.6162,353.84655 146.12507,354.22753 146.48409,354.61292 C 146.85151,354.38264 147.27592,354.87996 147.11565,355.29246 C 147.13656,355.57474 146.83348,355.29811 146.68278,355.28434 C 145.78333,354.96878 144.92003,354.56452 144.04649,354.18536 C 143.34065,354.31405 142.63528,354.45554 141.92915,354.57635 C 141.42216,354.54343 140.90831,354.46905 140.40553,354.46155 C 139.73372,354.75027 139.06722,355.05946 138.39217,355.33569 C 138.03281,355.37215 137.67041,355.42818 137.31284,355.453 C 136.79972,355.06361 136.27699,354.68568 135.76018,354.30069 C 135.92759,354.0499 136.05557,353.7702 136.09651,353.4787 C 136.042,352.98482 136.49876,352.6341 136.63059,352.17676 C 136.86896,351.71246 136.87487,351.18337 136.96017,350.69035 C 137.27025,350.29254 137.85475,350.63691 138.28209,350.37083 C 138.78395,350.40042 139.29728,350.77635 139.74593,350.37472 C 140.16993,350.338 140.80564,350.53054 140.85455,349.87191 C 140.81995,349.33274 140.49534,348.8857 140.60517,348.33303 C 140.65084,347.84839 140.67998,347.33501 140.79639,346.86554 C 141.15887,346.38889 141.04082,345.75323 141.3115,345.25468 L 141.31149,345.25467 z "
            id="Albufeira" />
        <path style="fill:#ffefd5;fill-rule:evenodd;stroke:#b22222;stroke-width:0.25400001;stroke-opacity:1"
            d="M 160.14349,330.27969 C 160.78808,330.67534 161.25963,329.56422 161.69016,330.20736 C 162.31421,329.98046 161.72126,328.95842 162.74127,329.2603 C 163.54301,329.69669 163.5414,328.15414 163.91104,328.4586 C 163.74198,329.40547 165.36843,328.31278 165.50349,327.79902 C 166.23041,328.203 166.50077,327.05661 167.11516,327.14702 C 166.5622,326.3516 167.47693,327.01391 167.68995,327.13934 C 168.43465,326.97316 167.73524,326.18796 168.58537,326.48073 C 168.87123,326.29335 168.91117,325.85556 169.26267,326.25701 C 169.66281,325.98756 169.8639,325.4487 170.26583,325.97001 C 171.05825,325.62517 171.97128,325.31822 172.7795,325.50164 C 173.16906,325.59977 173.12651,325.76236 173.39849,326.11502 C 173.94517,325.00196 175.08303,327.2856 175.20916,325.80736 C 175.93571,325.70397 176.26546,325.16723 176.68316,324.63036 C 177.41922,325.213 177.32929,322.86477 178.12853,324.07973 C 178.87824,324.02442 179.51666,324.28986 180.27995,323.82952 C 180.76471,324.06043 181.31129,323.53283 181.60436,324.13071 C 181.88156,324.31708 182.00574,324.58986 182.03614,324.91477 C 182.16488,325.27138 182.10106,325.76946 182.5489,325.89162 C 182.84793,326.10742 183.2342,326.2537 183.49416,326.50134 C 183.44463,326.94316 183.28276,327.39896 183.29469,327.83149 C 183.53317,328.35098 183.82904,328.85767 184.03581,329.38437 C 184.00816,329.76013 183.77356,330.18113 183.89837,330.52958 C 184.11873,330.92024 184.44092,331.28426 184.61082,331.68869 C 184.39062,331.8553 184.09935,331.93917 183.85782,332.08069 C 184.14602,332.40395 184.53499,332.67326 184.77582,333.02237 C 184.86093,333.48281 184.94604,333.94325 185.03116,334.40369 C 184.24158,334.27795 183.33655,334.96474 182.7167,334.4845 C 182.3055,333.97493 181.73966,333.60619 181.27427,334.25229 C 181.08164,333.32639 179.95016,333.77813 179.45807,333.28376 C 179.14857,333.0827 178.54048,332.99 178.45532,333.46334 C 177.86888,333.40036 177.97072,332.66342 177.67536,333.55431 C 177.01116,334.11015 176.08839,334.2032 175.40372,334.35679 C 175.62932,335.24139 175.46308,336.21287 174.69851,336.89782 C 174.80348,337.32972 174.80572,337.46693 174.54013,337.63043 C 174.02291,338.28713 174.38028,339.3385 174.34657,340.21268 C 174.58184,341.26655 173.50737,341.08187 172.87015,340.85934 C 172.26081,341.42512 171.67676,340.17209 171.26639,340.88668 C 170.47455,341.21784 171.49816,339.63754 170.51915,339.93102 C 170.39684,339.36025 168.63985,339.95835 169.07842,338.84237 C 169.16967,337.84215 168.43083,337.29809 167.96815,336.39642 C 167.69014,335.42445 167.43907,334.4314 166.34298,334.06606 C 165.38469,333.27138 164.66404,334.99373 163.52983,334.29969 C 162.6433,334.20517 161.68326,334.0591 160.9405,333.66569 C 160.38372,333.57645 159.92079,332.55474 160.6145,332.14468 C 159.65122,332.0162 160.52179,331.34602 159.96079,330.91803 C 159.5928,331.03994 160.04199,330.35146 160.14349,330.27969 z "
            id="Alcoutim" />
        <path style="fill:#ffefd5;fill-rule:evenodd;stroke:#b22222;stroke-width:0.25400001;stroke-opacity:1"
            d="M 103.65949,349.77667 C 103.89538,349.33278 104.13127,348.8889 104.36716,348.44501 C 104.09999,347.92279 103.72352,347.44467 103.63967,346.84868 C 103.63269,346.7195 103.42492,346.42151 103.69164,346.43169 C 104.04573,346.30942 104.49211,346.34428 104.70832,345.98723 C 105.01814,345.67032 105.34282,345.36336 105.47073,344.92463 C 105.84574,344.10838 106.23715,343.29839 106.46214,342.4248 C 106.52364,342.0757 106.82456,341.71749 106.59786,341.37935 C 106.25944,340.6484 106.23894,339.82475 106.05312,339.04933 C 106.02217,338.73667 105.8812,338.40674 105.90182,338.10135 C 106.31715,337.69853 106.77083,337.31815 107.15485,336.89241 C 107.45303,336.08503 107.82707,335.31355 108.25963,334.56989 C 108.63311,333.82427 109.14453,333.13592 109.31786,332.30719 C 109.55123,331.51883 109.80765,330.73643 109.95849,329.9267 C 110.45396,329.83066 110.93347,330.23159 111.36115,329.97168 C 111.86756,330.01807 112.22983,330.09144 112.42949,330.44234 C 112.90007,330.18535 112.86911,330.57774 112.97641,330.81363 C 113.57365,330.66782 112.53578,331.5219 113.32601,331.52259 C 113.67861,331.83046 113.49877,333.39515 114.16782,332.59702 C 114.36275,332.90093 114.40667,332.32287 114.66252,332.68622 C 114.89377,332.63414 115.0278,333.03014 115.21815,332.66969 C 115.45743,333.14605 115.89429,332.40849 116.16196,332.88888 C 116.55661,332.89313 116.57057,332.59265 116.68811,333.16392 C 117.15499,333.82494 117.00906,334.97639 116.06158,334.72577 C 115.76985,334.93636 115.33108,334.67349 115.31256,335.29618 C 115.05344,335.82519 116.28472,336.45128 115.26376,336.75461 C 114.46961,336.67438 115.34032,338.03297 114.42871,337.59726 C 113.93457,337.51196 114.47619,338.52092 113.77487,338.41625 C 112.94484,338.73027 113.27272,339.4315 113.51999,340.01023 C 113.42931,340.74105 113.44463,341.49656 113.26249,342.21235 C 112.24276,342.34615 112.92932,343.6854 112.68549,344.37432 C 112.40481,344.91158 111.15087,344.91158 111.21649,345.74336 C 110.60969,345.86181 111.29105,346.74926 110.59213,347.05859 C 110.06194,347.62326 109.07504,347.01338 108.85322,347.98513 C 108.197,348.43849 107.55988,348.71832 106.87828,349.10081 C 106.27208,349.56912 105.40395,349.42572 104.69528,349.58316 C 104.35466,349.59014 104.00262,349.72285 103.65949,349.77667 z "
            id="Aljezur" />
        <path style="fill:#ffefd5;fill-rule:evenodd;stroke:#b22222;stroke-width:0.25400001;stroke-opacity:1"
            d="M 174.41249,340.34769 C 174.30989,339.71488 174.20217,339.02101 174.32182,338.38561 C 174.21057,338.03465 174.38288,337.89343 174.54012,337.63043 C 174.49542,337.37687 175.0643,337.60691 174.73818,337.18959 C 174.54229,336.54274 175.57003,336.20369 175.51493,335.50501 C 175.66798,335.08344 174.97829,334.26454 175.6966,334.22307 C 176.40639,334.45701 177.07085,333.83137 177.67536,333.55431 C 177.84512,333.27113 177.95703,332.76309 178.05182,333.35802 C 178.43349,333.56752 178.57577,333.42937 178.67482,333.10469 C 179.19069,333.13634 179.50606,333.21701 179.87049,333.51718 C 180.22803,333.51047 180.47975,333.83394 180.85849,333.59335 C 181.14814,333.88409 181.25146,334.65533 181.65805,333.92547 C 182.05266,333.64979 182.33217,334.25922 182.66699,334.40204 C 183.05546,335.07699 183.90393,334.34303 184.51649,334.40836 C 184.75745,334.49658 185.14041,334.25727 185.08255,334.68235 C 185.16273,334.9943 184.9568,335.29546 184.91988,335.6032 C 184.85016,335.937 184.71956,336.27255 184.68704,336.60527 C 184.77469,336.96832 184.96448,337.31804 184.99662,337.68849 C 184.98958,338.22944 184.92873,338.78209 184.95469,339.31585 C 185.28897,340.00395 185.66522,340.68097 185.97449,341.3757 C 185.74484,341.79667 185.50927,342.21647 185.2775,342.63705 C 185.66161,343.2955 186.08696,343.94144 186.33716,344.6637 C 186.30021,345.22838 186.2711,345.794 186.23717,346.35904 C 185.83383,346.73428 185.53359,346.43299 185.26509,346.07668 C 184.52718,345.8496 185.21479,347.28583 184.35888,347.01574 C 184.05531,347.17735 183.72625,347.34965 183.56181,347.02114 C 183.19036,347.36328 183.22237,347.76455 183.69485,347.98569 C 183.93841,348.14265 183.34106,348.14525 183.21654,348.23464 C 182.51863,348.43811 181.82073,348.64157 181.12282,348.84503 C 181.29426,348.4282 181.18177,348.01789 180.94913,347.64336 C 180.47755,347.0476 179.91527,346.62839 179.87304,345.81085 C 179.64027,345.22517 179.69504,344.64525 179.72497,344.0254 C 179.90941,343.39423 180.13548,342.1534 179.06879,342.45756 C 178.69537,342.32398 178.25348,341.72498 178.10135,342.43663 C 177.87374,343.18165 177.60678,342.08481 177.23711,342.60695 C 176.81051,342.29744 176.36278,341.53072 175.70515,341.27103 C 175.31727,340.92473 174.9754,340.39426 174.41249,340.34769 z "
            id="Castro_Marim" />
        <path style="fill:#ffefd5;fill-rule:evenodd;stroke:#b22222;stroke-width:0.25400001;stroke-opacity:1"
            d="M 161.41049,361.98569 C 161.2989,361.42298 161.08939,360.87928 160.86716,360.35602 C 160.75785,359.64375 160.27013,359.02037 160.26806,358.28614 C 160.40143,357.69584 160.56359,357.01119 160.32143,356.42169 C 160.24147,356.10047 160.08342,355.17439 160.65624,355.43985 C 161.08326,355.52804 161.71352,355.80268 162.02702,355.35389 C 162.18778,354.89848 163.09741,355.10457 163.15538,354.41841 C 163.15031,353.99197 163.56024,353.44719 163.03328,353.25784 C 162.96237,353.02508 162.51477,353.51566 162.66327,353.03085 C 162.66011,352.59446 163.35213,352.00193 162.79933,351.72922 C 162.3299,351.6871 162.42971,351.18299 161.98661,351.12605 C 161.45807,350.70318 161.07333,351.60394 160.45083,351.37469 C 160.19593,351.46142 160.22695,351.91585 159.87765,351.58921 C 159.48677,351.47263 158.85802,351.63999 158.84101,351.02967 C 158.44861,350.71983 157.72399,351.31421 157.5897,350.58547 C 157.13596,350.1673 156.48158,350.37127 156.10735,350.759 C 155.58803,351.00735 155.3021,351.66193 154.6832,351.69323 C 154.2193,351.86994 153.66438,352.37148 153.98693,352.90495 C 154.21989,353.32643 154.26852,354.01826 154.93197,353.95851 C 155.28744,353.96792 155.45045,354.5736 155.87174,354.33005 C 156.14514,354.64236 156.08272,355.15554 156.64141,355.12301 C 157.00282,355.17054 157.23589,355.29708 156.91273,355.61131 C 156.72335,355.90609 156.41294,356.05953 156.12316,356.08269 C 156.21212,356.72409 155.32023,355.70738 155.25725,356.44285 C 155.24862,356.97946 154.51461,356.49433 154.66622,357.07911 C 154.66443,357.68754 154.46254,358.2476 154.23441,358.79843 C 154.0683,359.08778 154.01203,359.41209 153.98383,359.73901 C 155.12895,360.50007 156.27139,361.26769 157.41817,362.02469 C 158.4959,362.31528 159.57751,362.61514 160.65283,362.90002 C 160.97378,362.70041 161.29339,362.49852 161.61383,362.29803 C 161.54605,362.19392 161.47827,362.0898 161.41049,361.98569 z "
            id="Faro" />
        <path style="fill:#ffefd5;fill-rule:evenodd;stroke:#b22222;stroke-width:0.25400001;stroke-opacity:1"
            d="M 124.90149,352.25269 C 125.12381,352.55194 125.34089,352.86141 125.56582,353.155 C 126.16465,353.2915 126.77249,353.39756 127.36613,353.5512 C 128.30476,353.91531 129.24471,354.29274 130.1825,354.64868 C 130.85506,354.50984 131.53448,354.39188 132.20287,354.24031 C 132.71497,353.99166 133.22707,353.74301 133.73917,353.49435 C 133.69894,353.30614 133.78291,353.05938 133.58808,352.94366 C 133.29119,352.70775 132.64647,352.575 133.00134,352.05949 C 133.31832,351.75877 133.40725,351.35247 133.1875,350.96393 C 133.11761,350.53094 133.14749,350.10439 132.78316,349.78102 C 132.33991,349.748 132.10515,350.18436 131.75879,350.35373 C 131.40266,350.45412 131.08614,350.34329 130.83063,350.1388 C 130.52559,350.28099 130.17874,350.55751 129.91768,350.19225 C 129.59977,350.04409 129.25501,350.13643 129.04308,349.86727 C 128.5161,349.81751 129.18845,349.42 128.98049,349.17698 C 128.85013,348.78701 128.68484,348.41463 128.49044,348.06635 C 128.15707,347.79433 127.84846,348.32521 127.49418,348.10684 C 127.24639,347.9304 127.2553,348.51897 127.04316,348.64002 C 127.09748,348.94006 126.9261,349.34632 126.58784,349.10623 C 126.01354,348.97681 126.37896,349.72395 126.18218,350.0287 C 126.00176,350.43091 125.44685,350.27937 125.09663,350.45497 C 124.75981,350.64824 124.71216,351.08684 124.92548,351.38519 C 125.05637,351.58342 125.2178,351.85534 125.0172,352.05916 C 124.97863,352.12366 124.94007,352.18819 124.90149,352.25269 z "
            id="Lagoa" />
        <path style="fill:#ffefd5;fill-rule:evenodd;stroke:#b22222;stroke-width:0.25400001;stroke-opacity:1"
            d="M 111.60449,355.53568 C 111.98554,355.41718 112.38603,355.33993 112.75639,355.19891 C 113.16191,354.93629 113.55034,354.62043 113.96631,354.39036 C 114.68936,354.36535 115.4181,354.37431 116.13545,354.4554 C 116.57939,354.57178 117.02474,354.72541 117.46783,354.82169 C 117.53359,354.67682 117.40634,354.48708 117.40915,354.32951 C 117.33515,353.9359 117.26116,353.54229 117.18716,353.14868 C 117.5051,352.88831 117.78838,352.57288 118.19323,352.4506 C 118.69004,352.24134 119.17875,351.98872 119.6806,351.80644 C 119.98077,351.91342 119.81955,351.54289 119.85416,351.37503 C 119.96494,350.7032 119.63507,350.11914 119.17003,349.67367 C 118.97624,349.08147 118.52092,348.66353 118.33283,348.06135 C 118.53595,347.64242 118.3883,346.82764 117.75183,346.83639 C 117.437,346.35188 116.75695,346.28086 116.61073,345.69164 C 116.42708,345.437 115.98825,345.88942 115.97058,345.37194 C 115.9446,344.82357 115.8335,344.21986 115.1912,344.10662 C 114.70431,344.04995 114.43215,344.29367 114.52005,344.79401 C 114.23205,345.09538 113.60454,344.71377 113.20585,344.69757 C 112.85526,344.71838 112.68154,344.37276 112.32088,344.67117 C 111.94026,345.00951 111.13281,345.08442 111.21683,345.74369 C 110.60656,345.81426 111.25555,346.48624 110.79559,346.82293 C 110.50075,347.34007 109.94804,347.40371 109.42417,347.33702 C 108.97104,347.53203 108.90035,348.20065 108.30688,348.29405 C 107.94182,348.82386 106.937,348.73308 106.78925,349.29834 C 107.29556,349.35206 107.44025,349.88754 107.90818,349.97532 C 108.12549,350.3943 108.55783,350.38517 108.92713,350.28992 C 109.34624,350.56476 109.21054,351.7501 109.92498,351.2101 C 110.28768,350.82539 110.18522,351.82907 110.60019,351.87553 C 111.04806,352.36327 111.03197,353.03078 111.07863,353.65522 C 111.01098,354.21004 111.31309,354.72104 111.48638,355.23701 C 111.52574,355.33656 111.56514,355.43613 111.60449,355.53568 z "
            id="Lagos" />
        <path style="fill:#ffefd5;fill-rule:evenodd;stroke:#b22222;stroke-width:0.25400001;stroke-opacity:1"
            d="M 157.24649,350.37869 C 157.42012,349.21381 156.38669,348.64677 156.72123,347.63714 C 156.43521,346.92712 155.73389,346.38387 156.66682,345.88802 C 156.34231,345.01513 158.58923,344.17337 158.51383,345.51468 C 159.83229,345.0837 158.39666,343.51429 159.00061,343.00237 C 158.92449,342.3305 160.76333,342.88668 159.77604,341.98743 C 158.95665,340.96003 161.2109,341.54054 160.34278,340.54549 C 159.98452,339.70649 158.34714,339.32364 159.03916,338.26468 C 159.5638,338.02196 159.1193,337.05656 159.79458,336.68468 C 159.11795,335.46022 161.49331,334.52238 160.47107,333.27754 C 159.61601,332.80115 161.27666,332.01319 160.12549,331.94502 C 159.79365,331.07575 159.27681,331.51181 159.22116,332.22166 C 158.99139,332.35679 158.99453,331.55621 158.48483,332.14434 C 158.21328,331.42719 157.43034,333.07814 157.16777,332.03417 C 156.6235,332.78762 156.10207,331.6531 155.56983,332.59702 C 155.30677,331.94414 154.79928,332.29243 154.98408,332.80994 C 154.54656,333.14586 153.95197,332.51167 153.99162,333.40376 C 153.76293,333.83391 154.42927,333.81115 153.78783,334.24469 C 154.27438,334.23919 153.94077,335.00722 154.49416,334.58869 C 154.24099,335.0882 155.00519,335.06175 154.14786,335.23927 C 153.93462,335.62133 153.44513,335.03751 153.11783,335.60269 C 153.26956,335.98646 152.36886,335.98414 152.29799,336.19759 C 152.17806,336.55758 152.07356,336.70636 151.95854,336.97809 C 151.30424,336.71028 151.55428,338.07998 150.67349,337.88435 C 150.46959,338.77476 149.55515,337.25282 148.89649,337.65112 C 147.79515,337.74375 146.62701,337.23551 145.47649,337.23235 C 144.77886,336.86409 143.54785,336.29104 143.69767,337.50444 C 142.53231,338.3216 144.71019,339.51056 144.1365,339.94869 C 143.24782,340.27424 142.67239,341.31736 142.27474,342.18413 C 141.89825,343.04071 141.2012,343.70911 141.34621,344.74421 C 141.30025,345.96179 143.39567,345.64252 144.14632,346.42135 C 145.093,346.2204 146.0751,347.6797 145.36983,348.42201 C 145.04554,349.36664 144.86462,350.26381 144.05366,350.84182 C 144.79423,351.21488 143.8587,351.94192 143.35783,351.57369 C 143.29333,352.87597 144.70763,352.92567 145.6575,352.96801 C 145.10301,353.90729 146.55614,354.49318 147.05699,354.80713 C 147.04494,355.35808 147.20748,355.60336 147.8057,355.70787 C 148.51231,355.93252 149.17553,356.23959 149.7507,356.71397 C 151.19782,357.67231 152.55869,358.7518 153.9845,359.73901 C 154.06796,358.7562 154.77149,357.93227 154.67336,356.91022 C 154.87135,356.64611 155.33289,356.68298 155.45383,356.13669 C 156.14417,356.48009 156.5744,355.95552 157.07711,355.34303 C 156.72698,355.08764 155.95653,355.03607 155.87241,354.33004 C 154.92553,354.2742 153.63143,353.40186 153.99531,352.23072 C 154.92911,351.63636 155.92583,350.73559 156.89321,350.37869 L 157.06981,350.37869 L 157.2465,350.37869 L 157.24649,350.37869 z "
            id="Loulé" />
        <path style="fill:#ffefd5;fill-rule:evenodd;stroke:#b22222;stroke-width:0.25400001;stroke-opacity:1"
            d="M 116.54049,345.56268 C 116.19637,344.72627 117.47706,344.71106 117.38224,343.87409 C 117.36703,343.44701 117.44044,342.46687 117.98882,343.20869 C 118.24741,343.50766 118.38717,343.61994 118.18341,344.04885 C 118.46966,344.83068 119.00069,343.91403 119.12718,343.5489 C 119.4534,343.18767 118.61552,343.26035 118.98616,342.78814 C 118.97474,342.15012 119.48372,341.9437 119.96282,341.79636 C 119.94853,341.38395 119.68268,340.54729 120.35038,341.05317 C 120.72714,341.22594 121.1663,342.16634 121.33384,341.2869 C 121.56701,340.52646 121.9152,341.80688 121.7019,342.0651 C 122.15946,342.57809 122.98688,343.33702 123.47336,342.91903 C 123.95436,343.39322 124.861,343.226 125.26815,342.71969 C 125.6467,342.82539 126.12417,342.84338 126.01049,343.33535 C 126.38434,343.30401 126.91211,343.55283 126.71682,342.95502 C 127.33968,342.59689 128.23645,341.9281 127.74979,341.19398 C 127.99004,340.67519 128.6654,340.83108 128.98517,340.39143 C 129.3742,340.12227 130.15751,340.93889 129.97837,340.08194 C 130.44604,339.52159 129.27574,339.11685 129.84851,338.76769 C 129.763,338.19955 130.41091,338.46179 130.49136,337.92581 C 130.56675,337.61062 130.00348,337.29142 130.59852,336.95158 C 131.03371,336.55589 130.6119,335.97502 130.83877,335.49213 C 130.32275,334.72465 129.42623,334.62956 128.73432,334.27542 C 128.16694,334.07731 127.63877,333.74923 127.11187,333.73057 C 126.62852,333.33415 126.17143,333.85191 125.81299,334.0152 C 125.0402,333.72415 124.55623,333.15457 123.9554,332.65297 C 123.37503,332.25699 122.76202,331.66083 122.13548,332.25367 C 121.43795,332.63035 120.6738,332.28084 119.96648,332.54701 C 119.72559,333.18172 119.27104,333.79177 118.86944,334.23497 C 118.37318,333.96632 118.2299,332.51788 117.46473,332.60892 C 117.21042,332.50091 117.00456,332.67521 116.75748,332.83301 C 116.22476,332.56175 117.19751,333.86679 116.92048,334.22735 C 116.9396,334.96434 116.07156,334.5449 115.77043,334.84001 C 115.092,334.78846 115.16563,335.95467 115.72548,336.23735 C 115.68243,336.89531 114.45049,336.67528 114.94681,337.48667 C 114.82422,337.95347 113.92533,337.18726 114.20023,337.99863 C 114.12511,338.55617 112.65214,338.69581 113.36105,339.55643 C 113.76567,340.27267 113.2382,341.0836 113.38798,341.84827 C 113.35823,342.387 112.48629,342.23218 112.70344,342.93835 C 112.84258,343.62602 112.32732,344.74551 113.29915,344.76601 C 113.87737,344.81959 114.78964,345.23061 114.54848,344.24068 C 115.43875,343.74071 116.04922,344.66152 116.00165,345.47047 C 116.07676,345.84368 116.34642,345.55228 116.54049,345.56268 z "
            id="Monchique" />
        <path style="fill:#ffefd5;fill-rule:evenodd;stroke:#b22222;stroke-width:0.25400001;stroke-opacity:1"
            d="M 163.98248,351.55569 C 164.5372,351.68246 165.06878,351.29203 165.62028,351.41755 C 165.89696,351.40872 166.2268,351.22672 166.51767,351.42701 C 166.8929,351.34891 167.36521,351.08057 167.33433,351.68266 C 167.55819,352.11342 167.4639,352.62545 167.50057,353.09464 C 167.54855,353.61813 167.82151,354.06922 167.91289,354.57915 C 168.07069,355.02451 168.20461,355.51531 168.63401,355.7898 C 168.87944,356.05905 169.35116,355.93206 169.44574,356.32414 C 169.61299,356.50692 169.26173,356.55091 169.15918,356.66147 C 168.40387,357.08993 167.74911,357.66442 167.05223,358.17774 C 166.55068,358.55143 166.05666,358.95376 165.55049,359.31003 C 165.01997,359.08626 164.48576,358.86993 163.95383,358.64902 C 163.57938,359.28902 163.20494,359.92903 162.83049,360.56903 C 162.9852,360.78007 163.18533,360.96871 163.31616,361.19168 C 163.26747,361.3266 163.07185,361.34916 162.97401,361.44539 C 162.52083,361.7296 162.06766,362.01382 161.61449,362.29803 C 161.41238,362.06293 161.36012,361.77036 161.28325,361.47832 C 161.15433,360.97537 160.8911,360.52362 160.79053,360.01762 C 160.61206,359.44476 160.2717,358.89942 160.26873,358.28616 C 160.4021,357.69586 160.56426,357.01121 160.3221,356.42171 C 160.24214,356.10048 160.08409,355.17442 160.65691,355.43986 C 161.07475,355.52669 161.62792,355.77247 161.98791,355.41844 C 162.08599,354.88588 162.9168,355.16814 163.08561,354.59544 C 163.16106,354.21271 163.41381,353.7034 163.23145,353.38456 C 163.00101,353.3214 162.9744,353.04772 162.72279,353.27957 C 162.49187,352.92634 162.96398,352.44035 163.01366,352.06723 C 162.89212,351.65345 163.73841,351.59856 163.98248,351.55569 z "
            id="Olhão" />
        <path style="fill:#ffefd5;fill-rule:evenodd;stroke:#b22222;stroke-width:0.25400001;stroke-opacity:1"
            d="M 127.35049,348.04269 C 127.03837,348.58004 127.1099,349.41738 126.30016,349.11102 C 126.32779,349.77826 126.14297,350.47517 125.30854,350.39681 C 124.31996,350.58435 125.18021,351.50285 125.04813,352.00685 C 124.95535,352.39807 124.55651,352.18282 124.27052,352.19119 C 123.90755,352.17736 123.52109,352.07508 123.17272,352.11619 C 122.99437,352.23711 122.82229,352.37473 122.64049,352.48669 C 122.06613,352.28485 121.50284,352.01531 120.91613,351.86748 C 120.56436,351.84988 120.21259,351.83229 119.86082,351.8147 C 119.84375,351.15081 119.9527,350.37599 119.36229,349.90881 C 119.04983,349.23119 118.20295,348.47836 118.43265,347.74684 C 118.48588,346.74093 117.18968,346.6773 116.7525,345.95751 C 116.21511,345.43036 116.59796,344.73224 117.16535,344.48189 C 117.55473,344.03858 117.16069,342.37954 117.98882,343.20769 C 118.24737,343.50666 118.38656,343.61928 118.18339,344.04809 C 118.47998,344.9474 119.32882,343.53136 119.10418,343.25589 C 118.67893,342.90363 119.201,341.75279 119.90402,341.86439 C 120.07817,341.50815 119.5819,340.49894 120.35037,341.05241 C 120.71641,341.22442 121.17264,342.16614 121.33382,341.28622 C 121.56709,340.52568 121.91521,341.80596 121.7019,342.06418 C 122.15947,342.57731 122.98717,343.33661 123.47336,342.91802 C 123.83517,343.52646 124.5775,342.86158 124.92845,343.23294 C 124.73595,343.61159 124.48061,344.57522 125.20732,344.36488 C 125.92413,344.97554 124.98152,346.0912 125.88732,346.60022 C 126.25703,347.15527 127.34985,347.12207 127.35049,348.04269 z "
            id="Portimão" />
        <path style="fill:#ffefd5;fill-rule:evenodd;stroke:#b22222;stroke-width:0.25400001;stroke-opacity:1"
            d="M 163.98248,351.55569 C 163.9868,351.06555 163.33632,351.06624 163.3919,350.52494 C 163.17698,350.13904 163.73117,349.88886 163.50272,349.47766 C 163.57725,349.0452 163.13961,348.89035 163.17324,348.48332 C 162.89842,348.16729 162.7237,347.88283 162.96032,347.48211 C 163.13316,347.10999 162.30292,346.45143 163.05847,346.57799 C 163.37684,346.5017 163.65022,346.41698 163.46521,346.09758 C 163.64029,345.72461 163.5377,345.06881 164.12072,345.19046 C 164.55489,345.2685 165.01261,344.8538 164.97497,344.37833 C 164.99119,344.12176 164.84955,343.78712 165.19791,343.83148 C 165.22073,343.61941 165.38459,343.63307 165.47053,343.57079 C 165.17696,342.94646 166.41269,343.14514 165.925,342.57782 C 165.69547,342.08652 165.1279,342.31935 164.72914,342.41211 C 164.28708,342.68863 163.80951,342.05154 163.43915,342.59235 C 163.20839,342.25024 162.74616,342.55536 162.47361,342.16285 C 162.27861,341.94351 161.94495,341.90542 161.75451,342.03648 C 161.49039,341.64225 161.01668,341.86996 161.07023,342.32641 C 160.83668,342.79307 160.26926,342.04213 160.05316,342.56335 C 159.69786,342.50478 159.15364,342.64966 158.94849,342.90035 C 159.19514,343.19746 158.43951,343.19354 158.86128,343.47432 C 158.87797,343.79641 158.98778,344.14171 159.13463,344.40921 C 159.05712,344.7604 158.97722,345.7254 158.47058,345.42656 C 158.40241,345.03372 158.18212,344.553 157.70449,344.84552 C 157.37088,345.11435 156.68235,345.05246 156.6379,345.52694 C 156.75601,345.95537 156.43301,346.23022 156.13328,346.42636 C 156.17916,346.88299 156.73779,347.24871 156.73949,347.77135 C 156.78221,348.12246 156.34339,348.63581 156.92861,348.75543 C 157.19022,349.25087 157.16591,349.88597 157.28249,350.39668 C 157.70706,350.5837 157.85445,351.24698 158.45607,350.91606 C 159.02812,350.79911 158.84125,351.72735 159.47032,351.53873 C 159.77534,351.38545 160.22423,351.97287 160.3027,351.4592 C 160.70358,351.31482 161.24602,351.42538 161.51982,350.97636 C 161.91495,351.04258 162.37286,351.20354 162.46173,351.58254 C 162.83903,351.83217 163.21841,351.88394 163.58415,351.57369 C 163.71422,351.57034 163.86255,351.63009 163.98248,351.55569 z "
            id="São_Brás_de_Alportel" />
        <path style="fill:#ffefd5;fill-rule:evenodd;stroke:#b22222;stroke-width:0.25400001;stroke-opacity:1"
            d="M 133.34448,330.75067 C 134.25445,330.97307 134.61773,329.53652 135.62616,330.28001 C 136.57222,330.16851 137.38644,330.4484 138.02367,331.19905 C 138.50368,331.8232 140.10793,332.10475 139.00715,332.76556 C 138.9228,333.34988 138.76295,333.67587 139.43903,333.69718 C 139.68025,333.76115 140.35637,333.42274 140.48105,334.09131 C 141.07021,334.66248 141.70874,335.06089 142.42206,335.57501 C 142.71502,335.80884 143.51028,335.66788 143.03182,336.23735 C 143.80391,336.52738 144.16703,336.96144 143.56512,337.67351 C 142.70648,338.49927 144.73767,339.53289 144.13649,339.94936 C 143.24781,340.27491 142.67239,341.31804 142.27473,342.1848 C 141.89823,343.04138 141.2012,343.70979 141.3462,344.74488 C 141.28859,345.82849 140.73386,346.78555 140.62382,347.86235 C 140.27286,348.68522 141.52565,350.28569 140.17973,350.35588 C 139.22178,350.65943 138.26671,350.31506 137.26717,350.48164 C 136.6049,350.91824 136.9821,352.07597 136.37401,352.69617 C 135.93624,353.00849 136.20225,354.4854 135.55788,354.15075 C 135.22385,353.84754 134.84407,353.64818 134.38805,353.62183 C 133.83385,353.64346 133.70653,353.3807 133.58807,352.94438 C 132.68951,352.7248 132.93798,352.0318 133.32393,351.4688 C 133.23434,350.73467 132.96529,349.0868 132.0014,350.19101 C 131.35769,350.69687 130.79906,349.87795 130.13948,350.38635 C 129.56999,349.96867 128.51454,350.04796 128.98048,349.17777 C 128.77882,348.49389 128.47153,347.65395 127.59619,348.14456 C 127.17355,347.61021 126.69643,346.93438 125.90215,346.70335 C 124.99553,346.12911 125.91332,345.01996 125.20765,344.3657 C 124.19365,344.49667 124.92758,342.11137 125.86661,342.88084 C 125.90895,343.30037 126.26626,343.46124 126.75348,343.33535 C 126.60715,342.53511 128.51823,342.18387 127.75012,341.19398 C 128.29763,340.73388 129.11833,340.05971 129.87419,340.53267 C 130.10437,340.11656 130.17886,339.32806 129.59615,339.00768 C 129.86748,338.38814 130.33879,338.3729 130.57415,337.70403 C 129.728,337.30076 131.34649,336.65778 130.75498,335.98197 C 131.37985,334.7997 128.7058,334.92811 129.5651,333.8642 C 129.75554,333.20984 130.71314,334.04069 130.81885,333.19668 C 130.96188,332.59339 130.45975,332.06758 131.05523,331.86794 C 131.24929,330.87974 132.60022,330.8282 133.32648,330.76869 L 133.34448,330.75068 L 133.34448,330.75067 z "
            id="Silves" />
        <path style="fill:#ffefd5;fill-rule:evenodd;stroke:#b22222;stroke-width:0.25400001;stroke-opacity:1"
            d="M 169.50949,356.4437 C 170.60001,355.80831 171.63581,355.09248 172.6297,354.31516 C 173.35048,353.76435 174.10635,353.23861 174.80714,352.67368 C 174.98362,352.24508 175.05876,351.71662 175.2983,351.35017 C 176.11302,351.06546 176.92775,350.78075 177.74248,350.49603 C 177.91483,349.69342 177.78629,348.9425 177.61098,348.14622 C 178.07876,347.16004 177.60794,346.07628 177.84487,345.04473 C 177.92364,344.25571 178.29185,342.79906 177.42879,342.49797 C 176.80183,342.73999 176.48521,341.40552 175.70448,341.27036 C 175.23572,340.66427 174.26613,339.85983 174.14015,341.07101 C 173.47673,341.11267 172.95582,340.63836 172.31114,341.01669 C 171.8987,340.79457 171.56872,340.39858 171.26571,340.88601 C 170.47387,341.21721 171.49747,339.6369 170.51848,339.93036 C 170.39619,339.35956 168.63918,339.95771 169.07774,338.84172 C 169.16899,337.84149 168.43017,337.29742 167.96747,336.39575 C 167.68946,335.42379 167.43839,334.43074 166.3423,334.0654 C 165.41244,333.23937 164.74759,334.9725 163.66135,334.3099 C 162.75315,334.27234 161.87739,334.0065 161.04486,333.78727 C 160.43239,333.46534 160.72895,335.07409 160.061,335.35355 C 159.19815,335.77914 160.26757,336.76798 159.36605,337.22986 C 159.41287,337.93267 159.22827,338.09991 158.85575,338.53086 C 158.84835,339.67681 160.09974,339.78399 160.52315,340.76335 C 160.733,341.62586 159.03359,340.96286 159.77536,341.98739 C 159.95196,342.56119 160.61798,342.51278 161.03959,342.38185 C 161.02777,341.55319 161.61292,341.99478 161.94982,341.95351 C 162.74148,342.29444 163.33775,342.65913 164.08594,342.39531 C 164.65987,342.53406 166.23277,341.89702 165.91915,342.95436 C 165.26889,343.20541 165.55384,343.8147 164.92348,343.95736 C 165.29427,344.98591 164.28211,345.2148 163.61948,345.36969 C 163.52374,346.01892 163.62992,346.74879 162.73249,346.55768 C 163.05981,347.01454 162.78907,347.72319 162.96782,348.13302 C 163.37828,348.85626 163.69505,349.65487 163.36341,350.42947 C 163.55773,351.43954 164.39036,351.82948 165.36368,351.37386 C 165.98443,351.42113 166.6497,351.35883 167.25915,351.32002 C 167.59854,352.30885 167.38991,353.41114 167.85689,354.38449 C 167.93743,355.34344 168.74072,355.88373 169.41943,356.27608 C 169.44945,356.33195 169.47947,356.38782 169.50949,356.4437 z "
            id="Tavira" />
        <path style="fill:#ffefd5;fill-rule:evenodd;stroke:#b22222;stroke-width:0.25400001;stroke-opacity:1"
            d="M 103.65949,349.77667 C 103.1669,350.68293 102.80397,351.65433 102.27056,352.53953 C 102.1291,352.78521 102.0341,353.07184 101.75911,353.19984 C 101.56968,353.34892 101.35092,353.47672 101.17482,353.63467 C 101.1167,354.14618 101.06704,354.65901 101.01216,355.17102 C 100.69827,355.51795 100.35604,355.85097 100.05782,356.20535 C 100.01094,356.61165 100.04,357.03514 99.839992,357.40586 C 99.699122,357.78344 99.53753,358.15726 99.408821,358.53702 C 99.45609,358.68633 99.678066,358.49083 99.785606,358.51073 C 100.08968,358.43516 100.39375,358.35959 100.69782,358.28403 C 101.04349,358.69469 101.38915,359.10536 101.73482,359.51602 C 101.76266,359.87598 101.73264,360.25124 101.79249,360.60269 C 102.12491,360.50424 102.46669,360.34867 102.79449,360.21436 C 102.98647,359.72967 103.15989,359.23609 103.34482,358.74802 C 103.64164,358.67171 103.95304,358.61793 104.24182,358.52936 C 104.41674,358.09978 104.57882,357.66423 104.74882,357.23236 C 105.31986,357.11691 105.90208,357.1781 106.47749,357.18668 C 106.67006,356.89057 106.84539,356.58065 107.03149,356.27936 C 107.67427,356.1281 108.30806,355.92491 108.9726,355.89931 C 109.6926,355.81699 110.41912,355.76869 111.13529,355.6664 C 111.26698,355.57664 111.70214,355.63754 111.55417,355.40894 C 111.4156,354.99863 111.19409,354.62047 111.13456,354.18738 C 111.02132,353.54665 111.10176,352.90764 110.87535,352.30937 C 110.7435,351.83386 110.15774,351.61347 110.11183,351.09052 C 109.9009,351.36093 109.22859,351.50087 109.26976,350.93251 C 109.24025,350.47793 108.87898,350.0993 108.44066,350.36165 C 108.02457,350.27716 107.86824,349.78113 107.42666,349.74189 C 107.12023,349.00987 106.34019,349.45887 105.79729,349.40347 C 105.3446,349.4691 104.91041,349.6719 104.46145,349.59653 C 104.19969,349.67755 103.92641,349.71439 103.65949,349.77667 z "
            id="Vila_do_Bispo" />
        <path style="fill:#ffefd5;fill-rule:evenodd;stroke:#b22222;stroke-width:0.25400001;stroke-opacity:1"
            d="M 183.79849,348.0647 C 184.58515,348.14488 185.38003,348.19784 186.16157,348.29497 C 186.57361,348.51133 186.98713,348.75058 187.39816,348.9537 C 187.50164,348.86303 187.32038,348.73825 187.29859,348.64393 C 187.05844,348.20637 186.77978,347.78614 186.56383,347.33768 C 186.45461,347.01134 186.34538,346.68501 186.23616,346.35867 C 186.04915,346.44939 185.88033,346.61078 185.65649,346.55834 C 185.58234,346.11616 184.79701,345.77084 184.87077,346.42544 C 185.0256,346.90683 184.59906,347.07551 184.22011,347.07077 C 184.00894,347.19278 183.69102,347.3689 183.62849,347.01101 C 183.32683,347.04495 183.46852,347.43546 183.23016,347.55401 C 183.35082,347.7867 183.60667,347.89803 183.79849,348.0647 z M 181.23816,348.3327 C 181.1099,347.93724 180.93848,347.56956 180.64434,347.27411 C 180.47262,346.88536 179.97252,346.82146 180.00939,346.32617 C 179.92381,345.85475 179.66047,345.40677 179.72312,344.93402 C 179.65505,344.49948 179.71065,344.00322 179.81457,343.56908 C 179.86403,343.18566 180.04604,342.58995 179.56901,342.43102 C 179.21365,342.49362 178.78588,342.49406 178.5837,342.13544 C 178.15466,341.80826 178.11311,342.70265 177.81766,342.79263 C 177.87654,343.28819 178.18077,343.76243 177.94949,344.25635 C 177.74908,344.68389 177.89788,345.13242 177.79912,345.5829 C 177.66333,346.06784 177.88428,346.56816 177.83383,347.06398 C 177.90751,347.63336 177.40815,348.13792 177.70307,348.71056 C 177.88103,349.13633 177.81702,349.53286 177.81583,349.96236 C 177.79998,350.13211 177.74787,350.34979 177.75282,350.49203 C 178.87594,349.94292 179.99905,349.39381 181.12216,348.8447 C 181.16083,348.67403 181.19949,348.50337 181.23816,348.3327 z "
            id="Vila_Real_de_Santo_António" />
    </g>
    <!-- EO MUNICIPIOS -->
</svg>