<?xml version="1.0" encoding="UTF-8" standalone="no"?>
<!-- Creator: CorelDRAW -->
<svg xmlns:dc="http://purl.org/dc/elements/1.1/" xmlns:cc="http://web.resource.org/cc/"
    xmlns:rdf="http://www.w3.org/1999/02/22-rdf-syntax-ns#" xmlns:svg="http://www.w3.org/2000/svg"
    xmlns="http://www.w3.org/2000/svg" xmlns:sodipodi="http://inkscape.sourceforge.net/DTD/sodipodi-0.dtd"
    xmlns:inkscape="http://www.inkscape.org/namespaces/inkscape" xml:space="preserve" width="250" height="366"
    style="shape-rendering:geometricPrecision; text-rendering:geometricPrecision; image-rendering:optimizeQuality; fill-rule:evenodd; clip-rule:evenodd"
    viewBox="0 0 200 200" id="svg1627" sodipodi:version="0.32" inkscape:version="0.43"
    sodipodi:docname="Mapa_de_Portugal.svg" sodipodi:docbase="C:\Documents and Settings\Márcio Silva\Os meus documentos"
    version="1.0">
    <metadata id="metadata1927">
        <rdf:RDF>
            <cc:Work rdf:about="">
                <dc:format>image/svg+xml</dc:format>
                <dc:type rdf:resource="http://purl.org/dc/dcmitype/StillImage" />
                <dc:title>Munícipios de Portugal</dc:title>
                <cc:license rdf:resource="http://creativecommons.org/licenses/GPL/2.0/" />
                <dc:creator>
                    <cc:Agent>
                        <dc:title>Rei-artur (rei.artur@gmail.com)</dc:title>
                    </cc:Agent>
                </dc:creator>
            </cc:Work>
            <cc:License rdf:about="http://creativecommons.org/licenses/GPL/2.0/">
                <cc:permits rdf:resource="http://web.resource.org/cc/Reproduction" />
                <cc:permits rdf:resource="http://web.resource.org/cc/Distribution" />
                <cc:requires rdf:resource="http://web.resource.org/cc/Notice" />
                <cc:permits rdf:resource="http://web.resource.org/cc/DerivativeWorks" />
                <cc:requires rdf:resource="http://web.resource.org/cc/ShareAlike" />
                <cc:requires rdf:resource="http://web.resource.org/cc/SourceCode" />
            </cc:License>
        </rdf:RDF>
    </metadata>

    <sodipodi:namedview inkscape:window-height="582" inkscape:window-width="866" inkscape:pageshadow="2"
        inkscape:pageopacity="0.0" borderopacity="1.0" bordercolor="#666666" pagecolor="#ffffff" id="base"
        fill="#ffff00" inkscape:zoom="1.1338798" inkscape:cx="125" inkscape:cy="211.12313" inkscape:window-x="28"
        inkscape:window-y="117" inkscape:current-layer="layer7" showguides="true" inkscape:guide-bbox="true">
        <sodipodi:guide orientation="horizontal" position="329.9602" id="guide2648" />
        <sodipodi:guide orientation="horizontal" position="307.74672" id="guide2650" />
    </sodipodi:namedview>

    <defs id="defs1629">
        <metadata id="CorelCorpID_0Corel-Layer" />
        <sodipodi:namedview inkscape:guide-bbox="true" showguides="true" inkscape:current-layer="layer1"
            inkscape:window-y="-4" inkscape:window-x="-4" inkscape:cy="327.60442" inkscape:cx="146.08303"
            inkscape:zoom="17.548964" fill="#fa8072" id="namedview5974" pagecolor="#ffffff" bordercolor="#666666"
            borderopacity="1.0" inkscape:pageopacity="0.0" inkscape:pageshadow="2" inkscape:window-width="1024"
            inkscape:window-height="712" />
    </defs>

    <!-- <g inkscape:groupmode="layer" id="layer3" inkscape:label="fundo" style="display:inline" sodipodi:insensitive="true">
        <rect style="fill:#4169e1;fill-opacity:1;fill-rule:evenodd;stroke:none;display:inline" id="rect2247" width="200" height="200" />
    </g> -->

    <g inkscape:groupmode="layer" id="layer10" inkscape:label="----detalhes----" style="display:inline" />

    <!-- MUNICIPIOS -->
    <g inkscape:groupmode="layer" id="layer4" inkscape:label="Municipios" style="display:inline"
        sodipodi:insensitive="true" transform="translate(-375,-160) scale(2.5)">
        <path style="fill:#ffefd5;fill-rule:evenodd;stroke:#b22222;stroke-width:0.25400001;stroke-opacity:1"
            d="M 174.77449,103.17469 C 174.74671,102.5937 175.62285,102.49362 175.85898,101.98358 C 176.31942,101.57262 176.07938,100.99237 175.682,100.60888 C 175.23016,100.12856 174.606,99.854085 173.96014,99.79657 C 173.75059,99.603105 173.54938,99.34652 173.21715,99.245352 C 173.36931,98.735495 173.53564,98.207964 174.02478,97.903649 C 174.39125,97.319211 174.65434,96.644242 174.91932,96.008352 C 175.19,95.563093 174.99245,94.939326 175.19016,94.432254 C 175.52067,94.024342 175.77946,93.601516 176.23034,93.29265 C 176.29007,92.800028 176.57222,92.762869 176.90999,93.077183 C 177.39529,93.379413 177.9446,93.347537 178.48788,93.335688 C 178.94587,93.672858 179.41175,93.992999 179.89882,94.302016 C 179.95071,94.832597 180.73199,94.958983 180.56882,95.587682 C 181.01665,95.952202 181.55273,96.007639 181.78942,96.570203 C 182.38664,96.90695 182.27013,97.710786 181.54682,97.749683 C 181.34402,98.317514 182.05582,98.894362 182.5298,99.064518 C 183.05747,99.319907 183.60265,99.656724 183.89623,100.18074 C 183.98013,100.79782 183.41038,101.23795 182.93537,101.53999 C 182.60946,101.99782 182.00703,101.82604 181.63741,101.8155 C 181.56676,102.49865 180.81278,102.68787 180.60515,103.24736 C 180.99331,103.57181 181.40809,104.07926 180.82678,104.43558 C 180.53175,104.77791 180.22087,105.17648 179.78557,104.80765 C 179.17067,104.7088 178.55689,104.7916 178.19681,105.34769 C 177.70124,105.44652 177.07792,104.76252 176.48381,105.13035 C 175.91337,104.99884 176.00756,104.24356 175.38943,104.19823 C 175.09411,103.91396 175.11534,103.42729 174.77449,103.17469 z "
            id="Aguiar_da_Beira" />
        <path style="fill:#ffefd5;fill-rule:evenodd;stroke:#b22222;stroke-width:0.25400001;stroke-opacity:1"
            d="M 208.11049,101.21969 C 209.0018,101.05507 208.97423,100.13172 209.43359,99.61568 C 210.07916,98.731627 210.35162,100.74674 210.90996,99.739498 C 211.6425,99.488949 212.39099,99.144638 213.16886,99.001351 C 213.82716,98.85904 214.5343,98.488052 215.23441,98.806278 C 215.42759,98.975516 215.1136,99.384516 215.16297,99.659366 C 215.18987,100.38415 215.14192,101.13174 215.21506,101.84244 C 215.50807,102.30641 215.83558,102.75578 216.10916,103.22802 C 216.12217,103.88326 216.1825,104.5325 216.39696,105.15586 C 216.56695,105.84224 216.78251,106.52619 216.92616,107.21402 C 216.49422,108.3467 216.13984,109.5135 215.67319,110.63074 C 215.4292,111.13948 215.09387,111.61812 214.90573,112.14526 C 214.82609,112.68229 214.74646,113.21932 214.66682,113.75635 C 215.3319,114.0721 216.02871,114.35081 216.67549,114.68801 C 216.86444,115.66462 217.11733,116.6404 217.28082,117.61568 C 216.90778,117.81516 216.51456,117.98747 216.13416,118.17701 C 216.05691,118.57788 216.04365,119.00612 215.93317,119.39302 C 215.72631,119.57416 215.58333,120.08809 215.333,120.04276 C 214.71677,119.73737 214.27844,119.13457 213.59747,118.98605 C 213.0831,118.8613 212.49171,118.95853 212.18483,118.53035 C 211.7086,119.18792 210.19472,118.83788 210.3495,117.97935 C 210.11979,117.50702 209.48461,117.31751 209.03383,117.08168 C 209.26833,118.37707 207.42866,117.56642 207.38529,118.7321 C 206.95171,119.08783 206.64812,119.6282 206.11883,119.83402 C 205.10686,119.27442 205.26443,118.05315 204.92461,117.15055 C 204.79549,116.1586 203.43608,116.13251 203.53481,114.99625 C 204.02974,114.39974 204.68969,113.53939 204.27821,112.62138 C 204.18551,112.10925 204.74622,111.79899 204.55554,111.23488 C 204.55979,110.36373 204.76656,109.44596 205.27032,108.84896 C 205.02735,107.91549 206.00705,107.23833 205.90149,106.41109 C 205.59122,105.61224 206.14433,104.77049 205.72519,104.00396 C 205.92799,103.31021 207.05805,103.22012 207.43046,102.48332 C 207.8338,102.13777 209.00348,101.92503 208.2162,101.34699 L 208.1105,101.21968 L 208.11049,101.21969 z "
            id="Almeida" />
        <path style="fill:#ffefd5;fill-rule:evenodd;stroke:#b22222;stroke-width:0.25400001;stroke-opacity:1"
            d="M 183.21249,116.86468 C 183.53035,116.46314 183.85581,115.71722 184.43802,115.82701 C 185.15741,115.88375 185.92826,115.94964 186.61984,115.86456 C 186.89694,115.28546 187.38987,114.84864 187.60145,114.2179 C 188.02017,113.82361 188.70752,113.66486 188.68378,112.95218 C 188.97773,112.33588 188.93481,111.63203 189.2735,111.0283 C 189.67317,110.43635 190.00917,109.80564 190.36515,109.18703 C 190.55137,108.48001 191.95213,109.54954 191.82094,108.46652 C 191.92428,107.96395 192.33571,107.56378 192.12294,106.9939 C 192.25187,106.55926 192.06873,105.81833 192.59238,105.63866 C 193.0333,105.45589 193.47422,105.27313 193.91515,105.09036 C 193.48637,104.89936 193.05759,104.70835 192.62881,104.51735 C 192.6494,104.9346 192.53672,105.05089 192.21258,104.74027 C 191.83851,104.66507 190.88592,105.4843 191.2371,104.61414 C 191.38625,103.92826 190.19209,104.19883 189.78582,104.35236 C 189.17903,104.59534 188.42646,104.24059 187.74247,104.39527 C 187.1391,104.38136 186.51678,104.58425 185.9662,104.74085 C 185.56053,104.93341 185.21994,104.18621 184.8809,104.66019 C 184.52799,105.11673 183.88032,105.5282 183.82352,106.20401 C 183.3701,106.78844 183.60039,107.54323 183.17954,108.15334 C 182.55853,108.67759 182.35351,109.74474 181.46595,109.79093 C 180.61139,110.16166 181.4014,111.08535 181.15548,111.75837 C 180.62006,111.84868 179.81675,111.26433 179.67609,112.1451 C 179.80647,112.77718 179.93442,113.38308 179.79982,114.03549 C 179.64821,114.37735 179.20751,114.97109 179.93031,114.88502 C 180.43904,115.03123 181.60439,114.69387 181.23291,115.59704 C 181.31736,116.1225 181.28119,116.64721 181.91902,116.723 C 182.32459,117.01606 182.75515,116.85734 183.21249,116.86468 z "
            id="Celorico_da_Beira" />
        <path style="fill:#ffefd5;fill-rule:evenodd;stroke:#b22222;stroke-width:0.25400001;stroke-opacity:1"
            d="M 206.77049,82.079987 C 207.25137,81.110751 208.19119,82.009381 208.94699,82.011067 C 209.17358,82.142552 210.24352,81.770013 209.96716,82.172262 C 209.87387,82.430674 209.34618,82.706532 209.65504,82.948792 C 210.91313,84.421962 212.18785,85.885741 213.43182,87.367989 C 213.63419,88.09858 213.8884,88.821993 214.06783,89.554985 C 214.0761,89.863442 213.97659,90.207946 214.04789,90.495327 C 214.46655,90.951376 214.83729,91.493372 215.28576,91.89594 C 215.57973,91.96203 215.91813,91.955312 216.19215,92.054993 C 216.30652,92.872552 216.47705,93.6984 216.5535,94.512665 C 216.14384,94.638324 215.72115,94.738704 215.30682,94.855324 C 215.43447,95.614186 215.61237,96.373939 215.71049,97.132324 C 215.58183,97.700882 215.45316,98.26944 215.32449,98.837997 C 214.74841,98.606015 214.03737,98.618244 213.52449,98.974327 C 212.6678,98.988215 211.94835,99.414831 211.14427,99.637941 C 210.76126,99.89163 210.37006,100.31613 210.12476,99.59796 C 209.66177,99.046091 209.11411,100.00539 208.97073,100.42194 C 208.81273,101.4509 207.43733,101.27152 207.28401,100.32056 C 206.62808,99.982315 206.97036,98.859815 206.22274,98.766661 C 205.63978,98.901663 205.02232,98.769401 205.22299,98.037717 C 205.05026,97.503986 204.90422,97.076573 204.32817,97.05534 C 204.61809,96.331942 203.41394,96.823245 203.03961,96.530578 C 202.47993,96.851059 202.12751,95.853974 201.46865,96.020495 C 201.00013,95.56859 200.86892,95.028619 200.31808,94.666068 C 200.47496,93.949775 199.98115,93.509037 199.59551,93.049788 C 199.83513,92.312219 200.51177,91.77537 200.50549,90.988665 C 200.17526,90.228495 200.78242,89.723043 200.94501,89.084201 C 200.6541,88.504957 201.0948,87.832707 200.81146,87.264839 C 200.60975,86.625032 200.24809,85.599522 201.29816,85.762239 C 202.11711,85.659179 202.9566,86.619335 203.81766,86.039436 C 204.48035,85.409083 205.58205,85.884651 206.10207,85.05775 C 206.22272,84.163696 206.79942,83.19508 206.84832,82.444415 C 206.78531,82.297005 206.58094,82.215383 206.77049,82.079987 z "
            id="Figueira_de_Castelo_Rodrigo" />
        <path style="fill:#ffefd5;fill-rule:evenodd;stroke:#b22222;stroke-width:0.25400001;stroke-opacity:1"
            d="M 176.60349,108.62569 C 176.80253,108.17389 177.7984,108.05306 177.59949,107.52423 C 176.90634,107.22561 177.00498,106.54336 177.35215,106.00166 C 177.4255,105.78712 177.97173,105.80597 177.94349,105.42069 C 178.48046,105.19559 178.80534,104.60105 179.49574,104.78349 C 180.00512,104.87582 180.40612,105.13053 180.72561,104.54355 C 181.15686,104.24725 181.31081,103.73086 180.76163,103.43504 C 180.29432,102.81014 181.59883,102.64694 181.5669,101.96696 C 181.73145,101.51128 182.28952,102.12152 182.65116,101.78136 C 183.02708,101.48633 183.50483,101.08683 183.81564,100.86211 C 184.20934,101.0637 183.69058,101.52171 183.63931,101.84456 C 183.40931,102.28533 183.23307,102.82833 182.6695,102.99436 C 182.54124,103.37671 181.51432,103.64819 182.23678,104.02908 C 182.87936,104.26838 182.7637,105.21729 183.43154,105.30137 C 183.91512,105.15075 184.13296,105.75034 183.84075,106.08649 C 183.68582,106.61299 183.38081,106.99983 183.43303,107.58271 C 183.26212,108.27495 182.65306,108.73309 182.25283,109.29569 C 182.13421,109.95754 180.67173,109.66186 181.09724,110.59562 C 181.16361,110.98998 181.40996,112.00331 180.73108,111.7584 C 180.15488,111.31757 179.44969,111.92215 179.73374,112.55529 C 179.95768,113.09544 179.85717,113.69712 179.72831,114.25083 C 179.42479,115.14015 178.65512,114.32591 178.2875,113.93136 C 177.87847,114.09513 177.75661,113.71869 178.12457,113.54351 C 178.37428,113.02676 178.68932,112.38272 178.33421,111.86007 C 178.47195,111.54152 178.49937,111.10753 178.0992,111.46929 C 177.39443,111.85956 176.57595,112.22628 176.21371,112.99393 C 176.04738,113.44346 175.43169,113.86036 175.23567,113.23027 C 175.39429,112.66518 175.52922,112.10068 175.70868,111.52386 C 175.91834,111.03025 175.97005,110.46789 176.34984,110.07012 C 176.74012,109.67252 176.52074,109.10833 176.60349,108.6257 L 176.60349,108.62569 z "
            id="Fornos_de_Algodres" />
        <path style="fill:#ffefd5;fill-rule:evenodd;stroke:#b22222;stroke-width:0.25400001;stroke-opacity:1"
            d="M 182.34349,122.47769 C 181.74695,122.36751 181.06562,122.95844 180.49729,122.37182 C 179.7821,121.41029 179.35059,123.33014 178.45049,122.73136 C 178.34177,123.37274 177.87752,123.67519 177.29543,123.73042 C 176.67698,124.03285 175.60701,123.98652 175.32913,124.632 C 175.64436,125.21949 176.22261,125.94735 175.66183,126.58802 C 175.05122,126.26969 175.36301,125.47996 174.86415,125.00329 C 174.73988,124.49025 174.50641,123.68236 173.80383,124.05302 C 173.1452,123.7393 172.75569,123.10708 172.71016,122.33302 C 172.3651,121.46022 170.88975,121.99827 171.10638,120.7563 C 171.14741,120.06272 170.09784,120.02612 169.63851,119.66947 C 168.98738,119.3042 168.27814,119.69279 167.63096,119.40833 C 167.17061,119.49722 167.00372,119.35403 167.43179,119.00707 C 167.90793,118.40959 168.13383,117.6446 168.28795,116.90071 C 168.18377,116.22337 169.00029,115.8732 169.41703,115.46256 C 170.09169,115.35185 171.05069,115.47294 171.31123,114.67317 C 171.98559,114.60834 172.64246,114.17176 173.3312,114.11016 C 173.8151,114.38937 174.23155,114.0185 174.73816,114.32935 C 175.1551,113.70405 175.92119,113.77528 176.2137,112.99359 C 176.64295,112.10839 177.63243,111.75478 178.43216,111.28734 C 178.25268,111.9453 178.67297,112.45205 178.33707,113.1005 C 178.29644,113.4812 177.45344,114.0634 178.2875,113.93101 C 178.78777,114.50325 179.33892,114.73298 179.93033,114.88466 C 180.54417,114.98532 181.59854,114.74972 181.2422,115.70688 C 181.13271,116.57531 182.0192,116.94863 182.77721,116.87709 C 183.67195,116.67102 183.00807,117.97211 183.15103,118.46743 C 182.97308,119.25966 182.19343,120.02866 182.66002,120.86305 C 182.67758,121.48792 183.63395,121.23381 183.26023,121.90736 C 183.1592,122.38867 182.75027,122.46915 182.34349,122.47769 z "
            id="Gouveia" />
        <path style="fill:#ffefd5;fill-rule:evenodd;stroke:#b22222;stroke-width:0.25400001;stroke-opacity:1"
            d="M 183.21249,116.86468 C 183.69125,115.5441 184.95461,115.85061 186.06632,115.90811 C 187.25135,116.01292 187.10885,114.16286 188.14639,113.83091 C 189.04361,113.17667 188.72375,111.81654 189.32643,110.94528 C 190.03114,110.25687 190.06613,108.45035 191.37465,108.99657 C 192.01877,108.91826 191.84118,107.93753 192.17191,107.48158 C 192.10833,106.77 192.04055,105.32922 193.08896,105.92937 C 193.69962,106.276 194.59399,106.75563 194.83782,105.69236 C 194.99809,105.2757 195.66917,104.20407 195.55692,105.30842 C 195.76682,106.12669 195.15857,107.11234 196.32249,107.25703 C 196.51765,107.94134 196.07586,108.43777 196.50349,109.00603 C 196.8418,109.76861 195.74667,110.93419 196.67028,111.43432 C 197.68189,111.91251 197.8884,110.72341 197.71163,109.98937 C 197.79788,108.94831 198.75452,109.82732 199.20886,109.20874 C 199.85242,108.66788 200.23946,108.49892 200.8405,109.24307 C 200.5032,110.10551 200.02172,111.6037 201.40661,111.81721 C 201.94778,112.68304 202.78831,112.49787 203.35925,111.83854 C 204.34857,112.23425 204.73318,113.43893 204.04717,114.38656 C 203.51014,114.95683 202.29508,115.04391 202.2839,115.84812 C 203.34782,116.55989 202.89043,117.69959 202.82029,118.70329 C 203.31909,119.24982 204.21443,120.98106 202.96782,121.06569 C 202.43452,121.36839 201.78073,121.93583 201.70048,122.55036 C 200.67984,121.84005 201.06378,123.60058 200.18682,123.69136 C 199.43188,124.32591 198.52512,124.72767 197.75282,123.99903 C 196.76345,124.17055 198.33109,123.48128 197.35511,123.24582 C 196.87936,122.72822 195.78005,123.00291 195.48048,123.26119 C 195.38515,124.04834 194.60932,125.23282 193.79609,124.26819 C 193.1219,123.56537 192.24647,124.07793 192.17582,124.95869 C 191.47059,124.44166 190.72286,124.37164 190.20263,125.12896 C 189.63321,125.01892 189.45493,124.20066 188.99335,125.01467 C 188.3388,125.33073 188.13935,126.3064 188.24648,126.76969 C 187.80165,126.36131 187.22747,125.65439 186.67817,126.44924 C 185.82708,127.34082 184.6527,126.46206 183.73681,126.29741 C 182.93723,126.99582 182.48182,126.20521 182.04354,125.58978 C 181.97887,124.88347 182.58516,123.62879 182.32366,122.67098 C 182.5611,122.45121 183.79929,121.99257 183.16844,121.37257 C 182.07068,120.96009 182.6428,119.49439 183.06919,118.72085 C 183.27323,118.13225 183.16342,117.46342 183.21249,116.86468 z "
            id="Guarda" />
        <path style="fill:#ffefd5;fill-rule:evenodd;stroke:#b22222;stroke-width:0.25400001;stroke-opacity:1"
            d="M 174.19449,131.04269 C 174.19017,130.32326 174.96773,129.95201 175.06471,129.26824 C 175.17863,128.85532 175.15979,128.41758 175.23423,128.00684 C 175.17908,127.53345 175.49237,127.14968 175.64482,126.72616 C 175.73256,126.39341 176.03711,125.98988 175.84216,125.61036 C 175.80205,125.1848 175.23447,124.93461 175.35514,124.47891 C 175.54942,124.22571 176.10066,124.21252 176.39589,123.9401 C 176.8981,124.01234 177.2748,123.62705 177.75563,123.63782 C 177.97852,123.45903 178.35807,123.43277 178.30315,123.02617 C 178.41148,122.37197 179.17228,123.12985 179.43098,122.57532 C 179.63136,122.20407 180.12348,121.80222 180.42023,122.31015 C 180.80042,122.63098 181.45481,122.82726 181.8705,122.45942 C 182.25309,122.24015 182.44298,122.58298 182.28797,122.91665 C 182.44376,123.33421 182.31763,123.79201 182.30548,124.23616 C 182.31216,124.67341 181.98413,124.98937 181.93104,125.39709 C 181.8314,125.74777 181.18373,125.66648 180.89219,125.94365 C 180.41059,126.09758 180.37693,126.61761 179.99714,126.87882 C 179.62864,127.21234 179.57947,127.70604 179.3007,128.09898 C 179.33353,128.52096 179.30199,128.96082 179.2055,129.40082 C 179.12958,129.92391 178.59962,130.26481 178.44982,130.77102 C 178.5485,131.34349 177.90405,131.37079 177.49698,131.2042 C 177.08084,131.16264 176.53713,130.92647 176.21584,131.3001 C 176.08596,131.54743 175.86823,132.0465 175.69687,131.5301 C 175.62831,131.02136 175.08783,130.91015 174.66944,131.02264 C 174.51486,131.05555 174.35673,131.06728 174.19449,131.04269 z "
            id="Manteigas" />
        <path style="fill:#ffefd5;fill-rule:evenodd;stroke:#b22222;stroke-width:0.25400001;stroke-opacity:1"
            d="M 196.64848,82.097984 C 196.84054,82.543774 197.52151,83.136451 197.08316,83.564651 C 196.49273,83.154769 195.98832,83.616466 196.17749,84.306984 C 196.53286,84.643385 196.14592,85.121563 196.70632,85.370944 C 197.56736,85.690149 197.01205,86.491188 196.8504,87.073196 C 196.82161,87.617405 196.6926,88.107036 196.14149,88.326984 C 196.77511,88.607943 197.58274,88.436478 198.17594,88.925246 C 198.84706,89.144771 199.15588,90.100306 198.32742,90.348497 C 197.7908,90.636996 197.5988,91.178019 197.27693,91.628545 C 196.92732,92.087814 196.68657,92.591609 196.70283,93.179645 C 196.14998,93.480217 197.09439,93.893897 196.42525,94.041686 C 196.21776,94.573205 195.537,95.017801 195.96606,95.569846 C 195.40057,95.479036 196.01645,96.264595 195.38083,96.203645 C 194.83525,96.115135 194.57765,95.540012 193.99383,95.606312 C 193.29352,94.940645 192.43446,94.469104 191.74116,93.795312 C 191.20263,93.445237 190.51285,93.260044 190.05471,92.795877 C 189.67161,92.148569 189.15529,93.751765 188.46135,93.297309 C 187.48814,93.072222 188.19342,92.152953 188.28234,91.55752 C 188.40673,91.307815 188.04654,91.066639 188.29016,90.825644 C 187.74942,90.392854 187.04596,90.878012 186.4797,90.511645 C 185.96123,89.966524 187.24339,89.705799 187.17816,89.051314 C 187.70845,88.776001 188.78645,88.618324 188.38451,87.777592 C 188.22525,87.07024 189.18152,86.249096 188.44825,85.725852 C 188.03163,85.101122 187.1868,85.559919 186.79782,84.868317 C 186.74787,84.271615 185.65753,84.816029 186.17374,84.094006 C 186.16662,83.658868 185.77864,82.989087 186.55299,83.093878 C 187.19293,83.226185 188.09184,83.46505 188.40165,82.77443 C 188.99407,82.541779 189.55239,83.379582 190.18242,83.007906 C 190.85155,83.155243 191.43392,82.79228 192.0793,82.73947 C 192.72703,82.637237 192.93728,83.982775 193.45537,83.134889 C 193.52017,82.91911 193.20113,82.493776 193.69683,82.731649 C 193.76257,82.437744 193.4143,82.073563 193.90964,81.852363 C 194.48426,81.551738 195.21448,81.34936 195.7702,81.808274 C 196.10419,81.739077 196.50126,81.704445 196.64848,82.097984 z "
            id="Meda" />
        <path style="fill:#ffefd5;fill-rule:evenodd;stroke:#b22222;stroke-width:0.25400001;stroke-opacity:1"
            d="M 200.57748,85.954681 C 200.13217,86.766891 199.35302,87.183291 198.97818,87.972907 C 198.8194,88.97976 199.12293,90.107505 198.03963,90.579569 C 197.24375,91.377574 196.81607,92.459366 196.48516,93.487673 C 197.0983,94.153013 195.24157,94.7602 195.9654,95.56965 C 195.47367,95.564449 195.85212,96.235496 195.38782,96.33034 C 195.79931,96.66171 195.31151,97.061271 195.32616,97.496674 C 194.78916,97.325159 195.13721,97.971804 194.63816,97.779007 C 194.38674,98.612434 194.30002,100.02734 195.50107,99.899099 C 196.77706,100.19559 196.14599,101.7928 195.61524,102.52826 C 194.97081,103.43738 194.77905,101.46962 193.91482,102.00279 C 192.76425,101.65319 194.05716,103.30313 193.0414,103.46985 C 192.70537,104.16433 192.39155,105.29771 192.57768,105.81414 C 193.41797,105.8558 194.4616,107.05241 194.83716,105.692 C 194.98821,105.26916 195.67389,104.20742 195.5566,105.30786 C 195.76665,106.12598 195.15797,107.11218 196.32216,107.25635 C 196.51729,107.9409 196.07564,108.43731 196.50316,109.00569 C 196.84119,109.76827 195.74623,110.93405 196.66991,111.43398 C 197.48471,111.76876 197.7749,111.18679 197.79778,110.42306 C 197.45726,109.72148 198.11828,109.12175 198.77395,109.51056 C 199.47484,109.08762 200.08704,108.21405 200.72895,109.14244 C 200.88368,109.83506 199.76317,111.54171 201.26055,111.69618 C 201.8425,112.55308 202.72941,112.63318 203.35869,111.8382 C 203.8971,112.70749 204.77179,112.16294 204.5552,111.23489 C 204.54683,110.36126 204.77966,109.44987 205.2697,108.84878 C 205.08267,107.68926 206.31492,106.90746 205.8465,105.78269 C 205.83124,105.09305 205.92512,104.36922 205.75841,103.77482 C 206.73162,103.27223 207.3677,102.40326 208.36642,101.93432 C 208.77593,101.36574 207.35524,100.99146 207.28369,100.32058 C 206.59188,99.82935 206.92023,98.412127 205.75715,98.771084 C 204.79474,98.92356 205.48228,97.336554 204.6515,97.091021 C 204.0657,97.266778 204.66406,96.373815 203.90916,96.656354 C 203.20105,96.459332 202.57628,96.813196 202.08016,96.113021 C 201.06157,96.247439 201.04514,95.032558 200.31775,94.666094 C 200.68176,93.616408 198.94793,93.230905 199.96693,92.29311 C 200.88247,91.573399 200.06189,90.359181 200.75346,89.60765 C 201.07002,89.027845 200.71491,88.392004 200.9575,87.711359 C 200.74344,87.215797 200.56843,86.548548 200.57748,85.954681 z "
            id="Pinhel" />
        <path style="fill:#ffefd5;fill-rule:evenodd;stroke:#b22222;stroke-width:0.25400001;stroke-opacity:1"
            d="M 190.81749,134.30168 C 190.29093,133.81155 188.83853,133.53518 189.24216,132.58135 C 190.5806,132.40846 191.1052,131.01014 191.68501,130.02479 C 191.25195,129.03115 191.86321,127.97762 192.10312,126.97185 C 192.49563,126.01112 191.69435,123.904 193.21729,123.97094 C 193.81054,124.47853 195.22548,125.12576 195.2357,123.76398 C 195.37695,122.6669 197.33564,122.70111 197.69058,123.67665 C 196.83469,124.11064 198.64044,124.34113 199.01657,124.41727 C 199.9356,123.88171 200.90077,123.41497 201.1039,122.41277 C 201.50229,122.34001 202.03213,122.80119 201.84483,121.97034 C 202.52274,121.09304 204.18228,121.11782 203.42016,119.67848 C 202.6409,118.90282 202.80235,117.91948 203.07616,116.91836 C 202.6051,116.18195 201.85586,115.68817 202.78299,115.04387 C 203.94619,114.21626 203.44477,116.46162 204.66983,116.47303 C 205.32347,117.53952 204.90027,119.09894 206.11849,119.83369 C 207.26212,119.51892 207.29152,117.80955 208.61467,117.90805 C 209.15635,117.6774 208.92808,116.60148 209.69623,117.44025 C 210.58076,117.69974 210.20871,118.91842 211.35149,118.85603 C 211.89028,118.95376 212.25578,118.25323 212.64969,118.84055 C 213.70393,118.78255 214.46116,119.45902 215.27686,120.00728 C 215.55925,120.25886 214.85849,120.69922 214.74314,121.02718 C 214.28544,121.4007 214.58441,121.97754 214.58288,122.47363 C 214.63907,123.0839 214.64979,123.70772 215.02745,124.22224 C 215.45574,125.06492 216.23804,125.66406 216.82105,126.4003 C 217.16374,126.91206 217.68958,127.18974 218.22314,127.45769 C 218.20651,127.72304 217.78805,127.82581 217.65564,128.04225 C 217.29636,128.31781 217.67014,128.86715 217.6264,129.26055 C 217.75632,129.61182 217.44784,129.90549 217.33749,130.21204 C 216.71813,130.31098 216.13791,130.50673 215.64755,130.90915 C 215.0313,131.307 214.41506,131.70484 213.79881,132.10269 C 213.68376,133.00521 213.64322,133.94884 213.4865,134.82869 C 212.02645,134.96452 210.57923,135.20298 209.12749,135.40501 C 209.04553,134.34335 207.66919,134.48033 207.10138,133.76864 C 206.5043,133.61128 205.23432,132.18641 205.55716,133.52302 C 204.40063,133.56846 203.34078,133.81716 202.23436,133.78602 C 201.71667,133.47663 201.63795,133.25426 201.93701,132.80386 C 201.05957,132.35755 201.50495,130.20306 200.19276,130.81497 C 199.33784,131.85963 199.90612,133.40279 198.57167,134.02687 C 197.59235,135.10808 196.74863,133.29211 195.75907,133.36273 C 194.46585,132.95518 194.624,135.98572 193.30182,134.89202 C 192.82374,134.35569 192.07397,135.03026 191.58216,134.34015 C 191.33239,134.27634 191.07177,134.3087 190.81749,134.30168 z "
            id="Sabugal" />
        <path style="fill:#ffefd5;fill-rule:evenodd;stroke:#b22222;stroke-width:0.25400001;stroke-opacity:1"
            d="M 162.73248,119.00069 C 163.20309,118.8312 162.62817,118.10265 163.44465,118.2172 C 164.33884,118.35619 165.19052,118.53237 165.75755,117.64444 C 166.29001,117.35921 166.56631,116.69033 167.28919,116.76822 C 167.71087,116.54749 168.65019,116.14996 168.26592,117.02193 C 168.16828,117.92637 167.53147,118.80793 167.18683,119.45336 C 167.98082,119.50273 168.78801,119.40241 169.56708,119.66481 C 170.14967,120.01228 171.34247,120.10719 171.12093,121.02098 C 171.10674,122.10131 172.77364,121.43964 172.7301,122.57976 C 172.87604,123.35708 173.43346,124.13531 174.23024,123.97994 C 174.9187,124.28769 174.8851,125.36889 175.29198,125.94557 C 175.21333,126.48123 176.01107,126.6913 175.40117,127.24271 C 175.01416,128.13464 175.38959,129.28831 174.65124,130.05532 C 173.87361,130.76447 174.41619,132.02443 173.64666,132.66245 C 173.09487,133.2856 172.49701,133.8945 171.89889,134.46339 C 171.23176,134.52872 170.39711,134.53547 169.7482,134.97718 C 168.91021,135.07316 168.60893,136.04415 168.02856,136.56919 C 167.71732,137.29314 166.58135,137.13269 165.97349,136.87302 C 165.59901,137.21253 165.01646,137.61156 164.94959,136.82922 C 164.56178,136.07315 163.92477,135.59404 163.09449,135.49669 C 162.8119,135.01904 162.99785,134.86018 163.22643,134.54136 C 163.3849,133.65697 163.8751,132.57419 164.39632,131.99294 C 164.96692,131.7323 165.34679,131.33563 166.0251,131.4986 C 166.15703,131.08798 166.75679,130.12364 165.89963,130.05973 C 165.67047,129.66981 165.17387,130.29934 165.07549,129.68401 C 164.40008,129.50324 163.53475,128.91275 164.38016,128.27168 C 164.48502,127.40312 164.15028,126.55375 164.2535,125.64636 C 164.03081,124.71699 162.61699,126.0423 162.13976,125.18054 C 161.14076,124.48428 161.66166,123.27279 162.71833,122.97087 C 163.22797,122.70945 163.83999,123.27111 163.95031,122.39486 C 164.78971,121.27608 162.94155,120.89245 162.74927,119.98499 C 162.70029,119.65894 162.72151,119.32856 162.73248,119.00069 z "
            id="Seia" />
        <path style="fill:#ffefd5;fill-rule:evenodd;stroke:#b22222;stroke-width:0.25400001;stroke-opacity:1"
            d="M 195.38049,96.203682 C 195.55238,96.409147 195.73837,96.82824 195.32616,97.007685 C 195.81471,97.616034 194.72279,97.293691 194.98216,97.815352 C 194.14736,97.663225 194.61302,99.195892 194.58269,99.617401 C 195.09713,100.03372 196.18871,99.688178 196.20888,100.61789 C 196.36462,101.22337 195.99139,101.91742 195.67044,102.45751 C 195.29281,103.27535 194.82288,102.33114 194.52949,101.98001 C 194.08818,102.12549 193.19215,101.63276 193.38354,102.43592 C 193.85766,103.17998 192.80684,103.42539 192.76316,104.14063 C 192.53222,104.47985 192.73907,105.27888 192.21225,104.73993 C 191.78064,104.73348 190.82462,105.45652 191.2709,104.51603 C 191.1262,103.89688 190.02588,104.25451 189.5801,104.42174 C 188.87293,104.41319 188.10242,104.34906 187.36549,104.39544 C 186.68641,104.41756 186.00164,104.9871 185.40676,104.59881 C 184.64978,104.09066 184.39537,106.13222 183.66223,105.28256 C 182.85078,105.49943 182.93778,104.37557 182.31865,104.09598 C 181.46124,103.61708 182.76514,103.05051 183.161,102.70888 C 183.43724,102.1127 184.1957,101.25294 183.79539,100.73503 C 184.19336,100.06774 183.38868,99.573559 182.89948,99.255178 C 182.29858,99.015825 181.34629,98.510157 181.54648,97.750019 C 182.32316,97.781221 181.99625,96.830626 182.65081,96.819351 C 182.91066,96.200651 183.59061,95.713727 183.63644,94.976017 C 184.12088,94.497218 184.40488,93.783356 184.59151,93.11164 C 185.13935,92.35474 184.13344,92.020926 183.7392,91.510695 C 182.87823,91.163348 183.69455,90.192148 183.93648,89.648683 C 184.72454,89.635494 185.44549,89.799196 186.15832,90.140902 C 186.44493,90.721499 187.21235,90.691806 187.83243,90.630902 C 188.12607,90.809525 188.40929,90.80015 188.19192,91.14456 C 188.7025,91.752033 187.39223,92.659171 188.19806,93.18174 C 188.94115,93.818382 189.47997,92.547343 190.02082,92.654685 C 190.35405,93.303703 191.26318,93.410289 191.80583,93.857593 C 192.48771,94.498799 193.3148,94.961333 193.99348,95.606351 C 194.62672,95.553288 194.79383,96.102175 195.38049,96.203682 z "
            id="Trancoso" />
        <path style="fill:#ffefd5;fill-rule:evenodd;stroke:#b22222;stroke-width:0.25400001;stroke-opacity:1"
            d="M 189.85748,74.293686 C 190.78445,74.815167 191.61863,73.93908 192.49128,73.884894 C 193.4664,74.368714 194.62993,74.314135 195.56187,74.92324 C 196.27864,75.188995 197.6119,75.150651 197.45174,74.06069 C 197.50437,73.085689 198.63798,72.986377 198.94749,72.229349 C 198.82316,71.587973 199.80546,71.220124 199.61614,72.100971 C 199.71203,72.820495 199.85698,73.593743 199.0255,73.90329 C 198.8062,75.171208 200.32451,73.852604 200.85161,74.574952 C 202.01098,75.129418 200.55913,76.0079 200.44233,76.751015 C 200.65045,77.523141 200.11966,78.54636 201.26126,78.719299 C 201.97314,78.987554 202.69954,79.410085 203.15963,80.026236 C 203.23914,80.895084 204.25088,81.604909 205.0526,81.143771 C 205.61179,81.28116 206.1233,81.626776 206.70123,81.7752 C 207.28837,81.837781 206.27869,82.285329 206.92061,82.579238 C 206.553,83.301155 206.31727,84.296926 206.05431,85.139905 C 205.4071,85.850792 204.35722,85.475044 203.63869,86.121867 C 202.76706,86.57063 201.99993,85.522531 201.17563,85.790579 C 200.37375,85.726228 200.1984,86.706936 199.63016,87.137383 C 198.74942,87.434915 199.23584,88.865579 198.63691,89.262258 C 197.97683,88.547655 196.96828,88.569902 196.14082,88.327007 C 197.06024,87.967393 196.70395,86.834527 197.1702,86.134631 C 197.33318,85.41427 196.02476,85.236819 196.29823,84.457456 C 195.83586,83.818736 196.45614,83.086541 197.08249,83.564674 C 197.47795,83.024608 196.70985,82.16194 196.27248,81.768883 C 195.50946,81.882623 194.87524,81.200419 194.11726,81.74887 C 193.59728,81.854549 193.59921,82.395447 193.69615,82.731674 C 193.07569,82.455397 193.7688,83.410229 193.06249,83.474008 C 192.63831,82.645906 191.6851,82.628832 190.90681,83.016136 C 190.09374,83.072826 189.32978,83.134966 188.62978,82.69009 C 188.19559,83.026385 188.12612,82.23889 188.06482,82.061676 C 187.93414,81.579666 187.55788,80.956831 188.14969,80.546108 C 187.51745,79.755603 188.57183,79.042276 188.41375,78.198618 C 188.54653,77.364492 188.78738,76.527664 189.16948,75.796676 C 189.25542,75.218895 189.72681,74.841188 189.85748,74.293686 z "
            id="Vila_Nova_de_Foz_Côa" />
    </g>
    <!-- EO MUNICIPIOS -->
</svg>