<?xml version="1.0" encoding="UTF-8" standalone="no"?>
<!-- Creator: CorelDRAW -->
<svg xmlns:dc="http://purl.org/dc/elements/1.1/" xmlns:cc="http://web.resource.org/cc/"
    xmlns:rdf="http://www.w3.org/1999/02/22-rdf-syntax-ns#" xmlns:svg="http://www.w3.org/2000/svg"
    xmlns="http://www.w3.org/2000/svg" xmlns:sodipodi="http://inkscape.sourceforge.net/DTD/sodipodi-0.dtd"
    xmlns:inkscape="http://www.inkscape.org/namespaces/inkscape" xml:space="preserve" width="250" height="366"
    style="shape-rendering:geometricPrecision; text-rendering:geometricPrecision; image-rendering:optimizeQuality; fill-rule:evenodd; clip-rule:evenodd"
    viewBox="0 0 200 200" id="svg1627" sodipodi:version="0.32" inkscape:version="0.43"
    sodipodi:docname="Mapa_de_Portugal.svg" sodipodi:docbase="C:\Documents and Settings\Márcio Silva\Os meus documentos"
    version="1.0">
    <metadata id="metadata1927">
        <rdf:RDF>
            <cc:Work rdf:about="">
                <dc:format>image/svg+xml</dc:format>
                <dc:type rdf:resource="http://purl.org/dc/dcmitype/StillImage" />
                <dc:title>Munícipios de Portugal</dc:title>
                <cc:license rdf:resource="http://creativecommons.org/licenses/GPL/2.0/" />
                <dc:creator>
                    <cc:Agent>
                        <dc:title>Rei-artur (rei.artur@gmail.com)</dc:title>
                    </cc:Agent>
                </dc:creator>
            </cc:Work>
            <cc:License rdf:about="http://creativecommons.org/licenses/GPL/2.0/">
                <cc:permits rdf:resource="http://web.resource.org/cc/Reproduction" />
                <cc:permits rdf:resource="http://web.resource.org/cc/Distribution" />
                <cc:requires rdf:resource="http://web.resource.org/cc/Notice" />
                <cc:permits rdf:resource="http://web.resource.org/cc/DerivativeWorks" />
                <cc:requires rdf:resource="http://web.resource.org/cc/ShareAlike" />
                <cc:requires rdf:resource="http://web.resource.org/cc/SourceCode" />
            </cc:License>
        </rdf:RDF>
    </metadata>

    <sodipodi:namedview inkscape:window-height="582" inkscape:window-width="866" inkscape:pageshadow="2"
        inkscape:pageopacity="0.0" borderopacity="1.0" bordercolor="#666666" pagecolor="#ffffff" id="base"
        fill="#ffff00" inkscape:zoom="1.1338798" inkscape:cx="125" inkscape:cy="211.12313" inkscape:window-x="28"
        inkscape:window-y="117" inkscape:current-layer="layer7" showguides="true" inkscape:guide-bbox="true">
        <sodipodi:guide orientation="horizontal" position="329.9602" id="guide2648" />
        <sodipodi:guide orientation="horizontal" position="307.74672" id="guide2650" />
    </sodipodi:namedview>

    <defs id="defs1629">
        <metadata id="CorelCorpID_0Corel-Layer" />
        <sodipodi:namedview inkscape:guide-bbox="true" showguides="true" inkscape:current-layer="layer1"
            inkscape:window-y="-4" inkscape:window-x="-4" inkscape:cy="327.60442" inkscape:cx="146.08303"
            inkscape:zoom="17.548964" fill="#fa8072" id="namedview5974" pagecolor="#ffffff" bordercolor="#666666"
            borderopacity="1.0" inkscape:pageopacity="0.0" inkscape:pageshadow="2" inkscape:window-width="1024"
            inkscape:window-height="712" />
    </defs>

    <!-- <g inkscape:groupmode="layer" id="layer3" inkscape:label="fundo" style="display:inline" sodipodi:insensitive="true">
        <rect style="fill:#4169e1;fill-opacity:1;fill-rule:evenodd;stroke:none;display:inline" id="rect2247" width="200" height="200" />
    </g> -->

    <g inkscape:groupmode="layer" id="layer10" inkscape:label="----detalhes----" style="display:inline" />

    <!-- MUNICIPIOS -->
    <g inkscape:groupmode="layer" id="layer4" inkscape:label="Municipios" style="display:inline"
        sodipodi:insensitive="true" transform="translate(-150, -285) scale(2.2)">
        <path style="fill:#ffefd5;fill-rule:evenodd;stroke:#b22222;stroke-width:0.25400001;stroke-opacity:1"
            d="M 101.36649,195.48668 C 101.89498,194.92021 102.58545,195.11596 103.31613,194.94556 C 103.70202,194.09404 103.75421,193.02311 104.41939,192.19838 C 104.88355,191.24527 105.79368,190.43212 105.73039,189.33735 C 105.62388,188.44994 105.87183,187.62147 106.1134,186.77789 C 106.21775,185.80209 106.63821,184.95396 107.09466,184.09369 C 107.87982,183.40384 107.28212,182.41731 106.45483,182.30469 C 106.06737,182.69201 105.65323,183.09179 105.44078,182.39916 C 104.78763,181.52851 104.46004,180.40978 104.0415,179.40555 C 103.6743,178.42298 105.76685,178.68417 105.15481,177.5986 C 105.45188,176.75461 104.52955,176.13797 103.90705,175.79268 C 103.62473,174.99086 104.05547,174.32771 104.08983,173.5407 C 103.36203,173.01342 103.52915,171.81898 102.45316,171.8927 C 101.6775,171.41841 101.51355,173.66912 100.52893,172.62992 C 99.767856,172.10903 99.155616,171.41244 98.447823,170.82869 C 98.254233,171.44377 97.970576,172.04375 97.821412,172.66605 C 97.77557,173.02752 97.921485,173.45757 97.751413,173.77461 C 97.49587,174.01688 97.320588,174.30011 97.2891,174.65728 C 97.075231,175.48297 96.861361,176.30866 96.647491,177.13435 C 97.10969,177.49044 97.550389,177.85988 98.005706,178.20792 C 98.850883,177.78582 99.698613,177.29743 100.71882,177.32728 C 101.19389,177.19966 101.52987,177.78042 101.98097,177.7777 C 101.54008,178.36973 101.32061,179.10891 101.25192,179.78969 C 100.77172,179.75213 100.33443,179.55849 100.64216,180.25837 C 101.08729,180.99875 101.22307,182.17354 100.34441,182.62642 C 99.5773,182.12775 98.638171,182.29067 97.762857,182.37587 C 96.95942,182.27452 96.740095,182.79486 97.201826,183.39103 C 96.426267,184.3472 97.442616,185.44919 96.963378,186.43673 C 96.365222,187.14967 95.128077,186.25258 95.481489,185.42637 C 95.060237,185.17964 95.006853,183.96094 94.434554,184.40187 C 93.876109,184.97532 93.281207,185.53012 92.742821,186.11369 C 92.771122,186.47077 92.808439,186.82745 92.840157,187.18437 C 92.166848,187.11934 92.770375,187.96908 92.768348,188.29729 C 93.188727,188.66295 93.933798,188.50899 93.892061,189.36095 C 93.888514,190.03963 94.055193,190.28307 94.739154,190.29003 C 95.703903,190.56816 95.944138,189.09523 96.838195,189.18471 C 97.735559,189.14463 98.48306,189.76169 99.322021,189.98184 C 99.69236,190.91184 101.46472,190.22983 101.1407,191.46874 C 101.22459,192.46205 100.26034,193.05229 99.610158,193.18736 C 100.01425,193.80777 100.95583,194.35259 101.15849,194.64082 C 101.07494,194.29053 101.33858,195.39456 101.36649,195.48668 z "
            id="Alcobaça" />
        <path style="fill:#ffefd5;fill-rule:evenodd;stroke:#b22222;stroke-width:0.25400001;stroke-opacity:1"
            d="M 128.38249,162.4957 C 128.77795,162.80362 129.22849,162.5029 129.64739,162.76455 C 129.97006,162.42804 130.47553,162.11798 130.92542,162.51911 C 131.23686,162.86888 131.64751,163.46357 132.17997,163.29872 C 132.43154,162.92518 132.94235,163.28014 133.07226,162.74083 C 133.41793,162.63832 134.07018,163.57709 134.39171,163.00017 C 134.40028,162.53859 133.967,162.02056 134.34057,161.61899 C 134.63845,161.22134 134.86784,160.67364 135.4446,160.69064 C 135.63354,160.52663 135.82314,160.27355 136.10831,160.47865 C 136.55328,160.7324 136.89695,160.18084 137.36572,160.18588 C 137.85289,160.27891 137.81155,161.05718 137.61442,161.43577 C 137.28456,161.79926 137.49368,162.60921 136.97215,162.68136 C 136.53393,162.86649 136.47124,163.44326 136.16516,163.73192 C 136.4221,164.18883 136.19131,164.66942 136.09131,165.12393 C 136.0104,165.51823 135.9217,165.83821 135.96173,166.21577 C 135.70599,166.68106 135.74993,167.35835 136.2074,167.68488 C 136.73551,168.16744 135.98057,168.82023 136.35887,169.37122 C 136.66329,169.77681 136.10446,170.09304 135.93238,169.61171 C 135.73809,169.14793 135.344,168.97371 135.0334,169.45798 C 134.52245,169.6958 134.13395,170.20961 133.60445,170.39575 C 133.15161,170.20321 132.80767,169.69332 132.23906,169.99494 C 131.76744,170.13927 131.26826,170.19682 131.17642,170.78527 C 131.1109,171.36111 130.33315,171.13435 130.00165,171.53356 C 129.60989,171.89452 129.85636,171.10215 129.57149,171.06583 C 129.76945,170.69063 130.10171,170.25756 129.59814,169.90063 C 129.23488,169.58705 129.24935,169.02709 129.16017,168.56976 C 128.96749,168.09488 129.10925,167.53894 129.08228,167.01297 C 128.81773,166.59129 128.74489,166.09861 128.54532,165.63637 C 128.70126,165.0341 128.26449,164.59445 128.15599,164.07548 C 128.08857,163.67884 127.67612,163.21735 128.13253,162.82478 C 128.21391,162.71361 128.30143,162.60708 128.38249,162.4957 z "
            id="Alvaiázere" />
        <path style="fill:#ffefd5;fill-rule:evenodd;stroke:#b22222;stroke-width:0.25400001;stroke-opacity:1"
            d="M 125.14149,156.62868 C 125.55088,156.29488 125.85097,155.81829 126.0701,155.33429 C 125.93528,154.84111 126.09341,154.13812 126.74082,154.34735 C 127.20881,154.1826 127.7235,154.17786 127.94816,153.62302 C 128.33004,153.32282 128.79084,153.19883 129.2122,152.94662 C 129.4558,152.67983 129.42155,152.14292 129.52718,151.94114 C 129.98829,152.01868 130.08502,152.55857 130.48787,152.7741 C 130.51211,153.21482 131.64371,152.93823 131.18445,152.74352 C 130.75114,152.73898 130.45117,151.60936 131.11687,151.58006 C 131.39054,151.76691 131.7161,151.97117 131.75932,152.27951 C 132.02555,152.4111 131.77819,152.76621 132.12423,152.7326 C 132.21285,153.30241 132.66368,153.84198 132.54004,154.44192 C 132.28214,154.87785 133.00325,154.8892 132.90949,155.36136 C 133.2451,155.66463 133.42171,156.10861 133.54029,156.48846 C 133.18321,156.55184 132.92177,156.79301 133.0517,157.21484 C 133.22817,157.84242 132.25899,157.76064 132.20349,158.05936 C 132.74228,158.01558 133.26236,158.2242 133.79297,158.09565 C 134.27704,158.01364 134.91004,157.77155 134.91949,157.19002 C 135.26561,157.21936 135.42764,156.37429 135.51278,157.07776 C 135.60297,157.62211 135.77963,158.13271 135.83133,158.69153 C 135.99253,159.38162 134.98687,159.36123 134.59349,159.67069 C 134.24277,160.10066 135.71319,160.60602 134.96906,160.81571 C 134.67434,161.1535 134.25744,161.56944 134.18649,162.02528 C 134.18493,162.39919 134.7205,163.23399 134.02808,163.17216 C 133.57431,163.13571 133.13038,162.30164 132.87858,163.02718 C 132.64316,163.18337 132.30688,162.99441 132.13082,163.34669 C 131.53618,163.37574 131.23736,162.81028 130.86157,162.47759 C 130.40944,162.11608 129.96354,162.46697 129.64773,162.76455 C 129.20812,162.46305 128.32599,162.93336 128.31016,162.15169 C 128.61673,161.65729 128.60141,161.06331 128.70849,160.50368 C 128.17463,160.69815 127.76183,160.32079 127.33953,160.04495 C 126.65029,159.89049 126.82145,159.04748 126.28634,158.75275 C 125.61706,158.29492 125.8103,157.41573 125.328,156.86505 C 125.27073,156.78266 125.21207,156.70044 125.14149,156.62868 z "
            id="Ansião" />
        <path style="fill:#ffefd5;fill-rule:evenodd;stroke:#b22222;stroke-width:0.25400001;stroke-opacity:1"
            d="M 107.23349,177.18069 C 107.36359,177.7224 107.9698,177.68725 108.40302,177.799 C 108.89523,177.96961 109.51458,178.00688 109.9467,178.27786 C 110.46969,178.50822 110.98412,178.90445 111.56115,179.04602 C 111.99027,178.67861 112.55456,178.72658 112.82122,179.26817 C 113.30406,179.41372 113.54445,180.09699 114.15049,179.89702 C 114.7461,180.65008 114.85885,181.70212 115.58082,182.36668 C 115.68807,182.60906 115.35901,182.8154 115.70834,182.98966 C 116.15529,183.46615 116.64425,183.91142 117.21048,184.2427 C 117.4522,183.99859 118.13148,183.63179 117.8592,183.29083 C 117.50336,182.89881 117.24037,182.41491 117.20761,181.88427 C 117.25079,181.32292 117.06228,180.79232 117.22907,180.23873 C 117.28221,179.75154 116.85405,179.42893 116.63727,179.04001 C 116.43409,178.63468 116.57159,178.13666 116.26575,177.80896 C 115.92586,177.21541 115.7159,176.5173 115.18249,176.05803 C 114.67884,176.05399 114.24917,175.83498 113.79227,175.7438 C 113.38046,175.44066 112.80067,175.51908 112.37474,175.62052 C 111.99252,175.88323 111.49873,175.54107 111.10344,175.59472 C 110.57313,175.29326 110.68676,174.35549 110.15656,174.21002 C 109.77931,174.36584 109.31957,174.08867 109.17222,174.63611 C 108.83246,175.07125 108.24122,175.25872 107.79368,175.50439 C 107.55157,175.90158 107.1912,176.22442 107.52443,176.6997 C 107.62993,176.97553 107.26762,176.9664 107.23349,177.18069 z "
            id="Batalha" />
        <path style="fill:#ffefd5;fill-rule:evenodd;stroke:#b22222;stroke-width:0.25400001;stroke-opacity:1"
            d="M 95.282188,199.54369 C 95.661381,199.84804 95.557391,200.24427 95.475985,200.64565 C 95.716285,200.91807 95.765911,201.38239 95.771189,201.64402 C 95.42735,201.5992 95.452108,202.06695 95.056234,201.93851 C 94.547539,202.1026 94.700579,202.81132 94.218037,203.0468 C 93.821395,203.23304 93.756431,203.62803 93.760646,204.00541 C 93.536087,204.45333 93.296835,204.87624 93.040371,205.31445 C 92.91356,205.62041 92.622444,206.35868 92.258188,205.88135 C 91.858291,205.96751 91.925122,206.68241 91.460194,206.54696 C 90.979968,206.56238 90.90965,207.06649 90.755188,207.42035 C 90.343016,207.30971 90.145421,206.74749 90.229691,206.37179 C 90.037461,206.02316 89.702527,205.74983 89.620745,205.33405 C 89.372916,204.93801 89.68142,204.67991 89.813522,204.34202 C 89.557671,203.90929 90.008767,203.5755 90.256908,203.30062 C 90.070166,202.86158 89.69963,202.48589 89.690776,201.9555 C 89.665431,201.51659 89.615127,200.99003 89.065001,200.96007 C 88.821367,200.90201 88.568677,201.2268 88.378775,200.89138 C 88.120153,200.91967 87.658613,200.95928 87.559527,200.64106 C 87.679242,200.28008 87.778392,200.03002 88.159771,199.9355 C 88.396039,199.7871 88.75139,199.91403 88.965566,199.66405 C 89.305347,199.44913 89.497689,199.02664 89.963298,199.02624 C 90.298464,198.84831 90.558743,198.48085 90.90577,198.88918 C 91.27165,199.09326 91.297311,199.56268 91.560646,199.80605 C 91.879199,199.97774 92.262725,200.54374 92.588605,200.28593 C 92.295832,199.93296 92.67505,199.50477 92.973469,199.46011 C 93.156644,199.36888 93.388672,199.45441 93.561855,199.25402 C 93.682504,199.62236 94.104719,199.37444 94.291648,199.71106 C 94.549911,199.90974 94.625553,199.32297 94.971155,199.50547 C 95.073731,199.52536 95.177241,199.54472 95.282188,199.54369 z "
            id="Bombarral" />
        <path style="fill:#ffefd5;fill-rule:evenodd;stroke:#b22222;stroke-width:0.25400001;stroke-opacity:1"
            d="M 101.26649,194.98869 C 101.10703,194.45282 100.81575,194.18678 100.3418,194.02867 C 100.17272,193.69653 99.205872,192.99408 99.992318,193.05152 C 100.53041,193.00121 101.05193,192.27679 101.16716,191.66601 C 101.23334,191.12166 101.15949,190.53417 100.43745,190.61586 C 99.670039,190.6054 99.353586,189.78611 98.580173,189.69362 C 97.885125,189.40465 97.144587,188.97563 96.404817,189.31202 C 95.914212,189.43081 95.594323,190.39359 94.891495,190.37501 C 94.524216,190.0605 93.776035,190.41588 93.973927,189.70188 C 93.869815,189.07514 93.680752,188.37821 92.913265,188.47348 C 92.649268,188.13978 92.573455,187.66535 92.503799,187.23658 C 92.222345,187.27643 91.91221,187.30615 91.632484,187.36636 C 90.915502,188.03648 90.18282,188.696 89.475151,189.37236 C 89.194225,189.98614 88.943944,190.62024 88.643912,191.22136 C 88.303105,191.58358 87.962298,191.9458 87.62149,192.30801 C 87.978606,192.54009 88.383273,192.68764 88.73704,192.91889 C 88.891073,193.42822 89.104463,193.87367 89.417073,194.27993 C 90.110993,194.10021 90.785888,194.35609 91.488672,194.59304 C 92.068496,194.75827 92.572215,195.10279 93.164665,195.23018 C 93.661423,195.47257 94.302525,195.51057 94.811284,195.59905 C 95.162738,196.19575 95.006915,196.94597 95.70045,197.29768 C 96.259632,197.70458 97.021138,198.05124 96.803158,198.90902 C 96.401795,199.40029 95.280657,198.87539 95.36595,199.64955 C 95.817615,200.07401 95.257277,200.68423 95.706981,201.1166 C 95.603747,201.97344 96.567947,201.19899 96.85498,200.85481 C 97.284158,200.29039 98.145409,200.50589 98.396492,201.12569 C 98.657419,201.67097 99.076336,201.81569 99.615633,201.7748 C 100.46208,202.2734 100.82217,201.31673 101.00399,200.69177 C 101.43237,200.00327 100.62933,199.57912 100.65431,198.89879 C 100.44363,198.25884 100.21152,197.59188 100.6057,196.96755 C 100.79513,196.29414 101.37281,195.72972 101.26649,194.98869 z "
            id="Caldas_da_Rainha" />
        <path style="fill:#ffefd5;fill-rule:evenodd;stroke:#b22222;stroke-width:0.25400001;stroke-opacity:1"
            d="M 144.2085,147.24867 C 144.57354,147.44754 145.05812,147.5115 145.23555,147.93393 C 145.5574,148.03261 145.76497,148.34396 146.12482,148.38639 C 146.27195,148.71054 146.19798,149.26482 145.89249,149.47601 C 145.79682,149.98295 145.63902,150.48501 145.55121,150.99798 C 145.37231,151.26122 144.87492,150.93157 144.60682,150.85201 C 144.78135,151.27417 144.73344,151.70424 144.50671,152.09814 C 144.19096,152.51769 145.10444,152.96254 144.72353,153.26104 C 144.38486,153.48769 144.02625,153.79563 143.96671,154.21722 C 143.75696,154.52759 143.74335,154.87431 143.72612,155.21937 C 143.67213,155.6639 143.27027,155.86802 142.88651,155.96402 C 142.57451,156.03231 142.95749,156.49973 142.63932,156.69364 C 142.40251,157.05004 141.47816,156.89526 141.75387,156.38982 C 141.71263,155.92627 140.64471,156.31604 141.05116,155.82556 C 141.30153,155.57797 141.45561,155.19984 141.27439,154.86774 C 141.11972,154.53807 141.19538,154.15412 141.15487,153.79717 C 141.14771,153.42764 141.16605,153.06177 141.25762,152.6989 C 141.42462,152.34027 141.19216,151.99943 141.3579,151.65588 C 141.58477,151.13338 142.0448,150.75618 142.24045,150.21672 C 142.34652,149.88942 142.41597,149.64883 142.67481,149.4361 C 142.79993,148.94486 143.20552,148.60012 143.50589,148.20736 C 143.72958,147.88062 143.90325,147.51349 144.2085,147.24867 z "
            id="Castanheira_de_Pera" />
        <path style="fill:#ffefd5;fill-rule:evenodd;stroke:#b22222;stroke-width:0.25400001;stroke-opacity:1"
            d="M 140.93149,156.08569 C 140.09906,156.33027 140.1228,157.22799 140.33549,157.85638 C 139.85083,158.4782 140.05741,159.20896 140.16258,159.8988 C 140.62753,160.37601 141.07337,160.94604 141.51397,161.51291 C 141.89709,162.03426 142.07634,162.85189 141.67382,163.38302 C 141.59774,164.25149 140.61708,163.856 140.14823,164.28698 C 139.6346,164.19985 138.66847,164.04389 139.09228,164.88448 C 139.13667,165.26288 139.83327,165.74188 139.06057,165.75322 C 138.6567,165.88002 138.77504,166.47423 138.25149,166.51535 C 137.96895,166.92242 139.18325,167.4863 138.34952,167.35576 C 137.5967,167.81626 136.95821,167.05231 136.24182,167.07669 C 135.33567,167.34422 136.18076,166.15959 135.91582,165.71868 C 136.17244,165.06106 136.33367,164.26822 136.21348,163.62563 C 136.56887,163.23529 136.68068,162.64964 137.27382,162.56802 C 137.27244,161.83155 138.28176,160.63104 137.3664,160.18588 C 136.79489,160.34868 136.33358,160.69427 135.77613,160.39881 C 135.3694,161.14589 134.66945,160.18103 134.54485,159.71443 C 134.9911,159.34802 136.13941,159.36451 135.80261,158.52215 C 135.86659,157.8309 135.09373,156.94366 135.71598,156.47226 C 136.39148,156.10228 136.29837,155.20922 136.91537,154.89782 C 136.7029,154.60867 136.92449,153.80709 137.25187,154.13286 C 137.21052,154.78584 137.4741,155.30297 138.17673,155.35927 C 138.45717,155.78933 139.30209,156.25086 138.93982,155.47001 C 139.09364,155.11758 139.66564,155.0803 139.08449,154.74568 C 138.91971,154.41914 139.95716,153.82881 139.03606,153.84406 C 138.51384,153.63169 137.97981,152.83762 138.05235,152.28936 C 138.51878,151.84963 138.72635,151.26145 138.82053,150.72751 C 139.15453,150.2112 139.45747,149.51881 140.22515,149.74801 C 140.56672,149.17561 140.78526,148.33632 141.56382,148.99257 C 142.07789,149.4021 142.72466,149.81785 142.10945,150.48605 C 141.78612,151.07635 141.1124,151.62859 141.32397,152.34915 C 141.13117,153.07397 141.13603,153.81503 141.18515,154.55429 C 141.52166,155.14414 141.25638,155.58652 140.93149,156.08569 z M 136.36716,167.93698 C 136.35871,167.93741 136.37103,167.9049 136.36716,167.93698 z "
            id="Figueiró_dos_Vinhos" />
        <path style="fill:#ffefd5;fill-rule:evenodd;stroke:#b22222;stroke-width:0.25400001;stroke-opacity:1"
            d="M 105.25949,178.17668 C 106.08802,178.22305 106.36081,177.40816 106.99637,177.42248 C 107.84696,176.93414 107.0666,176.09681 107.79335,175.50438 C 108.79335,175.33974 109.15878,174.0748 110.15623,174.21 C 110.74444,174.5109 110.71072,175.92562 111.74183,175.67801 C 112.53355,175.64893 113.36082,175.35211 114.11383,175.84102 C 115.1489,175.82062 115.80473,176.5882 116.12697,177.54785 C 116.48439,178.71538 117.65781,177.20581 118.40549,177.28936 C 119.12078,176.74873 119.7524,175.99319 119.68615,175.03294 C 120.69674,174.04747 119.16437,173.91094 118.48979,173.51632 C 117.5375,173.46035 117.57883,172.0914 118.42932,172.27906 C 118.14408,171.86664 117.62437,171.72322 117.72602,171.14069 C 117.26286,170.62211 117.75018,169.7645 117.72874,169.26648 C 117.97781,168.72542 118.83991,168.67029 119.38866,168.21664 C 119.78134,167.99509 120.41213,167.79174 120.57816,167.66897 C 120.68724,166.82035 119.48027,166.60934 119.10487,165.92286 C 118.15059,165.79588 117.43566,164.324 116.32268,164.80903 C 115.64266,165.56499 114.84814,164.09145 114.70013,163.43821 C 114.5171,162.72219 113.62438,162.37558 113.62082,161.52164 C 113.53104,160.45413 112.84229,159.97047 112.06012,159.37124 C 111.30129,158.88067 110.40347,158.6965 109.66707,158.11996 C 108.82831,157.95294 107.89861,157.18599 107.33083,157.1357 C 106.62942,156.37361 105.56623,156.06953 104.60021,155.68518 C 104.14002,155.44604 104.15162,156.0534 103.98295,156.33731 C 103.28547,157.95847 102.74015,159.63584 102.15482,161.29904 C 102.82516,161.4774 103.82372,161.36276 104.15483,160.70304 C 105.16816,160.44663 105.77054,161.17563 106.38404,161.66721 C 105.7978,162.02139 105.2459,162.86875 104.44449,162.56804 C 104.81446,163.45505 105.01611,164.36783 105.92949,164.86771 C 106.2654,165.91398 105.81254,166.94509 106.38216,167.98237 C 106.64236,168.6625 108.18779,168.53799 107.40784,169.56326 C 106.83784,170.0436 107.41593,170.795 107.22016,171.19215 C 106.47093,170.95258 106.33752,172.76197 105.62149,171.91171 C 105.00428,171.95384 105.41477,173.17026 104.60749,172.81704 C 105.35949,174.00807 103.21799,174.18481 103.9003,175.33919 C 103.74476,176.16887 105.16441,176.22988 105.22654,177.14095 C 105.23293,177.51362 105.04634,177.8085 105.25949,178.17668 z "
            id="Leiria" />
        <path style="fill:#ffefd5;fill-rule:evenodd;stroke:#b22222;stroke-width:0.25400001;stroke-opacity:1"
            d="M 104.10049,174.15669 C 104.77975,174.07853 104.81476,173.31816 104.60749,172.81669 C 105.33891,173.12146 105.06829,172.14088 105.51137,171.92203 C 105.8443,172.18097 106.27377,172.23362 106.44689,171.7251 C 106.64952,171.37297 106.91626,171.0866 107.34182,171.15069 C 107.10881,170.56042 107.06198,169.98812 107.4624,169.45233 C 107.83219,168.91044 107.43157,168.53734 106.88816,168.45498 C 106.24416,168.28419 106.29518,167.52242 106.08439,167.01667 C 105.8271,166.49053 106.39389,165.96017 106.01367,165.42134 C 105.90223,165.02845 105.89794,164.66291 105.44715,164.45699 C 104.8113,164.21114 105.0594,163.47101 104.6106,163.04804 C 104.36341,162.74165 104.42567,162.43553 104.84682,162.62576 C 105.43062,162.62661 105.74329,161.98924 106.27356,161.81594 C 106.6603,161.31291 105.40045,161.38811 105.50714,160.83861 C 104.91238,160.64833 104.19708,160.5067 103.85541,161.08528 C 103.33255,161.32115 102.71668,161.48763 102.15482,161.29868 C 101.66827,162.67469 101.19328,164.05505 100.63333,165.40353 C 100.35523,166.07025 100.1237,166.75956 99.816096,167.41198 C 99.455289,168.04408 99.073644,168.67111 98.724815,169.30602 C 98.723413,169.61972 98.820122,169.94714 98.657706,170.23716 C 98.587631,170.43445 98.517555,170.63173 98.447479,170.82901 C 99.258126,171.487 99.932191,172.32826 100.8662,172.82313 C 101.56759,173.082 101.69065,172.12595 102.08192,171.78505 C 102.53377,171.83189 102.9957,172.02897 103.39416,172.25535 C 103.26457,172.89461 104.10284,173.28127 104.02734,173.77366 C 103.97176,173.90677 104.09712,174.02623 104.10049,174.15669 z "
            id="Marinha_Grande" />
        <path style="fill:#ffefd5;fill-rule:evenodd;stroke:#b22222;stroke-width:0.25400001;stroke-opacity:1"
            d="M 94.59919,184.23668 C 95.221967,183.37568 95.844744,182.51468 96.467522,181.65369 C 96.413742,181.31769 96.359962,180.98169 96.306183,180.64569 C 96.136225,180.60539 95.947156,180.60287 95.78685,180.54301 C 95.772857,180.36433 95.876079,180.1873 95.902161,180.00949 C 96.150503,179.05111 96.398845,178.09273 96.647186,177.13435 C 96.95383,177.34386 97.210519,177.61449 97.509185,177.83202 C 97.80311,178.00253 98.030518,178.38342 98.398237,178.08988 C 98.768903,177.7837 99.169837,177.54524 99.64521,177.4636 C 100.08381,177.4075 100.52099,177.38708 100.95327,177.28795 C 101.24733,177.26954 101.35771,177.8401 101.76496,177.67181 C 102.28596,177.70321 101.67068,178.30111 101.53644,178.50471 C 101.26608,178.86835 101.42875,179.38214 101.29931,179.7585 C 101.06154,179.97067 100.3515,179.39204 100.60434,179.98408 C 100.68014,180.36582 100.84943,180.69413 100.97135,181.06568 C 100.88671,181.42219 101.18272,181.85809 100.78685,182.10536 C 100.75447,182.72306 100.08274,182.68276 99.769633,182.34108 C 99.328872,182.40456 98.926829,182.13725 98.499955,182.29832 C 98.085457,182.44434 97.65543,182.3354 97.234449,182.44615 C 96.573456,182.49587 97.160011,183.06766 97.201523,183.39103 C 96.923502,183.75236 96.916282,184.21197 96.870611,184.63073 C 97.050265,185.06418 97.094114,185.49354 97.105599,185.95794 C 97.136586,186.37201 96.732457,186.87072 96.290811,186.69701 C 96.029787,186.49636 95.521785,186.42072 95.471827,186.07486 C 95.604977,185.65719 95.458781,185.30936 95.137185,185.03869 C 95.149365,184.70416 95.007548,184.4739 94.726987,184.33665 C 94.684393,184.30333 94.641761,184.26999 94.59919,184.23668 z "
            id="Nazaré" />
        <path style="fill:#ffefd5;fill-rule:evenodd;stroke:#b22222;stroke-width:0.25400001;stroke-opacity:1"
            d="M 84.803185,194.84769 C 85.381011,194.37934 85.982444,193.9367 86.545453,193.45221 C 86.904145,193.07093 87.262837,192.68965 87.621529,192.30836 C 87.952705,192.51273 88.304229,192.67726 88.650693,192.85122 C 88.990097,193.08468 88.736883,193.61455 89.179861,193.78502 C 89.081342,194.38291 89.742498,194.32746 90.055972,194.16271 C 90.462525,194.484 91.007886,194.2561 91.430884,194.56899 C 91.909644,194.75074 92.37383,194.92629 92.836446,195.14631 C 93.396535,195.20341 93.833402,195.59068 94.424352,195.52572 C 94.956913,195.39414 95.054911,196.09847 95.096217,196.48964 C 95.098425,196.986 95.702743,197.24625 96.024531,197.51536 C 96.374717,197.8288 96.915263,197.9783 96.801978,198.5744 C 96.929438,199.28705 95.941987,199.1181 95.56203,199.23011 C 95.362301,199.8072 94.646297,199.24258 94.439359,199.77234 C 94.172209,199.58979 93.950265,199.46991 93.652531,199.41636 C 93.54921,199.06044 93.250672,199.56978 92.998119,199.42077 C 92.786606,199.55688 92.314187,199.76448 92.5294,200.18251 C 92.698994,200.5549 91.902002,200.24948 91.830865,199.9777 C 91.24523,199.75091 91.305387,198.94301 90.660685,198.73316 C 90.276427,198.61739 89.966699,199.18599 89.509279,199.1605 C 89.192104,199.47411 88.863643,199.90641 88.371267,199.85424 C 87.922796,199.9511 87.610147,200.22679 87.550198,200.72036 C 86.988357,200.81415 86.588518,200.39647 86.406695,199.92855 C 86.215467,199.42809 86.150719,198.91014 86.034386,198.39103 C 85.908929,197.83719 85.908386,197.25579 85.603697,196.75606 C 85.408867,196.23433 85.142012,195.75603 84.984226,195.22468 C 84.923876,195.09902 84.863549,194.97332 84.803185,194.84769 z "
            id="Óbidos" />
        <path style="fill:#ffefd5;fill-rule:evenodd;stroke:#b22222;stroke-width:0.25400001;stroke-opacity:1"
            d="M 140.93149,156.08569 C 141.40129,156.03582 141.90843,156.23972 141.72816,156.77369 C 142.21073,157.06986 142.95113,156.75355 142.76312,156.11726 C 142.92538,155.8349 143.73097,155.8136 143.72679,155.21969 C 143.74022,154.67541 143.91218,154.10925 144.24956,153.66119 C 144.50862,153.34971 145.12452,153.17358 144.64101,152.74755 C 144.18746,152.29716 144.77234,151.80972 144.72344,151.31842 C 144.63191,151.07134 144.51962,150.66904 144.88557,150.96557 C 145.21328,151.15994 145.72811,150.94599 145.49398,151.48824 C 145.52012,152.0634 146.25995,152.20621 146.31907,152.80458 C 146.35096,153.29202 146.51623,153.62652 146.99035,153.90866 C 147.13336,154.372 147.54254,154.64173 147.79416,155.05336 C 147.99164,155.46484 148.19426,156.18244 147.66868,156.45349 C 147.15955,156.42782 147.37844,157.2861 146.82413,157.35115 C 146.32117,157.73438 147.08236,158.14796 147.46849,158.02302 C 147.31879,158.4784 146.68698,158.60947 146.7038,159.19146 C 146.48816,159.61252 146.35289,160.08671 146.26207,160.54579 C 146.21578,161.17057 145.74731,161.32961 145.19544,161.36527 C 144.96141,161.60026 144.95398,162.20306 144.45662,161.83339 C 144.19549,161.34408 143.68847,161.58472 143.98019,162.02214 C 143.60195,162.1788 143.18144,162.44502 143.26749,162.94835 C 143.02662,163.2597 142.46801,163.81042 142.12662,163.37049 C 141.5127,163.2594 142.1239,162.6262 141.81882,162.24203 C 141.82245,161.65476 141.23584,161.33492 141.02481,160.86183 C 140.75504,160.34736 140.05479,160.18443 140.08228,159.52514 C 140.01123,158.95451 139.95519,158.36646 140.33549,157.85639 C 140.33353,157.41047 140.00495,156.94856 140.34742,156.50716 C 140.49266,156.30787 140.73236,156.21877 140.93149,156.08569 z "
            id="Pedrógão_Grande" />
        <path style="fill:#ffefd5;fill-rule:evenodd;stroke:#b22222;stroke-width:0.25400001;stroke-opacity:1"
            d="M 82.047188,201.86768 C 81.682227,201.02504 81.301024,200.18753 80.946182,199.34169 C 80.947917,198.97305 80.941805,198.60411 80.940521,198.23535 C 80.670965,197.98146 80.401408,197.72757 80.131851,197.47368 C 79.637999,197.39394 79.137098,197.33261 78.647522,197.24168 C 78.603834,197.11805 78.729923,196.99777 78.752344,196.87715 C 78.832011,196.69925 78.886391,196.49859 78.980522,196.33334 C 79.409172,196.27598 79.841225,196.19636 80.26786,196.15234 C 80.451847,196.43708 80.640416,196.71952 80.826195,197.00336 C 81.25952,196.88786 81.70029,196.78961 82.128994,196.66342 C 82.787136,196.23883 83.459511,195.83428 84.108694,195.39707 C 84.340193,195.21383 84.571693,195.03058 84.803192,194.84734 C 84.895639,195.04848 85.016537,195.23853 85.037959,195.46222 C 85.207445,195.80345 85.389102,196.11904 85.47261,196.49129 C 85.607285,196.80344 85.8308,197.09159 85.848194,197.44234 C 85.966728,197.75902 85.943234,198.10935 86.045328,198.43676 C 86.152361,198.75448 86.134354,199.09691 86.248352,199.40817 C 86.391122,199.7851 86.589161,200.21617 86.074347,200.36632 C 85.778036,200.50106 85.435012,200.67615 85.523988,201.04102 C 85.357784,201.36073 84.918534,201.28708 84.919799,201.71279 C 84.705368,202.00916 84.426303,202.48846 84.083651,202.08877 C 83.771893,201.95472 83.406636,202.05796 83.136469,201.80353 C 82.85255,201.78022 82.572087,201.8018 82.289838,201.83016 C 82.208955,201.84266 82.128072,201.85517 82.047188,201.86768 z "
            id="Peniche" />
        <path style="fill:#ffefd5;fill-rule:evenodd;stroke:#b22222;stroke-width:0.25400001;stroke-opacity:1"
            d="M 104.26749,155.62669 C 104.99028,153.84285 105.70554,152.05369 106.29349,150.22002 C 107.10122,150.2877 107.47183,151.02343 107.83016,151.57603 C 108.73133,151.6093 109.33176,151.15145 110.13509,151.72729 C 110.83305,152.6289 111.67563,151.92988 111.77278,150.97857 C 112.47346,150.01942 113.74934,150.52922 114.60982,151.03303 C 115.32194,150.76691 116.37305,151.36671 117.01082,151.23935 C 118.12845,150.83091 118.52815,151.95736 119.40815,152.31869 C 120.36327,152.31219 118.82945,154.22863 120.23382,153.74902 C 121.29749,154.05788 121.52273,152.73013 121.93786,152.04295 C 122.22339,151.0071 123.56585,150.93318 124.36244,151.43641 C 124.92194,152.42351 124.40656,153.6749 124.77702,154.69787 C 123.74563,155.72031 125.30969,156.54848 125.63456,157.44708 C 125.78898,158.45764 126.67217,159.1051 127.11857,159.92424 C 127.64635,160.17237 128.07764,160.73483 128.70815,160.50304 C 128.73289,161.68752 127.97914,162.61066 128.00392,163.67353 C 128.62228,164.43205 128.03824,164.95052 127.31731,165.33408 C 126.97447,165.75935 126.90614,166.43221 126.51861,165.62529 C 125.81235,164.84641 125.74164,166.43986 125.08877,166.65877 C 124.75494,167.82005 123.50276,167.56338 122.87994,168.40169 C 122.28819,169.0049 121.45473,168.55341 121.21182,167.92737 C 120.21855,168.23624 120.90516,166.91571 120.0371,166.80777 C 119.1607,165.98428 118.21966,165.43601 117.1819,164.79191 C 116.36513,164.53247 115.68838,165.56932 115.1111,164.41508 C 114.90596,163.43021 114.24918,162.82864 113.76815,162.02929 C 113.52626,161.00352 113.27965,160.02525 112.25628,159.54479 C 111.55824,158.87922 110.53984,158.83942 109.80531,158.19202 C 108.94336,157.95997 107.92634,157.23042 107.33049,157.13503 C 106.62731,156.3726 105.56256,156.06561 104.59383,155.68348 C 104.48506,155.66455 104.37624,155.64565 104.26749,155.62669 z "
            id="Pombal" />
        <path style="fill:#ffefd5;fill-rule:evenodd;stroke:#b22222;stroke-width:0.25400001;stroke-opacity:1"
            d="M 117.21049,184.24268 C 117.1371,184.71966 116.67915,184.98095 116.60399,185.46365 C 116.32916,185.68791 115.98429,185.82115 115.83449,186.21635 C 115.29077,186.09949 115.01762,185.55259 114.52829,185.33728 C 113.9067,185.59098 113.95695,186.43853 114.20481,186.98031 C 114.45393,187.56417 114.71348,188.11755 114.92838,188.72763 C 114.94907,189.3372 113.89178,188.70872 113.56081,189.21642 C 112.99852,189.32888 112.35506,188.95944 111.73727,188.83106 C 111.14356,188.89519 110.57468,189.04066 109.97469,189.14904 C 109.2046,189.3236 108.36536,189.5902 107.6192,189.20727 C 107.09963,188.91007 106.8847,189.57533 106.47582,189.66989 C 106.42602,190.18612 105.34961,190.12052 105.70287,189.47855 C 105.77136,188.65346 105.66101,187.82567 106.0565,187.04934 C 106.15119,186.54787 106.28625,186.04111 106.37985,185.53184 C 106.56416,185.10049 106.84284,184.67964 107.02727,184.23341 C 107.24247,183.71676 107.89615,183.07282 107.12421,182.687 C 106.82274,182.17716 106.28326,182.25714 105.96583,182.74702 C 105.56363,183.00024 105.51603,182.27063 105.15719,182.07638 C 104.89672,181.58671 104.77483,181.04161 104.50641,180.54298 C 104.2782,180.02305 103.86101,179.44567 104.06195,178.8675 C 104.72456,178.56617 105.30976,178.11973 106.03414,177.97355 C 106.4236,177.8669 106.38517,177.25755 106.78976,177.55033 C 107.14312,177.30659 107.25799,177.05292 107.49407,177.56772 C 108.08052,177.79287 108.71723,177.82723 109.31588,178.04894 C 109.89438,178.15763 110.31415,178.51275 110.8605,178.74719 C 111.33911,179.35621 111.88889,178.6804 112.40167,178.83898 C 112.82885,179.26408 113.27612,179.61219 113.767,179.91459 C 114.43072,179.74598 114.51566,180.66606 114.78521,181.08795 C 114.94662,181.63951 115.39022,182.07475 115.62216,182.54883 C 115.39821,183.09155 116.38502,183.52156 116.73019,183.92297 C 116.88465,184.0377 117.04511,184.14445 117.21049,184.24268 z "
            id="Porto_de_Mós" />
    </g>
    <!-- EO MUNICIPIOS -->
</svg>