<?xml version="1.0" encoding="UTF-8" standalone="no"?>
<!-- Creator: CorelDRAW -->
<svg xmlns:dc="http://purl.org/dc/elements/1.1/" xmlns:cc="http://web.resource.org/cc/"
    xmlns:rdf="http://www.w3.org/1999/02/22-rdf-syntax-ns#" xmlns:svg="http://www.w3.org/2000/svg"
    xmlns="http://www.w3.org/2000/svg" xmlns:sodipodi="http://inkscape.sourceforge.net/DTD/sodipodi-0.dtd"
    xmlns:inkscape="http://www.inkscape.org/namespaces/inkscape" xml:space="preserve" width="250" height="366"
    style="shape-rendering:geometricPrecision; text-rendering:geometricPrecision; image-rendering:optimizeQuality; fill-rule:evenodd; clip-rule:evenodd"
    viewBox="0 0 200 200" id="svg1627" sodipodi:version="0.32" inkscape:version="0.43"
    sodipodi:docname="Mapa_de_Portugal.svg" sodipodi:docbase="C:\Documents and Settings\Márcio Silva\Os meus documentos"
    version="1.0">
    <metadata id="metadata1927">
        <rdf:RDF>
            <cc:Work rdf:about="">
                <dc:format>image/svg+xml</dc:format>
                <dc:type rdf:resource="http://purl.org/dc/dcmitype/StillImage" />
                <dc:title>Munícipios de Portugal</dc:title>
                <cc:license rdf:resource="http://creativecommons.org/licenses/GPL/2.0/" />
                <dc:creator>
                    <cc:Agent>
                        <dc:title>Rei-artur (rei.artur@gmail.com)</dc:title>
                    </cc:Agent>
                </dc:creator>
            </cc:Work>
            <cc:License rdf:about="http://creativecommons.org/licenses/GPL/2.0/">
                <cc:permits rdf:resource="http://web.resource.org/cc/Reproduction" />
                <cc:permits rdf:resource="http://web.resource.org/cc/Distribution" />
                <cc:requires rdf:resource="http://web.resource.org/cc/Notice" />
                <cc:permits rdf:resource="http://web.resource.org/cc/DerivativeWorks" />
                <cc:requires rdf:resource="http://web.resource.org/cc/ShareAlike" />
                <cc:requires rdf:resource="http://web.resource.org/cc/SourceCode" />
            </cc:License>
        </rdf:RDF>
    </metadata>

    <sodipodi:namedview inkscape:window-height="582" inkscape:window-width="866" inkscape:pageshadow="2"
        inkscape:pageopacity="0.0" borderopacity="1.0" bordercolor="#666666" pagecolor="#ffffff" id="base"
        fill="#ffff00" inkscape:zoom="1.1338798" inkscape:cx="125" inkscape:cy="211.12313" inkscape:window-x="28"
        inkscape:window-y="117" inkscape:current-layer="layer7" showguides="true" inkscape:guide-bbox="true">
        <sodipodi:guide orientation="horizontal" position="329.9602" id="guide2648" />
        <sodipodi:guide orientation="horizontal" position="307.74672" id="guide2650" />
    </sodipodi:namedview>

    <defs id="defs1629">
        <metadata id="CorelCorpID_0Corel-Layer" />
        <sodipodi:namedview inkscape:guide-bbox="true" showguides="true" inkscape:current-layer="layer1"
            inkscape:window-y="-4" inkscape:window-x="-4" inkscape:cy="327.60442" inkscape:cx="146.08303"
            inkscape:zoom="17.548964" fill="#fa8072" id="namedview5974" pagecolor="#ffffff" bordercolor="#666666"
            borderopacity="1.0" inkscape:pageopacity="0.0" inkscape:pageshadow="2" inkscape:window-width="1024"
            inkscape:window-height="712" />
    </defs>

    <!-- <g inkscape:groupmode="layer" id="layer3" inkscape:label="fundo" style="display:inline" sodipodi:insensitive="true">
        <rect style="fill:#4169e1;fill-opacity:1;fill-rule:evenodd;stroke:none;display:inline" id="rect2247" width="200" height="200" />
    </g> -->

    <g inkscape:groupmode="layer" id="layer10" inkscape:label="----detalhes----" style="display:inline" />

    <!-- MUNICIPIOS -->
    <g inkscape:groupmode="layer" id="layer4" inkscape:label="Municipios" style="display:inline"
        sodipodi:insensitive="true" transform="translate(-175, -565) scale(3)">
        <path style="fill:#ffefd5;fill-rule:evenodd;stroke:#b22222;stroke-width:0.25400001;stroke-opacity:1"
            d="M 99.935791,209.15868 C 100.14624,210.04808 101.08952,209.10755 101.53214,209.82487 C 102.12433,210.13897 101.2999,211.11439 102.18152,211.10824 C 102.64659,211.3591 103.61408,211.23294 103.48929,211.9826 C 103.3529,212.74917 103.81483,213.43113 104.24032,214.02164 C 104.93713,214.71221 103.95609,215.32459 103.34532,215.48398 C 102.75501,215.38419 102.66295,215.64665 102.92439,216.13708 C 103.29139,216.7887 103.11138,217.40753 102.91482,218.05857 C 103.02114,218.40354 102.93961,218.63185 102.72413,218.23068 C 102.5404,218.6804 102.33813,219.40403 102.97704,219.65161 C 103.28547,219.81861 103.72182,219.66961 103.62979,220.20435 C 104.11313,220.79046 103.14614,221.2805 103.21734,221.9558 C 102.72627,222.0577 102.1357,220.87431 101.39232,221.10438 C 100.8405,221.24272 100.95742,222.17641 100.28504,221.84327 C 99.745763,222.0971 99.534235,221.63356 99.55199,221.20438 C 99.16105,221.33858 98.754248,220.63913 98.470895,221.18951 C 98.023376,221.74156 97.556852,221.09541 97.718539,220.61118 C 97.484166,220.12929 96.996458,221.03756 96.572139,220.64873 C 96.395063,221.17082 95.642394,220.9065 95.504958,220.46963 C 95.301372,220.20092 94.738209,220.0309 95.051067,220.53592 C 94.729763,220.92462 94.611292,219.75501 94.103669,219.84021 C 93.650735,219.64499 93.21006,219.5128 93.331339,218.91258 C 93.425928,218.2846 92.934373,217.82705 93.15975,217.20095 C 93.499191,216.52718 92.64221,216.02756 92.144455,215.73287 C 91.551781,215.39976 91.49426,214.62175 91.977454,214.16809 C 92.16105,213.84567 92.423826,213.62119 92.661025,213.46423 C 93.264127,213.76801 92.766593,212.68026 92.714707,212.35817 C 92.534025,211.78411 92.547302,211.1774 92.352669,210.60838 C 92.190621,210.25661 91.69318,209.50516 92.177531,209.35671 C 92.448151,209.67563 92.753605,209.54348 92.732673,209.14578 C 93.004002,208.87668 93.204861,209.61453 93.554457,209.63921 C 93.803507,210.06709 94.371357,209.88426 94.557787,210.42635 C 95.314838,210.54033 95.835632,209.78713 96.59432,209.84198 C 97.142109,209.61616 97.397781,210.45117 97.80132,209.8688 C 98.27723,209.62654 99.050902,209.62696 99.175124,209.03202 C 99.398114,209.17826 99.681352,209.15326 99.935791,209.15868 z "
            id="Alenquer" />
        <path style="fill:#ffefd5;fill-rule:evenodd;stroke:#b22222;stroke-width:0.25400001;stroke-opacity:1"
            d="M 85.920486,240.42969 C 85.959758,240.19403 85.741668,240.10157 85.625394,239.96592 C 85.762957,239.83497 86.021843,239.83919 86.215264,239.8693 C 86.440896,239.8657 86.610613,239.46409 86.513665,239.24632 C 86.468873,238.96892 86.493681,238.67025 86.377758,238.4046 C 86.321033,238.12756 86.205339,237.82376 86.354817,237.55467 C 86.437539,237.2941 86.678691,237.1241 86.769124,236.86768 C 86.765289,236.62614 86.729308,236.29552 86.970038,236.1534 C 87.246368,235.99132 87.443425,236.38389 87.692516,236.21753 C 87.992889,236.20365 87.750487,236.61919 87.912295,236.77714 C 88.01952,236.97463 88.233937,237.08424 88.17958,237.33795 C 88.345912,237.50642 88.416194,237.7869 88.663983,237.91757 C 88.945547,238.04306 89.033964,238.35656 89.072009,238.63602 C 88.989897,238.84669 88.56249,238.76452 88.632224,239.08574 C 88.407087,239.31232 88.732176,239.45266 88.786204,239.67595 C 88.899734,239.9681 88.85767,240.32874 88.636317,240.55976 C 88.463962,240.71838 88.66434,241.05409 88.49428,241.14312 C 88.270904,241.05366 88.199442,240.75657 87.970084,240.64479 C 87.802545,240.42813 87.535415,240.37363 87.277642,240.35741 C 87.052235,240.34248 86.890179,240.13096 86.655514,240.16188 C 86.452925,240.17145 86.265566,240.2613 86.090822,240.35735 C 86.036866,240.21114 85.960909,240.37814 85.920486,240.42969 z "
            id="Amadora" />
        <path style="fill:#ffefd5;fill-rule:evenodd;stroke:#b22222;stroke-width:0.25400001;stroke-opacity:1"
            d="M 95.62619,227.08469 C 95.820124,227.10325 95.667782,226.78458 95.813037,226.77218 C 95.720005,226.57074 95.549364,226.38562 95.492745,226.18926 C 95.827559,225.80111 95.186446,225.59746 94.923836,225.42683 C 94.403525,225.16595 94.905938,224.85833 95.115209,224.59632 C 95.235176,224.21507 95.777291,224.41169 95.921866,224.72725 C 96.248176,224.81364 96.504455,225.01683 96.730854,225.29201 C 97.217822,225.44589 97.311017,224.9394 97.65776,224.74943 C 97.968852,224.42216 98.351487,224.94136 98.635179,224.72023 C 98.819943,224.32367 98.876969,223.87794 98.90352,223.44502 C 98.880798,223.07825 98.6225,222.81033 98.508847,222.47765 C 98.374929,222.15701 97.982011,221.92637 98.011895,221.52343 C 97.963636,221.29787 97.541381,221.14862 97.748592,220.8197 C 97.800587,220.50062 97.473523,220.26411 97.284341,220.60231 C 96.996785,220.90964 96.460014,220.39377 96.380439,220.93459 C 96.218952,221.02113 95.9874,220.82301 95.777528,220.84411 C 95.559614,220.60054 95.393914,220.24099 94.992518,220.16769 C 94.911371,220.33126 95.214371,220.80453 94.827077,220.59437 C 94.419506,220.34396 94.500099,221.10188 94.539852,221.34469 C 94.142806,221.79344 95.001928,222.33616 94.573148,222.74444 C 94.468941,222.92342 94.061411,223.35645 93.941883,222.95271 C 93.922318,222.71021 94.271753,222.28958 93.893588,222.19797 C 93.688275,222.60505 93.461457,222.99136 93.086978,223.27846 C 92.714919,223.45444 92.380497,223.73534 91.950188,223.71669 C 91.966219,223.9155 92.068042,224.48098 91.751188,224.16936 C 91.665252,223.86053 91.569813,223.50229 91.34454,223.27956 C 91.055093,223.17796 90.741271,223.16559 90.691276,223.52301 C 90.433446,223.86177 90.827105,224.08503 91.004192,224.3436 C 91.153523,224.55177 91.273485,224.74017 91.031524,224.85251 C 91.171581,225.26578 91.588989,225.52686 91.456065,226.03056 C 91.486696,226.38685 90.993421,226.53037 91.430283,226.79187 C 91.663743,226.95962 91.926763,226.18995 92.124354,226.28888 C 92.155461,226.59877 92.396152,226.29044 92.581338,226.39848 C 92.830762,226.02015 93.340454,226.26933 93.46753,226.63186 C 93.591669,226.89493 93.771579,227.06321 94.039856,227.06669 C 93.983674,227.32811 94.123888,227.45712 94.349075,227.35372 C 94.600624,227.62752 94.978242,227.45679 95.22194,227.25226 C 95.322482,227.14639 95.467115,226.97696 95.62619,227.08469 z "
            id="Arruda_dos_Vinhos" />
        <path style="fill:#ffefd5;fill-rule:evenodd;stroke:#b22222;stroke-width:0.25400001;stroke-opacity:1"
            d="M 110.02149,219.98668 C 110.52865,219.39315 110.67381,218.36865 111.56995,218.21377 C 112.37264,218.02652 111.34335,217.12543 111.2345,216.63351 C 111.02012,216.26398 110.36096,215.82019 111.10816,215.62268 C 110.64556,215.04819 110.1983,214.37369 109.38142,214.44356 C 108.78356,214.29702 108.27943,213.97935 107.87783,213.49327 C 107.46582,213.07726 106.62956,213.16323 106.69611,212.32449 C 106.73622,211.79239 106.15801,211.64966 105.93941,211.25886 C 105.47574,211.24385 104.53644,210.2494 105.10773,210.12129 C 105.97848,210.5492 105.92853,209.0285 106.72615,209.28502 C 107.32999,208.77585 107.81127,209.98724 108.38171,209.51546 C 108.66406,209.52869 108.96645,209.81142 109.13449,209.3577 C 109.8852,209.32833 110.17291,208.5095 109.85869,207.92773 C 109.60405,207.31959 109.22566,206.62664 108.56441,206.69821 C 108.21598,206.34515 107.45662,206.31632 107.34466,205.7149 C 106.99759,205.39842 107.1479,204.64385 106.44494,204.93691 C 105.84959,205.01993 105.58542,205.66359 105.06407,205.92314 C 104.8078,205.81198 104.46862,205.44144 104.0586,205.68558 C 103.3424,205.57256 102.81955,205.01708 102.25349,204.61336 C 101.42651,204.67469 100.84604,205.21177 100.82537,206.05073 C 100.89172,206.62876 100.39901,207.08876 100.37016,207.65536 C 100.3242,208.32897 99.677207,209.04837 100.22549,209.62903 C 100.823,209.31139 101.85959,209.64558 101.76216,210.40427 C 101.44693,211.2436 102.5842,211.1261 103.10034,211.39048 C 103.85328,211.56157 103.2259,212.59386 103.6595,213.10035 C 103.85067,213.68984 104.98265,214.50459 104.20005,214.9992 C 103.80275,215.41111 103.30459,215.56748 102.7425,215.51404 C 102.81594,216.16673 103.38235,216.81181 103.07247,217.45116 C 102.78671,217.68833 103.06367,218.43177 102.88012,218.43788 C 102.58287,217.90724 102.39683,219.21861 102.67118,219.40888 C 103.00615,219.89706 103.75853,219.55018 103.68171,220.30808 C 103.97398,220.97953 104.66174,219.81191 105.27412,219.98374 C 105.87802,219.69209 106.39802,220.13938 106.99342,220.23087 C 107.61502,220.45806 108.17285,219.92705 108.90493,220.12962 C 109.27583,220.11415 109.6472,220.02878 110.02149,219.98668 z "
            id="Azambuja" />
        <path style="fill:#ffefd5;fill-rule:evenodd;stroke:#b22222;stroke-width:0.25400001;stroke-opacity:1"
            d="M 92.004791,209.3577 C 92.268965,209.34259 92.746797,209.82308 92.689955,209.23852 C 92.917717,208.72166 93.126108,209.5901 93.496788,209.57468 C 93.740183,210.07035 94.352624,209.86616 94.557788,210.42602 C 95.024159,210.50571 95.427574,210.24677 95.80473,210.01178 C 96.241895,209.89372 96.84823,209.66961 97.229997,209.96206 C 97.512994,210.3417 97.81786,209.69416 98.230424,209.71892 C 98.564485,209.56295 99.13331,209.5305 99.139125,209.03169 C 99.579623,209.26687 100.12236,209.23056 100.11464,208.62427 C 100.3034,208.13629 100.30874,207.61638 100.50788,207.13409 C 100.80419,206.68966 100.81505,206.17251 100.87391,205.68067 C 101.21721,205.20382 101.22382,204.64238 101.22901,204.07547 C 101.23893,203.56356 101.69462,203.04915 101.44871,202.54825 C 101.13245,202.3375 100.76009,201.80584 100.48647,201.78529 C 100.01688,202.12043 99.475825,201.54915 99.001189,201.78527 C 98.452456,201.48543 98.336046,200.64838 97.665305,200.52342 C 97.01329,200.42607 96.736973,201.12794 96.237239,201.38043 C 95.928757,201.43648 95.691713,201.63341 95.49138,201.76136 C 95.305094,202.06528 94.674249,201.85869 94.648451,202.40435 C 94.612951,202.94797 93.911589,203.07997 93.787906,203.55805 C 93.846026,204.06489 93.501344,204.486 93.265622,204.91054 C 92.959622,205.25102 92.926115,206.03508 92.425789,206.02909 C 91.94072,205.54827 91.938866,206.80831 91.405556,206.55706 C 90.959496,206.61282 90.721353,207.24606 90.848151,207.59091 C 91.128989,208.01954 90.343772,208.60101 91.062237,208.69811 C 91.494085,208.6705 91.581152,209.30314 92.004791,209.3577 z "
            id="Cadaval" />
        <path style="fill:#ffefd5;fill-rule:evenodd;stroke:#b22222;stroke-width:0.25400001;stroke-opacity:1"
            d="M 73.883789,238.60368 C 73.994737,238.75525 74.186068,238.86586 74.240109,239.04642 C 74.306112,239.3754 74.372115,239.70438 74.438118,240.03336 C 74.194221,240.53775 73.937846,241.04043 73.701118,241.54568 C 73.74317,241.80601 73.770551,242.07593 73.828453,242.33035 C 74.360721,242.58662 74.89294,242.84863 75.430578,243.09225 C 75.96679,243.23258 76.5071,243.38289 77.040787,243.51736 C 77.443266,243.26543 77.84398,243.01046 78.245781,242.75735 C 79.186081,243.16171 80.13636,243.54407 81.050345,244.00644 C 81.494491,244.21997 81.938636,244.43349 82.382782,244.64702 C 82.378681,244.31253 82.403407,243.97874 82.418584,243.64605 C 82.291468,243.31315 82.038923,242.80302 82.499075,242.64989 C 82.396922,242.13992 83.23491,242.17783 83.094796,241.61752 C 83.244897,241.17447 82.628261,240.68703 83.083951,240.37497 C 83.417152,240.25664 83.239443,239.8759 83.349116,239.61534 C 83.042692,239.43784 82.914277,239.74367 82.643116,239.77835 C 82.584748,239.45673 82.486701,239.00269 82.044179,239.1523 C 81.757414,239.44998 81.290571,239.33364 81.00807,239.55928 C 80.797111,239.8228 80.171568,240.21609 80.167969,239.60062 C 80.147039,239.19136 79.478251,239.39358 79.356835,238.95678 C 79.149838,238.46641 78.709279,238.97699 78.398516,238.79828 C 78.156569,238.59542 77.860784,238.46044 77.572019,238.56721 C 77.391865,238.34317 77.341748,237.91509 76.934202,238.0979 C 76.538955,237.99938 76.1419,237.94314 75.729519,237.90368 C 75.313332,237.90694 74.839512,237.7288 74.460638,237.96012 C 74.268412,238.1741 74.086926,238.39792 73.883789,238.60368 z "
            id="Cascais" />
        <path style="fill:#ffefd5;fill-rule:evenodd;stroke:#b22222;stroke-width:0.25400001;stroke-opacity:1"
            d="M 94.955185,237.43268 C 94.928663,238.14263 94.941419,238.853 95.024165,239.55913 C 95.038957,239.96037 94.694897,240.2632 94.538001,240.61302 C 94.272701,241.06014 94.01891,241.51412 93.744858,241.95602 C 93.407503,242.16305 93.002829,242.22106 92.640069,242.37346 C 92.278568,242.47224 91.960991,242.65379 91.596887,242.72622 C 90.489477,243.00534 89.383784,243.29127 88.275192,243.56569 C 87.963214,243.38438 87.441934,243.2026 87.640501,242.74108 C 87.900346,242.37132 87.686598,241.87194 88.049632,241.53647 C 88.325691,241.2976 88.644976,241.08337 88.582702,240.69041 C 88.752177,240.39098 88.980843,240.02963 88.786258,239.68462 C 88.533206,239.41816 88.49008,238.96097 88.859114,238.77106 C 89.235116,238.78725 88.877978,238.32531 89.226902,238.35054 C 89.448423,238.02223 89.627613,237.65714 90.013474,237.48846 C 90.300902,237.27564 90.668471,237.19753 90.899802,236.91442 C 91.184123,236.66727 91.506695,236.46489 91.769197,236.19269 C 92.249361,236.16839 92.052229,236.78107 92.471642,236.83046 C 92.887869,237.07589 93.403515,236.9512 93.811398,237.22341 C 94.134791,237.46979 94.30064,237.89424 94.737967,237.54363 C 94.810611,237.50711 94.882205,237.46853 94.955185,237.43268 z "
            id="Lisboa" />
        <path style="fill:#ffefd5;fill-rule:evenodd;stroke:#b22222;stroke-width:0.25400001;stroke-opacity:1"
            d="M 94.955185,237.43268 C 94.960696,237.08014 94.937462,236.7235 95.070865,236.38919 C 95.248956,235.78255 95.383768,235.15941 95.589458,234.5633 C 95.844922,234.04909 96.100386,233.53489 96.35585,233.02069 C 96.105401,232.97797 95.817191,232.82719 95.942282,232.53527 C 96.042133,232.20161 95.471747,231.52056 95.154074,232.02919 C 94.745599,232.26662 94.430465,232.57518 94.321881,233.03456 C 94.253787,233.44549 93.334449,233.35649 93.830311,232.92507 C 94.451962,232.59853 93.434301,231.7407 94.191399,231.5972 C 95.068097,231.66594 94.502022,230.77523 94.259675,230.38461 C 94.040008,230.02447 93.800163,229.35769 94.501051,229.45463 C 94.942796,229.31701 95.358779,229.28273 95.836183,229.26467 C 96.448898,229.05306 96.014378,228.3578 96.241897,227.93166 C 96.39943,227.52307 95.646312,227.77283 95.70358,227.29702 C 95.480849,226.59068 94.85664,227.93035 94.432022,227.39318 C 94.201378,227.36109 93.959249,227.43363 94.039855,227.06635 C 93.505731,227.1378 93.522943,226.29233 93.018855,226.25169 C 92.754928,226.07435 92.57346,226.5336 92.279918,226.40577 C 92.130207,226.56259 92.094985,225.96153 91.932335,226.40572 C 91.436728,226.6952 91.509665,227.40851 90.954522,227.55534 C 90.826126,227.77258 90.269279,227.66149 90.400606,228.11206 C 90.367107,228.57042 89.930154,228.30627 89.778032,228.60276 C 89.349923,228.65042 89.252307,228.21542 89.064828,228.04645 C 88.716593,227.97076 88.355318,227.90656 87.996147,227.79985 C 87.890009,227.99375 87.6407,228.2775 87.502085,228.40491 C 87.596129,228.89625 87.904392,229.30693 87.885016,229.82091 C 87.752831,230.31587 87.832049,230.78133 87.677001,231.23853 C 87.291876,231.43233 87.177808,231.67596 87.379205,232.1095 C 87.600622,232.31757 87.668917,232.84105 87.228912,232.55052 C 87.016059,232.42459 86.926321,232.77534 86.735521,232.82468 C 86.807949,233.00579 87.367283,232.74553 87.040338,233.09131 C 87.017474,233.3915 87.523467,233.58662 87.566785,233.9735 C 87.794414,234.3408 88.429108,234.37332 88.819358,234.60786 C 89.309582,234.98854 89.964427,235.00506 90.444792,235.37051 C 90.789634,235.79137 91.308384,236.05525 91.806089,236.15944 C 92.248876,236.23058 92.043878,236.78479 92.520688,236.85243 C 92.963305,237.07538 93.492757,236.9655 93.896969,237.273 C 94.136817,237.58595 94.377375,237.82209 94.759149,237.53102 C 94.824494,237.49824 94.88984,237.46546 94.955185,237.43268 z "
            id="Loures" />
        <path style="fill:#ffefd5;fill-rule:evenodd;stroke:#b22222;stroke-width:0.25400001;stroke-opacity:1"
            d="M 86.445488,200.06868 C 86.694127,200.46833 87.025546,200.8041 87.550155,200.72069 C 87.866623,201.08831 88.292166,200.68914 88.564155,201.05369 C 89.021148,200.81007 89.756479,201.05901 89.648172,201.68767 C 89.713912,202.22098 89.848165,202.75865 90.225971,203.15406 C 90.295886,203.57077 89.491156,203.78022 89.788499,204.29719 C 89.78208,204.6556 89.318954,204.91817 89.620714,205.33405 C 89.651785,205.86101 90.350381,206.12664 90.205171,206.64705 C 90.192432,207.18181 90.771658,207.31013 90.883934,207.72657 C 91.022844,208.06595 90.64188,208.73073 90.427951,208.13965 C 90.309666,207.54508 89.611771,207.80337 89.515528,207.2268 C 89.205653,206.95221 88.688432,207.24449 88.331175,207.03535 C 87.999578,207.0886 87.147386,206.65129 87.345747,207.25092 C 87.577277,207.52666 87.226239,207.9233 87.550156,208.17002 C 87.376188,208.36432 86.951639,208.16575 86.692931,208.42925 C 86.264551,208.58858 85.834781,208.48405 85.410045,208.73146 C 85.00722,208.8164 84.871404,209.34201 84.523496,209.50441 C 84.324214,209.41059 84.149774,209.29129 84.111954,209.5965 C 83.852854,209.73844 83.461308,209.78523 83.318891,209.95066 C 82.730784,209.71718 83.17403,209.00042 82.720942,208.64581 C 82.447575,208.2251 82.039888,208.63962 81.671452,208.62233 C 81.524938,208.61718 81.214493,208.73704 81.382597,208.492 C 81.515102,208.08848 81.702983,207.69751 81.80054,207.28608 C 81.947345,205.66828 82.121998,204.05332 82.296814,202.43835 C 82.213593,202.24836 82.130371,202.05836 82.04715,201.86836 C 82.424883,201.79904 82.804492,201.77763 83.18615,201.80703 C 83.545875,202.10778 84.122338,202.00014 84.445179,202.25217 C 84.891551,202.03539 84.864155,201.38504 85.298609,201.28021 C 85.699489,201.09689 85.370131,200.54958 85.890233,200.46394 C 86.098092,200.36514 86.330818,200.23691 86.445488,200.06868 z "
            id="Lourinhã" />
        <path style="fill:#ffefd5;fill-rule:evenodd;stroke:#b22222;stroke-width:0.25400001;stroke-opacity:1"
            d="M 77.30619,226.93568 C 77.42367,226.57474 77.596518,226.21949 77.680619,225.85512 C 77.472633,224.46332 77.27501,223.06819 77.106857,221.67201 C 77.378265,220.47797 77.639882,219.28136 77.907524,218.08633 C 78.327751,217.8471 78.725792,217.49131 79.238854,217.54169 C 79.621376,217.96438 80.064136,218.15145 80.614853,217.97635 C 80.828685,218.37005 81.354711,218.0837 81.279332,218.64595 C 81.591293,219.03683 80.778723,219.00558 81.180476,219.43127 C 81.578652,219.74175 82.772,220.16325 81.937973,220.73541 C 81.960097,221.10219 82.795882,221.29873 83.258853,221.19934 C 83.796418,221.96739 84.170791,220.69536 84.043919,220.2046 C 84.155499,219.58082 84.511595,220.30644 84.622644,220.50814 C 85.273785,220.67686 86.10246,220.27047 86.376853,221.13802 C 86.851104,221.71004 87.576541,221.81492 87.906935,221.06777 C 88.632446,220.27567 88.747934,221.64104 89.055733,222.09892 C 89.216757,222.73482 89.346181,223.34768 89.033416,223.93978 C 89.26824,224.72639 87.601821,224.16118 87.776104,224.79351 C 88.315854,225.17651 86.80621,225.78225 87.731187,225.74435 C 87.952842,225.25594 88.794533,225.74526 88.834021,225.16547 C 89.217005,225.17785 89.622392,224.90556 89.961616,225.27122 C 90.137509,225.80787 90.665379,224.73092 91.043771,225.14702 C 91.781241,225.36163 91.294962,226.32699 91.293802,226.65692 C 91.856163,227.28604 90.773477,227.65307 90.429187,227.86301 C 90.475281,228.44429 89.940612,228.52767 89.575522,228.56423 C 89.135714,228.51278 89.315363,227.93318 88.850364,228.01814 C 88.51951,228.01039 87.875581,227.50705 87.783063,228.14319 C 87.080262,228.5269 88.125551,229.34878 87.870223,229.99903 C 87.660238,230.49951 88.004193,231.51411 87.18127,231.42564 C 87.1697,230.96202 86.806934,230.69204 86.300853,230.90501 C 85.987001,230.39342 85.584123,229.79078 85.321768,229.34802 C 84.674133,229.17091 84.56788,229.93639 83.98716,229.90072 C 83.66758,230.52049 83.140836,229.67986 82.735894,230.22965 C 82.278904,230.4232 81.919523,229.86712 81.495008,229.88254 C 81.261572,229.54865 81.165585,228.82349 80.614852,229.14869 C 80.408827,228.902 80.355978,228.58323 80.072363,228.7026 C 79.204547,228.61759 80.162369,227.34292 79.202519,227.19302 C 78.862247,226.42989 78.157919,226.81853 77.545694,226.89579 C 77.465863,226.90909 77.385997,226.92239 77.30619,226.93568 z "
            id="Mafra" />
        <path style="fill:#ffefd5;fill-rule:evenodd;stroke:#b22222;stroke-width:0.25400001;stroke-opacity:1"
            d="M 87.620491,234.12469 C 87.634903,234.46173 87.2575,234.33117 87.056651,234.4171 C 86.852759,234.47622 87.105652,234.61812 87.043154,234.76269 C 87.314493,234.82002 87.007064,235.20829 87.324388,235.24006 C 87.542823,235.38023 87.916822,235.20254 87.981056,235.529 C 88.059412,235.73978 88.13005,236.04255 87.93066,236.20806 C 87.739541,236.31754 87.867964,236.68245 87.953229,236.85624 C 88.083114,237.00681 88.242976,237.09961 88.167228,237.32134 C 88.220644,237.42639 88.364807,237.44588 88.358385,237.61177 C 88.516298,237.91292 88.96489,237.99234 89.014848,238.36192 C 89.106522,238.47479 89.395709,238.33677 89.351069,238.14804 C 89.505013,237.75225 89.929418,237.5816 90.243882,237.33666 C 90.464453,237.21534 90.695429,237.19947 90.84025,236.96742 C 91.138921,236.69627 91.487725,236.48416 91.769158,236.19336 C 91.914822,236.11499 91.543833,236.09278 91.469755,236.05748 C 91.068829,235.96773 90.754751,235.69009 90.478791,235.40185 C 90.265611,235.15964 89.953023,235.09776 89.655963,235.02974 C 89.227713,234.87092 88.861661,234.57748 88.420135,234.44871 C 88.152299,234.34453 87.895905,234.20775 87.620491,234.12469 z "
            id="Odivelas" />
        <path style="fill:#ffefd5;fill-rule:evenodd;stroke:#b22222;stroke-width:0.25400001;stroke-opacity:1"
            d="M 87.615189,243.14569 C 86.70708,243.13147 85.798971,243.11725 84.890862,243.10303 C 84.061803,243.62085 83.236767,244.14802 82.405197,244.66002 C 82.355381,244.58652 82.399667,244.46111 82.386828,244.36727 C 82.372776,244.1106 82.441051,243.85504 82.410345,243.60052 C 82.282468,243.37705 82.197841,243.00618 82.268275,242.80425 C 82.5554,242.76502 82.510869,242.43167 82.574611,242.29173 C 82.821524,242.20197 83.151404,241.98646 83.095896,241.68734 C 83.092087,241.40221 83.086364,241.10144 82.959622,240.84456 C 82.737146,240.58446 83.069603,240.36249 83.27686,240.24868 C 83.286294,239.97679 83.317925,239.70756 83.407985,239.48534 C 83.5246,239.32737 83.327419,238.86719 83.635859,239.11957 C 83.712884,239.46547 84.136855,239.40886 84.398231,239.30752 C 84.642133,239.10628 84.901678,239.10744 85.171824,239.26356 C 85.416104,239.30107 85.615701,239.47235 85.884194,239.41569 C 85.853654,239.58903 85.56029,239.9231 85.682612,239.91019 C 85.468516,240.04758 86.048667,240.12993 85.899435,240.37046 C 85.930313,240.53313 86.02825,240.15908 86.090861,240.35736 C 86.370658,240.19678 86.732539,240.0622 87.026784,240.26915 C 87.243081,240.43083 87.582753,240.31512 87.786379,240.48975 C 87.983874,240.70887 88.618965,241.01488 88.288342,241.33137 C 88.073279,241.54197 87.752421,241.7558 87.808024,242.10169 C 87.91629,242.37427 87.616185,242.5341 87.634935,242.79753 C 87.628351,242.91358 87.621785,243.02965 87.615189,243.14569 z "
            id="Oeiras" />
        <path style="fill:#ffefd5;fill-rule:evenodd;stroke:#b22222;stroke-width:0.25400001;stroke-opacity:1"
            d="M 85.884186,239.4157 C 85.795146,239.66886 85.390726,240.0743 85.978605,239.8506 C 86.705966,240.04684 86.525341,239.0302 86.427521,238.58998 C 86.192634,238.0441 86.267777,237.41931 86.717048,236.9967 C 86.690672,236.57593 86.93038,235.75992 87.495854,236.28302 C 88.284015,236.4175 88.189442,235.12214 87.40898,235.27124 C 87.01069,235.17045 87.214717,234.7341 86.952521,234.49034 C 87.470098,234.44094 87.835948,234.14902 87.412355,233.65192 C 87.280393,233.36963 86.794649,233.2351 87.151854,232.91502 C 87.00394,232.91232 86.474123,232.85265 86.934521,232.71602 C 86.96546,232.22442 87.825595,232.97832 87.50151,232.33209 C 87.116096,231.79422 87.38347,230.61964 86.412088,230.8902 C 86.02298,230.55858 85.586433,229.92313 85.41352,229.34802 C 84.877366,229.2275 84.617137,229.59407 84.280483,229.8514 C 83.874324,229.87367 83.614375,230.43249 83.197731,229.98224 C 82.73018,230.40877 82.262815,230.24971 81.799968,229.97234 C 81.192193,230.03332 81.339255,228.71658 80.614853,229.14869 C 80.408829,228.902 80.355979,228.58323 80.072364,228.7026 C 79.20455,228.61758 80.162368,227.34292 79.20252,227.19302 C 78.862273,226.42993 78.158006,226.81848 77.545816,226.89577 C 77.219908,226.85091 77.233174,227.2149 77.124569,227.43199 C 76.544782,228.98961 76.039404,230.57654 75.347105,232.08974 C 74.721382,233.52886 74.067289,234.95535 73.340353,236.34653 C 73.256553,236.5864 72.994654,236.80083 73.13733,237.07255 C 73.211266,237.38244 73.247262,237.71044 73.339188,238.01135 C 73.520744,238.20858 73.702301,238.4058 73.883858,238.60303 C 74.214316,238.31977 74.416029,237.77435 74.929687,237.84523 C 75.634672,237.86659 76.347541,237.99152 77.029853,238.07568 C 77.532779,237.94428 77.369989,238.83933 77.926295,238.52763 C 78.306009,238.87515 78.681203,238.82513 79.099353,238.75863 C 79.414017,239.00742 79.727169,239.36206 80.162187,239.45201 C 80.16307,240.52841 81.007337,239.36233 81.462593,239.41385 C 81.942811,239.09824 82.68133,238.98721 82.643187,239.77768 C 82.969933,239.48995 83.647771,239.7868 83.421521,239.11502 C 83.657526,238.97049 83.927009,239.68033 84.364602,239.31975 C 84.873463,238.85759 85.330511,239.4894 85.884186,239.4157 z "
            id="Sintra" />
        <path style="fill:#ffefd5;fill-rule:evenodd;stroke:#b22222;stroke-width:0.25400001;stroke-opacity:1"
            d="M 94.738785,220.51169 C 94.711824,220.04974 94.218038,219.8912 93.879901,219.74312 C 93.6585,219.53614 93.329725,219.45137 93.131787,219.73269 C 92.896148,219.86648 92.640008,219.73955 92.381866,219.866 C 92.096587,219.87913 91.690188,219.8469 91.678788,220.24002 C 91.437728,220.25556 91.036028,220.62311 91.204309,220.82297 C 91.590019,221.0861 90.960055,221.4842 90.673136,221.40336 C 90.421632,221.29635 90.085583,221.25077 89.831788,221.38101 C 89.690586,221.56218 89.951609,221.98644 89.645206,221.94473 C 89.42258,221.72879 89.19049,221.45125 89.25212,221.14536 C 89.054717,221.15542 88.846677,221.33144 88.745483,221.4331 C 88.869953,221.74721 89.100272,222.04472 89.135876,222.40357 C 89.131516,222.73457 89.291571,223.05164 89.244143,223.36286 C 89.052736,223.62805 89.024496,223.91646 89.060454,224.20568 C 88.791809,224.473 88.451883,224.37979 88.121493,224.45931 C 87.880727,224.51343 87.529531,224.6197 87.820974,224.87419 C 88.059736,225.10937 87.757625,225.21163 87.627879,225.37848 C 87.382156,225.48535 87.298976,225.90627 87.687903,225.74752 C 87.883767,225.4393 88.304665,225.51754 88.641516,225.45814 C 88.83268,225.48581 88.687109,225.01802 89.005003,225.17337 C 89.213517,225.23519 89.262968,224.90905 89.45845,225.11879 C 89.733256,225.03712 89.997442,225.15904 90.027546,225.43795 C 90.377829,225.46124 90.625748,224.83234 90.998581,225.14735 C 91.348133,225.20858 90.8118,224.7632 91.159966,224.74261 C 91.195015,224.52462 90.902877,224.12782 90.66477,224.01274 C 90.528457,223.72439 90.709826,223.40096 90.871311,223.22752 C 91.223089,223.15258 91.564562,223.33869 91.574324,223.71013 C 91.779491,223.85724 91.659444,224.35526 91.986454,224.24202 C 91.985567,223.9847 91.830527,223.60916 92.226221,223.71094 C 92.480339,223.54562 92.757561,223.48958 93.020991,223.3308 C 93.252379,223.14405 93.45192,222.91376 93.64459,222.69282 C 93.707373,222.47612 93.93844,221.93493 94.075507,222.39533 C 94.095761,222.62182 93.713116,223.06678 94.137799,223.1173 C 94.393124,223.03545 94.619419,222.74526 94.715327,222.48019 C 94.646435,222.12333 94.318599,221.7792 94.490456,221.40612 C 94.642277,221.17131 94.302975,220.58183 94.738785,220.51169 z "
            id="Sobral_de_Monte_Agraço" />
        <path style="fill:#ffefd5;fill-rule:evenodd;stroke:#b22222;stroke-width:0.25400001;stroke-opacity:1"
            d="M 77.907486,218.08669 C 77.791035,217.65643 77.603753,217.22838 77.525826,216.79669 C 77.847158,216.19033 78.222793,215.60433 78.496735,214.97719 C 78.696194,214.3504 78.85675,213.70347 79.078819,213.08835 C 79.491293,212.51338 80.003552,211.99806 80.239935,211.31784 C 80.663287,210.45414 81.008697,209.55848 81.324486,208.65068 C 81.862349,208.71871 82.496503,208.13814 82.826721,208.78474 C 83.023498,209.09304 82.925634,210.17417 83.454175,209.85206 C 83.750683,209.71763 84.162952,209.65181 84.268518,209.38575 C 84.888195,209.66403 85.121891,208.50688 85.84783,208.56861 C 86.409624,208.54323 87.093706,208.29688 87.55016,208.16968 C 87.305144,207.80309 87.462486,207.344 87.314826,206.93102 C 88.048707,207.09601 88.976795,206.9418 89.55391,207.30777 C 89.781393,207.80522 90.425379,207.72007 90.586285,208.36274 C 90.997099,208.72049 91.52405,208.83577 91.886605,209.32089 C 91.948896,209.88014 92.412379,210.55668 92.505319,211.2338 C 92.450274,211.97298 93.133342,213.03644 92.841168,213.53995 C 92.253534,213.42842 91.766597,214.37273 91.618444,214.99512 C 91.816666,215.83112 92.846831,215.92101 93.20435,216.66332 C 93.225947,217.26365 92.953448,217.92091 93.336786,218.49103 C 93.337186,218.99137 93.55262,219.983 92.710825,219.76935 C 91.964592,219.81772 91.533936,220.13773 91.117492,220.72902 C 91.75041,221.33633 90.554978,221.50435 90.122661,221.29935 C 89.53622,221.17934 90.028769,222.39117 89.458684,221.77018 C 89.227542,221.41234 89.281453,220.91669 88.812406,221.35197 C 88.647996,221.08937 88.326461,220.46564 87.906909,221.0681 C 87.461242,222.12077 86.404828,221.3864 86.043991,220.66018 C 85.508406,220.38564 84.464851,220.87731 84.314782,219.98705 C 83.690173,220.03096 84.391621,221.45294 83.490534,221.48227 C 83.195866,220.96524 81.965995,221.37028 81.937944,220.73573 C 82.771979,220.16357 81.578604,219.7421 81.180449,219.4316 C 80.838351,218.9697 81.658144,218.95884 81.216182,218.45142 C 81.327098,218.03698 80.69247,218.38374 80.614824,217.97668 C 79.761191,218.41905 79.266617,217.05697 78.426164,217.75226 C 78.266877,217.8835 78.080725,217.97589 77.907486,218.08669 z "
            id="Torres_Vedras" />
        <path style="fill:#ffefd5;fill-rule:evenodd;stroke:#b22222;stroke-width:0.25400001;stroke-opacity:1"
            d="M 98.016487,221.41669 C 98.515616,221.32914 98.76166,220.61777 99.255847,221.20135 C 99.867861,220.95536 99.348145,222.22515 100.15116,221.87353 C 100.5386,221.77221 100.82683,222.0617 100.94225,221.55975 C 101.36481,220.55604 102.46069,221.43374 102.94883,221.92369 C 103.43528,222.26673 103.2497,221.11864 103.62871,220.88861 C 104.01336,220.35452 104.69071,220.05525 105.35459,219.95879 C 105.98365,219.72734 106.5303,220.18211 107.15569,220.28118 C 107.71808,220.36113 108.01779,220.91542 108.54521,221.08145 C 108.35526,221.67641 107.6719,222.03315 107.49622,222.68422 C 107.40597,223.16775 107.70558,223.78081 106.96158,223.85284 C 106.1582,224.42565 107.77111,224.49305 108.1205,224.83902 C 107.7521,225.37137 106.93797,225.58235 106.35037,225.82819 C 105.62437,225.9551 105.80632,226.87207 105.92955,227.37607 C 105.64441,227.9812 104.83188,228.2912 104.85815,229.06648 C 104.91872,229.93441 104.35607,230.63241 103.81083,231.23836 C 103.35908,231.86356 103.10872,232.63084 102.49495,233.1286 C 102.11027,233.25864 102.10177,233.86695 101.94215,233.97054 C 101.78971,233.88954 101.6016,233.85254 101.46483,233.75169 C 101.22797,233.11383 100.93932,232.48997 100.71383,231.85069 C 100.8902,231.66974 101.14228,231.49732 101.24664,231.28483 C 101.17782,230.98962 101.1886,230.64229 101.07168,230.37858 C 100.85811,230.22495 100.60189,230.10972 100.4085,229.93768 C 100.49046,229.2905 100.61011,228.63941 100.50096,227.98831 C 100.46959,227.62788 100.43821,227.26744 100.40683,226.90701 C 100.1477,227.29258 99.843269,227.65906 99.612041,228.05638 C 99.497844,228.66462 99.397319,229.27688 99.274834,229.88269 C 98.708662,230.4914 98.082347,231.05729 97.489098,231.63776 C 97.214521,231.86431 96.80031,231.96773 96.692992,232.34178 C 96.580606,232.56809 96.468221,232.79439 96.355835,233.02069 C 95.671771,232.98921 96.198257,232.30322 95.722125,232.01518 C 95.375711,231.5469 94.695436,232.36509 94.4705,232.67881 C 94.500194,233.09423 93.791639,233.57811 93.717975,233.12147 C 94.253008,232.69306 93.846908,232.19579 93.942167,231.67301 C 94.590671,231.68541 94.911904,231.22894 94.426688,230.7002 C 94.151752,230.24326 93.655064,229.31312 94.608407,229.44544 C 95.142447,229.18834 96.443902,229.5264 96.157709,228.49131 C 96.093684,228.14391 96.535454,227.55068 95.879501,227.64568 C 95.402146,227.05485 96.092981,226.78579 95.481657,226.22734 C 96.044163,225.57213 94.258411,225.52172 94.808437,224.92373 C 95.083265,224.42485 95.629475,224.14164 95.970167,224.78467 C 96.480133,224.84921 97.007828,225.77223 97.392415,224.96446 C 97.788955,224.25407 98.800987,225.26537 98.797446,224.23617 C 98.988551,223.6442 98.882191,223.03056 98.519175,222.536 C 98.412567,222.14118 97.921475,221.91319 98.016487,221.41669 z "
            id="Vila_Franca_de_Xira" />
    </g>
    <!-- EO MUNICIPIOS -->
</svg>