<?xml version="1.0" encoding="UTF-8" standalone="no"?>
<!-- Creator: CorelDRAW -->
<svg xmlns:dc="http://purl.org/dc/elements/1.1/" xmlns:cc="http://web.resource.org/cc/"
    xmlns:rdf="http://www.w3.org/1999/02/22-rdf-syntax-ns#" xmlns:svg="http://www.w3.org/2000/svg"
    xmlns="http://www.w3.org/2000/svg" xmlns:sodipodi="http://inkscape.sourceforge.net/DTD/sodipodi-0.dtd"
    xmlns:inkscape="http://www.inkscape.org/namespaces/inkscape" xml:space="preserve" width="250" height="366"
    style="shape-rendering:geometricPrecision; text-rendering:geometricPrecision; image-rendering:optimizeQuality; fill-rule:evenodd; clip-rule:evenodd"
    viewBox="0 0 200 200" id="svg1627" sodipodi:version="0.32" inkscape:version="0.43"
    sodipodi:docname="Mapa_de_Portugal.svg" sodipodi:docbase="C:\Documents and Settings\Márcio Silva\Os meus documentos"
    version="1.0">
    <metadata id="metadata1927">
        <rdf:RDF>
            <cc:Work rdf:about="">
                <dc:format>image/svg+xml</dc:format>
                <dc:type rdf:resource="http://purl.org/dc/dcmitype/StillImage" />
                <dc:title>Munícipios de Portugal</dc:title>
                <cc:license rdf:resource="http://creativecommons.org/licenses/GPL/2.0/" />
                <dc:creator>
                    <cc:Agent>
                        <dc:title>Rei-artur (rei.artur@gmail.com)</dc:title>
                    </cc:Agent>
                </dc:creator>
            </cc:Work>
            <cc:License rdf:about="http://creativecommons.org/licenses/GPL/2.0/">
                <cc:permits rdf:resource="http://web.resource.org/cc/Reproduction" />
                <cc:permits rdf:resource="http://web.resource.org/cc/Distribution" />
                <cc:requires rdf:resource="http://web.resource.org/cc/Notice" />
                <cc:permits rdf:resource="http://web.resource.org/cc/DerivativeWorks" />
                <cc:requires rdf:resource="http://web.resource.org/cc/ShareAlike" />
                <cc:requires rdf:resource="http://web.resource.org/cc/SourceCode" />
            </cc:License>
        </rdf:RDF>
    </metadata>

    <sodipodi:namedview inkscape:window-height="582" inkscape:window-width="866" inkscape:pageshadow="2"
        inkscape:pageopacity="0.0" borderopacity="1.0" bordercolor="#666666" pagecolor="#ffffff" id="base"
        fill="#ffff00" inkscape:zoom="1.1338798" inkscape:cx="125" inkscape:cy="211.12313" inkscape:window-x="28"
        inkscape:window-y="117" inkscape:current-layer="layer7" showguides="true" inkscape:guide-bbox="true">
        <sodipodi:guide orientation="horizontal" position="329.9602" id="guide2648" />
        <sodipodi:guide orientation="horizontal" position="307.74672" id="guide2650" />
    </sodipodi:namedview>

    <defs id="defs1629">
        <metadata id="CorelCorpID_0Corel-Layer" />
        <sodipodi:namedview inkscape:guide-bbox="true" showguides="true" inkscape:current-layer="layer1"
            inkscape:window-y="-4" inkscape:window-x="-4" inkscape:cy="327.60442" inkscape:cx="146.08303"
            inkscape:zoom="17.548964" fill="#fa8072" id="namedview5974" pagecolor="#ffffff" bordercolor="#666666"
            borderopacity="1.0" inkscape:pageopacity="0.0" inkscape:pageshadow="2" inkscape:window-width="1024"
            inkscape:window-height="712" />
    </defs>

    <!-- <g inkscape:groupmode="layer" id="layer3" inkscape:label="fundo" style="display:inline" sodipodi:insensitive="true">
        <rect style="fill:#4169e1;fill-opacity:1;fill-rule:evenodd;stroke:none;display:inline" id="rect2247" width="200" height="200" />
    </g> -->

    <g inkscape:groupmode="layer" id="layer10" inkscape:label="----detalhes----" style="display:inline" />

    <!-- MUNICIPIOS -->
    <g inkscape:groupmode="layer" id="layer4" inkscape:label="Municipios" style="display:inline"
        sodipodi:insensitive="true" transform="translate(-305, -100) scale(3)">
        <path style="fill:#ffefd5;fill-rule:evenodd;stroke:#b22222;stroke-width:0.25400001;stroke-opacity:1"
            d="M 158.16949,63.392986 C 157.65484,63.000644 157.31761,62.312319 156.59061,62.183002 C 156.02176,62.291482 155.03711,61.73482 155.56917,61.129954 C 155.59502,60.632813 156.72032,60.380849 156.03735,59.864753 C 155.71161,59.3189 154.66626,59.76713 155.08805,58.834859 C 154.7546,58.050819 154.4801,59.655673 154.15659,59.954366 C 154.31962,60.814407 153.2721,60.604273 153.07374,61.263211 C 153.06576,61.81283 152.19009,61.552728 152.40244,62.17283 C 151.62291,62.827693 151.09038,61.664599 150.52816,61.400986 C 150.20065,61.064367 150.05643,60.628764 149.56988,60.991188 C 149.58217,61.626282 148.87267,61.873588 148.62969,61.214603 C 148.24432,61.126379 147.67015,60.571074 147.43182,60.730985 C 147.4941,61.10395 148.14223,61.880684 147.37749,61.545985 C 147.38007,62.077296 147.00612,63.083484 146.28878,62.623318 C 145.95016,62.371079 145.83183,63.089684 145.42182,62.704985 C 144.68099,62.480765 144.42193,63.397821 143.89598,63.734097 C 143.3984,64.153665 143.31945,64.768474 142.79567,65.191179 C 142.69193,65.714113 142.87226,66.285477 142.50229,66.768979 C 142.24812,67.120952 142.28328,67.632541 142.83249,67.394649 C 143.03829,67.923982 143.73727,67.464707 143.87893,68.03282 C 144.34326,68.304635 144.63081,68.401668 144.82795,67.835691 C 145.17595,67.350295 145.67315,67.083052 145.95866,66.613258 C 146.5195,66.305605 146.96011,67.017708 146.32388,67.300732 C 145.89843,67.900261 145.29828,68.289614 145.00569,68.879705 C 145.16453,69.160771 145.35101,68.620836 145.71149,68.806982 C 146.03754,69.008109 146.75233,68.429928 146.38149,69.114982 C 146.63355,69.227475 147.32232,69.461411 146.99715,68.959315 C 147.57012,68.637586 148.34403,68.949538 149.00715,68.770982 C 149.80656,68.741877 150.14532,69.801243 150.80715,70.128985 C 151.2935,70.342764 151.29566,71.773291 151.75228,70.909796 C 152.10505,70.153097 153.0803,70.315409 153.48631,69.614805 C 153.81384,69.015535 154.98927,69.098888 154.84415,69.761099 C 154.31173,70.473757 155.78938,71.201585 156.41458,70.753985 C 156.91513,70.209216 156.89914,69.311324 157.56919,68.847129 C 157.63445,68.132413 158.5736,68.080243 158.87329,67.458509 C 159.22322,67.085127 158.61491,66.798547 158.96201,66.414064 C 158.75338,65.93176 158.43933,65.578509 157.95216,65.312325 C 158.06541,64.676833 156.96795,64.382411 157.79833,63.886867 C 157.93948,63.741876 158.14351,63.611538 158.16949,63.392986 z "
            id="Amarante" />
        <path style="fill:#ffefd5;fill-rule:evenodd;stroke:#b22222;stroke-width:0.25400001;stroke-opacity:1"
            d="M 148.64549,77.353683 C 149.12135,77.599174 149.50577,78.068813 150.07557,77.99038 C 150.72131,78.111053 151.3202,78.059785 151.89684,77.754394 C 152.44253,77.772556 152.80763,77.26864 153.35316,77.245352 C 154.18312,77.219584 154.50323,76.153973 155.34193,76.150719 C 155.90617,76.145142 156.23583,75.330468 156.8611,75.769764 C 157.33132,75.981073 158.29344,76.109683 158.11565,75.323478 C 157.77937,74.713698 158.50963,74.321123 158.60449,73.841016 C 158.43679,73.353875 159.41054,73.179191 158.93343,72.605726 C 158.82894,72.045194 159.69596,71.527517 159.29249,70.87135 C 159.41906,70.357346 158.71481,69.92363 159.17594,69.460452 C 159.50154,68.873428 159.87995,68.241014 159.82377,67.544456 C 159.77512,67.223601 159.02687,66.925218 159.01407,67.15569 C 158.84945,67.781665 158.17514,68.034574 157.77149,68.426683 C 157.56786,68.77548 157.37453,69.203224 156.99282,69.477017 C 156.78954,70.026773 156.73301,70.874819 155.97509,70.902913 C 155.40505,70.90161 154.7807,70.532771 154.66974,70.00968 C 154.96464,69.735304 154.94087,69.470868 154.62082,69.314018 C 154.09265,68.896871 153.53953,69.569333 153.19139,69.931463 C 152.81916,70.330018 152.17217,70.212688 151.88631,70.729255 C 151.65778,71.294508 151.07683,71.380436 150.58777,71.568502 C 150.38528,72.065322 150.61381,72.63111 150.33031,73.109989 C 150.09519,73.575093 149.59613,73.786781 149.35149,74.257347 C 148.74344,74.361855 148.18047,74.739325 147.69829,75.142803 C 147.53168,75.588727 148.14575,75.854633 148.17504,76.282106 C 148.4165,76.591541 148.65196,76.94464 148.64549,77.353683 z "
            id="Baião" />
        <path
            style="fill:#ffefd5;fill-opacity:1;fill-rule:evenodd;stroke:#b22222;stroke-width:0.25446281;stroke-opacity:1"
            d="M 142.3753,56.039418 C 142.13144,56.233346 141.89408,56.581493 142.04347,56.951577 C 142.21174,57.408895 141.7005,57.270317 141.42648,57.251127 C 141.12024,57.242892 140.97334,57.242553 140.99779,57.542151 C 140.58599,57.723782 140.79601,58.216725 140.43427,58.418745 C 139.91785,58.506789 139.77248,59.105357 139.89864,59.553556 C 140.06534,59.928084 140.11505,60.377895 139.6829,60.578924 C 139.43026,60.832295 139.74684,61.220689 139.6829,61.455518 C 139.59356,61.705141 139.31144,61.83325 139.06554,62.013116 C 138.79247,62.249173 139.1288,62.660764 139.39903,62.758198 C 139.76973,62.956225 140.19058,62.781782 140.49688,62.613875 C 140.78301,62.79828 141.0187,63.1236 141.36323,63.275771 C 141.68535,63.557122 142.05567,63.458896 142.15615,63.052172 C 142.34772,62.835718 142.80103,63.013468 142.66643,63.314446 C 142.6017,63.683615 143.057,64.247499 143.47104,64.147915 C 143.94335,63.714641 144.39623,63.254888 144.81373,62.767079 C 145.14606,62.49799 145.57585,62.950032 145.91298,62.739103 C 146.06065,62.3447 146.40182,62.78602 146.69566,62.739103 C 146.97363,62.650159 147.26062,62.473687 147.2437,62.11146 C 147.35711,61.857071 147.31233,61.402253 147.69748,61.64336 C 147.93722,61.525563 147.47542,61.108061 147.45473,60.877005 C 147.33937,60.447705 146.72577,60.562699 146.71315,60.081376 C 146.70412,59.666049 146.28259,59.698563 146.10082,59.483181 C 145.93894,59.139713 146.24085,58.894448 146.35128,58.637894 C 146.14143,58.269547 145.50134,58.406664 145.28684,58.011755 C 145.06614,57.683594 145.32357,57.202098 144.99877,56.943951 C 144.79014,56.606602 144.32392,56.928468 144.19766,56.801855 C 144.13274,56.352733 143.75257,55.93563 143.28682,56.159554 C 142.98272,56.125025 142.68592,55.978387 142.3753,56.039418 z "
            id="Felgueiras" />
        <path style="fill:#ffefd5;fill-rule:evenodd;stroke:#b22222;stroke-width:0.25400001;stroke-opacity:1"
            d="M 123.24049,71.885384 C 123.44298,71.48731 123.43697,70.632122 124.01796,70.85084 C 124.41326,70.683375 124.96171,70.965664 125.07649,70.455055 C 125.48425,70.403607 126.41552,70.097007 126.47054,70.833074 C 126.96591,71.172772 126.67491,72.199662 127.33306,72.261149 C 127.87631,71.974689 127.69591,73.079005 127.94207,73.426847 C 128.13806,73.848953 128.7164,73.748187 128.73256,74.33185 C 129.00087,74.828864 128.58826,75.364844 128.97055,75.886413 C 129.11072,76.59892 130.12248,76.547254 130.148,77.364853 C 130.39262,77.813731 130.65208,78.521446 131.23061,78.095696 C 131.68775,77.901228 132.07143,77.156583 132.51073,77.839319 C 132.6961,78.116782 133.06769,78.023398 133.25382,78.368058 C 133.73509,78.38018 134.06735,79.167246 134.0807,79.580226 C 133.78926,80.053905 133.72377,80.56217 134.05082,81.029725 C 133.57045,81.314773 132.62174,80.454212 132.71082,81.355725 C 132.57276,81.907895 132.76882,82.482916 133.35052,82.608082 C 133.57704,83.048944 133.49111,83.676686 133.47436,84.106895 C 133.21471,84.29552 132.68135,84.080012 132.41485,83.997971 C 132.85677,83.486669 131.93278,83.177252 131.78291,82.708164 C 131.40038,82.67609 130.83173,82.622506 131.04323,82.078528 C 131.3385,81.607482 130.40516,81.298198 130.23853,80.839829 C 129.73794,80.418214 129.59418,79.785815 129.16151,79.288793 C 128.63967,79.051761 128.12028,79.780865 127.53086,79.679918 C 126.87078,79.821974 126.47238,79.183255 126.46602,78.602228 C 126.45938,77.949596 126.06101,77.478822 125.55558,77.103402 C 125.29396,76.60967 125.25516,75.824031 124.59619,75.606377 C 123.92918,75.859663 123.55017,74.992008 123.76701,74.549696 C 124.0827,74.120279 124.89982,74.126513 124.83382,73.406378 C 124.0924,73.708768 123.83312,72.776628 124.05515,72.247378 C 123.84479,72.028724 123.54498,71.890496 123.24049,71.885384 z "
            id="Gondomar" />
        <path
            style="fill:#ffefd5;fill-opacity:1;fill-rule:evenodd;stroke:#b22222;stroke-width:0.25446281;stroke-opacity:1"
            d="M 136.74005,60.641538 C 136.5059,60.831296 136.08441,60.93354 136.0513,61.267677 C 136.13403,61.740375 136.68333,61.966964 136.97277,62.326005 C 137.28107,62.67527 136.8197,63.102351 136.62443,63.406091 C 136.37692,63.628879 136.36062,63.96323 136.74005,64.022687 C 137.05291,64.20063 136.50993,64.51812 136.4679,64.766878 C 136.1896,65.106036 136.09027,65.581495 136.27045,65.963717 C 136.22485,66.29944 136.07395,66.968346 136.60914,66.920484 C 136.96365,66.935043 137.43914,67.141947 137.5265,67.491748 C 137.47437,67.816013 137.48976,68.26511 137.91443,68.266711 C 138.22529,68.418321 138.51127,68.134789 138.79821,68.030446 C 139.22554,68.039912 139.128,67.656737 139.02546,67.372529 C 139.0935,67.088725 139.49909,67.586659 139.71123,67.577888 C 140.171,67.697886 140.59932,67.954666 141.07395,67.97587 C 141.49163,67.889178 141.76068,67.497655 142.17914,67.385067 C 142.51196,67.114653 142.53443,66.553627 142.73408,66.162792 C 142.8663,65.769814 142.54176,65.290897 142.96252,64.985632 C 143.13031,64.781643 143.57164,64.51672 143.40909,64.241455 C 143.14737,64.060447 142.75316,63.93038 142.71968,63.58439 C 142.73055,63.231084 142.47557,62.672055 142.13811,63.06175 C 142.10426,63.510459 141.65845,63.544071 141.3784,63.297617 C 141.02104,63.16632 140.73776,62.745661 140.50001,62.583452 C 140.20145,62.925079 139.65939,62.893715 139.28993,62.694193 C 138.96661,62.551671 138.82024,62.032553 139.22589,61.890236 C 139.34912,61.835065 139.67587,61.587254 139.35582,61.724772 C 138.99701,61.793254 138.64194,61.687159 138.34891,61.479152 C 138.0438,61.297097 137.75548,61.089027 137.46011,60.891993 C 137.20004,60.862734 136.89215,60.85337 136.74005,60.641538 z M 139.52637,61.674667 L 139.55767,61.64336 L 139.52637,61.674667 z M 139.6829,61.330291 C 139.62997,61.596948 139.73083,61.569745 139.71421,61.330291 L 139.6829,61.330291 z M 139.6516,61.549439 C 139.54777,61.582012 139.6946,61.607206 139.6516,61.549439 z "
            id="Lousada" />
        <path style="fill:#ffefd5;fill-rule:evenodd;stroke:#b22222;stroke-width:0.25400001;stroke-opacity:1"
            d="M 121.13949,63.917984 C 121.72514,63.9048 122.03277,64.471275 122.31649,64.895985 C 122.75267,64.797493 123.02613,65.190639 123.24444,65.500072 C 123.52414,65.853484 123.57333,66.438292 124.17589,66.272963 C 124.71332,66.214125 124.3287,65.222482 125.01469,65.363548 C 125.35212,65.445085 125.92383,65.545168 125.83551,65.019408 C 125.97374,64.683758 126.60895,64.12855 126.74418,64.754464 C 126.93862,65.3011 126.60105,65.813168 126.19098,66.12522 C 126.11872,66.581579 125.91277,67.042787 125.75559,67.478485 C 125.62054,67.783678 125.3363,68.391247 125.01878,68.342321 C 124.69673,68.016922 124.20789,68.144783 124.19982,68.625986 C 124.4685,68.975441 124.06691,69.408904 124.41098,69.777095 C 124.62056,70.063583 124.53454,70.548003 124.42026,70.769748 C 124.10328,70.972287 123.54097,70.5975 123.5456,71.091308 C 123.31567,71.449608 123.35372,71.985145 122.84499,71.994859 C 122.28093,71.980236 122.69031,71.255827 122.52544,70.911157 C 122.54854,70.601508 122.24296,70.365502 122.12538,70.163563 C 121.83172,70.080518 121.43237,70.146574 121.62536,69.736487 C 121.69899,69.413577 121.64969,68.916351 121.2113,69.078756 C 120.97174,68.682487 120.3797,68.952273 120.28639,68.440897 C 120.23408,68.258889 119.88355,67.821593 119.83582,68.263987 C 119.90763,68.703846 119.60331,68.877669 119.20275,68.726227 C 118.94542,68.733212 118.67921,68.852531 118.74604,68.457492 C 118.76928,67.772237 117.86941,68.22162 117.51816,67.919653 C 117.39965,67.522134 117.676,67.243211 117.89808,67.018888 C 117.74529,66.646689 118.0007,65.976645 118.47783,66.217654 C 118.95579,66.025813 119.26743,66.883987 119.63663,66.394465 C 119.62457,66.007916 119.45177,65.51238 119.8067,65.19632 C 120.17076,64.865882 120.7733,65.251304 121.02502,64.765909 C 121.18639,64.513062 121.13663,64.201279 121.13949,63.917984 z "
            id="Maia" />
        <path style="fill:#ffefd5;fill-rule:evenodd;stroke:#b22222;stroke-width:0.25400001;stroke-opacity:1"
            d="M 144.55249,68.318382 C 144.82206,68.698554 144.92601,69.48616 144.20775,69.42304 C 143.9149,69.369937 143.69885,69.073056 143.45633,69.350719 C 142.85965,69.325707 142.2235,69.295355 141.9439,69.945677 C 141.37163,70.161145 140.81771,71.353423 141.69192,71.545724 C 142.21152,71.782298 142.71655,71.989123 142.78885,72.627833 C 143.21988,72.752165 143.92536,72.770185 143.43773,73.346216 C 143.15162,73.901894 142.49822,74.128705 141.95368,74.303228 C 141.22113,74.46775 141.99948,75.343357 141.62245,75.664857 C 141.42817,76.291366 140.63829,76.441176 140.52671,77.085278 C 140.11889,77.846331 139.03963,77.341679 138.56745,78.008464 C 138.13515,78.399206 138.2335,78.99368 138.74532,79.096027 C 138.97519,79.657894 139.4673,80.27725 140.09782,79.816381 C 140.63561,79.56419 141.32174,79.615583 141.61882,78.983381 C 142.43929,79.286235 142.46315,77.884113 143.29826,77.957857 C 143.95873,77.784189 144.47228,78.486809 145.10673,78.320051 C 145.77429,78.359139 146.47388,78.905685 147.12619,78.351599 C 147.68253,78.070803 148.00577,77.473099 148.64482,77.353717 C 148.71612,76.762696 148.07475,76.419873 148.04715,75.88705 C 147.2984,75.467311 147.85349,74.735645 148.49082,74.642184 C 148.99335,74.28105 149.52652,74.233625 149.85458,73.645431 C 150.45821,73.31711 150.47939,72.565665 150.52498,71.976007 C 150.26948,71.185208 151.80951,71.639826 151.29298,70.871421 C 151.1509,70.278018 150.56201,70.058846 150.2296,69.610676 C 149.82658,69.212702 149.37576,68.546942 148.73752,68.801423 C 148.21248,68.98162 146.93056,68.462609 147.07735,69.235147 C 146.86173,69.301249 146.15584,69.232201 146.48982,68.752715 C 146.11339,68.947223 145.57328,68.693692 145.18555,68.896399 C 144.98437,69.226909 144.95223,68.510722 145.25626,68.433355 C 145.80944,68.101856 146.13075,67.346325 146.70715,66.924048 C 146.58734,66.47734 146.04541,66.402402 145.72504,66.815402 C 145.52914,67.348847 144.79254,67.580971 144.58392,68.19121 C 144.57342,68.233594 144.56283,68.275958 144.55249,68.318382 z "
            id="Marco_de_Canaveses" />
        <path style="fill:#ffefd5;fill-rule:evenodd;stroke:#b22222;stroke-width:0.25400001;stroke-opacity:1"
            d="M 117.84449,66.597984 C 117.97447,66.917836 117.88557,67.184912 117.58132,67.335115 C 117.45071,67.595828 117.43956,68.068315 117.84026,68.039173 C 118.16444,68.039117 118.81935,67.95806 118.74638,68.45749 C 118.70838,68.728381 118.84114,68.832779 119.07636,68.71927 C 119.37427,68.756439 119.93818,68.895629 119.81055,68.396547 C 119.7202,68.00835 120.18043,67.975889 120.21222,68.336671 C 120.36939,68.546619 120.44121,68.891858 120.79708,68.804857 C 121.09399,68.856978 121.22391,69.226775 121.5614,69.074983 C 121.6832,69.369929 121.65788,69.681865 121.58004,69.993486 C 121.58957,70.170516 121.82807,69.995406 121.95036,70.138401 C 122.30697,70.075464 122.20583,70.505098 122.49815,70.617651 C 122.54421,71.013804 122.59086,71.395822 122.53415,71.794651 C 122.09388,71.616819 121.56157,71.686269 121.15828,71.929471 C 120.76778,72.158404 120.43514,71.725461 120.05294,71.800537 C 119.74494,71.911522 119.46876,72.25933 119.11671,72.143573 C 118.6865,71.944604 118.5806,72.440627 118.25563,72.577509 C 118.09418,72.599844 118.01684,72.78183 117.89463,72.879246 C 117.81659,72.839732 117.75214,72.665891 117.67936,72.574361 C 117.41863,72.166041 117.12176,71.779323 116.88062,71.359508 C 116.6611,70.921626 116.41748,70.491883 116.21282,70.048973 C 116.26878,69.711368 116.31499,69.370749 116.36715,69.031975 C 116.16575,68.656903 115.94255,68.290158 115.75449,67.909981 C 115.72481,67.195585 115.68191,66.480847 115.64715,65.766319 C 115.98564,65.64752 116.35609,65.651557 116.67482,65.475316 C 117.10443,65.526651 117.05523,65.984303 117.09624,66.290639 C 117.28975,66.484433 117.57381,66.587429 117.84449,66.597984 z "
            id="Matosinhos" />
        <path
            style="fill:#ffefd5;fill-opacity:1;fill-rule:evenodd;stroke:#b22222;stroke-width:0.25400001;stroke-opacity:1"
            d="M 129.9585,67.340385 C 130.27161,67.273067 130.75026,67.683461 130.82729,67.247333 C 130.99298,66.823371 131.47649,66.908313 131.77549,66.685461 C 132.07776,66.650142 132.35742,66.905631 132.63707,66.967969 C 132.87028,67.173023 132.52345,67.36222 132.37441,67.424136 C 132.27885,67.708191 132.75511,67.435238 132.91839,67.52425 C 133.29771,67.406687 133.62585,67.128248 133.95174,66.948254 C 134.16709,66.810033 134.0968,66.512553 134.42795,66.593448 C 134.87926,66.573537 135.3328,66.328173 135.75775,66.472363 C 136.036,66.525424 136.08893,66.97968 136.26442,66.988333 C 136.37152,66.753991 136.0981,66.430585 136.25425,66.141141 C 136.34273,65.834181 136.03104,65.556605 136.20909,65.24084 C 136.28163,64.941421 136.55962,64.739851 136.62889,64.453605 C 136.77563,64.275138 137.02334,64.025949 136.63874,63.972883 C 136.15574,63.85309 136.61261,63.399397 136.79789,63.192604 C 136.97001,62.974687 137.18476,62.577178 136.96353,62.358413 C 136.73179,61.987724 136.26419,61.816063 136.09916,61.418337 C 136.09492,61.002231 135.52188,61.060695 135.25758,61.266611 C 134.98196,61.457189 134.63823,61.563305 134.31406,61.434397 C 133.97266,61.392294 133.69482,61.131481 133.36858,61.106919 C 133.01082,61.22747 132.70513,61.671599 133.02692,61.978786 C 133.36484,62.288697 132.96288,62.59327 132.89182,62.896417 C 132.76845,63.308184 132.20637,63.340634 131.85077,63.404048 C 131.59503,63.588104 131.19145,63.694006 131.14381,64.047777 C 131.06216,64.341354 131.00032,64.65627 130.84603,64.931361 C 130.6288,65.321857 130.53451,65.758871 130.31926,66.158004 C 130.23965,66.445121 130.22369,66.748641 130.07616,67.016383 C 130.02474,67.118764 129.96179,67.222326 129.9585,67.340385 z "
            id="Paços_de_Ferreira" />
        <path
            style="fill:#ffefd5;fill-rule:evenodd;stroke:#b22222;stroke-width:0.2544629;stroke-miterlimit:4;stroke-dasharray:none;stroke-opacity:1"
            d="M 128.8895,74.673988 C 128.60685,75.148427 128.89422,75.640217 129.05844,76.108195 C 129.31635,76.578652 130.0854,76.613441 130.1232,77.291101 C 130.3507,77.758646 130.63325,78.533642 131.22995,78.095628 C 131.68953,77.90612 132.06807,77.154312 132.51007,77.839249 C 132.69544,78.116709 133.06702,78.023333 133.25316,78.367988 C 133.86075,78.20678 133.86711,79.723957 134.39888,79.238732 C 134.33171,78.736716 134.29114,78.334516 134.14313,77.866874 C 134.06383,77.4145 133.88452,76.884364 133.57316,76.520808 C 133.22082,76.305778 132.73394,75.636651 133.32009,75.412682 C 133.63234,75.161458 134.48912,74.749483 133.85308,74.44211 C 133.48548,73.91898 133.71052,73.323267 134.31429,73.184833 C 134.64398,72.898657 134.86993,72.322494 135.32986,72.656736 C 136.00377,72.271887 134.96051,71.448625 135.68735,71.040673 C 135.83617,70.930465 136.05483,70.532487 136.04916,70.961984 C 136.57243,70.982474 137.01362,70.3839 137.01949,69.875317 C 137.13656,69.208384 137.7498,69.112185 138.09502,68.578603 C 138.42911,68.083935 137.21558,68.357878 137.5027,67.683943 C 137.65912,67.198443 136.9932,66.927141 136.55173,66.908773 C 136.29759,66.843315 136.20013,67.214257 136.09441,66.782567 C 135.81496,66.252632 135.2506,66.464176 134.79162,66.53016 C 134.39574,66.582595 134.11566,66.578434 133.95107,66.948187 C 133.4809,67.258734 132.97222,67.593645 132.38416,67.575651 C 132.23484,67.329199 133.04704,67.196106 132.56516,66.90565 C 132.17829,66.860567 131.82443,66.49435 131.47511,66.835361 C 130.85905,66.847118 130.60857,67.520581 130.75487,68.035734 C 130.73506,68.645692 130.51155,69.238454 130.22027,69.778114 C 129.94111,70.081999 130.11497,70.350192 130.30838,70.57859 C 130.26982,71.037727 129.36978,70.901685 129.87129,71.290412 C 130.02786,71.718849 130.4182,72.016009 130.50816,72.464651 C 129.97606,72.702777 129.82521,73.305169 129.51433,73.748258 C 129.30323,74.046912 129.17551,74.449042 128.8895,74.673988 z "
            id="Paredes" />
        <path style="fill:#ffefd5;fill-rule:evenodd;stroke:#b22222;stroke-width:0.25400001;stroke-opacity:1"
            d="M 138.19649,68.336388 C 138.58222,68.056684 139.41583,68.072361 139.03128,67.428937 C 139.05746,66.973923 139.71612,67.789549 140.05578,67.665967 C 140.59265,67.909671 141.20398,68.215166 141.6918,67.641776 C 142.17505,67.226538 142.82058,67.374608 143.21694,67.687763 C 143.7821,67.602617 143.94168,68.273742 144.55249,68.318385 C 144.82206,68.698555 144.92601,69.48616 144.20775,69.42304 C 143.9149,69.369937 143.69885,69.073057 143.45633,69.350718 C 142.85965,69.325702 142.22351,69.295362 141.94391,69.945678 C 141.37163,70.161147 140.81771,71.353422 141.69192,71.545723 C 142.21152,71.782298 142.71655,71.989121 142.78885,72.627832 C 143.31445,72.71976 143.90744,72.846716 143.38937,73.432175 C 143.04172,73.926245 142.41738,74.214325 141.83616,74.311718 C 141.26125,74.684156 142.06573,75.394602 141.56787,75.734211 C 141.34462,76.350572 140.58897,76.517834 140.46231,77.176403 C 139.99591,77.836234 138.94696,77.344389 138.52146,78.069236 C 138.07928,78.516154 138.55196,79.101908 138.05019,79.55896 C 137.88488,80.592654 136.70509,80.280558 136.21819,80.934756 C 135.97152,81.580834 135.11851,82.104324 134.67315,81.345109 C 134.10832,81.105488 133.55036,80.571132 133.93679,79.900975 C 134.051,79.563547 134.14897,79.364674 134.39889,79.238789 C 134.33008,78.594788 134.21802,78.069979 134.03294,77.438066 C 133.93482,76.789818 133.38741,76.438216 133.07843,75.923859 C 132.83609,75.292453 134.25041,75.140854 134.05582,74.622686 C 133.58157,74.324455 133.47698,73.349599 134.17638,73.281702 C 134.60928,73.055981 134.79823,72.28305 135.32987,72.65679 C 135.99114,72.238914 134.93116,71.337765 135.78414,70.948785 C 136.05712,70.418115 135.9885,71.251917 136.36895,70.912304 C 137.00569,70.573219 137.02307,69.824818 137.27316,69.241706 C 137.68523,69.134306 138.06688,68.736429 138.19649,68.336388 z "
            id="Penafiel" />
        <path style="fill:#ffefd5;fill-rule:evenodd;stroke:#b22222;stroke-width:0.25400001;stroke-opacity:1"
            d="M 122.53349,71.794685 C 122.64791,72.222663 123.07815,71.828993 123.35103,71.892293 C 123.62766,71.949881 124.18432,72.103135 124.01587,72.48119 C 123.8066,72.747104 124.15013,72.958312 124.11536,73.231243 C 124.1878,73.555026 124.56482,73.411893 124.79663,73.406977 C 124.92101,73.602561 124.7264,74.015604 124.44716,74.057934 C 124.26615,74.106317 124.25395,74.362433 124.01849,74.275685 C 123.85069,74.424284 123.68278,74.813985 123.46501,74.549424 C 123.18383,74.317731 122.94509,74.69648 122.68383,74.685687 C 122.27389,74.648179 121.82515,74.449647 121.43616,74.674018 C 121.05142,74.470853 120.64913,74.282592 120.22722,74.174865 C 119.9277,74.09418 119.68907,74.252671 119.42738,74.360735 C 119.21919,74.344353 119.00611,74.283477 118.79723,74.250187 C 118.69421,74.240797 118.59118,74.231406 118.48816,74.222015 C 118.41862,73.995864 118.37185,73.759598 118.2883,73.539667 C 118.15225,73.324339 118.0162,73.109012 117.88016,72.893684 C 117.97671,72.793017 118.07327,72.69235 118.16982,72.591682 C 118.50295,72.602226 118.56214,72.103014 118.86305,72.122342 C 119.13917,72.149304 119.42272,72.221322 119.662,72.021082 C 119.87966,71.880765 120.16196,71.663819 120.42094,71.844329 C 120.6079,72.019988 120.96728,72.021405 121.18024,71.913645 C 121.45609,71.753219 121.79055,71.680401 122.10751,71.705713 C 122.24951,71.73532 122.39144,71.765325 122.53349,71.794685 z "
            id="Porto" />
        <path style="fill:#ffefd5;fill-rule:evenodd;stroke:#b22222;stroke-width:0.25400001;stroke-opacity:1"
            d="M 114.24049,58.485683 C 114.66541,58.455443 115.09324,58.704137 115.19321,59.099894 C 115.57492,59.181604 116.34165,58.858446 115.87332,58.430449 C 115.76343,58.084067 115.24845,57.717927 115.78729,57.497731 C 116.18845,57.224197 116.64837,56.855827 116.55431,56.350421 C 116.33137,55.974117 116.42041,55.560884 116.77475,55.29366 C 116.92805,55.061627 117.03505,54.641306 117.35837,54.993191 C 117.71156,55.377217 118.12478,55.676131 118.535,55.953251 C 118.67785,56.434523 119.46625,55.676757 119.62589,56.153202 C 119.96187,56.385407 119.99175,56.8228 120.24673,57.145146 C 120.48835,57.354981 120.85729,57.801684 121.17113,57.800096 C 121.53788,57.49911 121.89997,57.285019 122.37161,57.22906 C 122.82845,57.172377 122.88665,56.639671 122.44731,56.499193 C 122.23959,56.195296 122.06295,55.872523 121.6822,56.118222 C 121.20543,56.025941 120.82862,55.723679 120.41229,55.497947 C 119.92585,55.610474 119.55437,55.265372 119.61009,54.784124 C 119.46062,54.382934 119.18929,54.019948 118.87861,53.723936 C 118.58698,53.500549 118.12767,53.325856 117.79065,53.517945 C 117.4955,53.743877 117.02147,53.945453 116.95208,53.410369 C 116.68501,52.953879 116.15999,52.887329 115.71692,53.009301 C 115.14589,52.94488 115.07785,51.897345 114.49812,52.177202 C 114.1975,52.093512 113.94063,51.877728 113.6115,51.887865 C 113.40655,51.799568 113.3568,51.91934 113.35936,52.109231 C 113.23719,52.940344 113.11924,53.772201 112.93429,54.59225 C 112.872,54.931404 112.785,55.271752 112.73549,55.610016 C 113.1275,56.642705 113.52238,57.674381 113.91549,58.70668 C 114.02382,58.633017 114.13217,58.559337 114.24049,58.485683 z "
            id="Póvoa_de_Varzim" />
        <path
            style="fill:#ffefd5;fill-opacity:1;fill-rule:evenodd;stroke:#b22222;stroke-width:0.25446281;stroke-opacity:1"
            d="M 132.79538,57.855221 C 132.5305,58.12197 132.34595,58.517245 132.04401,58.763122 C 131.73814,59.078233 131.30978,59.249238 130.91696,59.420567 C 130.39871,59.395634 130.32051,58.652458 129.82122,58.606587 C 129.47486,58.808168 128.9563,58.48995 128.66286,58.857042 C 128.28806,58.997037 127.53792,58.669709 127.4732,59.264033 C 126.9955,59.314428 126.68491,59.838884 126.79744,60.296166 C 126.64154,60.690849 127.33826,60.92148 127.19165,61.449053 C 127.13262,61.917147 127.50705,62.48819 127.09751,62.895637 C 126.59626,63.226969 127.15864,63.926012 126.7343,64.294649 C 126.44532,64.535541 127.00549,65.136047 126.72183,65.52542 C 126.35446,65.948518 126.91132,66.433548 126.90391,66.914176 C 126.96811,67.329077 127.5144,67.810192 127.96735,67.757118 C 128.562,67.601214 129.14148,67.316988 129.7586,67.372529 C 130.27593,67.135361 130.17423,66.448607 130.39318,66.006445 C 130.57412,65.526219 130.80286,65.074702 130.98028,64.597593 C 131.08665,64.147712 131.23457,63.612448 131.73574,63.466487 C 132.20827,63.328888 132.79084,63.283659 132.97772,62.73783 C 133.45961,62.284571 132.73472,61.895877 132.95728,61.464024 C 133.1826,60.918315 133.72276,61.181596 134.10378,61.363801 C 134.5016,61.552694 134.99205,61.525145 135.29993,61.205063 C 135.68414,61.062588 136.18863,61.228525 136.4446,60.831355 C 136.88246,60.757101 136.82995,60.232446 136.9592,59.890171 C 136.79801,59.639655 136.23646,59.488248 136.42698,59.076191 C 136.595,58.806064 136.8743,58.296905 136.36129,58.514704 C 135.84425,58.382546 135.70855,58.802757 135.34206,59.001754 C 134.86174,59.248844 134.31172,59.408858 133.85981,59.170112 C 133.55213,59.179968 132.98397,59.673896 133.04583,59.076191 C 133.07853,58.748487 133.65137,58.213621 133.51504,58.082228 C 133.18339,58.180759 133.06481,57.911246 132.79538,57.855221 z "
            id="Santo_Tirso" />
        <path style="fill:#ffefd5;fill-rule:evenodd;stroke:#b22222;stroke-width:0.25400001;stroke-opacity:1"
            d="M 121.68249,60.785385 C 121.88651,61.041205 122.2087,60.911934 122.21509,60.614058 C 122.54282,60.371075 122.99925,60.564414 123.34849,60.387051 C 123.65063,60.674061 124.0409,60.381632 124.35519,60.599229 C 124.67457,60.776288 125.01383,60.12204 125.3003,60.454056 C 125.57829,60.867947 125.97176,60.353267 126.33003,60.542356 C 126.56324,60.629184 126.8492,60.427093 126.94233,60.755052 C 127.17958,60.945064 127.27624,61.194736 127.14545,61.476178 C 127.1226,61.862404 127.40846,62.227853 127.29929,62.611965 C 127.13716,62.839139 126.83547,63.006387 126.85982,63.325054 C 126.88027,63.641362 127.00396,64.063079 126.72544,64.298491 C 126.44894,64.46269 126.14197,64.595354 125.92303,64.844728 C 125.74045,65.061628 125.90566,65.527667 125.48186,65.426645 C 125.18999,65.431857 124.81393,65.236493 124.59813,65.507376 C 124.4404,65.722466 124.60204,66.06409 124.34076,66.196034 C 124.14542,66.335654 123.67753,66.327526 123.57252,66.089113 C 123.48143,65.793956 123.26275,65.552545 123.09227,65.289288 C 122.89756,65.048008 122.65852,64.812121 122.31616,64.89572 C 122.0462,64.502539 121.78107,63.979866 121.2495,63.924019 C 120.98281,63.871955 120.97555,63.454076 120.84581,63.235429 C 120.74264,62.930454 120.57726,62.653064 120.46716,62.352067 C 120.49298,61.939234 120.71454,61.567796 120.87952,61.195923 C 120.98618,60.927626 121.2565,60.447225 121.22972,61.001611 C 121.3427,61.110715 121.55765,60.831761 121.68249,60.785385 z "
            id="Trofa" />
        <path style="fill:#ffefd5;fill-rule:evenodd;stroke:#b22222;stroke-width:0.25400001;stroke-opacity:1"
            d="M 129.9585,67.340385 C 129.36915,67.346883 128.76115,67.433962 128.23816,67.720718 C 127.7968,67.926257 127.45339,67.674803 127.15758,67.350432 C 126.82359,67.162729 126.89791,66.759957 126.81216,66.435415 C 126.74521,66.158078 126.48313,65.5993 126.2318,66.078748 C 126.0737,66.492551 125.99031,66.999443 125.77043,67.407972 C 125.67301,67.775988 125.36837,68.252651 125.06347,68.375723 C 124.81596,68.098938 124.23026,68.037828 124.2492,68.531375 C 124.17043,68.749271 124.44819,68.969252 124.24098,69.206586 C 124.22963,69.659829 124.71043,70.03703 124.49075,70.487967 C 124.29142,70.875487 125.04507,70.9185 124.96083,70.527384 C 125.27544,70.449393 125.63401,70.298939 126.02712,70.337299 C 126.4931,70.406864 126.39728,70.893338 126.70574,71.150717 C 126.88151,71.519895 126.81693,72.035303 127.2057,72.282384 C 127.42033,72.247425 127.59521,72.009092 127.68633,72.349747 C 127.78422,72.807019 127.79234,73.393892 128.17908,73.712478 C 128.63845,73.703965 128.64422,74.242338 128.83259,74.560706 C 129.02563,74.82085 129.19949,74.186574 129.3464,74.033046 C 129.61589,73.601986 129.84503,73.140666 130.13696,72.726939 C 130.38876,72.573925 130.67638,72.359969 130.37037,72.082846 C 130.04553,71.885051 130.11098,71.489362 129.83736,71.25257 C 129.6311,71.115512 129.67516,70.921471 129.94016,70.998054 C 130.29967,70.7848 130.41352,70.450676 130.03083,70.219387 C 130.22031,69.660074 130.62815,69.163383 130.66449,68.553717 C 130.78398,68.237017 130.85523,67.629841 130.58943,67.436714 C 130.38217,67.389441 130.17067,67.354726 129.9585,67.340385 z "
            id="Valongo" />
        <path id="Vila_do_Conde" class="fil5 str2"
            d="M 121.10349,57.851985 C 121.10349,58.185318 121.07816,58.326652 121.28449,58.612652 C 121.28816,58.760985 121.29549,58.913319 121.30249,59.065319 C 121.44049,59.202986 121.36416,59.673652 121.36416,59.843986 C 121.53816,60.032319 121.68282,60.517653 121.68282,60.785319 C 121.56716,60.850652 121.36782,61.038986 121.24816,61.038986 C 121.19049,60.941319 121.21216,60.825319 121.21216,60.712986 C 121.17582,60.712986 121.17582,60.712986 121.15782,60.694986 C 121.06716,60.785319 120.32482,62.233986 120.48782,62.396986 C 120.48782,62.433319 120.57816,62.596319 120.57816,62.632319 C 120.81016,63.041652 120.91516,63.512652 121.13949,63.917989 C 121.13949,64.352656 121.21216,64.696656 120.79549,65.004319 C 120.71616,65.004319 120.57116,65.087986 120.50582,65.022652 C 120.15482,65.022652 119.61849,65.105986 119.61849,65.583985 C 119.54249,65.659985 119.61149,65.931652 119.56416,66.025652 C 119.67649,66.192319 119.69849,66.362652 119.56416,66.507319 C 119.45949,66.507319 119.36149,66.561653 119.23849,66.561653 C 118.88716,66.188653 118.92682,66.217653 118.47782,66.217653 C 118.22816,66.05132 118.11582,66.217653 117.93449,66.387986 C 117.91282,66.427986 117.87316,66.568986 117.84416,66.597986 C 117.58716,66.597986 117.21416,66.452986 117.06549,66.253986 C 117.06549,66.054653 117.11982,65.547653 116.79382,65.547653 C 116.75416,65.522319 116.71416,65.496986 116.67449,65.475319 C 116.52582,65.558653 116.21816,65.656319 116.05149,65.656319 L 115.64682,65.766319 L 115.59682,64.799319 L 115.07916,62.724319 L 115.07616,62.709653 L 115.07482,62.698986 L 115.07449,62.690986 L 114.93849,60.788656 L 114.93816,60.773323 L 114.96516,60.32599 L 114.46016,60.51599 L 113.91582,58.70666 L 114.24082,58.48566 C 114.57749,58.48566 115.12782,58.626993 115.12782,59.046993 C 115.21849,59.24266 116.05149,58.981993 116.05149,58.721326 C 115.82716,58.431326 115.74716,58.054993 115.49016,57.797659 C 115.58449,57.609659 115.74016,57.529659 115.91382,57.417326 C 116.09849,57.254326 116.28316,57.091659 116.46782,56.928659 C 116.46782,56.751326 116.45716,56.700326 116.59482,56.548326 C 116.59482,56.378326 116.46782,56.185993 116.46782,56.023326 C 116.23982,55.794993 116.72516,55.356993 116.83016,55.233659 C 116.91716,55.106992 116.92782,54.972992 117.02916,54.846326 C 117.34816,54.846326 117.81149,55.454659 118.03249,55.642993 C 118.21349,55.736993 118.55015,55.78066 118.55015,56.041326 C 118.57215,56.070326 118.59749,56.099326 118.62282,56.131659 C 118.81482,56.131659 119.47015,55.928992 119.54615,56.004992 C 119.54615,56.033992 119.54615,56.062992 119.54615,56.095659 C 119.77082,56.269659 119.90849,56.254992 119.90849,56.620659 C 120.04249,56.754659 120.24882,57.033659 120.25982,57.218326 C 120.56749,57.388659 120.79215,57.667326 121.10349,57.851993 L 121.10349,57.851985 z "
            style="fill:#ffefd5;fill-rule:evenodd;stroke:#b22222;stroke-width:0.25400001;stroke-opacity:1" />
        <path style="fill:#ffefd5;fill-rule:evenodd;stroke:#b22222;stroke-width:0.25400001;stroke-opacity:1"
            d="M 129.79549,80.377686 C 129.66157,80.839556 129.14747,81.030961 128.80682,80.649352 C 128.61054,80.825593 127.72523,80.671805 128.1111,81.067456 C 128.48468,81.046438 128.98067,81.237436 128.66713,81.679969 C 128.52776,81.964152 128.28974,82.223601 128.67858,82.490918 C 128.78794,83.077595 128.28713,83.431194 127.80826,83.666441 C 127.21248,84.128909 127.12643,83.164424 126.63296,83.015746 C 126.43836,82.624115 126.09438,82.270717 125.99282,81.826353 C 125.97257,81.457254 125.76601,81.533399 125.59449,81.790019 C 125.12447,81.651583 124.79191,82.238285 124.63967,82.61457 C 124.63818,83.120938 124.41208,83.461394 123.8722,83.272997 C 123.43983,83.15246 123.08495,83.446534 122.62612,83.400701 C 122.03024,83.695046 122.41293,82.523715 121.77382,82.550686 C 121.35463,82.885834 120.73278,82.696064 120.36149,83.130019 C 120.24387,83.152657 119.93762,83.464481 119.9621,83.269292 C 119.98814,83.000221 120.05091,82.727373 119.92111,82.474329 C 119.74589,81.894125 119.54722,81.318068 119.38616,80.735352 C 119.34235,80.116713 119.34799,79.491643 119.27274,78.877092 C 119.15294,78.288538 119.01615,77.701539 118.90682,77.112022 C 118.9367,76.76794 119.01884,76.417448 119.00616,76.075815 C 118.83371,75.457885 118.66127,74.839954 118.48882,74.222023 C 118.82855,74.218598 119.15731,74.367571 119.4882,74.346135 C 119.89768,74.025853 120.43163,74.18787 120.85845,74.3969 C 121.35798,74.810391 121.89705,74.449251 122.47079,74.654573 C 122.8866,74.758141 123.52956,74.165437 123.70951,74.865096 C 123.73699,75.380334 124.05116,75.760814 124.5962,75.60636 C 125.16679,75.818566 125.35346,76.482827 125.46727,77.002121 C 125.75923,77.391515 126.33019,77.600316 126.37916,78.134603 C 126.48969,78.636378 126.46641,79.287861 126.95062,79.602612 C 127.52972,79.803573 128.15173,79.6052 128.66093,79.305689 C 129.28614,78.931203 129.51565,79.89449 129.77283,80.289733 L 129.79549,80.3777 L 129.79549,80.377686 z "
            id="Vila_Nova_de_Gaia" />
    </g>
    <!-- EO MUNICIPIOS -->
</svg>