<?xml version="1.0" encoding="UTF-8" standalone="no"?>
<!-- Creator: CorelDRAW -->
<svg xmlns:dc="http://purl.org/dc/elements/1.1/" xmlns:cc="http://web.resource.org/cc/"
    xmlns:rdf="http://www.w3.org/1999/02/22-rdf-syntax-ns#" xmlns:svg="http://www.w3.org/2000/svg"
    xmlns="http://www.w3.org/2000/svg" xmlns:sodipodi="http://inkscape.sourceforge.net/DTD/sodipodi-0.dtd"
    xmlns:inkscape="http://www.inkscape.org/namespaces/inkscape" xml:space="preserve" width="250" height="366"
    style="shape-rendering:geometricPrecision; text-rendering:geometricPrecision; image-rendering:optimizeQuality; fill-rule:evenodd; clip-rule:evenodd"
    viewBox="0 0 200 200" id="svg1627" sodipodi:version="0.32" inkscape:version="0.43"
    sodipodi:docname="Mapa_de_Portugal.svg" sodipodi:docbase="C:\Documents and Settings\Márcio Silva\Os meus documentos"
    version="1.0">
    <metadata id="metadata1927">
        <rdf:RDF>
            <cc:Work rdf:about="">
                <dc:format>image/svg+xml</dc:format>
                <dc:type rdf:resource="http://purl.org/dc/dcmitype/StillImage" />
                <dc:title>Munícipios de Portugal</dc:title>
                <cc:license rdf:resource="http://creativecommons.org/licenses/GPL/2.0/" />
                <dc:creator>
                    <cc:Agent>
                        <dc:title>Rei-artur (rei.artur@gmail.com)</dc:title>
                    </cc:Agent>
                </dc:creator>
            </cc:Work>
            <cc:License rdf:about="http://creativecommons.org/licenses/GPL/2.0/">
                <cc:permits rdf:resource="http://web.resource.org/cc/Reproduction" />
                <cc:permits rdf:resource="http://web.resource.org/cc/Distribution" />
                <cc:requires rdf:resource="http://web.resource.org/cc/Notice" />
                <cc:permits rdf:resource="http://web.resource.org/cc/DerivativeWorks" />
                <cc:requires rdf:resource="http://web.resource.org/cc/ShareAlike" />
                <cc:requires rdf:resource="http://web.resource.org/cc/SourceCode" />
            </cc:License>
        </rdf:RDF>
    </metadata>

    <sodipodi:namedview inkscape:window-height="582" inkscape:window-width="866" inkscape:pageshadow="2"
        inkscape:pageopacity="0.0" borderopacity="1.0" bordercolor="#666666" pagecolor="#ffffff" id="base"
        fill="#ffff00" inkscape:zoom="1.1338798" inkscape:cx="125" inkscape:cy="211.12313" inkscape:window-x="28"
        inkscape:window-y="117" inkscape:current-layer="layer7" showguides="true" inkscape:guide-bbox="true">
        <sodipodi:guide orientation="horizontal" position="329.9602" id="guide2648" />
        <sodipodi:guide orientation="horizontal" position="307.74672" id="guide2650" />
    </sodipodi:namedview>

    <defs id="defs1629">
        <metadata id="CorelCorpID_0Corel-Layer" />
        <sodipodi:namedview inkscape:guide-bbox="true" showguides="true" inkscape:current-layer="layer1"
            inkscape:window-y="-4" inkscape:window-x="-4" inkscape:cy="327.60442" inkscape:cx="146.08303"
            inkscape:zoom="17.548964" fill="#fa8072" id="namedview5974" pagecolor="#ffffff" bordercolor="#666666"
            borderopacity="1.0" inkscape:pageopacity="0.0" inkscape:pageshadow="2" inkscape:window-width="1024"
            inkscape:window-height="712" />
    </defs>

    <!-- <g inkscape:groupmode="layer" id="layer3" inkscape:label="fundo" style="display:inline" sodipodi:insensitive="true">
        <rect style="fill:#4169e1;fill-opacity:1;fill-rule:evenodd;stroke:none;display:inline" id="rect2247" width="200" height="200" />
    </g> -->

    <g inkscape:groupmode="layer" id="layer10" inkscape:label="----detalhes----" style="display:inline" />

    <!-- MUNICIPIOS -->
    <g inkscape:groupmode="layer" id="layer4" inkscape:label="Municipios" style="display:inline"
        sodipodi:insensitive="true" transform="translate(-245,-320) scale(2)">
        <path style="fill:#ffefd5;fill-rule:evenodd;stroke:#b22222;stroke-width:0.25400001;stroke-opacity:1"
            d="M 178.7215,211.16869 C 179.27982,210.8657 179.56822,210.37101 179.3352,209.73743 C 179.82732,208.93199 178.90264,208.33444 178.22737,208.09297 C 177.3907,208.36718 176.52313,208.17871 175.75204,207.75581 C 175.16017,207.30095 174.47678,207.07268 173.85202,206.67675 C 172.97576,206.16789 172.12844,205.60112 171.35244,204.95541 C 170.54126,204.64388 169.56406,204.22384 169.27501,203.32211 C 168.97875,202.69867 168.56839,202.13527 168.07176,201.64745 C 167.22949,201.26194 166.55159,200.38427 165.54453,200.41976 C 164.69882,200.51816 164.32526,199.20465 163.43758,199.57085 C 163.08863,200.15262 163.16609,200.92135 163.11826,201.61083 C 162.82446,202.21853 162.09701,202.54132 161.47928,202.70464 C 160.78584,202.76803 160.354,203.29035 160.95025,203.83729 C 161.28371,204.65319 160.85871,205.40062 160.50549,206.09836 C 160.83856,206.88603 162.28688,205.88314 162.32744,206.64704 C 161.67289,206.9093 161.42236,207.5702 162.18061,207.86922 C 162.15798,208.63737 163.80804,207.96659 163.18804,208.8523 C 162.41071,209.29346 163.4581,209.95391 163.35782,210.253 C 162.52304,210.1818 162.77668,211.33525 163.50129,210.95764 C 163.85166,210.75369 164.48932,210.52442 164.70935,210.61732 C 164.44732,211.12579 165.54167,211.46467 164.81515,211.67568 C 165.21774,212.15208 164.87087,213.46958 165.84311,212.95182 C 166.42121,213.2245 166.71925,212.28914 167.19744,212.65641 C 167.32292,213.58227 168.37686,213.15654 168.97982,213.32335 C 169.6221,213.69533 170.25464,213.78052 170.97149,213.79436 C 171.13878,214.29657 171.97526,214.32287 171.88333,213.60325 C 172.1442,213.30822 172.2573,212.77811 172.4124,212.61224 C 172.8397,212.59182 172.81066,211.88195 173.26049,212.3637 C 173.59072,211.76989 174.11854,211.91949 174.57123,212.1198 C 175.33766,211.98065 176.0504,211.71096 176.67188,211.25653 C 177.41776,210.63314 177.92656,210.39588 178.7215,211.16869 z "
            id="Alter_do_Chão" />
        <path style="fill:#ffefd5;fill-rule:evenodd;stroke:#b22222;stroke-width:0.25400001;stroke-opacity:1"
            d="M 200.3205,214.42169 C 200.01319,214.40757 199.86801,214.21437 199.80559,213.92974 C 199.68924,213.68762 199.5898,213.44469 199.73324,213.19027 C 199.93782,212.46661 200.19522,211.75454 200.25712,210.99969 C 200.30089,210.59323 200.40945,210.1805 200.42082,209.77702 C 198.8847,209.29283 197.28725,209.00573 195.75589,208.49503 C 195.32302,208.43619 195.11012,208.00931 194.79606,207.75169 C 194.61355,207.56842 194.39686,207.246 194.36902,207.69243 C 194.30896,208.41538 193.43833,208.15959 192.98798,208.51869 C 192.32103,208.66391 191.61444,208.61408 190.9837,208.75619 C 190.34308,209.44523 189.59538,208.60477 188.96003,208.71355 C 188.52121,208.92688 188.13158,208.86274 187.72033,208.66773 C 187.69285,209.16883 188.65714,209.38342 188.76391,209.91756 C 188.19521,210.28297 188.17409,211.02863 187.32316,210.93267 C 186.98107,211.38879 186.33077,212.06267 187.18299,212.37595 C 187.63881,212.83937 188.46456,213.24843 188.48183,213.93835 C 188.10436,214.47489 187.76173,215.05537 187.56766,215.70027 C 187.8516,216.04871 188.46165,216.37152 188.8265,216.50445 C 189.14845,215.83003 189.23137,217.00849 189.17297,217.31687 C 189.38304,217.71795 190.21007,217.22122 190.64262,217.60564 C 191.51529,217.58056 191.1366,219.43079 191.92303,218.75123 C 192.35816,218.0241 193.13863,218.50904 193.76944,218.22857 C 194.54519,218.04544 195.21328,218.9253 196.02092,218.89725 C 196.84056,219.06275 197.06462,219.89221 197.7025,220.24073 C 198.28513,220.35462 198.87103,220.05131 199.23632,220.6455 C 199.99094,220.71653 199.2416,221.90482 200.16116,221.63402 C 200.76584,221.29664 201.3962,220.95732 201.3745,220.22168 C 201.0635,219.78554 201.56542,219.49755 201.5373,219.17464 C 201.1766,218.62573 200.64916,218.24119 200.21604,217.80435 C 199.7864,217.46626 199.61699,217.03545 199.9059,216.51295 C 199.84654,216.0029 200.05513,215.56842 200.48957,215.29814 C 200.34697,214.84818 199.92695,214.9187 200.3205,214.42169 z "
            id="Arronches" />
        <path style="fill:#ffefd5;fill-rule:evenodd;stroke:#b22222;stroke-width:0.25400001;stroke-opacity:1"
            d="M 161.6825,207.5107 C 162.28447,207.86443 162.38166,208.46301 163.15103,208.34757 C 163.71712,208.65904 162.3417,209.44804 163.21249,209.89994 C 163.99154,210.29706 162.0018,210.53346 163.09482,210.96902 C 163.73568,211.1324 164.87966,209.91271 164.79682,211.15736 C 165.5008,211.51609 164.50545,211.67246 165.0409,212.18854 C 164.88882,213.29365 165.68797,212.9498 166.39049,212.96103 C 166.81771,213.72889 165.60801,214.88159 166.93232,214.92073 C 167.31528,215.82132 167.98579,213.81144 167.79782,215.0382 C 168.04714,215.52822 168.58884,215.96518 168.94349,216.11168 C 168.42871,216.86006 168.88675,217.87768 168.58783,218.59 C 168.54053,219.5664 168.87392,217.88746 169.35387,218.72399 C 169.98568,219.01666 170.48418,219.57505 169.54882,219.91254 C 168.69556,220.36819 170.30196,221.22731 169.29465,221.81534 C 168.62941,222.11447 167.50918,221.89817 166.6377,221.98752 C 166.10245,222.10068 165.68356,221.54823 165.40182,222.28636 C 164.96129,222.21549 164.4378,222.07338 164.24282,222.64836 C 163.30008,223.33032 163.17836,220.95098 162.14887,221.29383 C 161.55118,221.7169 161.77134,222.84115 161.13916,223.12635 C 160.94853,222.51371 159.99126,223.46684 160.0028,222.41839 C 159.96019,221.94876 159.07018,221.87245 159.51093,222.55994 C 159.42323,223.36545 160.18144,224.34701 158.80429,224.46996 C 158.18468,225.00604 157.98794,223.63601 157.40866,224.20469 C 156.83592,224.43297 156.145,224.05104 156.07141,225.01864 C 155.22643,225.58348 154.51406,226.59354 153.47559,226.13727 C 152.97089,226.46421 152.38718,226.36199 152.70385,225.68001 C 153.27799,225.13619 152.6321,224.46602 153.11208,223.79592 C 152.99898,222.88795 151.31765,223.15912 151.58163,221.89985 C 151.02844,221.7326 150.54485,221.5921 150.05749,221.16369 C 149.18997,221.4705 149.14242,222.48197 149.09616,223.25383 C 149.73396,224.37904 146.9728,225.07441 147.65784,223.60011 C 147.55938,222.9369 147.33666,222.20022 147.47065,221.64415 C 146.58047,221.55724 147.16499,220.0871 147.19179,219.4107 C 147.7655,218.56309 148.66408,217.95108 148.76829,216.81444 C 149.39326,215.93212 150.11542,215.10705 150.56449,214.10903 C 151.33905,213.58281 152.12906,214.58829 153.04493,214.30046 C 153.70237,215.02547 154.44678,213.93535 155.16383,214.35536 C 155.80248,213.96103 156.84061,213.79419 156.40058,212.77357 C 155.30818,212.13134 156.6299,211.07458 156.68425,210.31673 C 156.68771,209.30959 157.79479,208.86727 158.68468,208.70967 C 159.32568,209.08645 159.9513,208.77134 159.52749,208.01769 C 159.7004,207.61386 159.8312,206.75355 160.27016,207.52869 C 160.92671,207.96818 160.99046,207.50129 161.6825,207.5107 z "
            id="Avis" />
        <path style="fill:#ffefd5;fill-rule:evenodd;stroke:#b22222;stroke-width:0.25400001;stroke-opacity:1"
            d="M 199.7085,221.63467 C 200.32106,221.66992 201.02418,221.23249 201.30216,220.69302 C 201.41884,220.28248 201.09093,219.63605 201.5677,219.35998 C 201.40167,218.85768 200.88175,218.32912 200.40136,218.06032 C 200.09348,217.56218 199.47184,217.24031 199.88039,216.59352 C 199.95688,216.13833 199.87795,215.57429 200.44424,215.38782 C 200.55452,214.98229 199.87022,214.85756 200.30874,214.44557 C 200.53681,214.4487 200.82244,214.58361 201.07261,214.63735 C 201.36518,214.67921 201.66615,214.91857 201.9497,214.74887 C 203.05882,214.34016 204.15659,213.88739 205.25615,213.46336 C 206.16061,214.04356 207.08618,214.59766 207.98616,215.18236 C 208.51891,216.06692 209.07223,216.94182 209.60216,217.82703 C 209.77341,218.48629 209.98715,219.14268 210.13315,219.8037 C 209.68202,220.53899 209.20459,221.26146 208.8677,222.0591 C 208.58278,222.62049 208.35176,223.21464 208.03448,223.75637 C 207.6065,224.34139 207.13535,224.90149 206.73427,225.50202 C 206.48595,226.07925 206.25499,226.66737 205.99615,227.23801 C 205.62988,227.47863 205.26998,227.72971 204.90616,227.97435 C 204.98345,228.12632 205.41872,228.37777 205.05562,228.40737 C 204.62499,228.65177 204.41473,228.06908 204.01816,228.13535 C 204.11051,227.48354 203.40009,227.11022 203.21321,226.54147 C 203.03089,225.88659 202.91466,225.26877 202.59168,224.69925 C 202.46664,224.15005 201.5739,223.95587 201.72143,223.2295 C 201.26605,223.10921 200.92428,222.70909 200.42586,222.68623 C 200.14054,222.40613 199.57219,222.09677 199.7085,221.63467 z "
            id="Campo_Maior" />
        <path style="fill:#ffefd5;fill-rule:evenodd;stroke:#b22222;stroke-width:0.25400001;stroke-opacity:1"
            d="M 181.35249,182.06268 C 181.6747,182.27616 182.0346,182.45228 182.33649,182.68602 C 182.8076,183.40024 183.27871,184.11447 183.74982,184.82869 C 184.4647,185.01442 185.19939,185.1666 185.90248,185.37236 C 186.04718,185.77321 186.26882,186.15779 186.38515,186.56303 C 186.36726,186.90425 186.34937,187.24547 186.33148,187.58669 C 186.55181,187.68436 186.77215,187.78203 186.99248,187.8797 C 186.88685,188.32388 186.43973,188.24034 186.18193,188.52296 C 186.00083,189.01248 185.32768,187.97835 185.46431,188.78319 C 185.5962,189.33118 185.65468,189.87825 185.60687,190.46242 C 185.65028,190.92534 185.69276,191.34873 185.22215,191.63037 C 185.13361,192.18264 185.83482,192.16663 185.59191,192.70462 C 185.6074,193.18747 185.34407,193.6857 185.42448,194.14229 C 184.84222,194.13326 184.6619,194.96698 184.23978,195.04631 C 183.88779,194.46105 183.26718,194.51552 182.73313,194.76405 C 182.09155,194.68411 181.59129,195.3273 180.96872,195.25812 C 180.67116,195.67262 180.40298,195.96615 179.88986,195.62748 C 179.25376,195.19784 178.83955,196.17463 178.24272,195.91145 C 177.697,195.66137 178.11019,196.9061 177.50175,196.7331 C 177.03801,196.23414 176.42555,196.68881 175.91265,196.4004 C 175.3094,195.96031 175.88812,195.17847 175.91712,194.57324 C 176.11355,193.90462 175.89192,193.1875 175.67949,192.57203 C 175.80168,191.97168 175.43782,191.36423 175.52332,190.83227 C 175.69198,190.34879 176.04122,190.0289 176.58482,190.21803 C 177.20041,189.75465 176.87401,189.01105 176.80215,188.38903 C 177.16271,187.78581 175.91925,187.96383 176.31553,187.33602 C 175.97928,186.54167 177.05772,186.44763 177.60309,186.57268 C 178.04159,186.62186 177.69488,185.76517 177.35318,185.80036 C 177.18198,185.49484 177.15652,184.9892 177.20782,184.71336 C 177.75036,185.12011 178.46962,185.14834 179.04845,185.43766 C 179.58614,185.67503 180.22909,185.71891 180.7893,185.87718 C 181.09538,185.59284 181.29195,185.7531 181.58249,185.87203 C 181.33224,185.4086 181.01653,184.9388 181.45582,184.49603 C 181.27331,184.09215 181.3028,183.46443 181.15026,182.96031 C 181.35046,182.74839 181.19983,182.47047 181.33016,182.15273 C 181.3376,182.12272 181.34505,182.0927 181.35249,182.06268 z "
            id="Castelo_de_Vide" />
        <path style="fill:#ffefd5;fill-rule:evenodd;stroke:#b22222;stroke-width:0.25400001;stroke-opacity:1"
            d="M 182.3615,209.88269 C 181.33583,209.98303 180.48891,209.43244 179.62759,208.99411 C 178.89567,208.43487 178.13761,207.79786 177.15033,208.23986 C 176.1177,208.11958 175.33346,207.35814 174.39264,206.99994 C 173.26571,206.38033 172.21731,205.62137 171.18704,204.8719 C 170.20756,204.59804 169.35092,203.87965 169.0525,202.89302 C 168.51599,201.80167 167.45671,201.29012 166.52202,200.65142 C 165.70171,200.39315 164.79608,200.43668 164.22435,199.64599 C 163.35888,199.41517 162.39916,199.84682 161.51737,199.35383 C 160.59314,199.17434 159.74638,200.32668 159.31083,199.16302 C 159.90526,198.53676 161.05954,198.586 161.87461,198.22475 C 162.75616,197.74126 163.81349,197.52659 164.5709,196.85723 C 165.30506,196.45371 166.30119,196.24949 166.94372,195.6088 C 167.70649,195.03881 169.10566,196.40157 169.46641,195.21731 C 169.72543,194.49332 169.49768,193.15055 170.32408,192.91227 C 170.97348,192.55575 171.22257,191.72875 172.05158,192.00557 C 172.97312,192.20283 172.33846,193.34557 172.79913,194.04414 C 173.0666,194.90123 173.68422,195.32803 174.52177,195.427 C 175.19694,195.89599 175.93627,196.70113 176.83175,196.44579 C 177.93518,196.70824 178.19443,198.09609 179.18393,198.58709 C 179.96252,199.14272 180.82092,199.97062 180.38783,200.97368 C 179.65689,201.6494 179.25631,203.16428 179.86283,204.01568 C 179.60323,204.35704 177.97112,204.13007 178.33083,205.06601 C 178.99996,205.47417 180.38297,205.60087 179.6343,206.55978 C 179.69064,207.51489 180.95075,207.48386 181.09666,208.48681 C 181.39458,209.04257 182.97336,209.06967 182.3615,209.88269 z "
            id="Crato" />
        <path style="fill:#ffefd5;fill-rule:evenodd;stroke:#b22222;stroke-width:0.25400001;stroke-opacity:1"
            d="M 185.20448,231.41269 C 185.52066,230.66959 187.2205,230.89714 186.38149,230.00036 C 187.04431,229.72317 185.69539,228.71926 186.85216,228.85969 C 187.42182,228.858 188.64658,228.58263 187.95682,227.84569 C 188.89198,227.19915 187.92984,226.34248 187.83016,225.78135 C 188.20289,224.92233 188.41174,223.98976 188.89252,223.17466 C 189.65245,222.43954 189.07624,221.34468 189.92654,220.78253 C 190.83331,220.42145 190.93949,219.09141 191.81545,218.85552 C 192.39793,218.02542 193.47029,218.39391 194.29499,218.21461 C 195.11437,218.84784 196.2197,218.74657 196.99249,219.46902 C 197.31128,220.76417 198.7961,219.85529 199.38866,220.71811 C 199.83905,221.2656 199.48156,222.38661 200.50457,222.73496 C 201.32872,222.81226 201.77091,223.29765 202.01062,224.02886 C 203.03234,224.6721 202.84759,226.01809 203.44616,226.9947 C 204.05547,227.6153 204.05236,228.60828 205.06154,228.40545 C 205.37651,228.24794 205.50388,228.7765 205.73149,228.92636 C 205.79904,229.33933 205.94229,229.76161 205.96849,230.17303 C 205.6841,230.56205 205.55683,231.09928 205.0658,231.28944 C 204.61885,231.54551 204.22898,231.86316 203.9526,232.30325 C 203.35916,232.95811 203.05558,233.80639 202.60249,234.55037 C 202.12909,234.59085 201.60904,234.53661 201.16457,234.64799 C 200.56162,235.2933 199.85372,235.85406 199.31918,236.55447 C 199.11748,236.83387 198.96648,237.17432 198.74083,237.42537 C 198.14783,237.74341 197.43452,237.89308 197.02298,238.46503 C 196.77341,238.59634 196.48836,239.33399 196.27165,238.90355 C 195.92725,238.42163 195.26726,238.0949 195.76049,237.46941 C 194.63398,237.28057 195.96723,236.35182 196.07316,235.78221 C 196.59415,235.1382 195.45054,234.01702 196.46714,233.76657 C 196.34809,233.51254 195.72982,233.20105 195.52583,233.67638 C 195.30844,233.06498 193.99696,231.83617 193.82211,232.9722 C 194.15485,233.71157 192.81367,232.85246 192.79496,233.76966 C 192.2555,233.95026 191.83223,232.51334 191.26521,233.4892 C 190.99557,234.06112 189.79946,234.23593 190.49277,235.0995 C 190.35643,235.76449 189.32269,235.77149 188.7715,236.10271 C 189.145,234.97716 187.22913,236.57912 187.87992,235.42946 C 187.80506,234.5962 186.40622,236.62529 186.4416,235.22943 C 186.58456,234.4627 185.90397,234.01328 185.78159,233.31311 C 185.3573,232.989 184.44529,232.54627 185.49417,232.46303 C 186.3052,233.00781 185.6151,231.60178 185.20448,231.41269 z "
            id="Elvas" />
        <path style="fill:#ffefd5;fill-rule:evenodd;stroke:#b22222;stroke-width:0.25400001;stroke-opacity:1"
            d="M 169.70448,221.05469 C 170.22171,220.69791 170.82679,221.07147 171.35775,220.89067 C 172.03718,221.01687 172.53396,221.48929 173.02533,221.94744 C 173.51265,222.32908 174.10347,222.97934 174.64586,222.3407 C 175.13019,221.92163 175.52108,222.54211 176.00791,222.02535 C 176.56794,221.613 177.03736,222.25289 177.31681,222.57568 C 177.65159,222.10574 178.61532,222.99099 178.37023,222.14152 C 178.32489,221.71597 179.50522,221.63639 178.66748,221.32636 C 178.51968,220.88238 178.8992,220.30846 179.43456,220.33161 C 179.7438,219.9048 180.33676,219.4276 179.83157,218.85328 C 179.52844,218.26179 178.45658,217.76589 179.01142,217.02033 C 178.90013,216.6258 178.65966,216.23573 178.88481,215.82169 C 178.4569,215.0863 177.75893,214.43652 177.66554,213.55485 C 178.11561,212.84839 176.52094,212.36379 177.55792,211.93063 C 177.80827,211.61555 178.70239,211.4125 178.63539,211.11275 C 178.18581,210.70642 177.52195,210.38779 177.07565,210.9942 C 176.47896,211.28343 176.01558,211.80243 175.34548,211.93316 C 174.80877,211.98272 174.34986,212.27015 173.90646,211.88627 C 173.48074,211.96692 173.32801,212.57059 172.91131,212.18691 C 172.73991,212.32784 172.66337,212.7015 172.27548,212.61668 C 172.31639,213.18275 171.76445,213.60754 171.66984,214.17619 C 171.0968,214.22159 170.81051,213.44675 170.16903,213.79313 C 169.56405,213.61197 169.0512,213.30313 168.4356,213.24089 C 167.97449,213.23142 167.27825,213.41162 167.23048,212.72379 C 166.85874,212.16779 166.08451,213.11884 166.51453,213.55283 C 166.53034,214.06463 165.80499,214.66899 166.60781,214.86202 C 167.01179,214.80814 167.25658,215.50158 167.55696,214.91558 C 167.60224,214.49224 167.98251,214.53865 167.81071,214.95363 C 167.81913,215.38379 168.38852,215.59661 168.56347,216.00268 C 169.29846,215.75587 168.58908,216.38798 168.69798,216.69709 C 168.67054,217.30302 168.86758,217.92409 168.54776,218.35297 C 168.57854,218.59299 168.55089,219.28778 168.77181,218.74376 C 168.97376,218.10291 169.63334,219.0378 169.99414,219.22568 C 170.50592,219.73702 168.7118,219.94386 169.38519,220.58549 C 169.41111,220.78536 169.57776,220.91547 169.70448,221.05469 z "
            id="Fronteira" />
        <path style="fill:#ffefd5;fill-rule:evenodd;stroke:#b22222;stroke-width:0.25400001;stroke-opacity:1"
            d="M 161.82748,187.03069 C 161.37979,186.65006 160.74932,186.41354 160.5537,185.82396 C 159.90594,185.56508 159.3274,185.14646 158.70788,184.82045 C 158.30067,184.22194 157.47825,184.30284 156.93369,183.99158 C 156.56775,184.45223 156.15779,184.18658 155.83245,183.96126 C 155.1271,184.42289 155.57787,185.34576 155.0343,185.97327 C 154.93703,186.73301 154.01061,186.98166 153.81718,187.59588 C 153.40436,188.13482 153.82323,188.78132 154.22249,189.23969 C 153.60364,189.24405 153.1023,189.64705 153.45627,190.25576 C 153.61854,190.84481 154.06527,191.56077 154.66663,191.77537 C 155.25289,192.06532 155.49291,192.84257 156.15999,192.80331 C 156.40863,193.20477 156.64548,192.68237 156.87806,193.15405 C 157.2764,193.7949 156.67188,194.4126 156.2532,194.9678 C 155.895,195.55879 155.0062,196.15509 155.77666,196.76748 C 155.89279,197.39383 156.64695,197.93356 157.28186,197.93094 C 157.87115,198.24786 158.36513,198.7251 158.95541,198.99968 C 159.46086,199.44501 159.71671,198.45394 160.34778,198.68241 C 161.0221,198.46069 161.69054,198.31238 162.28649,197.96337 C 163.08442,197.78278 163.83749,197.37804 164.47949,196.9299 C 164.99496,196.40021 165.84036,196.58765 166.39946,196.00653 C 166.88182,195.69844 166.38416,194.8315 166.95129,194.41528 C 167.33405,194.07879 167.54142,193.71515 166.93003,193.53137 C 166.72091,193.2506 166.58894,193.26597 166.33649,193.42269 C 166.2635,193.13522 166.0601,192.70984 165.91427,193.17593 C 165.59516,193.46409 165.53663,193.30526 165.62349,192.9875 C 165.08756,192.64584 164.59174,192.00812 164.05871,191.7524 C 164.10255,191.19797 163.75256,190.8267 163.17275,191.08867 C 162.48584,190.93216 162.92322,189.58803 161.90016,189.8917 C 161.18635,189.57925 160.62233,189.19609 160.29798,188.46514 C 160.44125,188.18542 161.1322,187.90367 161.30616,187.41436 C 161.48031,187.28838 161.68322,187.1935 161.82748,187.03069 z "
            id="Gavião" />
        <path style="fill:#ffefd5;fill-rule:evenodd;stroke:#b22222;stroke-width:0.25400001;stroke-opacity:1"
            d="M 190.59549,198.52069 C 190.60891,197.91492 190.64009,197.30411 190.64349,196.70135 C 190.41823,196.31919 190.19065,195.93834 189.96449,195.55669 C 190.24105,195.13923 190.62458,194.76905 190.72095,194.2585 C 190.83711,193.86292 190.97693,193.46979 191.08015,193.07301 C 191.01471,192.46134 190.94926,191.84968 190.88382,191.23801 C 191.07652,190.9844 191.31201,190.75362 191.48183,190.48769 C 191.40268,190.32558 191.21438,190.22265 191.09876,190.08084 C 190.8729,189.87596 190.67272,189.63373 190.4337,189.44826 C 189.2899,188.91836 188.14919,188.3818 186.99281,187.87967 C 186.86035,188.07795 186.79418,188.35862 186.49156,188.30817 C 186.18901,188.4985 185.9233,188.90407 185.60282,188.42534 C 185.2028,188.78876 185.77173,189.45522 185.61428,189.97343 C 185.49402,190.45223 185.83298,191.01605 185.46634,191.38457 C 185.00011,191.64099 185.33605,192.19935 185.631,192.31864 C 185.67659,192.8421 185.44304,193.26968 185.43632,193.77947 C 185.68453,194.32824 184.88716,194.12109 184.78484,194.56242 C 184.51333,194.85192 184.07993,195.18027 184.6001,195.47985 C 185.00051,195.73037 184.99898,196.13585 184.91482,196.51935 C 185.06108,196.9567 184.7794,197.44656 185.07285,197.85723 C 185.31018,198.13393 185.36486,198.55126 185.21996,198.79156 C 185.65027,199.2145 186.12602,198.78903 186.55092,199.02886 C 187.08929,199.27537 186.45692,200.02135 186.96404,200.17708 C 187.45599,200.07469 187.97952,200.47495 188.39519,200.32458 C 188.5586,199.95197 188.07821,199.49933 188.58836,199.24227 C 188.72176,199.10151 188.88589,198.73923 189.02515,199.09069 C 189.35103,198.97844 189.5034,198.75554 189.91214,198.76843 C 190.17887,198.77761 190.38025,198.65683 190.59549,198.52069 z "
            id="Marvão" />
        <path style="fill:#ffefd5;fill-rule:evenodd;stroke:#b22222;stroke-width:0.25400001;stroke-opacity:1"
            d="M 179.50049,208.97769 C 179.20155,209.82626 179.70455,210.78273 178.72182,211.20469 C 178.27686,211.59239 176.70897,212.02152 177.41602,212.65535 C 177.92889,213.32243 177.55646,214.31143 178.29757,214.95843 C 178.76038,215.43419 178.93307,215.91185 178.80808,216.5011 C 179.25327,217.04401 178.481,217.75223 179.29511,218.19664 C 180.01154,218.76853 180.26511,219.65557 179.54136,220.25415 C 178.89795,220.32287 178.18838,221.18207 178.99159,221.55301 C 178.93569,222.07969 179.52528,222.45416 179.70803,222.93936 C 179.94268,223.33189 180.34383,223.02944 180.7012,223.26228 C 181.32434,222.84576 181.73857,223.39337 181.42374,223.96861 C 181.80833,223.95647 182.61916,223.83355 182.85562,224.48826 C 183.72794,224.61979 183.0722,225.07677 182.71994,225.28308 C 182.9533,225.85565 182.31935,226.39733 183.15816,226.6687 C 183.01094,227.08885 182.16456,227.32746 183.06614,227.56762 C 183.73684,227.89226 184.94141,228.4307 184.87637,229.264 C 184.48214,229.97151 184.89083,230.67117 184.83843,231.40672 C 184.98129,231.59453 185.04801,230.87064 185.2045,231.4127 C 185.47624,230.78903 186.54532,230.89495 186.6439,230.40911 C 186.06084,229.9738 187.00633,229.67551 186.32504,229.20787 C 186.42306,228.51997 188.04949,229.08938 188.17058,228.274 C 187.62062,227.69352 188.82316,227.16699 188.21195,226.48937 C 187.35518,225.99087 188.1724,225.15645 188.3549,224.44095 C 188.52379,223.56269 189.18885,222.86549 189.4407,222.02587 C 189.02301,221.02755 190.3239,220.73151 190.73055,220.02602 C 191.3828,219.37249 191.76611,218.32763 190.86192,217.70628 C 190.28112,217.12625 188.88822,217.97685 189.19059,216.854 C 189.07337,216.47316 189.11355,215.96592 188.76083,216.5647 C 187.94673,216.14548 187.16714,215.68905 187.94867,214.79498 C 188.63319,214.12681 188.58493,213.34154 187.7029,212.81807 C 187.20799,212.26754 186.67452,212.02015 186.03604,211.94869 C 185.39812,211.30518 184.57718,211.01849 183.79749,210.35567 C 183.01932,209.87707 182.11034,209.8939 181.24075,209.76688 C 180.60639,209.62513 180.13419,209.10367 179.50049,208.97769 z "
            id="Monforte" />
        <path style="fill:#ffefd5;fill-rule:evenodd;stroke:#b22222;stroke-width:0.25400001;stroke-opacity:1"
            d="M 161.82748,187.03069 C 161.1855,187.37321 160.94703,188.15316 160.23416,188.38869 C 160.63303,189.50933 161.82508,189.74892 162.6726,190.17238 C 162.66735,190.85399 163.07782,191.32153 163.78316,190.99602 C 164.14314,191.42175 163.95328,191.93561 164.62653,192.10215 C 164.95187,192.59041 165.72938,192.91824 165.67843,193.32366 C 166.13781,192.75674 166.1176,193.12521 166.48116,193.41169 C 166.78255,193.15505 167.84568,193.96561 167.03129,194.3116 C 166.44725,194.905 166.3548,196.23717 167.45916,195.45068 C 168.31899,195.69247 169.70105,196.06915 169.59582,194.65402 C 169.67429,193.85199 169.74026,192.87535 170.68216,192.69835 C 171.02168,192.33929 171.31168,191.69734 171.93149,192.08269 C 172.95442,191.9058 172.36008,193.27904 172.76073,193.91034 C 173.00108,194.81647 173.63245,195.34375 174.52176,195.42667 C 174.92163,195.93072 175.84775,196.44093 175.73614,195.39533 C 176.07505,194.43427 176.04202,193.38832 175.67083,192.46298 C 175.69213,191.66041 175.06837,190.20354 176.35572,190.19852 C 177.35484,190.03741 176.82993,188.59801 176.74708,187.96756 C 175.82754,187.76857 176.26154,186.19849 177.23913,186.54737 C 178.22485,186.85216 177.67326,185.8407 177.24476,185.61767 C 177.09248,184.92085 177.12243,184.52955 177.81476,185.03271 C 178.72944,185.32802 179.58699,185.59223 180.49932,185.86023 C 180.94896,185.89101 181.21815,185.5474 181.58282,185.87169 C 181.31776,185.40548 181.01157,184.93084 181.45616,184.49569 C 181.22449,183.86385 181.13044,182.97035 181.28138,182.35042 C 181.53228,181.93877 180.92571,181.8779 180.7001,181.66118 C 180.35804,181.41295 180.33132,180.89602 180.12271,180.53407 C 179.92398,180.00882 179.71804,179.48771 179.32902,179.06996 C 178.86395,178.59655 179.03656,177.86299 178.75357,177.29575 C 178.62743,176.93684 178.50129,176.57793 178.37515,176.21902 C 177.73437,176.53692 177.20812,177.00314 176.47649,176.56435 C 175.60687,176.67115 175.22565,177.30317 174.96985,177.97591 C 174.20492,178.41487 173.5086,179.34862 172.56366,179.21281 C 171.95143,178.76461 171.70881,177.67706 170.89294,177.55671 C 170.00403,177.89069 168.89268,178.57068 168.72873,179.56681 C 169.21454,180.65918 168.14604,181.73335 167.02449,181.56202 C 166.18122,182.11715 166.14751,183.32521 165.21153,183.82038 C 164.72379,184.66882 163.71391,184.83122 162.94173,185.23542 C 162.34138,185.69658 162.32803,186.53578 161.82748,187.03069 z "
            id="Nisa" />
        <path style="fill:#ffefd5;fill-rule:evenodd;stroke:#b22222;stroke-width:0.25400001;stroke-opacity:1"
            d="M 144.66148,206.20668 C 144.03446,207.12454 143.19411,207.83824 142.26509,208.61549 C 141.64963,209.51894 140.84301,209.8982 139.8686,210.1525 C 138.61289,210.98741 137.30638,211.56291 136.82049,213.0204 C 136.53443,214.17548 134.37474,215.29404 136.26424,215.98586 C 137.47662,216.39592 138.49537,217.03132 138.23812,218.42432 C 138.68946,219.2564 139.84653,218.23514 139.66382,219.57003 C 139.81028,220.57436 139.90874,221.99747 141.00945,222.26999 C 141.9456,221.33936 142.24068,224.38996 142.9219,222.66276 C 143.39588,221.59851 144.40328,220.66673 145.25558,221.09807 C 145.73503,219.91889 146.07892,221.25124 146.59882,221.45336 C 147.57558,221.13184 146.52309,218.92583 148.00758,218.46487 C 148.61554,217.38771 149.03948,216.18322 149.92528,215.23616 C 150.28174,214.27603 151.03933,213.44828 151.98461,214.2647 C 153.01035,214.09902 153.74759,214.96456 154.67482,214.21037 C 155.68282,214.70768 157.28376,213.16804 155.98057,212.32202 C 156.12054,211.24922 156.73607,210.37684 157.04343,209.4472 C 157.68181,208.67628 158.81309,208.83858 159.67249,208.76003 C 159.37618,207.97151 159.72147,206.65409 160.55593,207.60056 C 161.45742,208.04755 161.75264,206.97327 162.42482,206.51469 C 161.7576,206.21786 159.78762,206.71021 160.88582,205.39936 C 161.6821,204.38249 159.71512,202.75411 161.61015,202.69403 C 162.7272,202.45647 163.40625,201.49243 163.15939,200.4423 C 163.84463,199.19939 161.75787,199.62707 161.02645,199.39395 C 160.26184,199.47153 159.67527,200.19476 159.31049,199.16303 C 158.20845,198.43097 156.95774,198.00552 155.9619,197.22306 C 155.54498,196.44807 155.50961,195.41609 154.29449,195.86736 C 153.91136,196.78635 153.46824,197.12473 152.4475,197.15303 C 152.11718,197.95051 152.55319,199.04411 151.5965,199.57935 C 151.21207,200.90116 149.78436,201.52576 149.7315,202.92936 C 149.15516,203.46575 147.4649,203.27848 147.7035,202.35002 C 146.67155,202.27213 145.50802,203.33832 145.62357,204.34378 C 146.29081,205.07786 145.17644,205.81819 144.66148,206.20668 z "
            id="Ponte_de_Sor" />
        <path style="fill:#ffefd5;fill-rule:evenodd;stroke:#b22222;stroke-width:0.25400001;stroke-opacity:1"
            d="M 186.68849,211.9827 C 185.80463,212.35717 185.60651,211.11289 184.7991,211.14685 C 184.1639,210.47694 183.28919,209.99793 182.36082,209.88235 C 182.90088,208.88603 180.86233,209.00829 180.80511,207.96835 C 180.49728,207.34068 179.11503,207.0761 179.81052,206.14982 C 180.07669,205.50939 178.99003,205.52622 178.60157,205.18122 C 177.59478,204.58284 179.31274,204.05628 179.86215,204.14236 C 179.28315,203.49131 179.71819,202.59454 179.79365,201.80088 C 179.99642,201.18182 181.08517,200.43392 180.20615,199.79636 C 180.26582,198.97032 179.13787,198.83167 178.76165,198.20894 C 178.33817,197.79375 177.14882,196.93807 177.92449,196.42836 C 177.70707,195.46704 178.74831,196.29717 179.1072,195.63397 C 179.78891,195.29328 180.61451,196.28607 180.96841,195.25778 C 181.75764,195.15822 182.48029,194.67994 183.32792,194.57689 C 184.10717,194.56577 184.71001,195.51456 184.97763,196.13865 C 184.7448,196.96863 185.12233,197.80979 185.28195,198.59471 C 185.13703,199.21326 186.14281,198.86114 186.49721,198.98855 C 187.11977,199.3099 186.35798,200.41311 187.35849,200.21302 C 188.03641,200.44833 188.75157,200.44038 188.31816,199.54303 C 188.63632,199.16799 188.81667,198.83192 189.23912,199.04178 C 189.5129,198.63714 190.2136,198.89219 190.59482,198.52036 C 191.10966,199.0021 191.70898,199.40319 192.17099,199.93538 C 192.66753,200.52682 193.09421,201.18938 193.63522,201.73554 C 194.04473,202.06832 194.51288,202.35854 194.89049,202.71471 C 194.6468,203.29127 194.28,203.83871 194.06664,204.41834 C 194.17473,205.41951 194.27554,206.42166 194.45616,207.41302 C 194.38735,207.97448 194.05374,208.32314 193.47793,208.30037 C 192.83477,208.70221 192.03365,208.59109 191.32965,208.68295 C 190.74076,208.98307 189.92956,209.20088 189.37953,208.70147 C 188.8017,208.72466 188.25964,209.01072 187.71966,208.66776 C 187.64418,209.18964 188.84195,209.41232 188.70933,209.98784 C 188.15159,210.30977 188.14169,211.03779 187.32249,210.9327 C 187.06503,211.25123 186.8324,211.60096 186.68849,211.9827 z "
            id="Portalegre" />
        <path style="fill:#ffefd5;fill-rule:evenodd;stroke:#b22222;stroke-width:0.25400001;stroke-opacity:1"
            d="M 160.39648,228.49669 C 160.75104,227.67611 159.6127,227.09583 160.08849,226.41436 C 159.51335,226.16967 158.81746,225.82185 158.76541,225.21936 C 158.06111,224.94623 158.61105,224.31974 159.17632,224.36091 C 159.62991,224.18542 159.94239,223.85751 159.54549,223.44468 C 159.46133,222.97987 159.51896,222.52593 159.40049,222.03236 C 159.73371,222.06715 160.09168,222.16214 160.04476,222.62066 C 160.19007,223.23276 160.68861,222.84674 160.97439,222.86849 C 161.55868,223.59239 161.60327,221.91772 161.92592,221.57009 C 162.27952,220.88164 163.00386,221.48583 163.1063,221.99856 C 163.50416,222.27594 163.7404,223.20579 164.16907,222.61325 C 164.44592,222.54671 164.70868,221.85291 165.17576,222.31146 C 165.55961,222.43629 165.73754,221.43896 166.13649,222.01435 C 166.88975,221.92695 167.61633,222.07094 168.36382,221.90569 C 168.91707,222.10344 169.36103,222.03838 169.56629,221.3949 C 169.77302,220.54646 170.79643,221.07838 171.35725,220.89066 C 172.12179,221.02129 172.62092,221.6178 173.19829,222.0848 C 173.68201,222.55998 174.26049,222.8739 174.78921,222.26232 C 175.23,222.09027 175.64352,222.4324 176.09933,221.98011 C 176.90967,221.45891 177.02991,222.98281 177.70891,222.40355 C 178.2207,222.65483 178.10795,223.55757 178.50468,223.97842 C 178.5974,224.80848 177.15156,224.86988 177.18798,225.35207 C 177.25596,225.9271 176.20402,225.25192 175.83824,225.41047 C 175.03635,225.03838 174.52667,226.08111 174.2036,226.62997 C 173.75166,226.63603 173.15751,227.41632 173.31448,227.62769 C 173.44324,227.13521 174.60197,226.92854 173.93953,227.521 C 173.44422,227.46537 173.79442,228.46454 173.15007,228.16128 C 172.45013,228.25177 172.01051,227.49759 171.29136,227.35619 C 170.64188,226.83363 170.11351,228.15759 169.30548,227.68203 C 168.69211,227.69299 168.22267,226.02676 168.11475,227.14568 C 167.76705,227.92081 167.30198,228.71618 166.44448,229.00369 C 165.98964,229.1353 165.4644,228.46452 165.26046,229.23599 C 165.08131,229.67389 164.29976,229.12597 163.92028,229.28029 C 163.17421,229.20889 162.4886,228.94305 161.72299,229.05903 C 161.22108,228.78467 161.04004,228.34993 160.39648,228.49669 z "
            id="Sousel" />
    </g>
    <!-- EO MUNICIPIOS -->
</svg>