<?xml version="1.0" encoding="UTF-8" standalone="no"?>
<!-- Creator: CorelDRAW -->
<svg xmlns:dc="http://purl.org/dc/elements/1.1/" xmlns:cc="http://web.resource.org/cc/"
    xmlns:rdf="http://www.w3.org/1999/02/22-rdf-syntax-ns#" xmlns:svg="http://www.w3.org/2000/svg"
    xmlns="http://www.w3.org/2000/svg" xmlns:sodipodi="http://inkscape.sourceforge.net/DTD/sodipodi-0.dtd"
    xmlns:inkscape="http://www.inkscape.org/namespaces/inkscape" xml:space="preserve" width="250" height="366"
    style="shape-rendering:geometricPrecision; text-rendering:geometricPrecision; image-rendering:optimizeQuality; fill-rule:evenodd; clip-rule:evenodd"
    viewBox="0 0 200 200" id="svg1627" sodipodi:version="0.32" inkscape:version="0.43"
    sodipodi:docname="Mapa_de_Portugal.svg" sodipodi:docbase="C:\Documents and Settings\Márcio Silva\Os meus documentos"
    version="1.0">
    <metadata id="metadata1927">
        <rdf:RDF>
            <cc:Work rdf:about="">
                <dc:format>image/svg+xml</dc:format>
                <dc:type rdf:resource="http://purl.org/dc/dcmitype/StillImage" />
                <dc:title>Munícipios de Portugal</dc:title>
                <cc:license rdf:resource="http://creativecommons.org/licenses/GPL/2.0/" />
                <dc:creator>
                    <cc:Agent>
                        <dc:title>Rei-artur (rei.artur@gmail.com)</dc:title>
                    </cc:Agent>
                </dc:creator>
            </cc:Work>
            <cc:License rdf:about="http://creativecommons.org/licenses/GPL/2.0/">
                <cc:permits rdf:resource="http://web.resource.org/cc/Reproduction" />
                <cc:permits rdf:resource="http://web.resource.org/cc/Distribution" />
                <cc:requires rdf:resource="http://web.resource.org/cc/Notice" />
                <cc:permits rdf:resource="http://web.resource.org/cc/DerivativeWorks" />
                <cc:requires rdf:resource="http://web.resource.org/cc/ShareAlike" />
                <cc:requires rdf:resource="http://web.resource.org/cc/SourceCode" />
            </cc:License>
        </rdf:RDF>
    </metadata>

    <sodipodi:namedview inkscape:window-height="582" inkscape:window-width="866" inkscape:pageshadow="2"
        inkscape:pageopacity="0.0" borderopacity="1.0" bordercolor="#666666" pagecolor="#ffffff" id="base"
        fill="#ffff00" inkscape:zoom="1.1338798" inkscape:cx="125" inkscape:cy="211.12313" inkscape:window-x="28"
        inkscape:window-y="117" inkscape:current-layer="layer7" showguides="true" inkscape:guide-bbox="true">
        <sodipodi:guide orientation="horizontal" position="329.9602" id="guide2648" />
        <sodipodi:guide orientation="horizontal" position="307.74672" id="guide2650" />
    </sodipodi:namedview>

    <defs id="defs1629">
        <metadata id="CorelCorpID_0Corel-Layer" />
        <sodipodi:namedview inkscape:guide-bbox="true" showguides="true" inkscape:current-layer="layer1"
            inkscape:window-y="-4" inkscape:window-x="-4" inkscape:cy="327.60442" inkscape:cx="146.08303"
            inkscape:zoom="17.548964" fill="#fa8072" id="namedview5974" pagecolor="#ffffff" bordercolor="#666666"
            borderopacity="1.0" inkscape:pageopacity="0.0" inkscape:pageshadow="2" inkscape:window-width="1024"
            inkscape:window-height="712" />
    </defs>

    <!-- <g inkscape:groupmode="layer" id="layer3" inkscape:label="fundo" style="display:inline" sodipodi:insensitive="true">
        <rect style="fill:#4169e1;fill-opacity:1;fill-rule:evenodd;stroke:none;display:inline" id="rect2247" width="200" height="200" />
    </g> -->

    <g inkscape:groupmode="layer" id="layer10" inkscape:label="----detalhes----" style="display:inline" />

    <!-- MUNICIPIOS -->
    <g inkscape:groupmode="layer" id="layer4" inkscape:label="Municipios" style="display:inline"
        sodipodi:insensitive="true" transform="translate(-190, -345) scale(2.2)">
        <path style="fill:#ffefd5;fill-rule:evenodd;stroke:#b22222;stroke-width:0.25400001;stroke-opacity:1"
            d="M 153.29849,189.65669 C 152.29929,189.1699 151.36877,190.55979 150.33877,189.75712 C 150.85094,188.48557 150.46732,187.66515 150.62237,186.45827 C 150.71831,185.58588 149.41243,184.38166 149.07949,185.32902 C 148.40793,185.26431 147.09107,184.72397 147.78025,185.89676 C 147.4581,186.56242 148.15501,187.21032 147.24349,187.44389 C 146.81242,188.43477 146.24196,187.17047 145.58483,187.34601 C 145.37969,186.26976 143.65076,186.79182 144.06383,185.43734 C 143.05636,185.24949 143.86779,184.0784 143.52678,183.40047 C 143.91556,182.72786 143.84973,181.82103 144.64833,181.28548 C 144.21988,180.54738 144.93337,179.48614 144.94389,179.08697 C 143.86318,179.08733 143.25837,178.07719 142.07183,178.28501 C 141.69617,177.3019 140.29302,177.85595 140.55402,178.87194 C 139.90832,179.15215 140.58077,179.70309 139.89708,180.0812 C 138.89146,181.10624 141.44108,180.47669 140.9735,181.51421 C 139.854,181.32119 140.3575,183.40506 139.16939,182.88065 C 138.58785,183.37371 137.89385,183.80147 137.92549,184.62268 C 136.76284,184.85658 135.45548,185.45278 134.86516,186.52401 C 135.33621,187.01732 136.6421,186.89874 136.22316,187.68268 C 137.04296,187.85928 137.88482,187.46988 138.64245,187.47776 C 139.01496,188.38186 140.04184,190.17648 138.37042,190.23231 C 137.66835,190.3918 139.13602,191.01772 138.8872,191.63497 C 139.45744,192.45696 139.62921,193.59309 140.13449,194.50936 C 140.71576,195.38285 141.12824,196.40715 140.80418,197.52711 C 141.08645,199.17306 138.04196,198.1999 138.89901,199.65046 C 139.44556,200.42884 139.64737,201.47167 140.12941,202.20288 C 141.00194,201.97795 140.41289,203.81656 141.34319,204.12044 C 142.14657,205.30744 143.75807,204.65364 144.48288,205.93275 C 145.04392,206.49077 146.40003,204.80438 145.53687,204.11456 C 145.80538,203.20374 146.67147,202.26829 147.70349,202.35002 C 147.46335,203.37364 149.92427,203.63566 149.85512,202.38152 C 150.14811,201.2789 151.3636,200.66694 151.62938,199.46175 C 152.93825,199.07805 151.61054,197.25935 152.84159,197.0604 C 154.1165,197.30708 153.92674,195.24611 155.32682,195.86735 C 156.13244,195.36701 157.07558,194.23759 156.99249,193.24168 C 156.32823,192.78297 155.45655,192.80068 154.88491,191.91631 C 153.95188,191.59491 153.44469,190.57526 153.29849,189.65669 z "
            id="Abrantes" />
        <path style="fill:#ffefd5;fill-rule:evenodd;stroke:#b22222;stroke-width:0.25400001;stroke-opacity:1"
            d="M 113.37149,189.33067 C 113.76101,189.00598 114.26711,188.92808 114.75403,189.00739 C 115.29035,188.86837 114.5197,188.24321 114.63617,187.86935 C 114.35316,187.41456 114.13326,186.95401 114.04653,186.4062 C 113.88038,185.96788 114.33127,185.01606 114.82319,185.49277 C 115.09282,185.78222 115.56823,186.29592 115.91518,186.11323 C 116.10101,185.59512 116.8433,185.60969 116.78344,184.95948 C 117.17877,184.64082 117.17912,184.15199 117.63361,183.87802 C 117.84387,183.49912 118.19571,183.29742 118.49356,183.7403 C 118.93162,184.26552 119.35377,184.80667 119.81782,185.3107 C 119.18478,185.8997 118.43966,186.40142 117.98882,187.15769 C 118.30347,187.57008 118.95581,187.581 119.34746,187.97313 C 119.91312,188.17766 119.77629,188.82471 120.0848,189.22658 C 120.2774,189.57698 120.67493,189.64824 120.90381,189.84533 C 120.90482,190.26993 120.43769,190.46724 120.17043,190.64033 C 120.42699,191.06796 120.21423,191.61024 120.50577,192.05324 C 120.50557,192.38606 120.33427,192.4612 120.05316,192.57203 C 120.08606,192.97699 119.89046,193.56298 119.47553,193.11506 C 119.06884,193.02754 119.07465,193.50398 118.71316,193.58603 C 118.83542,194.20633 118.121,193.8482 117.96091,193.53515 C 117.64567,193.37749 117.71038,193.99844 117.31312,193.79998 C 116.87448,193.86567 116.97166,194.90719 116.49113,194.40318 C 116.11632,194.21469 115.76758,193.56479 115.38267,193.67167 C 115.09469,193.98731 114.68495,194.0495 114.40517,194.36821 C 114.01474,194.43251 113.54864,194.7771 113.20591,194.42744 C 112.76015,194.06737 113.61707,193.64597 113.35349,193.22369 C 113.21884,192.85754 113.40501,192.74801 113.75183,192.80736 C 113.98287,192.57059 114.14848,192.10452 114.51999,192.37996 C 114.96964,192.37665 115.60592,192.37985 115.61344,191.75212 C 115.50583,191.34021 115.30426,190.92067 114.90842,190.71866 C 114.84803,190.16211 114.18668,190.29782 113.85912,190.44507 C 113.49981,190.27182 113.65289,189.61823 113.37149,189.33067 z "
            id="Alcanena" />
        <path style="fill:#ffefd5;fill-rule:evenodd;stroke:#b22222;stroke-width:0.25400001;stroke-opacity:1"
            d="M 122.57049,215.8577 C 121.8867,215.67161 121.80543,215.03951 121.64821,214.48614 C 121.46431,214.12208 121.34495,213.64449 120.81416,213.79369 C 120.59351,213.58852 120.27341,213.31763 120.31375,213.81478 C 120.11665,214.39858 119.18276,214.51309 118.76678,214.09557 C 118.30473,213.82006 117.63641,214.35815 117.36584,213.75757 C 116.81678,213.72718 116.01026,213.42626 115.81105,212.96964 C 115.60119,212.23196 116.40591,211.84788 116.56466,211.18961 C 116.73346,210.53454 117.34815,210.00333 117.26618,209.25313 C 117.16093,208.56051 117.39943,207.90705 117.66286,207.29222 C 117.81551,206.78639 117.67962,206.03435 118.33282,205.8537 C 118.8543,205.75225 119.57762,205.31004 120.00244,205.58272 C 120.31572,205.87997 120.26034,206.98458 120.79583,206.62303 C 120.9267,207.3311 121.62901,207.71605 122.12719,208.16286 C 122.71617,208.60194 122.95959,209.35326 123.45861,209.86582 C 123.86039,209.86079 124.06832,210.7146 124.2482,210.09341 C 124.85697,210.0781 124.74558,209.31146 125.29073,209.18941 C 125.74129,208.97159 125.81812,208.4353 126.3311,208.2814 C 126.74507,207.77685 127.71421,208.21909 128.19841,208.54324 C 128.90356,208.66507 128.34055,209.73238 129.03201,209.78564 C 129.08749,210.39423 129.38231,210.79283 129.93481,211.05363 C 130.25729,211.18225 130.51058,211.50186 130.08516,211.69303 C 129.71418,212.13049 129.76476,212.87855 129.24172,213.16607 C 129.04278,213.84539 129.71425,214.3033 129.7581,214.92095 C 129.78226,215.30876 129.13387,214.93945 128.88763,215.2701 C 128.51754,215.41797 128.12007,215.11151 127.83983,215.58603 C 126.94714,215.88936 127.28069,214.32281 126.48749,214.72948 C 125.88219,214.93833 125.21322,214.94591 124.6619,215.07772 C 124.06472,215.2999 123.2878,214.89414 122.87448,215.62349 C 122.7879,215.73008 122.69742,215.81109 122.57049,215.8577 z "
            id="Almeirim" />
        <path style="fill:#ffefd5;fill-rule:evenodd;stroke:#b22222;stroke-width:0.25400001;stroke-opacity:1"
            d="M 123.17049,200.89268 C 123.21272,201.15761 123.81035,201.00083 124.0183,201.0131 C 124.18422,201.27513 123.92522,201.62546 124.23599,201.8736 C 124.40164,202.29547 124.77013,202.59967 124.74535,203.07891 C 124.71908,203.49906 124.6027,204.01816 124.92924,204.38185 C 125.2206,204.60874 125.53211,204.80947 125.76376,205.10593 C 125.98644,205.3714 126.33003,205.67589 126.69772,205.61918 C 127.25176,205.43702 127.24607,206.25662 126.82926,206.42716 C 126.39449,206.8191 126.62297,207.37576 126.52677,207.84742 C 126.54615,208.29295 126.05129,208.42969 125.80227,208.62876 C 125.6791,209.00914 125.31706,209.23791 124.96049,209.33969 C 124.78347,209.65038 124.73623,210.07615 124.30009,210.05587 C 124.16901,210.2368 124.05052,210.54523 123.92278,210.16269 C 123.65879,209.91155 123.25925,209.82159 123.11607,209.42653 C 122.77803,208.94627 122.50723,208.39496 122.00247,208.06284 C 121.55888,207.67833 121.0035,207.32614 120.80942,206.74333 C 120.8141,206.42084 120.49466,206.99371 120.44207,206.60653 C 120.27703,206.20056 120.09753,205.72071 119.89515,205.38138 C 120.14005,205.05322 120.43662,204.73395 120.45523,204.30561 C 120.41855,203.90599 120.46494,203.53113 120.51105,203.14044 C 120.47057,202.70717 120.67917,202.27048 121.09845,202.10909 C 121.50601,201.90281 121.94924,201.76822 122.30317,201.46679 C 122.61151,201.31483 122.83173,200.95633 123.17049,200.89268 z "
            id="Alpiarça" />
        <path style="fill:#ffefd5;fill-rule:evenodd;stroke:#b22222;stroke-width:0.25400001;stroke-opacity:1"
            d="M 103.94549,238.6657 C 104.11587,238.37633 104.41654,238.087 104.08192,237.79751 C 103.94088,237.46671 103.55645,237.19532 103.67552,236.79766 C 103.64276,236.42587 103.86343,235.96568 103.50216,235.70847 C 103.00783,235.14032 102.51349,234.57217 102.01916,234.00403 C 102.01772,233.17056 103.07036,232.87791 103.28248,232.10359 C 103.70529,231.09391 104.85432,230.43738 104.85006,229.25525 C 104.69031,228.09475 106.40153,227.77386 105.81662,226.57395 C 105.92464,225.52139 107.38531,225.67567 108.0475,225.02584 C 108.23832,224.44414 105.82683,224.40916 107.07962,223.80223 C 107.92139,223.54799 107.06599,222.14489 108.10425,221.85423 C 108.35526,221.37292 108.7854,220.99222 108.08449,220.81849 C 107.41098,220.6073 107.50021,219.96293 108.27869,220.12116 C 109.07369,220.28858 110.19214,219.62252 110.67383,220.4397 C 110.52187,220.9873 109.93835,221.45944 110.83585,221.70909 C 111.07997,222.6457 112.61635,222.46587 113.03516,223.53603 C 113.84009,223.46294 114.52636,223.8713 115.37961,223.85713 C 115.88442,223.7004 115.43349,224.8777 115.23682,224.85803 C 115.10134,225.27742 113.85247,225.87081 114.82011,226.11186 C 115.28578,227.09563 116.39806,227.16833 117.29467,227.55937 C 117.8294,227.93597 118.83787,228.43901 118.72082,229.13136 C 117.98442,228.8189 118.74159,230.19274 118.18977,230.5151 C 117.83624,231.16434 117.66992,231.76319 117.90787,232.3744 C 117.93732,233.0174 118.24406,234.38301 117.61852,234.54331 C 116.84353,234.59312 116.67531,232.81146 116.13259,233.23779 C 115.84777,234.94206 114.39973,236.13153 113.86799,237.73173 C 113.74552,238.53668 115.32869,238.96813 114.29212,239.66449 C 113.90039,240.25205 113.25195,240.90424 112.56416,240.28537 C 111.84172,240.6371 111.13203,240.53493 110.65347,239.93526 C 109.75957,240.10217 109.58792,238.52422 108.61333,238.52785 C 107.70733,238.83206 106.99733,239.51025 106.11082,239.86902 C 105.36477,240.52389 104.8782,238.44317 104.53549,239.61537 C 103.86951,239.65351 104.1893,238.98121 103.94549,238.6657 z "
            id="Benavente" />
        <path style="fill:#ffefd5;fill-rule:evenodd;stroke:#b22222;stroke-width:0.25400001;stroke-opacity:1"
            d="M 111.94149,218.06769 C 112.67139,218.07187 113.18397,217.46075 113.24717,216.75974 C 113.40374,216.11392 114.02209,215.65903 114.43467,215.14921 C 114.83546,214.63297 115.50409,214.26407 115.66011,213.60087 C 115.95427,213.02579 115.59108,212.31423 116.193,211.87416 C 116.49838,211.48512 116.86886,210.82993 116.23959,210.56682 C 116.00875,210.05408 116.00183,209.47377 115.8883,208.92364 C 115.85716,208.60653 115.67296,208.04637 115.48069,208.61769 C 115.18061,209.08199 115.25656,209.66429 114.68497,209.88552 C 114.55583,210.173 114.10165,210.18414 114.44016,209.86503 C 114.04699,209.4795 113.38463,209.28787 113.17953,208.69892 C 112.97261,208.36935 112.91377,207.64446 112.55926,207.58041 C 112.26196,207.75444 111.83232,207.95534 111.56116,207.68103 C 111.58518,208.19303 111.2702,208.49949 110.75466,208.43459 C 110.42351,208.53518 109.79352,208.28829 109.95777,208.811 C 109.73674,209.30377 109.10998,209.28765 108.81123,209.65212 C 108.45077,209.22854 108.06588,209.96615 107.75095,209.46386 C 107.37189,209.33011 107.09202,208.96696 106.68908,209.30718 C 106.20473,209.14524 106.07919,209.56816 105.90633,209.89022 C 105.66404,210.27916 105.1924,210.14938 104.93519,210.12997 C 104.81852,210.67103 105.48408,211.11208 105.93974,211.25919 C 106.19399,211.45105 106.28106,211.79449 106.61453,211.90584 C 106.77618,212.35681 106.65958,213.15526 107.32616,213.1987 C 107.90943,213.20444 108.14523,213.94998 108.66177,214.19294 C 109.2151,214.47154 109.83614,214.41505 110.37015,214.73021 C 110.60284,214.99994 110.97453,215.44864 111.0448,215.68482 C 110.28511,215.91902 111.30691,216.44864 111.37901,216.90303 C 111.585,217.28415 111.7968,217.66362 111.94149,218.06769 z "
            id="Cartaxo" />
        <path style="fill:#ffefd5;fill-rule:evenodd;stroke:#b22222;stroke-width:0.25400001;stroke-opacity:1"
            d="M 123.75649,200.51169 C 122.65245,200.97486 123.50128,201.05012 124.06762,201.06985 C 124.24541,202.12838 124.93191,203.02798 124.79494,204.1896 C 125.48137,204.83086 126.14013,205.70179 127.11549,205.71768 C 126.98371,206.43381 126.14088,207.39295 126.63672,208.04089 C 127.65118,208.0996 128.82367,208.53261 128.74516,209.70135 C 129.27912,209.97271 129.20366,210.96161 130.07649,211.1471 C 130.61408,211.62956 129.4618,212.30706 129.50582,213.03302 C 128.74136,213.45435 129.79071,214.77095 129.97744,215.15793 C 130.83613,215.39357 131.96172,215.09806 132.02349,216.33218 C 132.10879,216.93102 132.45135,217.84706 132.93465,216.90837 C 133.50386,216.44421 133.69574,215.52524 134.68449,215.83968 C 135.66959,215.60781 135.23825,214.79641 136.04473,214.39427 C 136.56885,213.41478 137.25132,212.43763 137.70678,211.50355 C 138.64888,210.98668 139.5596,210.34755 140.48022,209.86959 C 141.76181,209.84155 142.23933,208.22531 143.33384,207.6754 C 144.13866,207.45378 143.98346,206.53772 144.66182,206.21236 C 144.18301,205.09385 142.99336,204.98626 142.05415,204.81234 C 141.03828,204.2432 140.66208,202.88698 140.38336,202.14359 C 139.40979,202.23634 139.88676,200.46043 139.03299,200.0704 C 138.75287,198.97384 138.62141,198.25114 138.0444,197.17476 C 137.54426,196.18032 137.86474,195.17693 137.72268,194.24405 C 136.73145,193.56087 136.42229,192.36163 136.13325,191.24369 C 135.97864,190.39438 135.59363,189.85934 134.83471,190.46624 C 133.74116,190.39693 132.73869,190.50465 131.687,190.83751 C 130.58326,190.54545 129.55682,191.6529 129.81798,192.73802 C 130.05151,193.86007 129.80532,194.94489 129.14348,195.89235 C 128.15099,196.98294 126.85217,197.76254 125.96926,198.96655 C 125.42805,199.71202 124.61108,200.20318 123.75649,200.51169 z "
            id="Chamusca" />
        <path style="fill:#ffefd5;fill-rule:evenodd;stroke:#b22222;stroke-width:0.25400001;stroke-opacity:1"
            d="M 136.2235,187.68268 C 136.66098,187.47031 137.08021,187.93646 137.49696,187.65494 C 137.88793,187.66595 138.23174,187.32978 138.6046,187.43276 C 138.82848,187.81403 138.8934,188.27787 139.15682,188.64269 C 139.08162,189.06524 139.6681,189.64756 139.18439,189.90884 C 138.92906,190.26639 138.27965,190.144 138.10618,190.35337 C 138.35493,190.70306 138.79726,190.86077 138.79256,191.34107 C 138.90284,191.64166 138.88845,191.95862 139.18724,192.09528 C 139.17667,192.5178 139.66534,192.79047 139.62084,193.21553 C 139.64806,193.64674 139.94713,193.94311 139.99453,194.3491 C 140.19268,194.6634 140.29426,195.02656 140.65982,195.23369 C 140.51728,195.70948 140.9811,196.09426 140.92211,196.49918 C 140.86988,196.99742 140.8316,197.48796 140.69891,197.96588 C 140.60788,198.41748 140.10546,198.61397 139.70016,198.69235 C 139.36939,198.81588 138.79147,199.04308 138.72314,198.56422 C 138.36183,198.22053 138.30094,197.721 138.11614,197.3047 C 137.84569,196.89387 137.8888,196.38704 137.7403,195.93996 C 137.58803,195.52552 137.64777,195.16478 137.89274,194.81748 C 137.87125,194.38355 137.60709,194.02822 137.21589,193.83383 C 137.04531,193.40751 136.62257,193.06626 136.50783,192.60151 C 136.39301,192.17504 136.32552,191.74609 136.15991,191.33316 C 136.03382,190.88991 135.89268,190.41754 135.57182,190.07302 C 135.71258,189.8056 135.84793,189.58076 135.58352,189.32394 C 135.59097,188.82917 135.97958,188.40932 136.22349,187.99069 C 136.22349,187.88802 136.22348,187.78534 136.2235,187.68268 z "
            id="Constância" />
        <path style="fill:#ffefd5;fill-rule:evenodd;stroke:#b22222;stroke-width:0.25400001;stroke-opacity:1"
            d="M 129.75848,215.11569 C 128.62536,215.01931 127.23684,216.24227 126.78708,214.64582 C 125.54487,215.12674 124.23261,214.88013 123.07724,215.41498 C 122.75722,215.97555 122.08082,216.39433 122.05849,217.06747 C 122.41175,217.93074 122.97152,219.10934 122.86615,219.89441 C 122.06954,220.29986 121.80938,221.40686 120.94078,221.91858 C 120.51653,222.92751 118.74939,222.74178 118.04386,223.87077 C 117.27291,225.1804 115.31796,222.84853 115.43549,224.83935 C 114.80146,225.18019 113.9643,226.01572 115.09121,226.39017 C 115.76033,227.56141 117.59311,227.14053 118.35883,228.34169 C 118.75862,228.71147 118.98479,229.23128 118.37837,229.11968 C 118.58971,230.46813 117.36654,231.51877 117.95919,232.80505 C 117.69887,233.90603 118.08323,235.7451 119.52094,235.18996 C 119.72699,234.1836 120.86072,233.07791 121.78956,233.3621 C 121.20424,234.25167 121.2123,235.20613 121.23204,236.3586 C 121.1501,236.93554 120.37742,237.53496 121.49886,237.70252 C 122.26943,238.71668 123.53347,237.60435 124.48915,238.48169 C 125.2145,237.90071 125.23173,236.73956 126.28603,236.53524 C 126.74313,235.42843 128.06492,235.67928 128.53822,236.39731 C 129.74934,235.95305 130.09942,234.69423 130.71226,233.79841 C 131.42594,233.33486 131.59007,235.2653 132.24909,234.07057 C 132.95922,233.71939 133.25062,233.29718 133.1224,232.74383 C 134.01102,231.29443 135.26274,234.71197 136.09118,232.66281 C 136.55913,231.49872 136.56343,232.4053 137.12816,232.69803 C 137.38776,232.13603 137.6051,230.73492 137.87873,231.98835 C 138.22365,232.72495 139.37311,233.23595 139.71975,233.28713 C 138.78973,234.20189 140.84845,235.51368 141.57316,234.38468 C 142.17977,233.89324 142.723,235.18943 143.11885,235.58741 C 142.43833,236.33396 143.48919,236.81587 143.86416,236.04803 C 145.0166,235.98046 143.81516,237.43669 144.94835,237.63027 C 145.61103,238.07237 146.50412,238.12267 146.26582,237.0507 C 147.42887,236.2915 147.05787,234.98189 145.72949,234.74436 C 146.09092,235.54775 144.91302,235.8753 145.06977,234.79291 C 145.0664,233.67674 143.30579,233.91406 143.93682,232.6437 C 144.72572,232.2128 145.73502,231.52829 144.47308,231.01419 C 143.47506,229.99812 141.76905,230.40581 140.66649,229.36637 C 139.70255,229.34012 138.73739,228.47844 139.93894,227.81226 C 140.8013,226.89779 141.44548,225.34275 141.06482,224.15137 C 140.7782,223.88161 141.97053,223.3837 142.25178,223.71633 C 143.05539,223.16465 141.8119,223.04408 141.73615,222.29308 C 141.44082,221.64638 140.56347,222.86773 140.4458,221.78939 C 139.16993,221.32241 140.38723,218.48487 138.92819,218.88716 C 137.57052,218.61761 138.75627,216.55242 137.20789,216.45506 C 136.22096,215.90916 135.35503,215.22098 134.3215,215.85803 C 133.26422,215.47423 133.16107,217.80208 132.22116,217.16203 C 132.12945,216.04099 131.63061,215.02119 130.38746,215.24356 C 130.18283,215.17678 129.9665,215.16728 129.75848,215.11569 z "
            id="Coruche" />
        <path style="fill:#ffefd5;fill-rule:evenodd;stroke:#b22222;stroke-width:0.25400001;stroke-opacity:1"
            d="M 129.23349,190.85168 C 128.95669,191.22531 128.63629,191.61972 128.17275,191.75729 C 128.02192,191.81449 127.87437,191.80626 127.78048,191.66593 C 127.60438,191.52007 127.36944,191.38682 127.34253,191.13454 C 127.31466,190.9746 127.39306,190.82104 127.36855,190.65668 C 127.3886,190.52728 127.3996,190.39126 127.3657,190.25917 C 127.33102,190.12671 127.25544,190.00378 127.3386,189.86947 C 127.47782,189.53761 127.83517,189.34388 127.9365,188.9924 C 127.9145,188.83288 128.11293,188.91436 128.20981,188.85163 C 128.50792,188.76075 128.76745,188.54318 129.08849,188.53402 C 129.19129,188.48693 129.40587,188.33588 129.46392,188.45746 C 129.5804,188.60159 129.46659,188.78271 129.38495,188.91268 C 129.2858,189.08283 129.12302,189.24043 129.12186,189.44891 C 129.19739,189.56924 129.17858,189.70865 129.18582,189.84862 C 129.20047,190.18302 129.23378,190.51676 129.23349,190.85168 z "
            id="Entroncamento" />
        <path style="fill:#ffefd5;fill-rule:evenodd;stroke:#b22222;stroke-width:0.25400001;stroke-opacity:1"
            d="M 138.61349,167.43867 C 138.15467,167.20757 137.62828,167.74234 137.16713,167.36927 C 136.83324,167.09992 136.04602,166.83175 135.88295,167.28902 C 136.33497,167.69858 136.58046,168.24879 136.23952,168.82172 C 136.22735,169.16315 136.72353,170.02806 136.09525,169.80814 C 135.81629,169.4524 135.49281,168.77097 135.08053,169.4123 C 134.53196,169.67301 134.10245,170.32572 133.48939,170.37518 C 133.09176,169.92006 132.49694,169.78681 131.95647,170.09016 C 131.43077,170.10456 131.18874,170.54398 131.11683,171.04203 C 130.79261,171.41043 130.6596,172.09414 130.66686,172.60738 C 130.78773,173.17466 131.25659,173.69714 130.98759,174.29617 C 130.76408,174.57921 131.07898,175.34673 131.22802,174.70919 C 131.51632,174.17927 132.36221,174.43319 132.57648,174.93666 C 132.9192,175.07766 133.77636,175.52663 133.81499,174.9586 C 133.68464,174.51915 134.43907,175.07799 134.42685,174.49837 C 134.67323,173.77377 135.57686,174.41359 136.07849,174.53669 C 136.04076,175.09581 135.40556,175.36376 135.73643,175.93219 C 135.76325,176.36917 135.89171,176.80721 135.80883,177.16768 C 135.99817,177.27312 136.2429,178.05955 136.44049,177.47035 C 136.87499,177.39889 137.01348,176.76985 137.43182,176.57489 C 137.84242,176.22161 137.30257,175.5144 137.72616,175.24302 C 137.80354,175.82147 138.47754,176.09582 138.36086,176.72101 C 138.61888,177.34212 139.57508,176.89891 139.97595,177.19993 C 140.39172,177.1665 140.74552,177.73606 141.19215,177.77602 C 141.23424,178.20237 141.68599,177.0903 141.45607,176.76397 C 141.96016,176.27897 141.30648,175.75231 141.34014,175.23697 C 141.12806,174.65584 142.01488,173.99108 141.53831,173.58008 C 141.27234,173.81782 140.76563,173.57521 141.10412,173.25916 C 141.54388,173.01797 141.06322,172.52662 141.38383,172.23702 C 140.94192,171.9893 141.133,171.22984 141.59476,171.1558 C 141.59539,170.86708 141.73825,170.4268 141.61818,170.1359 C 141.44073,169.67502 140.91607,169.43099 140.84398,168.90359 C 140.78159,168.23812 140.07587,168.93792 139.94099,169.23899 C 139.53623,169.61945 139.57417,168.6369 139.17483,169.08634 C 138.76327,168.84368 138.53799,168.4622 138.78691,168.05643 C 138.72769,167.85091 138.67069,167.64474 138.61349,167.43867 z "
            id="Ferreira_do_Zêzere" sodipodi:nodetypes="csccccccccccccccccccccccccccccsccccc" />
        <path style="fill:#ffefd5;fill-rule:evenodd;stroke:#b22222;stroke-width:0.25400001;stroke-opacity:1"
            d="M 124.09149,194.81769 C 124.4098,194.55107 124.84272,194.77412 125.18318,194.75855 C 125.5762,194.6109 125.85273,194.24655 126.25302,194.12402 C 126.68476,193.86645 127.06897,193.47613 127.09749,192.95236 C 127.38099,192.57644 127.68693,192.20837 127.91216,191.79369 C 128.50003,191.78286 128.91353,191.28791 129.23416,190.85201 C 129.69185,190.98188 130.21173,190.33632 130.59361,190.71672 C 130.70597,191.20527 129.86049,191.33893 129.88583,191.86602 C 129.7194,192.24675 129.82622,192.67349 129.8343,193.06798 C 129.84181,193.47103 129.95947,193.87467 129.89616,194.2674 C 129.7106,194.86227 129.41701,195.42301 129.09556,195.95356 C 128.42464,196.72575 127.52731,197.25256 126.83595,198.00565 C 126.35501,198.4721 125.96247,199.02033 125.49609,199.49812 C 125.20694,199.74616 124.84701,200.04465 124.51414,200.15119 C 124.36061,199.88541 124.01091,199.6613 124.45595,199.47886 C 124.97776,199.25606 124.53833,198.67963 124.39208,198.34939 C 123.96701,198.48279 123.61394,198.27349 123.49066,197.84673 C 123.33964,197.53473 122.8548,197.10258 123.39311,196.94519 C 123.80603,196.81632 123.81927,196.32937 123.81969,195.95913 C 123.93876,195.59474 124.04615,195.20619 124.09149,194.81769 z "
            id="Golegã" />
        <path style="fill:#ffefd5;fill-rule:evenodd;stroke:#b22222;stroke-width:0.25400001;stroke-opacity:1"
            d="M 148.10149,179.87868 C 148.83221,179.74234 149.55951,179.93711 150.1755,179.38298 C 150.51961,179.64598 151.32024,179.27367 150.62874,179.08169 C 150.25694,178.98879 151.05755,178.25366 150.39304,178.00289 C 149.94062,177.32206 149.66664,176.3289 150.50431,175.78124 C 151.00626,175.28739 150.09852,174.34629 150.56372,173.81171 C 151.04396,173.13035 151.17801,172.25467 150.76316,171.51303 C 151.10983,171.21632 151.51345,171.03999 151.76536,170.72814 C 152.3617,171.30578 153.59294,170.49194 153.87045,171.61048 C 154.47101,171.88846 155.16198,171.28218 155.42003,170.87398 C 156.24557,171.07993 156.02032,172.22313 156.19979,172.84941 C 156.1013,173.70306 156.31214,174.62002 156.30415,175.42435 C 155.58946,175.85745 156.44229,176.88231 157.17315,176.72802 C 157.77957,177.13859 157.91963,175.9522 158.5884,176.46689 C 158.69276,176.97808 159.59408,176.68917 159.2227,177.12444 C 159.85496,177.07749 159.59746,177.73634 159.82118,177.88844 C 160.45225,177.85486 160.80305,178.27706 161.26003,178.51621 C 161.04049,179.0951 162.19758,178.78352 161.88768,179.43272 C 161.83224,179.96799 162.07563,180.23594 162.35973,180.54386 C 162.29509,180.81047 162.82119,180.83856 162.62376,181.15275 C 163.09792,181.2822 163.21407,182.19419 163.53586,181.72135 C 163.77907,182.09561 163.20521,182.81934 163.89115,182.86668 C 164.10347,183.3482 163.15066,183.25235 163.27933,183.88915 C 163.08405,184.40298 162.94898,184.75687 163.03325,185.15141 C 162.33825,185.53325 162.34643,186.76411 161.75056,186.96258 C 160.88978,186.52103 160.56775,185.65259 159.63814,185.35877 C 158.85574,185.08276 158.39443,184.21699 157.49915,184.26102 C 157.02519,183.51645 156.3541,184.77225 155.96015,183.95301 C 155.06875,184.26662 155.5772,185.42219 154.99724,186.08839 C 154.82033,186.8537 153.84714,187.05779 153.74382,187.78235 C 153.43355,188.24782 153.89842,188.8438 154.22182,189.24035 C 153.58646,189.32334 153.12484,189.88607 152.50471,189.47714 C 151.94191,190.08027 150.98679,190.08559 150.33843,189.75746 C 150.52748,188.97959 150.67457,188.27827 150.69082,187.61068 C 150.12636,187.07368 151.07992,186.08708 150.25948,185.54289 C 149.95973,185.0568 149.10775,184.70087 149.42265,183.94501 C 149.446,183.35611 149.13712,182.63009 149.63115,182.23295 C 149.56459,181.63173 149.29434,181.30605 148.78949,181.03769 C 148.98675,180.47936 148.29854,180.28218 148.10149,179.87868 z "
            id="Mação" />
        <path style="fill:#ffefd5;fill-rule:evenodd;stroke:#b22222;stroke-width:0.25400001;stroke-opacity:1"
            d="M 119.81749,185.31068 C 120.58122,184.69124 121.52288,184.29991 122.09711,183.47589 C 122.85615,182.91496 122.89525,181.78804 123.722,181.28268 C 124.86026,180.46488 125.89335,179.51502 127.00616,178.66536 C 126.89524,177.97974 126.2972,177.40601 126.95527,176.83359 C 127.21905,176.13137 126.9569,175.45068 127.32183,174.81565 C 127.48488,174.23365 128.35078,174.63678 128.26647,173.87827 C 128.85111,173.53288 129.96398,173.18325 130.14518,174.1311 C 130.53043,174.59187 130.43812,175.9921 131.18916,175.52203 C 131.13447,174.9963 130.7323,174.49808 131.07036,173.91129 C 130.84854,173.04068 130.40727,172.1839 130.92461,171.30044 C 130.66059,170.77961 129.58262,172.25551 129.68617,171.1507 C 129.46838,170.88089 130.26379,170.14178 129.50277,169.81912 C 129.13366,169.10197 129.05283,168.22983 129.07046,167.40423 C 129.04079,166.51612 128.40262,165.74706 128.49003,164.8064 C 128.11323,164.3066 127.74438,165.28338 127.31732,165.33441 C 127.00617,165.60153 126.96088,166.50146 126.6139,165.75108 C 126.23393,165.02345 125.79618,165.53666 125.7025,166.09869 C 125.05761,166.42886 124.90297,167.32553 124.23712,167.67761 C 123.26423,167.56147 122.83701,169.03234 121.77317,168.63369 C 121.38248,168.19946 121.25303,167.84928 120.57783,167.83703 C 119.83627,167.77499 119.10839,168.38973 118.4595,168.7967 C 117.72207,168.74301 117.55549,169.46429 117.65682,170.08757 C 117.18783,170.67888 117.93834,171.21826 117.7885,171.7107 C 118.29801,171.89924 118.75537,172.5696 117.87983,172.3277 C 117.35132,173.18839 118.37172,173.49577 118.99564,173.74985 C 119.56541,173.92629 120.52984,174.23768 119.75682,174.93858 C 119.53543,175.68732 119.53748,176.74135 118.54663,177.04224 C 118.11932,177.6439 116.77616,177.58209 116.46123,178.22982 C 116.40949,179.22176 117.61228,179.81163 117.14121,180.84746 C 117.20991,181.7695 117.19092,183.00115 118.1491,183.48018 C 118.82007,183.95174 119.22693,184.73962 119.81749,185.31068 z "
            id="Ourém" />
        <path style="fill:#ffefd5;fill-rule:evenodd;stroke:#b22222;stroke-width:0.25400001;stroke-opacity:1"
            d="M 105.71249,190.00069 C 106.56211,189.68986 106.60767,190.62222 106.79012,191.21522 C 106.71927,191.96777 107.2631,192.81344 106.85154,193.49239 C 106.71686,194.12885 105.88976,194.01073 105.87549,194.69035 C 106.29154,194.76657 106.56548,195.17377 106.90107,194.89327 C 107.50993,195.17814 108.26758,195.01255 108.70507,195.58668 C 108.98603,196.28373 109.54235,196.82089 109.84511,197.51417 C 109.85623,198.48537 110.87815,197.91078 111.42981,197.90732 C 111.7518,198.31999 110.93089,198.84885 110.80176,199.31296 C 110.36396,199.66592 110.46562,200.34086 110.44516,200.68626 C 110.11772,200.84635 109.70527,201.26534 110.27265,201.4924 C 110.98229,201.91576 111.70295,202.39477 111.61549,203.32768 C 111.99342,203.77543 111.93972,204.50679 111.2452,204.05472 C 110.86502,203.60664 110.38328,203.69231 109.96749,203.32768 C 109.51375,203.71972 110.67693,204.28907 109.77099,204.3438 C 109.12709,204.61725 108.56951,205.15021 107.84915,205.21102 C 107.43596,204.63888 106.54152,204.89704 105.98454,205.12008 C 105.64037,205.37195 105.12713,206.26407 104.76165,205.72281 C 104.22912,205.56841 103.52798,205.74836 103.05289,205.22269 C 102.5828,204.81627 102.07353,204.37906 101.4756,204.87295 C 100.9286,204.99372 101.28614,203.92093 101.35353,203.56322 C 101.69323,202.92325 101.4628,202.32123 100.81691,202.0067 C 100.2448,201.42882 101.42321,200.59749 101.06284,199.88638 C 100.58706,199.44186 100.72998,198.72755 100.43957,198.1798 C 100.19506,197.48865 100.73231,196.85113 100.91848,196.21466 C 101.17458,195.89784 101.33039,195.28305 101.27182,195.03435 C 101.18377,195.61791 101.6593,195.46736 101.84632,195.17934 C 102.28777,194.74866 103.20709,195.42662 103.52149,194.67234 C 103.40816,194.01124 103.91712,193.47954 104.01593,192.81158 C 104.6279,191.90615 105.17953,190.94481 105.71249,190.00069 z "
            id="Rio_Maior" />
        <path style="fill:#ffefd5;fill-rule:evenodd;stroke:#b22222;stroke-width:0.25400001;stroke-opacity:1"
            d="M 111.94149,218.06769 C 112.7171,218.08253 113.22162,217.38428 113.25912,216.65791 C 113.51824,216.04944 114.07108,215.57253 114.50912,215.07089 C 114.93806,214.54185 115.62949,214.14738 115.70982,213.41534 C 115.84922,212.83852 116.4535,213.64129 116.81963,213.66943 C 117.17823,213.79855 117.53645,213.69088 117.72757,214.09214 C 118.27347,213.87891 118.79933,214.07748 119.24855,214.35103 C 119.78427,214.3453 120.43363,214.15847 120.36149,213.48636 C 120.73849,213.88879 121.48699,213.62803 121.54254,214.3202 C 121.90783,214.80901 121.69576,215.64045 122.49056,215.79612 C 123.11573,216.28636 121.49569,216.57686 122.11052,217.15686 C 122.43355,217.58947 122.45238,218.13482 122.5967,218.64658 C 122.78062,219.10743 123.40446,219.96961 122.49245,220.00327 C 122.1609,220.50901 122.02919,221.19906 121.3627,221.45268 C 120.76261,221.74206 120.99373,222.75152 120.18449,222.57683 C 119.51509,222.69162 118.93837,223.11897 118.4158,223.54192 C 118.00924,223.91111 117.59249,224.34143 117.0054,224.3322 C 116.5595,224.24701 116.01887,223.85183 115.54634,223.86107 C 114.96802,223.87827 114.39401,223.78415 113.87521,223.54954 C 113.43229,223.65299 112.90711,223.58011 112.66365,223.07668 C 112.24447,222.53009 111.5603,222.52014 111.03148,222.18545 C 111.23641,221.59896 109.87628,221.52991 110.45603,220.96923 C 110.88883,220.52708 110.52549,220.0876 110.02183,219.98702 C 110.529,219.39349 110.67414,218.36897 111.57029,218.2141 C 111.69485,218.16753 111.8217,218.12605 111.94149,218.06769 z "
            id="Salvaterra_de_Magos" />
        <path style="fill:#ffefd5;fill-rule:evenodd;stroke:#b22222;stroke-width:0.25400001;stroke-opacity:1"
            d="M 116.61249,210.87868 C 117.4039,210.1807 117.16176,209.09615 117.35482,208.19869 C 117.80483,207.23998 117.53768,205.62756 119.04953,205.6404 C 120.00336,205.63905 120.61701,204.65849 120.43316,203.76236 C 120.29105,202.67054 120.99943,201.95769 122.00426,201.66978 C 122.76239,201.04856 123.73268,200.55756 124.49828,200.12207 C 123.79382,199.54438 125.22046,199.25649 124.49834,198.51869 C 124.20894,198.21902 123.48865,198.43846 123.41229,197.71356 C 122.56014,196.95957 124.1858,196.82946 123.81917,195.90369 C 124.04028,195.36192 124.30681,194.65674 123.54635,194.55318 C 123.27723,193.83231 122.46326,193.79132 122.06283,194.2377 C 121.89895,193.85232 121.08687,192.34458 120.9765,193.33236 C 120.72726,193.13072 120.39677,191.84922 120.0434,192.76362 C 120.1002,193.65512 119.56074,192.97642 119.21501,193.18357 C 118.75608,193.38591 118.63475,194.3961 118.06528,193.62864 C 117.71701,193.34382 117.54932,193.90743 117.12868,193.92969 C 116.84181,195.12181 116.07269,193.97968 115.49717,193.58603 C 114.85592,194.00282 114.04252,194.88194 113.20559,194.42743 C 112.86058,193.95694 113.69721,193.4101 113.31684,192.82536 C 113.98542,192.90298 114.09352,192.03906 114.79866,192.34146 C 116.11087,192.46986 115.41526,190.93359 114.85617,190.50769 C 114.43001,189.99509 113.54355,190.89047 113.58534,189.8861 C 113.39217,188.91422 112.03028,188.88785 111.21919,188.88717 C 110.29846,189.08063 109.33185,189.34215 108.37626,189.41936 C 107.58749,189.05865 106.68762,189.10348 106.36351,189.96436 C 106.73171,190.72065 106.87453,191.56768 106.88377,192.37483 C 107.42104,193.36185 106.41973,193.97757 105.89178,194.51659 C 105.94228,194.87158 106.64898,195.10279 106.90042,194.89327 C 107.66848,195.16363 108.75877,195.07265 108.95284,196.12103 C 109.57964,196.6587 109.68744,197.71969 110.27484,198.11269 C 110.7861,198.0206 111.99253,197.58591 111.36118,198.54736 C 110.8253,199.11053 110.26318,199.91897 110.47384,200.70202 C 109.26574,201.15045 110.81973,201.79259 111.3073,202.24325 C 111.62645,202.78226 111.58503,203.54235 111.91184,204.10636 C 111.13845,204.43065 110.46313,203.13735 109.86314,203.48272 C 109.93197,203.9482 110.44707,204.32119 109.62255,204.41322 C 108.86582,204.87176 107.98738,205.47016 107.26884,204.90302 C 106.68522,205.12589 107.5742,206.2525 108.04218,206.39411 C 108.86379,206.70593 109.61551,206.97732 109.90552,208.02369 C 109.73836,208.82055 111.26115,208.54133 111.48537,208.09181 C 111.39154,207.35035 112.26863,208.10167 112.65416,207.52869 C 113.0715,208.41334 113.38978,209.42042 114.40446,209.78563 C 114.09407,210.48161 115.39513,209.55856 115.27321,209.03969 C 115.41894,208.56881 115.82104,208.00374 115.87145,208.83914 C 116.07184,209.52956 115.88734,210.46542 116.61249,210.87868 z "
            id="Santarém" />
        <path style="fill:#ffefd5;fill-rule:evenodd;stroke:#b22222;stroke-width:0.25400001;stroke-opacity:1"
            d="M 145.07748,179.08168 C 145.60501,179.05708 145.90343,179.55299 146.18216,179.92201 C 146.54222,180.03482 146.86853,179.94205 147.2059,179.77404 C 147.52224,179.99753 147.9977,179.56033 148.18404,180.03082 C 148.42069,180.25949 148.82425,180.47466 148.80626,180.83913 C 148.64521,181.35779 149.52952,181.19858 149.45712,181.67278 C 149.55496,181.9853 149.81688,182.40273 149.37217,182.55654 C 149.24126,182.95769 149.50362,183.41307 149.39124,183.82723 C 149.4883,184.11795 149.24731,184.40524 149.50333,184.67537 C 149.64205,184.99296 149.0287,184.96345 149.24216,185.32902 C 148.89626,185.25002 148.53514,185.19293 148.16014,185.25227 C 147.94647,185.24338 147.57532,184.8937 147.57072,185.27263 C 147.84688,185.58621 147.75786,185.98953 147.71762,186.35236 C 147.55602,186.62949 147.76165,186.80894 147.80248,187.06315 C 147.65008,187.27842 147.22659,187.27284 147.11768,187.61441 C 146.99616,187.89108 146.82924,187.91728 146.59873,187.7486 C 146.23266,187.80036 146.2552,187.15104 145.85166,187.40864 C 145.40047,187.43518 145.43761,186.76999 145.06758,186.59279 C 144.80879,186.46751 144.41236,186.75702 144.27354,186.34511 C 143.84499,186.15202 144.17825,185.66431 143.99341,185.39093 C 143.60617,185.45212 143.35004,184.92342 143.55702,184.59388 C 143.86189,184.22828 143.37388,183.7936 143.52645,183.40048 C 143.99852,183.10741 143.66713,182.54718 143.9122,182.11543 C 144.13254,181.82131 144.50059,181.64068 144.64799,181.28548 C 144.79065,180.8764 144.28051,180.51658 144.57208,180.1227 C 144.78026,179.80711 144.75871,179.401 145.06849,179.1429 L 145.07749,179.08168 L 145.07748,179.08168 z "
            id="Sardoal" />
        <path style="fill:#ffefd5;fill-rule:evenodd;stroke:#b22222;stroke-width:0.25400001;stroke-opacity:1"
            d="M 141.18449,177.74168 C 140.62233,177.67617 140.24402,177.06775 139.76666,177.15197 C 139.22525,176.96794 138.14869,177.27776 138.33375,176.28904 C 138.0457,175.98061 137.86471,175.55927 137.67149,175.24302 C 137.46026,175.79487 137.79172,176.59776 137.04912,176.91578 C 136.72126,177.39133 136.11208,178.0985 135.89682,177.18035 C 135.72131,176.81432 135.86442,175.94502 135.60716,175.38769 C 136.19196,174.98424 136.18736,174.2601 135.36865,174.30693 C 134.79915,173.83595 134.41126,174.42847 134.15641,174.83002 C 133.5753,174.44592 134.04352,175.42392 133.4848,175.20824 C 132.63702,175.36964 132.30975,174.1188 131.46286,174.4925 C 130.75827,174.67509 131.57201,175.56746 130.90578,175.68628 C 130.37925,175.26309 130.41104,174.44062 130.00716,173.79392 C 129.57312,173.24299 128.51014,173.59512 128.16965,174.05124 C 128.33667,174.76568 127.0247,174.17011 127.31415,175.08003 C 126.75721,175.61765 127.36708,176.47279 126.84618,177.06953 C 126.23019,177.57556 127.04962,178.24447 127.1262,178.80985 C 127.82789,179.2959 127.29484,180.16917 127.74838,180.78768 C 128.24078,181.47914 128.37306,182.32693 128.81682,182.99302 C 128.27901,183.26815 128.73722,184.07191 128.03815,184.21336 C 128.20605,184.93209 128.54504,185.49136 129.07528,185.96311 C 129.41539,186.48264 129.4639,187.70088 130.2367,186.98351 C 130.95108,186.95012 131.53061,187.26608 131.85313,187.94258 C 131.87231,188.7743 132.98083,188.69207 133.41615,189.29436 C 133.91877,189.08013 134.74402,188.78108 134.0932,188.18312 C 134.43494,187.50995 134.56892,186.71164 135.10923,186.17151 C 135.40068,185.48022 136.24354,185.4428 136.75642,184.95392 C 137.23047,184.59277 138.20243,184.9076 138.02427,184.05713 C 138.22186,183.41289 138.90532,183.20644 139.37349,182.81202 C 139.83806,183.3227 140.31377,182.23638 140.17946,181.8656 C 140.4768,181.62313 140.71254,181.51456 141.09382,181.43569 C 140.97508,180.67931 139.99905,180.83074 139.63707,180.5736 C 139.83741,180.07008 140.51057,179.61752 140.20012,179.14416 C 140.90232,179.03205 140.27913,177.59713 141.13015,177.97735 C 141.2086,177.92021 141.20493,177.82279 141.18449,177.74168 z "
            id="Tomar" />
        <path style="fill:#ffefd5;fill-rule:evenodd;stroke:#b22222;stroke-width:0.25400001;stroke-opacity:1"
            d="M 124.09149,194.81769 C 124.6989,194.54847 125.41946,194.96988 125.90333,194.2954 C 126.41682,194.05669 127.01591,193.68043 127.07845,193.05615 C 127.21619,192.50954 128.3897,191.87257 127.51799,191.45356 C 127.25209,190.97295 127.33628,190.27292 127.39836,189.75599 C 127.8353,189.0911 128.25019,188.64238 129.08916,188.53436 C 129.67402,188.44728 129.53236,187.60569 129.62854,187.19214 C 129.3043,186.53941 129.13045,185.73249 128.46731,185.35552 C 128.27796,184.80788 127.78488,184.18961 128.46366,183.87473 C 128.5013,183.52418 128.53248,183.16668 128.80658,182.92423 C 128.33608,182.29966 128.24278,181.45097 127.74905,180.78801 C 127.30262,180.21824 127.80203,179.41295 127.23347,178.925 C 126.8017,178.34861 126.22294,179.47748 125.74645,179.68217 C 124.96562,180.38709 124.06257,180.95295 123.29434,181.66458 C 122.86874,182.17931 122.7589,182.9105 122.23028,183.33364 C 121.79021,183.92554 121.24705,184.37592 120.60839,184.73526 C 119.78625,185.35869 118.94314,185.98063 118.26222,186.7667 C 117.50829,187.45898 118.84639,187.47278 119.1957,187.87323 C 119.92801,188.10032 119.75554,188.92914 120.22648,189.37836 C 120.45553,189.71624 121.31397,189.78126 120.68383,190.26506 C 120.44213,190.54888 119.95613,190.57947 120.34315,191.03302 C 120.21952,191.53015 120.54992,192.04638 120.50177,192.50886 C 120.78696,192.62344 120.75191,193.60135 120.97524,193.19777 C 121.04401,192.59454 121.77932,193.39129 121.77295,193.73506 C 121.8516,194.14282 122.31454,194.47603 122.42549,193.91203 C 123.11564,193.7219 123.37967,194.49621 123.83595,194.71763 C 123.92583,194.73299 124.0237,194.74981 124.09149,194.81769 z "
            id="Torres_Novas" />
        <path style="fill:#ffefd5;fill-rule:evenodd;stroke:#b22222;stroke-width:0.25400001;stroke-opacity:1"
            d="M 129.68649,187.28468 C 129.96031,187.07247 130.26449,186.91458 130.60081,187.0298 C 130.87037,187.07597 131.20019,186.96301 131.3146,187.30422 C 131.53274,187.49531 131.77533,187.68329 131.87154,187.98332 C 131.98794,188.21814 131.87204,188.53612 132.23374,188.52977 C 132.47006,188.71942 132.75232,188.85599 133.03361,188.95086 C 133.24508,189.1203 133.40293,189.40695 133.67703,189.18362 C 133.96898,189.15381 134.08005,188.81087 134.35227,188.7694 C 134.42933,188.49253 133.95246,188.29196 134.14694,188.01708 C 134.31977,187.66791 134.50669,187.32337 134.59253,186.93971 C 134.66364,186.72904 134.83438,186.38402 135.05395,186.65299 C 135.39699,186.73233 135.67961,186.92248 135.94895,187.12136 C 136.17616,187.0095 136.51348,187.22412 136.26651,187.4472 C 136.09927,187.6489 136.35749,187.9794 136.10281,188.17355 C 135.88995,188.51297 135.64397,188.85851 135.56743,189.25319 C 135.61211,189.48944 135.91488,189.68771 135.63445,189.90339 C 135.55604,190.18747 135.25352,190.33305 134.99053,190.42782 C 134.71309,190.5115 134.41654,190.52069 134.13475,190.48495 C 133.84914,190.473 133.5657,190.4402 133.2856,190.41382 C 132.72587,190.51958 132.21989,190.85643 131.63782,190.83969 C 131.34772,190.87482 131.03698,190.77614 130.76394,190.88868 C 130.52672,191.03164 130.67608,190.49387 130.3588,190.58391 C 129.97003,190.6168 129.63122,190.91729 129.23381,190.85203 C 129.23421,190.42276 129.17927,189.99561 129.17948,189.56635 C 129.00298,189.27921 129.36403,189.03162 129.46281,188.77881 C 129.53972,188.48765 129.38817,188.18067 129.53773,187.87087 C 129.54462,187.65244 129.62902,187.48591 129.68649,187.28468 z "
            id="Vila_Nova_da_Barquinha" />
    </g>
    <!-- EO MUNICIPIOS -->
</svg>