<?xml version="1.0" encoding="UTF-8" standalone="no"?>
<!-- Creator: CorelDRAW -->
<svg xmlns:dc="http://purl.org/dc/elements/1.1/" xmlns:cc="http://web.resource.org/cc/"
    xmlns:rdf="http://www.w3.org/1999/02/22-rdf-syntax-ns#" xmlns:svg="http://www.w3.org/2000/svg"
    xmlns="http://www.w3.org/2000/svg" xmlns:sodipodi="http://inkscape.sourceforge.net/DTD/sodipodi-0.dtd"
    xmlns:inkscape="http://www.inkscape.org/namespaces/inkscape" xml:space="preserve" width="250" height="366"
    style="shape-rendering:geometricPrecision; text-rendering:geometricPrecision; image-rendering:optimizeQuality; fill-rule:evenodd; clip-rule:evenodd"
    viewBox="0 0 200 200" id="svg1627" sodipodi:version="0.32" inkscape:version="0.43"
    sodipodi:docname="Mapa_de_Portugal.svg" sodipodi:docbase="C:\Documents and Settings\Márcio Silva\Os meus documentos"
    version="1.0">
    <metadata id="metadata1927">
        <rdf:RDF>
            <cc:Work rdf:about="">
                <dc:format>image/svg+xml</dc:format>
                <dc:type rdf:resource="http://purl.org/dc/dcmitype/StillImage" />
                <dc:title>Munícipios de Portugal</dc:title>
                <cc:license rdf:resource="http://creativecommons.org/licenses/GPL/2.0/" />
                <dc:creator>
                    <cc:Agent>
                        <dc:title>Rei-artur (rei.artur@gmail.com)</dc:title>
                    </cc:Agent>
                </dc:creator>
            </cc:Work>
            <cc:License rdf:about="http://creativecommons.org/licenses/GPL/2.0/">
                <cc:permits rdf:resource="http://web.resource.org/cc/Reproduction" />
                <cc:permits rdf:resource="http://web.resource.org/cc/Distribution" />
                <cc:requires rdf:resource="http://web.resource.org/cc/Notice" />
                <cc:permits rdf:resource="http://web.resource.org/cc/DerivativeWorks" />
                <cc:requires rdf:resource="http://web.resource.org/cc/ShareAlike" />
                <cc:requires rdf:resource="http://web.resource.org/cc/SourceCode" />
            </cc:License>
        </rdf:RDF>
    </metadata>

    <sodipodi:namedview inkscape:window-height="582" inkscape:window-width="866" inkscape:pageshadow="2"
        inkscape:pageopacity="0.0" borderopacity="1.0" bordercolor="#666666" pagecolor="#ffffff" id="base"
        fill="#ffff00" inkscape:zoom="1.1338798" inkscape:cx="125" inkscape:cy="211.12313" inkscape:window-x="28"
        inkscape:window-y="117" inkscape:current-layer="layer7" showguides="true" inkscape:guide-bbox="true">
        <sodipodi:guide orientation="horizontal" position="329.9602" id="guide2648" />
        <sodipodi:guide orientation="horizontal" position="307.74672" id="guide2650" />
    </sodipodi:namedview>

    <defs id="defs1629">
        <metadata id="CorelCorpID_0Corel-Layer" />
        <sodipodi:namedview inkscape:guide-bbox="true" showguides="true" inkscape:current-layer="layer1"
            inkscape:window-y="-4" inkscape:window-x="-4" inkscape:cy="327.60442" inkscape:cx="146.08303"
            inkscape:zoom="17.548964" fill="#fa8072" id="namedview5974" pagecolor="#ffffff" bordercolor="#666666"
            borderopacity="1.0" inkscape:pageopacity="0.0" inkscape:pageshadow="2" inkscape:window-width="1024"
            inkscape:window-height="712" />
    </defs>

    <!-- <g inkscape:groupmode="layer" id="layer3" inkscape:label="fundo" style="display:inline" sodipodi:insensitive="true">
        <rect style="fill:#4169e1;fill-opacity:1;fill-rule:evenodd;stroke:none;display:inline" id="rect2247" width="200" height="200" />
    </g> -->

    <g inkscape:groupmode="layer" id="layer10" inkscape:label="----detalhes----" style="display:inline" />

    <!-- MUNICIPIOS -->
    <g inkscape:groupmode="layer" id="layer4" inkscape:label="Municipios" style="display:inline"
        sodipodi:insensitive="true" transform="translate(-155,-495) scale(2.2)">
        <path style="fill:#ffefd5;fill-rule:evenodd;stroke:#b22222;stroke-width:0.25400001;stroke-opacity:1"
            d="M 145.2775,269.1127 C 143.96471,268.58954 143.36143,266.83895 141.62953,267.25744 C 140.56695,266.95754 139.24498,267.19909 139.22749,265.84622 C 138.5129,264.77647 135.57737,266.37851 137.15042,264.63377 C 137.67867,263.84233 138.61857,262.79965 137.70849,261.96736 C 138.59243,262.03172 138.58298,261.78746 138.34215,261.01869 C 137.328,261.36864 135.58936,260.8755 136.89504,259.75015 C 137.24502,258.87901 136.14946,257.23619 135.76016,256.23801 C 134.80982,255.53673 134.49273,254.15813 133.8062,253.59048 C 132.24734,253.70444 131.55567,256.23817 129.89634,254.93123 C 129.50045,253.03152 127.51713,255.29617 126.96353,253.59002 C 125.61364,253.33176 126.03949,254.27248 126.60619,255.0115 C 126.54135,255.84579 124.99059,256.34733 125.24269,255.07648 C 124.66505,254.0013 122.48189,255.36763 122.86015,253.48568 C 121.6881,254.14444 120.67769,252.4987 119.34749,253.17801 C 117.82864,253.20191 116.67664,253.94575 115.79561,255.1703 C 115.24716,255.75706 114.15272,255.36563 114.60229,256.45718 C 114.71835,257.79212 114.83441,259.12706 114.95048,260.46201 C 115.50692,260.82978 116.06337,261.19756 116.61981,261.56534 C 116.85321,262.32519 115.89444,262.00616 115.45002,262.15261 C 114.85965,262.30571 114.33493,262.22413 113.91955,261.75178 C 113.50546,261.34998 113.01838,261.12078 112.43682,261.11506 C 111.46408,260.87212 110.46156,260.43614 109.46482,260.54599 C 109.97893,261.80237 110.70901,263.24513 111.11321,264.64824 C 111.40288,266.08943 111.18849,269.36856 113.26199,269.15443 C 114.44351,270.27754 116.29057,270.64589 117.89925,270.27025 C 119.43644,269.8175 120.63652,270.84035 120.94328,272.37189 C 122.18878,273.30428 123.83235,272.71125 125.19343,273.38367 C 125.7949,273.40263 126.12934,274.38665 127.00681,274.14535 C 127.97235,274.72749 128.40606,272.28991 128.70914,273.24002 C 128.57135,274.69149 130.42678,275.5967 131.4818,276.35575 C 132.42033,276.62733 134.1444,274.03571 134.03281,276.17368 C 133.73771,276.88106 134.56642,277.86739 134.54454,276.76746 C 135.27944,275.95739 134.79421,278.38742 135.96902,277.62201 C 137.48682,278.06687 138.16636,276.8926 138.99414,275.92001 C 139.6909,276.3142 139.77771,277.60717 139.70647,277.20668 C 140.46822,278.12482 141.88394,277.12537 142.8528,277.33558 C 144.15376,277.14455 144.88042,275.90012 146.29147,276.04768 C 147.56587,275.18825 146.88744,273.25913 146.55889,272.0148 C 146.61896,270.84437 145.38039,270.22414 145.2775,269.1127 z "
            id="Alcácer_do_Sal" />
        <path style="fill:#ffefd5;fill-rule:evenodd;stroke:#b22222;stroke-width:0.25400001;stroke-opacity:1"
            d="M 104.78849,244.72169 C 104.71717,244.21688 104.53819,243.73509 104.4641,243.23316 C 104.37419,242.89272 104.29263,242.53428 104.08949,242.24102 C 103.69036,242.01809 103.27039,241.82411 102.92972,241.51306 C 102.71225,241.28729 102.36117,241.24567 102.12715,241.3126 C 101.89896,240.97678 101.4431,241.05921 101.12617,241.17309 C 100.76582,241.36831 100.3907,241.58613 99.971814,241.60735 C 99.69033,241.80495 99.320521,241.67048 99.027266,241.5646 C 98.847838,241.51395 98.782508,241.354 98.633637,241.2479 C 98.543037,241.19588 98.466285,241.00946 98.358759,241.12169 C 98.045277,241.30094 97.737202,241.49701 97.416145,241.65802 C 97.310401,242.24693 97.191282,242.83477 97.093811,243.42435 C 97.117358,243.51143 97.253468,243.48486 97.317351,243.52928 C 97.468312,243.57008 97.618827,243.64276 97.770053,243.66466 C 97.918985,243.62786 98.064106,243.56452 98.215477,243.54469 C 98.509546,243.62671 98.882584,243.46865 99.101785,243.27233 C 99.33326,243.08046 99.678049,242.81593 99.976322,243.02722 C 100.33088,243.12491 100.7604,243.27038 100.97569,243.5998 C 101.10158,243.8985 101.28381,244.22299 101.21257,244.55538 C 101.06069,244.87962 101.42065,245.1461 101.36143,245.46363 C 101.3083,245.73966 101.47043,245.98126 101.74963,245.79639 C 101.99947,245.64324 102.30081,245.68908 102.34471,246.01788 C 102.47778,246.03344 102.72275,245.80624 102.94147,245.88069 C 102.99653,245.68738 103.02778,245.40412 103.31368,245.56197 C 103.56901,245.71748 103.88308,245.82555 104.16732,245.66831 C 104.43131,245.50301 104.96554,245.6027 104.70415,245.15341 C 104.65232,245.00389 104.69871,244.84635 104.78849,244.72169 z "
            id="Alcochete" />
        <path style="fill:#ffefd5;fill-rule:evenodd;stroke:#b22222;stroke-width:0.25400001;stroke-opacity:1"
            d="M 91.226189,251.23969 C 90.932004,250.64719 90.560619,250.09841 90.211858,249.53769 C 90.155668,249.28294 90.705871,249.47046 90.465186,249.14241 C 90.124595,248.92452 90.156623,248.54971 90.429191,248.28836 C 90.478542,247.85499 90.756831,247.55256 90.64265,247.11902 C 90.704436,246.84361 90.473201,246.59162 90.881013,246.61163 C 91.01975,246.28953 91.733136,246.36969 91.76181,245.96161 C 91.760626,245.62238 92.246722,245.92757 92.167525,246.16969 C 92.564437,246.20625 92.425725,245.73012 92.719336,245.60043 C 92.939686,245.50099 92.730176,245.37559 92.641263,245.25747 C 92.418127,244.9991 92.194991,244.74073 91.971855,244.48236 C 91.982854,244.16777 92.05489,243.84896 92.026192,243.5367 C 91.897001,243.49155 91.731736,243.53727 91.591342,243.52147 C 91.431306,243.5286 91.323738,243.47967 91.180552,243.57208 C 90.775795,243.72137 90.380055,243.90963 89.969616,244.03437 C 89.220363,244.09337 88.471109,244.15237 87.721855,244.21136 C 87.594093,244.20141 87.422791,244.31166 87.278198,244.34818 C 86.747637,244.54079 86.217077,244.73341 85.686516,244.92603 C 85.615206,244.80125 85.552006,244.65585 85.488518,244.5367 C 85.208861,244.58851 84.915809,244.61821 84.643852,244.68636 C 84.560923,244.80718 84.772939,244.86267 84.828798,244.93885 C 85.279483,245.3019 85.730169,245.66496 86.180855,246.02802 C 86.256597,246.23275 86.44349,246.38892 86.562683,246.57467 C 87.061996,247.23942 87.582697,247.89318 88.068656,248.56478 C 88.475853,249.89258 88.88116,251.22248 89.284798,252.55042 C 89.359012,252.69031 89.414746,252.92485 89.559039,252.70579 C 89.807315,252.53913 89.638176,252.19911 89.958356,252.03205 C 90.294049,251.71389 90.809862,251.67992 91.144279,251.33971 L 91.184476,251.3016 L 91.226185,251.23969 L 91.226189,251.23969 z "
            id="Almada" />
        <path style="fill:#ffefd5;fill-rule:evenodd;stroke:#b22222;stroke-width:0.25400001;stroke-opacity:1"
            d="M 99.229485,249.48369 C 99.15929,249.23794 98.994679,249.00744 99.281893,248.83841 C 99.320947,248.55487 99.330073,248.21973 99.312902,247.92341 C 99.293311,247.49717 98.797149,248.07467 98.726115,247.71629 C 98.688653,247.51684 98.694738,247.28015 98.470714,247.22505 C 98.337158,247.02332 98.101732,246.99349 97.956743,246.79317 C 97.661386,246.87981 97.209619,246.86318 97.056487,246.55036 C 97.375623,246.34866 97.336329,246.04507 97.153796,245.76932 C 97.043317,245.49954 97.060052,245.14502 97.310154,244.95702 C 97.369916,244.75235 97.348561,244.53559 97.364151,244.32436 C 97.044818,244.40702 96.725484,244.48969 96.406151,244.57236 C 96.332586,244.55938 96.215452,244.66339 96.125897,244.69335 C 95.838044,244.84288 95.536843,244.98265 95.257107,245.13804 C 95.099124,245.32247 94.941141,245.50691 94.783157,245.69135 C 94.858935,245.81468 94.934713,245.93802 95.01049,246.06136 C 95.293137,246.13583 95.6448,246.13102 95.857073,246.3286 C 95.915848,246.56924 95.622498,246.905 95.960429,247.10603 C 96.1727,247.31683 96.442121,247.54237 96.388624,247.8771 C 96.351743,248.19649 96.686818,248.36438 96.701349,248.66286 C 96.837051,249.02332 97.027935,249.36772 97.273824,249.66468 C 97.255164,250.09228 96.949114,250.51383 97.114698,250.94188 C 97.272367,251.25652 97.666494,251.07393 97.932536,251.19421 C 98.210517,251.25648 98.531044,251.16971 98.755184,250.98061 C 98.92773,250.72809 98.863248,250.3501 99.128313,250.13781 C 99.374516,249.98265 99.637192,250.28889 99.919964,250.21991 C 100.20327,250.08289 99.624972,250.01797 99.499788,249.97391 C 99.213196,249.93686 99.188959,249.72524 99.229485,249.48369 z "
            id="Barreiro" />
        <path style="fill:#ffefd5;fill-rule:evenodd;stroke:#b22222;stroke-width:0.25400001;stroke-opacity:1"
            d="M 111.71449,272.17169 C 111.96978,274.30608 112.02491,276.47888 111.64041,278.60105 C 111.47011,280.00755 111.03551,281.36473 110.74082,282.74802 C 112.39027,283.07082 113.63847,282.98426 115.03151,283.88612 C 115.8449,284.54419 117.26261,284.02285 116.31282,283.03735 C 117.05393,282.85543 118.78581,281.8584 118.80731,283.35903 C 119.37413,284.34995 119.87792,285.41527 121.33378,285.39307 C 122.70424,286.10543 123.93824,286.45831 125.04048,287.49169 C 126.58644,287.72284 127.73225,288.64243 129.13435,289.09038 C 130.21572,288.43313 130.81712,289.83875 131.51374,288.61406 C 131.844,287.86068 131.42583,286.74437 132.14686,285.82097 C 132.67476,284.93346 132.59753,282.40066 133.94485,284.02201 C 135.38075,283.79498 133.92349,281.09864 135.53376,281.40836 C 136.11139,280.12625 136.37474,278.51786 138.26915,278.72602 C 138.33719,277.56686 140.71816,277.42967 139.22907,276.19636 C 138.33572,275.52843 137.9742,278.28036 136.65688,277.62136 C 135.82242,277.61992 134.8805,277.92308 135.08773,276.83561 C 134.45486,275.65768 134.53463,278.28274 134.06815,276.95014 C 134.09038,275.88806 133.9723,274.56128 132.79757,275.79306 C 131.31929,277.33267 129.57679,274.95941 128.6703,273.81656 C 128.67948,272.98825 128.81485,272.72817 128.02049,273.42068 C 127.79727,274.94833 125.68443,273.76111 125.19278,273.38301 C 123.83171,272.71058 122.18812,273.30364 120.94263,272.37123 C 120.65222,270.46024 118.94649,269.82231 117.2816,270.37955 C 115.34058,270.90837 114.02245,269.19844 112.35717,269.14702 C 111.06905,267.62504 111.53684,265.43182 110.75379,263.77567 C 110.54373,262.66338 109.78107,261.59236 109.51267,260.5721 C 108.83167,260.18775 108.06836,259.899 107.68887,259.16455 C 107.09373,258.37469 106.54018,257.54172 105.64565,257.06226 C 105.41414,256.61854 104.0416,257.08176 104.71808,257.40807 C 106.17608,258.74891 107.52729,260.21208 108.71134,261.79495 C 109.42006,263.13107 110.24042,264.42014 110.5754,265.91377 C 110.9949,267.4338 111.61146,268.93466 111.61016,270.53121 C 111.64482,271.07804 111.68041,271.62484 111.71449,272.17169 z "
            id="Grândola" />
        <path style="fill:#ffefd5;fill-rule:evenodd;stroke:#b22222;stroke-width:0.25400001;stroke-opacity:1"
            d="M 102.38049,246.06169 C 102.29518,245.81217 102.11242,245.58687 101.83426,245.76598 C 101.55004,245.95697 101.27976,245.81742 101.36178,245.46363 C 101.41217,245.15404 101.10351,244.92331 101.18549,244.59501 C 101.31575,244.32529 101.14081,244.02161 101.05055,243.76167 C 100.96893,243.45559 100.67389,243.30401 100.41223,243.17094 C 100.12428,243.11824 99.874517,242.87876 99.573799,242.9773 C 99.286782,243.05601 99.10204,243.33221 98.851409,243.44604 C 98.609407,243.54939 98.352321,243.58971 98.110262,243.56499 C 97.990668,243.60882 97.848979,243.62423 97.742969,243.68553 C 97.619593,243.90547 97.472945,244.11857 97.363816,244.3427 C 97.348302,244.54791 97.370373,244.75874 97.310492,244.95736 C 96.994004,245.19875 97.066633,245.65157 97.234292,245.95879 C 97.479858,246.18919 97.128784,246.41395 97.083419,246.57938 C 97.241672,246.90444 97.715303,246.83024 97.999169,246.81393 C 98.145668,247.03385 98.404126,247.08515 98.552837,247.27821 C 98.799497,247.36844 98.599127,248.03791 99.028929,247.79839 C 99.410355,247.60654 99.33943,248.21342 99.30385,248.42341 C 99.366415,248.68957 99.281361,248.89511 99.085159,249.07502 C 99.198467,249.27687 99.167831,249.58972 99.472783,249.45234 C 99.976576,249.38149 100.47523,249.24146 100.95593,249.06664 C 101.15905,248.83785 100.85011,248.47744 100.8016,248.21063 C 100.63374,247.93643 100.70671,247.61623 100.86189,247.3488 C 101.15515,247.0118 101.58679,247.40869 101.7858,247.66163 C 101.99685,247.82537 102.12505,248.28843 102.37155,248.27452 C 102.53368,248.04456 102.39614,247.67263 102.65216,247.45602 C 102.66913,247.16187 102.83282,246.91016 102.65878,246.61664 C 102.58826,246.42291 102.51638,246.22029 102.38049,246.06169 z "
            id="Moita" />
        <path style="fill:#ffefd5;fill-rule:evenodd;stroke:#b22222;stroke-width:0.25400001;stroke-opacity:1"
            d="M 98.440788,241.07368 C 99.466102,240.51146 100.2748,239.61275 101.37382,239.21412 C 101.89446,239.23403 101.60417,238.39005 102.10227,238.5526 C 102.71656,238.5903 103.33084,238.628 103.94512,238.6657 C 103.99519,239.19013 104.3541,240.05534 104.7302,239.23077 C 105.27326,239.63124 105.92355,240.37764 106.70041,239.57246 C 107.58229,239.11243 108.81921,237.84927 109.60787,239.20038 C 110.72948,239.88196 109.82965,240.79037 109.5782,241.70626 C 109.51538,242.64802 108.71178,243.30497 108.54573,244.23158 C 107.535,244.46451 106.51205,244.50676 105.47646,244.61335 C 104.06118,245.09063 104.92742,242.61465 103.88725,242.13019 C 102.89827,241.55916 101.89541,240.6957 100.78726,241.35422 C 100.09881,241.71966 99.118545,241.90299 98.59029,241.20877 C 98.540464,241.16374 98.490592,241.1187 98.440788,241.07368 z M 113.55249,240.50269 C 114.29951,239.79529 115.20212,238.9053 113.94905,238.21095 C 113.65581,237.15769 114.73409,236.30918 115.15843,235.41867 C 115.75204,234.8415 115.94095,233.37961 116.33282,233.16356 C 116.8779,233.79012 117.157,234.6123 118.04885,234.7272 C 118.64022,235.44475 119.69006,235.59696 119.85036,234.50202 C 120.09021,233.81343 120.9634,233.33615 121.71915,233.21268 C 121.93887,233.91265 120.98781,234.16562 121.32035,234.8881 C 121.12356,235.73795 121.44498,236.69184 120.81382,237.31603 C 121.54545,237.63268 122.20359,238.70763 122.98207,237.99315 C 123.92935,238.22602 124.71731,238.69676 125.74265,238.6559 C 127.30313,238.73926 125.71543,240.34804 126.22782,241.10036 C 126.68673,242.00127 127.83423,243.01391 127.39619,243.98822 C 126.3365,243.77915 125.32482,244.12349 124.29095,244.26856 C 123.0522,244.18058 122.58461,245.05733 122.08535,245.95972 C 121.65625,246.59628 120.53845,247.05512 120.55762,245.89881 C 120.01248,244.89304 118.79976,246.27911 118.07949,246.56868 C 117.74542,245.95068 116.82468,245.73618 116.50084,245.28269 C 116.67038,244.69156 118.34471,244.66201 117.10938,244.3782 C 116.07768,244.20042 114.80667,243.61404 113.83751,243.90896 C 113.39215,244.74661 111.48475,245.62373 111.74183,244.05203 C 111.55917,242.72784 112.97514,243.85226 113.30649,243.07403 C 113.73257,243.25309 114.00402,242.37091 114.5027,243.03158 C 115.02605,242.954 115.45411,241.89576 115.53797,241.49207 C 114.8135,241.33175 114.06366,241.07412 113.55249,240.50269 z "
            id="Montijo" />
        <path style="fill:#ffefd5;fill-rule:evenodd;stroke:#b22222;stroke-width:0.25400001;stroke-opacity:1"
            d="M 120.84949,246.69569 C 120.73304,245.76622 120.06613,245.04647 119.23349,245.88192 C 118.60452,246.18229 117.91167,246.96216 117.53055,245.97871 C 117.09883,245.68791 115.93916,245.41053 116.88582,244.90607 C 117.23806,244.74482 118.03489,244.50337 117.21016,244.46836 C 116.54564,243.94486 115.60298,244.23713 114.86166,243.8546 C 113.92454,243.39207 113.56346,244.37688 112.87096,244.79313 C 112.33242,245.0226 111.56654,245.04323 111.76831,244.24318 C 111.52557,243.35716 112.36409,243.15359 113.06349,243.41802 C 113.25163,242.94408 113.6899,243.25953 113.92182,242.74802 C 114.85587,243.57972 115.22483,242.15649 115.59509,241.53249 C 114.62831,241.48065 113.94815,240.58252 113.08073,240.49548 C 112.35972,240.07919 111.26009,240.96813 110.75973,239.96901 C 109.93235,239.91791 109.77867,241.29203 109.52665,241.97016 C 109.36582,242.75898 108.702,243.40693 108.54542,244.23157 C 107.58879,244.48052 106.6076,244.455 105.62928,244.61918 C 105.03617,244.54258 104.4116,244.80208 104.77015,245.50035 C 104.15741,245.84103 103.54305,245.61324 102.97748,245.60901 C 103.12498,246.09152 101.99024,245.80508 102.57179,246.39113 C 102.96177,247.02721 102.51177,247.79575 102.28948,248.30701 C 101.99297,247.68006 100.80309,246.55681 100.69364,247.8935 C 100.99691,248.52525 101.2727,249.32024 100.22292,249.29714 C 99.689724,249.29405 98.632403,249.70605 99.647032,250.0106 C 100.53757,250.32757 99.374736,250.09729 99.127981,250.13815 C 98.830822,250.49512 98.875412,251.08133 98.396156,251.24068 C 98.875299,251.58996 98.344021,252.2766 99.084489,251.89235 C 99.682557,252.30719 100.02989,252.99503 100.66478,253.01318 C 101.00714,254.22142 102.40413,254.50839 103.35606,253.82798 C 103.97711,253.33583 104.85765,253.94128 105.1968,253.11111 C 105.65664,253.06237 106.07114,253.64561 106.24806,252.94496 C 106.28301,251.97691 107.59404,252.03458 108.1282,252.55388 C 108.47557,252.83115 108.86989,251.64478 109.49616,252.14601 C 109.85487,253.25499 110.99999,252.5755 111.65721,252.1359 C 112.25136,251.70004 113.06115,251.73499 113.64283,251.29501 C 114.60579,251.83937 113.30365,252.2688 113.73287,252.94086 C 113.89247,253.67554 113.32045,254.06673 113.18334,254.67892 C 113.13692,254.97513 113.48982,255.26614 113.6767,255.46425 C 114.34399,255.6343 115.15909,255.81074 115.70472,255.25692 C 116.48578,254.65356 116.83662,253.51849 117.93642,253.46953 C 118.56189,253.17519 119.75214,253.47895 119.26001,252.38003 C 119.13785,251.65823 118.59703,251.03097 118.62421,250.26223 C 117.95392,249.48047 118.87097,248.88014 119.51877,248.38256 C 119.78803,247.6921 120.50565,247.36671 120.84949,246.69569 z "
            id="Palmela" />
        <path style="fill:#ffefd5;fill-rule:evenodd;stroke:#b22222;stroke-width:0.25400001;stroke-opacity:1"
            d="M 130.50949,289.3027 C 130.26423,288.26421 128.80443,289.63746 128.22373,288.7254 C 127.0928,288.00681 125.86659,287.79288 124.59985,287.29962 C 123.87906,286.12515 122.56926,286.27361 121.53501,285.45187 C 120.47366,285.28197 119.17991,284.92721 119.16656,283.71147 C 118.48835,283.33608 118.68867,281.91323 117.65315,282.71136 C 117.03077,282.80805 115.90295,282.73178 116.58599,283.48322 C 116.60723,284.94227 114.68675,283.61435 113.92203,283.46508 C 113.10878,282.70658 111.81821,283.19896 110.69983,282.74768 C 110.4673,284.47993 109.70449,286.05073 109.14133,287.68303 C 108.84846,288.37418 108.00905,289.63632 109.14317,289.89256 C 110.90147,290.3326 111.48855,291.9508 112.74325,292.94993 C 113.5733,292.79217 112.91434,294.07152 113.85783,294.11935 C 114.31344,294.89688 115.991,294.10447 115.50917,295.26002 C 115.42036,296.24092 116.0432,296.9046 116.65017,297.77335 C 116.01945,298.52911 115.92673,299.15386 115.43075,299.85156 C 114.79137,299.8572 114.29037,299.91539 114.59971,300.5859 C 113.95853,301.38059 114.84417,302.64171 114.71338,303.62252 C 115.58782,304.87445 113.1957,303.27756 114.00029,304.51385 C 114.49348,305.80429 116.00503,306.23838 116.18729,307.57353 C 116.8957,308.14005 117.96324,306.57029 118.73284,307.55228 C 119.6036,307.83899 120.42721,309.02285 121.00284,307.70002 C 121.63317,308.24299 123.01869,307.65665 121.92651,306.97569 C 121.87523,305.5976 122.61592,303.84464 123.72091,303.39574 C 123.30447,301.82899 124.72359,300.65775 126.19984,301.18102 C 127.25745,301.26642 128.34321,301.18283 129.12625,300.52436 C 129.96439,301.31457 130.72976,299.657 131.74084,300.67402 C 132.93872,300.93807 134.16609,300.64183 135.16937,301.56151 C 136.75624,302.4872 135.15432,299.93468 136.56824,299.65555 C 137.82109,298.84711 136.59889,297.21248 137.34439,296.11449 C 138.25012,294.89665 137.98656,293.55431 137.99825,292.18076 C 138.50797,290.62642 136.43645,290.23168 135.78551,289.00565 C 135.31105,287.49264 133.57628,289.36937 132.79605,287.94012 C 132.24759,287.31862 131.34109,286.261 131.74084,287.67302 C 131.6022,288.25828 131.43324,289.17102 130.50949,289.3027 z "
            id="Santiago_do_Cacém" />
        <path style="fill:#ffefd5;fill-rule:evenodd;stroke:#b22222;stroke-width:0.25400001;stroke-opacity:1"
            d="M 92.841492,245.48969 C 93.168296,245.60222 93.492136,245.74418 93.820792,245.83833 C 94.14158,245.78934 94.462369,245.74034 94.783157,245.69135 C 94.858935,245.81468 94.934713,245.93802 95.01049,246.06136 C 95.295817,246.16942 95.840718,246.0939 95.883653,246.45588 C 95.533559,246.91704 96.15188,247.19046 96.332486,247.54636 C 96.388977,247.88653 96.431453,248.24477 96.663321,248.51366 C 96.769124,248.93785 97.00516,249.32422 97.27382,249.66468 C 97.25784,250.10253 96.921549,250.5509 97.137266,250.98041 C 97.559635,251.19723 96.999512,251.47951 97.004609,251.7989 C 97.185714,252.21966 96.692918,252.56397 96.949138,252.95733 C 97.082907,253.37263 96.305699,253.71978 96.043032,253.45359 C 95.815092,253.08423 95.931154,252.63058 95.862986,252.22912 C 95.604241,252.17908 95.368162,252.56829 95.089819,252.65348 C 94.811193,252.77595 94.418671,252.96471 94.178549,252.68313 C 93.833965,252.55488 93.856254,252.2518 93.74282,251.96436 C 93.180698,252.15319 93.320387,251.39149 93.013226,251.13622 C 92.563216,251.05814 92.040042,251.12374 91.572241,251.16618 C 91.08408,251.42968 91.057021,250.75757 90.803721,250.48219 C 90.628078,250.1397 90.326208,249.82868 90.220985,249.47244 C 90.249383,249.33201 90.685166,249.42621 90.465148,249.14274 C 90.124554,248.92485 90.156588,248.55004 90.429153,248.28869 C 90.359874,247.9483 90.786292,247.68282 90.63411,247.3814 C 90.677688,247.15613 90.59837,246.77102 90.663739,246.65879 C 90.955287,246.65359 91.001578,246.37231 91.306638,246.34637 C 91.580635,246.2435 91.807006,246.11305 91.804915,245.82613 C 92.143352,245.6727 92.106315,246.42047 92.429236,246.07774 C 92.488373,245.87395 92.549927,245.70191 92.741735,245.58038 C 92.774986,245.55015 92.808249,245.51992 92.841492,245.48969 z "
            id="Seixal" />
        <path style="fill:#ffefd5;fill-rule:evenodd;stroke:#b22222;stroke-width:0.25400001;stroke-opacity:1"
            d="M 98.74749,259.77469 C 98.47466,259.96702 98.229052,260.20904 97.941221,260.37409 C 97.369411,260.57561 96.800195,260.8116 96.226822,260.99268 C 95.43738,260.88934 94.647939,260.78601 93.858498,260.68268 C 93.746207,260.85676 93.650104,261.04515 93.528831,261.21136 C 93.100243,261.29808 92.672147,261.43677 92.245499,261.50769 C 91.823054,261.41169 91.400609,261.31569 90.978165,261.2197 C 90.260365,261.76414 89.547992,262.32079 88.826836,262.8577 C 88.451574,262.76598 88.054455,262.72186 87.688171,262.61536 C 87.688826,262.3939 87.828373,262.17994 87.874932,261.96124 C 88.032978,261.506 88.131396,261.02443 88.41373,260.62411 C 88.698793,260.15574 88.946285,259.66902 89.136031,259.15408 C 89.372459,258.55512 89.674168,257.97739 89.782961,257.3369 C 89.926742,256.99913 89.564456,256.69509 89.636572,256.35069 C 89.68477,255.40836 89.732968,254.46603 89.781166,253.5237 C 89.662056,253.29003 89.542946,253.05636 89.423836,252.82269 C 89.818604,252.6327 89.607697,252.21129 90.002841,251.98769 C 90.509092,251.74797 91.002677,251.39814 91.494877,251.17865 C 91.976267,251.09112 92.474867,251.11902 92.964505,251.09502 C 93.329516,251.32558 93.161985,252.15555 93.742839,251.96402 C 93.766596,252.56423 94.442064,253.06936 95.008203,252.69287 C 95.396313,252.51096 96.008685,251.82572 95.89652,252.66304 C 95.837309,253.0746 95.990337,253.7978 96.547307,253.48702 C 97.291166,253.33725 96.629431,252.64685 97.038506,252.25403 C 96.909277,251.77795 97.171368,250.93761 97.765029,251.15648 C 98.284704,251.32954 98.216028,252.12257 98.062419,252.56871 C 97.991213,253.11944 97.375818,253.47283 97.421819,254.07404 C 97.366019,254.60553 97.431615,255.21727 97.174359,255.74096 C 96.739098,256.11406 96.716353,256.66186 97.012949,257.10852 C 97.248902,257.70287 97.937037,257.92783 98.191953,258.57015 C 98.421039,258.95292 98.637232,259.34037 98.74749,259.77469 z "
            id="Sesimbra" />
        <path style="fill:#ffefd5;fill-rule:evenodd;stroke:#b22222;stroke-width:0.25400001;stroke-opacity:1"
            d="M 98.396484,251.18568 C 97.606427,251.17585 98.509987,252.19709 98.066563,252.59602 C 97.721115,253.26945 97.317363,253.89177 97.374163,254.67335 C 97.577727,255.4705 96.724618,255.96048 96.846098,256.69606 C 97.012339,257.55919 97.914322,257.87845 98.240719,258.64938 C 98.556493,259.10822 98.64043,260.1467 99.340059,259.49956 C 99.890341,259.29497 100.40665,259.01934 100.75831,258.53388 C 101.20755,258.11724 101.72356,257.65129 102.37073,257.64415 C 102.93112,257.50819 103.72629,257.69098 103.88034,256.96079 C 104.183,256.37042 104.46476,255.73805 105.11358,255.46599 C 105.55598,254.96488 106.08829,255.12043 106.58395,255.45781 C 108.01806,256.55998 109.4438,257.68117 110.92316,258.72568 C 111.41533,258.61382 112.04146,258.80652 112.42404,258.42179 C 112.95818,257.99892 113.45568,257.56132 113.23493,256.80915 C 113.25887,256.2661 112.67771,255.74537 112.79646,255.26278 C 113.22596,254.70902 113.48898,254.03818 113.73107,253.37866 C 113.68704,252.81549 113.59963,252.26796 114.05125,251.81579 C 113.75872,250.87514 112.89987,251.79843 112.31458,251.81058 C 111.54114,252.01923 110.97725,252.82088 110.13043,252.74324 C 109.58719,252.60106 109.27909,251.63349 108.64665,252.29017 C 108.34758,252.61658 108.18214,252.76574 107.87019,252.3672 C 107.15924,251.91958 106.28902,252.25799 106.17977,253.09328 C 105.87638,253.51719 104.97414,252.72912 104.81273,253.59445 C 103.87742,253.36202 103.09253,254.0913 102.21344,254.22521 C 101.35943,254.30078 100.95872,253.47923 100.52539,252.91978 C 99.756598,253.03948 99.5866,251.69813 98.695485,251.96929 C 98.559592,252.0642 98.777176,251.43218 98.453114,251.28619 L 98.396484,251.18568 L 98.396484,251.18568 z "
            id="Setúbal" />
        <path id="Sines" class="fil2 str2"
            d="M 108.49049,289.30269 C 107.93282,290.65702 107.29549,291.98235 106.66916,293.31169 C 106.35049,293.57236 106.03149,293.83301 105.71649,294.09368 C 105.74549,294.33636 105.89783,294.60802 105.99183,294.83601 C 106.19816,294.80368 106.42983,294.67701 106.62549,294.60069 C 107.73016,295.26335 108.83816,295.93701 109.91382,296.64335 C 109.99349,296.77369 109.96816,297.12869 110.06249,297.22269 C 110.19282,297.93635 110.39182,298.64968 110.53682,299.36302 C 110.50049,300.64135 110.50049,300.64135 110.48982,301.54669 C 110.56216,302.18036 110.68882,302.85035 110.72516,303.48802 C 110.91349,303.55302 111.04749,303.59668 111.24282,303.59668 L 111.55816,303.71602 C 111.60516,303.71269 111.65216,303.70869 111.70282,303.70536 C 112.03249,303.98035 112.39116,303.91168 112.72782,304.15069 C 113.05382,304.24136 113.35782,304.08902 113.69482,304.08902 C 113.73449,304.04201 113.75982,304.00569 113.81416,303.98035 L 113.98449,303.96969 C 114.27782,303.94068 114.53482,304.19768 114.82816,304.22301 C 114.85016,304.19401 114.87516,304.16535 114.90082,304.13968 C 114.87182,303.87169 114.75949,303.68336 114.60749,303.45902 C 114.60382,303.20169 114.61816,303.10402 114.61816,302.98469 C 114.56749,302.75635 114.56749,302.75635 114.57116,302.71301 C 114.71249,302.49935 114.61816,302.39769 114.53116,302.16235 C 114.54582,301.90168 114.57849,301.80034 114.39382,301.61568 C 114.33582,301.36568 114.29216,301.11602 114.29216,300.85868 C 114.41916,300.55802 114.91516,300.63435 114.50216,300.25034 C 114.50216,300.13435 114.51682,300.01502 114.54582,299.90634 C 114.71616,299.90634 114.98049,299.84834 115.12516,299.91701 C 115.34616,299.92802 115.52349,299.80135 115.71182,299.70702 C 115.76249,299.42802 115.63582,299.14934 115.83149,298.92501 C 115.84949,298.94669 115.87116,298.96835 115.89316,298.99369 C 116.18282,299.06601 116.04516,298.54469 116.07782,298.44669 C 116.27682,298.41802 116.20082,298.29469 116.39649,298.23669 C 116.45082,298.06669 116.43616,297.95069 116.61349,297.91102 C 116.62449,297.86368 116.63549,297.81669 116.64982,297.77335 C 116.48682,297.47634 116.01249,296.59267 115.65049,296.59267 C 115.70116,296.41868 115.68649,296.33902 115.60316,296.18334 C 115.58882,296.02767 115.57782,295.87568 115.56716,295.72334 C 115.66849,295.57135 115.63949,295.50268 115.63949,295.32502 C 115.59616,295.30334 115.55249,295.28168 115.50916,295.26002 C 115.51649,295.12602 115.54516,295.12235 115.44382,295.03535 C 115.44749,294.98102 115.45482,294.93034 115.46216,294.87968 C 115.50182,294.85435 115.54516,294.82902 115.58883,294.80735 C 115.59616,294.76002 115.60316,294.71668 115.61416,294.67302 C 115.58149,294.63335 115.54883,294.59335 115.51649,294.55368 C 115.43649,294.55368 115.35716,294.55368 115.28082,294.55735 C 114.88982,294.64067 114.77749,294.57535 114.42249,294.39067 C 114.03149,294.41602 114.14016,294.52468 113.85782,294.11901 C 113.70216,294.02135 113.52449,293.87635 113.35082,293.81867 C 113.12982,293.59767 113.22049,293.27902 113.20582,292.98901 C 112.89082,292.95301 112.54316,293.01801 112.43816,292.69601 C 112.21349,292.31935 111.84049,292.13468 111.50716,291.87034 C 111.41682,291.68901 111.39849,291.49002 111.36616,291.29068 C 111.15249,290.95402 110.88082,290.89234 110.54749,290.68968 C 110.14582,290.34935 109.46482,289.87102 108.93982,289.87102 C 108.92515,289.85668 108.92515,289.85668 108.80215,289.82034 C 108.79115,289.76968 108.78049,289.72267 108.76949,289.67534 L 108.49049,289.30268 L 108.49049,289.30269 z "
            style="fill:#ffefd5;fill-rule:evenodd;stroke:#b22222;stroke-width:0.25400001;stroke-opacity:1" />
    </g>
    <!-- EO MUNICIPIOS -->
</svg>