<?xml version="1.0" encoding="UTF-8" standalone="no"?>
<!-- Creator: CorelDRAW -->
<svg xmlns:dc="http://purl.org/dc/elements/1.1/" xmlns:cc="http://web.resource.org/cc/"
    xmlns:rdf="http://www.w3.org/1999/02/22-rdf-syntax-ns#" xmlns:svg="http://www.w3.org/2000/svg"
    xmlns="http://www.w3.org/2000/svg" xmlns:sodipodi="http://inkscape.sourceforge.net/DTD/sodipodi-0.dtd"
    xmlns:inkscape="http://www.inkscape.org/namespaces/inkscape" xml:space="preserve" width="250" height="366"
    style="shape-rendering:geometricPrecision; text-rendering:geometricPrecision; image-rendering:optimizeQuality; fill-rule:evenodd; clip-rule:evenodd"
    viewBox="0 0 200 200" id="svg1627" sodipodi:version="0.32" inkscape:version="0.43"
    sodipodi:docname="Mapa_de_Portugal.svg" sodipodi:docbase="C:\Documents and Settings\Márcio Silva\Os meus documentos"
    version="1.0">
    <metadata id="metadata1927">
        <rdf:RDF>
            <cc:Work rdf:about="">
                <dc:format>image/svg+xml</dc:format>
                <dc:type rdf:resource="http://purl.org/dc/dcmitype/StillImage" />
                <dc:title>Munícipios de Portugal</dc:title>
                <cc:license rdf:resource="http://creativecommons.org/licenses/GPL/2.0/" />
                <dc:creator>
                    <cc:Agent>
                        <dc:title>Rei-artur (rei.artur@gmail.com)</dc:title>
                    </cc:Agent>
                </dc:creator>
            </cc:Work>
            <cc:License rdf:about="http://creativecommons.org/licenses/GPL/2.0/">
                <cc:permits rdf:resource="http://web.resource.org/cc/Reproduction" />
                <cc:permits rdf:resource="http://web.resource.org/cc/Distribution" />
                <cc:requires rdf:resource="http://web.resource.org/cc/Notice" />
                <cc:permits rdf:resource="http://web.resource.org/cc/DerivativeWorks" />
                <cc:requires rdf:resource="http://web.resource.org/cc/ShareAlike" />
                <cc:requires rdf:resource="http://web.resource.org/cc/SourceCode" />
            </cc:License>
        </rdf:RDF>
    </metadata>

    <sodipodi:namedview inkscape:window-height="582" inkscape:window-width="866" inkscape:pageshadow="2"
        inkscape:pageopacity="0.0" borderopacity="1.0" bordercolor="#666666" pagecolor="#ffffff" id="base"
        fill="#ffff00" inkscape:zoom="1.1338798" inkscape:cx="125" inkscape:cy="211.12313" inkscape:window-x="28"
        inkscape:window-y="117" inkscape:current-layer="layer7" showguides="true" inkscape:guide-bbox="true">
        <sodipodi:guide orientation="horizontal" position="329.9602" id="guide2648" />
        <sodipodi:guide orientation="horizontal" position="307.74672" id="guide2650" />
    </sodipodi:namedview>

    <defs id="defs1629">
        <metadata id="CorelCorpID_0Corel-Layer" />
        <sodipodi:namedview inkscape:guide-bbox="true" showguides="true" inkscape:current-layer="layer1"
            inkscape:window-y="-4" inkscape:window-x="-4" inkscape:cy="327.60442" inkscape:cx="146.08303"
            inkscape:zoom="17.548964" fill="#fa8072" id="namedview5974" pagecolor="#ffffff" bordercolor="#666666"
            borderopacity="1.0" inkscape:pageopacity="0.0" inkscape:pageshadow="2" inkscape:window-width="1024"
            inkscape:window-height="712" />
    </defs>

    <!-- <g inkscape:groupmode="layer" id="layer3" inkscape:label="fundo" style="display:inline" sodipodi:insensitive="true">
        <rect style="fill:#4169e1;fill-opacity:1;fill-rule:evenodd;stroke:none;display:inline" id="rect2247" width="200" height="200" />
    </g> -->

    <g inkscape:groupmode="layer" id="layer10" inkscape:label="----detalhes----" style="display:inline" />

    <!-- MUNICIPIOS -->
    <g inkscape:groupmode="layer" id="layer4" inkscape:label="Municipios" style="display:inline"
        sodipodi:insensitive="true" transform="translate(-285, 30) scale(3)">
        <path style="fill:#ffefd5;fill-rule:evenodd;stroke:#b22222;stroke-width:0.25400001;stroke-opacity:1"
            d="M 108.42649,29.311384 C 108.36085,29.502574 108.4749,29.735292 108.46719,29.938894 C 108.49495,30.293052 108.61652,30.656601 108.43807,30.99012 C 108.29912,31.459721 108.10939,31.92606 107.99616,32.397045 C 108.20461,33.144723 108.30865,33.927669 108.66696,34.624837 C 108.89934,35.131837 109.08649,35.667698 109.34373,36.158744 C 109.74617,36.630067 110.20288,37.075651 110.57135,37.563086 C 110.7722,38.780276 110.93644,40.008211 111.15953,41.218865 C 111.34052,41.630374 111.52151,42.041883 111.70249,42.453392 C 112.22579,42.318228 112.70329,42.064265 113.21403,41.908496 C 113.64245,41.846323 114.52395,42.16758 114.46851,41.373709 C 114.81278,40.953048 115.15234,41.864227 115.62453,41.414683 C 115.84087,41.067329 116.14627,40.054238 116.82116,40.650835 C 117.19593,40.118876 117.90928,39.981445 118.53441,40.111351 C 119.04992,39.80299 119.50875,40.275175 119.69021,40.647195 C 120.68072,40.807568 119.59659,39.583989 120.21616,39.219393 C 120.05347,38.581259 120.3585,37.711538 119.77285,37.241322 C 119.34165,37.168099 119.49057,36.681936 119.89016,36.775059 C 119.95141,36.28531 120.46155,36.15947 120.16701,35.600081 C 119.99216,35.0814 119.5703,34.633376 119.09208,34.62683 C 119.27886,33.845133 118.90313,33.211615 118.53216,32.57406 C 118.24576,31.914112 117.76734,31.345215 117.34514,30.777583 C 117.57543,30.267642 117.86417,29.686656 117.93745,29.103272 C 117.75637,28.63874 118.29427,27.931496 117.50599,27.803272 C 116.9488,27.403453 116.41422,27.426803 115.8677,27.713106 C 115.45566,27.042327 114.39732,27.002756 114.26576,27.907637 C 114.22226,28.399916 114.40077,28.872955 114.38549,29.350731 C 114.00047,29.281905 113.63444,29.408229 113.56231,29.00309 C 113.1915,28.661666 112.351,29.522931 112.50949,28.717065 C 111.8866,28.869451 111.21513,28.956617 110.53302,28.821935 C 109.76855,28.926258 110.54243,30.744856 109.61961,30.094191 C 109.37,29.622667 108.79303,29.71225 108.46072,29.337653 L 108.4291,29.313403 L 108.42649,29.311399 L 108.42649,29.311384 z "
            id="Viana_do_Castelo" />
        <path style="fill:#ffefd5;fill-rule:evenodd;stroke:#b22222;stroke-width:0.25400001;stroke-opacity:1"
            d="M 120.21649,39.219383 C 120.76089,39.182057 120.92017,39.641283 121.04657,39.910255 C 121.84234,39.866113 122.27703,41.02367 122.90083,40.106333 C 123.75954,39.513416 123.77773,41.068367 124.38128,41.289636 C 124.75892,41.673324 125.43855,41.091148 125.54016,40.77672 C 125.44758,40.052332 126.08349,39.351583 125.50382,38.712387 C 124.78134,38.218207 125.85616,38.007829 125.81182,37.463054 C 126.94549,37.871587 126.51598,36.40778 126.72199,35.818971 C 126.90506,35.271498 127.0958,34.582074 126.761,34.251997 C 127.35286,34.043953 127.60857,32.808469 128.24041,33.2826 C 128.3846,33.690986 128.28655,34.338556 128.96304,34.008422 C 129.34685,33.888629 129.9082,33.795563 129.28123,33.473547 C 128.39208,32.989291 129.48946,32.259956 129.21695,31.570208 C 128.91003,31.231274 128.30609,30.714177 128.97968,30.325224 C 129.28192,29.945694 128.83191,29.122967 128.39565,29.622641 C 127.92691,29.981878 127.27603,29.601447 126.92759,29.698116 C 126.62374,29.3417 126.86462,28.840206 126.50216,28.578616 C 126.8167,27.847534 125.92427,27.416438 126.15095,26.688834 C 126.27061,26.044013 126.80148,25.330037 125.96149,25.062522 C 125.55295,24.584107 124.80198,25.077018 124.53983,24.339786 C 123.78422,24.098648 123.26615,25.361106 122.54932,24.608638 C 121.65469,24.392409 121.8306,25.778229 121.03333,25.830181 C 120.34841,25.919787 120.05071,24.51207 119.40104,25.266878 C 119.30398,25.93689 118.18201,26.007581 118.6022,26.846192 C 119.00275,27.591594 117.73438,27.650235 117.94857,28.428769 C 117.90084,29.009995 117.92274,29.611834 117.61998,30.179991 C 116.98712,30.911491 118.01332,31.469836 118.32989,32.126822 C 118.48866,32.893573 119.28313,33.391275 119.11934,34.237712 C 118.82766,34.938273 119.68494,34.472076 119.80015,35.036723 C 120.26479,35.396991 120.41084,36.232307 119.94481,36.550847 C 119.97488,36.867758 119.11829,36.877509 119.67914,37.186562 C 120.37083,37.555726 120.04263,38.469809 120.21056,39.079099 L 120.21648,39.21939 L 120.21649,39.219383 z "
            id="Ponte_de_Lima" />
        <path style="fill:#ffefd5;fill-rule:evenodd;stroke:#b22222;stroke-width:0.25400001;stroke-opacity:1"
            d="M 143.23849,24.087685 C 143.12282,23.71199 143.04071,23.316783 142.90916,22.950687 C 142.68117,22.714495 142.33463,22.547025 142.34382,22.173341 C 142.19582,21.874417 142.30925,21.618142 142.50276,21.374931 C 142.56354,21.139257 143.03205,20.838732 142.71602,20.662991 C 142.23986,20.171521 142.34104,19.344044 142.19616,18.71727 C 142.55191,17.971824 143.30294,17.336091 143.32774,16.423607 C 143.78865,15.970746 143.15058,15.543583 143.46115,14.958596 C 143.37153,14.621548 143.57577,13.989129 143.03149,14.177025 C 142.4179,13.699438 141.98214,15.543711 141.53253,14.486942 C 140.78103,14.130378 139.90096,14.862287 139.88286,15.698209 C 139.69981,16.189165 139.75717,17.551762 138.82057,17.209861 C 138.19556,16.871614 138.67089,15.661755 137.74894,15.819668 C 137.29302,15.756406 136.70707,15.515816 136.34949,15.716028 C 136.38418,16.304618 135.60174,15.879267 135.43757,16.407361 C 134.87767,16.483776 134.70254,16.754085 134.08452,16.631256 C 133.40031,16.991017 132.60217,16.734264 131.91316,17.001695 C 131.07644,16.767243 130.26198,17.504385 129.46658,17.248859 C 128.90686,16.946702 128.49922,17.861625 127.85716,17.689695 C 127.84773,18.459269 126.94393,18.903103 127.29583,19.681365 C 127.75975,20.425154 128.23036,21.233913 128.13062,22.175172 C 128.13192,23.040719 127.36679,23.567083 126.84274,24.061247 C 126.76743,24.875301 126.3736,25.575414 126.21995,26.395829 C 125.75868,27.22964 126.80733,27.764879 126.50149,28.578601 C 126.90164,28.835058 126.58986,30.05847 127.32941,29.666042 C 128.06881,30.054992 128.78878,29.435851 129.28783,28.970708 C 130.10239,28.735478 130.95758,28.820776 131.73663,28.488939 C 132.08989,28.308165 132.4325,28.734226 132.62774,28.223708 C 133.15732,28.295919 133.57704,27.762149 134.02921,28.255714 C 134.69374,28.418777 135.41954,28.223874 136.0695,28.063792 C 136.48453,27.125598 137.71675,27.370093 138.09054,26.353559 C 138.54043,25.784726 138.70207,24.720451 139.66293,25.031731 C 140.29801,24.988748 140.69803,24.601415 141.26343,24.53748 C 141.74143,24.127899 142.47276,24.308324 143.08306,24.121471 C 143.13485,24.110193 143.18675,24.099005 143.23849,24.087685 z "
            id="Arcos_de_Valdevez" />
        <path style="fill:#ffefd5;fill-rule:evenodd;stroke:#b22222;stroke-width:0.25400001;stroke-opacity:1"
            d="M 125.82949,17.092384 C 126.22658,17.428519 126.77889,17.314223 127.241,17.350178 C 127.7019,17.687342 128.26782,17.806392 128.7544,17.421841 C 129.12059,16.857745 129.61189,17.526969 130.06085,17.223173 C 130.54826,17.341514 130.99567,16.942221 131.46907,16.940687 C 131.94497,17.052806 132.3829,16.812288 132.86772,16.868197 C 133.45533,16.923696 133.95122,16.532961 134.54731,16.668273 C 134.8441,16.84034 134.76588,16.320481 135.0856,16.517781 C 135.56004,16.594918 135.62964,15.84367 136.09649,16.114384 C 136.48734,16.001687 136.26662,15.346456 136.78042,15.660181 C 137.25345,15.64522 137.70453,15.867502 138.16208,15.883949 C 138.5656,15.970576 138.63575,14.866551 138.09476,14.939141 C 137.90517,14.364872 137.78439,13.753901 137.59677,13.156957 C 137.394,12.91776 137.50745,12.67127 137.64123,12.558781 C 137.35552,12.274886 136.89261,12.261593 136.65878,11.8388 C 136.15453,11.54425 137.14726,11.51006 137.03815,11.044384 C 136.31774,11.209167 136.09639,10.446403 136.2131,9.8896778 C 136.38126,9.5483382 135.95501,9.5823349 135.75154,9.4778285 C 135.40595,9.3704943 135.05489,9.233877 134.71249,9.1423845 C 134.36187,9.4688332 134.01211,9.7962355 133.66182,10.123051 C 133.35577,9.9873743 133.04816,9.8338389 132.74315,9.7077179 C 132.3183,9.9610619 131.8948,10.216791 131.47047,10.471052 C 131.22756,10.270308 130.99368,10.046798 130.74648,9.8577185 C 130.13273,9.7961287 129.518,9.7082176 128.90486,9.66183 C 128.07422,9.785287 127.23837,9.890249 126.40482,9.9737177 C 126.36748,10.287055 126.41704,10.620881 126.41082,10.941385 C 126.00082,11.192941 125.59082,11.444496 125.18082,11.696052 C 125.44467,11.892454 125.52747,12.144673 125.4291,12.467974 C 125.42392,13.112481 126.45039,13.169625 126.26508,13.832885 C 126.16885,14.407715 125.9259,14.963048 125.9759,15.559036 C 125.9209,16.046085 125.89447,16.534177 125.85654,17.028556 L 125.82949,17.092384 L 125.82949,17.092384 z "
            id="Monção" />
        <path style="fill:#ffefd5;fill-rule:evenodd;stroke:#b22222;stroke-width:0.25400001;stroke-opacity:1"
            d="M 117.95249,28.065386 C 118.08856,27.553873 118.93852,27.536978 118.62644,26.914345 C 118.27352,26.514795 118.78971,26.163072 118.75559,25.823909 C 118.32829,25.475011 117.74931,25.387854 117.30454,25.077071 C 117.11322,24.562048 116.61249,24.4569 116.16488,24.687334 C 116.06702,24.544154 116.19559,24.110441 115.81415,24.033477 C 115.61146,23.910449 115.4102,23.7244 115.36518,24.060689 C 115.19732,24.050098 115.10674,23.760486 114.9004,23.999617 C 114.69092,23.988284 114.75224,23.384929 114.38417,23.675309 C 114.01287,23.534628 113.87424,23.008998 113.69859,22.695329 C 113.17818,22.441036 113.80179,21.819343 113.35467,21.426818 C 113.29101,21.296892 113.1839,20.959241 113.06654,20.992215 C 112.94965,21.141841 112.80326,21.236628 112.61012,21.244513 C 112.13192,21.350111 111.64197,21.438727 111.17049,21.553715 C 110.54442,22.44011 109.93571,23.342118 109.30079,24.220221 C 109.11963,24.381573 108.90957,24.523666 108.74182,24.69338 C 108.70269,25.085321 108.70167,25.486495 108.64689,25.873543 C 108.47224,26.230693 108.25776,26.584682 108.12782,26.953718 C 108.37482,27.512941 108.62182,28.072165 108.86882,28.631388 C 108.72127,28.858054 108.57372,29.084721 108.42616,29.311388 C 108.65438,29.490258 108.87569,29.697134 109.18597,29.7002 C 109.45215,29.875452 110.0447,30.681639 110.14462,29.961631 C 110.0882,29.543847 110.10589,28.793838 110.66728,28.817095 C 111.14574,28.827448 111.68768,29.06523 112.11958,28.750553 C 112.46115,28.523012 112.55278,28.825586 112.5342,29.097845 C 112.9045,29.075923 113.32764,28.730198 113.67916,29.079386 C 113.58924,29.443727 114.20396,29.286574 114.41031,29.313429 C 114.37903,28.888086 114.23733,28.480535 114.2707,28.058469 C 114.23347,27.552879 114.80002,26.921329 115.31044,27.269602 C 115.67386,27.482224 115.89327,27.950938 116.33541,27.555323 C 116.70525,27.236061 117.11574,27.71348 117.50566,27.80326 C 117.66343,27.872784 117.82711,27.943438 117.95249,28.065386 z "
            id="Caminha" />
        <path style="fill:#ffefd5;fill-rule:evenodd;stroke:#b22222;stroke-width:0.25400001;stroke-opacity:1"
            d="M 120.43349,20.206684 C 120.03141,19.905166 119.18208,20.172155 119.07616,19.566409 C 119.11197,19.152889 119.17111,18.756897 119.06436,18.338568 C 119.14027,18.042874 119.20752,17.702299 118.79282,17.689688 C 118.74222,17.317396 118.82097,16.913508 118.72903,16.55901 C 118.60496,16.357904 118.48089,16.156798 118.35682,15.955691 C 118.67904,15.720247 119.00126,15.484803 119.32349,15.249358 C 119.43857,14.596042 119.52884,13.933989 119.65916,13.286024 C 120.02615,12.902985 120.37854,12.503635 120.74549,12.120694 C 121.34563,11.871738 121.93994,11.600085 122.54016,11.353694 C 122.89177,11.49109 123.24367,11.644613 123.59989,11.761352 C 124.12687,11.739578 124.65384,11.717803 125.18082,11.696028 C 125.26459,11.818848 125.44101,11.908482 125.46447,12.052908 C 125.28436,12.571252 125.63506,13.014096 126.05735,13.271533 C 126.4413,13.479491 126.24283,14.02213 126.14572,14.356345 C 126.00917,14.748932 125.98081,15.150922 125.97589,15.559012 C 125.93284,15.921898 125.90693,16.289367 125.88832,16.656694 C 125.86031,16.842084 125.89619,17.297887 125.67161,16.922954 C 125.44936,16.702283 124.9958,16.8093 124.77915,16.494693 C 124.50663,16.69561 124.57102,17.159295 124.25172,17.389111 C 123.99299,17.730748 123.79765,18.147836 123.37517,18.319047 C 122.96325,18.529908 122.5,18.556514 122.12881,18.856511 C 121.65149,19.059926 121.4173,19.572203 120.95848,19.808357 C 120.7118,19.805286 120.56179,20.029301 120.43349,20.206684 z "
            id="Valença" />
        <path style="fill:#ffefd5;fill-rule:evenodd;stroke:#b22222;stroke-width:0.25400001;stroke-opacity:1"
            d="M 137.14648,31.976385 C 136.68258,31.565752 136.02595,31.395718 135.48584,31.838819 C 134.89012,32.157183 134.41392,31.253547 134.06304,31.325899 C 133.74433,31.947169 133.07859,31.907151 132.56495,32.035506 C 131.72743,31.757637 131.09102,32.397821 130.44712,32.775337 C 129.99894,32.981831 130.10625,33.858732 129.61349,33.733052 C 129.05789,33.440464 128.6179,32.834708 129.17091,32.29576 C 129.54491,31.613513 128.81574,31.287346 128.63992,30.753211 C 129.03307,30.376938 129.2532,29.88 128.81683,29.423385 C 129.11806,28.811109 129.92053,28.967474 130.47038,28.695793 C 131.1575,28.896782 131.85075,28.298845 132.41496,28.473033 C 132.63645,28.049242 133.19307,28.30484 133.54145,27.996344 C 134.07591,28.451737 134.77184,28.338429 135.41973,28.196732 C 136.25357,28.437244 136.3531,27.149997 137.18262,27.240135 C 137.73335,27.038976 138.00371,26.395444 138.37629,25.970602 C 138.5227,25.334022 138.97422,24.828335 139.66293,25.031742 C 140.27872,25.06584 140.62695,24.518162 141.18616,24.595934 C 141.61344,24.128444 142.31459,24.312515 142.8886,24.163711 C 143.42934,24.059071 143.97084,23.888551 144.50484,23.795391 C 144.71087,24.327997 144.78899,24.92025 145.15232,25.379556 C 145.26676,25.568744 145.1291,25.81563 145.15522,26.025471 C 145.09413,26.68683 145.08679,27.359296 144.99191,28.013672 C 144.87136,28.353261 144.76798,28.976116 144.26271,28.677392 C 143.78839,28.299042 143.12406,28.366052 142.68842,28.849405 C 142.06921,29.056729 141.88962,30.147068 141.09383,30.020727 C 140.578,30.496945 139.81867,30.604573 139.1925,30.962394 C 138.40942,31.002456 138.10712,32.010189 137.2823,31.967904 L 137.1465,31.976394 L 137.14648,31.976385 z "
            id="Ponte_da_Barca" />
        <path style="fill:#ffefd5;fill-rule:evenodd;stroke:#b22222;stroke-width:0.25400001;stroke-opacity:1"
            d="M 119.47349,25.131685 C 119.48239,24.595294 119.21806,24.110526 118.94816,23.665015 C 118.87058,23.367238 118.915,23.095918 119.27416,23.176349 C 119.35619,22.700579 119.50346,21.965609 120.05082,21.879031 C 120.5372,21.665407 120.59598,21.073275 120.46124,20.629013 C 120.63222,19.998357 119.86902,20.068572 119.46247,19.950929 C 118.90024,19.888713 119.11154,19.257035 119.14144,18.892616 C 119.01131,18.527229 119.13621,18.142846 119.0956,17.813463 C 118.60019,17.754169 118.82361,17.133864 118.76736,16.750708 C 118.78076,16.525486 118.57733,16.361959 118.48648,16.166395 C 118.41411,15.974794 118.31446,15.922317 118.17148,16.090813 C 117.97681,16.241229 117.78189,16.391179 117.53576,16.442789 C 116.98558,16.634061 116.42849,16.814723 115.88249,17.01235 C 115.52915,17.340727 115.15686,17.658535 114.81416,17.992683 C 114.82637,18.475529 114.85523,18.958954 114.87382,19.44202 C 114.43693,19.78533 113.95153,20.072055 113.57672,20.487569 C 113.42042,20.642164 113.26412,20.796758 113.10782,20.951353 C 113.28712,21.25091 113.45031,21.560285 113.54662,21.890987 C 113.55318,22.243526 113.31386,22.55113 113.7437,22.73553 C 113.86552,23.058211 114.06669,23.671508 114.46807,23.654272 C 114.83791,23.392801 114.67117,24.297048 115.0461,23.923226 C 115.187,23.812436 115.35913,24.296706 115.43018,23.930236 C 115.54403,23.770639 116.03602,24.128588 116.13065,24.351428 C 116.06688,24.582871 116.08102,24.792615 116.38749,24.647904 C 116.81491,24.33532 117.14931,24.810661 117.36215,25.131689 C 117.83398,25.39375 118.39703,25.505345 118.80348,25.874356 C 119.29752,25.910491 119.28892,25.448387 119.47349,25.131685 z "
            id="Vila_Nova_de_Cerveira" />
        <path style="fill:#ffefd5;fill-rule:evenodd;stroke:#b22222;stroke-width:0.25400001;stroke-opacity:1"
            d="M 119.47349,25.131685 C 119.81508,25.019939 120.17113,24.991589 120.32449,25.412352 C 120.51306,25.916819 121.26056,25.980961 121.53593,25.519091 C 121.78582,25.187397 121.86721,24.539057 122.41111,24.591668 C 122.84484,24.635867 123.22226,25.130157 123.59892,24.635979 C 123.96569,24.241729 124.62555,24.13283 124.85536,24.715859 C 125.23723,24.979334 125.74195,24.614721 126.03647,25.126686 C 126.23488,25.348976 126.62105,25.506799 126.57528,25.06077 C 126.83275,24.688203 126.80172,24.212461 126.94173,23.852687 C 127.34614,23.672113 127.75229,23.422583 127.82425,22.958428 C 128.20055,22.656703 128.1276,22.12346 128.11278,21.683353 C 128.07356,21.249557 127.98015,20.814808 127.76871,20.438256 C 127.45244,20.08802 127.13727,19.658789 127.24538,19.161357 C 127.30798,18.674776 127.83827,18.310718 127.85321,17.739101 C 127.57214,17.383993 127.02501,17.246926 126.58065,17.357955 C 126.06307,17.40355 125.78822,16.920245 125.40024,16.793793 C 125.07709,16.832526 124.62896,16.190316 124.58702,16.804886 C 124.4738,17.235403 124.07282,17.557728 123.85451,17.952675 C 123.53767,18.341793 123.01784,18.469633 122.5685,18.603328 C 122.19715,18.831192 121.77365,18.993753 121.50847,19.356049 C 121.25086,19.7827 120.60993,19.775685 120.45116,20.224664 C 120.38716,20.682772 120.68281,21.140944 120.39892,21.560919 C 120.1283,21.974238 119.52956,21.917636 119.44721,22.509497 C 119.26797,22.796233 119.39653,23.303798 118.963,23.212474 C 118.77094,23.761884 119.43935,24.248948 119.44956,24.829177 C 119.46563,24.929155 119.47354,25.030435 119.47349,25.131685 z "
            id="Paredes_de_Coura" />
        <path style="fill:#ffefd5;fill-rule:evenodd;stroke:#b22222;stroke-width:0.25400001;stroke-opacity:1"
            d="M 142.8615,20.786985 C 143.20604,20.229247 143.50893,19.640955 143.98277,19.178024 C 144.41952,18.727096 144.63816,18.120414 144.96849,17.594984 C 145.05081,17.195253 145.13051,16.79494 145.21182,16.394985 C 145.53898,16.324359 145.88873,16.285919 146.20448,16.199984 C 146.41754,15.813195 146.62855,15.425229 146.84082,15.037988 C 147.31623,14.933091 147.80937,14.876609 148.27519,14.745668 C 148.54912,14.579061 148.85875,14.444021 149.11549,14.262654 C 149.11177,13.551344 149.12344,12.831553 149.09515,12.123984 C 148.79891,11.597272 148.54682,11.036247 148.22665,10.528267 C 147.88753,10.224972 147.55802,9.8834179 147.21382,9.600318 C 146.8812,9.7650714 146.59687,10.10205 146.19515,10.014968 C 145.94904,10.046118 145.65245,9.9086907 145.46854,10.13765 C 145.06919,10.422539 144.66983,10.707429 144.27048,10.992318 C 144.1262,10.592862 143.87661,10.214681 143.93971,9.7733264 C 143.91732,9.235108 143.95284,8.6876526 143.89894,8.1544671 C 143.77597,7.7327308 143.58146,7.311707 143.50158,6.8895418 C 143.58109,6.5681072 143.73894,6.2472284 143.78381,5.925982 C 143.56016,5.577587 143.37085,5.1821459 143.12715,4.8589821 C 142.69958,5.3122576 142.28048,5.7748232 141.85616,6.2316523 C 141.45103,6.1165604 141.04466,5.9481455 140.64182,5.8593187 C 140.50813,6.2165469 140.43996,6.5983453 140.3315,6.964982 C 139.92025,6.948968 139.50206,6.8786824 139.09482,6.8949823 C 138.61795,7.3315324 138.16434,7.8091086 137.67078,8.2179205 C 137.35168,8.3191644 137.03258,8.4204083 136.71349,8.5216522 C 136.50809,9.0896721 136.1244,9.6237907 136.20035,10.254962 C 136.07365,10.847306 136.70811,11.055863 137.02717,11.120681 C 137.01753,11.572197 136.09335,11.565565 136.73398,11.912618 C 136.90816,12.391332 137.99075,12.316491 137.47588,12.82779 C 137.72616,13.442579 137.83997,14.106368 138.01877,14.719539 C 138.0873,15.096864 138.70337,15.043419 138.44886,15.59108 C 138.28437,16.142387 138.37762,17.371366 139.19204,17.253984 C 140.00651,16.903529 139.58815,15.86351 140.02311,15.27552 C 140.06226,14.489187 141.45659,13.993217 141.79797,14.812888 C 142.24092,14.868351 142.58659,13.682257 143.17682,14.212979 C 143.62147,14.149728 143.41636,15.147468 143.3748,15.506276 C 143.29334,15.821955 143.84201,16.053875 143.35782,16.313646 C 143.27547,17.185696 142.75213,17.9162 142.22193,18.571299 C 142.25545,19.239998 142.27416,20.060921 142.66974,20.622739 C 142.73366,20.677488 142.79757,20.732241 142.8615,20.786985 z "
            id="Melgaço" />
    </g>
    <!-- EO MUNICIPIOS -->
</svg>