<?xml version="1.0" encoding="UTF-8" standalone="no"?>
<!-- Creator: CorelDRAW -->
<svg xmlns:dc="http://purl.org/dc/elements/1.1/" xmlns:cc="http://web.resource.org/cc/"
    xmlns:rdf="http://www.w3.org/1999/02/22-rdf-syntax-ns#" xmlns:svg="http://www.w3.org/2000/svg"
    xmlns="http://www.w3.org/2000/svg" xmlns:sodipodi="http://inkscape.sourceforge.net/DTD/sodipodi-0.dtd"
    xmlns:inkscape="http://www.inkscape.org/namespaces/inkscape" xml:space="preserve" width="250" height="366"
    style="shape-rendering:geometricPrecision; text-rendering:geometricPrecision; image-rendering:optimizeQuality; fill-rule:evenodd; clip-rule:evenodd"
    viewBox="0 0 200 200" id="svg1627" sodipodi:version="0.32" inkscape:version="0.43"
    sodipodi:docname="Mapa_de_Portugal.svg" sodipodi:docbase="C:\Documents and Settings\Márcio Silva\Os meus documentos"
    version="1.0">
    <metadata id="metadata1927">
        <rdf:RDF>
            <cc:Work rdf:about="">
                <dc:format>image/svg+xml</dc:format>
                <dc:type rdf:resource="http://purl.org/dc/dcmitype/StillImage" />
                <dc:title>Munícipios de Portugal</dc:title>
                <cc:license rdf:resource="http://creativecommons.org/licenses/GPL/2.0/" />
                <dc:creator>
                    <cc:Agent>
                        <dc:title>Rei-artur (rei.artur@gmail.com)</dc:title>
                    </cc:Agent>
                </dc:creator>
            </cc:Work>
            <cc:License rdf:about="http://creativecommons.org/licenses/GPL/2.0/">
                <cc:permits rdf:resource="http://web.resource.org/cc/Reproduction" />
                <cc:permits rdf:resource="http://web.resource.org/cc/Distribution" />
                <cc:requires rdf:resource="http://web.resource.org/cc/Notice" />
                <cc:permits rdf:resource="http://web.resource.org/cc/DerivativeWorks" />
                <cc:requires rdf:resource="http://web.resource.org/cc/ShareAlike" />
                <cc:requires rdf:resource="http://web.resource.org/cc/SourceCode" />
            </cc:License>
        </rdf:RDF>
    </metadata>

    <sodipodi:namedview inkscape:window-height="582" inkscape:window-width="866" inkscape:pageshadow="2"
        inkscape:pageopacity="0.0" borderopacity="1.0" bordercolor="#666666" pagecolor="#ffffff" id="base"
        fill="#ffff00" inkscape:zoom="1.1338798" inkscape:cx="125" inkscape:cy="211.12313" inkscape:window-x="28"
        inkscape:window-y="117" inkscape:current-layer="layer7" showguides="true" inkscape:guide-bbox="true">
        <sodipodi:guide orientation="horizontal" position="329.9602" id="guide2648" />
        <sodipodi:guide orientation="horizontal" position="307.74672" id="guide2650" />
    </sodipodi:namedview>

    <defs id="defs1629">
        <metadata id="CorelCorpID_0Corel-Layer" />
        <sodipodi:namedview inkscape:guide-bbox="true" showguides="true" inkscape:current-layer="layer1"
            inkscape:window-y="-4" inkscape:window-x="-4" inkscape:cy="327.60442" inkscape:cx="146.08303"
            inkscape:zoom="17.548964" fill="#fa8072" id="namedview5974" pagecolor="#ffffff" bordercolor="#666666"
            borderopacity="1.0" inkscape:pageopacity="0.0" inkscape:pageshadow="2" inkscape:window-width="1024"
            inkscape:window-height="712" />
    </defs>

    <!-- <g inkscape:groupmode="layer" id="layer3" inkscape:label="fundo" style="display:inline" sodipodi:insensitive="true">
        <rect style="fill:#4169e1;fill-opacity:1;fill-rule:evenodd;stroke:none;display:inline" id="rect2247" width="200" height="200" />
    </g> -->

    <g inkscape:groupmode="layer" id="layer10" inkscape:label="----detalhes----" style="display:inline" />

    <!-- MUNICIPIOS -->
    <g inkscape:groupmode="layer" id="layer4" inkscape:label="Municipios" style="display:inline"
        sodipodi:insensitive="true" transform="translate(-415, -45) scale(3)">
        <path style="fill:#ffefd5;fill-rule:evenodd;stroke:#b22222;stroke-width:0.25400001;stroke-opacity:1"
            d="M 177.07349,71.070686 C 177.23104,70.602961 177.81302,70.021081 177.14582,69.640019 C 177.33571,69.408054 177.23141,69.108394 177.56943,69.080847 C 177.71813,68.726573 177.23303,68.25675 177.86711,68.314018 C 178.1272,67.927759 177.08558,68.024777 177.60562,67.795382 C 177.55649,67.540541 177.78678,67.15352 177.36316,67.112352 C 177.95653,66.639945 177.05871,66.100159 176.94812,65.554455 C 176.55084,65.138282 176.66615,64.548451 176.41377,64.158952 C 176.97486,63.645056 175.67659,63.582828 176.10574,63.220601 C 176.26722,62.828273 175.5581,62.86573 176.00336,62.446758 C 176.04213,62.144779 175.58745,62.002793 175.84216,61.745018 C 175.52576,61.415704 175.32438,61.047529 175.24996,60.654403 C 174.5271,60.679232 175.29598,59.883238 174.64716,59.771351 C 174.20139,59.089384 174.05976,58.261613 174.20112,57.468578 C 173.9298,56.805291 174.98608,56.486877 175.38655,56.524715 C 175.96296,56.345828 176.36841,57.159616 177.0229,56.819353 C 177.58562,56.769832 178.45168,56.075031 178.55565,57.030031 C 178.76394,57.907464 179.65633,57.436652 180.22519,57.692143 C 180.89236,57.855698 181.52849,57.161427 182.12739,57.405678 C 182.57814,57.898339 182.74754,58.754071 183.61033,58.581921 C 184.08332,58.462879 184.20063,58.797968 184.19608,59.167849 C 184.71333,59.519598 185.23242,59.996012 185.30723,60.668271 C 185.11273,61.042729 185.11636,61.810696 185.77934,61.530693 C 186.30163,61.362637 186.94273,62.022894 186.16883,62.299443 C 185.24634,62.743748 187.35105,62.935856 186.3948,63.469449 C 186.10487,63.763232 185.94514,64.304898 185.36682,64.189683 C 185.10064,64.740066 185.44045,65.152412 185.46053,65.679769 C 184.9911,66.187284 185.12798,66.8346 185.55899,67.299143 C 185.40851,67.807959 184.82523,67.143576 184.42281,67.243126 C 183.59553,67.051394 183.84326,68.315777 183.68433,68.838773 C 183.69629,69.684993 182.90372,69.427945 182.41893,69.146505 C 181.73576,69.011852 181.70777,69.991261 181.17361,70.205657 C 180.48818,70.385622 179.70748,69.988328 179.07249,70.418683 C 178.81909,70.859101 178.45231,71.839067 177.82547,71.268062 C 177.60446,71.127793 177.33366,70.903304 177.07349,71.070686 z "
            id="Alijó" />
        <path style="fill:#ffefd5;fill-rule:evenodd;stroke:#b22222;stroke-width:0.25400001;stroke-opacity:1"
            d="M 174.55649,29.857985 C 174.05703,30.129052 173.64044,28.944198 173.50107,29.859724 C 172.75247,30.45127 172.01638,31.284971 171.66184,32.140719 C 171.56957,32.83941 171.56741,33.726963 170.87015,34.174792 C 170.12517,33.880624 169.54129,35.203995 168.78652,34.612265 C 167.87497,34.528992 166.98835,34.423208 166.09799,34.727281 C 165.77676,34.954178 165.66093,35.739994 165.07549,35.21765 C 164.7922,34.543414 163.90713,34.361203 163.46648,34.890158 C 163.1966,33.859709 161.95994,33.956831 161.55549,34.855652 C 161.40567,35.392666 162.04216,36.894197 160.99362,36.414151 C 160.50521,36.082108 160.35641,34.98159 159.58977,35.339246 C 158.87612,35.837396 158.49491,36.790409 158.82799,37.614296 C 159.21664,38.317182 158.42798,38.768278 157.88362,38.981366 C 157.37127,39.841884 158.84696,40.15847 158.59134,40.868829 C 159.33159,41.301131 160.08452,41.661306 160.92152,41.867612 C 161.92317,41.945942 162.37341,42.984809 162.89977,43.73928 C 163.00318,44.144676 163.37958,44.467891 163.42049,43.836651 C 163.73027,44.067339 163.92176,43.360712 164.39104,43.740307 C 165.0232,43.655139 165.18399,42.47008 165.62949,41.960988 C 166.17406,41.285875 165.62789,40.306646 166.29671,39.664223 C 166.66482,39.202803 167.59599,38.992793 167.66266,39.739943 C 168.00624,40.155418 169.07949,40.392117 168.71556,41.133746 C 167.9951,41.420748 168.36003,42.511147 167.63761,42.833894 C 166.78847,43.116923 167.76899,44.866679 168.41816,44.133652 C 168.64427,44.110884 169.49138,44.18966 169.05104,43.774443 C 168.18154,43.75807 168.99352,42.788226 169.50686,42.957776 C 169.8098,42.476271 170.83922,42.591623 170.37383,41.844984 C 170.707,41.162371 171.23678,40.831098 171.88629,40.498427 C 172.41066,40.494999 172.92939,40.295809 173.43308,40.056941 C 173.16728,39.545785 173.45013,39.170323 174.02741,39.200703 C 174.49567,38.321367 174.81431,37.310508 174.03849,36.505615 C 174.30354,35.88744 174.3237,35.168462 174.83593,34.609123 C 175.22871,34.127334 176.00222,33.8561 176.13274,33.139723 C 176.05348,32.30825 174.69126,31.878597 175.19016,30.96232 C 175.40332,30.509866 174.90442,30.061935 174.55649,29.857985 z "
            id="Boticas" />
        <path style="fill:#ffefd5;fill-rule:evenodd;stroke:#b22222;stroke-width:0.25400001;stroke-opacity:1"
            d="M 194.4865,23.296684 C 192.87232,23.969536 191.17214,24.435919 189.62282,25.257353 C 188.66693,25.516797 187.71104,25.776241 186.75516,26.035685 C 186.5168,25.834698 186.29063,25.575922 186.04749,25.398685 C 185.6407,25.682387 185.21153,25.947014 184.81749,26.242352 C 184.54038,26.697934 184.38419,27.261681 184.03018,27.648481 C 183.72273,27.851884 183.41527,28.055286 183.10782,28.258688 C 183.05241,27.803346 183.06878,27.320057 182.98082,26.877686 C 182.69152,26.552066 182.29402,26.274644 182.07221,25.918957 C 182.03494,25.549254 182.13247,25.140347 181.83729,24.847981 C 181.70463,24.710655 181.68365,24.312531 181.40419,24.500677 C 180.95096,24.594013 180.49772,24.687349 180.04449,24.780685 C 179.86105,24.606096 179.72381,24.303137 179.52483,24.172686 C 179.21517,24.35158 178.72428,24.331431 178.54849,24.657352 C 178.6356,25.02013 178.72272,25.382907 178.80983,25.745684 C 177.93895,26.078093 177.09223,26.518452 176.20602,26.782391 C 175.61429,26.810044 175.02256,26.837696 174.43083,26.865349 C 174.04254,27.806019 175.78603,27.857005 175.04559,28.863749 C 174.44022,29.476046 174.55189,29.988662 175.17822,30.481504 C 175.02657,31.285813 175.14108,32.037137 175.89378,32.592093 C 176.60078,33.49693 175.30032,34.087484 174.83594,34.609148 C 174.39751,35.384034 173.67311,36.409643 174.44783,37.173338 C 174.69255,38.027271 174.26219,39.305149 173.32851,39.452647 C 173.48155,40.102427 173.04682,40.381925 173.83216,40.813009 C 174.7337,41.058016 175.23905,42.016539 175.03259,42.976075 C 175.70521,43.431202 176.68203,42.68956 176.65716,41.899342 C 177.39929,42.036501 178.091,41.284315 178.47516,42.261341 C 178.37588,42.726554 178.18396,43.446853 178.84816,43.782675 C 179.39034,44.837707 179.61409,42.58197 180.42012,43.326947 C 181.16875,42.850042 182.62343,41.918345 182.10047,40.86305 C 181.15059,40.239513 182.27746,39.258181 183.06716,39.654008 C 183.16862,38.882457 183.82712,37.996886 182.81349,37.499342 C 182.53889,36.66269 183.67584,36.565648 183.84043,36.371603 C 183.21921,35.333465 185.04375,34.912297 185.41408,35.878015 C 186.7976,35.826616 184.95409,37.69134 186.2576,37.689994 C 186.70248,37.63677 186.46513,36.736089 186.62811,36.332558 C 185.65121,35.905235 186.07869,34.44056 187.10928,34.506631 C 187.54828,33.898351 188.57068,34.424921 188.44858,33.368955 C 188.7472,32.775548 189.45822,32.572112 189.50813,31.86523 C 190.02851,31.325639 190.48228,30.956055 191.01616,30.564007 C 191.92103,30.549726 192.64441,31.01941 193.49716,31.179674 C 193.92356,31.212112 194.60282,30.875101 194.16716,30.419341 C 194.48082,30.024818 195.58958,30.327565 195.01816,29.640673 C 195.34782,28.824811 193.99169,28.322387 194.50233,27.392695 C 194.24178,26.609629 194.46261,25.760526 194.72906,25.029068 C 194.97739,24.442315 195.06947,24.052661 194.59009,23.566461 C 194.55556,23.476541 194.52102,23.386574 194.4865,23.296684 z "
            id="Chaves" />
        <path style="fill:#ffefd5;fill-rule:evenodd;stroke:#b22222;stroke-width:0.25400001;stroke-opacity:1"
            d="M 159.81749,73.858986 C 159.71768,74.092298 159.61162,74.329609 159.52283,74.558628 C 159.55865,74.888641 159.15445,74.797068 159.03867,74.981005 C 159.04463,75.305981 158.96763,75.650573 158.73082,75.886985 C 158.52874,75.864626 158.0384,76.032577 158.07218,75.720553 C 158.18982,75.402287 158.02296,75.109888 158.0608,74.803329 C 158.10121,74.476611 158.37849,74.265188 158.60416,74.058318 C 158.59695,73.80002 158.49344,73.453389 158.81547,73.370914 C 159.06121,73.194381 159.11019,72.904466 158.94944,72.649899 C 158.73056,72.33615 159.07382,72.154754 159.20062,71.90172 C 159.30468,71.591575 159.47436,71.247123 159.31651,70.915795 C 159.27886,70.769198 159.1738,70.271688 159.45185,70.510023 C 159.67882,70.726499 159.83729,71.029273 159.87182,71.341985 C 160.10855,71.343235 160.35391,71.575552 160.55982,71.341985 C 160.79623,71.396603 161.04042,71.401803 161.28354,71.393906 C 161.58074,71.143103 161.79298,71.547782 162.02649,71.704319 C 162.24263,71.452693 162.65868,71.522142 162.82784,71.790552 C 163.00745,72.01466 162.98612,72.315259 162.85393,72.552522 C 162.66126,72.861202 162.2971,73.092838 162.27982,73.487982 C 161.59248,73.495298 160.95637,73.155955 160.27015,73.152982 C 160.07311,73.347021 159.83519,73.564579 159.81749,73.858986 z "
            id="Mesão_Frio" />
        <path
            style="fill:#ffefd5;fill-opacity:1;fill-rule:evenodd;stroke:#b22222;stroke-width:0.25400001;stroke-opacity:1"
            d="M 156.57649,53.506386 C 156.58206,53.88239 156.65784,54.483887 156.5506,54.743595 C 156.04894,54.891529 155.81564,55.435959 155.40485,55.728543 C 155.07376,56.014101 155.70313,56.765143 155.05549,56.693051 C 154.65939,56.377258 155.04192,57.132097 154.62082,57.146051 C 154.56396,57.6956 155.24429,56.939854 155.11267,57.558544 C 155.2912,58.040837 154.72229,58.443317 155.08838,58.834924 C 154.89227,59.378393 155.08367,59.624661 155.64578,59.548049 C 156.09641,59.713418 156.5308,60.349959 155.96082,60.64805 C 155.60174,60.722374 155.5425,61.225743 155.38415,61.46718 C 155.55174,62.145614 156.14259,62.135833 156.6949,62.217352 C 157.18658,62.266846 157.53446,62.815238 157.81699,63.09455 C 158.12661,63.318799 158.33554,63.500529 158.63561,63.106925 C 159.01175,62.606217 159.51534,62.2277 160.09917,62.022235 C 160.50599,61.664855 161.17623,61.82608 161.41731,61.254808 C 161.87687,60.719432 162.41749,60.224866 162.69648,59.566671 C 163.13839,59.173723 162.86196,58.63789 162.86325,58.137532 C 162.78878,57.516568 163.51241,57.310401 163.87382,56.954047 C 164.06882,56.568583 164.73199,55.692049 163.85566,55.886127 C 163.31497,55.994091 162.55313,55.892437 162.64362,55.158721 C 162.48243,54.726236 161.99961,54.480196 161.70824,54.137596 C 161.12014,54.103539 160.70022,53.596873 160.08859,53.869683 C 159.40907,54.142754 159.12587,53.427202 158.88722,52.934908 C 158.55264,52.525795 157.7967,52.069179 158.37095,51.526069 C 158.62438,51.027872 158.31305,50.341591 157.71716,50.591042 C 157.18665,50.48908 157.26382,51.377145 156.73949,51.387709 C 156.77939,51.870087 156.83078,52.505705 156.44983,52.854375 C 156.45615,53.076117 156.60104,53.286137 156.57649,53.506386 z "
            id="Mondim_de_Basto" />
        <path style="fill:#ffefd5;fill-rule:evenodd;stroke:#b22222;stroke-width:0.25400001;stroke-opacity:1"
            d="M 174.55649,29.857985 C 173.97682,29.956884 173.59724,29.044276 173.40482,30.002651 C 172.38543,30.663911 171.71855,31.768709 171.51499,32.855192 C 171.68985,34.277052 170.15895,34.135623 169.31449,34.762693 C 168.27967,34.538903 167.15393,34.360913 166.09799,34.727281 C 165.85569,35.270373 165.20182,35.705583 164.79204,34.860108 C 164.24796,34.003892 163.38119,35.456886 163.17206,34.388297 C 161.97371,33.425358 161.1942,35.313687 161.60387,36.297918 C 160.75247,37.257219 160.25982,34.152671 159.23833,35.657527 C 157.96328,36.492138 159.68449,38.230084 158.31399,38.74511 C 156.92448,39.271639 158.78238,40.310631 158.70033,40.927985 C 159.36451,41.600511 160.87008,41.494144 161.14773,42.267147 C 160.78508,43.15564 159.71793,43.869383 158.95523,43.611334 C 158.04568,44.192563 156.89035,42.931238 155.85149,43.528984 C 155.49311,42.610877 154.74528,42.681975 154.01316,42.950026 C 153.0149,42.613734 153.33262,41.380736 153.67455,40.901448 C 153.5182,39.771613 153.49012,38.614166 154.52507,37.847443 C 154.287,36.867477 153.03959,37.130906 152.39673,36.580788 C 151.72954,35.434715 150.35545,37.437854 149.40516,36.430985 C 148.77571,36.999007 146.61342,37.076452 147.87784,35.964699 C 149.15682,35.661736 149.35927,34.133462 149.48807,33.032985 C 149.66581,32.151821 150.71696,31.691156 150.24374,30.674945 C 150.09037,29.729757 150.80913,29.182805 151.25216,28.662656 C 150.89272,28.124443 150.85022,27.595592 151.41936,27.228601 C 151.62124,26.921575 152.0741,27.158315 152.37336,27.059193 C 152.9461,27.209461 152.95083,26.526085 153.17766,26.16868 C 153.45344,25.571745 153.70609,24.957208 153.99515,24.370321 C 154.47554,24.260168 154.96562,24.056421 155.43883,23.978321 C 155.82935,24.369473 156.24017,24.301381 156.66147,23.996274 C 157.03039,23.771465 157.61995,23.718001 157.56599,23.164773 C 157.76156,22.301125 157.90716,21.40763 158.13148,20.560986 C 158.44266,20.519331 158.77605,20.383546 159.07748,20.376318 C 159.25251,20.678471 159.61496,20.935519 159.42742,21.327171 C 159.288,21.963462 159.34046,22.597139 159.45583,23.230652 C 159.31639,23.895187 159.18609,24.561936 159.05016,25.227322 C 159.41167,25.367102 159.86611,26.11047 160.11478,25.517387 C 160.60754,24.909185 161.06788,24.241429 161.57883,23.666325 C 162.63038,23.532214 163.68194,23.398103 164.73349,23.263992 C 165.0814,22.939267 165.41608,22.574325 165.77115,22.270658 C 166.14508,22.3853 166.53675,22.869748 166.90291,22.735923 C 167.50413,22.366812 168.10248,21.940991 168.70549,21.603659 C 169.43038,22.217773 170.16008,22.826827 170.88683,23.438995 C 172.19388,23.438734 173.52187,23.38662 174.81648,23.417328 C 174.80357,23.73141 174.71528,24.071132 174.64182,24.375328 C 174.2096,24.530685 173.86959,24.771602 173.83889,25.264033 C 173.66776,25.81502 173.49662,26.366007 173.32549,26.916994 C 173.63637,27.016709 174.49362,26.614081 174.40213,27.083757 C 174.3727,27.852598 175.81284,28.07047 174.95273,29.024567 C 174.78905,29.282421 174.55796,29.533325 174.55649,29.857985 z "
            id="Montalegre" />
        <path style="fill:#ffefd5;fill-rule:evenodd;stroke:#b22222;stroke-width:0.25400001;stroke-opacity:1"
            d="M 186.5255,53.813984 C 186.27877,53.286107 186.09705,52.763527 185.46308,52.716523 C 184.9664,52.51153 184.20659,52.625192 184.39014,51.886401 C 184.23283,51.236368 184.64819,50.839644 185.21465,50.799277 C 185.80396,50.074649 184.23724,49.861373 184.48065,49.014744 C 184.36559,48.482119 183.91166,47.835499 183.35682,47.820319 C 183.19718,48.599794 182.63486,49.131333 182.18538,49.762807 C 181.99276,49.883261 181.70079,49.5215 181.65352,49.983261 C 181.27821,50.397633 179.96627,49.170445 180.48235,50.226375 C 180.86376,50.791173 180.85883,51.644552 180.50396,52.263683 C 180.19277,52.46761 180.41428,52.866264 179.93449,52.854319 C 179.83638,53.228832 179.49725,53.38275 179.62682,53.795986 C 179.07344,53.740193 178.51354,52.803023 178.06907,53.140527 C 177.8964,53.978061 176.90883,53.831356 176.37584,53.828754 C 176.14886,54.471227 175.68194,55.032328 175.37796,55.652919 C 175.15417,55.981421 174.94492,56.893471 175.58809,56.450151 C 176.17157,56.910093 176.90897,56.96902 177.60395,56.666439 C 178.10818,56.349856 178.51662,56.53027 178.59825,57.128325 C 178.87495,57.932292 179.74692,57.412504 180.31247,57.699064 C 180.96532,57.848503 181.63156,57.054854 182.19492,57.465084 C 182.56912,57.989988 182.80004,58.734964 183.61033,58.581896 C 184.08469,58.462179 184.19111,58.802119 184.19608,59.167825 C 184.71333,59.519573 185.23242,59.995987 185.30723,60.668246 C 185.11273,61.042703 185.11636,61.810672 185.77934,61.530668 C 186.22866,61.359071 186.64445,62.154226 186.89018,61.424043 C 187.32147,61.316641 187.89319,61.126365 188.36167,60.846772 C 188.68971,60.715373 189.51118,60.769798 188.75665,60.465948 C 187.97561,60.161705 186.99473,59.740441 186.77261,58.842885 C 186.90016,58.483732 187.45724,58.14158 186.85155,57.807423 C 186.80667,57.182475 186.35403,56.670432 186.52713,56.058458 C 186.35549,55.353278 187.02796,54.669929 186.53561,53.952154 L 186.52548,53.813992 L 186.5255,53.813984 z "
            id="Murça" />
        <path style="fill:#ffefd5;fill-rule:evenodd;stroke:#b22222;stroke-width:0.25400001;stroke-opacity:1"
            d="M 171.4155,72.826988 C 171.8538,72.44405 171.64609,71.596148 172.25749,71.468986 C 171.84123,71.108143 171.33799,70.898578 170.82353,70.764864 C 170.28698,70.738523 170.12463,70.21504 169.57749,70.418652 C 169.21088,70.023801 168.68618,70.284771 168.26858,70.056741 C 167.97321,69.795448 167.72232,69.217783 167.318,69.730765 C 167.11894,70.09542 166.89787,69.789534 166.64417,69.766647 C 166.95781,70.18326 166.73825,70.669552 166.59149,71.043155 C 166.68235,71.492523 166.44143,72.304207 165.88507,72.229315 C 165.27726,72.294832 164.84738,71.974892 164.38082,71.595648 C 164.6686,70.863888 163.65175,70.929294 163.31444,70.626987 C 162.99087,70.817111 162.65858,70.927145 162.49193,70.495957 C 162.36472,70.204264 161.91281,70.431001 162.03178,70.006313 C 161.44727,69.54646 162.74145,68.96363 162.1017,68.653494 C 161.81307,68.460091 161.60077,68.54757 161.50095,68.85336 C 161.22801,68.87858 161.26159,68.227533 160.86838,68.186829 C 160.8016,68.018203 161.56123,67.98837 161.05082,67.8071 C 160.66321,67.548125 160.22505,67.947305 159.83582,67.648314 C 159.82493,68.432083 159.367,69.104065 159.00282,69.766644 C 158.96571,70.350917 159.48338,70.442252 159.71326,70.85525 C 159.76618,71.337732 160.19865,71.576929 160.62595,71.353278 C 161.13449,71.516881 161.64262,71.109246 161.98225,71.667648 C 162.38574,71.318891 163.16476,71.800069 162.92504,72.376226 C 162.84951,72.77493 162.08156,73.205192 162.35139,73.542641 C 162.76755,73.696192 163.5183,74.323131 163.64782,73.526027 C 163.64522,72.912743 164.34629,72.779559 164.66795,73.271724 C 165.07439,73.64894 165.63491,73.488478 166.13024,73.573785 C 166.66257,73.622975 167.11424,73.998154 167.6632,73.973315 C 168.10944,73.970253 168.53166,74.031326 168.9577,74.156271 C 169.48883,74.407785 169.78509,73.822945 170.12965,73.52557 C 170.47698,73.177705 170.8978,72.832006 171.4155,72.826988 z "
            id="Peso_da_Régua" />
        <path style="fill:#ffefd5;fill-rule:evenodd;stroke:#b22222;stroke-width:0.25400001;stroke-opacity:1"
            d="M 167.29549,55.208385 C 167.31172,54.573695 167.57288,53.961533 167.65749,53.368718 C 167.69983,52.394068 166.29464,52.677616 165.85993,51.984219 C 165.33444,51.523722 164.179,50.619458 165.21952,50.070539 C 165.54666,49.619823 166.39929,50.140496 166.36678,49.314756 C 166.38061,48.698503 166.99255,48.200904 167.43272,48.848058 C 167.78035,49.251296 168.27469,49.383847 168.44349,48.78038 C 169.2216,48.336234 168.02733,47.755648 167.72302,47.454431 C 167.22075,47.221711 166.76961,46.716143 166.37728,46.371791 C 166.06629,46.000493 166.35041,45.670597 166.53862,45.495088 C 166.14018,44.814368 167.54126,45.836075 167.42163,44.960422 C 167.65166,44.572094 168.02919,44.192938 167.46921,43.819328 C 166.7519,42.906536 168.36103,42.755122 168.19237,41.820059 C 168.4348,41.268122 169.24619,40.765449 168.39194,40.254839 C 167.83759,40.085637 167.61152,39.532643 167.30381,39.2155 C 166.58051,39.235021 165.92113,39.807926 165.92119,40.616859 C 166.01259,41.363659 165.64944,42.011963 165.25494,42.637427 C 164.91208,43.121903 164.76815,44.137787 164.00732,43.637307 C 163.72099,43.612625 163.6826,44.091633 163.42049,43.836713 C 163.03342,44.309555 163.56784,45.178377 162.88658,45.409504 C 163.12674,46.116724 161.48515,45.879961 162.11403,46.511464 C 162.52636,46.570803 161.63276,46.836521 161.93657,47.189136 C 161.50801,47.542789 161.07242,47.876772 160.62369,48.157844 C 160.69813,48.634802 160.67698,49.369508 159.97396,49.153876 C 159.60444,49.260888 159.13956,49.097056 158.93993,49.089447 C 158.83342,49.654869 159.08546,50.34295 158.38648,50.68138 C 158.73518,51.299528 157.88818,51.803711 158.29469,52.329798 C 158.85703,52.682608 159.03525,53.331012 159.41882,53.832381 C 160.02632,54.04932 160.74102,53.55406 161.27894,54.054703 C 162.01873,54.180458 162.66718,54.879551 162.73563,55.637428 C 163.22308,56.161975 164.06562,55.79018 164.70885,55.848152 C 165.17675,55.821602 165.51976,56.252659 165.68587,56.475985 C 166.35316,56.400917 167.17864,56.027354 167.18681,55.280714 L 167.29548,55.208381 L 167.29549,55.208385 z "
            id="Ribeira_de_Pena" />
        <path style="fill:#ffefd5;fill-rule:evenodd;stroke:#b22222;stroke-width:0.25400001;stroke-opacity:1"
            d="M 171.44249,72.844986 C 172.095,73.07211 172.71305,73.048428 173.34908,72.791426 C 174.02776,72.865059 174.74879,73.185085 175.44168,72.933525 C 175.89825,72.46867 176.53462,72.192723 176.82204,71.617734 C 176.95188,71.044063 177.4888,70.576865 177.4527,69.986653 C 177.05438,69.718192 177.18874,69.168205 177.56976,69.080668 C 177.71847,68.726521 177.2334,68.256801 177.86729,68.313943 C 178.19113,67.96854 177.04472,67.973946 177.60345,67.845592 C 177.54078,67.573456 177.80647,67.16262 177.36349,67.111986 C 177.89235,66.772372 177.29373,66.322583 177.15487,65.928392 C 176.86156,65.491098 176.5328,64.983302 176.5899,64.468818 C 176.15248,64.21779 176.83468,63.814464 176.28613,63.57673 C 176.14694,63.365177 175.80998,63.566568 176.10582,63.220402 C 176.33646,62.835882 175.55477,62.904909 175.9667,62.532505 C 176.16621,62.206282 175.55064,62.014778 175.84249,61.744985 C 175.52596,61.415634 175.32456,61.047291 175.25028,60.654147 C 174.55935,60.644883 175.27628,59.861115 174.6076,59.704228 C 174.29645,59.243593 174.18787,58.689889 174.13991,58.157898 C 174.14888,57.785423 174.40731,56.829736 173.74216,57.163648 C 173.39139,56.919182 173.12761,56.618667 173.34349,56.185981 C 172.80744,55.422562 172.12357,56.364709 171.80202,56.835558 C 171.56839,57.078075 172.21155,57.509114 172.11009,57.941661 C 172.23642,58.463712 172.94106,58.39535 173.03189,59.007731 C 173.38261,59.368597 174.32534,59.399425 174.30532,60.017193 C 174.05926,60.545944 173.76606,61.042665 173.5193,61.562135 C 173.05145,62.201965 174.1782,62.77396 173.54,63.416611 C 173.32862,63.923911 172.63771,64.252844 172.69837,64.809643 C 172.3474,65.168249 171.95596,65.528225 171.53282,65.855309 C 171.89113,66.027412 172.7944,66.170011 172.16243,66.651938 C 171.51144,66.815025 171.5506,67.750881 171.82434,68.209006 C 171.70132,68.446331 171.41576,68.616348 171.58536,68.936487 C 171.17684,69.480974 172.33211,69.434024 171.97624,70.049143 C 171.91005,70.505451 172.62748,71.28431 172.10332,71.541309 C 171.67313,71.754285 171.75561,72.567969 171.43324,72.841335 L 171.44249,72.844978 L 171.44249,72.844986 z "
            id="Sabrosa" />
        <path style="fill:#ffefd5;fill-rule:evenodd;stroke:#b22222;stroke-width:0.25400001;stroke-opacity:1"
            d="M 159.05649,67.086983 C 159.4496,67.084929 159.78323,67.321597 159.91379,67.665324 C 160.24787,67.935711 160.64899,67.589618 160.98496,67.772475 C 161.2675,67.828464 161.2452,68.091231 160.94443,68.076048 C 160.74252,68.306074 161.46094,68.419989 161.31059,68.763562 C 161.55541,69.103692 161.60225,68.378436 161.91692,68.577145 C 162.38199,68.598984 162.35886,69.070914 162.05866,69.302195 C 161.72901,69.603587 162.00642,70.01536 162.13479,70.319323 C 162.5427,70.192568 162.60612,71.07788 163.03991,70.746588 C 163.35797,70.41201 163.65943,70.952905 164.00373,70.900139 C 164.40773,70.950069 164.43037,71.364458 164.47332,71.654067 C 164.79531,71.856921 165.00702,72.185267 165.39845,72.163165 C 165.72475,72.280352 166.23022,72.338293 166.39764,71.954594 C 166.61385,71.621854 166.62918,71.246064 166.61325,70.867587 C 166.91921,70.570717 166.82133,70.1648 166.67147,69.812903 C 166.59751,69.523418 165.98547,69.651348 165.89658,69.285145 C 165.71771,68.835885 166.04242,68.4191 166.24686,68.043909 C 166.42143,67.708341 166.18718,67.324332 166.38494,66.966134 C 166.40763,66.666673 166.87412,66.654435 166.65979,66.288903 C 166.74179,65.890686 166.48308,65.346154 165.99627,65.509163 C 165.78762,65.763475 165.52348,66.039603 165.13876,66.090406 C 164.84842,66.266627 164.83851,66.690197 164.92096,66.910199 C 164.43303,67.155915 164.2527,66.318346 163.78295,66.455043 C 163.43302,66.609068 163.11339,66.479456 162.89685,66.208389 C 162.44001,66.091117 161.95274,65.962206 161.52229,66.142025 C 161.06594,66.026061 160.62965,65.921682 160.19659,66.164241 C 159.82511,66.168001 159.51144,66.484924 159.25162,66.733521 C 159.17556,66.844837 159.11277,66.964656 159.05649,67.086983 z "
            id="Santa_Marta_de_Penaguião" />
        <path style="fill:#ffefd5;fill-rule:evenodd;stroke:#b22222;stroke-width:0.25400001;stroke-opacity:1"
            d="M 180.35149,49.721684 C 179.78888,49.204219 180.01698,47.569325 178.72395,47.95405 C 177.13233,48.176271 178.24707,46.659996 178.61765,45.980893 C 178.31417,45.205879 177.37903,44.809707 177.81257,43.840973 C 177.86963,42.728241 178.86274,43.685875 179.0837,44.096487 C 179.71976,43.847259 179.67878,42.830804 180.56882,43.329683 C 181.22686,42.675312 182.81111,41.788702 182.00146,40.749691 C 181.1782,40.104567 182.39466,39.29558 183.06782,39.654015 C 183.17517,38.884535 183.84753,38.004464 182.81415,37.499349 C 182.53956,36.662697 183.6765,36.565656 183.84109,36.37161 C 183.21987,35.333472 185.04441,34.912306 185.41474,35.878022 C 186.79826,35.826619 184.95475,37.691349 186.25827,37.690001 C 186.70314,37.636775 186.46579,36.736096 186.62877,36.332564 C 185.65186,35.905241 186.07935,34.440568 187.10994,34.506637 C 187.54894,33.898355 188.57133,34.424929 188.44924,33.368963 C 188.74787,32.77556 189.45888,32.57211 189.50879,31.865238 C 190.02917,31.325645 190.48293,30.956057 191.01682,30.564013 C 191.92169,30.549731 192.64507,31.01942 193.49782,31.17968 C 193.92422,31.21212 194.60348,30.875106 194.16782,30.419347 C 195.00959,29.796184 195.83066,30.410822 196.34549,31.053889 C 196.19341,31.636488 195.97728,32.030853 196.25534,32.655421 C 196.11625,33.472062 194.80244,33.221144 195.05482,34.312346 C 193.72191,34.802384 194.53127,36.467097 193.84486,37.402472 C 193.50504,38.461224 192.80141,39.337128 192.46383,40.408388 C 192.85052,41.478544 191.78002,42.402032 191.96061,43.540509 C 192.29366,44.313968 191.43907,45.276011 192.32711,45.918761 C 192.4458,46.719803 193.22568,47.202962 193.42515,48.05601 C 192.61027,48.680575 191.46592,48.395205 190.60168,48.682765 C 190.01799,49.576728 189.63848,50.691361 189.62282,51.822346 C 190.47497,52.655909 188.25528,52.092456 188.19697,52.899076 C 187.5428,52.880896 186.46166,54.50182 186.27282,53.21668 C 185.95115,52.406853 184.40519,52.943785 184.38949,52.039679 C 184.18659,51.235434 184.68771,50.897087 185.29321,50.706439 C 185.57249,49.977909 184.15985,49.739333 184.42628,48.824055 C 184.23488,48.099134 183.20534,47.283028 183.09789,48.47744 C 182.76628,49.078919 182.20265,49.895003 181.70715,49.894304 C 181.41681,50.432235 180.76921,49.720095 180.35149,49.721684 z "
            id="Valpaços" />
        <path style="fill:#ffefd5;fill-rule:evenodd;stroke:#b22222;stroke-width:0.25400001;stroke-opacity:1"
            d="M 167.8205,44.343987 C 168.2747,44.196488 168.6507,44.073735 169.09846,44.090668 C 169.50518,43.625024 168.13135,43.807701 168.79791,43.273511 C 169.11485,42.896647 169.74353,42.987722 170.08405,42.516261 C 170.84325,42.520964 170.13943,41.703644 170.67515,41.356638 C 171.10539,40.907169 171.76006,40.431706 172.41808,40.43815 C 172.86364,40.070421 173.42751,40.232046 173.73814,40.748043 C 174.35405,41.03484 175.00163,41.412742 175.06258,42.221056 C 174.71081,42.927335 175.44562,43.488369 175.98716,42.895317 C 176.81055,42.932535 176.25782,41.552025 177.18803,41.917441 C 177.71307,41.653315 178.13051,41.600183 178.40167,42.19927 C 178.70301,42.517094 178.12668,42.890125 178.39549,43.31165 C 177.59661,43.159795 177.85129,44.231475 177.73555,44.683649 C 177.93485,45.3007 179.12432,45.798286 178.3375,46.546109 C 177.72141,47.06742 177.6046,48.266439 178.72329,47.954018 C 179.81897,47.624892 179.96618,48.90284 180.15389,49.588998 C 180.61852,50.223727 180.91712,51.059637 180.69516,51.912654 C 180.35782,52.589217 180.06371,52.830614 179.59049,53.404988 C 179.80924,54.285656 178.86482,53.221257 178.50408,53.174864 C 177.9559,52.625546 177.91915,54.064455 177.16416,53.850321 C 176.67701,53.782183 176.30518,53.65795 176.17198,54.284462 C 175.78947,54.998956 175.23853,55.655135 175.11783,56.475992 C 175.52291,56.624177 174.84904,56.419935 174.68026,56.686024 C 174.2359,57.109021 173.42305,57.394327 173.267,56.563945 C 173.51701,55.424005 172.05364,56.034032 171.88049,56.753793 C 171.31116,57.028782 170.49521,56.268566 169.83242,56.102152 C 169.25773,55.585773 168.40975,55.929701 167.92078,55.365824 C 167.31189,55.313701 167.21844,55.043931 167.40698,54.50548 C 167.41508,53.879316 168.11908,53.094564 167.25934,52.688782 C 166.33219,52.514009 165.60983,51.846436 165.02096,51.138772 C 164.28588,50.467956 165.48531,49.639628 166.1458,49.838247 C 166.38229,49.247049 166.70161,47.882235 167.50106,48.91484 C 167.97031,49.445582 168.28109,49.12612 168.59825,48.659506 C 169.00955,48.188289 167.9944,47.748423 167.72303,47.45437 C 167.13648,47.049732 166.19308,46.609403 166.25307,45.766804 C 166.83561,45.774516 166.13967,44.942461 166.76082,45.298996 C 167.57025,45.606096 167.31246,44.687285 167.8205,44.343987 z "
            id="Vila_Pouca_de_Aguiar" />
        <path style="fill:#ffefd5;fill-rule:evenodd;stroke:#b22222;stroke-width:0.25400001;stroke-opacity:1"
            d="M 158.16949,63.392986 C 157.81774,63.949201 157.06469,64.39435 157.89776,64.89792 C 157.89063,65.661855 159.36472,65.937009 158.82703,66.803026 C 159.11329,67.487612 159.54064,65.957365 160.16336,66.195485 C 160.75577,65.757212 161.39806,66.313317 162.0369,66.048175 C 162.84217,65.977265 163.25008,66.750102 164.03182,66.450022 C 164.24437,66.806892 165.18643,67.277128 164.86318,66.521725 C 165.06611,65.981252 165.76386,65.865634 166.08825,65.514352 C 166.79974,65.37817 166.87384,66.721694 166.40849,66.88765 C 166.31268,67.660323 166.21004,68.248482 165.83903,68.970942 C 165.83159,69.574209 166.83313,69.954577 167.23803,69.803565 C 167.86473,68.96861 168.16842,70.486958 168.92549,70.164982 C 169.78656,70.346128 170.36387,70.619747 171.2144,70.886894 C 171.63016,70.850963 172.5494,71.970087 172.23604,71.008107 C 171.83181,70.421227 172.29703,69.511137 171.47849,69.277983 C 171.66363,68.89564 171.4096,68.507327 171.8327,68.262023 C 171.49241,67.652677 171.58137,66.778907 172.30757,66.509592 C 172.79967,65.894777 170.90429,66.083204 171.8625,65.600743 C 172.21999,65.192531 172.78907,64.971915 172.77524,64.380919 C 173.40292,63.778437 174.11665,62.846 173.38811,62.038612 C 173.52259,61.289861 174.06412,60.668019 174.32377,59.945448 C 174.06587,59.227472 172.88486,59.330064 172.69468,58.453177 C 171.77772,58.234389 172.17705,56.690146 171.02037,56.612185 C 170.27568,56.366168 169.61171,55.912336 168.86129,55.705664 C 168.24954,55.9757 167.57193,54.75922 167.18716,55.4334 C 167.0642,56.141502 165.65297,56.931878 165.3655,56.068441 C 164.77759,55.672005 164.16077,55.828354 164.07808,56.586928 C 163.69531,57.332113 162.45094,57.625934 162.91471,58.704881 C 163.03698,59.51933 162.26977,60.217024 161.79178,60.833686 C 161.3527,61.615141 160.56274,61.790746 159.81749,62.125322 C 159.09997,62.356237 158.84031,63.131996 158.16949,63.392986 z "
            id="Vila_Real" />
    </g>
    <!-- EO MUNICIPIOS -->
</svg>