<?xml version="1.0" encoding="UTF-8" standalone="no"?>
<!-- Creator: CorelDRAW -->
<svg xmlns:dc="http://purl.org/dc/elements/1.1/" xmlns:cc="http://web.resource.org/cc/"
    xmlns:rdf="http://www.w3.org/1999/02/22-rdf-syntax-ns#" xmlns:svg="http://www.w3.org/2000/svg"
    xmlns="http://www.w3.org/2000/svg" xmlns:sodipodi="http://inkscape.sourceforge.net/DTD/sodipodi-0.dtd"
    xmlns:inkscape="http://www.inkscape.org/namespaces/inkscape" xml:space="preserve" width="250" height="366"
    style="shape-rendering:geometricPrecision; text-rendering:geometricPrecision; image-rendering:optimizeQuality; fill-rule:evenodd; clip-rule:evenodd"
    viewBox="0 0 200 200" id="svg1627" sodipodi:version="0.32" inkscape:version="0.43"
    sodipodi:docname="Mapa_de_Portugal.svg" sodipodi:docbase="C:\Documents and Settings\Márcio Silva\Os meus documentos"
    version="1.0">
    <metadata id="metadata1927">
        <rdf:RDF>
            <cc:Work rdf:about="">
                <dc:format>image/svg+xml</dc:format>
                <dc:type rdf:resource="http://purl.org/dc/dcmitype/StillImage" />
                <dc:title>Munícipios de Portugal</dc:title>
                <cc:license rdf:resource="http://creativecommons.org/licenses/GPL/2.0/" />
                <dc:creator>
                    <cc:Agent>
                        <dc:title>Rei-artur (rei.artur@gmail.com)</dc:title>
                    </cc:Agent>
                </dc:creator>
            </cc:Work>
            <cc:License rdf:about="http://creativecommons.org/licenses/GPL/2.0/">
                <cc:permits rdf:resource="http://web.resource.org/cc/Reproduction" />
                <cc:permits rdf:resource="http://web.resource.org/cc/Distribution" />
                <cc:requires rdf:resource="http://web.resource.org/cc/Notice" />
                <cc:permits rdf:resource="http://web.resource.org/cc/DerivativeWorks" />
                <cc:requires rdf:resource="http://web.resource.org/cc/ShareAlike" />
                <cc:requires rdf:resource="http://web.resource.org/cc/SourceCode" />
            </cc:License>
        </rdf:RDF>
    </metadata>

    <sodipodi:namedview inkscape:window-height="582" inkscape:window-width="866" inkscape:pageshadow="2"
        inkscape:pageopacity="0.0" borderopacity="1.0" bordercolor="#666666" pagecolor="#ffffff" id="base"
        fill="#ffff00" inkscape:zoom="1.1338798" inkscape:cx="125" inkscape:cy="211.12313" inkscape:window-x="28"
        inkscape:window-y="117" inkscape:current-layer="layer7" showguides="true" inkscape:guide-bbox="true">
        <sodipodi:guide orientation="horizontal" position="329.9602" id="guide2648" />
        <sodipodi:guide orientation="horizontal" position="307.74672" id="guide2650" />
    </sodipodi:namedview>

    <defs id="defs1629">
        <metadata id="CorelCorpID_0Corel-Layer" />
        <sodipodi:namedview inkscape:guide-bbox="true" showguides="true" inkscape:current-layer="layer1"
            inkscape:window-y="-4" inkscape:window-x="-4" inkscape:cy="327.60442" inkscape:cx="146.08303"
            inkscape:zoom="17.548964" fill="#fa8072" id="namedview5974" pagecolor="#ffffff" bordercolor="#666666"
            borderopacity="1.0" inkscape:pageopacity="0.0" inkscape:pageshadow="2" inkscape:window-width="1024"
            inkscape:window-height="712" />
    </defs>

    <!-- <g inkscape:groupmode="layer" id="layer3" inkscape:label="fundo" style="display:inline" sodipodi:insensitive="true">
        <rect style="fill:#4169e1;fill-opacity:1;fill-rule:evenodd;stroke:none;display:inline" id="rect2247" width="200" height="200" />
    </g> -->

    <g inkscape:groupmode="layer" id="layer10" inkscape:label="----detalhes----" style="display:inline" />

    <!-- MUNICIPIOS -->
    <g inkscape:groupmode="layer" id="layer4" inkscape:label="Municipios" style="display:inline"
        sodipodi:insensitive="true" transform="translate(-340, -170) scale(2.7)">
        <path style="fill:#ffefd5;fill-rule:evenodd;stroke:#b22222;stroke-width:0.25400001;stroke-opacity:1"
            d="M 167.42249,73.967682 C 167.80322,74.000019 168.2061,73.946212 168.56721,74.068491 C 169.03977,74.23144 169.55597,74.311361 169.84686,73.811955 C 170.27773,73.373042 170.75075,72.840057 171.41516,72.827021 C 171.62513,72.843273 171.97134,72.988665 172.23916,73.008021 C 172.13213,73.344925 172.38889,73.720329 172.65385,73.939301 C 172.92788,74.093682 173.44805,74.455291 172.89741,74.632812 C 172.66005,74.701336 172.35819,75.063776 172.79488,75.032156 C 172.89198,75.185947 172.56872,75.40298 172.69759,75.647325 C 172.71179,76.064526 173.03893,76.37755 172.93448,76.811426 C 172.91496,77.169902 172.94915,77.56982 173.14449,77.842688 C 173.76263,77.870749 173.16059,78.591181 173.44555,78.84445 C 173.77223,79.097694 173.52836,79.545659 173.45457,79.874347 C 173.33746,80.247866 173.03224,80.499721 172.86441,80.822275 C 172.7982,81.240212 172.7016,81.792762 172.37513,82.054055 C 172.00229,81.958097 171.5371,82.179935 171.239,82.085762 C 171.13203,81.670947 170.85812,81.198671 170.37861,81.18632 C 169.94487,80.958391 169.57437,81.573142 169.21516,81.247028 C 169.00866,81.332932 168.67174,81.925289 168.50462,81.437626 C 168.36032,81.080674 167.86968,80.780647 168.27702,80.410848 C 168.47512,80.001243 168.87749,79.696384 169.30582,80.015695 C 169.71815,80.020318 169.53601,79.294729 169.15034,79.300282 C 168.73533,79.124649 168.31263,79.002239 167.8866,78.865737 C 167.51897,78.743909 166.98157,78.754332 166.7051,78.583602 C 166.45822,78.167543 166.60972,77.728692 166.72945,77.29732 C 166.87142,76.885285 166.58065,76.505438 166.72263,76.086797 C 166.8157,75.765729 166.96746,75.452005 167.2595,75.250741 C 167.46022,75.125357 167.98598,74.521059 167.49386,74.535928 C 167.16043,74.557351 167.63299,74.132851 167.42249,73.967682 z "
            id="Armamar" />
        <path style="fill:#ffefd5;fill-rule:evenodd;stroke:#b22222;stroke-width:0.25400001;stroke-opacity:1"
            d="M 151.16148,121.49969 C 151.56642,121.36937 152.03202,121.32319 152.35289,121.05505 C 152.55816,120.79228 153.27326,120.67481 152.99699,120.19026 C 152.57428,119.69417 153.27708,119.41596 153.63188,119.2161 C 154.10087,118.98573 154.62957,118.75926 154.89549,118.28002 C 155.29066,118.03269 156.07606,117.59664 155.56612,117.0862 C 155.23452,116.85544 155.47173,115.82418 155.93441,116.32512 C 156.21905,116.66849 156.7371,116.05373 156.77482,116.62869 C 156.90921,117.11859 156.86601,117.6502 156.88844,118.16168 C 156.83186,118.63255 157.05107,119.0594 157.17982,119.49888 C 157.04055,119.85965 157.60701,120.18052 157.09557,120.42402 C 156.80196,120.49246 156.63319,120.97358 157.06062,120.83912 C 157.46361,120.75744 157.2075,121.33321 157.48517,121.46301 C 157.51984,121.94043 158.08955,122.2945 157.92093,122.77918 C 157.71203,123.17841 157.43715,123.53235 157.14798,123.86182 C 156.83477,124.21871 156.47039,124.1078 156.07841,124.18294 C 155.45476,124.53737 155.25732,125.44778 154.49289,125.58669 C 154.06355,125.74394 153.73377,126.14433 153.30955,126.34573 C 152.85989,126.61184 152.32454,126.67116 151.81349,126.64201 C 151.39697,126.5814 151.32133,127.00851 151.05282,127.20335 C 150.73594,126.85697 150.37491,126.5551 150.43986,126.05035 C 150.13267,125.57709 150.52807,125.07958 150.44132,124.5794 C 150.2577,124.25027 149.54243,123.85084 150.02579,123.45728 C 150.48127,123.23107 150.57302,122.73537 150.89012,122.40726 C 151.24644,122.18667 151.1809,121.85067 151.16148,121.49969 z "
            id="Carregal_do_Sal" />
        <path style="fill:#ffefd5;fill-rule:evenodd;stroke:#b22222;stroke-width:0.25400001;stroke-opacity:1"
            d="M 148.95248,85.139984 C 149.58752,85.52765 150.4098,85.87679 151.01682,85.266652 C 151.81793,85.431239 152.02612,86.804779 152.99624,86.666484 C 153.59804,86.592907 154.24713,86.506279 154.54782,86.009322 C 155.31847,86.865284 155.72837,85.476961 156.17446,85.005417 C 156.24872,84.642162 155.87277,84.291971 156.34049,84.017321 C 156.50407,83.612063 156.27028,83.348932 156.76375,83.245706 C 157.10611,82.705346 157.5545,83.314633 157.95699,82.857153 C 158.65882,82.927866 159.44757,82.577183 160.07049,82.622987 C 159.4278,83.007932 159.35583,83.887011 158.79601,84.489773 C 159.29037,84.430737 160.44036,84.504349 160.89098,85.138328 C 161.61267,85.327421 161.68478,85.972709 162.15575,86.460431 C 162.53596,86.989866 163.26497,87.755528 163.56648,86.714742 C 164.0036,86.125794 164.59841,85.207399 165.43287,85.90464 C 166.2503,85.815648 166.87091,86.588819 166.14666,87.193332 C 166.39908,87.607583 166.99644,88.448592 166.08284,88.014794 C 165.47529,88.356257 165.15858,89.172647 164.40195,88.555148 C 163.95726,88.510004 163.64169,87.551277 163.30441,88.302623 C 162.58345,88.739987 162.62562,89.674358 161.86284,90.090248 C 161.00999,89.848839 161.41267,91.194166 160.58266,91.110106 C 161.08453,91.556037 161.57002,92.238653 161.95454,92.877448 C 162.31679,93.594307 162.61708,94.282778 163.41951,94.612104 C 163.64271,95.623865 162.44094,95.800891 161.97965,96.421315 C 161.76524,97.128493 161.50164,98.10117 160.801,98.373758 C 160.09174,97.752883 159.54479,98.806424 158.83026,98.297443 C 158.27407,98.023149 157.59149,98.119724 156.98457,98.260985 C 157.03994,97.621202 156.18377,97.300327 155.94023,96.699676 C 155.03251,96.430854 155.76086,95.725995 155.5075,95.11732 C 154.3624,95.538363 154.20945,94.010215 153.42536,93.50514 C 152.67989,93.216035 152.21459,92.359537 152.95416,91.76732 C 152.39431,91.094189 152.44376,92.658091 151.75241,92.224195 C 150.82449,92.433808 150.60152,91.380023 151.3367,90.872813 C 151.4403,90.563188 151.96092,89.63469 151.27961,90.153759 C 150.90281,89.916354 149.79648,90.344451 150.35056,89.630212 C 150.22509,89.015235 149.34125,88.618592 148.88012,88.989816 C 148.49437,88.433707 147.96746,89.617998 148.1195,88.725316 C 147.51077,88.658588 147.26703,89.043545 147.23216,89.666983 C 146.85318,88.942629 146.1775,87.788785 147.2865,87.41065 C 147.49232,86.799624 147.97947,86.233309 148.4275,86.117979 C 148.20812,85.731687 148.74751,85.40704 148.95248,85.139984 z "
            id="Castro_Daire" />
        <path style="fill:#ffefd5;fill-rule:evenodd;stroke:#b22222;stroke-width:0.25400001;stroke-opacity:1"
            d="M 148.64549,77.353683 C 149.2437,77.859375 149.89786,78.07281 150.6761,78.03899 C 151.28952,78.263103 152.32807,77.135918 152.36092,78.299879 C 152.21106,78.991236 152.63486,79.537527 153.146,79.949673 C 153.67242,80.354863 154.01321,80.785929 154.09112,81.455974 C 154.64664,81.977429 153.9011,82.63585 154.29537,83.127432 C 154.73418,83.643325 155.41858,83.604132 155.95921,83.832572 C 156.20658,84.121397 155.96867,84.576127 156.2505,84.922682 C 155.73807,85.329766 155.44561,86.81266 154.62826,86.076635 C 154.27091,85.872659 154.10506,86.860436 153.55697,86.546544 C 152.96435,86.758715 152.40353,86.724054 152.00475,86.169014 C 151.62703,85.803117 151.42848,85.113771 150.80902,85.352028 C 150.46692,85.890997 149.83322,85.458428 149.42013,85.402276 C 148.80238,85.259715 148.68237,84.545363 148.9126,84.031631 C 149.45428,83.690588 148.32434,82.870395 148.42795,83.692365 C 148.06781,84.251234 147.48966,84.542204 147.32185,85.209893 C 146.95906,85.664715 146.65279,86.558512 145.95516,86.005444 C 145.31329,85.668534 144.65364,85.399295 144.00078,85.069839 C 143.46334,84.765335 143.12618,84.265043 142.79559,83.777549 C 142.34053,83.469582 141.37632,83.852311 141.38329,83.179128 C 141.11198,82.983028 140.95671,82.349035 141.44294,82.390509 C 141.43936,81.820588 141.82641,81.007035 141.13824,80.71772 C 141.23531,79.94986 140.4661,80.275496 140.12233,79.941935 C 140.31691,79.448478 141.32997,79.739598 141.55043,79.056535 C 141.89929,79.016828 142.27544,79.010364 142.43805,78.554709 C 142.74957,77.908843 143.57355,77.831592 144.15574,78.085164 C 144.69416,78.559006 145.38873,78.117571 145.94229,78.556017 C 146.82407,78.804789 147.54551,78.071538 148.14145,77.546879 C 148.31505,77.480486 148.49145,77.474215 148.64549,77.353683 z "
            id="Cinfães" />
        <path style="fill:#ffefd5;fill-rule:evenodd;stroke:#b22222;stroke-width:0.25400001;stroke-opacity:1"
            d="M 167.42249,73.967682 C 167.5766,74.203742 167.1472,74.651076 167.6331,74.527331 C 167.81658,75.129302 166.72254,75.417502 166.72262,76.086783 C 166.65798,76.672383 166.87627,77.233221 166.60352,77.80865 C 166.48759,78.309835 166.95751,78.883367 166.34595,79.266054 C 165.87959,79.632213 166.24232,80.337051 166.11986,80.855729 C 166.34358,81.500968 165.65934,81.864889 165.14195,81.948571 C 164.59901,82.014635 163.89664,81.57671 163.48167,82.029373 C 163.41269,82.432267 163.69546,83.280515 162.98908,83.061503 C 162.48019,83.05185 162.00693,83.351822 162.00574,83.893201 C 161.92045,84.371984 161.1843,84.651588 161.53125,85.258177 C 161.67249,85.879955 160.96684,85.02273 160.70374,85.071366 C 160.42458,84.566982 159.79166,84.488024 159.26395,84.468185 C 158.96213,84.559102 158.57119,84.628121 158.95896,84.279117 C 159.28356,83.815784 159.46262,83.365865 159.69049,82.85835 C 160.19586,82.975769 160.07525,82.288316 159.68105,82.628571 C 159.20583,82.855008 158.66125,82.682863 158.16949,82.894684 C 158.23258,82.283177 158.32737,81.656724 158.58043,81.099527 C 158.79685,80.599302 159.53575,80.525951 159.63615,79.96135 C 160.03111,79.55283 159.7913,78.919276 160.24593,78.525735 C 160.40197,77.990254 160.53855,77.449986 160.99238,77.065055 C 161.62038,76.74814 161.39758,76.121012 161.02933,75.686173 C 160.88077,75.384622 161.0022,75.025022 160.57172,74.872621 C 160.00673,74.529233 159.50625,73.69084 160.20075,73.21931 C 160.86318,73.05535 161.60506,73.510795 162.29816,73.515015 C 162.8043,73.782998 163.65492,74.304551 163.70251,73.334094 C 163.99055,72.437226 164.69041,73.445401 165.18799,73.523072 C 165.68863,73.562947 166.24494,73.485296 166.69816,73.75035 C 166.93936,73.823583 167.18096,73.895586 167.42249,73.967682 z "
            id="Lamego" />
        <path style="fill:#ffefd5;fill-rule:evenodd;stroke:#b22222;stroke-width:0.25400001;stroke-opacity:1"
            d="M 176.60249,108.62569 C 176.60838,109.28825 176.62432,109.97459 176.05949,110.45469 C 175.89745,111.03054 175.6784,111.60473 175.49475,112.17182 C 175.51821,112.69168 174.84344,113.42695 175.67916,113.60536 C 175.56221,113.98168 174.84583,113.80194 174.73749,114.32969 C 174.32805,114.18902 174.02137,114.08116 173.63316,114.25736 C 172.9977,113.84734 172.38805,114.49253 171.75979,114.59176 C 171.09874,114.39251 171.19106,115.5101 170.50202,115.25661 C 169.91213,115.58917 169.14151,115.23618 168.80207,116.01044 C 168.3638,116.57983 167.60651,116.53654 167.02382,116.86468 C 166.67595,116.85833 166.38046,116.98214 166.65024,116.51027 C 166.57589,116.11691 166.83352,115.2042 166.09608,115.52763 C 165.39231,115.71003 164.63324,115.82595 164.00688,115.36042 C 163.2911,115.05609 162.47965,114.81037 162.25607,113.96619 C 162.02233,113.51522 161.58024,113.43347 161.18969,113.25482 C 160.58609,113.60222 160.11256,113.09191 159.58883,112.84835 C 159.23686,112.97118 158.79198,112.86545 159.23059,112.49072 C 159.52846,111.79177 160.15579,111.61918 160.75773,111.35666 C 161.11328,110.71103 161.96667,111.13357 162.35216,110.49803 C 162.68472,109.88229 162.97283,109.09327 163.85618,109.43846 C 164.6083,109.78193 165.21028,108.9998 165.88111,108.96912 C 166.36271,108.80483 167.17164,107.95569 167.51282,108.78869 C 167.07456,109.28817 167.49145,109.80443 168.07549,109.5599 C 168.62643,109.41542 169.47302,109.22991 169.61722,109.97815 C 170.414,110.1787 171.25067,110.28065 171.93984,109.76129 C 172.50818,109.95688 172.58777,109.55178 172.67167,109.11596 C 173.26286,108.7009 173.98858,108.68089 174.72628,108.70822 C 175.41287,108.79538 175.90079,107.86637 176.47517,108.52117 L 176.54438,108.57366 L 176.60249,108.62569 L 176.60249,108.62569 z "
            id="Mangualde" />
        <path style="fill:#ffefd5;fill-rule:evenodd;stroke:#b22222;stroke-width:0.25400001;stroke-opacity:1"
            d="M 171.24348,82.134384 C 171.79186,81.96663 172.58562,82.292763 172.69895,81.529968 C 172.77494,81.085137 172.90908,80.783313 173.43802,80.92999 C 174.1722,80.937895 174.74656,81.416955 175.46829,81.450584 C 176.11181,81.728062 176.40797,82.446101 176.93834,82.873208 C 177.2765,83.185914 177.6435,83.712275 178.0175,83.823044 C 177.63115,84.128642 177.77602,84.534621 177.97835,84.889083 C 177.8052,85.425549 177.52779,86.059427 177.65398,86.604644 C 177.86641,87.173036 176.96628,86.721295 176.90033,87.28462 C 176.53432,87.86539 177.33468,88.321924 177.09671,88.884849 C 176.72678,89.338843 176.16966,89.649376 175.61631,89.826024 C 174.95779,89.549993 174.50263,90.107807 173.9415,90.355041 C 173.3482,90.256683 173.10133,90.857793 172.7719,91.279913 C 172.37634,91.812592 171.47933,91.402455 171.43469,92.207053 C 171.05935,92.759019 171.29773,93.548356 170.86316,94.067037 C 170.60553,94.298739 170.41487,94.264212 170.33816,93.904037 C 169.74055,93.771826 169.10923,93.452215 169.08883,92.745371 C 168.84593,92.24612 168.34507,91.663205 168.97557,91.216563 C 169.39326,90.801832 169.7469,90.207897 169.2335,89.721371 C 169.08861,89.067421 168.72366,88.386977 168.07098,88.105013 C 167.43951,87.998278 167.9112,87.140049 167.79824,86.674997 C 167.88505,85.95017 167.62771,85.232605 167.74557,84.504306 C 168.0051,83.990948 167.61619,83.281996 167.78534,82.875454 C 168.49773,82.857588 169.13447,82.441658 169.84917,82.442034 C 170.30902,82.378787 170.75172,82.24143 171.20941,82.137861 L 171.2435,82.134369 L 171.24348,82.134384 z "
            id="Moimenta_da_Beira" />
        <path style="fill:#ffefd5;fill-rule:evenodd;stroke:#b22222;stroke-width:0.25400001;stroke-opacity:1"
            d="M 137.07449,119.07369 C 137.71352,118.95066 138.16878,118.44924 138.75808,118.21262 C 139.25618,117.80324 139.42528,119.01202 139.84424,118.36769 C 140.30341,117.9738 141.00698,118.01137 141.52946,117.75604 C 142.15146,117.92916 142.44537,118.42681 142.71086,119.00543 C 142.98112,119.43525 143.08932,119.87929 143.14049,120.36669 C 143.51328,120.87407 144.10917,120.94075 144.65697,121.03709 C 145.10285,121.38358 144.77191,122.33041 145.2729,122.50518 C 145.40048,122.88128 145.08838,123.5622 144.96948,124.07169 C 144.88915,124.31346 145.04618,124.61208 144.75215,124.68703 C 145.03222,124.9004 145.25979,125.27453 144.87882,125.50203 C 145.39398,125.56501 145.20933,125.93086 145.04182,126.22636 C 145.35487,126.75638 144.5419,126.47904 144.64348,126.95069 C 144.26625,127.05096 144.34698,127.54126 144.6319,127.77962 C 144.62982,127.96667 145.2853,127.8129 144.86536,128.09709 C 144.33877,128.30955 144.70066,129.0607 144.23113,129.34761 C 144.32106,129.58166 144.04101,130.30091 143.93473,129.77093 C 143.70197,129.24142 143.05846,129.83524 142.66584,129.5502 C 142.13288,129.82727 141.70315,130.26562 141.18787,130.59202 C 140.72899,131.03278 140.01226,130.99627 139.85448,130.31175 C 139.10834,130.19329 138.81905,129.38174 138.35804,128.86187 C 137.93747,128.40519 137.31197,128.25904 136.71248,128.27236 C 136.61506,128.48658 136.42906,128.96529 136.17568,128.55714 C 135.98211,127.96891 135.59415,127.50983 134.96278,127.42475 C 134.98968,126.93926 134.89145,126.24085 135.07475,125.72485 C 134.62162,124.99702 136.11197,125.00432 135.59756,124.26165 C 135.41132,123.95367 135.99879,123.63501 136.12366,123.34821 C 136.30219,122.98756 136.66579,123.17979 136.87687,122.97467 C 136.60728,122.56264 137.09808,121.97518 136.72644,121.59689 C 136.47243,121.17113 135.9487,120.854 135.97833,120.32229 C 135.79204,119.72524 136.31331,119.40479 136.81042,119.2721 C 136.9019,119.21674 137.03269,119.18377 137.07449,119.07369 z "
            id="Mortágua" />
        <path style="fill:#ffefd5;fill-rule:evenodd;stroke:#b22222;stroke-width:0.25400001;stroke-opacity:1"
            d="M 156.61249,116.32069 C 156.46537,115.86297 157.18601,115.69318 157.33323,115.27987 C 157.49399,114.7296 158.29718,114.72467 158.44729,114.15095 C 158.40574,113.92007 158.05859,113.68992 158.40216,113.46624 C 158.67138,113.19039 158.85225,112.61838 159.25582,112.90069 C 159.80974,112.6029 160.16048,113.45739 160.68644,113.35217 C 161.06134,113.31638 161.43794,113.12516 161.67182,113.55036 C 162.1654,113.46137 162.30984,114.16111 162.54129,114.48766 C 162.71803,114.91416 163.23492,114.96867 163.59773,115.17602 C 163.97765,115.31229 164.32009,115.56145 164.70302,115.66757 C 165.14297,115.73847 165.5865,115.63489 166.02573,115.54345 C 166.40115,115.34272 166.80559,115.56315 166.59597,116.00344 C 166.85177,116.59796 166.35486,117.08017 166.04683,117.55202 C 165.47501,117.52231 165.33808,118.43595 164.81289,118.31218 C 164.48505,118.31146 164.18341,118.41747 163.85813,118.23534 C 163.47735,118.14196 162.61566,118.24867 162.99907,118.77699 C 162.68028,119.05602 162.19765,119.3321 161.73166,119.2792 C 161.09235,119.43112 160.72593,120.06903 160.23895,120.48303 C 159.71659,120.77269 159.45329,121.29792 158.94767,121.6215 C 158.61962,121.90395 158.37036,122.28762 157.97083,122.49536 C 157.68236,122.10887 157.61056,121.58161 157.30083,121.24603 C 157.45431,120.84957 157.08711,120.79711 156.79383,120.8297 C 156.72039,120.44419 157.70414,120.28016 157.17855,119.83697 C 157.26938,119.40784 156.93392,119.01949 156.92049,118.58436 C 156.86546,118.04814 156.8896,117.49937 156.85023,116.96102 C 156.84543,116.73631 156.7752,116.48283 156.61249,116.32069 z "
            id="Nelas" />
        <path style="fill:#ffefd5;fill-rule:evenodd;stroke:#b22222;stroke-width:0.25400001;stroke-opacity:1"
            d="M 145.09549,111.88469 C 145.2154,112.60174 144.5039,113.21901 143.98275,113.63543 C 143.72438,114.23987 142.95853,114.62724 142.48816,114.03841 C 142.11746,113.37211 143.61608,112.43514 142.46009,112.25355 C 141.93297,112.29098 141.74705,111.82355 141.6539,111.47244 C 141.19897,111.27416 140.51087,111.30627 140.62316,110.68969 C 140.71614,109.81554 141.73199,109.91534 142.29172,110.18213 C 142.17241,110.73367 142.36617,111.18942 142.96181,111.33228 C 143.39488,111.82566 144.13448,111.96009 144.72453,111.8634 C 144.83348,111.73681 144.97342,111.88513 145.09549,111.88469 z M 139.19249,109.87469 C 138.87358,109.55577 138.09245,110.10756 138.1288,109.30796 C 138.03937,108.58499 138.36635,107.98495 138.43216,107.23102 C 137.69235,106.87306 138.50341,105.456 137.56282,105.52902 C 137.27591,105.12703 137.05376,104.80919 136.62336,104.61808 C 136.3451,104.05241 136.75559,103.34233 136.30652,102.8305 C 135.85266,102.13599 137.25853,102.354 137.63081,102.0763 C 138.22826,101.75694 138.9767,101.31357 139.40982,100.98402 C 138.82781,100.70258 139.8679,100.67635 139.70859,100.14319 C 139.91361,99.837573 139.51389,99.28352 140.15949,99.37235 C 140.20227,99.022708 140.42265,98.724428 140.35675,98.317162 C 140.75746,97.823115 141.94217,98.05786 142.08074,98.640737 C 141.64488,99.118467 141.36791,99.712534 141.01595,100.25252 C 140.76828,100.76519 141.0646,100.94197 141.53734,100.82256 C 141.99133,101.15726 142.32435,102.08186 143.05523,101.81155 C 143.54375,101.77456 144.05291,102.12076 144.46182,101.63602 C 144.84413,102.1991 146.02558,101.83609 146.21816,102.59569 C 146.57488,102.63924 146.88762,102.52118 146.71284,103.026 C 146.70767,103.48041 145.72565,103.45458 146.22075,103.99682 C 145.82864,104.25951 145.64859,105.29849 145.1137,105.06719 C 144.45987,104.625 143.91092,105.26133 143.24469,105.2889 C 142.5302,105.55512 141.90512,105.11745 141.29702,104.93321 C 140.75128,105.18352 140.78202,105.69002 141.23883,106.01802 C 141.11259,106.74431 140.42396,106.97591 140.15615,107.62408 C 139.66905,107.74841 139.04884,108.47676 139.75383,108.77036 C 139.50124,109.1811 139.70306,109.59292 139.19249,109.87469 z "
            id="Oliveira_de_Frades" />
        <path style="fill:#ffefd5;fill-rule:evenodd;stroke:#b22222;stroke-width:0.25400001;stroke-opacity:1"
            d="M 165.95549,106.21769 C 166.62432,106.2569 166.6953,105.12315 167.34658,105.3399 C 167.87326,105.57706 168.40807,105.42438 168.94534,105.41828 C 169.63126,105.3661 170.17528,104.91421 170.69227,104.50827 C 171.14077,104.18137 171.39626,103.72858 171.94818,103.6111 C 172.29261,103.54209 172.70587,103.71764 173.06103,103.72323 C 173.42839,104.12194 174.11693,103.8478 174.42077,103.4997 C 174.61106,103.09228 174.9902,103.19288 175.07664,103.6163 C 175.14739,104.08683 175.52065,104.28488 175.8903,104.44129 C 175.95252,105.05851 176.51458,105.17154 177.01311,105.04615 C 177.4284,105.05055 178.37972,105.39714 177.65965,105.80858 C 177.21217,105.91611 177.01108,106.66296 177.09894,107.09565 C 177.47275,107.32201 177.98643,107.81118 177.30344,108.0397 C 176.89609,108.22625 176.64564,108.8859 176.23281,108.36655 C 175.79739,107.93899 175.5181,108.79285 175.00915,108.62569 C 174.56581,108.75486 174.08364,108.70798 173.62894,108.74004 C 173.2209,108.74173 172.91661,108.97715 172.61678,109.20527 C 172.61238,109.56692 172.51652,109.93307 172.05669,109.7649 C 171.55367,109.70873 171.27693,110.35691 170.74803,110.14292 C 170.3241,110.06151 169.6371,110.1845 169.47335,109.72578 C 169.28022,109.1641 168.48701,109.53328 168.07549,109.56022 C 167.62283,109.72368 167.06759,109.47134 167.43162,108.9392 C 167.7469,108.36791 166.63994,108.27471 166.43945,108.68477 C 165.96858,109.04245 165.74204,108.12123 165.21249,108.16131 C 164.87394,107.87122 164.63918,107.02384 165.29811,106.98699 C 165.56919,106.82349 165.96019,106.93472 165.92395,106.46196 C 165.93979,106.38143 165.95438,106.30003 165.95549,106.21769 z "
            id="Penalva_do_Castelo" />
        <path style="fill:#ffefd5;fill-rule:evenodd;stroke:#b22222;stroke-width:0.25400001;stroke-opacity:1"
            d="M 188.02849,80.305382 C 187.71938,80.534504 187.3177,80.327249 186.9897,80.34151 C 186.69617,80.544191 186.25008,80.227826 186.01849,80.070052 C 186.36752,79.821082 186.10629,79.638587 185.8862,79.575927 C 185.86948,79.150911 185.32801,79.757023 185.07528,79.398678 C 184.75678,79.18125 184.39227,79.264773 184.45932,79.689533 C 184.09835,80.067197 183.4478,79.746058 183.04238,80.047847 C 182.62185,80.266036 182.17447,80.573 182.11574,81.077893 C 182.0719,81.584952 182.37762,82.068878 182.26797,82.581485 C 182.16354,83.127133 181.88879,83.583198 181.69082,84.089712 C 181.56753,84.548428 181.69811,85.059426 182.05801,85.410058 C 182.38329,85.847777 182.88234,86.201808 183.01598,86.750235 C 182.99705,87.125035 182.60153,87.517072 182.86392,87.888117 C 183.28793,88.391042 183.74769,88.915627 183.92808,89.563262 C 184.16746,89.827895 184.70842,89.47615 185.02414,89.808978 C 185.4107,89.800866 185.75194,89.896393 186.09617,90.123962 C 186.60179,90.14819 187.05425,89.515659 187.17749,89.051378 C 187.52359,88.813196 187.98341,88.785971 188.298,88.530555 C 188.68563,88.162479 188.19044,87.656291 188.44591,87.208771 C 188.47086,86.812423 188.9042,86.332021 188.67849,85.967579 C 188.36244,85.593532 187.96267,85.200721 187.46127,85.34481 C 186.91797,85.289867 186.89745,84.636514 186.4409,84.536823 C 186.19077,84.515828 185.87643,84.589773 186.1327,84.249507 C 186.3587,83.826925 185.6543,83.070063 186.45553,83.09263 C 186.92293,83.04414 187.34103,83.356529 187.81247,83.25717 C 188.4031,83.212819 188.35827,82.353858 188.02921,82.156752 C 188.29327,81.740392 187.56222,81.515066 187.87308,81.086532 C 187.68741,80.746593 188.45921,80.606368 188.02849,80.305382 z "
            id="Penedono" />
        <path style="fill:#ffefd5;fill-rule:evenodd;stroke:#b22222;stroke-width:0.25400001;stroke-opacity:1"
            d="M 152.17549,77.733986 C 152.62232,77.523309 153.0417,77.236963 153.55862,77.218576 C 154.23462,77.044102 154.54092,76.201032 155.27036,76.162398 C 155.84635,76.253351 156.09804,75.38948 156.69457,75.714293 C 157.20984,76.018365 157.76899,75.839421 158.30632,75.906828 C 158.8192,76.04882 159.04349,75.505942 159.03581,75.083687 C 159.04584,74.756437 159.65346,74.897796 159.54549,74.43832 C 159.69574,74.235484 159.85267,73.540701 159.9394,74.156461 C 160.08742,74.781815 161.09338,74.890061 160.95068,75.568689 C 161.20117,75.96132 161.73673,76.601142 161.12028,76.930975 C 160.73557,77.311522 160.38124,77.746648 160.33747,78.298069 C 160.22417,78.694092 159.79333,78.9901 159.89914,79.442232 C 159.75083,79.847515 159.5714,80.284437 159.18441,80.530006 C 158.66336,80.776339 158.43124,81.313511 158.3329,81.844648 C 158.14143,82.259282 158.4209,83.072637 157.75282,82.876645 C 157.6118,83.267815 157.31531,83.050608 157.09974,82.944276 C 156.81725,83.062869 156.73758,83.474421 156.37648,83.383645 C 156.49699,83.696859 156.40952,84.207732 156.06882,84.270645 C 156.25116,83.773483 155.64308,83.64668 155.29748,83.691312 C 154.90206,83.431814 154.30614,83.415853 154.13116,82.862776 C 154.33712,82.331727 154.37107,81.76656 154.01615,81.258382 C 154.0474,80.5869 153.47964,80.315373 153.0766,79.879006 C 152.68189,79.538346 152.30258,79.152611 152.33848,78.584983 C 152.41953,78.30956 152.30975,77.978141 152.17549,77.733986 z "
            id="Resende" />
        <path style="fill:#ffefd5;fill-rule:evenodd;stroke:#b22222;stroke-width:0.25400001;stroke-opacity:1"
            d="M 151.0535,127.20369 C 150.84885,126.88069 150.38188,126.68498 150.47493,126.24381 C 150.33269,125.84648 150.26338,125.44462 150.41625,125.03078 C 150.66898,124.51218 150.09811,124.29113 149.89788,123.93115 C 149.71073,123.4054 150.44324,123.29968 150.60132,122.87459 C 150.63266,122.46055 151.17666,122.33381 151.19849,121.91636 C 151.14641,121.66039 151.20994,121.38736 150.85133,121.5233 C 150.54598,121.59464 150.25158,121.59362 150.07861,121.30325 C 149.60367,121.31124 149.3464,121.89196 148.87921,121.87191 C 148.50732,121.92829 147.98676,121.91842 148.16378,121.41161 C 147.98601,120.89889 147.68882,121.77159 147.42996,121.83752 C 147.02429,122.07284 146.54364,122.05078 146.09238,122.07964 C 145.6329,122.02372 145.26207,122.32493 145.3126,122.78966 C 145.22339,123.19565 145.10117,123.64514 144.96949,124.07136 C 144.84142,124.26486 145.11897,124.62913 144.75215,124.6327 C 144.93913,124.88776 145.31425,125.24841 144.87882,125.5017 C 145.21553,125.5513 145.36177,125.83814 145.07923,126.08331 C 145.0193,126.31751 145.23242,126.70832 144.80944,126.63354 C 144.53481,126.61114 144.81533,127.05399 144.48049,126.96836 C 144.44692,127.24911 144.23015,127.44448 144.55669,127.63759 C 144.58894,127.94051 144.81801,127.82956 145.01611,127.93298 C 144.74646,128.19093 144.48516,128.32724 144.5274,128.75381 C 144.55432,129.15596 144.05123,129.31947 144.21728,129.75583 C 144.19803,130.00108 143.77005,129.96116 144.11918,130.16693 C 144.64239,130.25381 144.41463,129.10487 144.90339,129.45148 C 145.26582,129.64398 145.6002,129.99484 146.03666,129.84654 C 146.42532,129.58691 146.56867,130.4551 146.79928,130.23078 C 146.71199,129.98945 146.48202,129.54632 146.96149,129.61202 C 147.16398,129.84188 147.47679,130.15523 147.66405,129.7265 C 148.12631,129.1974 148.57813,128.61855 149.20513,128.27784 C 149.49622,128.22629 149.84143,128.40109 149.92283,127.96868 C 150.12228,127.58896 150.34416,127.18585 150.83343,127.28584 C 150.907,127.26837 151.00629,127.2747 151.0535,127.20369 z "
            id="Santa_Comba_Dão" />
        <path style="fill:#ffefd5;fill-rule:evenodd;stroke:#b22222;stroke-width:0.25400001;stroke-opacity:1"
            d="M 176.54849,72.084686 C 176.86655,71.64314 177.01359,70.57656 177.73907,71.210934 C 178.298,71.826733 178.80975,71.049813 178.99539,70.53298 C 179.54868,69.908669 180.47324,70.409324 181.17362,70.205659 C 181.70778,69.99127 181.73577,69.011858 182.41893,69.146508 C 183.00107,69.388119 183.58749,69.551669 184.14381,69.851818 C 184.83049,70.054182 185.45438,70.432651 185.63032,71.167434 C 185.88137,71.762709 186.34531,72.170163 186.31816,72.837806 C 186.9749,72.950067 186.87848,74.029806 187.62708,73.975066 C 188.2525,73.990962 188.92508,73.771325 189.52428,73.88715 C 190.29331,74.411954 189.30905,74.97757 189.24318,75.581717 C 189.04022,76.258189 188.62867,76.794754 188.55944,77.527498 C 188.32845,78.13629 188.54478,78.81921 188.13717,79.345688 C 187.64263,79.689909 188.4073,80.632476 187.47645,80.396901 C 186.96943,80.326499 186.41962,80.501279 186.0185,80.070021 C 186.50085,79.68686 185.8108,79.736347 185.85583,79.382021 C 185.34251,79.802471 184.4373,78.780558 184.41879,79.757187 C 183.81031,79.995335 183.08681,79.787402 182.58329,80.333437 C 181.93858,80.734519 182.11865,81.533876 182.27874,82.144926 C 182.40356,82.715295 182.01253,83.176368 181.88832,83.671722 C 181.65388,84.560931 180.47134,83.941074 179.8897,83.72468 C 179.52636,83.506066 179.10797,82.948219 178.8501,82.940825 C 178.54602,83.030093 178.04811,83.912695 178.02164,83.730159 C 178.28687,83.245557 178.36913,82.564482 179.02675,82.609706 C 179.21956,82.367381 179.5626,81.772938 179.00017,81.953014 C 179.15184,81.583957 179.71928,81.381206 179.38986,80.849431 C 179.59453,80.394863 179.57625,80.09307 179.17383,79.762014 C 179.57514,79.429807 178.68582,78.795901 179.0655,78.386014 C 179.02393,78.142702 178.71122,77.857865 179.17383,77.98768 C 179.54115,77.492714 180.09747,77.098537 180.73363,77.195133 C 181.21585,77.067164 180.04509,76.663298 179.7519,76.768576 C 179.0591,76.806206 178.37319,76.569761 177.67374,76.605151 C 177.23878,76.530823 176.62391,75.896937 177.38395,75.820266 C 178.03847,75.545236 178.99542,74.878357 178.01966,74.340076 C 177.61328,73.884361 178.27225,73.101002 177.6073,72.777603 C 177.306,72.628558 177.02283,72.830585 176.96853,72.342596 C 176.87272,72.20522 176.66287,72.215539 176.54849,72.084686 z "
            id="São_João_da_Pesqueira" />
        <path style="fill:#ffefd5;fill-rule:evenodd;stroke:#b22222;stroke-width:0.25400001;stroke-opacity:1"
            d="M 140.17049,94.320389 C 140.75522,94.198763 141.29754,93.428093 141.82715,94.088678 C 142.4575,94.3205 142.95935,95.270449 143.74359,94.762041 C 144.28228,94.39948 144.53043,93.186799 145.2181,94.069987 C 145.8869,94.566517 146.64435,95.141913 147.42389,94.498955 C 147.8827,94.408776 148.28865,94.50707 148.13004,93.903583 C 148.21919,93.198804 147.44008,92.677042 147.48901,91.925935 C 147.22705,91.514199 146.69247,91.363821 147.05894,90.809373 C 147.2794,90.225809 147.11104,89.257994 147.51024,88.898261 C 147.66234,88.778312 148.29223,88.456466 148.09362,89.062979 C 148.28522,89.187561 148.54394,88.530179 148.88007,88.989677 C 149.35101,88.615224 150.21222,89.026324 150.35052,89.630094 C 150.07677,90.025234 150.17743,90.155646 150.60338,90.02182 C 150.97109,90.268938 151.37277,90.009069 151.66141,90.035887 C 151.61711,90.629161 150.93671,91.171939 150.84685,91.815678 C 151.14988,92.356389 152.4064,92.548067 152.46549,91.713052 C 153.02073,91.281881 152.96889,92.14551 152.53783,92.346718 C 152.48526,93.225089 153.50045,93.333305 153.88477,93.979497 C 154.31375,94.543857 154.61992,95.494969 155.50749,95.117385 C 155.83851,95.632041 154.9857,96.38828 155.82703,96.596298 C 156.25496,97.067534 156.59732,97.58671 157.02968,98.026622 C 156.73241,98.56658 157.73852,97.889815 157.27306,98.513552 C 156.79594,99.190222 156.18998,99.68068 155.60648,100.29009 C 155.22241,101.07696 154.1981,100.08255 153.8525,100.75938 C 153.53367,100.88291 153.61736,100.10128 153.0982,100.45438 C 152.37098,100.44321 151.9058,101.19384 152.02716,101.85697 C 151.93833,102.34791 151.29499,102.27984 151.34283,101.70774 C 150.74152,101.02057 150.64549,103.0039 149.94849,102.17905 C 149.48287,102.70181 148.52912,102.36226 148.26294,102.93318 C 147.71169,102.52895 147.0501,102.46184 146.33386,102.63692 C 146.04286,101.92506 144.92667,102.15596 144.46183,101.63605 C 143.92391,102.12926 143.18704,101.761 142.59854,101.79769 C 141.88916,101.6737 141.864,100.47301 140.96716,100.83938 C 140.92096,100.03967 141.5356,99.360078 142.01716,98.80038 C 142.43705,97.786493 140.22851,98.460409 140.93922,97.617426 C 141.24187,96.875776 141.32708,96.036648 140.71757,95.359635 C 140.65158,94.936895 140.41542,94.651691 140.17049,94.320389 z "
            id="São_Pedro_do_Sul" />
        <path style="fill:#ffefd5;fill-rule:evenodd;stroke:#b22222;stroke-width:0.25400001;stroke-opacity:1"
            d="M 165.68449,100.00638 C 166.19763,99.769321 166.86926,99.91661 167.22349,100.33205 C 167.63009,100.08804 167.97409,100.38459 168.34404,100.38332 C 168.5032,99.864764 168.53355,99.294135 168.45482,98.756718 C 168.3618,97.999686 168.95464,97.419067 169.1679,96.782708 C 169.0633,96.285692 169.67649,95.799926 169.56094,95.477971 C 169.20542,95.322268 168.68052,95.158364 169.07049,94.718711 C 169.70007,94.843856 169.87779,93.567069 170.38928,94.005465 C 170.64299,94.643665 170.99988,93.568723 171.45204,93.757009 C 172.05096,93.618287 172.65913,93.652385 173.25349,93.723043 C 173.62571,93.714612 173.86138,94.350512 173.99421,94.627357 C 173.57593,95.229985 174.36791,95.420539 174.73622,95.774058 C 175.25761,96.007873 174.45996,96.75966 174.39806,97.203363 C 174.27959,97.850246 173.59493,98.104885 173.39533,98.686411 C 173.24864,99.07624 173.14839,99.387589 173.66395,99.473346 C 173.90476,100.02161 174.67243,99.76742 175.10378,100.15243 C 175.55759,100.43255 175.99023,100.8299 176.11439,101.36071 C 176.12471,101.77594 175.69769,102.27176 175.30228,102.47947 C 175.06274,102.72323 174.67988,102.90787 174.69219,103.24754 C 174.34711,103.61812 173.7597,104.11251 173.22742,103.83476 C 172.86168,103.61652 172.34674,103.61201 171.94885,103.61078 C 171.29733,103.75761 170.99575,104.38226 170.41382,104.71389 C 169.98652,105.08989 169.45245,105.39409 168.87149,105.42038 C 168.28799,105.49252 167.71298,105.48852 167.13354,105.29993 C 166.69076,105.38424 166.36921,106.54324 165.84304,106.07317 C 165.3921,105.73697 165.26648,105.06445 165.76966,104.72738 C 165.88917,104.20926 165.9072,103.67221 166.00383,103.15062 C 165.71675,102.83592 165.24968,102.44808 165.41384,101.95214 C 165.24689,101.34134 165.78262,100.88513 165.78879,100.32232 C 165.73742,100.23161 165.70837,100.11043 165.68449,100.00638 z "
            id="Sátão" />
        <path style="fill:#ffefd5;fill-rule:evenodd;stroke:#b22222;stroke-width:0.25400001;stroke-opacity:1"
            d="M 178.46849,83.247986 C 178.7729,83.014593 178.93552,82.72067 179.14524,83.140069 C 179.65465,83.56688 180.2153,83.978839 180.92153,84.097691 C 181.37085,84.101314 181.91113,83.953439 181.63332,84.571297 C 181.77461,85.467453 182.77783,85.900467 183.01665,86.750175 C 182.71605,87.339212 182.71084,87.974278 183.29243,88.403662 C 183.84615,88.997871 184.15591,89.776378 183.52903,90.430689 C 182.98341,91.131165 183.69873,91.487019 184.15664,91.906642 C 184.71254,92.23583 184.88572,92.691887 184.54201,93.258759 C 184.37026,93.877983 184.08395,94.535999 183.63678,94.975981 C 183.60125,95.617498 183.04172,96.111692 182.75367,96.617332 C 182.42741,97.345559 181.7112,96.685986 181.50208,96.1494 C 181.0019,95.908883 180.4517,95.646533 180.44215,94.97965 C 179.89122,94.623206 179.77513,93.951605 179.05515,93.795317 C 178.64798,93.039065 177.78393,93.529337 177.16613,93.200899 C 176.79548,93.024769 176.30282,92.547233 176.26516,93.235898 C 175.74976,93.750511 175.08299,94.249006 175.07811,95.044918 C 175.17046,95.480466 175.01454,96.199282 174.50511,95.615237 C 174.16397,95.307937 173.62548,95.151161 173.9945,94.6273 C 173.81658,93.964823 173.26946,93.497052 172.52916,93.686654 C 172.11172,93.47126 171.13165,94.039327 171.06818,93.661281 C 171.14038,92.962043 171.37359,92.362653 171.60582,91.712987 C 172.28306,91.705536 172.86775,91.35457 173.16681,90.737242 C 173.51071,90.212679 174.26682,90.437704 174.7056,89.899787 C 175.30016,89.675024 176.06384,89.945121 176.5896,89.339897 C 177.30631,89.067031 177.2141,88.343568 176.82229,87.857064 C 176.72698,87.311457 177.14482,86.828283 177.65669,86.872533 C 177.56167,86.2544 177.72368,85.518966 177.97834,84.88903 C 177.43891,84.19423 178.06668,83.831795 178.46849,83.247986 z "
            id="Sernancelhe" />
        <path style="fill:#ffefd5;fill-rule:evenodd;stroke:#b22222;stroke-width:0.25400001;stroke-opacity:1"
            d="M 172.25749,73.044388 C 172.73629,73.072066 173.1339,72.70761 173.60878,72.799718 C 174.1005,72.984653 174.65723,73.054793 175.18927,73.004704 C 175.81595,73.003659 176.05504,71.954579 176.65976,72.158229 C 177.09281,72.205066 177.00394,72.915698 177.45312,72.697592 C 178.00594,72.878809 178.00815,73.535281 177.83664,74.00682 C 177.90718,74.495624 178.93877,74.826448 178.23626,75.265288 C 177.87423,75.552552 177.47804,75.841752 177.01982,75.941382 C 176.96261,76.439389 177.67844,76.646082 178.08866,76.664968 C 178.57072,76.489573 179.06402,76.802366 179.54425,76.811044 C 179.9753,76.681168 180.73938,76.847482 180.90474,77.181573 C 180.42813,77.175148 179.858,77.204143 179.5217,77.611184 C 179.34037,77.805947 179.18989,78.0808 178.88481,77.969381 C 179.20033,78.419453 178.80132,78.97766 179.2838,79.449225 C 179.34712,79.666331 179.0614,79.915175 179.45216,80.095587 C 179.7085,80.186679 179.32425,80.453865 179.50048,80.667381 C 179.24114,81.014667 179.72854,81.528642 179.12576,81.712292 C 178.80907,81.908726 179.12992,82.026747 179.33748,81.953048 C 179.27097,82.433178 178.99234,82.733173 178.53012,82.731241 C 178.25697,82.966793 178.29901,83.370338 178.05385,83.651757 C 177.81891,84.030146 177.39435,83.267108 177.15065,83.086548 C 176.61642,82.626465 176.2339,82.021619 175.70514,81.554721 C 175.31808,81.286134 174.80341,81.453428 174.43875,81.171227 C 173.98424,80.848335 173.18589,81.019369 172.84296,80.872845 C 173.0973,80.404368 173.54064,79.995846 173.57935,79.401324 C 173.75672,78.948117 173.14334,78.724723 173.43263,78.260889 C 173.56327,77.786221 172.84901,77.876841 172.99414,77.393303 C 172.79143,76.999882 173.096,76.490546 172.81576,76.120795 C 172.59318,75.772229 172.73988,75.284692 172.7952,75.032186 C 171.9979,74.892676 173.71902,74.488584 172.96548,74.159262 C 172.59615,73.922861 172.10656,73.525255 172.25747,73.044385 L 172.25749,73.044388 z "
            id="Tabuaço" />
        <path style="fill:#ffefd5;fill-rule:evenodd;stroke:#b22222;stroke-width:0.25400001;stroke-opacity:1"
            d="M 171.24348,82.134384 C 171.16276,81.658985 170.8164,81.155416 170.28305,81.173629 C 169.85112,81.025571 169.52148,81.563407 169.14316,81.247052 C 168.92987,81.695225 168.49603,81.725448 168.37949,81.21626 C 167.95598,80.862609 168.17708,80.427747 168.52061,80.091542 C 168.71067,79.510337 169.61816,80.42041 169.52233,79.698112 C 169.42334,79.171082 168.64564,79.191442 168.24044,78.973156 C 167.74241,78.828713 167.239,78.698329 166.71683,78.657719 C 166.68578,79.130587 166.01573,79.307385 166.12408,79.770627 C 166.18006,80.192445 166.05622,80.607367 166.14091,81.028133 C 166.24258,81.511115 165.7501,81.758612 165.38057,81.89734 C 164.98353,82.012908 164.56846,81.846875 164.16491,81.868508 C 163.58386,81.577433 163.29071,82.248976 163.49307,82.724978 C 163.52436,83.36278 162.73326,82.884041 162.39157,83.209025 C 161.87759,83.490374 162.1421,84.269144 161.56066,84.532095 C 161.33515,84.937313 161.56664,85.431283 161.70054,85.829667 C 161.84087,86.177485 162.15829,86.437407 162.3982,86.725221 C 162.66224,86.904064 162.8897,87.519962 163.24766,87.200543 C 163.53278,86.878591 163.6782,86.474 163.95408,86.202533 C 164.3149,85.970948 164.56685,85.318372 165.06396,85.755716 C 165.48682,86.035455 166.13172,85.842538 166.44077,86.310266 C 166.74053,86.770891 165.75968,87.150862 166.34287,87.572465 C 166.62302,87.856901 166.64607,88.266975 167.12729,88.078489 C 167.41618,87.970436 167.92747,88.173642 167.73083,87.693381 C 167.84899,87.264368 167.73341,86.807884 167.81661,86.368925 C 167.83254,85.921722 167.70188,85.482632 167.72147,85.031024 C 167.67546,84.566922 167.89563,84.127213 167.82047,83.663905 C 167.77805,83.338087 167.51233,82.735296 168.06766,82.848192 C 168.67134,82.755897 169.22925,82.440064 169.84917,82.442044 C 170.32174,82.37867 170.77214,82.230953 171.24348,82.134384 z "
            id="Tarouca" />
        <path style="fill:#ffefd5;fill-rule:evenodd;stroke:#b22222;stroke-width:0.25400001;stroke-opacity:1"
            d="M 140.55049,118.04169 C 139.96347,117.64278 139.73042,116.99114 139.3885,116.4029 C 139.17335,116.04348 138.27742,116.37808 138.5584,115.64665 C 138.26857,115.01002 138.55803,114.1688 138.02143,113.62619 C 137.70129,113.20932 137.17318,112.30732 137.73445,112.00464 C 137.75916,111.63458 138.13128,112.13821 138.27293,111.72364 C 138.75964,111.33842 139.20148,111.94457 139.5683,111.36563 C 140.13734,111.2558 140.63149,110.89572 141.11987,111.32721 C 141.96648,111.18698 141.61616,112.43035 142.53883,112.26056 C 143.60553,112.54946 141.97112,113.46928 142.55056,114.1328 C 143.35656,114.79825 143.77938,113.72739 144.37849,113.35201 C 144.84598,112.8866 145.10693,112.24525 145.27053,111.74015 C 146.00145,111.35724 145.95087,110.67783 146.0575,110.01353 C 146.28495,109.30945 146.93861,109.06652 147.55816,109.25969 C 148.41029,109.23483 149.17667,109.63445 149.73849,110.29169 C 150.40581,110.64752 151.32658,110.55548 151.68779,111.37451 C 152.01573,112.07403 152.67151,112.00076 153.24599,112.04407 C 153.75417,112.44286 154.86575,112.62058 154.31249,113.44235 C 154.28568,114.03237 153.78517,114.45406 153.24383,114.72802 C 153.66512,115.15919 152.77273,115.91589 153.70693,115.77591 C 154.3155,115.45558 155.04949,115.76456 155.57983,116.12235 C 154.94939,116.77095 156.21489,117.37598 155.45186,117.89006 C 154.82558,118.28563 154.42945,118.95741 153.68465,119.19111 C 153.11315,119.39964 152.59319,119.81836 153.05223,120.40762 C 152.67296,121.06237 151.89232,121.31658 151.1615,121.50035 C 150.66609,121.65133 150.2794,121.46657 149.90445,121.33571 C 149.4734,121.7328 148.05909,122.38463 148.15512,121.3635 C 147.80562,121.00004 147.47938,122.22605 146.88954,122.02558 C 146.22194,122.00442 145.54196,122.14368 145.11383,122.51435 C 144.85472,121.95461 145.07457,120.77352 144.112,120.96142 C 143.36888,120.86974 143.01195,120.20846 142.98478,119.5796 C 142.65099,118.99403 142.47609,118.20886 141.86565,117.91697 C 141.46908,117.48165 141.01456,118.08042 140.55049,118.04169 z "
            id="Tondela" />
        <path style="fill:#ffefd5;fill-rule:evenodd;stroke:#b22222;stroke-width:0.25400001;stroke-opacity:1"
            d="M 163.4025,95.044685 C 163.75075,94.31546 162.52583,94.372686 162.40446,93.783578 C 162.27344,93.156515 161.77617,92.702647 161.47751,92.143995 C 161.31883,91.686659 160.77444,91.44867 160.58299,91.110021 C 161.04041,91.06576 161.34333,90.651121 161.32015,90.137688 C 162.03479,90.224397 162.36268,89.599181 162.73681,89.104951 C 162.57664,88.577422 163.37702,88.391892 163.57926,87.992028 C 163.96262,88.10011 164.12498,88.64109 164.59983,88.623266 C 164.90228,88.88601 165.36885,88.872242 165.43982,88.454186 C 165.80044,88.292511 166.02223,87.81338 166.45916,88.138521 C 166.9885,88.144566 167.55342,87.897199 168.07049,88.104996 C 168.6664,88.37537 169.09111,88.990539 169.18688,89.622932 C 169.55877,90.070187 169.60409,90.608924 169.13753,91.01882 C 168.81337,91.352031 168.36394,91.874499 168.88915,92.256355 C 169.11851,92.728147 169.10692,93.479471 169.69293,93.657398 C 170.43222,93.77509 169.71652,94.275903 169.48682,94.610355 C 169.0149,94.549281 168.64612,95.262223 169.27586,95.339897 C 169.65052,95.41747 169.73264,95.6625 169.42674,95.892458 C 169.11498,96.361419 169.28733,96.976081 168.86553,97.381333 C 168.4981,97.919838 168.39072,98.592684 168.50078,99.220791 C 168.44561,99.61313 168.58979,100.74173 167.9209,100.2919 C 167.63725,100.04219 167.216,100.57371 167.02457,100.11395 C 166.60596,99.900732 166.09123,99.819357 165.64782,99.988029 C 165.37157,99.426961 165.67842,98.76953 165.41005,98.276613 C 164.95118,97.913802 165.30323,97.232228 164.92233,96.860603 C 164.49827,96.309299 164.09571,95.739302 163.5756,95.271049 C 163.48149,95.243618 163.48352,95.042716 163.4025,95.044685 z "
            id="Vila_Nova_de_Paiva" />
        <path style="fill:#ffefd5;fill-rule:evenodd;stroke:#b22222;stroke-width:0.25400001;stroke-opacity:1"
            d="M 156.61249,116.32069 C 156.8199,115.60693 157.61872,114.91349 158.28975,114.43111 C 158.62884,114.01245 157.93271,113.61635 158.5797,113.23719 C 159.20826,112.7081 159.51092,111.66034 160.40166,111.54494 C 161.07316,110.80539 162.32869,111.09195 162.67617,109.95216 C 162.94044,108.84185 164.24902,109.85979 164.87487,109.33255 C 165.32138,109.13951 165.78472,108.999 166.15549,108.82436 C 165.71419,108.31493 164.43494,107.89222 165.03426,107.08347 C 165.87128,107.0561 166.29634,106.20222 165.48549,105.67369 C 165.39227,104.91187 166.06639,104.32061 165.96366,103.46066 C 165.95047,102.81679 165.09583,102.33457 165.41663,101.53439 C 165.85432,100.72152 165.75285,99.990662 165.47884,99.132926 C 165.77795,98.360772 164.90438,97.840383 165.06882,97.018352 C 164.53861,96.47375 163.86737,95.286482 163.34165,95.152201 C 163.05702,96.042957 161.72044,95.968408 161.76543,97.110893 C 161.52191,97.832391 160.96779,98.766535 160.15711,98.128575 C 159.46785,98.771154 158.64991,98.135119 157.95346,98.101249 C 157.07072,98.125078 156.974,99.306127 156.20942,99.67731 C 155.71437,100.48302 154.92169,100.8113 154.07154,100.48833 C 153.78292,100.96211 153.65168,100.73442 153.48015,100.38636 C 152.61426,100.2373 151.61099,101.38654 152.16044,101.89876 C 153.00749,101.38594 153.14294,102.88621 153.21753,103.33962 C 152.70238,104.07875 152.70932,105.0559 152.3922,105.72929 C 151.72916,106.49185 151.42048,107.66385 150.27801,107.89246 C 149.74892,108.30287 148.91125,108.96948 148.94732,109.57625 C 149.60417,110.63239 151.06926,110.3355 151.68845,111.37384 C 152.19618,112.41211 153.37027,111.66828 154.02315,112.55435 C 154.82687,112.71441 154.26793,113.85881 153.9354,114.21135 C 153.61324,114.62578 153.03432,114.64108 153.38949,115.30669 C 152.77176,116.20615 154.45202,115.37925 154.84774,115.74819 C 155.45138,115.84087 155.97662,116.73022 156.61249,116.32069 z "
            id="Viseu" />
        <path style="fill:#ffefd5;fill-rule:evenodd;stroke:#b22222;stroke-width:0.25400001;stroke-opacity:1"
            d="M 139.19249,109.87469 C 139.70994,110.01404 140.0452,110.48542 140.54699,110.66789 C 140.82159,110.50734 140.82625,109.79963 141.40023,110.02546 C 141.88043,109.93173 142.59887,110.11121 142.24267,110.75077 C 142.52161,111.21345 143.17067,111.5019 143.65977,111.79152 C 144.12061,111.84886 144.53286,111.99101 144.96253,111.84852 C 145.42476,111.73763 146.18488,111.10668 145.93495,110.51231 C 145.9702,109.8945 146.57364,108.8962 147.28117,109.27027 C 147.81422,109.05362 148.46548,109.64313 148.87689,109.36594 C 149.34327,108.76156 149.81341,108.05824 150.54526,107.76851 C 151.07971,107.58563 151.56179,107.15222 151.77472,106.62591 C 151.83163,105.97746 152.81028,105.76631 152.59216,105.11269 C 152.56518,104.56065 152.94743,104.06048 153.12991,103.5472 C 153.53658,103.02198 152.86231,102.60597 152.8785,102.04541 C 152.54174,101.12465 151.49878,102.88777 151.38478,101.82872 C 151.18943,101.12585 150.60068,101.91616 150.54809,102.28386 C 150.17305,102.53568 149.94442,101.96444 149.60949,102.38293 C 149.17977,102.69625 148.43038,102.39847 148.26294,102.93316 C 147.83599,102.81272 147.56225,102.39085 147.03779,102.5571 C 146.4452,102.47482 146.97914,103.45167 146.29058,103.45001 C 145.79403,103.60718 146.53009,104.11531 145.94649,104.27969 C 145.79978,104.59788 145.5454,105.09157 145.22249,105.14869 C 144.62183,104.59708 144.01797,105.17748 143.38916,105.25625 C 142.81596,105.37791 142.13354,105.46708 141.67137,105.0211 C 141.1464,104.64605 140.49576,105.60888 141.16262,105.92504 C 141.41239,106.62492 140.41978,106.81963 140.32064,107.43774 C 140.04276,107.86612 139.27661,107.88808 139.47376,108.51852 C 139.47391,108.74457 140.00707,108.76554 139.6153,109.03992 C 139.61335,109.42108 139.53223,109.64396 139.19249,109.87469 z "
            id="Vouzela" />
    </g>
    <!-- EO MUNICIPIOS -->
</svg>